<?xml version="1.0" encoding="utf-8" standalone="no"?>
<!DOCTYPE svg PUBLIC "-//W3C//DTD SVG 1.1//EN"
  "http://www.w3.org/Graphics/SVG/1.1/DTD/svg11.dtd">
<svg xmlns:xlink="http://www.w3.org/1999/xlink" width="642.982813pt" height="254.994375pt" viewBox="0 0 642.982813 254.994375" xmlns="http://www.w3.org/2000/svg" version="1.1">
 <metadata>
  <rdf:RDF xmlns:dc="http://purl.org/dc/elements/1.1/" xmlns:cc="http://creativecommons.org/ns#" xmlns:rdf="http://www.w3.org/1999/02/22-rdf-syntax-ns#">
   <cc:Work>
    <dc:type rdf:resource="http://purl.org/dc/dcmitype/StillImage"/>
    <dc:date>2024-02-26T10:41:42.722660</dc:date>
    <dc:format>image/svg+xml</dc:format>
    <dc:creator>
     <cc:Agent>
      <dc:title>Matplotlib v3.7.1, https://matplotlib.org/</dc:title>
     </cc:Agent>
    </dc:creator>
   </cc:Work>
  </rdf:RDF>
 </metadata>
 <defs>
  <style type="text/css">*{stroke-linejoin: round; stroke-linecap: butt}</style>
 </defs>
 <g id="figure_1">
  <g id="patch_1">
   <path d="M 0 254.994375 
L 642.982813 254.994375 
L 642.982813 -0 
L 0 -0 
z
" style="fill: #ffffff"/>
  </g>
  <g id="axes_1">
   <g id="patch_2">
    <path d="M 63.382812 203.038125 
L 621.382812 203.038125 
L 621.382812 36.718125 
L 63.382812 36.718125 
z
" style="fill: #ffffff"/>
   </g>
   <g id="matplotlib.axis_1">
    <g id="xtick_1">
     <g id="line2d_1">
      <defs>
       <path id="m63bac1f9a2" d="M 0 0 
L 0 3.5 
" style="stroke: #000000; stroke-width: 0.8"/>
      </defs>
      <g>
       <use xlink:href="#m63bac1f9a2" x="88.746449" y="203.038125" style="stroke: #000000; stroke-width: 0.8"/>
      </g>
     </g>
     <g id="text_1">
      <!-- −20 -->
      <g transform="translate(78.194105 217.636562) scale(0.1 -0.1)">
       <defs>
        <path id="DejaVuSans-2212" d="M 678 2272 
L 4684 2272 
L 4684 1741 
L 678 1741 
L 678 2272 
z
" transform="scale(0.015625)"/>
        <path id="DejaVuSans-32" d="M 1228 531 
L 3431 531 
L 3431 0 
L 469 0 
L 469 531 
Q 828 903 1448 1529 
Q 2069 2156 2228 2338 
Q 2531 2678 2651 2914 
Q 2772 3150 2772 3378 
Q 2772 3750 2511 3984 
Q 2250 4219 1831 4219 
Q 1534 4219 1204 4116 
Q 875 4013 500 3803 
L 500 4441 
Q 881 4594 1212 4672 
Q 1544 4750 1819 4750 
Q 2544 4750 2975 4387 
Q 3406 4025 3406 3419 
Q 3406 3131 3298 2873 
Q 3191 2616 2906 2266 
Q 2828 2175 2409 1742 
Q 1991 1309 1228 531 
z
" transform="scale(0.015625)"/>
        <path id="DejaVuSans-30" d="M 2034 4250 
Q 1547 4250 1301 3770 
Q 1056 3291 1056 2328 
Q 1056 1369 1301 889 
Q 1547 409 2034 409 
Q 2525 409 2770 889 
Q 3016 1369 3016 2328 
Q 3016 3291 2770 3770 
Q 2525 4250 2034 4250 
z
M 2034 4750 
Q 2819 4750 3233 4129 
Q 3647 3509 3647 2328 
Q 3647 1150 3233 529 
Q 2819 -91 2034 -91 
Q 1250 -91 836 529 
Q 422 1150 422 2328 
Q 422 3509 836 4129 
Q 1250 4750 2034 4750 
z
" transform="scale(0.015625)"/>
       </defs>
       <use xlink:href="#DejaVuSans-2212"/>
       <use xlink:href="#DejaVuSans-32" x="83.789062"/>
       <use xlink:href="#DejaVuSans-30" x="147.412109"/>
      </g>
     </g>
    </g>
    <g id="xtick_2">
     <g id="line2d_2">
      <g>
       <use xlink:href="#m63bac1f9a2" x="152.15554" y="203.038125" style="stroke: #000000; stroke-width: 0.8"/>
      </g>
     </g>
     <g id="text_2">
      <!-- −15 -->
      <g transform="translate(141.603196 217.636562) scale(0.1 -0.1)">
       <defs>
        <path id="DejaVuSans-31" d="M 794 531 
L 1825 531 
L 1825 4091 
L 703 3866 
L 703 4441 
L 1819 4666 
L 2450 4666 
L 2450 531 
L 3481 531 
L 3481 0 
L 794 0 
L 794 531 
z
" transform="scale(0.015625)"/>
        <path id="DejaVuSans-35" d="M 691 4666 
L 3169 4666 
L 3169 4134 
L 1269 4134 
L 1269 2991 
Q 1406 3038 1543 3061 
Q 1681 3084 1819 3084 
Q 2600 3084 3056 2656 
Q 3513 2228 3513 1497 
Q 3513 744 3044 326 
Q 2575 -91 1722 -91 
Q 1428 -91 1123 -41 
Q 819 9 494 109 
L 494 744 
Q 775 591 1075 516 
Q 1375 441 1709 441 
Q 2250 441 2565 725 
Q 2881 1009 2881 1497 
Q 2881 1984 2565 2268 
Q 2250 2553 1709 2553 
Q 1456 2553 1204 2497 
Q 953 2441 691 2322 
L 691 4666 
z
" transform="scale(0.015625)"/>
       </defs>
       <use xlink:href="#DejaVuSans-2212"/>
       <use xlink:href="#DejaVuSans-31" x="83.789062"/>
       <use xlink:href="#DejaVuSans-35" x="147.412109"/>
      </g>
     </g>
    </g>
    <g id="xtick_3">
     <g id="line2d_3">
      <g>
       <use xlink:href="#m63bac1f9a2" x="215.564631" y="203.038125" style="stroke: #000000; stroke-width: 0.8"/>
      </g>
     </g>
     <g id="text_3">
      <!-- −10 -->
      <g transform="translate(205.012287 217.636562) scale(0.1 -0.1)">
       <use xlink:href="#DejaVuSans-2212"/>
       <use xlink:href="#DejaVuSans-31" x="83.789062"/>
       <use xlink:href="#DejaVuSans-30" x="147.412109"/>
      </g>
     </g>
    </g>
    <g id="xtick_4">
     <g id="line2d_4">
      <g>
       <use xlink:href="#m63bac1f9a2" x="278.973722" y="203.038125" style="stroke: #000000; stroke-width: 0.8"/>
      </g>
     </g>
     <g id="text_4">
      <!-- −5 -->
      <g transform="translate(271.602628 217.636562) scale(0.1 -0.1)">
       <use xlink:href="#DejaVuSans-2212"/>
       <use xlink:href="#DejaVuSans-35" x="83.789062"/>
      </g>
     </g>
    </g>
    <g id="xtick_5">
     <g id="line2d_5">
      <g>
       <use xlink:href="#m63bac1f9a2" x="342.382812" y="203.038125" style="stroke: #000000; stroke-width: 0.8"/>
      </g>
     </g>
     <g id="text_5">
      <!-- 0 -->
      <g transform="translate(339.201563 217.636562) scale(0.1 -0.1)">
       <use xlink:href="#DejaVuSans-30"/>
      </g>
     </g>
    </g>
    <g id="xtick_6">
     <g id="line2d_6">
      <g>
       <use xlink:href="#m63bac1f9a2" x="405.791903" y="203.038125" style="stroke: #000000; stroke-width: 0.8"/>
      </g>
     </g>
     <g id="text_6">
      <!-- 5 -->
      <g transform="translate(402.610653 217.636562) scale(0.1 -0.1)">
       <use xlink:href="#DejaVuSans-35"/>
      </g>
     </g>
    </g>
    <g id="xtick_7">
     <g id="line2d_7">
      <g>
       <use xlink:href="#m63bac1f9a2" x="469.200994" y="203.038125" style="stroke: #000000; stroke-width: 0.8"/>
      </g>
     </g>
     <g id="text_7">
      <!-- 10 -->
      <g transform="translate(462.838494 217.636562) scale(0.1 -0.1)">
       <use xlink:href="#DejaVuSans-31"/>
       <use xlink:href="#DejaVuSans-30" x="63.623047"/>
      </g>
     </g>
    </g>
    <g id="xtick_8">
     <g id="line2d_8">
      <g>
       <use xlink:href="#m63bac1f9a2" x="532.610085" y="203.038125" style="stroke: #000000; stroke-width: 0.8"/>
      </g>
     </g>
     <g id="text_8">
      <!-- 15 -->
      <g transform="translate(526.247585 217.636562) scale(0.1 -0.1)">
       <use xlink:href="#DejaVuSans-31"/>
       <use xlink:href="#DejaVuSans-35" x="63.623047"/>
      </g>
     </g>
    </g>
    <g id="xtick_9">
     <g id="line2d_9">
      <g>
       <use xlink:href="#m63bac1f9a2" x="596.019176" y="203.038125" style="stroke: #000000; stroke-width: 0.8"/>
      </g>
     </g>
     <g id="text_9">
      <!-- 20 -->
      <g transform="translate(589.656676 217.636562) scale(0.1 -0.1)">
       <use xlink:href="#DejaVuSans-32"/>
       <use xlink:href="#DejaVuSans-30" x="63.623047"/>
      </g>
     </g>
    </g>
    <g id="text_10">
     <!-- Time [ms] -->
     <g transform="translate(317.183594 231.314687) scale(0.1 -0.1)">
      <defs>
       <path id="DejaVuSans-54" d="M -19 4666 
L 3928 4666 
L 3928 4134 
L 2272 4134 
L 2272 0 
L 1638 0 
L 1638 4134 
L -19 4134 
L -19 4666 
z
" transform="scale(0.015625)"/>
       <path id="DejaVuSans-69" d="M 603 3500 
L 1178 3500 
L 1178 0 
L 603 0 
L 603 3500 
z
M 603 4863 
L 1178 4863 
L 1178 4134 
L 603 4134 
L 603 4863 
z
" transform="scale(0.015625)"/>
       <path id="DejaVuSans-6d" d="M 3328 2828 
Q 3544 3216 3844 3400 
Q 4144 3584 4550 3584 
Q 5097 3584 5394 3201 
Q 5691 2819 5691 2113 
L 5691 0 
L 5113 0 
L 5113 2094 
Q 5113 2597 4934 2840 
Q 4756 3084 4391 3084 
Q 3944 3084 3684 2787 
Q 3425 2491 3425 1978 
L 3425 0 
L 2847 0 
L 2847 2094 
Q 2847 2600 2669 2842 
Q 2491 3084 2119 3084 
Q 1678 3084 1418 2786 
Q 1159 2488 1159 1978 
L 1159 0 
L 581 0 
L 581 3500 
L 1159 3500 
L 1159 2956 
Q 1356 3278 1631 3431 
Q 1906 3584 2284 3584 
Q 2666 3584 2933 3390 
Q 3200 3197 3328 2828 
z
" transform="scale(0.015625)"/>
       <path id="DejaVuSans-65" d="M 3597 1894 
L 3597 1613 
L 953 1613 
Q 991 1019 1311 708 
Q 1631 397 2203 397 
Q 2534 397 2845 478 
Q 3156 559 3463 722 
L 3463 178 
Q 3153 47 2828 -22 
Q 2503 -91 2169 -91 
Q 1331 -91 842 396 
Q 353 884 353 1716 
Q 353 2575 817 3079 
Q 1281 3584 2069 3584 
Q 2775 3584 3186 3129 
Q 3597 2675 3597 1894 
z
M 3022 2063 
Q 3016 2534 2758 2815 
Q 2500 3097 2075 3097 
Q 1594 3097 1305 2825 
Q 1016 2553 972 2059 
L 3022 2063 
z
" transform="scale(0.015625)"/>
       <path id="DejaVuSans-20" transform="scale(0.015625)"/>
       <path id="DejaVuSans-5b" d="M 550 4863 
L 1875 4863 
L 1875 4416 
L 1125 4416 
L 1125 -397 
L 1875 -397 
L 1875 -844 
L 550 -844 
L 550 4863 
z
" transform="scale(0.015625)"/>
       <path id="DejaVuSans-73" d="M 2834 3397 
L 2834 2853 
Q 2591 2978 2328 3040 
Q 2066 3103 1784 3103 
Q 1356 3103 1142 2972 
Q 928 2841 928 2578 
Q 928 2378 1081 2264 
Q 1234 2150 1697 2047 
L 1894 2003 
Q 2506 1872 2764 1633 
Q 3022 1394 3022 966 
Q 3022 478 2636 193 
Q 2250 -91 1575 -91 
Q 1294 -91 989 -36 
Q 684 19 347 128 
L 347 722 
Q 666 556 975 473 
Q 1284 391 1588 391 
Q 1994 391 2212 530 
Q 2431 669 2431 922 
Q 2431 1156 2273 1281 
Q 2116 1406 1581 1522 
L 1381 1569 
Q 847 1681 609 1914 
Q 372 2147 372 2553 
Q 372 3047 722 3315 
Q 1072 3584 1716 3584 
Q 2034 3584 2315 3537 
Q 2597 3491 2834 3397 
z
" transform="scale(0.015625)"/>
       <path id="DejaVuSans-5d" d="M 1947 4863 
L 1947 -844 
L 622 -844 
L 622 -397 
L 1369 -397 
L 1369 4416 
L 622 4416 
L 622 4863 
L 1947 4863 
z
" transform="scale(0.015625)"/>
      </defs>
      <use xlink:href="#DejaVuSans-54"/>
      <use xlink:href="#DejaVuSans-69" x="57.958984"/>
      <use xlink:href="#DejaVuSans-6d" x="85.742188"/>
      <use xlink:href="#DejaVuSans-65" x="183.154297"/>
      <use xlink:href="#DejaVuSans-20" x="244.677734"/>
      <use xlink:href="#DejaVuSans-5b" x="276.464844"/>
      <use xlink:href="#DejaVuSans-6d" x="315.478516"/>
      <use xlink:href="#DejaVuSans-73" x="412.890625"/>
      <use xlink:href="#DejaVuSans-5d" x="464.990234"/>
     </g>
    </g>
   </g>
   <g id="matplotlib.axis_2">
    <g id="ytick_1">
     <g id="line2d_10">
      <defs>
       <path id="mc478352494" d="M 0 0 
L -3.5 0 
" style="stroke: #000000; stroke-width: 0.8"/>
      </defs>
      <g>
       <use xlink:href="#mc478352494" x="63.382812" y="192.01919" style="stroke: #000000; stroke-width: 0.8"/>
      </g>
     </g>
     <g id="text_11">
      <!-- −40 -->
      <g transform="translate(35.278125 195.818408) scale(0.1 -0.1)">
       <defs>
        <path id="DejaVuSans-34" d="M 2419 4116 
L 825 1625 
L 2419 1625 
L 2419 4116 
z
M 2253 4666 
L 3047 4666 
L 3047 1625 
L 3713 1625 
L 3713 1100 
L 3047 1100 
L 3047 0 
L 2419 0 
L 2419 1100 
L 313 1100 
L 313 1709 
L 2253 4666 
z
" transform="scale(0.015625)"/>
       </defs>
       <use xlink:href="#DejaVuSans-2212"/>
       <use xlink:href="#DejaVuSans-34" x="83.789062"/>
       <use xlink:href="#DejaVuSans-30" x="147.412109"/>
      </g>
     </g>
    </g>
    <g id="ytick_2">
     <g id="line2d_11">
      <g>
       <use xlink:href="#mc478352494" x="63.382812" y="167.731439" style="stroke: #000000; stroke-width: 0.8"/>
      </g>
     </g>
     <g id="text_12">
      <!-- −30 -->
      <g transform="translate(35.278125 171.530658) scale(0.1 -0.1)">
       <defs>
        <path id="DejaVuSans-33" d="M 2597 2516 
Q 3050 2419 3304 2112 
Q 3559 1806 3559 1356 
Q 3559 666 3084 287 
Q 2609 -91 1734 -91 
Q 1441 -91 1130 -33 
Q 819 25 488 141 
L 488 750 
Q 750 597 1062 519 
Q 1375 441 1716 441 
Q 2309 441 2620 675 
Q 2931 909 2931 1356 
Q 2931 1769 2642 2001 
Q 2353 2234 1838 2234 
L 1294 2234 
L 1294 2753 
L 1863 2753 
Q 2328 2753 2575 2939 
Q 2822 3125 2822 3475 
Q 2822 3834 2567 4026 
Q 2313 4219 1838 4219 
Q 1578 4219 1281 4162 
Q 984 4106 628 3988 
L 628 4550 
Q 988 4650 1302 4700 
Q 1616 4750 1894 4750 
Q 2613 4750 3031 4423 
Q 3450 4097 3450 3541 
Q 3450 3153 3228 2886 
Q 3006 2619 2597 2516 
z
" transform="scale(0.015625)"/>
       </defs>
       <use xlink:href="#DejaVuSans-2212"/>
       <use xlink:href="#DejaVuSans-33" x="83.789062"/>
       <use xlink:href="#DejaVuSans-30" x="147.412109"/>
      </g>
     </g>
    </g>
    <g id="ytick_3">
     <g id="line2d_12">
      <g>
       <use xlink:href="#mc478352494" x="63.382812" y="143.443688" style="stroke: #000000; stroke-width: 0.8"/>
      </g>
     </g>
     <g id="text_13">
      <!-- −20 -->
      <g transform="translate(35.278125 147.242907) scale(0.1 -0.1)">
       <use xlink:href="#DejaVuSans-2212"/>
       <use xlink:href="#DejaVuSans-32" x="83.789062"/>
       <use xlink:href="#DejaVuSans-30" x="147.412109"/>
      </g>
     </g>
    </g>
    <g id="ytick_4">
     <g id="line2d_13">
      <g>
       <use xlink:href="#mc478352494" x="63.382812" y="119.155937" style="stroke: #000000; stroke-width: 0.8"/>
      </g>
     </g>
     <g id="text_14">
      <!-- −10 -->
      <g transform="translate(35.278125 122.955156) scale(0.1 -0.1)">
       <use xlink:href="#DejaVuSans-2212"/>
       <use xlink:href="#DejaVuSans-31" x="83.789062"/>
       <use xlink:href="#DejaVuSans-30" x="147.412109"/>
      </g>
     </g>
    </g>
    <g id="ytick_5">
     <g id="line2d_14">
      <g>
       <use xlink:href="#mc478352494" x="63.382812" y="94.868186" style="stroke: #000000; stroke-width: 0.8"/>
      </g>
     </g>
     <g id="text_15">
      <!-- 0 -->
      <g transform="translate(50.020313 98.667405) scale(0.1 -0.1)">
       <use xlink:href="#DejaVuSans-30"/>
      </g>
     </g>
    </g>
    <g id="ytick_6">
     <g id="line2d_15">
      <g>
       <use xlink:href="#mc478352494" x="63.382812" y="70.580435" style="stroke: #000000; stroke-width: 0.8"/>
      </g>
     </g>
     <g id="text_16">
      <!-- 10 -->
      <g transform="translate(43.657812 74.379654) scale(0.1 -0.1)">
       <use xlink:href="#DejaVuSans-31"/>
       <use xlink:href="#DejaVuSans-30" x="63.623047"/>
      </g>
     </g>
    </g>
    <g id="ytick_7">
     <g id="line2d_16">
      <g>
       <use xlink:href="#mc478352494" x="63.382812" y="46.292684" style="stroke: #000000; stroke-width: 0.8"/>
      </g>
     </g>
     <g id="text_17">
      <!-- 20 -->
      <g transform="translate(43.657812 50.091903) scale(0.1 -0.1)">
       <use xlink:href="#DejaVuSans-32"/>
       <use xlink:href="#DejaVuSans-30" x="63.623047"/>
      </g>
     </g>
    </g>
    <g id="text_18">
     <!-- Voltage [uV] -->
     <g transform="translate(29.198438 150.714063) rotate(-90) scale(0.1 -0.1)">
      <defs>
       <path id="DejaVuSans-56" d="M 1831 0 
L 50 4666 
L 709 4666 
L 2188 738 
L 3669 4666 
L 4325 4666 
L 2547 0 
L 1831 0 
z
" transform="scale(0.015625)"/>
       <path id="DejaVuSans-6f" d="M 1959 3097 
Q 1497 3097 1228 2736 
Q 959 2375 959 1747 
Q 959 1119 1226 758 
Q 1494 397 1959 397 
Q 2419 397 2687 759 
Q 2956 1122 2956 1747 
Q 2956 2369 2687 2733 
Q 2419 3097 1959 3097 
z
M 1959 3584 
Q 2709 3584 3137 3096 
Q 3566 2609 3566 1747 
Q 3566 888 3137 398 
Q 2709 -91 1959 -91 
Q 1206 -91 779 398 
Q 353 888 353 1747 
Q 353 2609 779 3096 
Q 1206 3584 1959 3584 
z
" transform="scale(0.015625)"/>
       <path id="DejaVuSans-6c" d="M 603 4863 
L 1178 4863 
L 1178 0 
L 603 0 
L 603 4863 
z
" transform="scale(0.015625)"/>
       <path id="DejaVuSans-74" d="M 1172 4494 
L 1172 3500 
L 2356 3500 
L 2356 3053 
L 1172 3053 
L 1172 1153 
Q 1172 725 1289 603 
Q 1406 481 1766 481 
L 2356 481 
L 2356 0 
L 1766 0 
Q 1100 0 847 248 
Q 594 497 594 1153 
L 594 3053 
L 172 3053 
L 172 3500 
L 594 3500 
L 594 4494 
L 1172 4494 
z
" transform="scale(0.015625)"/>
       <path id="DejaVuSans-61" d="M 2194 1759 
Q 1497 1759 1228 1600 
Q 959 1441 959 1056 
Q 959 750 1161 570 
Q 1363 391 1709 391 
Q 2188 391 2477 730 
Q 2766 1069 2766 1631 
L 2766 1759 
L 2194 1759 
z
M 3341 1997 
L 3341 0 
L 2766 0 
L 2766 531 
Q 2569 213 2275 61 
Q 1981 -91 1556 -91 
Q 1019 -91 701 211 
Q 384 513 384 1019 
Q 384 1609 779 1909 
Q 1175 2209 1959 2209 
L 2766 2209 
L 2766 2266 
Q 2766 2663 2505 2880 
Q 2244 3097 1772 3097 
Q 1472 3097 1187 3025 
Q 903 2953 641 2809 
L 641 3341 
Q 956 3463 1253 3523 
Q 1550 3584 1831 3584 
Q 2591 3584 2966 3190 
Q 3341 2797 3341 1997 
z
" transform="scale(0.015625)"/>
       <path id="DejaVuSans-67" d="M 2906 1791 
Q 2906 2416 2648 2759 
Q 2391 3103 1925 3103 
Q 1463 3103 1205 2759 
Q 947 2416 947 1791 
Q 947 1169 1205 825 
Q 1463 481 1925 481 
Q 2391 481 2648 825 
Q 2906 1169 2906 1791 
z
M 3481 434 
Q 3481 -459 3084 -895 
Q 2688 -1331 1869 -1331 
Q 1566 -1331 1297 -1286 
Q 1028 -1241 775 -1147 
L 775 -588 
Q 1028 -725 1275 -790 
Q 1522 -856 1778 -856 
Q 2344 -856 2625 -561 
Q 2906 -266 2906 331 
L 2906 616 
Q 2728 306 2450 153 
Q 2172 0 1784 0 
Q 1141 0 747 490 
Q 353 981 353 1791 
Q 353 2603 747 3093 
Q 1141 3584 1784 3584 
Q 2172 3584 2450 3431 
Q 2728 3278 2906 2969 
L 2906 3500 
L 3481 3500 
L 3481 434 
z
" transform="scale(0.015625)"/>
       <path id="DejaVuSans-75" d="M 544 1381 
L 544 3500 
L 1119 3500 
L 1119 1403 
Q 1119 906 1312 657 
Q 1506 409 1894 409 
Q 2359 409 2629 706 
Q 2900 1003 2900 1516 
L 2900 3500 
L 3475 3500 
L 3475 0 
L 2900 0 
L 2900 538 
Q 2691 219 2414 64 
Q 2138 -91 1772 -91 
Q 1169 -91 856 284 
Q 544 659 544 1381 
z
M 1991 3584 
L 1991 3584 
z
" transform="scale(0.015625)"/>
      </defs>
      <use xlink:href="#DejaVuSans-56"/>
      <use xlink:href="#DejaVuSans-6f" x="60.658203"/>
      <use xlink:href="#DejaVuSans-6c" x="121.839844"/>
      <use xlink:href="#DejaVuSans-74" x="149.623047"/>
      <use xlink:href="#DejaVuSans-61" x="188.832031"/>
      <use xlink:href="#DejaVuSans-67" x="250.111328"/>
      <use xlink:href="#DejaVuSans-65" x="313.587891"/>
      <use xlink:href="#DejaVuSans-20" x="375.111328"/>
      <use xlink:href="#DejaVuSans-5b" x="406.898438"/>
      <use xlink:href="#DejaVuSans-75" x="445.912109"/>
      <use xlink:href="#DejaVuSans-56" x="509.291016"/>
      <use xlink:href="#DejaVuSans-5d" x="577.699219"/>
     </g>
    </g>
   </g>
   <g id="line2d_17">
    <path d="M 88.746449 101.737776 
L 89.381333 101.465094 
L 90.016218 116.772159 
L 90.651102 109.412004 
L 91.285987 95.364467 
L 91.920871 92.771588 
L 92.555756 107.583838 
L 93.19064 110.292555 
L 93.825525 92.309312 
L 94.460409 95.21176 
L 95.095294 101.145866 
L 95.730179 118.575959 
L 96.365063 85.305137 
L 96.999948 88.967895 
L 97.634832 105.89192 
L 98.269717 104.872211 
L 98.904601 95.676603 
L 99.539486 89.998442 
L 100.17437 97.316954 
L 100.809255 108.711792 
L 101.444139 84.327568 
L 102.079024 66.71691 
L 102.713908 84.213009 
L 103.348793 97.057579 
L 103.983677 97.473637 
L 104.618562 61.885161 
L 105.253446 85.758595 
L 105.888331 91.907844 
L 106.523215 85.054693 
L 107.1581 72.051117 
L 107.792984 100.071769 
L 108.427869 103.22559 
L 109.062753 100.459295 
L 109.697638 92.172259 
L 110.332522 62.967157 
L 110.967407 97.187749 
L 111.602291 97.437859 
L 112.237176 103.147697 
L 112.87206 86.398042 
L 113.506945 104.381732 
L 114.141829 62.530087 
L 114.776714 67.258135 
L 115.411598 114.893318 
L 116.046483 97.3758 
L 116.681368 101.905131 
L 117.316252 90.998622 
L 117.951137 87.050622 
L 118.586021 65.646912 
L 119.220906 109.172682 
L 119.85579 103.742785 
L 120.490675 102.903076 
L 121.125559 95.43784 
L 121.760444 90.479641 
L 122.395328 101.390785 
L 123.030213 64.775285 
L 123.665097 95.110068 
L 124.299982 90.663285 
L 124.934866 114.971868 
L 125.569751 117.474902 
L 126.204635 105.082849 
L 126.83952 90.29723 
L 127.474404 89.099585 
L 128.109289 110.520168 
L 128.744173 104.405055 
L 129.379058 103.352062 
L 130.013942 95.55496 
L 130.648827 115.23929 
L 131.283711 110.833035 
L 131.918596 96.94713 
L 132.55348 92.918265 
L 133.188365 112.89416 
L 133.823249 90.58925 
L 134.458134 93.454806 
L 135.093018 110.481377 
L 135.727903 64.66489 
L 136.362787 114.713402 
L 136.997672 107.970599 
L 137.632556 90.503816 
L 138.267441 115.846613 
L 138.902326 90.904399 
L 139.53721 109.582534 
L 140.172095 87.989689 
L 140.806979 105.716392 
L 141.441864 95.527926 
L 142.076748 102.298778 
L 142.711633 105.514023 
L 143.346517 66.586727 
L 143.981402 87.685277 
L 144.616286 70.509414 
L 145.251171 90.861634 
L 145.886055 105.970916 
L 147.155824 74.435018 
L 148.425593 110.400444 
L 149.060478 93.446257 
L 149.695362 80.317474 
L 150.330247 71.739634 
L 150.965131 65.195041 
L 151.600016 95.132963 
L 152.2349 105.322357 
L 152.869785 126.164112 
L 153.504669 105.543983 
L 154.139554 72.427651 
L 154.774438 117.052533 
L 156.044207 79.736079 
L 156.679092 111.144744 
L 157.313976 106.339545 
L 157.948861 56.71675 
L 158.583745 65.685895 
L 159.21863 106.84445 
L 159.853515 103.175008 
L 160.488399 77.295245 
L 161.123284 104.656733 
L 161.758168 108.271802 
L 162.393053 114.631578 
L 163.027937 103.179761 
L 163.662822 77.189993 
L 164.297706 103.247715 
L 164.932591 63.827182 
L 165.567475 74.867595 
L 166.20236 77.848567 
L 166.837244 59.725374 
L 167.472129 111.20335 
L 168.107013 111.340242 
L 168.741898 113.22113 
L 169.376782 111.781721 
L 170.011667 105.69666 
L 170.646551 111.248459 
L 171.281436 109.956607 
L 171.91632 109.255071 
L 172.551205 56.878663 
L 173.186089 78.307786 
L 173.820974 113.213063 
L 174.455858 82.779443 
L 175.090743 64.466154 
L 175.725627 133.040636 
L 176.360512 108.667557 
L 176.995396 67.063316 
L 177.630281 94.321904 
L 178.265165 81.822419 
L 178.90005 92.992623 
L 179.534934 65.517216 
L 180.169819 92.389543 
L 180.804704 106.712852 
L 181.439588 107.661678 
L 182.074473 108.822401 
L 182.709357 103.726907 
L 183.344242 72.84789 
L 184.614011 121.526618 
L 185.248895 93.882174 
L 185.88378 99.593082 
L 186.518664 87.356587 
L 187.153549 109.421488 
L 187.788433 94.514697 
L 188.423318 68.664287 
L 189.058202 94.942339 
L 189.693087 107.608803 
L 190.327971 110.865968 
L 190.962856 116.877976 
L 191.59774 71.700774 
L 192.867509 117.16334 
L 193.502394 96.133939 
L 194.137278 95.715732 
L 194.772163 111.550913 
L 195.407047 108.265312 
L 196.041932 102.43998 
L 196.676816 91.380421 
L 197.311701 93.86641 
L 197.946585 97.661674 
L 198.58147 90.535478 
L 199.216354 122.392752 
L 199.851239 89.114381 
L 200.486123 98.79712 
L 201.121008 90.551907 
L 201.755892 94.110511 
L 202.390777 88.710859 
L 203.025662 55.730608 
L 203.660546 59.466723 
L 204.295431 92.079292 
L 204.930315 112.725384 
L 205.5652 91.830963 
L 206.200084 93.158153 
L 206.834969 90.971258 
L 207.469853 98.323476 
L 208.104738 64.889452 
L 208.739622 118.242988 
L 209.374507 88.936138 
L 210.009391 93.181968 
L 210.644276 111.085478 
L 211.27916 65.214613 
L 211.914045 99.213432 
L 212.548929 85.414606 
L 213.183814 87.492361 
L 213.818698 92.627953 
L 214.453583 108.177607 
L 215.088467 87.297027 
L 215.723352 85.040227 
L 216.358236 104.939822 
L 216.993121 103.799654 
L 217.628005 84.957147 
L 218.26289 84.861879 
L 218.897774 98.90895 
L 219.532659 105.379358 
L 220.167543 87.655522 
L 220.802428 96.618119 
L 222.072197 84.558002 
L 222.707081 109.181688 
L 223.341966 93.283934 
L 223.976851 108.960969 
L 224.611735 113.736153 
L 225.24662 92.822162 
L 225.881504 115.555947 
L 226.516389 106.752801 
L 227.151273 64.138209 
L 227.786158 77.372358 
L 228.421042 63.665417 
L 229.055927 83.781063 
L 229.690811 108.938734 
L 230.325696 116.963871 
L 230.96058 98.164416 
L 231.595465 94.002368 
L 232.230349 101.011997 
L 232.865234 91.098383 
L 233.500118 105.698099 
L 234.135003 96.830556 
L 234.769887 92.388334 
L 235.404772 106.883343 
L 236.039656 99.497313 
L 236.674541 80.47897 
L 237.94431 86.252697 
L 238.579194 118.300659 
L 239.214079 115.179198 
L 239.848963 97.839584 
L 240.483848 109.937227 
L 241.118732 107.368325 
L 241.753617 107.464725 
L 242.388501 101.414755 
L 243.023386 81.718001 
L 243.65827 96.540386 
L 244.293155 116.065825 
L 244.928039 96.036494 
L 245.562924 55.658555 
L 246.197809 91.346077 
L 246.832693 101.334874 
L 247.467578 91.430748 
L 248.102462 101.568909 
L 248.737347 94.83405 
L 249.372231 102.324937 
L 250.007116 76.429357 
L 250.642 100.297502 
L 251.276885 75.518691 
L 251.911769 57.58903 
L 252.546654 80.272871 
L 253.181538 96.839934 
L 253.816423 101.136072 
L 254.451307 95.824721 
L 255.086192 99.302512 
L 255.721076 83.398843 
L 256.355961 90.903568 
L 256.990845 81.31889 
L 258.260614 113.244648 
L 258.895499 84.798708 
L 259.530383 101.965409 
L 260.165268 113.159653 
L 260.800152 91.048906 
L 261.435037 107.996743 
L 262.069921 94.707739 
L 262.704806 90.61009 
L 263.33969 103.957763 
L 263.974575 104.54965 
L 264.609459 94.667566 
L 265.244344 90.5853 
L 265.879228 102.858321 
L 266.514113 105.519704 
L 267.148998 113.874483 
L 268.418767 89.850039 
L 269.053651 93.152076 
L 269.688536 100.897359 
L 270.32342 105.589944 
L 270.958305 92.090539 
L 271.593189 106.109888 
L 272.228074 94.695889 
L 272.862958 58.236125 
L 273.497843 81.71872 
L 274.132727 59.060418 
L 275.402496 99.596745 
L 276.037381 97.065482 
L 276.672265 109.296694 
L 277.30715 77.044713 
L 278.576919 105.322837 
L 279.211803 104.921174 
L 279.846688 87.653337 
L 280.481572 92.742048 
L 281.116457 79.938077 
L 281.751341 97.090093 
L 282.386226 94.516943 
L 283.02111 60.634927 
L 283.655995 85.005312 
L 284.290879 90.391052 
L 284.925764 109.680978 
L 285.560648 99.675727 
L 286.195533 92.30441 
L 286.830417 109.328839 
L 287.465302 123.334562 
L 288.100186 102.312853 
L 288.735071 91.461853 
L 289.369956 103.276016 
L 290.00484 80.497944 
L 290.639725 80.510743 
L 291.274609 99.42122 
L 291.909494 102.715497 
L 292.544378 102.270706 
L 293.179263 109.765654 
L 293.814147 110.338266 
L 294.449032 104.052051 
L 295.083916 103.238303 
L 295.718801 101.225077 
L 296.353685 89.002519 
L 296.98857 90.884687 
L 297.623454 102.659313 
L 298.258339 85.362274 
L 298.893223 84.515826 
L 299.528108 93.198352 
L 300.162992 89.494713 
L 300.797877 99.723283 
L 302.067646 79.842624 
L 302.70253 98.680309 
L 303.337415 100.809602 
L 303.972299 99.090187 
L 304.607184 102.942861 
L 305.242068 89.454975 
L 305.876953 95.700368 
L 306.511837 83.049844 
L 307.146722 88.531077 
L 307.781606 106.41945 
L 308.416491 104.137307 
L 309.051375 107.494724 
L 309.68626 100.806203 
L 310.321145 91.988906 
L 310.956029 100.288488 
L 311.590914 96.872246 
L 312.225798 84.080275 
L 312.860683 97.068256 
L 313.495567 82.464468 
L 314.130452 84.544459 
L 314.765336 103.471011 
L 315.400221 96.728312 
L 316.035105 94.51402 
L 316.66999 94.790587 
L 317.304874 103.417926 
L 317.939759 92.468962 
L 318.574643 87.551772 
L 319.209528 77.448045 
L 319.844412 82.43646 
L 320.479297 101.342805 
L 321.114181 89.502631 
L 321.749066 105.405339 
L 322.38395 91.724269 
L 323.018835 106.176809 
L 323.653719 98.613658 
L 324.288604 103.607489 
L 324.923488 111.644254 
L 325.558373 88.640909 
L 326.193257 85.405906 
L 326.828142 100.05731 
L 327.463026 103.777683 
L 328.097911 103.713131 
L 328.732795 118.958482 
L 329.36768 57.908501 
L 330.002564 99.225514 
L 330.637449 106.627326 
L 331.272333 88.132096 
L 331.907218 104.504802 
L 332.542103 82.795027 
L 333.176987 86.166986 
L 333.811872 95.948823 
L 334.446756 81.511661 
L 335.716525 102.439569 
L 336.35141 73.319614 
L 336.986294 83.646448 
L 337.621179 107.542689 
L 338.256063 97.635787 
L 338.890948 75.790142 
L 339.525832 99.910892 
L 340.160717 80.837311 
L 340.795601 89.525913 
L 341.430486 94.766697 
L 342.06537 88.247167 
L 342.700255 75.473472 
L 343.335139 81.357034 
L 343.970024 96.901079 
L 344.604908 95.334808 
L 345.239793 87.124708 
L 345.874677 95.092703 
L 346.509562 93.563537 
L 347.144446 50.291119 
L 347.779331 85.94855 
L 348.414215 44.278125 
L 349.683984 96.962853 
L 350.318869 72.179473 
L 350.953753 94.241244 
L 351.588638 75.473764 
L 352.223522 74.991224 
L 352.858407 88.369079 
L 353.493292 142.970077 
L 354.128176 141.161337 
L 354.763061 148.543323 
L 355.397945 195.478125 
L 356.03283 194.976477 
L 357.302599 121.730305 
L 357.937483 113.041859 
L 358.572368 88.428253 
L 359.207252 104.599449 
L 360.477021 99.495227 
L 361.111906 86.330967 
L 361.74679 85.848825 
L 362.381675 94.376624 
L 363.016559 80.197678 
L 363.651444 78.511756 
L 364.286328 79.198049 
L 364.921213 89.883203 
L 365.556097 74.789093 
L 366.190982 98.626403 
L 366.825866 75.037656 
L 367.460751 93.320588 
L 368.73052 59.205546 
L 369.365404 103.428454 
L 370.000289 82.859903 
L 370.635173 88.60328 
L 371.270058 102.621032 
L 371.904942 81.516454 
L 372.539827 96.617652 
L 373.174711 106.378981 
L 373.809596 65.251483 
L 375.079365 98.92919 
L 375.71425 89.652883 
L 376.349134 94.373709 
L 376.984019 106.814481 
L 377.618903 102.729556 
L 378.253788 102.449524 
L 378.888672 105.070897 
L 379.523557 85.985409 
L 380.158441 51.710831 
L 380.793326 99.033598 
L 381.42821 111.793224 
L 382.063095 119.248912 
L 382.697979 107.323191 
L 383.332864 66.019705 
L 383.967748 91.910359 
L 384.602633 113.062839 
L 385.237517 100.21632 
L 385.872402 98.789453 
L 386.507286 87.795812 
L 387.142171 65.757076 
L 387.777055 90.695338 
L 388.41194 62.23481 
L 389.046824 85.730067 
L 389.681709 70.694496 
L 390.316593 93.253801 
L 390.951478 99.217151 
L 391.586362 87.178021 
L 392.221247 118.492795 
L 392.856131 99.653157 
L 393.491016 104.903731 
L 394.1259 88.472427 
L 394.760785 78.873595 
L 395.395669 96.215412 
L 396.030554 99.17651 
L 396.665439 84.015318 
L 397.300323 115.166784 
L 398.570092 99.387808 
L 399.204977 102.997767 
L 399.839861 98.249071 
L 400.474746 96.316225 
L 401.10963 113.627541 
L 401.744515 107.62196 
L 402.379399 76.351039 
L 403.014284 94.324031 
L 403.649168 118.530542 
L 404.284053 109.972761 
L 404.918937 108.005763 
L 405.553822 101.075858 
L 406.188706 66.074397 
L 406.823591 87.540275 
L 407.458475 100.716924 
L 408.09336 111.518882 
L 408.728244 114.854319 
L 409.363129 103.851966 
L 409.998013 95.722847 
L 410.632898 66.884376 
L 411.267782 69.403738 
L 411.902667 90.571945 
L 412.537551 87.085824 
L 413.172436 90.102753 
L 413.80732 89.611885 
L 414.442205 66.857612 
L 415.077089 60.454192 
L 415.711974 99.412812 
L 416.346858 102.437751 
L 416.981743 106.263047 
L 417.616627 98.631867 
L 418.251512 93.050294 
L 418.886397 113.493168 
L 419.521281 112.313817 
L 420.156166 107.743506 
L 420.79105 68.370532 
L 421.425935 84.708178 
L 422.060819 82.948651 
L 422.695704 107.83583 
L 423.330588 104.932758 
L 423.965473 86.628705 
L 424.600357 96.960674 
L 425.235242 96.338715 
L 425.870126 99.350466 
L 426.505011 85.286749 
L 427.139895 86.585548 
L 427.77478 85.155453 
L 428.409664 107.021822 
L 429.044549 104.433155 
L 429.679433 100.542403 
L 430.314318 88.633693 
L 430.949202 103.629595 
L 431.584087 107.372591 
L 432.218971 103.968008 
L 432.853856 98.139999 
L 433.48874 96.33536 
L 434.123625 117.308708 
L 434.758509 102.027021 
L 435.393394 94.796988 
L 436.028278 105.871753 
L 436.663163 93.128951 
L 437.298047 82.75777 
L 437.932932 110.409486 
L 438.567816 106.092224 
L 439.837586 95.842019 
L 440.47247 108.933749 
L 441.742239 93.440046 
L 442.377124 95.90438 
L 443.012008 85.430139 
L 443.646893 93.948491 
L 444.281777 98.606911 
L 444.916662 85.956884 
L 445.551546 88.427346 
L 446.186431 86.618982 
L 446.821315 57.722362 
L 447.4562 94.50742 
L 448.725969 81.655616 
L 449.360853 101.490608 
L 449.995738 97.75362 
L 450.630622 84.620796 
L 451.265507 97.759551 
L 451.900391 96.124828 
L 452.535276 85.884345 
L 453.17016 95.320271 
L 453.805045 87.655965 
L 454.439929 88.405604 
L 455.074814 56.15185 
L 455.709698 88.670175 
L 456.344583 113.545624 
L 456.979467 94.231706 
L 457.614352 88.862608 
L 458.249236 94.195537 
L 458.884121 84.414571 
L 460.15389 98.800187 
L 460.788774 91.965171 
L 461.423659 114.991432 
L 462.058544 100.635208 
L 462.693428 95.592095 
L 463.963197 105.500153 
L 464.598082 91.088922 
L 465.232966 87.890486 
L 465.867851 99.392729 
L 466.502735 101.497234 
L 467.13762 115.309886 
L 467.772504 100.862294 
L 468.407389 99.052823 
L 469.042273 102.575951 
L 469.677158 99.392791 
L 470.312042 84.398218 
L 470.946927 99.26338 
L 471.581811 103.659757 
L 472.216696 78.279999 
L 472.85158 97.868017 
L 473.486465 108.88711 
L 474.121349 103.985067 
L 474.756234 84.035314 
L 475.391118 83.189369 
L 476.026003 92.755643 
L 476.660887 89.008542 
L 477.295772 101.891204 
L 477.930656 87.349284 
L 478.565541 88.706397 
L 479.200425 91.004093 
L 479.83531 84.932995 
L 480.470194 106.605074 
L 481.105079 108.573177 
L 481.739963 96.731416 
L 482.374848 75.811279 
L 483.009733 94.520733 
L 483.644617 95.127579 
L 484.279502 89.055336 
L 484.914386 104.510444 
L 485.549271 89.776471 
L 486.184155 92.154961 
L 486.81904 104.70259 
L 487.453924 93.143766 
L 488.088809 99.701628 
L 488.723693 95.670089 
L 489.358578 97.477367 
L 489.993462 87.923004 
L 490.628347 89.954782 
L 491.263231 108.285366 
L 491.898116 75.22776 
L 492.533 100.402073 
L 493.167885 97.348827 
L 493.802769 109.723854 
L 494.437654 97.143637 
L 495.072538 95.011659 
L 495.707423 112.069434 
L 496.342307 94.582903 
L 496.977192 97.179058 
L 497.612076 95.133175 
L 498.246961 96.556485 
L 498.881845 52.585651 
L 499.51673 88.911051 
L 500.151614 106.169538 
L 500.786499 94.136739 
L 501.421383 92.968628 
L 502.056268 81.434989 
L 502.691152 95.883433 
L 503.326037 100.985928 
L 503.960921 82.732102 
L 504.595806 87.879861 
L 505.230691 87.164295 
L 505.865575 90.876407 
L 506.50046 106.829582 
L 507.135344 97.174101 
L 507.770229 122.315362 
L 508.405113 101.090502 
L 509.039998 101.403604 
L 509.674882 87.963083 
L 510.309767 96.633774 
L 510.944651 99.97878 
L 511.579536 92.805584 
L 512.21442 88.872607 
L 512.849305 83.714281 
L 513.484189 108.67592 
L 514.119074 96.79025 
L 514.753958 121.524525 
L 515.388843 89.388127 
L 516.023727 80.533042 
L 516.658612 90.400964 
L 517.928381 106.008819 
L 518.563265 103.570635 
L 519.19815 97.885265 
L 519.833034 102.15446 
L 520.467919 119.115649 
L 521.102803 80.366926 
L 521.737688 58.913388 
L 522.372572 84.103912 
L 523.007457 100.12302 
L 523.642341 97.227627 
L 524.277226 108.73244 
L 524.91211 109.295593 
L 525.546995 107.955455 
L 526.18188 57.30849 
L 526.816764 58.94872 
L 527.451649 100.404437 
L 528.086533 114.195902 
L 528.721418 105.513148 
L 529.356302 65.75657 
L 529.991187 95.385486 
L 530.626071 105.891948 
L 531.260956 88.508157 
L 531.89584 112.388249 
L 532.530725 107.628417 
L 533.165609 116.009662 
L 533.800494 109.661049 
L 534.435378 56.114684 
L 535.070263 87.513434 
L 535.705147 110.292094 
L 536.340032 92.816418 
L 536.974916 94.296756 
L 537.609801 87.211575 
L 538.244685 94.791212 
L 538.87957 108.592522 
L 539.514454 100.872899 
L 540.149339 86.872673 
L 540.784223 114.424144 
L 541.419108 98.315259 
L 542.053992 67.70378 
L 542.688877 87.52287 
L 543.323761 97.096428 
L 543.958646 87.190081 
L 544.59353 94.132743 
L 545.228415 87.383451 
L 545.863299 97.642529 
L 546.498184 90.951087 
L 547.133069 58.84724 
L 547.767953 88.41666 
L 548.402838 69.645986 
L 549.037722 91.126882 
L 549.672607 108.763658 
L 550.307491 94.782525 
L 550.942376 92.424588 
L 551.57726 95.546925 
L 552.212145 92.679224 
L 553.481914 110.53537 
L 554.116798 90.102107 
L 554.751683 109.576035 
L 555.386567 89.975894 
L 556.021452 90.782809 
L 556.656336 86.823539 
L 557.291221 91.112252 
L 557.926105 103.859889 
L 558.56099 70.305593 
L 559.195874 93.272146 
L 559.830759 104.126975 
L 560.465643 92.507384 
L 561.100528 106.35558 
L 561.735412 95.450508 
L 562.370297 103.477906 
L 563.005181 85.105811 
L 563.640066 107.284634 
L 564.27495 107.006105 
L 564.909835 108.243162 
L 565.544719 108.178586 
L 566.179604 62.71905 
L 566.814488 102.423875 
L 567.449373 93.799019 
L 568.084257 98.316076 
L 568.719142 114.304615 
L 569.354027 103.460981 
L 569.988911 101.013225 
L 570.623796 88.504432 
L 571.893565 102.697759 
L 572.528449 93.34054 
L 573.163334 104.820835 
L 573.798218 97.565408 
L 574.433103 95.794349 
L 575.067987 104.986032 
L 575.702872 87.897735 
L 576.337756 91.4781 
L 576.972641 90.091425 
L 577.607525 105.380072 
L 578.24241 108.967036 
L 578.877294 101.254356 
L 579.512179 103.280601 
L 580.147063 99.495862 
L 580.781948 111.825402 
L 581.416832 102.979015 
L 582.051717 98.559269 
L 583.321486 66.271672 
L 584.591255 118.629702 
L 585.861024 71.820816 
L 586.495908 106.629651 
L 587.130793 125.663641 
L 587.765677 97.575886 
L 588.400562 95.887939 
L 589.035446 80.702234 
L 589.670331 70.089572 
L 590.305216 101.95341 
L 590.9401 62.946596 
L 591.574985 54.75215 
L 592.209869 65.006371 
L 592.844754 86.354529 
L 593.479638 102.834723 
L 594.114523 94.403862 
L 594.749407 71.826519 
L 595.384292 65.095115 
L 596.019176 71.042074 
L 596.019176 71.042074 
" clip-path="url(#p57c6c1fc52)" style="fill: none; stroke: #1f77b4; stroke-width: 1.5; stroke-linecap: square"/>
   </g>
   <g id="line2d_18">
    <path d="M 342.700255 75.473472 
L 343.335139 81.357034 
L 343.970024 96.901079 
L 344.604908 95.334808 
L 345.239793 87.124708 
L 345.874677 95.092703 
L 346.509562 93.563537 
L 347.144446 50.291119 
L 347.779331 85.94855 
L 348.414215 44.278125 
L 349.0491 69.507879 
L 349.683984 96.962853 
L 350.318869 72.179473 
L 350.953753 94.241244 
L 351.588638 75.473764 
L 352.223522 74.991224 
L 352.858407 88.369079 
L 353.493292 142.970077 
L 354.128176 141.161337 
L 354.763061 148.543323 
L 355.397945 195.478125 
L 356.03283 194.976477 
L 356.667714 158.482449 
L 357.302599 121.730305 
L 357.937483 113.041859 
L 358.572368 88.428253 
L 359.207252 104.599449 
L 359.842137 102.195301 
L 360.477021 99.495227 
L 361.111906 86.330967 
L 361.74679 85.848825 
L 362.381675 94.376624 
L 363.016559 80.197678 
L 363.651444 78.511756 
L 364.286328 79.198049 
L 364.921213 89.883203 
L 365.556097 74.789093 
L 366.190982 98.626403 
L 366.825866 75.037656 
L 367.460751 93.320588 
" clip-path="url(#p57c6c1fc52)" style="fill: none; stroke: #ff0000; stroke-width: 1.5; stroke-linecap: square"/>
   </g>
   <g id="patch_3">
    <path d="M 63.382812 203.038125 
L 63.382812 36.718125 
" style="fill: none; stroke: #000000; stroke-width: 0.8; stroke-linejoin: miter; stroke-linecap: square"/>
   </g>
   <g id="patch_4">
    <path d="M 621.382812 203.038125 
L 621.382812 36.718125 
" style="fill: none; stroke: #000000; stroke-width: 0.8; stroke-linejoin: miter; stroke-linecap: square"/>
   </g>
   <g id="patch_5">
    <path d="M 63.382812 203.038125 
L 621.382812 203.038125 
" style="fill: none; stroke: #000000; stroke-width: 0.8; stroke-linejoin: miter; stroke-linecap: square"/>
   </g>
   <g id="patch_6">
    <path d="M 63.382812 36.718125 
L 621.382812 36.718125 
" style="fill: none; stroke: #000000; stroke-width: 0.8; stroke-linejoin: miter; stroke-linecap: square"/>
   </g>
   <g id="text_19">
    <!-- Channel:12, Time stamp : 1956326 -->
    <g transform="translate(236.327188 30.718125) scale(0.12 -0.12)">
     <defs>
      <path id="DejaVuSans-43" d="M 4122 4306 
L 4122 3641 
Q 3803 3938 3442 4084 
Q 3081 4231 2675 4231 
Q 1875 4231 1450 3742 
Q 1025 3253 1025 2328 
Q 1025 1406 1450 917 
Q 1875 428 2675 428 
Q 3081 428 3442 575 
Q 3803 722 4122 1019 
L 4122 359 
Q 3791 134 3420 21 
Q 3050 -91 2638 -91 
Q 1578 -91 968 557 
Q 359 1206 359 2328 
Q 359 3453 968 4101 
Q 1578 4750 2638 4750 
Q 3056 4750 3426 4639 
Q 3797 4528 4122 4306 
z
" transform="scale(0.015625)"/>
      <path id="DejaVuSans-68" d="M 3513 2113 
L 3513 0 
L 2938 0 
L 2938 2094 
Q 2938 2591 2744 2837 
Q 2550 3084 2163 3084 
Q 1697 3084 1428 2787 
Q 1159 2491 1159 1978 
L 1159 0 
L 581 0 
L 581 4863 
L 1159 4863 
L 1159 2956 
Q 1366 3272 1645 3428 
Q 1925 3584 2291 3584 
Q 2894 3584 3203 3211 
Q 3513 2838 3513 2113 
z
" transform="scale(0.015625)"/>
      <path id="DejaVuSans-6e" d="M 3513 2113 
L 3513 0 
L 2938 0 
L 2938 2094 
Q 2938 2591 2744 2837 
Q 2550 3084 2163 3084 
Q 1697 3084 1428 2787 
Q 1159 2491 1159 1978 
L 1159 0 
L 581 0 
L 581 3500 
L 1159 3500 
L 1159 2956 
Q 1366 3272 1645 3428 
Q 1925 3584 2291 3584 
Q 2894 3584 3203 3211 
Q 3513 2838 3513 2113 
z
" transform="scale(0.015625)"/>
      <path id="DejaVuSans-3a" d="M 750 794 
L 1409 794 
L 1409 0 
L 750 0 
L 750 794 
z
M 750 3309 
L 1409 3309 
L 1409 2516 
L 750 2516 
L 750 3309 
z
" transform="scale(0.015625)"/>
      <path id="DejaVuSans-2c" d="M 750 794 
L 1409 794 
L 1409 256 
L 897 -744 
L 494 -744 
L 750 256 
L 750 794 
z
" transform="scale(0.015625)"/>
      <path id="DejaVuSans-70" d="M 1159 525 
L 1159 -1331 
L 581 -1331 
L 581 3500 
L 1159 3500 
L 1159 2969 
Q 1341 3281 1617 3432 
Q 1894 3584 2278 3584 
Q 2916 3584 3314 3078 
Q 3713 2572 3713 1747 
Q 3713 922 3314 415 
Q 2916 -91 2278 -91 
Q 1894 -91 1617 61 
Q 1341 213 1159 525 
z
M 3116 1747 
Q 3116 2381 2855 2742 
Q 2594 3103 2138 3103 
Q 1681 3103 1420 2742 
Q 1159 2381 1159 1747 
Q 1159 1113 1420 752 
Q 1681 391 2138 391 
Q 2594 391 2855 752 
Q 3116 1113 3116 1747 
z
" transform="scale(0.015625)"/>
      <path id="DejaVuSans-39" d="M 703 97 
L 703 672 
Q 941 559 1184 500 
Q 1428 441 1663 441 
Q 2288 441 2617 861 
Q 2947 1281 2994 2138 
Q 2813 1869 2534 1725 
Q 2256 1581 1919 1581 
Q 1219 1581 811 2004 
Q 403 2428 403 3163 
Q 403 3881 828 4315 
Q 1253 4750 1959 4750 
Q 2769 4750 3195 4129 
Q 3622 3509 3622 2328 
Q 3622 1225 3098 567 
Q 2575 -91 1691 -91 
Q 1453 -91 1209 -44 
Q 966 3 703 97 
z
M 1959 2075 
Q 2384 2075 2632 2365 
Q 2881 2656 2881 3163 
Q 2881 3666 2632 3958 
Q 2384 4250 1959 4250 
Q 1534 4250 1286 3958 
Q 1038 3666 1038 3163 
Q 1038 2656 1286 2365 
Q 1534 2075 1959 2075 
z
" transform="scale(0.015625)"/>
      <path id="DejaVuSans-36" d="M 2113 2584 
Q 1688 2584 1439 2293 
Q 1191 2003 1191 1497 
Q 1191 994 1439 701 
Q 1688 409 2113 409 
Q 2538 409 2786 701 
Q 3034 994 3034 1497 
Q 3034 2003 2786 2293 
Q 2538 2584 2113 2584 
z
M 3366 4563 
L 3366 3988 
Q 3128 4100 2886 4159 
Q 2644 4219 2406 4219 
Q 1781 4219 1451 3797 
Q 1122 3375 1075 2522 
Q 1259 2794 1537 2939 
Q 1816 3084 2150 3084 
Q 2853 3084 3261 2657 
Q 3669 2231 3669 1497 
Q 3669 778 3244 343 
Q 2819 -91 2113 -91 
Q 1303 -91 875 529 
Q 447 1150 447 2328 
Q 447 3434 972 4092 
Q 1497 4750 2381 4750 
Q 2619 4750 2861 4703 
Q 3103 4656 3366 4563 
z
" transform="scale(0.015625)"/>
     </defs>
     <use xlink:href="#DejaVuSans-43"/>
     <use xlink:href="#DejaVuSans-68" x="69.824219"/>
     <use xlink:href="#DejaVuSans-61" x="133.203125"/>
     <use xlink:href="#DejaVuSans-6e" x="194.482422"/>
     <use xlink:href="#DejaVuSans-6e" x="257.861328"/>
     <use xlink:href="#DejaVuSans-65" x="321.240234"/>
     <use xlink:href="#DejaVuSans-6c" x="382.763672"/>
     <use xlink:href="#DejaVuSans-3a" x="410.546875"/>
     <use xlink:href="#DejaVuSans-31" x="444.238281"/>
     <use xlink:href="#DejaVuSans-32" x="507.861328"/>
     <use xlink:href="#DejaVuSans-2c" x="571.484375"/>
     <use xlink:href="#DejaVuSans-20" x="603.271484"/>
     <use xlink:href="#DejaVuSans-54" x="635.058594"/>
     <use xlink:href="#DejaVuSans-69" x="693.017578"/>
     <use xlink:href="#DejaVuSans-6d" x="720.800781"/>
     <use xlink:href="#DejaVuSans-65" x="818.212891"/>
     <use xlink:href="#DejaVuSans-20" x="879.736328"/>
     <use xlink:href="#DejaVuSans-73" x="911.523438"/>
     <use xlink:href="#DejaVuSans-74" x="963.623047"/>
     <use xlink:href="#DejaVuSans-61" x="1002.832031"/>
     <use xlink:href="#DejaVuSans-6d" x="1064.111328"/>
     <use xlink:href="#DejaVuSans-70" x="1161.523438"/>
     <use xlink:href="#DejaVuSans-20" x="1225"/>
     <use xlink:href="#DejaVuSans-3a" x="1256.787109"/>
     <use xlink:href="#DejaVuSans-20" x="1290.478516"/>
     <use xlink:href="#DejaVuSans-31" x="1322.265625"/>
     <use xlink:href="#DejaVuSans-39" x="1385.888672"/>
     <use xlink:href="#DejaVuSans-35" x="1449.511719"/>
     <use xlink:href="#DejaVuSans-36" x="1513.134766"/>
     <use xlink:href="#DejaVuSans-33" x="1576.757812"/>
     <use xlink:href="#DejaVuSans-32" x="1640.380859"/>
     <use xlink:href="#DejaVuSans-36" x="1704.003906"/>
    </g>
   </g>
  </g>
 </g>
 <defs>
  <clipPath id="p57c6c1fc52">
   <rect x="63.382812" y="36.718125" width="558" height="166.32"/>
  </clipPath>
 </defs>
</svg>
