<?xml version="1.0" encoding="utf-8" standalone="no"?>
<!DOCTYPE svg PUBLIC "-//W3C//DTD SVG 1.1//EN"
  "http://www.w3.org/Graphics/SVG/1.1/DTD/svg11.dtd">
<svg xmlns:xlink="http://www.w3.org/1999/xlink" width="642.982813pt" height="254.994375pt" viewBox="0 0 642.982813 254.994375" xmlns="http://www.w3.org/2000/svg" version="1.1">
 <metadata>
  <rdf:RDF xmlns:dc="http://purl.org/dc/elements/1.1/" xmlns:cc="http://creativecommons.org/ns#" xmlns:rdf="http://www.w3.org/1999/02/22-rdf-syntax-ns#">
   <cc:Work>
    <dc:type rdf:resource="http://purl.org/dc/dcmitype/StillImage"/>
    <dc:date>2024-02-26T10:41:44.012547</dc:date>
    <dc:format>image/svg+xml</dc:format>
    <dc:creator>
     <cc:Agent>
      <dc:title>Matplotlib v3.7.1, https://matplotlib.org/</dc:title>
     </cc:Agent>
    </dc:creator>
   </cc:Work>
  </rdf:RDF>
 </metadata>
 <defs>
  <style type="text/css">*{stroke-linejoin: round; stroke-linecap: butt}</style>
 </defs>
 <g id="figure_1">
  <g id="patch_1">
   <path d="M 0 254.994375 
L 642.982813 254.994375 
L 642.982813 -0 
L 0 -0 
z
" style="fill: #ffffff"/>
  </g>
  <g id="axes_1">
   <g id="patch_2">
    <path d="M 63.382812 203.038125 
L 621.382812 203.038125 
L 621.382812 36.718125 
L 63.382812 36.718125 
z
" style="fill: #ffffff"/>
   </g>
   <g id="matplotlib.axis_1">
    <g id="xtick_1">
     <g id="line2d_1">
      <defs>
       <path id="ma1f3113ee5" d="M 0 0 
L 0 3.5 
" style="stroke: #000000; stroke-width: 0.8"/>
      </defs>
      <g>
       <use xlink:href="#ma1f3113ee5" x="88.746449" y="203.038125" style="stroke: #000000; stroke-width: 0.8"/>
      </g>
     </g>
     <g id="text_1">
      <!-- −20 -->
      <g transform="translate(78.194105 217.636562) scale(0.1 -0.1)">
       <defs>
        <path id="DejaVuSans-2212" d="M 678 2272 
L 4684 2272 
L 4684 1741 
L 678 1741 
L 678 2272 
z
" transform="scale(0.015625)"/>
        <path id="DejaVuSans-32" d="M 1228 531 
L 3431 531 
L 3431 0 
L 469 0 
L 469 531 
Q 828 903 1448 1529 
Q 2069 2156 2228 2338 
Q 2531 2678 2651 2914 
Q 2772 3150 2772 3378 
Q 2772 3750 2511 3984 
Q 2250 4219 1831 4219 
Q 1534 4219 1204 4116 
Q 875 4013 500 3803 
L 500 4441 
Q 881 4594 1212 4672 
Q 1544 4750 1819 4750 
Q 2544 4750 2975 4387 
Q 3406 4025 3406 3419 
Q 3406 3131 3298 2873 
Q 3191 2616 2906 2266 
Q 2828 2175 2409 1742 
Q 1991 1309 1228 531 
z
" transform="scale(0.015625)"/>
        <path id="DejaVuSans-30" d="M 2034 4250 
Q 1547 4250 1301 3770 
Q 1056 3291 1056 2328 
Q 1056 1369 1301 889 
Q 1547 409 2034 409 
Q 2525 409 2770 889 
Q 3016 1369 3016 2328 
Q 3016 3291 2770 3770 
Q 2525 4250 2034 4250 
z
M 2034 4750 
Q 2819 4750 3233 4129 
Q 3647 3509 3647 2328 
Q 3647 1150 3233 529 
Q 2819 -91 2034 -91 
Q 1250 -91 836 529 
Q 422 1150 422 2328 
Q 422 3509 836 4129 
Q 1250 4750 2034 4750 
z
" transform="scale(0.015625)"/>
       </defs>
       <use xlink:href="#DejaVuSans-2212"/>
       <use xlink:href="#DejaVuSans-32" x="83.789062"/>
       <use xlink:href="#DejaVuSans-30" x="147.412109"/>
      </g>
     </g>
    </g>
    <g id="xtick_2">
     <g id="line2d_2">
      <g>
       <use xlink:href="#ma1f3113ee5" x="152.15554" y="203.038125" style="stroke: #000000; stroke-width: 0.8"/>
      </g>
     </g>
     <g id="text_2">
      <!-- −15 -->
      <g transform="translate(141.603196 217.636562) scale(0.1 -0.1)">
       <defs>
        <path id="DejaVuSans-31" d="M 794 531 
L 1825 531 
L 1825 4091 
L 703 3866 
L 703 4441 
L 1819 4666 
L 2450 4666 
L 2450 531 
L 3481 531 
L 3481 0 
L 794 0 
L 794 531 
z
" transform="scale(0.015625)"/>
        <path id="DejaVuSans-35" d="M 691 4666 
L 3169 4666 
L 3169 4134 
L 1269 4134 
L 1269 2991 
Q 1406 3038 1543 3061 
Q 1681 3084 1819 3084 
Q 2600 3084 3056 2656 
Q 3513 2228 3513 1497 
Q 3513 744 3044 326 
Q 2575 -91 1722 -91 
Q 1428 -91 1123 -41 
Q 819 9 494 109 
L 494 744 
Q 775 591 1075 516 
Q 1375 441 1709 441 
Q 2250 441 2565 725 
Q 2881 1009 2881 1497 
Q 2881 1984 2565 2268 
Q 2250 2553 1709 2553 
Q 1456 2553 1204 2497 
Q 953 2441 691 2322 
L 691 4666 
z
" transform="scale(0.015625)"/>
       </defs>
       <use xlink:href="#DejaVuSans-2212"/>
       <use xlink:href="#DejaVuSans-31" x="83.789062"/>
       <use xlink:href="#DejaVuSans-35" x="147.412109"/>
      </g>
     </g>
    </g>
    <g id="xtick_3">
     <g id="line2d_3">
      <g>
       <use xlink:href="#ma1f3113ee5" x="215.564631" y="203.038125" style="stroke: #000000; stroke-width: 0.8"/>
      </g>
     </g>
     <g id="text_3">
      <!-- −10 -->
      <g transform="translate(205.012287 217.636562) scale(0.1 -0.1)">
       <use xlink:href="#DejaVuSans-2212"/>
       <use xlink:href="#DejaVuSans-31" x="83.789062"/>
       <use xlink:href="#DejaVuSans-30" x="147.412109"/>
      </g>
     </g>
    </g>
    <g id="xtick_4">
     <g id="line2d_4">
      <g>
       <use xlink:href="#ma1f3113ee5" x="278.973722" y="203.038125" style="stroke: #000000; stroke-width: 0.8"/>
      </g>
     </g>
     <g id="text_4">
      <!-- −5 -->
      <g transform="translate(271.602628 217.636562) scale(0.1 -0.1)">
       <use xlink:href="#DejaVuSans-2212"/>
       <use xlink:href="#DejaVuSans-35" x="83.789062"/>
      </g>
     </g>
    </g>
    <g id="xtick_5">
     <g id="line2d_5">
      <g>
       <use xlink:href="#ma1f3113ee5" x="342.382812" y="203.038125" style="stroke: #000000; stroke-width: 0.8"/>
      </g>
     </g>
     <g id="text_5">
      <!-- 0 -->
      <g transform="translate(339.201563 217.636562) scale(0.1 -0.1)">
       <use xlink:href="#DejaVuSans-30"/>
      </g>
     </g>
    </g>
    <g id="xtick_6">
     <g id="line2d_6">
      <g>
       <use xlink:href="#ma1f3113ee5" x="405.791903" y="203.038125" style="stroke: #000000; stroke-width: 0.8"/>
      </g>
     </g>
     <g id="text_6">
      <!-- 5 -->
      <g transform="translate(402.610653 217.636562) scale(0.1 -0.1)">
       <use xlink:href="#DejaVuSans-35"/>
      </g>
     </g>
    </g>
    <g id="xtick_7">
     <g id="line2d_7">
      <g>
       <use xlink:href="#ma1f3113ee5" x="469.200994" y="203.038125" style="stroke: #000000; stroke-width: 0.8"/>
      </g>
     </g>
     <g id="text_7">
      <!-- 10 -->
      <g transform="translate(462.838494 217.636562) scale(0.1 -0.1)">
       <use xlink:href="#DejaVuSans-31"/>
       <use xlink:href="#DejaVuSans-30" x="63.623047"/>
      </g>
     </g>
    </g>
    <g id="xtick_8">
     <g id="line2d_8">
      <g>
       <use xlink:href="#ma1f3113ee5" x="532.610085" y="203.038125" style="stroke: #000000; stroke-width: 0.8"/>
      </g>
     </g>
     <g id="text_8">
      <!-- 15 -->
      <g transform="translate(526.247585 217.636562) scale(0.1 -0.1)">
       <use xlink:href="#DejaVuSans-31"/>
       <use xlink:href="#DejaVuSans-35" x="63.623047"/>
      </g>
     </g>
    </g>
    <g id="xtick_9">
     <g id="line2d_9">
      <g>
       <use xlink:href="#ma1f3113ee5" x="596.019176" y="203.038125" style="stroke: #000000; stroke-width: 0.8"/>
      </g>
     </g>
     <g id="text_9">
      <!-- 20 -->
      <g transform="translate(589.656676 217.636562) scale(0.1 -0.1)">
       <use xlink:href="#DejaVuSans-32"/>
       <use xlink:href="#DejaVuSans-30" x="63.623047"/>
      </g>
     </g>
    </g>
    <g id="text_10">
     <!-- Time [ms] -->
     <g transform="translate(317.183594 231.314687) scale(0.1 -0.1)">
      <defs>
       <path id="DejaVuSans-54" d="M -19 4666 
L 3928 4666 
L 3928 4134 
L 2272 4134 
L 2272 0 
L 1638 0 
L 1638 4134 
L -19 4134 
L -19 4666 
z
" transform="scale(0.015625)"/>
       <path id="DejaVuSans-69" d="M 603 3500 
L 1178 3500 
L 1178 0 
L 603 0 
L 603 3500 
z
M 603 4863 
L 1178 4863 
L 1178 4134 
L 603 4134 
L 603 4863 
z
" transform="scale(0.015625)"/>
       <path id="DejaVuSans-6d" d="M 3328 2828 
Q 3544 3216 3844 3400 
Q 4144 3584 4550 3584 
Q 5097 3584 5394 3201 
Q 5691 2819 5691 2113 
L 5691 0 
L 5113 0 
L 5113 2094 
Q 5113 2597 4934 2840 
Q 4756 3084 4391 3084 
Q 3944 3084 3684 2787 
Q 3425 2491 3425 1978 
L 3425 0 
L 2847 0 
L 2847 2094 
Q 2847 2600 2669 2842 
Q 2491 3084 2119 3084 
Q 1678 3084 1418 2786 
Q 1159 2488 1159 1978 
L 1159 0 
L 581 0 
L 581 3500 
L 1159 3500 
L 1159 2956 
Q 1356 3278 1631 3431 
Q 1906 3584 2284 3584 
Q 2666 3584 2933 3390 
Q 3200 3197 3328 2828 
z
" transform="scale(0.015625)"/>
       <path id="DejaVuSans-65" d="M 3597 1894 
L 3597 1613 
L 953 1613 
Q 991 1019 1311 708 
Q 1631 397 2203 397 
Q 2534 397 2845 478 
Q 3156 559 3463 722 
L 3463 178 
Q 3153 47 2828 -22 
Q 2503 -91 2169 -91 
Q 1331 -91 842 396 
Q 353 884 353 1716 
Q 353 2575 817 3079 
Q 1281 3584 2069 3584 
Q 2775 3584 3186 3129 
Q 3597 2675 3597 1894 
z
M 3022 2063 
Q 3016 2534 2758 2815 
Q 2500 3097 2075 3097 
Q 1594 3097 1305 2825 
Q 1016 2553 972 2059 
L 3022 2063 
z
" transform="scale(0.015625)"/>
       <path id="DejaVuSans-20" transform="scale(0.015625)"/>
       <path id="DejaVuSans-5b" d="M 550 4863 
L 1875 4863 
L 1875 4416 
L 1125 4416 
L 1125 -397 
L 1875 -397 
L 1875 -844 
L 550 -844 
L 550 4863 
z
" transform="scale(0.015625)"/>
       <path id="DejaVuSans-73" d="M 2834 3397 
L 2834 2853 
Q 2591 2978 2328 3040 
Q 2066 3103 1784 3103 
Q 1356 3103 1142 2972 
Q 928 2841 928 2578 
Q 928 2378 1081 2264 
Q 1234 2150 1697 2047 
L 1894 2003 
Q 2506 1872 2764 1633 
Q 3022 1394 3022 966 
Q 3022 478 2636 193 
Q 2250 -91 1575 -91 
Q 1294 -91 989 -36 
Q 684 19 347 128 
L 347 722 
Q 666 556 975 473 
Q 1284 391 1588 391 
Q 1994 391 2212 530 
Q 2431 669 2431 922 
Q 2431 1156 2273 1281 
Q 2116 1406 1581 1522 
L 1381 1569 
Q 847 1681 609 1914 
Q 372 2147 372 2553 
Q 372 3047 722 3315 
Q 1072 3584 1716 3584 
Q 2034 3584 2315 3537 
Q 2597 3491 2834 3397 
z
" transform="scale(0.015625)"/>
       <path id="DejaVuSans-5d" d="M 1947 4863 
L 1947 -844 
L 622 -844 
L 622 -397 
L 1369 -397 
L 1369 4416 
L 622 4416 
L 622 4863 
L 1947 4863 
z
" transform="scale(0.015625)"/>
      </defs>
      <use xlink:href="#DejaVuSans-54"/>
      <use xlink:href="#DejaVuSans-69" x="57.958984"/>
      <use xlink:href="#DejaVuSans-6d" x="85.742188"/>
      <use xlink:href="#DejaVuSans-65" x="183.154297"/>
      <use xlink:href="#DejaVuSans-20" x="244.677734"/>
      <use xlink:href="#DejaVuSans-5b" x="276.464844"/>
      <use xlink:href="#DejaVuSans-6d" x="315.478516"/>
      <use xlink:href="#DejaVuSans-73" x="412.890625"/>
      <use xlink:href="#DejaVuSans-5d" x="464.990234"/>
     </g>
    </g>
   </g>
   <g id="matplotlib.axis_2">
    <g id="ytick_1">
     <g id="line2d_10">
      <defs>
       <path id="md213d29e07" d="M 0 0 
L -3.5 0 
" style="stroke: #000000; stroke-width: 0.8"/>
      </defs>
      <g>
       <use xlink:href="#md213d29e07" x="63.382812" y="176.863549" style="stroke: #000000; stroke-width: 0.8"/>
      </g>
     </g>
     <g id="text_11">
      <!-- −20 -->
      <g transform="translate(35.278125 180.662768) scale(0.1 -0.1)">
       <use xlink:href="#DejaVuSans-2212"/>
       <use xlink:href="#DejaVuSans-32" x="83.789062"/>
       <use xlink:href="#DejaVuSans-30" x="147.412109"/>
      </g>
     </g>
    </g>
    <g id="ytick_2">
     <g id="line2d_11">
      <g>
       <use xlink:href="#md213d29e07" x="63.382812" y="143.386765" style="stroke: #000000; stroke-width: 0.8"/>
      </g>
     </g>
     <g id="text_12">
      <!-- −10 -->
      <g transform="translate(35.278125 147.185983) scale(0.1 -0.1)">
       <use xlink:href="#DejaVuSans-2212"/>
       <use xlink:href="#DejaVuSans-31" x="83.789062"/>
       <use xlink:href="#DejaVuSans-30" x="147.412109"/>
      </g>
     </g>
    </g>
    <g id="ytick_3">
     <g id="line2d_12">
      <g>
       <use xlink:href="#md213d29e07" x="63.382812" y="109.909981" style="stroke: #000000; stroke-width: 0.8"/>
      </g>
     </g>
     <g id="text_13">
      <!-- 0 -->
      <g transform="translate(50.020313 113.709199) scale(0.1 -0.1)">
       <use xlink:href="#DejaVuSans-30"/>
      </g>
     </g>
    </g>
    <g id="ytick_4">
     <g id="line2d_13">
      <g>
       <use xlink:href="#md213d29e07" x="63.382812" y="76.433197" style="stroke: #000000; stroke-width: 0.8"/>
      </g>
     </g>
     <g id="text_14">
      <!-- 10 -->
      <g transform="translate(43.657812 80.232415) scale(0.1 -0.1)">
       <use xlink:href="#DejaVuSans-31"/>
       <use xlink:href="#DejaVuSans-30" x="63.623047"/>
      </g>
     </g>
    </g>
    <g id="ytick_5">
     <g id="line2d_14">
      <g>
       <use xlink:href="#md213d29e07" x="63.382812" y="42.956413" style="stroke: #000000; stroke-width: 0.8"/>
      </g>
     </g>
     <g id="text_15">
      <!-- 20 -->
      <g transform="translate(43.657812 46.755631) scale(0.1 -0.1)">
       <use xlink:href="#DejaVuSans-32"/>
       <use xlink:href="#DejaVuSans-30" x="63.623047"/>
      </g>
     </g>
    </g>
    <g id="text_16">
     <!-- Voltage [uV] -->
     <g transform="translate(29.198438 150.714063) rotate(-90) scale(0.1 -0.1)">
      <defs>
       <path id="DejaVuSans-56" d="M 1831 0 
L 50 4666 
L 709 4666 
L 2188 738 
L 3669 4666 
L 4325 4666 
L 2547 0 
L 1831 0 
z
" transform="scale(0.015625)"/>
       <path id="DejaVuSans-6f" d="M 1959 3097 
Q 1497 3097 1228 2736 
Q 959 2375 959 1747 
Q 959 1119 1226 758 
Q 1494 397 1959 397 
Q 2419 397 2687 759 
Q 2956 1122 2956 1747 
Q 2956 2369 2687 2733 
Q 2419 3097 1959 3097 
z
M 1959 3584 
Q 2709 3584 3137 3096 
Q 3566 2609 3566 1747 
Q 3566 888 3137 398 
Q 2709 -91 1959 -91 
Q 1206 -91 779 398 
Q 353 888 353 1747 
Q 353 2609 779 3096 
Q 1206 3584 1959 3584 
z
" transform="scale(0.015625)"/>
       <path id="DejaVuSans-6c" d="M 603 4863 
L 1178 4863 
L 1178 0 
L 603 0 
L 603 4863 
z
" transform="scale(0.015625)"/>
       <path id="DejaVuSans-74" d="M 1172 4494 
L 1172 3500 
L 2356 3500 
L 2356 3053 
L 1172 3053 
L 1172 1153 
Q 1172 725 1289 603 
Q 1406 481 1766 481 
L 2356 481 
L 2356 0 
L 1766 0 
Q 1100 0 847 248 
Q 594 497 594 1153 
L 594 3053 
L 172 3053 
L 172 3500 
L 594 3500 
L 594 4494 
L 1172 4494 
z
" transform="scale(0.015625)"/>
       <path id="DejaVuSans-61" d="M 2194 1759 
Q 1497 1759 1228 1600 
Q 959 1441 959 1056 
Q 959 750 1161 570 
Q 1363 391 1709 391 
Q 2188 391 2477 730 
Q 2766 1069 2766 1631 
L 2766 1759 
L 2194 1759 
z
M 3341 1997 
L 3341 0 
L 2766 0 
L 2766 531 
Q 2569 213 2275 61 
Q 1981 -91 1556 -91 
Q 1019 -91 701 211 
Q 384 513 384 1019 
Q 384 1609 779 1909 
Q 1175 2209 1959 2209 
L 2766 2209 
L 2766 2266 
Q 2766 2663 2505 2880 
Q 2244 3097 1772 3097 
Q 1472 3097 1187 3025 
Q 903 2953 641 2809 
L 641 3341 
Q 956 3463 1253 3523 
Q 1550 3584 1831 3584 
Q 2591 3584 2966 3190 
Q 3341 2797 3341 1997 
z
" transform="scale(0.015625)"/>
       <path id="DejaVuSans-67" d="M 2906 1791 
Q 2906 2416 2648 2759 
Q 2391 3103 1925 3103 
Q 1463 3103 1205 2759 
Q 947 2416 947 1791 
Q 947 1169 1205 825 
Q 1463 481 1925 481 
Q 2391 481 2648 825 
Q 2906 1169 2906 1791 
z
M 3481 434 
Q 3481 -459 3084 -895 
Q 2688 -1331 1869 -1331 
Q 1566 -1331 1297 -1286 
Q 1028 -1241 775 -1147 
L 775 -588 
Q 1028 -725 1275 -790 
Q 1522 -856 1778 -856 
Q 2344 -856 2625 -561 
Q 2906 -266 2906 331 
L 2906 616 
Q 2728 306 2450 153 
Q 2172 0 1784 0 
Q 1141 0 747 490 
Q 353 981 353 1791 
Q 353 2603 747 3093 
Q 1141 3584 1784 3584 
Q 2172 3584 2450 3431 
Q 2728 3278 2906 2969 
L 2906 3500 
L 3481 3500 
L 3481 434 
z
" transform="scale(0.015625)"/>
       <path id="DejaVuSans-75" d="M 544 1381 
L 544 3500 
L 1119 3500 
L 1119 1403 
Q 1119 906 1312 657 
Q 1506 409 1894 409 
Q 2359 409 2629 706 
Q 2900 1003 2900 1516 
L 2900 3500 
L 3475 3500 
L 3475 0 
L 2900 0 
L 2900 538 
Q 2691 219 2414 64 
Q 2138 -91 1772 -91 
Q 1169 -91 856 284 
Q 544 659 544 1381 
z
M 1991 3584 
L 1991 3584 
z
" transform="scale(0.015625)"/>
      </defs>
      <use xlink:href="#DejaVuSans-56"/>
      <use xlink:href="#DejaVuSans-6f" x="60.658203"/>
      <use xlink:href="#DejaVuSans-6c" x="121.839844"/>
      <use xlink:href="#DejaVuSans-74" x="149.623047"/>
      <use xlink:href="#DejaVuSans-61" x="188.832031"/>
      <use xlink:href="#DejaVuSans-67" x="250.111328"/>
      <use xlink:href="#DejaVuSans-65" x="313.587891"/>
      <use xlink:href="#DejaVuSans-20" x="375.111328"/>
      <use xlink:href="#DejaVuSans-5b" x="406.898438"/>
      <use xlink:href="#DejaVuSans-75" x="445.912109"/>
      <use xlink:href="#DejaVuSans-56" x="509.291016"/>
      <use xlink:href="#DejaVuSans-5d" x="577.699219"/>
     </g>
    </g>
   </g>
   <g id="line2d_15">
    <path d="M 88.746449 102.655673 
L 89.381333 85.492351 
L 90.016218 86.610198 
L 90.651102 106.256481 
L 91.285987 105.23425 
L 91.920871 101.322813 
L 92.555756 139.568452 
L 93.19064 137.297918 
L 94.460409 143.059612 
L 95.095294 104.395777 
L 95.730179 112.119469 
L 96.365063 111.160623 
L 96.999948 105.22836 
L 97.634832 116.463072 
L 98.269717 104.800072 
L 98.904601 90.224932 
L 99.539486 86.718991 
L 100.17437 93.763711 
L 100.809255 104.550423 
L 101.444139 102.88647 
L 102.079024 84.560609 
L 102.713908 114.298322 
L 103.348793 97.278148 
L 103.983677 65.964747 
L 104.618562 98.328984 
L 105.253446 86.486728 
L 105.888331 102.725839 
L 106.523215 104.082826 
L 107.1581 94.776328 
L 107.792984 72.460194 
L 108.427869 105.113032 
L 109.062753 101.371047 
L 109.697638 105.598523 
L 110.332522 100.177184 
L 110.967407 81.796347 
L 111.602291 135.569453 
L 112.237176 123.071848 
L 112.87206 126.695726 
L 113.506945 117.749527 
L 114.141829 123.241362 
L 115.411598 75.641415 
L 116.046483 86.720378 
L 116.681368 81.188013 
L 117.316252 96.299349 
L 117.951137 98.762663 
L 118.586021 91.980125 
L 119.220906 104.857699 
L 119.85579 92.753085 
L 120.490675 105.327215 
L 121.125559 120.232739 
L 121.760444 124.29079 
L 122.395328 131.415897 
L 123.030213 132.329812 
L 123.665097 116.595104 
L 124.299982 116.995155 
L 124.934866 145.700404 
L 125.569751 133.078363 
L 126.204635 126.104903 
L 126.83952 115.91687 
L 127.474404 138.810281 
L 128.109289 133.376501 
L 128.744173 90.504379 
L 129.379058 103.189204 
L 130.013942 126.131057 
L 130.648827 101.723113 
L 131.283711 115.141307 
L 131.918596 164.224149 
L 132.55348 131.953968 
L 133.188365 135.976193 
L 133.823249 174.601755 
L 134.458134 142.967177 
L 135.727903 123.182798 
L 136.362787 127.116683 
L 136.997672 142.561559 
L 137.632556 134.833497 
L 138.267441 124.733849 
L 138.902326 112.111566 
L 139.53721 121.275834 
L 140.172095 110.476802 
L 140.806979 103.464421 
L 141.441864 69.829471 
L 142.076748 92.836815 
L 142.711633 110.244087 
L 143.346517 101.137324 
L 143.981402 119.396478 
L 144.616286 82.018879 
L 145.251171 105.066209 
L 145.886055 92.292851 
L 146.52094 90.683812 
L 147.155824 79.772595 
L 147.790709 88.569071 
L 148.425593 92.162461 
L 149.060478 65.996223 
L 149.695362 92.304017 
L 150.330247 68.586765 
L 150.965131 82.847239 
L 151.600016 84.539523 
L 152.2349 71.643861 
L 152.869785 75.969966 
L 153.504669 63.259526 
L 154.139554 70.300949 
L 154.774438 101.407293 
L 155.409323 55.160406 
L 156.044207 75.067969 
L 156.679092 116.119371 
L 157.313976 117.352203 
L 158.583745 136.800164 
L 159.21863 151.979407 
L 159.853515 127.470672 
L 160.488399 153.141593 
L 161.123284 124.558973 
L 161.758168 119.708319 
L 162.393053 156.092314 
L 163.027937 118.965069 
L 164.297706 170.534846 
L 164.932591 126.52423 
L 165.567475 107.986675 
L 166.20236 109.760347 
L 166.837244 120.654932 
L 167.472129 126.686234 
L 168.107013 92.35419 
L 168.741898 150.529606 
L 169.376782 168.659667 
L 170.011667 122.54138 
L 170.646551 138.051251 
L 171.281436 87.784774 
L 171.91632 114.731145 
L 172.551205 116.807751 
L 173.186089 107.120695 
L 174.455858 65.521004 
L 175.090743 84.484648 
L 175.725627 86.452411 
L 176.360512 76.189289 
L 176.995396 82.354169 
L 177.630281 108.493013 
L 178.265165 89.717966 
L 178.90005 122.694329 
L 179.534934 119.60811 
L 180.169819 114.240844 
L 180.804704 90.429479 
L 181.439588 98.128351 
L 182.074473 111.893591 
L 182.709357 131.752606 
L 183.344242 86.152946 
L 183.979126 55.104675 
L 184.614011 58.342281 
L 185.248895 82.870947 
L 185.88378 131.699808 
L 186.518664 99.428438 
L 187.153549 110.469857 
L 187.788433 112.554807 
L 188.423318 137.018972 
L 189.058202 132.670864 
L 189.693087 124.548409 
L 190.327971 107.563033 
L 190.962856 140.939363 
L 191.59774 135.844311 
L 192.232625 111.735772 
L 192.867509 124.227292 
L 193.502394 149.164299 
L 194.137278 117.827231 
L 194.772163 110.203973 
L 195.407047 155.226533 
L 196.041932 88.157617 
L 196.676816 122.885712 
L 197.311701 128.699219 
L 197.946585 125.268564 
L 198.58147 131.307519 
L 199.216354 131.679207 
L 199.851239 97.976298 
L 200.486123 74.844269 
L 201.121008 86.201444 
L 201.755892 70.918642 
L 202.390777 96.034167 
L 203.025662 59.807155 
L 203.660546 97.487435 
L 204.295431 128.3079 
L 204.930315 89.936172 
L 205.5652 107.336571 
L 206.200084 121.051871 
L 206.834969 117.65975 
L 207.469853 94.885231 
L 208.104738 84.863101 
L 208.739622 117.197113 
L 209.374507 118.626898 
L 210.009391 98.556573 
L 210.644276 93.631034 
L 211.27916 106.851038 
L 211.914045 116.304277 
L 213.183814 97.240107 
L 213.818698 116.73532 
L 214.453583 122.636274 
L 215.088467 118.95545 
L 215.723352 127.240759 
L 216.358236 115.430392 
L 216.993121 111.076926 
L 217.628005 91.793873 
L 218.897774 94.396516 
L 219.532659 121.600697 
L 220.167543 113.453624 
L 220.802428 79.103072 
L 221.437312 116.985734 
L 222.072197 108.565617 
L 222.707081 97.160825 
L 223.341966 110.120188 
L 223.976851 96.402872 
L 224.611735 109.242083 
L 225.24662 139.501569 
L 225.881504 88.326662 
L 226.516389 101.095446 
L 227.151273 122.469535 
L 227.786158 97.35256 
L 228.421042 146.412801 
L 229.055927 143.911528 
L 229.690811 139.278397 
L 230.325696 145.443428 
L 230.96058 148.064519 
L 231.595465 132.617637 
L 232.230349 129.018126 
L 232.865234 148.510749 
L 233.500118 129.117842 
L 234.135003 169.612773 
L 234.769887 154.866612 
L 235.404772 117.574672 
L 236.039656 149.444512 
L 236.674541 137.303059 
L 237.309425 110.207809 
L 237.94431 91.701351 
L 238.579194 82.156835 
L 239.214079 64.980085 
L 239.848963 86.780844 
L 240.483848 81.954185 
L 241.118732 90.073663 
L 241.753617 113.262574 
L 242.388501 106.33437 
L 243.023386 121.057727 
L 243.65827 102.867428 
L 244.293155 103.388576 
L 244.928039 84.200676 
L 245.562924 71.348647 
L 246.197809 64.017358 
L 246.832693 58.869069 
L 248.102462 119.458837 
L 248.737347 110.456314 
L 249.372231 89.244041 
L 250.007116 93.522811 
L 250.642 86.361787 
L 251.276885 91.389557 
L 251.911769 84.034087 
L 252.546654 70.769431 
L 253.816423 110.655066 
L 254.451307 71.233898 
L 255.086192 64.170132 
L 255.721076 99.937336 
L 256.355961 113.448276 
L 256.990845 107.6648 
L 257.62573 122.061329 
L 258.260614 151.217087 
L 258.895499 142.899443 
L 259.530383 162.703782 
L 260.165268 143.346432 
L 260.800152 149.949102 
L 261.435037 135.186298 
L 262.069921 126.644514 
L 262.704806 143.263067 
L 263.33969 101.912043 
L 263.974575 121.259446 
L 264.609459 114.260155 
L 265.244344 100.525357 
L 266.514113 118.267432 
L 267.148998 94.889664 
L 267.783882 118.326458 
L 268.418767 112.849402 
L 269.053651 90.228714 
L 269.688536 132.106333 
L 270.32342 117.501748 
L 270.958305 112.227318 
L 271.593189 131.579227 
L 272.228074 100.242291 
L 272.862958 95.242426 
L 273.497843 128.151504 
L 274.132727 86.181526 
L 274.767612 75.83474 
L 275.402496 70.47861 
L 276.037381 89.491878 
L 276.672265 85.391273 
L 277.30715 82.908496 
L 277.942034 120.537799 
L 278.576919 124.572617 
L 279.211803 119.193384 
L 279.846688 124.341347 
L 280.481572 131.688531 
L 281.116457 110.887212 
L 281.751341 119.563216 
L 282.386226 133.783767 
L 283.02111 113.539272 
L 283.655995 121.85189 
L 284.290879 126.042677 
L 284.925764 119.474984 
L 285.560648 139.449889 
L 286.195533 124.709418 
L 286.830417 118.486192 
L 287.465302 93.858755 
L 288.100186 139.476351 
L 288.735071 128.174926 
L 289.369956 113.56075 
L 290.00484 105.675053 
L 290.639725 88.297525 
L 291.274609 104.794024 
L 291.909494 105.368626 
L 292.544378 112.567631 
L 293.179263 77.870566 
L 293.814147 100.995247 
L 294.449032 113.461867 
L 295.083916 113.852398 
L 295.718801 87.440391 
L 296.353685 98.918704 
L 296.98857 113.410751 
L 297.623454 106.430521 
L 298.258339 103.294932 
L 298.893223 112.178663 
L 299.528108 80.668357 
L 300.162992 71.698057 
L 300.797877 85.44346 
L 301.432761 101.754388 
L 302.067646 126.20533 
L 303.337415 97.294502 
L 303.972299 98.979716 
L 304.607184 114.33363 
L 305.242068 112.377201 
L 305.876953 129.068051 
L 306.511837 80.543627 
L 307.146722 92.5585 
L 307.781606 98.150033 
L 308.416491 83.780547 
L 309.051375 96.699921 
L 309.68626 115.749135 
L 310.321145 138.279643 
L 310.956029 128.346816 
L 311.590914 96.330919 
L 312.225798 93.432361 
L 312.860683 123.698405 
L 313.495567 141.490263 
L 314.130452 128.426237 
L 314.765336 119.693517 
L 315.400221 125.608548 
L 316.035105 118.064946 
L 316.66999 129.01784 
L 317.304874 116.973307 
L 317.939759 108.013827 
L 318.574643 120.96198 
L 319.209528 149.432913 
L 319.844412 128.070185 
L 320.479297 148.813535 
L 321.114181 137.666627 
L 321.749066 95.670368 
L 322.38395 116.500084 
L 323.018835 113.321359 
L 323.653719 119.459407 
L 324.288604 133.149691 
L 324.923488 87.853156 
L 325.558373 118.518049 
L 326.193257 122.928336 
L 326.828142 92.190807 
L 327.463026 107.894402 
L 328.097911 82.161791 
L 328.732795 81.311885 
L 329.36768 55.734244 
L 330.002564 90.855533 
L 330.637449 85.991798 
L 331.272333 83.641241 
L 331.907218 95.901176 
L 332.542103 77.916786 
L 333.176987 122.034299 
L 333.811872 143.487685 
L 334.446756 154.623205 
L 335.081641 173.898969 
L 335.716525 161.707839 
L 336.35141 111.000683 
L 336.986294 109.371091 
L 337.621179 162.330178 
L 338.256063 104.701019 
L 338.890948 80.424673 
L 339.525832 99.419436 
L 340.160717 81.310954 
L 340.795601 87.673342 
L 341.430486 82.047282 
L 342.06537 92.969276 
L 342.700255 97.633837 
L 343.335139 117.900528 
L 343.970024 101.972465 
L 344.604908 116.073954 
L 345.239793 91.188966 
L 345.874677 88.72569 
L 346.509562 87.545506 
L 347.144446 78.200721 
L 347.779331 98.956728 
L 348.414215 92.89388 
L 349.0491 100.044674 
L 349.683984 113.138706 
L 350.318869 90.87762 
L 350.953753 105.580226 
L 351.588638 134.168812 
L 352.223522 82.589564 
L 352.858407 94.146614 
L 353.493292 87.259937 
L 354.128176 134.629108 
L 354.763061 158.161761 
L 355.397945 195.478125 
L 356.03283 157.653902 
L 356.667714 155.805977 
L 357.302599 164.854995 
L 357.937483 116.000436 
L 358.572368 128.334822 
L 359.207252 107.905401 
L 359.842137 114.154288 
L 360.477021 84.397602 
L 361.111906 93.035884 
L 361.74679 110.01718 
L 362.381675 113.99893 
L 363.016559 106.382451 
L 363.651444 92.851063 
L 364.286328 88.503563 
L 364.921213 107.253193 
L 365.556097 79.265622 
L 366.190982 102.309379 
L 366.825866 76.13407 
L 367.460751 87.716109 
L 368.095635 117.079895 
L 368.73052 97.953223 
L 369.365404 93.864478 
L 370.000289 66.96483 
L 370.635173 120.198391 
L 371.270058 121.935931 
L 371.904942 108.060755 
L 372.539827 107.414423 
L 373.174711 131.300072 
L 373.809596 133.011249 
L 374.44448 105.762975 
L 375.079365 106.648738 
L 375.71425 90.236034 
L 376.349134 77.276536 
L 376.984019 92.566766 
L 377.618903 103.005441 
L 378.253788 116.012046 
L 378.888672 103.575691 
L 379.523557 107.013617 
L 380.158441 116.253042 
L 380.793326 132.760188 
L 381.42821 113.695251 
L 382.063095 118.114171 
L 382.697979 133.199932 
L 383.332864 132.849554 
L 383.967748 147.441718 
L 384.602633 116.833924 
L 385.237517 114.727291 
L 385.872402 128.753659 
L 386.507286 97.143596 
L 387.142171 85.653952 
L 387.777055 93.436893 
L 388.41194 94.564227 
L 389.046824 123.218815 
L 389.681709 100.645909 
L 390.316593 112.068478 
L 390.951478 86.300143 
L 391.586362 86.063825 
L 392.221247 112.292963 
L 392.856131 122.173622 
L 393.491016 125.172188 
L 394.1259 140.025181 
L 394.760785 119.149667 
L 395.395669 130.395348 
L 396.030554 121.72701 
L 396.665439 92.555708 
L 397.300323 162.9987 
L 397.935208 122.41692 
L 398.570092 120.922521 
L 399.204977 93.325193 
L 399.839861 135.183666 
L 400.474746 139.135363 
L 401.10963 98.017164 
L 401.744515 101.281239 
L 402.379399 76.583328 
L 403.014284 79.71864 
L 403.649168 66.229223 
L 404.284053 113.037861 
L 404.918937 125.632162 
L 405.553822 111.2151 
L 406.188706 115.687933 
L 406.823591 107.588649 
L 408.09336 121.771317 
L 408.728244 107.605287 
L 409.998013 70.925942 
L 410.632898 84.779812 
L 411.267782 86.272246 
L 411.902667 143.889377 
L 412.537551 139.977145 
L 413.172436 120.199722 
L 414.442205 115.485981 
L 415.077089 140.102722 
L 415.711974 86.603711 
L 416.346858 103.621405 
L 416.981743 109.230722 
L 417.616627 94.629928 
L 418.251512 83.46 
L 418.886397 85.739699 
L 419.521281 130.697308 
L 420.156166 133.11008 
L 420.79105 105.363178 
L 421.425935 89.875369 
L 422.060819 121.696648 
L 422.695704 130.343193 
L 423.330588 99.407528 
L 423.965473 95.891256 
L 424.600357 109.660133 
L 425.235242 107.289529 
L 425.870126 105.469649 
L 426.505011 92.726317 
L 427.139895 75.110762 
L 427.77478 99.191139 
L 428.409664 106.093276 
L 429.044549 122.74588 
L 429.679433 129.919058 
L 430.949202 89.196004 
L 431.584087 106.105097 
L 432.218971 118.458514 
L 432.853856 89.336008 
L 433.48874 81.329246 
L 434.123625 105.184398 
L 434.758509 94.710555 
L 435.393394 86.384348 
L 436.028278 112.295382 
L 436.663163 113.213249 
L 437.298047 136.721432 
L 437.932932 132.793209 
L 438.567816 122.300238 
L 439.202701 150.362576 
L 439.837586 164.980402 
L 440.47247 132.007808 
L 441.742239 128.692614 
L 442.377124 125.134783 
L 443.012008 125.458436 
L 443.646893 125.408437 
L 444.281777 115.184897 
L 444.916662 91.191274 
L 445.551546 97.277329 
L 446.186431 93.576592 
L 446.821315 105.077964 
L 447.4562 107.051581 
L 448.091084 93.580755 
L 448.725969 101.544784 
L 449.360853 118.949185 
L 449.995738 109.012491 
L 450.630622 137.454306 
L 451.265507 130.741942 
L 451.900391 103.394942 
L 452.535276 120.376944 
L 453.17016 110.105513 
L 454.439929 98.160757 
L 455.074814 106.502548 
L 456.344583 104.302901 
L 456.979467 110.253203 
L 457.614352 100.047781 
L 458.249236 95.716093 
L 458.884121 105.502634 
L 459.519005 130.290736 
L 460.15389 120.692717 
L 460.788774 125.798003 
L 462.058544 102.413589 
L 462.693428 92.305233 
L 463.328313 78.349295 
L 463.963197 112.796407 
L 464.598082 124.694418 
L 465.232966 96.199214 
L 465.867851 87.329894 
L 466.502735 105.222283 
L 467.13762 100.030719 
L 467.772504 111.172868 
L 468.407389 99.440235 
L 469.042273 94.48574 
L 469.677158 97.287385 
L 470.312042 85.850184 
L 470.946927 119.674329 
L 471.581811 112.030784 
L 472.216696 101.320439 
L 473.486465 123.180977 
L 474.121349 121.925066 
L 474.756234 84.094135 
L 475.391118 95.800406 
L 476.026003 70.921363 
L 476.660887 103.085444 
L 477.295772 115.706988 
L 477.930656 121.52266 
L 478.565541 123.210442 
L 479.200425 117.100338 
L 479.83531 169.220331 
L 480.470194 141.334896 
L 481.105079 131.708009 
L 481.739963 85.180014 
L 482.374848 107.301647 
L 483.009733 112.489708 
L 483.644617 122.749107 
L 484.279502 116.88641 
L 484.914386 89.2312 
L 485.549271 119.301816 
L 486.184155 121.594476 
L 486.81904 120.429174 
L 487.453924 100.991736 
L 488.088809 120.947411 
L 488.723693 127.280607 
L 489.358578 122.819491 
L 489.993462 116.905281 
L 490.628347 147.568249 
L 491.263231 127.337567 
L 491.898116 113.551742 
L 492.533 124.678286 
L 493.167885 104.268073 
L 493.802769 93.973483 
L 494.437654 90.924784 
L 495.072538 101.22226 
L 495.707423 84.548419 
L 496.342307 51.182998 
L 496.977192 73.321281 
L 497.612076 68.602998 
L 498.246961 91.782339 
L 498.881845 86.298311 
L 499.51673 66.121624 
L 500.151614 114.749075 
L 500.786499 104.68726 
L 501.421383 144.819155 
L 502.056268 97.83305 
L 502.691152 111.842689 
L 503.326037 117.434315 
L 503.960921 82.978717 
L 504.595806 119.856419 
L 505.230691 135.803846 
L 505.865575 113.707312 
L 506.50046 110.265322 
L 507.135344 111.515025 
L 507.770229 112.001028 
L 508.405113 161.049067 
L 509.039998 150.048798 
L 509.674882 141.635786 
L 510.309767 128.370266 
L 510.944651 141.466772 
L 511.579536 122.642169 
L 512.21442 113.572251 
L 512.849305 142.637729 
L 513.484189 98.427568 
L 514.119074 86.52712 
L 514.753958 139.746363 
L 516.023727 62.531122 
L 516.658612 73.177703 
L 517.293496 72.342686 
L 517.928381 100.39365 
L 518.563265 136.45342 
L 519.19815 141.824895 
L 519.833034 158.802388 
L 520.467919 104.867713 
L 521.102803 97.503815 
L 521.737688 140.414903 
L 522.372572 115.651704 
L 523.007457 110.162514 
L 523.642341 112.62396 
L 524.277226 102.307347 
L 524.91211 100.105084 
L 525.546995 116.236664 
L 526.18188 70.881878 
L 526.816764 93.203442 
L 527.451649 110.477074 
L 528.086533 122.607557 
L 528.721418 91.640313 
L 529.356302 96.669919 
L 529.991187 113.020701 
L 530.626071 93.635202 
L 531.260956 111.39227 
L 531.89584 136.90433 
L 532.530725 124.0635 
L 533.165609 101.699198 
L 533.800494 120.441934 
L 534.435378 78.030812 
L 535.070263 92.761322 
L 535.705147 79.561901 
L 536.340032 62.60212 
L 536.974916 95.181873 
L 537.609801 93.947258 
L 538.244685 83.781657 
L 538.87957 96.694163 
L 539.514454 51.279606 
L 540.784223 92.396688 
L 541.419108 75.625835 
L 542.053992 83.180963 
L 542.688877 93.469927 
L 543.323761 137.952658 
L 543.958646 154.306452 
L 544.59353 184.973071 
L 545.228415 174.53319 
L 545.863299 170.761604 
L 546.498184 163.26416 
L 547.133069 160.623559 
L 547.767953 155.090893 
L 548.402838 140.20155 
L 549.037722 143.493211 
L 550.942376 97.163342 
L 551.57726 91.824763 
L 552.212145 122.790571 
L 552.847029 139.938329 
L 553.481914 145.190308 
L 554.116798 136.433199 
L 554.751683 132.319012 
L 555.386567 122.478812 
L 556.021452 126.546727 
L 556.656336 94.203209 
L 557.291221 77.546537 
L 557.926105 123.455019 
L 558.56099 107.338207 
L 559.195874 98.635599 
L 559.830759 102.951091 
L 560.465643 96.787902 
L 561.100528 98.315324 
L 561.735412 96.364321 
L 562.370297 65.36798 
L 563.005181 73.188464 
L 563.640066 58.32158 
L 564.27495 93.153874 
L 564.909835 78.532916 
L 565.544719 46.541204 
L 566.179604 76.453194 
L 566.814488 44.278125 
L 567.449373 82.173952 
L 568.084257 69.35921 
L 568.719142 66.370088 
L 569.354027 102.842317 
L 569.988911 103.497357 
L 570.623796 72.274315 
L 571.25868 61.066193 
L 571.893565 87.343355 
L 572.528449 84.02364 
L 573.163334 81.486003 
L 573.798218 92.757063 
L 574.433103 146.766736 
L 575.067987 133.648707 
L 575.702872 131.752199 
L 576.337756 170.179077 
L 576.972641 123.930163 
L 577.607525 127.964285 
L 578.24241 163.788662 
L 578.877294 126.493737 
L 579.512179 129.272363 
L 580.147063 131.187854 
L 580.781948 115.709794 
L 581.416832 142.707586 
L 582.051717 131.61205 
L 582.686601 132.975511 
L 583.321486 130.663556 
L 583.95637 157.453892 
L 584.591255 158.601321 
L 585.226139 152.779718 
L 585.861024 151.495388 
L 586.495908 130.652429 
L 587.130793 150.510577 
L 587.765677 139.328065 
L 588.400562 149.143379 
L 589.035446 143.511954 
L 589.670331 140.871729 
L 590.305216 115.752709 
L 590.9401 109.36438 
L 591.574985 131.095179 
L 592.209869 117.267145 
L 592.844754 121.623055 
L 593.479638 107.759984 
L 594.114523 116.030294 
L 594.749407 112.151835 
L 595.384292 114.935506 
L 596.019176 85.37643 
L 596.019176 85.37643 
" clip-path="url(#p366e27a6f0)" style="fill: none; stroke: #1f77b4; stroke-width: 1.5; stroke-linecap: square"/>
   </g>
   <g id="line2d_16">
    <path d="M 342.700255 97.633837 
L 343.335139 117.900528 
L 343.970024 101.972465 
L 344.604908 116.073954 
L 345.239793 91.188966 
L 345.874677 88.72569 
L 346.509562 87.545506 
L 347.144446 78.200721 
L 347.779331 98.956728 
L 348.414215 92.89388 
L 349.0491 100.044674 
L 349.683984 113.138706 
L 350.318869 90.87762 
L 350.953753 105.580226 
L 351.588638 134.168812 
L 352.223522 82.589564 
L 352.858407 94.146614 
L 353.493292 87.259937 
L 354.128176 134.629108 
L 354.763061 158.161761 
L 355.397945 195.478125 
L 356.03283 157.653902 
L 356.667714 155.805977 
L 357.302599 164.854995 
L 357.937483 116.000436 
L 358.572368 128.334822 
L 359.207252 107.905401 
L 359.842137 114.154288 
L 360.477021 84.397602 
L 361.111906 93.035884 
L 361.74679 110.01718 
L 362.381675 113.99893 
L 363.016559 106.382451 
L 363.651444 92.851063 
L 364.286328 88.503563 
L 364.921213 107.253193 
L 365.556097 79.265622 
L 366.190982 102.309379 
L 366.825866 76.13407 
L 367.460751 87.716109 
" clip-path="url(#p366e27a6f0)" style="fill: none; stroke: #ff0000; stroke-width: 1.5; stroke-linecap: square"/>
   </g>
   <g id="patch_3">
    <path d="M 63.382812 203.038125 
L 63.382812 36.718125 
" style="fill: none; stroke: #000000; stroke-width: 0.8; stroke-linejoin: miter; stroke-linecap: square"/>
   </g>
   <g id="patch_4">
    <path d="M 621.382812 203.038125 
L 621.382812 36.718125 
" style="fill: none; stroke: #000000; stroke-width: 0.8; stroke-linejoin: miter; stroke-linecap: square"/>
   </g>
   <g id="patch_5">
    <path d="M 63.382812 203.038125 
L 621.382812 203.038125 
" style="fill: none; stroke: #000000; stroke-width: 0.8; stroke-linejoin: miter; stroke-linecap: square"/>
   </g>
   <g id="patch_6">
    <path d="M 63.382812 36.718125 
L 621.382812 36.718125 
" style="fill: none; stroke: #000000; stroke-width: 0.8; stroke-linejoin: miter; stroke-linecap: square"/>
   </g>
   <g id="text_17">
    <!-- Channel:17, Time stamp : 1637269 -->
    <g transform="translate(236.327188 30.718125) scale(0.12 -0.12)">
     <defs>
      <path id="DejaVuSans-43" d="M 4122 4306 
L 4122 3641 
Q 3803 3938 3442 4084 
Q 3081 4231 2675 4231 
Q 1875 4231 1450 3742 
Q 1025 3253 1025 2328 
Q 1025 1406 1450 917 
Q 1875 428 2675 428 
Q 3081 428 3442 575 
Q 3803 722 4122 1019 
L 4122 359 
Q 3791 134 3420 21 
Q 3050 -91 2638 -91 
Q 1578 -91 968 557 
Q 359 1206 359 2328 
Q 359 3453 968 4101 
Q 1578 4750 2638 4750 
Q 3056 4750 3426 4639 
Q 3797 4528 4122 4306 
z
" transform="scale(0.015625)"/>
      <path id="DejaVuSans-68" d="M 3513 2113 
L 3513 0 
L 2938 0 
L 2938 2094 
Q 2938 2591 2744 2837 
Q 2550 3084 2163 3084 
Q 1697 3084 1428 2787 
Q 1159 2491 1159 1978 
L 1159 0 
L 581 0 
L 581 4863 
L 1159 4863 
L 1159 2956 
Q 1366 3272 1645 3428 
Q 1925 3584 2291 3584 
Q 2894 3584 3203 3211 
Q 3513 2838 3513 2113 
z
" transform="scale(0.015625)"/>
      <path id="DejaVuSans-6e" d="M 3513 2113 
L 3513 0 
L 2938 0 
L 2938 2094 
Q 2938 2591 2744 2837 
Q 2550 3084 2163 3084 
Q 1697 3084 1428 2787 
Q 1159 2491 1159 1978 
L 1159 0 
L 581 0 
L 581 3500 
L 1159 3500 
L 1159 2956 
Q 1366 3272 1645 3428 
Q 1925 3584 2291 3584 
Q 2894 3584 3203 3211 
Q 3513 2838 3513 2113 
z
" transform="scale(0.015625)"/>
      <path id="DejaVuSans-3a" d="M 750 794 
L 1409 794 
L 1409 0 
L 750 0 
L 750 794 
z
M 750 3309 
L 1409 3309 
L 1409 2516 
L 750 2516 
L 750 3309 
z
" transform="scale(0.015625)"/>
      <path id="DejaVuSans-37" d="M 525 4666 
L 3525 4666 
L 3525 4397 
L 1831 0 
L 1172 0 
L 2766 4134 
L 525 4134 
L 525 4666 
z
" transform="scale(0.015625)"/>
      <path id="DejaVuSans-2c" d="M 750 794 
L 1409 794 
L 1409 256 
L 897 -744 
L 494 -744 
L 750 256 
L 750 794 
z
" transform="scale(0.015625)"/>
      <path id="DejaVuSans-70" d="M 1159 525 
L 1159 -1331 
L 581 -1331 
L 581 3500 
L 1159 3500 
L 1159 2969 
Q 1341 3281 1617 3432 
Q 1894 3584 2278 3584 
Q 2916 3584 3314 3078 
Q 3713 2572 3713 1747 
Q 3713 922 3314 415 
Q 2916 -91 2278 -91 
Q 1894 -91 1617 61 
Q 1341 213 1159 525 
z
M 3116 1747 
Q 3116 2381 2855 2742 
Q 2594 3103 2138 3103 
Q 1681 3103 1420 2742 
Q 1159 2381 1159 1747 
Q 1159 1113 1420 752 
Q 1681 391 2138 391 
Q 2594 391 2855 752 
Q 3116 1113 3116 1747 
z
" transform="scale(0.015625)"/>
      <path id="DejaVuSans-36" d="M 2113 2584 
Q 1688 2584 1439 2293 
Q 1191 2003 1191 1497 
Q 1191 994 1439 701 
Q 1688 409 2113 409 
Q 2538 409 2786 701 
Q 3034 994 3034 1497 
Q 3034 2003 2786 2293 
Q 2538 2584 2113 2584 
z
M 3366 4563 
L 3366 3988 
Q 3128 4100 2886 4159 
Q 2644 4219 2406 4219 
Q 1781 4219 1451 3797 
Q 1122 3375 1075 2522 
Q 1259 2794 1537 2939 
Q 1816 3084 2150 3084 
Q 2853 3084 3261 2657 
Q 3669 2231 3669 1497 
Q 3669 778 3244 343 
Q 2819 -91 2113 -91 
Q 1303 -91 875 529 
Q 447 1150 447 2328 
Q 447 3434 972 4092 
Q 1497 4750 2381 4750 
Q 2619 4750 2861 4703 
Q 3103 4656 3366 4563 
z
" transform="scale(0.015625)"/>
      <path id="DejaVuSans-33" d="M 2597 2516 
Q 3050 2419 3304 2112 
Q 3559 1806 3559 1356 
Q 3559 666 3084 287 
Q 2609 -91 1734 -91 
Q 1441 -91 1130 -33 
Q 819 25 488 141 
L 488 750 
Q 750 597 1062 519 
Q 1375 441 1716 441 
Q 2309 441 2620 675 
Q 2931 909 2931 1356 
Q 2931 1769 2642 2001 
Q 2353 2234 1838 2234 
L 1294 2234 
L 1294 2753 
L 1863 2753 
Q 2328 2753 2575 2939 
Q 2822 3125 2822 3475 
Q 2822 3834 2567 4026 
Q 2313 4219 1838 4219 
Q 1578 4219 1281 4162 
Q 984 4106 628 3988 
L 628 4550 
Q 988 4650 1302 4700 
Q 1616 4750 1894 4750 
Q 2613 4750 3031 4423 
Q 3450 4097 3450 3541 
Q 3450 3153 3228 2886 
Q 3006 2619 2597 2516 
z
" transform="scale(0.015625)"/>
      <path id="DejaVuSans-39" d="M 703 97 
L 703 672 
Q 941 559 1184 500 
Q 1428 441 1663 441 
Q 2288 441 2617 861 
Q 2947 1281 2994 2138 
Q 2813 1869 2534 1725 
Q 2256 1581 1919 1581 
Q 1219 1581 811 2004 
Q 403 2428 403 3163 
Q 403 3881 828 4315 
Q 1253 4750 1959 4750 
Q 2769 4750 3195 4129 
Q 3622 3509 3622 2328 
Q 3622 1225 3098 567 
Q 2575 -91 1691 -91 
Q 1453 -91 1209 -44 
Q 966 3 703 97 
z
M 1959 2075 
Q 2384 2075 2632 2365 
Q 2881 2656 2881 3163 
Q 2881 3666 2632 3958 
Q 2384 4250 1959 4250 
Q 1534 4250 1286 3958 
Q 1038 3666 1038 3163 
Q 1038 2656 1286 2365 
Q 1534 2075 1959 2075 
z
" transform="scale(0.015625)"/>
     </defs>
     <use xlink:href="#DejaVuSans-43"/>
     <use xlink:href="#DejaVuSans-68" x="69.824219"/>
     <use xlink:href="#DejaVuSans-61" x="133.203125"/>
     <use xlink:href="#DejaVuSans-6e" x="194.482422"/>
     <use xlink:href="#DejaVuSans-6e" x="257.861328"/>
     <use xlink:href="#DejaVuSans-65" x="321.240234"/>
     <use xlink:href="#DejaVuSans-6c" x="382.763672"/>
     <use xlink:href="#DejaVuSans-3a" x="410.546875"/>
     <use xlink:href="#DejaVuSans-31" x="444.238281"/>
     <use xlink:href="#DejaVuSans-37" x="507.861328"/>
     <use xlink:href="#DejaVuSans-2c" x="571.484375"/>
     <use xlink:href="#DejaVuSans-20" x="603.271484"/>
     <use xlink:href="#DejaVuSans-54" x="635.058594"/>
     <use xlink:href="#DejaVuSans-69" x="693.017578"/>
     <use xlink:href="#DejaVuSans-6d" x="720.800781"/>
     <use xlink:href="#DejaVuSans-65" x="818.212891"/>
     <use xlink:href="#DejaVuSans-20" x="879.736328"/>
     <use xlink:href="#DejaVuSans-73" x="911.523438"/>
     <use xlink:href="#DejaVuSans-74" x="963.623047"/>
     <use xlink:href="#DejaVuSans-61" x="1002.832031"/>
     <use xlink:href="#DejaVuSans-6d" x="1064.111328"/>
     <use xlink:href="#DejaVuSans-70" x="1161.523438"/>
     <use xlink:href="#DejaVuSans-20" x="1225"/>
     <use xlink:href="#DejaVuSans-3a" x="1256.787109"/>
     <use xlink:href="#DejaVuSans-20" x="1290.478516"/>
     <use xlink:href="#DejaVuSans-31" x="1322.265625"/>
     <use xlink:href="#DejaVuSans-36" x="1385.888672"/>
     <use xlink:href="#DejaVuSans-33" x="1449.511719"/>
     <use xlink:href="#DejaVuSans-37" x="1513.134766"/>
     <use xlink:href="#DejaVuSans-32" x="1576.757812"/>
     <use xlink:href="#DejaVuSans-36" x="1640.380859"/>
     <use xlink:href="#DejaVuSans-39" x="1704.003906"/>
    </g>
   </g>
  </g>
 </g>
 <defs>
  <clipPath id="p366e27a6f0">
   <rect x="63.382812" y="36.718125" width="558" height="166.32"/>
  </clipPath>
 </defs>
</svg>
