<?xml version="1.0" encoding="utf-8" standalone="no"?>
<!DOCTYPE svg PUBLIC "-//W3C//DTD SVG 1.1//EN"
  "http://www.w3.org/Graphics/SVG/1.1/DTD/svg11.dtd">
<svg xmlns:xlink="http://www.w3.org/1999/xlink" width="642.982813pt" height="254.994375pt" viewBox="0 0 642.982813 254.994375" xmlns="http://www.w3.org/2000/svg" version="1.1">
 <metadata>
  <rdf:RDF xmlns:dc="http://purl.org/dc/elements/1.1/" xmlns:cc="http://creativecommons.org/ns#" xmlns:rdf="http://www.w3.org/1999/02/22-rdf-syntax-ns#">
   <cc:Work>
    <dc:type rdf:resource="http://purl.org/dc/dcmitype/StillImage"/>
    <dc:date>2024-02-26T10:41:44.137079</dc:date>
    <dc:format>image/svg+xml</dc:format>
    <dc:creator>
     <cc:Agent>
      <dc:title>Matplotlib v3.7.1, https://matplotlib.org/</dc:title>
     </cc:Agent>
    </dc:creator>
   </cc:Work>
  </rdf:RDF>
 </metadata>
 <defs>
  <style type="text/css">*{stroke-linejoin: round; stroke-linecap: butt}</style>
 </defs>
 <g id="figure_1">
  <g id="patch_1">
   <path d="M 0 254.994375 
L 642.982813 254.994375 
L 642.982813 -0 
L 0 -0 
z
" style="fill: #ffffff"/>
  </g>
  <g id="axes_1">
   <g id="patch_2">
    <path d="M 63.382812 203.038125 
L 621.382812 203.038125 
L 621.382812 36.718125 
L 63.382812 36.718125 
z
" style="fill: #ffffff"/>
   </g>
   <g id="matplotlib.axis_1">
    <g id="xtick_1">
     <g id="line2d_1">
      <defs>
       <path id="m2b8ebafdd6" d="M 0 0 
L 0 3.5 
" style="stroke: #000000; stroke-width: 0.8"/>
      </defs>
      <g>
       <use xlink:href="#m2b8ebafdd6" x="88.746449" y="203.038125" style="stroke: #000000; stroke-width: 0.8"/>
      </g>
     </g>
     <g id="text_1">
      <!-- −20 -->
      <g transform="translate(78.194105 217.636562) scale(0.1 -0.1)">
       <defs>
        <path id="DejaVuSans-2212" d="M 678 2272 
L 4684 2272 
L 4684 1741 
L 678 1741 
L 678 2272 
z
" transform="scale(0.015625)"/>
        <path id="DejaVuSans-32" d="M 1228 531 
L 3431 531 
L 3431 0 
L 469 0 
L 469 531 
Q 828 903 1448 1529 
Q 2069 2156 2228 2338 
Q 2531 2678 2651 2914 
Q 2772 3150 2772 3378 
Q 2772 3750 2511 3984 
Q 2250 4219 1831 4219 
Q 1534 4219 1204 4116 
Q 875 4013 500 3803 
L 500 4441 
Q 881 4594 1212 4672 
Q 1544 4750 1819 4750 
Q 2544 4750 2975 4387 
Q 3406 4025 3406 3419 
Q 3406 3131 3298 2873 
Q 3191 2616 2906 2266 
Q 2828 2175 2409 1742 
Q 1991 1309 1228 531 
z
" transform="scale(0.015625)"/>
        <path id="DejaVuSans-30" d="M 2034 4250 
Q 1547 4250 1301 3770 
Q 1056 3291 1056 2328 
Q 1056 1369 1301 889 
Q 1547 409 2034 409 
Q 2525 409 2770 889 
Q 3016 1369 3016 2328 
Q 3016 3291 2770 3770 
Q 2525 4250 2034 4250 
z
M 2034 4750 
Q 2819 4750 3233 4129 
Q 3647 3509 3647 2328 
Q 3647 1150 3233 529 
Q 2819 -91 2034 -91 
Q 1250 -91 836 529 
Q 422 1150 422 2328 
Q 422 3509 836 4129 
Q 1250 4750 2034 4750 
z
" transform="scale(0.015625)"/>
       </defs>
       <use xlink:href="#DejaVuSans-2212"/>
       <use xlink:href="#DejaVuSans-32" x="83.789062"/>
       <use xlink:href="#DejaVuSans-30" x="147.412109"/>
      </g>
     </g>
    </g>
    <g id="xtick_2">
     <g id="line2d_2">
      <g>
       <use xlink:href="#m2b8ebafdd6" x="152.15554" y="203.038125" style="stroke: #000000; stroke-width: 0.8"/>
      </g>
     </g>
     <g id="text_2">
      <!-- −15 -->
      <g transform="translate(141.603196 217.636562) scale(0.1 -0.1)">
       <defs>
        <path id="DejaVuSans-31" d="M 794 531 
L 1825 531 
L 1825 4091 
L 703 3866 
L 703 4441 
L 1819 4666 
L 2450 4666 
L 2450 531 
L 3481 531 
L 3481 0 
L 794 0 
L 794 531 
z
" transform="scale(0.015625)"/>
        <path id="DejaVuSans-35" d="M 691 4666 
L 3169 4666 
L 3169 4134 
L 1269 4134 
L 1269 2991 
Q 1406 3038 1543 3061 
Q 1681 3084 1819 3084 
Q 2600 3084 3056 2656 
Q 3513 2228 3513 1497 
Q 3513 744 3044 326 
Q 2575 -91 1722 -91 
Q 1428 -91 1123 -41 
Q 819 9 494 109 
L 494 744 
Q 775 591 1075 516 
Q 1375 441 1709 441 
Q 2250 441 2565 725 
Q 2881 1009 2881 1497 
Q 2881 1984 2565 2268 
Q 2250 2553 1709 2553 
Q 1456 2553 1204 2497 
Q 953 2441 691 2322 
L 691 4666 
z
" transform="scale(0.015625)"/>
       </defs>
       <use xlink:href="#DejaVuSans-2212"/>
       <use xlink:href="#DejaVuSans-31" x="83.789062"/>
       <use xlink:href="#DejaVuSans-35" x="147.412109"/>
      </g>
     </g>
    </g>
    <g id="xtick_3">
     <g id="line2d_3">
      <g>
       <use xlink:href="#m2b8ebafdd6" x="215.564631" y="203.038125" style="stroke: #000000; stroke-width: 0.8"/>
      </g>
     </g>
     <g id="text_3">
      <!-- −10 -->
      <g transform="translate(205.012287 217.636562) scale(0.1 -0.1)">
       <use xlink:href="#DejaVuSans-2212"/>
       <use xlink:href="#DejaVuSans-31" x="83.789062"/>
       <use xlink:href="#DejaVuSans-30" x="147.412109"/>
      </g>
     </g>
    </g>
    <g id="xtick_4">
     <g id="line2d_4">
      <g>
       <use xlink:href="#m2b8ebafdd6" x="278.973722" y="203.038125" style="stroke: #000000; stroke-width: 0.8"/>
      </g>
     </g>
     <g id="text_4">
      <!-- −5 -->
      <g transform="translate(271.602628 217.636562) scale(0.1 -0.1)">
       <use xlink:href="#DejaVuSans-2212"/>
       <use xlink:href="#DejaVuSans-35" x="83.789062"/>
      </g>
     </g>
    </g>
    <g id="xtick_5">
     <g id="line2d_5">
      <g>
       <use xlink:href="#m2b8ebafdd6" x="342.382812" y="203.038125" style="stroke: #000000; stroke-width: 0.8"/>
      </g>
     </g>
     <g id="text_5">
      <!-- 0 -->
      <g transform="translate(339.201563 217.636562) scale(0.1 -0.1)">
       <use xlink:href="#DejaVuSans-30"/>
      </g>
     </g>
    </g>
    <g id="xtick_6">
     <g id="line2d_6">
      <g>
       <use xlink:href="#m2b8ebafdd6" x="405.791903" y="203.038125" style="stroke: #000000; stroke-width: 0.8"/>
      </g>
     </g>
     <g id="text_6">
      <!-- 5 -->
      <g transform="translate(402.610653 217.636562) scale(0.1 -0.1)">
       <use xlink:href="#DejaVuSans-35"/>
      </g>
     </g>
    </g>
    <g id="xtick_7">
     <g id="line2d_7">
      <g>
       <use xlink:href="#m2b8ebafdd6" x="469.200994" y="203.038125" style="stroke: #000000; stroke-width: 0.8"/>
      </g>
     </g>
     <g id="text_7">
      <!-- 10 -->
      <g transform="translate(462.838494 217.636562) scale(0.1 -0.1)">
       <use xlink:href="#DejaVuSans-31"/>
       <use xlink:href="#DejaVuSans-30" x="63.623047"/>
      </g>
     </g>
    </g>
    <g id="xtick_8">
     <g id="line2d_8">
      <g>
       <use xlink:href="#m2b8ebafdd6" x="532.610085" y="203.038125" style="stroke: #000000; stroke-width: 0.8"/>
      </g>
     </g>
     <g id="text_8">
      <!-- 15 -->
      <g transform="translate(526.247585 217.636562) scale(0.1 -0.1)">
       <use xlink:href="#DejaVuSans-31"/>
       <use xlink:href="#DejaVuSans-35" x="63.623047"/>
      </g>
     </g>
    </g>
    <g id="xtick_9">
     <g id="line2d_9">
      <g>
       <use xlink:href="#m2b8ebafdd6" x="596.019176" y="203.038125" style="stroke: #000000; stroke-width: 0.8"/>
      </g>
     </g>
     <g id="text_9">
      <!-- 20 -->
      <g transform="translate(589.656676 217.636562) scale(0.1 -0.1)">
       <use xlink:href="#DejaVuSans-32"/>
       <use xlink:href="#DejaVuSans-30" x="63.623047"/>
      </g>
     </g>
    </g>
    <g id="text_10">
     <!-- Time [ms] -->
     <g transform="translate(317.183594 231.314687) scale(0.1 -0.1)">
      <defs>
       <path id="DejaVuSans-54" d="M -19 4666 
L 3928 4666 
L 3928 4134 
L 2272 4134 
L 2272 0 
L 1638 0 
L 1638 4134 
L -19 4134 
L -19 4666 
z
" transform="scale(0.015625)"/>
       <path id="DejaVuSans-69" d="M 603 3500 
L 1178 3500 
L 1178 0 
L 603 0 
L 603 3500 
z
M 603 4863 
L 1178 4863 
L 1178 4134 
L 603 4134 
L 603 4863 
z
" transform="scale(0.015625)"/>
       <path id="DejaVuSans-6d" d="M 3328 2828 
Q 3544 3216 3844 3400 
Q 4144 3584 4550 3584 
Q 5097 3584 5394 3201 
Q 5691 2819 5691 2113 
L 5691 0 
L 5113 0 
L 5113 2094 
Q 5113 2597 4934 2840 
Q 4756 3084 4391 3084 
Q 3944 3084 3684 2787 
Q 3425 2491 3425 1978 
L 3425 0 
L 2847 0 
L 2847 2094 
Q 2847 2600 2669 2842 
Q 2491 3084 2119 3084 
Q 1678 3084 1418 2786 
Q 1159 2488 1159 1978 
L 1159 0 
L 581 0 
L 581 3500 
L 1159 3500 
L 1159 2956 
Q 1356 3278 1631 3431 
Q 1906 3584 2284 3584 
Q 2666 3584 2933 3390 
Q 3200 3197 3328 2828 
z
" transform="scale(0.015625)"/>
       <path id="DejaVuSans-65" d="M 3597 1894 
L 3597 1613 
L 953 1613 
Q 991 1019 1311 708 
Q 1631 397 2203 397 
Q 2534 397 2845 478 
Q 3156 559 3463 722 
L 3463 178 
Q 3153 47 2828 -22 
Q 2503 -91 2169 -91 
Q 1331 -91 842 396 
Q 353 884 353 1716 
Q 353 2575 817 3079 
Q 1281 3584 2069 3584 
Q 2775 3584 3186 3129 
Q 3597 2675 3597 1894 
z
M 3022 2063 
Q 3016 2534 2758 2815 
Q 2500 3097 2075 3097 
Q 1594 3097 1305 2825 
Q 1016 2553 972 2059 
L 3022 2063 
z
" transform="scale(0.015625)"/>
       <path id="DejaVuSans-20" transform="scale(0.015625)"/>
       <path id="DejaVuSans-5b" d="M 550 4863 
L 1875 4863 
L 1875 4416 
L 1125 4416 
L 1125 -397 
L 1875 -397 
L 1875 -844 
L 550 -844 
L 550 4863 
z
" transform="scale(0.015625)"/>
       <path id="DejaVuSans-73" d="M 2834 3397 
L 2834 2853 
Q 2591 2978 2328 3040 
Q 2066 3103 1784 3103 
Q 1356 3103 1142 2972 
Q 928 2841 928 2578 
Q 928 2378 1081 2264 
Q 1234 2150 1697 2047 
L 1894 2003 
Q 2506 1872 2764 1633 
Q 3022 1394 3022 966 
Q 3022 478 2636 193 
Q 2250 -91 1575 -91 
Q 1294 -91 989 -36 
Q 684 19 347 128 
L 347 722 
Q 666 556 975 473 
Q 1284 391 1588 391 
Q 1994 391 2212 530 
Q 2431 669 2431 922 
Q 2431 1156 2273 1281 
Q 2116 1406 1581 1522 
L 1381 1569 
Q 847 1681 609 1914 
Q 372 2147 372 2553 
Q 372 3047 722 3315 
Q 1072 3584 1716 3584 
Q 2034 3584 2315 3537 
Q 2597 3491 2834 3397 
z
" transform="scale(0.015625)"/>
       <path id="DejaVuSans-5d" d="M 1947 4863 
L 1947 -844 
L 622 -844 
L 622 -397 
L 1369 -397 
L 1369 4416 
L 622 4416 
L 622 4863 
L 1947 4863 
z
" transform="scale(0.015625)"/>
      </defs>
      <use xlink:href="#DejaVuSans-54"/>
      <use xlink:href="#DejaVuSans-69" x="57.958984"/>
      <use xlink:href="#DejaVuSans-6d" x="85.742188"/>
      <use xlink:href="#DejaVuSans-65" x="183.154297"/>
      <use xlink:href="#DejaVuSans-20" x="244.677734"/>
      <use xlink:href="#DejaVuSans-5b" x="276.464844"/>
      <use xlink:href="#DejaVuSans-6d" x="315.478516"/>
      <use xlink:href="#DejaVuSans-73" x="412.890625"/>
      <use xlink:href="#DejaVuSans-5d" x="464.990234"/>
     </g>
    </g>
   </g>
   <g id="matplotlib.axis_2">
    <g id="ytick_1">
     <g id="line2d_10">
      <defs>
       <path id="mfa50e5cf9b" d="M 0 0 
L -3.5 0 
" style="stroke: #000000; stroke-width: 0.8"/>
      </defs>
      <g>
       <use xlink:href="#mfa50e5cf9b" x="63.382812" y="180.662885" style="stroke: #000000; stroke-width: 0.8"/>
      </g>
     </g>
     <g id="text_11">
      <!-- −30 -->
      <g transform="translate(35.278125 184.462104) scale(0.1 -0.1)">
       <defs>
        <path id="DejaVuSans-33" d="M 2597 2516 
Q 3050 2419 3304 2112 
Q 3559 1806 3559 1356 
Q 3559 666 3084 287 
Q 2609 -91 1734 -91 
Q 1441 -91 1130 -33 
Q 819 25 488 141 
L 488 750 
Q 750 597 1062 519 
Q 1375 441 1716 441 
Q 2309 441 2620 675 
Q 2931 909 2931 1356 
Q 2931 1769 2642 2001 
Q 2353 2234 1838 2234 
L 1294 2234 
L 1294 2753 
L 1863 2753 
Q 2328 2753 2575 2939 
Q 2822 3125 2822 3475 
Q 2822 3834 2567 4026 
Q 2313 4219 1838 4219 
Q 1578 4219 1281 4162 
Q 984 4106 628 3988 
L 628 4550 
Q 988 4650 1302 4700 
Q 1616 4750 1894 4750 
Q 2613 4750 3031 4423 
Q 3450 4097 3450 3541 
Q 3450 3153 3228 2886 
Q 3006 2619 2597 2516 
z
" transform="scale(0.015625)"/>
       </defs>
       <use xlink:href="#DejaVuSans-2212"/>
       <use xlink:href="#DejaVuSans-33" x="83.789062"/>
       <use xlink:href="#DejaVuSans-30" x="147.412109"/>
      </g>
     </g>
    </g>
    <g id="ytick_2">
     <g id="line2d_11">
      <g>
       <use xlink:href="#mfa50e5cf9b" x="63.382812" y="151.697529" style="stroke: #000000; stroke-width: 0.8"/>
      </g>
     </g>
     <g id="text_12">
      <!-- −20 -->
      <g transform="translate(35.278125 155.496747) scale(0.1 -0.1)">
       <use xlink:href="#DejaVuSans-2212"/>
       <use xlink:href="#DejaVuSans-32" x="83.789062"/>
       <use xlink:href="#DejaVuSans-30" x="147.412109"/>
      </g>
     </g>
    </g>
    <g id="ytick_3">
     <g id="line2d_12">
      <g>
       <use xlink:href="#mfa50e5cf9b" x="63.382812" y="122.732172" style="stroke: #000000; stroke-width: 0.8"/>
      </g>
     </g>
     <g id="text_13">
      <!-- −10 -->
      <g transform="translate(35.278125 126.531391) scale(0.1 -0.1)">
       <use xlink:href="#DejaVuSans-2212"/>
       <use xlink:href="#DejaVuSans-31" x="83.789062"/>
       <use xlink:href="#DejaVuSans-30" x="147.412109"/>
      </g>
     </g>
    </g>
    <g id="ytick_4">
     <g id="line2d_13">
      <g>
       <use xlink:href="#mfa50e5cf9b" x="63.382812" y="93.766815" style="stroke: #000000; stroke-width: 0.8"/>
      </g>
     </g>
     <g id="text_14">
      <!-- 0 -->
      <g transform="translate(50.020313 97.566034) scale(0.1 -0.1)">
       <use xlink:href="#DejaVuSans-30"/>
      </g>
     </g>
    </g>
    <g id="ytick_5">
     <g id="line2d_14">
      <g>
       <use xlink:href="#mfa50e5cf9b" x="63.382812" y="64.801459" style="stroke: #000000; stroke-width: 0.8"/>
      </g>
     </g>
     <g id="text_15">
      <!-- 10 -->
      <g transform="translate(43.657812 68.600678) scale(0.1 -0.1)">
       <use xlink:href="#DejaVuSans-31"/>
       <use xlink:href="#DejaVuSans-30" x="63.623047"/>
      </g>
     </g>
    </g>
    <g id="text_16">
     <!-- Voltage [uV] -->
     <g transform="translate(29.198438 150.714063) rotate(-90) scale(0.1 -0.1)">
      <defs>
       <path id="DejaVuSans-56" d="M 1831 0 
L 50 4666 
L 709 4666 
L 2188 738 
L 3669 4666 
L 4325 4666 
L 2547 0 
L 1831 0 
z
" transform="scale(0.015625)"/>
       <path id="DejaVuSans-6f" d="M 1959 3097 
Q 1497 3097 1228 2736 
Q 959 2375 959 1747 
Q 959 1119 1226 758 
Q 1494 397 1959 397 
Q 2419 397 2687 759 
Q 2956 1122 2956 1747 
Q 2956 2369 2687 2733 
Q 2419 3097 1959 3097 
z
M 1959 3584 
Q 2709 3584 3137 3096 
Q 3566 2609 3566 1747 
Q 3566 888 3137 398 
Q 2709 -91 1959 -91 
Q 1206 -91 779 398 
Q 353 888 353 1747 
Q 353 2609 779 3096 
Q 1206 3584 1959 3584 
z
" transform="scale(0.015625)"/>
       <path id="DejaVuSans-6c" d="M 603 4863 
L 1178 4863 
L 1178 0 
L 603 0 
L 603 4863 
z
" transform="scale(0.015625)"/>
       <path id="DejaVuSans-74" d="M 1172 4494 
L 1172 3500 
L 2356 3500 
L 2356 3053 
L 1172 3053 
L 1172 1153 
Q 1172 725 1289 603 
Q 1406 481 1766 481 
L 2356 481 
L 2356 0 
L 1766 0 
Q 1100 0 847 248 
Q 594 497 594 1153 
L 594 3053 
L 172 3053 
L 172 3500 
L 594 3500 
L 594 4494 
L 1172 4494 
z
" transform="scale(0.015625)"/>
       <path id="DejaVuSans-61" d="M 2194 1759 
Q 1497 1759 1228 1600 
Q 959 1441 959 1056 
Q 959 750 1161 570 
Q 1363 391 1709 391 
Q 2188 391 2477 730 
Q 2766 1069 2766 1631 
L 2766 1759 
L 2194 1759 
z
M 3341 1997 
L 3341 0 
L 2766 0 
L 2766 531 
Q 2569 213 2275 61 
Q 1981 -91 1556 -91 
Q 1019 -91 701 211 
Q 384 513 384 1019 
Q 384 1609 779 1909 
Q 1175 2209 1959 2209 
L 2766 2209 
L 2766 2266 
Q 2766 2663 2505 2880 
Q 2244 3097 1772 3097 
Q 1472 3097 1187 3025 
Q 903 2953 641 2809 
L 641 3341 
Q 956 3463 1253 3523 
Q 1550 3584 1831 3584 
Q 2591 3584 2966 3190 
Q 3341 2797 3341 1997 
z
" transform="scale(0.015625)"/>
       <path id="DejaVuSans-67" d="M 2906 1791 
Q 2906 2416 2648 2759 
Q 2391 3103 1925 3103 
Q 1463 3103 1205 2759 
Q 947 2416 947 1791 
Q 947 1169 1205 825 
Q 1463 481 1925 481 
Q 2391 481 2648 825 
Q 2906 1169 2906 1791 
z
M 3481 434 
Q 3481 -459 3084 -895 
Q 2688 -1331 1869 -1331 
Q 1566 -1331 1297 -1286 
Q 1028 -1241 775 -1147 
L 775 -588 
Q 1028 -725 1275 -790 
Q 1522 -856 1778 -856 
Q 2344 -856 2625 -561 
Q 2906 -266 2906 331 
L 2906 616 
Q 2728 306 2450 153 
Q 2172 0 1784 0 
Q 1141 0 747 490 
Q 353 981 353 1791 
Q 353 2603 747 3093 
Q 1141 3584 1784 3584 
Q 2172 3584 2450 3431 
Q 2728 3278 2906 2969 
L 2906 3500 
L 3481 3500 
L 3481 434 
z
" transform="scale(0.015625)"/>
       <path id="DejaVuSans-75" d="M 544 1381 
L 544 3500 
L 1119 3500 
L 1119 1403 
Q 1119 906 1312 657 
Q 1506 409 1894 409 
Q 2359 409 2629 706 
Q 2900 1003 2900 1516 
L 2900 3500 
L 3475 3500 
L 3475 0 
L 2900 0 
L 2900 538 
Q 2691 219 2414 64 
Q 2138 -91 1772 -91 
Q 1169 -91 856 284 
Q 544 659 544 1381 
z
M 1991 3584 
L 1991 3584 
z
" transform="scale(0.015625)"/>
      </defs>
      <use xlink:href="#DejaVuSans-56"/>
      <use xlink:href="#DejaVuSans-6f" x="60.658203"/>
      <use xlink:href="#DejaVuSans-6c" x="121.839844"/>
      <use xlink:href="#DejaVuSans-74" x="149.623047"/>
      <use xlink:href="#DejaVuSans-61" x="188.832031"/>
      <use xlink:href="#DejaVuSans-67" x="250.111328"/>
      <use xlink:href="#DejaVuSans-65" x="313.587891"/>
      <use xlink:href="#DejaVuSans-20" x="375.111328"/>
      <use xlink:href="#DejaVuSans-5b" x="406.898438"/>
      <use xlink:href="#DejaVuSans-75" x="445.912109"/>
      <use xlink:href="#DejaVuSans-56" x="509.291016"/>
      <use xlink:href="#DejaVuSans-5d" x="577.699219"/>
     </g>
    </g>
   </g>
   <g id="line2d_15">
    <path d="M 88.746449 100.230206 
L 89.381333 82.158397 
L 90.016218 112.906871 
L 90.651102 109.171173 
L 91.285987 95.106282 
L 91.920871 90.985987 
L 92.555756 102.189214 
L 93.19064 107.821252 
L 93.825525 96.880965 
L 94.460409 117.893596 
L 95.095294 95.003384 
L 95.730179 98.051874 
L 96.365063 95.442159 
L 96.999948 96.302088 
L 97.634832 82.971704 
L 98.269717 90.602914 
L 98.904601 112.974554 
L 99.539486 94.493691 
L 100.17437 108.097432 
L 100.809255 97.795019 
L 101.444139 94.906103 
L 102.079024 94.289898 
L 102.713908 92.612342 
L 103.348793 91.890752 
L 103.983677 95.001092 
L 104.618562 97.386372 
L 105.253446 87.943334 
L 105.888331 88.761973 
L 106.523215 88.372366 
L 107.1581 109.521732 
L 107.792984 101.924501 
L 108.427869 89.072936 
L 109.062753 100.346552 
L 109.697638 104.805258 
L 110.332522 95.486043 
L 110.967407 99.116102 
L 111.602291 120.084615 
L 112.237176 95.740809 
L 112.87206 84.87544 
L 113.506945 96.391238 
L 114.141829 112.958919 
L 114.776714 108.431447 
L 115.411598 89.639785 
L 116.046483 74.836466 
L 116.681368 96.78106 
L 117.316252 109.155098 
L 117.951137 95.942503 
L 118.586021 102.951703 
L 119.220906 74.111381 
L 119.85579 73.732294 
L 120.490675 75.338033 
L 121.125559 97.162144 
L 122.395328 111.637693 
L 123.030213 112.005514 
L 123.665097 100.730106 
L 124.299982 94.977037 
L 124.934866 71.729464 
L 125.569751 77.38856 
L 126.204635 87.847342 
L 126.83952 105.018907 
L 127.474404 94.256381 
L 128.109289 77.912442 
L 128.744173 94.318153 
L 129.379058 84.753916 
L 130.013942 80.675523 
L 130.648827 97.297627 
L 131.283711 82.134835 
L 131.918596 90.672623 
L 132.55348 69.34318 
L 133.188365 80.65889 
L 133.823249 72.2725 
L 134.458134 72.290322 
L 135.093018 97.750281 
L 135.727903 101.659368 
L 136.362787 98.949198 
L 136.997672 100.369965 
L 137.632556 108.674478 
L 138.267441 87.588364 
L 138.902326 90.240258 
L 139.53721 70.642728 
L 140.172095 108.603741 
L 140.806979 96.992392 
L 141.441864 99.91387 
L 142.711633 85.019471 
L 143.346517 117.094869 
L 143.981402 117.516746 
L 144.616286 110.975725 
L 145.251171 106.972655 
L 145.886055 132.001927 
L 146.52094 106.996504 
L 147.155824 86.456385 
L 147.790709 83.104469 
L 148.425593 109.91918 
L 149.060478 94.59635 
L 149.695362 86.036151 
L 150.330247 96.866181 
L 150.965131 85.955289 
L 151.600016 67.353827 
L 152.2349 67.845813 
L 152.869785 75.012462 
L 153.504669 67.815086 
L 154.139554 74.141814 
L 154.774438 83.560536 
L 155.409323 84.561799 
L 156.044207 84.541515 
L 156.679092 83.726403 
L 157.313976 85.410633 
L 157.948861 103.869293 
L 158.583745 102.526122 
L 159.21863 94.747409 
L 159.853515 100.86166 
L 160.488399 110.029837 
L 161.123284 92.852812 
L 161.758168 99.440356 
L 162.393053 83.61009 
L 163.027937 99.102691 
L 163.662822 94.075529 
L 164.297706 99.374461 
L 164.932591 129.386857 
L 165.567475 108.115225 
L 166.20236 111.088834 
L 166.837244 116.242241 
L 167.472129 99.099647 
L 168.107013 94.914269 
L 168.741898 109.831139 
L 169.376782 90.42704 
L 170.011667 96.980583 
L 170.646551 94.872163 
L 171.281436 109.678906 
L 171.91632 94.713284 
L 173.186089 87.162843 
L 173.820974 89.587693 
L 174.455858 94.295199 
L 175.090743 81.556571 
L 175.725627 94.127865 
L 176.360512 72.925025 
L 176.995396 91.214447 
L 177.630281 96.423316 
L 178.265165 94.045055 
L 178.90005 76.354188 
L 180.169819 95.753769 
L 180.804704 85.85483 
L 181.439588 95.33547 
L 182.074473 96.820843 
L 182.709357 94.895024 
L 183.344242 103.858131 
L 183.979126 92.76626 
L 184.614011 93.948703 
L 185.248895 107.613341 
L 185.88378 90.794935 
L 186.518664 92.007051 
L 187.153549 83.65759 
L 187.788433 93.394292 
L 188.423318 65.203468 
L 189.058202 95.944745 
L 189.693087 100.41413 
L 190.327971 77.600965 
L 190.962856 83.140579 
L 191.59774 72.782858 
L 192.232625 88.542613 
L 192.867509 74.684839 
L 193.502394 90.100626 
L 194.137278 91.202479 
L 194.772163 122.278514 
L 195.407047 118.389046 
L 196.041932 100.909016 
L 196.676816 111.646732 
L 197.311701 92.055066 
L 197.946585 87.953069 
L 198.58147 89.476012 
L 199.216354 71.63108 
L 199.851239 71.680155 
L 200.486123 98.298816 
L 201.121008 103.596477 
L 201.755892 83.261976 
L 202.390777 66.591643 
L 203.025662 70.598205 
L 203.660546 65.711272 
L 204.295431 107.198475 
L 204.930315 115.63929 
L 205.5652 136.014291 
L 206.200084 125.446342 
L 206.834969 89.257101 
L 207.469853 128.466891 
L 208.104738 88.918983 
L 208.739622 91.379707 
L 209.374507 119.181455 
L 210.009391 109.633169 
L 210.644276 94.194057 
L 211.27916 109.786708 
L 211.914045 108.850042 
L 212.548929 91.828004 
L 213.183814 115.134163 
L 213.818698 103.199137 
L 214.453583 136.748361 
L 215.088467 118.495836 
L 215.723352 104.17873 
L 216.358236 85.784513 
L 216.993121 73.285524 
L 217.628005 92.654626 
L 218.26289 93.143727 
L 219.532659 72.191246 
L 220.167543 86.353542 
L 220.802428 70.253343 
L 221.437312 111.639281 
L 222.072197 94.648309 
L 222.707081 57.413652 
L 223.341966 71.383459 
L 223.976851 78.976756 
L 224.611735 69.951339 
L 225.24662 84.221265 
L 225.881504 84.736667 
L 226.516389 59.542267 
L 227.786158 79.445205 
L 228.421042 90.828449 
L 229.055927 115.075831 
L 229.690811 118.367523 
L 230.325696 91.271252 
L 230.96058 104.671415 
L 231.595465 88.769867 
L 232.230349 93.25767 
L 232.865234 116.023222 
L 233.500118 88.663009 
L 234.135003 98.461641 
L 235.404772 79.568262 
L 236.039656 79.084458 
L 236.674541 75.15486 
L 237.309425 102.922649 
L 237.94431 89.745949 
L 238.579194 101.40937 
L 239.214079 96.813305 
L 239.848963 106.722288 
L 240.483848 125.192811 
L 241.118732 117.141281 
L 241.753617 102.621876 
L 242.388501 84.064859 
L 243.023386 104.818943 
L 243.65827 100.104267 
L 244.293155 127.287831 
L 244.928039 104.249916 
L 245.562924 90.963571 
L 246.197809 84.078057 
L 246.832693 70.405331 
L 247.467578 98.901932 
L 248.102462 87.644438 
L 248.737347 88.286787 
L 249.372231 76.609453 
L 250.007116 75.379757 
L 250.642 85.337972 
L 251.276885 104.777187 
L 251.911769 81.112245 
L 252.546654 105.838817 
L 253.816423 85.298171 
L 254.451307 93.886511 
L 255.086192 70.790745 
L 255.721076 118.898303 
L 256.355961 98.441946 
L 256.990845 105.720942 
L 257.62573 107.820082 
L 258.260614 91.628475 
L 258.895499 83.143851 
L 259.530383 96.92396 
L 260.165268 75.304969 
L 260.800152 77.501465 
L 261.435037 100.756168 
L 262.069921 76.793357 
L 262.704806 93.490569 
L 263.33969 82.88074 
L 263.974575 105.543915 
L 264.609459 90.632494 
L 265.244344 51.123748 
L 265.879228 82.502971 
L 266.514113 82.218651 
L 267.148998 88.400636 
L 267.783882 103.981151 
L 268.418767 94.750352 
L 269.053651 101.194674 
L 269.688536 87.422959 
L 270.32342 67.101622 
L 270.958305 84.498253 
L 272.228074 51.542915 
L 272.862958 86.867225 
L 273.497843 63.717514 
L 274.767612 96.229354 
L 275.402496 134.826836 
L 276.037381 129.387866 
L 276.672265 142.66991 
L 277.30715 173.447661 
L 277.942034 173.717352 
L 278.576919 179.916329 
L 279.211803 138.645425 
L 279.846688 155.067875 
L 280.481572 121.553431 
L 281.116457 98.364639 
L 281.751341 83.439579 
L 282.386226 115.418093 
L 283.02111 122.585659 
L 284.290879 93.859465 
L 285.560648 76.944475 
L 286.195533 72.544176 
L 286.830417 74.147316 
L 287.465302 44.53676 
L 288.100186 77.600339 
L 288.735071 60.008547 
L 289.369956 49.483461 
L 290.00484 55.653758 
L 290.639725 79.04192 
L 291.274609 62.514674 
L 291.909494 61.768986 
L 292.544378 86.234166 
L 293.179263 80.669649 
L 293.814147 76.547103 
L 294.449032 57.773085 
L 295.083916 78.079577 
L 295.718801 75.525775 
L 296.353685 78.404752 
L 296.98857 91.559209 
L 297.623454 85.421683 
L 298.258339 83.284824 
L 298.893223 121.708033 
L 299.528108 126.967247 
L 300.162992 115.51095 
L 300.797877 96.669705 
L 301.432761 112.559801 
L 302.067646 134.747263 
L 302.70253 99.282549 
L 303.337415 114.12599 
L 303.972299 90.361275 
L 304.607184 89.025853 
L 305.242068 81.29132 
L 305.876953 79.761412 
L 306.511837 87.351558 
L 307.146722 89.692316 
L 307.781606 132.299852 
L 308.416491 108.621276 
L 309.051375 90.213491 
L 309.68626 67.615244 
L 310.321145 87.074786 
L 310.956029 92.048213 
L 311.590914 68.682123 
L 312.225798 96.052727 
L 312.860683 62.169982 
L 313.495567 71.703224 
L 314.130452 90.161063 
L 315.400221 97.338222 
L 316.035105 87.518959 
L 316.66999 111.977672 
L 317.304874 97.133097 
L 317.939759 96.828392 
L 318.574643 105.415679 
L 319.209528 85.79643 
L 319.844412 111.233257 
L 320.479297 116.731114 
L 321.114181 98.211187 
L 321.749066 122.978464 
L 322.38395 121.153157 
L 323.018835 96.612786 
L 323.653719 86.327043 
L 324.288604 101.99056 
L 324.923488 71.720949 
L 325.558373 70.719898 
L 326.193257 100.546552 
L 326.828142 103.845166 
L 327.463026 100.001962 
L 328.097911 100.763599 
L 328.732795 111.944432 
L 329.36768 134.275628 
L 330.002564 122.871832 
L 330.637449 95.881355 
L 331.272333 111.926647 
L 331.907218 104.720023 
L 332.542103 106.807357 
L 333.176987 93.559746 
L 333.811872 88.308878 
L 334.446756 66.92515 
L 335.716525 105.049803 
L 336.35141 110.467099 
L 336.986294 97.838589 
L 337.621179 77.033527 
L 338.256063 85.448333 
L 338.890948 73.533623 
L 339.525832 66.802789 
L 340.160717 82.975021 
L 340.795601 88.826849 
L 341.430486 60.704996 
L 342.06537 74.733737 
L 342.700255 59.80739 
L 343.335139 80.450847 
L 343.970024 63.917641 
L 344.604908 52.874656 
L 345.239793 57.258063 
L 345.874677 65.973666 
L 346.509562 92.407427 
L 347.144446 65.498734 
L 347.779331 80.739058 
L 348.414215 66.11756 
L 349.0491 65.221592 
L 349.683984 63.307723 
L 350.318869 58.875985 
L 350.953753 73.45811 
L 351.588638 62.287378 
L 352.223522 85.853909 
L 352.858407 99.757325 
L 353.493292 98.821355 
L 354.128176 139.664214 
L 354.763061 168.866648 
L 355.397945 183.703544 
L 356.03283 195.478125 
L 357.302599 174.166464 
L 357.937483 138.41507 
L 358.572368 113.998975 
L 359.207252 120.778712 
L 359.842137 83.351006 
L 360.477021 83.467996 
L 361.111906 86.210858 
L 361.74679 80.096002 
L 362.381675 87.030669 
L 363.016559 99.315016 
L 363.651444 84.148462 
L 364.286328 86.286857 
L 364.921213 96.790391 
L 365.556097 89.545357 
L 366.190982 119.312054 
L 366.825866 90.428429 
L 367.460751 90.125247 
L 368.095635 91.197824 
L 368.73052 124.966738 
L 369.365404 104.308541 
L 370.000289 96.107465 
L 370.635173 97.614633 
L 371.270058 74.05561 
L 371.904942 91.506795 
L 372.539827 76.224559 
L 373.174711 108.628713 
L 373.809596 88.974943 
L 374.44448 59.207473 
L 375.079365 94.733733 
L 375.71425 95.760242 
L 376.349134 86.11621 
L 376.984019 87.807981 
L 377.618903 76.658497 
L 378.253788 96.326596 
L 378.888672 80.48702 
L 379.523557 104.323218 
L 380.158441 80.690116 
L 380.793326 63.71798 
L 381.42821 74.499912 
L 382.063095 77.225566 
L 383.332864 66.251563 
L 383.967748 85.01058 
L 384.602633 54.448384 
L 385.237517 92.230263 
L 385.872402 74.530793 
L 386.507286 74.637087 
L 387.777055 84.765875 
L 388.41194 112.039273 
L 389.046824 80.244299 
L 389.681709 79.799386 
L 390.316593 92.68447 
L 390.951478 90.800945 
L 391.586362 98.343506 
L 392.221247 98.768278 
L 392.856131 75.737395 
L 393.491016 98.660264 
L 394.1259 134.986719 
L 394.760785 115.937213 
L 395.395669 103.235728 
L 396.030554 126.355326 
L 396.665439 127.88447 
L 397.300323 113.013506 
L 397.935208 108.375571 
L 398.570092 93.464207 
L 399.204977 91.006719 
L 399.839861 106.157243 
L 400.474746 114.733982 
L 401.10963 105.381523 
L 401.744515 101.597214 
L 402.379399 100.210205 
L 403.014284 88.864894 
L 403.649168 65.821237 
L 404.284053 69.756109 
L 404.918937 63.802312 
L 405.553822 44.278125 
L 406.188706 74.959026 
L 406.823591 53.685089 
L 407.458475 53.533788 
L 408.09336 61.303103 
L 408.728244 72.364704 
L 409.363129 63.798463 
L 409.998013 85.663846 
L 410.632898 134.661632 
L 411.267782 124.454936 
L 411.902667 122.015925 
L 412.537551 100.023826 
L 413.172436 141.699802 
L 413.80732 136.04168 
L 414.442205 97.161723 
L 415.077089 105.973755 
L 415.711974 91.78436 
L 416.346858 104.137742 
L 416.981743 125.57915 
L 417.616627 129.962028 
L 418.251512 131.337768 
L 418.886397 133.170496 
L 419.521281 124.875212 
L 420.156166 120.535092 
L 421.425935 96.005549 
L 422.060819 108.011831 
L 422.695704 101.943352 
L 423.330588 113.388533 
L 423.965473 95.4267 
L 424.600357 71.449007 
L 425.235242 93.974293 
L 425.870126 70.833992 
L 426.505011 76.697843 
L 427.139895 118.848472 
L 428.409664 83.285707 
L 429.044549 80.565669 
L 429.679433 88.933681 
L 430.314318 75.185216 
L 430.949202 48.773091 
L 431.584087 82.263509 
L 432.218971 94.378056 
L 432.853856 80.341823 
L 433.48874 82.82789 
L 434.123625 80.714507 
L 434.758509 63.252999 
L 435.393394 85.632472 
L 436.028278 90.44242 
L 436.663163 71.359634 
L 437.298047 79.682458 
L 437.932932 74.593682 
L 438.567816 63.748685 
L 439.202701 62.559775 
L 439.837586 61.863882 
L 440.47247 62.357231 
L 441.742239 93.746161 
L 442.377124 96.934205 
L 443.012008 100.80406 
L 443.646893 97.217396 
L 444.281777 92.002273 
L 444.916662 93.556868 
L 445.551546 93.890517 
L 446.186431 113.081719 
L 446.821315 109.300122 
L 447.4562 85.203429 
L 448.091084 103.222788 
L 448.725969 95.787205 
L 449.360853 96.005343 
L 449.995738 97.396829 
L 450.630622 71.284141 
L 451.265507 110.93388 
L 451.900391 121.148311 
L 452.535276 92.900081 
L 453.17016 94.820779 
L 453.805045 134.215046 
L 454.439929 142.582109 
L 455.074814 129.796844 
L 455.709698 105.755942 
L 456.344583 102.210707 
L 456.979467 128.408556 
L 457.614352 102.265715 
L 458.249236 103.249857 
L 458.884121 87.018447 
L 459.519005 61.922853 
L 460.15389 77.926084 
L 460.788774 98.752631 
L 461.423659 111.14018 
L 462.058544 114.883634 
L 462.693428 109.289228 
L 463.328313 72.452745 
L 463.963197 74.647621 
L 464.598082 94.563826 
L 465.232966 74.450856 
L 465.867851 93.632047 
L 466.502735 82.746772 
L 467.13762 87.11936 
L 468.407389 103.776153 
L 469.042273 95.037984 
L 469.677158 80.285929 
L 470.312042 113.232538 
L 470.946927 92.853286 
L 471.581811 108.993207 
L 472.216696 78.188958 
L 472.85158 78.367695 
L 473.486465 115.359138 
L 474.121349 95.896348 
L 474.756234 96.487207 
L 475.391118 83.606768 
L 476.026003 73.548222 
L 476.660887 86.089884 
L 477.930656 105.008977 
L 478.565541 104.76537 
L 479.200425 102.489879 
L 480.470194 92.059817 
L 481.105079 87.679959 
L 481.739963 80.473499 
L 482.374848 107.854929 
L 483.009733 85.79061 
L 483.644617 88.995711 
L 484.279502 102.922633 
L 484.914386 107.342595 
L 485.549271 100.240526 
L 486.184155 67.992736 
L 486.81904 90.735548 
L 487.453924 88.988408 
L 488.088809 92.474949 
L 488.723693 72.620209 
L 489.358578 80.024833 
L 489.993462 99.109278 
L 490.628347 79.343909 
L 491.263231 99.56877 
L 491.898116 83.630906 
L 492.533 85.881517 
L 493.167885 101.903747 
L 493.802769 75.011721 
L 494.437654 82.747538 
L 495.072538 85.618248 
L 495.707423 91.666857 
L 496.342307 77.6197 
L 496.977192 94.758478 
L 497.612076 106.388536 
L 498.246961 84.672037 
L 498.881845 103.592341 
L 499.51673 108.85889 
L 500.151614 127.967744 
L 500.786499 95.048261 
L 501.421383 108.884884 
L 502.056268 95.818319 
L 502.691152 92.611983 
L 503.326037 110.67144 
L 503.960921 83.608078 
L 504.595806 88.847045 
L 505.230691 93.110531 
L 506.50046 70.237545 
L 507.770229 92.341578 
L 508.405113 132.064296 
L 509.039998 94.463769 
L 509.674882 99.015494 
L 510.309767 85.663644 
L 510.944651 80.823117 
L 511.579536 116.819183 
L 512.21442 80.8398 
L 512.849305 103.825632 
L 513.484189 105.237663 
L 514.119074 86.839923 
L 514.753958 105.402897 
L 515.388843 99.238361 
L 516.023727 80.169169 
L 517.293496 88.242724 
L 517.928381 67.791462 
L 518.563265 70.283092 
L 519.19815 85.607223 
L 520.467919 99.105639 
L 521.102803 114.859972 
L 522.372572 87.544243 
L 523.007457 85.043741 
L 523.642341 69.131149 
L 524.277226 86.891074 
L 524.91211 79.39939 
L 525.546995 82.79012 
L 526.18188 68.109766 
L 526.816764 84.570553 
L 527.451649 97.442704 
L 528.086533 98.394346 
L 528.721418 84.432781 
L 529.356302 93.132485 
L 529.991187 131.946851 
L 530.626071 116.728197 
L 531.260956 120.305545 
L 531.89584 137.490712 
L 532.530725 141.624383 
L 533.165609 134.473896 
L 533.800494 155.265452 
L 535.070263 98.54046 
L 535.705147 109.524727 
L 536.340032 112.076181 
L 536.974916 106.786259 
L 537.609801 120.153277 
L 538.244685 71.205974 
L 538.87957 65.113006 
L 539.514454 84.142813 
L 540.149339 52.524228 
L 540.784223 91.962914 
L 541.419108 70.476192 
L 542.053992 71.523929 
L 542.688877 103.116156 
L 543.323761 85.52465 
L 543.958646 72.472492 
L 544.59353 67.310519 
L 545.228415 84.149306 
L 545.863299 95.382468 
L 546.498184 70.355059 
L 547.133069 60.716824 
L 547.767953 84.740601 
L 548.402838 89.819277 
L 549.037722 83.246911 
L 549.672607 96.254957 
L 550.307491 77.736753 
L 550.942376 67.579857 
L 551.57726 77.251996 
L 552.847029 117.381651 
L 553.481914 97.436777 
L 554.116798 101.541835 
L 554.751683 110.763931 
L 555.386567 95.246057 
L 556.021452 98.550012 
L 556.656336 115.424845 
L 557.291221 95.262759 
L 558.56099 111.656233 
L 559.195874 116.497073 
L 559.830759 124.037072 
L 561.100528 87.250839 
L 561.735412 97.739799 
L 562.370297 90.568404 
L 563.005181 62.354505 
L 563.640066 84.870964 
L 564.27495 78.142107 
L 564.909835 80.334302 
L 565.544719 77.325767 
L 566.179604 84.861479 
L 566.814488 87.598556 
L 567.449373 89.400479 
L 568.084257 111.811115 
L 568.719142 95.626508 
L 569.988911 80.363819 
L 570.623796 102.766041 
L 571.25868 118.720345 
L 571.893565 98.370665 
L 572.528449 88.119025 
L 573.163334 90.518588 
L 573.798218 90.219368 
L 574.433103 81.497688 
L 575.067987 84.909401 
L 575.702872 74.728585 
L 576.337756 68.224632 
L 576.972641 65.162711 
L 577.607525 84.774726 
L 578.24241 83.901863 
L 578.877294 74.678455 
L 579.512179 90.877874 
L 580.147063 76.339895 
L 580.781948 82.728951 
L 582.686601 116.102734 
L 583.321486 133.508 
L 583.95637 123.186496 
L 584.591255 107.709176 
L 585.226139 125.739681 
L 585.861024 103.49656 
L 586.495908 89.350836 
L 587.130793 119.154291 
L 587.765677 95.401069 
L 588.400562 76.14466 
L 589.035446 71.077582 
L 589.670331 102.08617 
L 590.305216 101.153916 
L 590.9401 74.945151 
L 591.574985 110.551573 
L 592.209869 103.144929 
L 592.844754 90.261001 
L 593.479638 82.751343 
L 594.114523 104.113484 
L 594.749407 96.807053 
L 595.384292 106.906774 
L 596.019176 80.953922 
L 596.019176 80.953922 
" clip-path="url(#p3a1abbf476)" style="fill: none; stroke: #1f77b4; stroke-width: 1.5; stroke-linecap: square"/>
   </g>
   <g id="line2d_16">
    <path d="M 342.700255 59.80739 
L 343.335139 80.450847 
L 343.970024 63.917641 
L 344.604908 52.874656 
L 345.239793 57.258063 
L 345.874677 65.973666 
L 346.509562 92.407427 
L 347.144446 65.498734 
L 347.779331 80.739058 
L 348.414215 66.11756 
L 349.0491 65.221592 
L 349.683984 63.307723 
L 350.318869 58.875985 
L 350.953753 73.45811 
L 351.588638 62.287378 
L 352.223522 85.853909 
L 352.858407 99.757325 
L 353.493292 98.821355 
L 354.128176 139.664214 
L 354.763061 168.866648 
L 355.397945 183.703544 
L 356.03283 195.478125 
L 356.667714 184.422246 
L 357.302599 174.166464 
L 357.937483 138.41507 
L 358.572368 113.998975 
L 359.207252 120.778712 
L 359.842137 83.351006 
L 360.477021 83.467996 
L 361.111906 86.210858 
L 361.74679 80.096002 
L 362.381675 87.030669 
L 363.016559 99.315016 
L 363.651444 84.148462 
L 364.286328 86.286857 
L 364.921213 96.790391 
L 365.556097 89.545357 
L 366.190982 119.312054 
L 366.825866 90.428429 
L 367.460751 90.125247 
" clip-path="url(#p3a1abbf476)" style="fill: none; stroke: #ff0000; stroke-width: 1.5; stroke-linecap: square"/>
   </g>
   <g id="patch_3">
    <path d="M 63.382812 203.038125 
L 63.382812 36.718125 
" style="fill: none; stroke: #000000; stroke-width: 0.8; stroke-linejoin: miter; stroke-linecap: square"/>
   </g>
   <g id="patch_4">
    <path d="M 621.382812 203.038125 
L 621.382812 36.718125 
" style="fill: none; stroke: #000000; stroke-width: 0.8; stroke-linejoin: miter; stroke-linecap: square"/>
   </g>
   <g id="patch_5">
    <path d="M 63.382812 203.038125 
L 621.382812 203.038125 
" style="fill: none; stroke: #000000; stroke-width: 0.8; stroke-linejoin: miter; stroke-linecap: square"/>
   </g>
   <g id="patch_6">
    <path d="M 63.382812 36.718125 
L 621.382812 36.718125 
" style="fill: none; stroke: #000000; stroke-width: 0.8; stroke-linejoin: miter; stroke-linecap: square"/>
   </g>
   <g id="text_17">
    <!-- Channel:12, Time stamp : 1622233 -->
    <g transform="translate(236.327188 30.718125) scale(0.12 -0.12)">
     <defs>
      <path id="DejaVuSans-43" d="M 4122 4306 
L 4122 3641 
Q 3803 3938 3442 4084 
Q 3081 4231 2675 4231 
Q 1875 4231 1450 3742 
Q 1025 3253 1025 2328 
Q 1025 1406 1450 917 
Q 1875 428 2675 428 
Q 3081 428 3442 575 
Q 3803 722 4122 1019 
L 4122 359 
Q 3791 134 3420 21 
Q 3050 -91 2638 -91 
Q 1578 -91 968 557 
Q 359 1206 359 2328 
Q 359 3453 968 4101 
Q 1578 4750 2638 4750 
Q 3056 4750 3426 4639 
Q 3797 4528 4122 4306 
z
" transform="scale(0.015625)"/>
      <path id="DejaVuSans-68" d="M 3513 2113 
L 3513 0 
L 2938 0 
L 2938 2094 
Q 2938 2591 2744 2837 
Q 2550 3084 2163 3084 
Q 1697 3084 1428 2787 
Q 1159 2491 1159 1978 
L 1159 0 
L 581 0 
L 581 4863 
L 1159 4863 
L 1159 2956 
Q 1366 3272 1645 3428 
Q 1925 3584 2291 3584 
Q 2894 3584 3203 3211 
Q 3513 2838 3513 2113 
z
" transform="scale(0.015625)"/>
      <path id="DejaVuSans-6e" d="M 3513 2113 
L 3513 0 
L 2938 0 
L 2938 2094 
Q 2938 2591 2744 2837 
Q 2550 3084 2163 3084 
Q 1697 3084 1428 2787 
Q 1159 2491 1159 1978 
L 1159 0 
L 581 0 
L 581 3500 
L 1159 3500 
L 1159 2956 
Q 1366 3272 1645 3428 
Q 1925 3584 2291 3584 
Q 2894 3584 3203 3211 
Q 3513 2838 3513 2113 
z
" transform="scale(0.015625)"/>
      <path id="DejaVuSans-3a" d="M 750 794 
L 1409 794 
L 1409 0 
L 750 0 
L 750 794 
z
M 750 3309 
L 1409 3309 
L 1409 2516 
L 750 2516 
L 750 3309 
z
" transform="scale(0.015625)"/>
      <path id="DejaVuSans-2c" d="M 750 794 
L 1409 794 
L 1409 256 
L 897 -744 
L 494 -744 
L 750 256 
L 750 794 
z
" transform="scale(0.015625)"/>
      <path id="DejaVuSans-70" d="M 1159 525 
L 1159 -1331 
L 581 -1331 
L 581 3500 
L 1159 3500 
L 1159 2969 
Q 1341 3281 1617 3432 
Q 1894 3584 2278 3584 
Q 2916 3584 3314 3078 
Q 3713 2572 3713 1747 
Q 3713 922 3314 415 
Q 2916 -91 2278 -91 
Q 1894 -91 1617 61 
Q 1341 213 1159 525 
z
M 3116 1747 
Q 3116 2381 2855 2742 
Q 2594 3103 2138 3103 
Q 1681 3103 1420 2742 
Q 1159 2381 1159 1747 
Q 1159 1113 1420 752 
Q 1681 391 2138 391 
Q 2594 391 2855 752 
Q 3116 1113 3116 1747 
z
" transform="scale(0.015625)"/>
      <path id="DejaVuSans-36" d="M 2113 2584 
Q 1688 2584 1439 2293 
Q 1191 2003 1191 1497 
Q 1191 994 1439 701 
Q 1688 409 2113 409 
Q 2538 409 2786 701 
Q 3034 994 3034 1497 
Q 3034 2003 2786 2293 
Q 2538 2584 2113 2584 
z
M 3366 4563 
L 3366 3988 
Q 3128 4100 2886 4159 
Q 2644 4219 2406 4219 
Q 1781 4219 1451 3797 
Q 1122 3375 1075 2522 
Q 1259 2794 1537 2939 
Q 1816 3084 2150 3084 
Q 2853 3084 3261 2657 
Q 3669 2231 3669 1497 
Q 3669 778 3244 343 
Q 2819 -91 2113 -91 
Q 1303 -91 875 529 
Q 447 1150 447 2328 
Q 447 3434 972 4092 
Q 1497 4750 2381 4750 
Q 2619 4750 2861 4703 
Q 3103 4656 3366 4563 
z
" transform="scale(0.015625)"/>
     </defs>
     <use xlink:href="#DejaVuSans-43"/>
     <use xlink:href="#DejaVuSans-68" x="69.824219"/>
     <use xlink:href="#DejaVuSans-61" x="133.203125"/>
     <use xlink:href="#DejaVuSans-6e" x="194.482422"/>
     <use xlink:href="#DejaVuSans-6e" x="257.861328"/>
     <use xlink:href="#DejaVuSans-65" x="321.240234"/>
     <use xlink:href="#DejaVuSans-6c" x="382.763672"/>
     <use xlink:href="#DejaVuSans-3a" x="410.546875"/>
     <use xlink:href="#DejaVuSans-31" x="444.238281"/>
     <use xlink:href="#DejaVuSans-32" x="507.861328"/>
     <use xlink:href="#DejaVuSans-2c" x="571.484375"/>
     <use xlink:href="#DejaVuSans-20" x="603.271484"/>
     <use xlink:href="#DejaVuSans-54" x="635.058594"/>
     <use xlink:href="#DejaVuSans-69" x="693.017578"/>
     <use xlink:href="#DejaVuSans-6d" x="720.800781"/>
     <use xlink:href="#DejaVuSans-65" x="818.212891"/>
     <use xlink:href="#DejaVuSans-20" x="879.736328"/>
     <use xlink:href="#DejaVuSans-73" x="911.523438"/>
     <use xlink:href="#DejaVuSans-74" x="963.623047"/>
     <use xlink:href="#DejaVuSans-61" x="1002.832031"/>
     <use xlink:href="#DejaVuSans-6d" x="1064.111328"/>
     <use xlink:href="#DejaVuSans-70" x="1161.523438"/>
     <use xlink:href="#DejaVuSans-20" x="1225"/>
     <use xlink:href="#DejaVuSans-3a" x="1256.787109"/>
     <use xlink:href="#DejaVuSans-20" x="1290.478516"/>
     <use xlink:href="#DejaVuSans-31" x="1322.265625"/>
     <use xlink:href="#DejaVuSans-36" x="1385.888672"/>
     <use xlink:href="#DejaVuSans-32" x="1449.511719"/>
     <use xlink:href="#DejaVuSans-32" x="1513.134766"/>
     <use xlink:href="#DejaVuSans-32" x="1576.757812"/>
     <use xlink:href="#DejaVuSans-33" x="1640.380859"/>
     <use xlink:href="#DejaVuSans-33" x="1704.003906"/>
    </g>
   </g>
  </g>
 </g>
 <defs>
  <clipPath id="p3a1abbf476">
   <rect x="63.382812" y="36.718125" width="558" height="166.32"/>
  </clipPath>
 </defs>
</svg>
