<?xml version="1.0" encoding="utf-8" standalone="no"?>
<!DOCTYPE svg PUBLIC "-//W3C//DTD SVG 1.1//EN"
  "http://www.w3.org/Graphics/SVG/1.1/DTD/svg11.dtd">
<svg xmlns:xlink="http://www.w3.org/1999/xlink" width="642.982813pt" height="254.994375pt" viewBox="0 0 642.982813 254.994375" xmlns="http://www.w3.org/2000/svg" version="1.1">
 <metadata>
  <rdf:RDF xmlns:dc="http://purl.org/dc/elements/1.1/" xmlns:cc="http://creativecommons.org/ns#" xmlns:rdf="http://www.w3.org/1999/02/22-rdf-syntax-ns#">
   <cc:Work>
    <dc:type rdf:resource="http://purl.org/dc/dcmitype/StillImage"/>
    <dc:date>2024-02-26T10:41:44.271667</dc:date>
    <dc:format>image/svg+xml</dc:format>
    <dc:creator>
     <cc:Agent>
      <dc:title>Matplotlib v3.7.1, https://matplotlib.org/</dc:title>
     </cc:Agent>
    </dc:creator>
   </cc:Work>
  </rdf:RDF>
 </metadata>
 <defs>
  <style type="text/css">*{stroke-linejoin: round; stroke-linecap: butt}</style>
 </defs>
 <g id="figure_1">
  <g id="patch_1">
   <path d="M 0 254.994375 
L 642.982813 254.994375 
L 642.982813 -0 
L 0 -0 
z
" style="fill: #ffffff"/>
  </g>
  <g id="axes_1">
   <g id="patch_2">
    <path d="M 63.382812 203.038125 
L 621.382812 203.038125 
L 621.382812 36.718125 
L 63.382812 36.718125 
z
" style="fill: #ffffff"/>
   </g>
   <g id="matplotlib.axis_1">
    <g id="xtick_1">
     <g id="line2d_1">
      <defs>
       <path id="m0dfa0e0a89" d="M 0 0 
L 0 3.5 
" style="stroke: #000000; stroke-width: 0.8"/>
      </defs>
      <g>
       <use xlink:href="#m0dfa0e0a89" x="88.746449" y="203.038125" style="stroke: #000000; stroke-width: 0.8"/>
      </g>
     </g>
     <g id="text_1">
      <!-- −20 -->
      <g transform="translate(78.194105 217.636562) scale(0.1 -0.1)">
       <defs>
        <path id="DejaVuSans-2212" d="M 678 2272 
L 4684 2272 
L 4684 1741 
L 678 1741 
L 678 2272 
z
" transform="scale(0.015625)"/>
        <path id="DejaVuSans-32" d="M 1228 531 
L 3431 531 
L 3431 0 
L 469 0 
L 469 531 
Q 828 903 1448 1529 
Q 2069 2156 2228 2338 
Q 2531 2678 2651 2914 
Q 2772 3150 2772 3378 
Q 2772 3750 2511 3984 
Q 2250 4219 1831 4219 
Q 1534 4219 1204 4116 
Q 875 4013 500 3803 
L 500 4441 
Q 881 4594 1212 4672 
Q 1544 4750 1819 4750 
Q 2544 4750 2975 4387 
Q 3406 4025 3406 3419 
Q 3406 3131 3298 2873 
Q 3191 2616 2906 2266 
Q 2828 2175 2409 1742 
Q 1991 1309 1228 531 
z
" transform="scale(0.015625)"/>
        <path id="DejaVuSans-30" d="M 2034 4250 
Q 1547 4250 1301 3770 
Q 1056 3291 1056 2328 
Q 1056 1369 1301 889 
Q 1547 409 2034 409 
Q 2525 409 2770 889 
Q 3016 1369 3016 2328 
Q 3016 3291 2770 3770 
Q 2525 4250 2034 4250 
z
M 2034 4750 
Q 2819 4750 3233 4129 
Q 3647 3509 3647 2328 
Q 3647 1150 3233 529 
Q 2819 -91 2034 -91 
Q 1250 -91 836 529 
Q 422 1150 422 2328 
Q 422 3509 836 4129 
Q 1250 4750 2034 4750 
z
" transform="scale(0.015625)"/>
       </defs>
       <use xlink:href="#DejaVuSans-2212"/>
       <use xlink:href="#DejaVuSans-32" x="83.789062"/>
       <use xlink:href="#DejaVuSans-30" x="147.412109"/>
      </g>
     </g>
    </g>
    <g id="xtick_2">
     <g id="line2d_2">
      <g>
       <use xlink:href="#m0dfa0e0a89" x="152.15554" y="203.038125" style="stroke: #000000; stroke-width: 0.8"/>
      </g>
     </g>
     <g id="text_2">
      <!-- −15 -->
      <g transform="translate(141.603196 217.636562) scale(0.1 -0.1)">
       <defs>
        <path id="DejaVuSans-31" d="M 794 531 
L 1825 531 
L 1825 4091 
L 703 3866 
L 703 4441 
L 1819 4666 
L 2450 4666 
L 2450 531 
L 3481 531 
L 3481 0 
L 794 0 
L 794 531 
z
" transform="scale(0.015625)"/>
        <path id="DejaVuSans-35" d="M 691 4666 
L 3169 4666 
L 3169 4134 
L 1269 4134 
L 1269 2991 
Q 1406 3038 1543 3061 
Q 1681 3084 1819 3084 
Q 2600 3084 3056 2656 
Q 3513 2228 3513 1497 
Q 3513 744 3044 326 
Q 2575 -91 1722 -91 
Q 1428 -91 1123 -41 
Q 819 9 494 109 
L 494 744 
Q 775 591 1075 516 
Q 1375 441 1709 441 
Q 2250 441 2565 725 
Q 2881 1009 2881 1497 
Q 2881 1984 2565 2268 
Q 2250 2553 1709 2553 
Q 1456 2553 1204 2497 
Q 953 2441 691 2322 
L 691 4666 
z
" transform="scale(0.015625)"/>
       </defs>
       <use xlink:href="#DejaVuSans-2212"/>
       <use xlink:href="#DejaVuSans-31" x="83.789062"/>
       <use xlink:href="#DejaVuSans-35" x="147.412109"/>
      </g>
     </g>
    </g>
    <g id="xtick_3">
     <g id="line2d_3">
      <g>
       <use xlink:href="#m0dfa0e0a89" x="215.564631" y="203.038125" style="stroke: #000000; stroke-width: 0.8"/>
      </g>
     </g>
     <g id="text_3">
      <!-- −10 -->
      <g transform="translate(205.012287 217.636562) scale(0.1 -0.1)">
       <use xlink:href="#DejaVuSans-2212"/>
       <use xlink:href="#DejaVuSans-31" x="83.789062"/>
       <use xlink:href="#DejaVuSans-30" x="147.412109"/>
      </g>
     </g>
    </g>
    <g id="xtick_4">
     <g id="line2d_4">
      <g>
       <use xlink:href="#m0dfa0e0a89" x="278.973722" y="203.038125" style="stroke: #000000; stroke-width: 0.8"/>
      </g>
     </g>
     <g id="text_4">
      <!-- −5 -->
      <g transform="translate(271.602628 217.636562) scale(0.1 -0.1)">
       <use xlink:href="#DejaVuSans-2212"/>
       <use xlink:href="#DejaVuSans-35" x="83.789062"/>
      </g>
     </g>
    </g>
    <g id="xtick_5">
     <g id="line2d_5">
      <g>
       <use xlink:href="#m0dfa0e0a89" x="342.382812" y="203.038125" style="stroke: #000000; stroke-width: 0.8"/>
      </g>
     </g>
     <g id="text_5">
      <!-- 0 -->
      <g transform="translate(339.201563 217.636562) scale(0.1 -0.1)">
       <use xlink:href="#DejaVuSans-30"/>
      </g>
     </g>
    </g>
    <g id="xtick_6">
     <g id="line2d_6">
      <g>
       <use xlink:href="#m0dfa0e0a89" x="405.791903" y="203.038125" style="stroke: #000000; stroke-width: 0.8"/>
      </g>
     </g>
     <g id="text_6">
      <!-- 5 -->
      <g transform="translate(402.610653 217.636562) scale(0.1 -0.1)">
       <use xlink:href="#DejaVuSans-35"/>
      </g>
     </g>
    </g>
    <g id="xtick_7">
     <g id="line2d_7">
      <g>
       <use xlink:href="#m0dfa0e0a89" x="469.200994" y="203.038125" style="stroke: #000000; stroke-width: 0.8"/>
      </g>
     </g>
     <g id="text_7">
      <!-- 10 -->
      <g transform="translate(462.838494 217.636562) scale(0.1 -0.1)">
       <use xlink:href="#DejaVuSans-31"/>
       <use xlink:href="#DejaVuSans-30" x="63.623047"/>
      </g>
     </g>
    </g>
    <g id="xtick_8">
     <g id="line2d_8">
      <g>
       <use xlink:href="#m0dfa0e0a89" x="532.610085" y="203.038125" style="stroke: #000000; stroke-width: 0.8"/>
      </g>
     </g>
     <g id="text_8">
      <!-- 15 -->
      <g transform="translate(526.247585 217.636562) scale(0.1 -0.1)">
       <use xlink:href="#DejaVuSans-31"/>
       <use xlink:href="#DejaVuSans-35" x="63.623047"/>
      </g>
     </g>
    </g>
    <g id="xtick_9">
     <g id="line2d_9">
      <g>
       <use xlink:href="#m0dfa0e0a89" x="596.019176" y="203.038125" style="stroke: #000000; stroke-width: 0.8"/>
      </g>
     </g>
     <g id="text_9">
      <!-- 20 -->
      <g transform="translate(589.656676 217.636562) scale(0.1 -0.1)">
       <use xlink:href="#DejaVuSans-32"/>
       <use xlink:href="#DejaVuSans-30" x="63.623047"/>
      </g>
     </g>
    </g>
    <g id="text_10">
     <!-- Time [ms] -->
     <g transform="translate(317.183594 231.314687) scale(0.1 -0.1)">
      <defs>
       <path id="DejaVuSans-54" d="M -19 4666 
L 3928 4666 
L 3928 4134 
L 2272 4134 
L 2272 0 
L 1638 0 
L 1638 4134 
L -19 4134 
L -19 4666 
z
" transform="scale(0.015625)"/>
       <path id="DejaVuSans-69" d="M 603 3500 
L 1178 3500 
L 1178 0 
L 603 0 
L 603 3500 
z
M 603 4863 
L 1178 4863 
L 1178 4134 
L 603 4134 
L 603 4863 
z
" transform="scale(0.015625)"/>
       <path id="DejaVuSans-6d" d="M 3328 2828 
Q 3544 3216 3844 3400 
Q 4144 3584 4550 3584 
Q 5097 3584 5394 3201 
Q 5691 2819 5691 2113 
L 5691 0 
L 5113 0 
L 5113 2094 
Q 5113 2597 4934 2840 
Q 4756 3084 4391 3084 
Q 3944 3084 3684 2787 
Q 3425 2491 3425 1978 
L 3425 0 
L 2847 0 
L 2847 2094 
Q 2847 2600 2669 2842 
Q 2491 3084 2119 3084 
Q 1678 3084 1418 2786 
Q 1159 2488 1159 1978 
L 1159 0 
L 581 0 
L 581 3500 
L 1159 3500 
L 1159 2956 
Q 1356 3278 1631 3431 
Q 1906 3584 2284 3584 
Q 2666 3584 2933 3390 
Q 3200 3197 3328 2828 
z
" transform="scale(0.015625)"/>
       <path id="DejaVuSans-65" d="M 3597 1894 
L 3597 1613 
L 953 1613 
Q 991 1019 1311 708 
Q 1631 397 2203 397 
Q 2534 397 2845 478 
Q 3156 559 3463 722 
L 3463 178 
Q 3153 47 2828 -22 
Q 2503 -91 2169 -91 
Q 1331 -91 842 396 
Q 353 884 353 1716 
Q 353 2575 817 3079 
Q 1281 3584 2069 3584 
Q 2775 3584 3186 3129 
Q 3597 2675 3597 1894 
z
M 3022 2063 
Q 3016 2534 2758 2815 
Q 2500 3097 2075 3097 
Q 1594 3097 1305 2825 
Q 1016 2553 972 2059 
L 3022 2063 
z
" transform="scale(0.015625)"/>
       <path id="DejaVuSans-20" transform="scale(0.015625)"/>
       <path id="DejaVuSans-5b" d="M 550 4863 
L 1875 4863 
L 1875 4416 
L 1125 4416 
L 1125 -397 
L 1875 -397 
L 1875 -844 
L 550 -844 
L 550 4863 
z
" transform="scale(0.015625)"/>
       <path id="DejaVuSans-73" d="M 2834 3397 
L 2834 2853 
Q 2591 2978 2328 3040 
Q 2066 3103 1784 3103 
Q 1356 3103 1142 2972 
Q 928 2841 928 2578 
Q 928 2378 1081 2264 
Q 1234 2150 1697 2047 
L 1894 2003 
Q 2506 1872 2764 1633 
Q 3022 1394 3022 966 
Q 3022 478 2636 193 
Q 2250 -91 1575 -91 
Q 1294 -91 989 -36 
Q 684 19 347 128 
L 347 722 
Q 666 556 975 473 
Q 1284 391 1588 391 
Q 1994 391 2212 530 
Q 2431 669 2431 922 
Q 2431 1156 2273 1281 
Q 2116 1406 1581 1522 
L 1381 1569 
Q 847 1681 609 1914 
Q 372 2147 372 2553 
Q 372 3047 722 3315 
Q 1072 3584 1716 3584 
Q 2034 3584 2315 3537 
Q 2597 3491 2834 3397 
z
" transform="scale(0.015625)"/>
       <path id="DejaVuSans-5d" d="M 1947 4863 
L 1947 -844 
L 622 -844 
L 622 -397 
L 1369 -397 
L 1369 4416 
L 622 4416 
L 622 4863 
L 1947 4863 
z
" transform="scale(0.015625)"/>
      </defs>
      <use xlink:href="#DejaVuSans-54"/>
      <use xlink:href="#DejaVuSans-69" x="57.958984"/>
      <use xlink:href="#DejaVuSans-6d" x="85.742188"/>
      <use xlink:href="#DejaVuSans-65" x="183.154297"/>
      <use xlink:href="#DejaVuSans-20" x="244.677734"/>
      <use xlink:href="#DejaVuSans-5b" x="276.464844"/>
      <use xlink:href="#DejaVuSans-6d" x="315.478516"/>
      <use xlink:href="#DejaVuSans-73" x="412.890625"/>
      <use xlink:href="#DejaVuSans-5d" x="464.990234"/>
     </g>
    </g>
   </g>
   <g id="matplotlib.axis_2">
    <g id="ytick_1">
     <g id="line2d_10">
      <defs>
       <path id="m1590b5113f" d="M 0 0 
L -3.5 0 
" style="stroke: #000000; stroke-width: 0.8"/>
      </defs>
      <g>
       <use xlink:href="#m1590b5113f" x="63.382812" y="189.445951" style="stroke: #000000; stroke-width: 0.8"/>
      </g>
     </g>
     <g id="text_11">
      <!-- −20 -->
      <g transform="translate(35.278125 193.24517) scale(0.1 -0.1)">
       <use xlink:href="#DejaVuSans-2212"/>
       <use xlink:href="#DejaVuSans-32" x="83.789062"/>
       <use xlink:href="#DejaVuSans-30" x="147.412109"/>
      </g>
     </g>
    </g>
    <g id="ytick_2">
     <g id="line2d_11">
      <g>
       <use xlink:href="#m1590b5113f" x="63.382812" y="168.571688" style="stroke: #000000; stroke-width: 0.8"/>
      </g>
     </g>
     <g id="text_12">
      <!-- −15 -->
      <g transform="translate(35.278125 172.370907) scale(0.1 -0.1)">
       <use xlink:href="#DejaVuSans-2212"/>
       <use xlink:href="#DejaVuSans-31" x="83.789062"/>
       <use xlink:href="#DejaVuSans-35" x="147.412109"/>
      </g>
     </g>
    </g>
    <g id="ytick_3">
     <g id="line2d_12">
      <g>
       <use xlink:href="#m1590b5113f" x="63.382812" y="147.697425" style="stroke: #000000; stroke-width: 0.8"/>
      </g>
     </g>
     <g id="text_13">
      <!-- −10 -->
      <g transform="translate(35.278125 151.496644) scale(0.1 -0.1)">
       <use xlink:href="#DejaVuSans-2212"/>
       <use xlink:href="#DejaVuSans-31" x="83.789062"/>
       <use xlink:href="#DejaVuSans-30" x="147.412109"/>
      </g>
     </g>
    </g>
    <g id="ytick_4">
     <g id="line2d_13">
      <g>
       <use xlink:href="#m1590b5113f" x="63.382812" y="126.823162" style="stroke: #000000; stroke-width: 0.8"/>
      </g>
     </g>
     <g id="text_14">
      <!-- −5 -->
      <g transform="translate(41.640625 130.622381) scale(0.1 -0.1)">
       <use xlink:href="#DejaVuSans-2212"/>
       <use xlink:href="#DejaVuSans-35" x="83.789062"/>
      </g>
     </g>
    </g>
    <g id="ytick_5">
     <g id="line2d_14">
      <g>
       <use xlink:href="#m1590b5113f" x="63.382812" y="105.948899" style="stroke: #000000; stroke-width: 0.8"/>
      </g>
     </g>
     <g id="text_15">
      <!-- 0 -->
      <g transform="translate(50.020313 109.748117) scale(0.1 -0.1)">
       <use xlink:href="#DejaVuSans-30"/>
      </g>
     </g>
    </g>
    <g id="ytick_6">
     <g id="line2d_15">
      <g>
       <use xlink:href="#m1590b5113f" x="63.382812" y="85.074635" style="stroke: #000000; stroke-width: 0.8"/>
      </g>
     </g>
     <g id="text_16">
      <!-- 5 -->
      <g transform="translate(50.020313 88.873854) scale(0.1 -0.1)">
       <use xlink:href="#DejaVuSans-35"/>
      </g>
     </g>
    </g>
    <g id="ytick_7">
     <g id="line2d_16">
      <g>
       <use xlink:href="#m1590b5113f" x="63.382812" y="64.200372" style="stroke: #000000; stroke-width: 0.8"/>
      </g>
     </g>
     <g id="text_17">
      <!-- 10 -->
      <g transform="translate(43.657812 67.999591) scale(0.1 -0.1)">
       <use xlink:href="#DejaVuSans-31"/>
       <use xlink:href="#DejaVuSans-30" x="63.623047"/>
      </g>
     </g>
    </g>
    <g id="ytick_8">
     <g id="line2d_17">
      <g>
       <use xlink:href="#m1590b5113f" x="63.382812" y="43.326109" style="stroke: #000000; stroke-width: 0.8"/>
      </g>
     </g>
     <g id="text_18">
      <!-- 15 -->
      <g transform="translate(43.657812 47.125328) scale(0.1 -0.1)">
       <use xlink:href="#DejaVuSans-31"/>
       <use xlink:href="#DejaVuSans-35" x="63.623047"/>
      </g>
     </g>
    </g>
    <g id="text_19">
     <!-- Voltage [uV] -->
     <g transform="translate(29.198438 150.714063) rotate(-90) scale(0.1 -0.1)">
      <defs>
       <path id="DejaVuSans-56" d="M 1831 0 
L 50 4666 
L 709 4666 
L 2188 738 
L 3669 4666 
L 4325 4666 
L 2547 0 
L 1831 0 
z
" transform="scale(0.015625)"/>
       <path id="DejaVuSans-6f" d="M 1959 3097 
Q 1497 3097 1228 2736 
Q 959 2375 959 1747 
Q 959 1119 1226 758 
Q 1494 397 1959 397 
Q 2419 397 2687 759 
Q 2956 1122 2956 1747 
Q 2956 2369 2687 2733 
Q 2419 3097 1959 3097 
z
M 1959 3584 
Q 2709 3584 3137 3096 
Q 3566 2609 3566 1747 
Q 3566 888 3137 398 
Q 2709 -91 1959 -91 
Q 1206 -91 779 398 
Q 353 888 353 1747 
Q 353 2609 779 3096 
Q 1206 3584 1959 3584 
z
" transform="scale(0.015625)"/>
       <path id="DejaVuSans-6c" d="M 603 4863 
L 1178 4863 
L 1178 0 
L 603 0 
L 603 4863 
z
" transform="scale(0.015625)"/>
       <path id="DejaVuSans-74" d="M 1172 4494 
L 1172 3500 
L 2356 3500 
L 2356 3053 
L 1172 3053 
L 1172 1153 
Q 1172 725 1289 603 
Q 1406 481 1766 481 
L 2356 481 
L 2356 0 
L 1766 0 
Q 1100 0 847 248 
Q 594 497 594 1153 
L 594 3053 
L 172 3053 
L 172 3500 
L 594 3500 
L 594 4494 
L 1172 4494 
z
" transform="scale(0.015625)"/>
       <path id="DejaVuSans-61" d="M 2194 1759 
Q 1497 1759 1228 1600 
Q 959 1441 959 1056 
Q 959 750 1161 570 
Q 1363 391 1709 391 
Q 2188 391 2477 730 
Q 2766 1069 2766 1631 
L 2766 1759 
L 2194 1759 
z
M 3341 1997 
L 3341 0 
L 2766 0 
L 2766 531 
Q 2569 213 2275 61 
Q 1981 -91 1556 -91 
Q 1019 -91 701 211 
Q 384 513 384 1019 
Q 384 1609 779 1909 
Q 1175 2209 1959 2209 
L 2766 2209 
L 2766 2266 
Q 2766 2663 2505 2880 
Q 2244 3097 1772 3097 
Q 1472 3097 1187 3025 
Q 903 2953 641 2809 
L 641 3341 
Q 956 3463 1253 3523 
Q 1550 3584 1831 3584 
Q 2591 3584 2966 3190 
Q 3341 2797 3341 1997 
z
" transform="scale(0.015625)"/>
       <path id="DejaVuSans-67" d="M 2906 1791 
Q 2906 2416 2648 2759 
Q 2391 3103 1925 3103 
Q 1463 3103 1205 2759 
Q 947 2416 947 1791 
Q 947 1169 1205 825 
Q 1463 481 1925 481 
Q 2391 481 2648 825 
Q 2906 1169 2906 1791 
z
M 3481 434 
Q 3481 -459 3084 -895 
Q 2688 -1331 1869 -1331 
Q 1566 -1331 1297 -1286 
Q 1028 -1241 775 -1147 
L 775 -588 
Q 1028 -725 1275 -790 
Q 1522 -856 1778 -856 
Q 2344 -856 2625 -561 
Q 2906 -266 2906 331 
L 2906 616 
Q 2728 306 2450 153 
Q 2172 0 1784 0 
Q 1141 0 747 490 
Q 353 981 353 1791 
Q 353 2603 747 3093 
Q 1141 3584 1784 3584 
Q 2172 3584 2450 3431 
Q 2728 3278 2906 2969 
L 2906 3500 
L 3481 3500 
L 3481 434 
z
" transform="scale(0.015625)"/>
       <path id="DejaVuSans-75" d="M 544 1381 
L 544 3500 
L 1119 3500 
L 1119 1403 
Q 1119 906 1312 657 
Q 1506 409 1894 409 
Q 2359 409 2629 706 
Q 2900 1003 2900 1516 
L 2900 3500 
L 3475 3500 
L 3475 0 
L 2900 0 
L 2900 538 
Q 2691 219 2414 64 
Q 2138 -91 1772 -91 
Q 1169 -91 856 284 
Q 544 659 544 1381 
z
M 1991 3584 
L 1991 3584 
z
" transform="scale(0.015625)"/>
      </defs>
      <use xlink:href="#DejaVuSans-56"/>
      <use xlink:href="#DejaVuSans-6f" x="60.658203"/>
      <use xlink:href="#DejaVuSans-6c" x="121.839844"/>
      <use xlink:href="#DejaVuSans-74" x="149.623047"/>
      <use xlink:href="#DejaVuSans-61" x="188.832031"/>
      <use xlink:href="#DejaVuSans-67" x="250.111328"/>
      <use xlink:href="#DejaVuSans-65" x="313.587891"/>
      <use xlink:href="#DejaVuSans-20" x="375.111328"/>
      <use xlink:href="#DejaVuSans-5b" x="406.898438"/>
      <use xlink:href="#DejaVuSans-75" x="445.912109"/>
      <use xlink:href="#DejaVuSans-56" x="509.291016"/>
      <use xlink:href="#DejaVuSans-5d" x="577.699219"/>
     </g>
    </g>
   </g>
   <g id="line2d_18">
    <path d="M 88.746449 133.319486 
L 89.381333 133.991078 
L 90.016218 85.198984 
L 90.651102 68.080278 
L 91.285987 88.623879 
L 91.920871 61.921222 
L 92.555756 98.030808 
L 93.19064 109.798091 
L 93.825525 71.079179 
L 94.460409 74.146431 
L 95.095294 98.097621 
L 95.730179 114.575147 
L 96.365063 101.690111 
L 96.999948 84.614093 
L 97.634832 120.047724 
L 98.269717 106.460408 
L 98.904601 68.424021 
L 100.17437 120.953848 
L 100.809255 113.81503 
L 101.444139 77.295392 
L 102.079024 105.196771 
L 102.713908 99.39403 
L 103.348793 95.805557 
L 103.983677 117.194201 
L 104.618562 72.671776 
L 105.253446 111.942443 
L 105.888331 131.903712 
L 106.523215 94.204979 
L 107.1581 117.227212 
L 107.792984 106.314219 
L 108.427869 114.949442 
L 109.062753 100.260378 
L 109.697638 122.617317 
L 110.332522 116.792949 
L 110.967407 91.353557 
L 111.602291 114.4534 
L 112.237176 112.29398 
L 112.87206 111.216732 
L 113.506945 102.357183 
L 114.141829 105.513961 
L 114.776714 92.442553 
L 116.046483 152.537376 
L 117.316252 100.270983 
L 117.951137 150.534283 
L 118.586021 139.978731 
L 119.220906 105.990764 
L 119.85579 123.499091 
L 120.490675 113.63094 
L 121.125559 120.848596 
L 121.760444 104.257223 
L 122.395328 130.397271 
L 123.030213 122.650584 
L 123.665097 102.476387 
L 124.299982 100.435996 
L 124.934866 112.786255 
L 125.569751 100.304251 
L 126.204635 48.978507 
L 126.83952 99.45294 
L 127.474404 80.399468 
L 128.109289 89.712758 
L 128.744173 72.759893 
L 129.379058 78.361949 
L 130.013942 101.82433 
L 130.648827 88.951445 
L 131.283711 113.918267 
L 131.918596 95.380093 
L 132.55348 100.12777 
L 133.188365 69.941582 
L 133.823249 121.524286 
L 134.458134 107.075048 
L 135.093018 60.047739 
L 135.727903 97.724821 
L 136.362787 128.136737 
L 136.997672 139.635445 
L 137.632556 137.680596 
L 138.267441 131.921297 
L 138.902326 111.414248 
L 139.53721 105.582249 
L 140.172095 126.617668 
L 140.806979 116.037448 
L 141.441864 94.500758 
L 142.076748 126.704412 
L 142.711633 111.084045 
L 143.346517 87.147105 
L 143.981402 112.026363 
L 144.616286 126.013642 
L 145.251171 108.7145 
L 145.886055 107.35328 
L 147.155824 74.298826 
L 147.790709 82.859728 
L 148.425593 78.921332 
L 149.060478 70.149899 
L 149.695362 113.847986 
L 150.330247 129.021152 
L 150.965131 116.334999 
L 151.600016 76.365998 
L 152.2349 92.01467 
L 152.869785 127.174085 
L 153.504669 100.249819 
L 154.139554 126.015303 
L 154.774438 105.164562 
L 155.409323 127.480517 
L 156.044207 138.470681 
L 156.679092 106.359714 
L 157.313976 114.666904 
L 157.948861 112.324374 
L 158.583745 103.75507 
L 159.21863 81.063155 
L 159.853515 111.429327 
L 160.488399 128.987536 
L 161.123284 120.594403 
L 161.758168 148.624623 
L 162.393053 106.836438 
L 163.027937 110.643395 
L 163.662822 115.764866 
L 164.297706 111.072192 
L 164.932591 125.427073 
L 165.567475 81.487184 
L 166.20236 83.748279 
L 166.837244 100.006466 
L 167.472129 112.048077 
L 168.107013 100.663186 
L 168.741898 93.91956 
L 169.376782 85.070891 
L 170.011667 93.67667 
L 170.646551 94.741511 
L 171.281436 67.354116 
L 171.91632 112.575176 
L 172.551205 111.011683 
L 173.186089 81.580431 
L 173.820974 93.57912 
L 174.455858 85.603773 
L 175.090743 108.677255 
L 175.725627 106.732105 
L 176.360512 109.086209 
L 176.995396 130.311579 
L 177.630281 112.713487 
L 178.265165 120.520808 
L 178.90005 107.349178 
L 179.534934 101.77627 
L 180.169819 88.116715 
L 180.804704 87.09152 
L 181.439588 105.50235 
L 182.074473 81.337403 
L 183.344242 134.16316 
L 183.979126 131.310893 
L 184.614011 104.724475 
L 185.248895 141.370516 
L 185.88378 141.99786 
L 186.518664 87.121495 
L 187.153549 123.0482 
L 187.788433 116.737097 
L 188.423318 119.49837 
L 189.058202 117.078316 
L 190.327971 97.946711 
L 190.962856 126.712083 
L 191.59774 117.995186 
L 192.232625 96.686503 
L 192.867509 111.31597 
L 193.502394 91.6809 
L 194.137278 113.74777 
L 194.772163 106.799384 
L 195.407047 104.930903 
L 196.041932 68.79182 
L 196.676816 115.763725 
L 197.311701 108.77701 
L 197.946585 94.894452 
L 198.58147 73.777311 
L 199.216354 61.783822 
L 199.851239 129.947608 
L 200.486123 91.2568 
L 201.121008 107.207719 
L 202.390777 89.447812 
L 203.025662 68.330244 
L 203.660546 89.701099 
L 204.295431 103.040601 
L 204.930315 85.970287 
L 205.5652 96.121889 
L 206.200084 85.551739 
L 206.834969 104.608543 
L 207.469853 120.161561 
L 208.104738 126.10628 
L 208.739622 88.008011 
L 209.374507 77.620125 
L 210.009391 111.996639 
L 210.644276 122.819403 
L 211.27916 103.374364 
L 211.914045 111.125886 
L 212.548929 167.961996 
L 213.183814 135.370403 
L 213.818698 111.183053 
L 214.453583 133.698493 
L 215.088467 136.561018 
L 215.723352 162.287355 
L 216.358236 113.853286 
L 216.993121 111.219426 
L 217.628005 115.545552 
L 218.26289 113.971062 
L 218.897774 121.332875 
L 219.532659 117.575488 
L 220.167543 107.662289 
L 220.802428 110.579485 
L 221.437312 96.568957 
L 222.072197 75.835986 
L 222.707081 100.308037 
L 223.341966 97.975095 
L 223.976851 100.178637 
L 224.611735 66.26836 
L 225.24662 97.804713 
L 225.881504 84.938491 
L 226.516389 96.40947 
L 227.151273 101.929358 
L 227.786158 81.283759 
L 228.421042 76.5994 
L 229.055927 59.690544 
L 229.690811 97.750227 
L 230.325696 79.604535 
L 230.96058 84.839279 
L 231.595465 101.910164 
L 232.230349 97.328439 
L 232.865234 99.725436 
L 233.500118 139.299122 
L 234.135003 158.535197 
L 234.769887 157.824975 
L 235.404772 109.845634 
L 236.039656 103.217396 
L 236.674541 131.1689 
L 237.309425 113.830798 
L 238.579194 86.227861 
L 239.214079 126.785724 
L 239.848963 132.708739 
L 240.483848 114.190567 
L 241.118732 120.535528 
L 241.753617 118.043248 
L 242.388501 121.312531 
L 243.023386 85.455058 
L 243.65827 108.955464 
L 244.293155 124.722779 
L 244.928039 118.44299 
L 245.562924 113.743134 
L 246.197809 71.60823 
L 246.832693 106.237218 
L 247.467578 93.018411 
L 248.102462 110.307803 
L 248.737347 105.374749 
L 249.372231 101.463822 
L 250.007116 94.090407 
L 250.642 94.268806 
L 251.276885 105.651257 
L 251.911769 102.463708 
L 252.546654 141.768975 
L 253.181538 123.513809 
L 254.451307 98.729904 
L 255.086192 103.951729 
L 255.721076 111.914058 
L 256.355961 113.128838 
L 256.990845 101.98514 
L 257.62573 97.348309 
L 258.260614 96.623867 
L 258.895499 104.618769 
L 259.530383 105.624698 
L 260.165268 82.794093 
L 260.800152 69.605495 
L 261.435037 93.683527 
L 262.069921 99.349215 
L 262.704806 102.2037 
L 263.33969 81.778201 
L 263.974575 97.683042 
L 264.609459 98.394272 
L 265.244344 87.356174 
L 265.879228 111.84245 
L 266.514113 97.188767 
L 267.148998 114.064581 
L 267.783882 85.594661 
L 268.418767 98.610142 
L 269.053651 129.870517 
L 269.688536 111.106796 
L 270.32342 110.326082 
L 270.958305 119.00732 
L 271.593189 104.303042 
L 272.228074 99.51506 
L 272.862958 111.007772 
L 273.497843 100.642809 
L 274.132727 105.23991 
L 274.767612 134.567505 
L 275.402496 113.101789 
L 276.037381 103.548462 
L 276.672265 128.145117 
L 277.30715 121.497121 
L 277.942034 86.131036 
L 278.576919 107.746659 
L 279.211803 109.254504 
L 279.846688 82.573831 
L 280.481572 93.391588 
L 281.116457 127.315169 
L 281.751341 137.120077 
L 282.386226 123.864852 
L 283.02111 115.938231 
L 283.655995 60.783473 
L 284.290879 102.330403 
L 284.925764 114.714399 
L 285.560648 131.302908 
L 286.830417 77.4593 
L 287.465302 128.368371 
L 288.100186 79.156361 
L 289.369956 105.417183 
L 290.00484 95.059751 
L 290.639725 116.312123 
L 291.274609 107.584187 
L 291.909494 116.685147 
L 292.544378 82.617119 
L 293.179263 99.977316 
L 293.814147 129.283518 
L 294.449032 132.080697 
L 295.083916 171.092525 
L 296.353685 130.728665 
L 296.98857 102.391969 
L 297.623454 118.102453 
L 298.258339 139.052906 
L 298.893223 109.596983 
L 299.528108 96.607011 
L 300.162992 101.122626 
L 300.797877 75.189281 
L 301.432761 64.1607 
L 302.067646 91.086936 
L 302.70253 93.93318 
L 303.337415 123.953582 
L 304.607184 99.71085 
L 305.242068 95.514664 
L 305.876953 89.18973 
L 306.511837 117.752636 
L 307.146722 89.958505 
L 307.781606 89.395843 
L 308.416491 64.590275 
L 309.051375 74.720383 
L 309.68626 100.225187 
L 310.321145 103.806197 
L 310.956029 129.328105 
L 311.590914 114.745757 
L 312.225798 106.337317 
L 312.860683 94.492232 
L 313.495567 99.649534 
L 314.130452 60.954954 
L 314.765336 73.438764 
L 315.400221 123.243293 
L 316.035105 136.771251 
L 316.66999 107.99247 
L 317.304874 114.582404 
L 317.939759 105.614817 
L 318.574643 72.776953 
L 319.209528 110.459931 
L 319.844412 61.798195 
L 320.479297 86.746828 
L 321.114181 145.942788 
L 321.749066 135.449615 
L 322.38395 121.682542 
L 323.018835 112.490763 
L 323.653719 120.902678 
L 324.288604 107.436603 
L 324.923488 98.829073 
L 326.193257 110.003872 
L 326.828142 107.97188 
L 327.463026 144.65123 
L 328.097911 131.519532 
L 328.732795 107.511644 
L 329.36768 109.566142 
L 330.002564 115.805186 
L 330.637449 115.403566 
L 331.272333 88.934142 
L 331.907218 131.133024 
L 332.542103 93.666862 
L 333.176987 79.409725 
L 333.811872 109.680389 
L 334.446756 94.538551 
L 335.081641 88.984301 
L 335.716525 94.267473 
L 336.35141 117.91703 
L 336.986294 118.459962 
L 337.621179 129.763215 
L 338.890948 92.806854 
L 339.525832 100.947771 
L 340.160717 78.715497 
L 340.795601 80.388584 
L 341.430486 110.305587 
L 342.06537 98.088836 
L 342.700255 96.414556 
L 343.335139 104.393752 
L 343.970024 104.622275 
L 345.239793 79.574868 
L 346.509562 121.408042 
L 347.144446 101.475378 
L 347.779331 70.559855 
L 348.414215 80.256746 
L 349.0491 93.10684 
L 349.683984 92.498056 
L 350.318869 100.313461 
L 350.953753 99.138402 
L 351.588638 119.04522 
L 352.223522 93.679446 
L 352.858407 84.174283 
L 353.493292 132.304602 
L 354.128176 135.727874 
L 354.763061 168.612075 
L 355.397945 180.909336 
L 356.03283 174.096597 
L 356.667714 133.443932 
L 357.302599 122.682363 
L 357.937483 138.265464 
L 358.572368 122.612484 
L 359.207252 102.589356 
L 359.842137 105.472628 
L 360.477021 142.029086 
L 361.111906 111.947122 
L 361.74679 112.484098 
L 362.381675 92.371157 
L 363.016559 98.594953 
L 363.651444 111.883401 
L 364.286328 79.153677 
L 364.921213 79.326021 
L 365.556097 86.675306 
L 366.190982 95.669748 
L 366.825866 90.176173 
L 367.460751 109.645461 
L 368.095635 117.293092 
L 368.73052 105.798048 
L 369.365404 110.190023 
L 370.000289 87.390358 
L 370.635173 84.306973 
L 371.270058 106.524987 
L 371.904942 83.585817 
L 372.539827 85.041516 
L 373.174711 77.082527 
L 373.809596 90.493672 
L 374.44448 111.203397 
L 375.079365 98.435398 
L 375.71425 61.401667 
L 376.349134 95.816772 
L 376.984019 138.538706 
L 377.618903 113.55538 
L 378.253788 136.650642 
L 378.888672 80.821815 
L 379.523557 98.05687 
L 380.158441 100.209557 
L 380.793326 89.482525 
L 381.42821 125.348154 
L 382.063095 96.235598 
L 382.697979 98.472241 
L 383.332864 98.745918 
L 383.967748 107.529415 
L 384.602633 100.253867 
L 385.237517 108.567127 
L 385.872402 107.274995 
L 386.507286 93.435665 
L 387.142171 114.94512 
L 387.777055 118.283398 
L 388.41194 97.248559 
L 389.046824 141.553693 
L 389.681709 135.64331 
L 390.316593 102.139969 
L 390.951478 100.746251 
L 391.586362 119.658161 
L 392.221247 127.758251 
L 392.856131 86.592964 
L 393.491016 79.151462 
L 394.1259 94.078875 
L 394.760785 120.227666 
L 395.395669 124.178013 
L 396.030554 121.56696 
L 396.665439 97.914909 
L 397.300323 98.637959 
L 397.935208 98.339381 
L 398.570092 110.850627 
L 399.204977 115.712219 
L 399.839861 111.766196 
L 400.474746 77.621684 
L 401.10963 110.294638 
L 401.744515 151.819521 
L 402.379399 91.736658 
L 403.014284 96.561395 
L 403.649168 94.320184 
L 404.284053 92.602633 
L 404.918937 93.606932 
L 405.553822 111.454792 
L 406.188706 97.742871 
L 406.823591 112.398631 
L 407.458475 120.589163 
L 408.09336 97.034242 
L 408.728244 95.42051 
L 409.363129 81.610546 
L 409.998013 107.747167 
L 410.632898 99.476524 
L 411.267782 105.489154 
L 411.902667 116.420173 
L 412.537551 121.222165 
L 413.172436 115.334042 
L 413.80732 106.104337 
L 414.442205 118.191812 
L 415.077089 104.911407 
L 415.711974 141.268468 
L 416.346858 138.810365 
L 416.981743 137.337579 
L 417.616627 136.160597 
L 418.251512 127.558576 
L 418.886397 131.146966 
L 419.521281 94.838887 
L 420.156166 105.02169 
L 420.79105 80.720751 
L 421.425935 118.794963 
L 422.060819 109.674909 
L 422.695704 74.704766 
L 423.330588 104.430851 
L 424.600357 68.324005 
L 425.235242 100.779007 
L 425.870126 111.336605 
L 426.505011 100.759868 
L 427.139895 100.028785 
L 427.77478 91.397398 
L 428.409664 101.213387 
L 429.044549 100.324076 
L 429.679433 116.552836 
L 430.314318 107.169892 
L 430.949202 106.976608 
L 431.584087 107.065778 
L 432.218971 102.582288 
L 432.853856 85.407056 
L 433.48874 107.38753 
L 434.123625 88.677433 
L 434.758509 87.122504 
L 435.393394 104.771341 
L 436.663163 68.682898 
L 437.298047 75.199645 
L 437.932932 97.767827 
L 438.567816 93.928245 
L 439.202701 98.523966 
L 439.837586 92.098778 
L 440.47247 111.758977 
L 441.107355 95.704336 
L 441.742239 90.335843 
L 442.377124 94.94385 
L 443.012008 86.412875 
L 443.646893 86.554462 
L 444.281777 85.369317 
L 444.916662 72.180433 
L 445.551546 91.287489 
L 446.186431 105.587725 
L 446.821315 87.064 
L 447.4562 108.674724 
L 448.091084 191.533053 
L 448.725969 195.478125 
L 449.360853 147.403298 
L 449.995738 142.191044 
L 450.630622 127.217889 
L 451.265507 151.592757 
L 452.535276 139.080921 
L 453.17016 147.091159 
L 453.805045 129.136097 
L 454.439929 127.622765 
L 455.074814 103.088964 
L 455.709698 90.378677 
L 456.344583 93.557785 
L 456.979467 131.361767 
L 457.614352 114.435001 
L 458.249236 67.338265 
L 458.884121 101.453569 
L 459.519005 105.031597 
L 460.15389 97.794476 
L 460.788774 114.955106 
L 461.423659 96.147863 
L 462.058544 90.565459 
L 462.693428 103.839475 
L 463.328313 88.835537 
L 463.963197 105.380258 
L 464.598082 93.489495 
L 465.232966 117.822555 
L 466.502735 70.275648 
L 467.13762 109.049851 
L 467.772504 94.54617 
L 468.407389 64.693046 
L 469.042273 87.979212 
L 469.677158 124.582731 
L 470.312042 116.444726 
L 470.946927 119.42503 
L 471.581811 97.660663 
L 472.216696 119.254534 
L 472.85158 115.438489 
L 473.486465 120.005052 
L 474.121349 122.537519 
L 474.756234 98.057578 
L 475.391118 121.388354 
L 476.026003 119.336754 
L 476.660887 111.169018 
L 477.295772 90.204114 
L 477.930656 111.409331 
L 478.565541 122.989557 
L 479.200425 89.536781 
L 479.83531 103.704175 
L 480.470194 94.391911 
L 481.105079 82.803111 
L 481.739963 97.482242 
L 482.374848 89.571056 
L 483.009733 70.320467 
L 483.644617 69.439213 
L 484.279502 110.606988 
L 484.914386 136.357235 
L 485.549271 111.705584 
L 486.184155 94.105201 
L 486.81904 121.659763 
L 487.453924 126.646993 
L 488.088809 78.611762 
L 488.723693 91.494293 
L 489.358578 101.435053 
L 489.993462 100.97167 
L 490.628347 105.479084 
L 491.263231 74.467098 
L 491.898116 98.080995 
L 492.533 93.383523 
L 493.167885 91.452316 
L 493.802769 108.066803 
L 494.437654 135.242708 
L 495.072538 148.65368 
L 495.707423 124.417852 
L 496.342307 129.682569 
L 496.977192 107.807802 
L 497.612076 110.598871 
L 498.246961 118.778619 
L 498.881845 106.06873 
L 499.51673 114.988696 
L 500.151614 108.775867 
L 500.786499 110.269399 
L 501.421383 82.911439 
L 502.056268 107.053771 
L 502.691152 144.088805 
L 503.326037 110.218981 
L 503.960921 111.585953 
L 504.595806 94.528411 
L 505.230691 92.86104 
L 505.865575 92.558203 
L 506.50046 95.227145 
L 507.135344 105.959511 
L 507.770229 78.772199 
L 508.405113 102.197476 
L 509.039998 134.650884 
L 509.674882 78.861079 
L 510.309767 78.039035 
L 510.944651 120.648288 
L 511.579536 96.97017 
L 512.21442 90.820624 
L 512.849305 104.318975 
L 514.119074 82.981995 
L 514.753958 117.617694 
L 515.388843 126.583969 
L 516.023727 104.245468 
L 516.658612 142.332903 
L 517.293496 139.774128 
L 517.928381 91.178344 
L 518.563265 113.466269 
L 519.19815 96.087883 
L 519.833034 120.536649 
L 520.467919 129.435659 
L 521.102803 100.694404 
L 521.737688 96.849747 
L 522.372572 104.360373 
L 523.007457 121.321747 
L 523.642341 76.128196 
L 524.277226 63.694138 
L 524.91211 108.770794 
L 525.546995 127.527362 
L 526.18188 85.042576 
L 526.816764 112.570578 
L 527.451649 119.735417 
L 528.086533 108.37131 
L 528.721418 133.904728 
L 529.356302 128.749988 
L 529.991187 94.207985 
L 530.626071 110.992613 
L 531.260956 131.755885 
L 531.89584 77.862509 
L 532.530725 91.096739 
L 533.165609 109.927028 
L 533.800494 89.495682 
L 534.435378 100.517832 
L 535.070263 100.116362 
L 535.705147 82.997178 
L 536.340032 88.789972 
L 536.974916 82.592151 
L 537.609801 111.706341 
L 538.244685 108.254147 
L 538.87957 79.326398 
L 539.514454 108.69547 
L 540.149339 104.004919 
L 540.784223 108.33862 
L 541.419108 119.811616 
L 542.053992 103.109155 
L 542.688877 118.619425 
L 543.323761 123.936034 
L 543.958646 102.071046 
L 545.228415 142.635822 
L 545.863299 123.235934 
L 546.498184 115.772239 
L 547.133069 118.780748 
L 547.767953 117.558493 
L 548.402838 133.007568 
L 549.037722 117.072712 
L 549.672607 111.356515 
L 550.307491 114.326597 
L 550.942376 130.338827 
L 551.57726 113.396731 
L 552.212145 69.461469 
L 552.847029 111.021036 
L 553.481914 63.871831 
L 554.116798 66.471309 
L 554.751683 103.012229 
L 555.386567 91.238202 
L 556.021452 82.717314 
L 556.656336 76.18421 
L 557.291221 81.18176 
L 557.926105 72.552187 
L 558.56099 109.022344 
L 559.195874 109.616558 
L 559.830759 112.527385 
L 560.465643 117.348745 
L 561.100528 129.960833 
L 561.735412 125.870369 
L 562.370297 115.719652 
L 563.005181 121.354086 
L 563.640066 124.324369 
L 564.27495 116.844315 
L 564.909835 102.015978 
L 565.544719 113.989095 
L 566.179604 123.663077 
L 566.814488 126.644216 
L 567.449373 128.184564 
L 568.084257 82.364302 
L 568.719142 94.397486 
L 569.354027 102.448646 
L 569.988911 44.278125 
L 570.623796 111.982918 
L 571.25868 112.167719 
L 571.893565 122.323891 
L 572.528449 114.933379 
L 573.163334 121.198098 
L 573.798218 134.039378 
L 574.433103 93.881342 
L 575.067987 120.694049 
L 575.702872 101.369824 
L 576.972641 82.569091 
L 577.607525 130.280426 
L 578.24241 104.227724 
L 578.877294 107.611753 
L 579.512179 120.776463 
L 580.147063 109.461958 
L 580.781948 144.463759 
L 581.416832 108.101119 
L 582.051717 99.617892 
L 582.686601 85.574086 
L 583.321486 75.820118 
L 583.95637 73.598573 
L 584.591255 106.467266 
L 585.861024 64.56966 
L 586.495908 93.448913 
L 587.130793 96.670335 
L 587.765677 112.233771 
L 588.400562 106.715623 
L 589.035446 95.935824 
L 589.670331 91.468098 
L 590.305216 108.849825 
L 590.9401 99.803206 
L 591.574985 128.154104 
L 592.209869 141.529001 
L 592.844754 128.579367 
L 593.479638 94.574153 
L 594.114523 75.088551 
L 594.749407 115.283743 
L 595.384292 75.936375 
L 596.019176 79.12555 
L 596.019176 79.12555 
" clip-path="url(#p9fbe1b6b60)" style="fill: none; stroke: #1f77b4; stroke-width: 1.5; stroke-linecap: square"/>
   </g>
   <g id="line2d_19">
    <path d="M 342.700255 96.414556 
L 343.335139 104.393752 
L 343.970024 104.622275 
L 344.604908 92.802193 
L 345.239793 79.574868 
L 345.874677 101.592644 
L 346.509562 121.408042 
L 347.144446 101.475378 
L 347.779331 70.559855 
L 348.414215 80.256746 
L 349.0491 93.10684 
L 349.683984 92.498056 
L 350.318869 100.313461 
L 350.953753 99.138402 
L 351.588638 119.04522 
L 352.223522 93.679446 
L 352.858407 84.174283 
L 353.493292 132.304602 
L 354.128176 135.727874 
L 354.763061 168.612075 
L 355.397945 180.909336 
L 356.03283 174.096597 
L 356.667714 133.443932 
L 357.302599 122.682363 
L 357.937483 138.265464 
L 358.572368 122.612484 
L 359.207252 102.589356 
L 359.842137 105.472628 
L 360.477021 142.029086 
L 361.111906 111.947122 
L 361.74679 112.484098 
L 362.381675 92.371157 
L 363.016559 98.594953 
L 363.651444 111.883401 
L 364.286328 79.153677 
L 364.921213 79.326021 
L 365.556097 86.675306 
L 366.190982 95.669748 
L 366.825866 90.176173 
L 367.460751 109.645461 
" clip-path="url(#p9fbe1b6b60)" style="fill: none; stroke: #ff0000; stroke-width: 1.5; stroke-linecap: square"/>
   </g>
   <g id="patch_3">
    <path d="M 63.382812 203.038125 
L 63.382812 36.718125 
" style="fill: none; stroke: #000000; stroke-width: 0.8; stroke-linejoin: miter; stroke-linecap: square"/>
   </g>
   <g id="patch_4">
    <path d="M 621.382812 203.038125 
L 621.382812 36.718125 
" style="fill: none; stroke: #000000; stroke-width: 0.8; stroke-linejoin: miter; stroke-linecap: square"/>
   </g>
   <g id="patch_5">
    <path d="M 63.382812 203.038125 
L 621.382812 203.038125 
" style="fill: none; stroke: #000000; stroke-width: 0.8; stroke-linejoin: miter; stroke-linecap: square"/>
   </g>
   <g id="patch_6">
    <path d="M 63.382812 36.718125 
L 621.382812 36.718125 
" style="fill: none; stroke: #000000; stroke-width: 0.8; stroke-linejoin: miter; stroke-linecap: square"/>
   </g>
   <g id="text_20">
    <!-- Channel:25, Time stamp : 1651583 -->
    <g transform="translate(236.327188 30.718125) scale(0.12 -0.12)">
     <defs>
      <path id="DejaVuSans-43" d="M 4122 4306 
L 4122 3641 
Q 3803 3938 3442 4084 
Q 3081 4231 2675 4231 
Q 1875 4231 1450 3742 
Q 1025 3253 1025 2328 
Q 1025 1406 1450 917 
Q 1875 428 2675 428 
Q 3081 428 3442 575 
Q 3803 722 4122 1019 
L 4122 359 
Q 3791 134 3420 21 
Q 3050 -91 2638 -91 
Q 1578 -91 968 557 
Q 359 1206 359 2328 
Q 359 3453 968 4101 
Q 1578 4750 2638 4750 
Q 3056 4750 3426 4639 
Q 3797 4528 4122 4306 
z
" transform="scale(0.015625)"/>
      <path id="DejaVuSans-68" d="M 3513 2113 
L 3513 0 
L 2938 0 
L 2938 2094 
Q 2938 2591 2744 2837 
Q 2550 3084 2163 3084 
Q 1697 3084 1428 2787 
Q 1159 2491 1159 1978 
L 1159 0 
L 581 0 
L 581 4863 
L 1159 4863 
L 1159 2956 
Q 1366 3272 1645 3428 
Q 1925 3584 2291 3584 
Q 2894 3584 3203 3211 
Q 3513 2838 3513 2113 
z
" transform="scale(0.015625)"/>
      <path id="DejaVuSans-6e" d="M 3513 2113 
L 3513 0 
L 2938 0 
L 2938 2094 
Q 2938 2591 2744 2837 
Q 2550 3084 2163 3084 
Q 1697 3084 1428 2787 
Q 1159 2491 1159 1978 
L 1159 0 
L 581 0 
L 581 3500 
L 1159 3500 
L 1159 2956 
Q 1366 3272 1645 3428 
Q 1925 3584 2291 3584 
Q 2894 3584 3203 3211 
Q 3513 2838 3513 2113 
z
" transform="scale(0.015625)"/>
      <path id="DejaVuSans-3a" d="M 750 794 
L 1409 794 
L 1409 0 
L 750 0 
L 750 794 
z
M 750 3309 
L 1409 3309 
L 1409 2516 
L 750 2516 
L 750 3309 
z
" transform="scale(0.015625)"/>
      <path id="DejaVuSans-2c" d="M 750 794 
L 1409 794 
L 1409 256 
L 897 -744 
L 494 -744 
L 750 256 
L 750 794 
z
" transform="scale(0.015625)"/>
      <path id="DejaVuSans-70" d="M 1159 525 
L 1159 -1331 
L 581 -1331 
L 581 3500 
L 1159 3500 
L 1159 2969 
Q 1341 3281 1617 3432 
Q 1894 3584 2278 3584 
Q 2916 3584 3314 3078 
Q 3713 2572 3713 1747 
Q 3713 922 3314 415 
Q 2916 -91 2278 -91 
Q 1894 -91 1617 61 
Q 1341 213 1159 525 
z
M 3116 1747 
Q 3116 2381 2855 2742 
Q 2594 3103 2138 3103 
Q 1681 3103 1420 2742 
Q 1159 2381 1159 1747 
Q 1159 1113 1420 752 
Q 1681 391 2138 391 
Q 2594 391 2855 752 
Q 3116 1113 3116 1747 
z
" transform="scale(0.015625)"/>
      <path id="DejaVuSans-36" d="M 2113 2584 
Q 1688 2584 1439 2293 
Q 1191 2003 1191 1497 
Q 1191 994 1439 701 
Q 1688 409 2113 409 
Q 2538 409 2786 701 
Q 3034 994 3034 1497 
Q 3034 2003 2786 2293 
Q 2538 2584 2113 2584 
z
M 3366 4563 
L 3366 3988 
Q 3128 4100 2886 4159 
Q 2644 4219 2406 4219 
Q 1781 4219 1451 3797 
Q 1122 3375 1075 2522 
Q 1259 2794 1537 2939 
Q 1816 3084 2150 3084 
Q 2853 3084 3261 2657 
Q 3669 2231 3669 1497 
Q 3669 778 3244 343 
Q 2819 -91 2113 -91 
Q 1303 -91 875 529 
Q 447 1150 447 2328 
Q 447 3434 972 4092 
Q 1497 4750 2381 4750 
Q 2619 4750 2861 4703 
Q 3103 4656 3366 4563 
z
" transform="scale(0.015625)"/>
      <path id="DejaVuSans-38" d="M 2034 2216 
Q 1584 2216 1326 1975 
Q 1069 1734 1069 1313 
Q 1069 891 1326 650 
Q 1584 409 2034 409 
Q 2484 409 2743 651 
Q 3003 894 3003 1313 
Q 3003 1734 2745 1975 
Q 2488 2216 2034 2216 
z
M 1403 2484 
Q 997 2584 770 2862 
Q 544 3141 544 3541 
Q 544 4100 942 4425 
Q 1341 4750 2034 4750 
Q 2731 4750 3128 4425 
Q 3525 4100 3525 3541 
Q 3525 3141 3298 2862 
Q 3072 2584 2669 2484 
Q 3125 2378 3379 2068 
Q 3634 1759 3634 1313 
Q 3634 634 3220 271 
Q 2806 -91 2034 -91 
Q 1263 -91 848 271 
Q 434 634 434 1313 
Q 434 1759 690 2068 
Q 947 2378 1403 2484 
z
M 1172 3481 
Q 1172 3119 1398 2916 
Q 1625 2713 2034 2713 
Q 2441 2713 2670 2916 
Q 2900 3119 2900 3481 
Q 2900 3844 2670 4047 
Q 2441 4250 2034 4250 
Q 1625 4250 1398 4047 
Q 1172 3844 1172 3481 
z
" transform="scale(0.015625)"/>
      <path id="DejaVuSans-33" d="M 2597 2516 
Q 3050 2419 3304 2112 
Q 3559 1806 3559 1356 
Q 3559 666 3084 287 
Q 2609 -91 1734 -91 
Q 1441 -91 1130 -33 
Q 819 25 488 141 
L 488 750 
Q 750 597 1062 519 
Q 1375 441 1716 441 
Q 2309 441 2620 675 
Q 2931 909 2931 1356 
Q 2931 1769 2642 2001 
Q 2353 2234 1838 2234 
L 1294 2234 
L 1294 2753 
L 1863 2753 
Q 2328 2753 2575 2939 
Q 2822 3125 2822 3475 
Q 2822 3834 2567 4026 
Q 2313 4219 1838 4219 
Q 1578 4219 1281 4162 
Q 984 4106 628 3988 
L 628 4550 
Q 988 4650 1302 4700 
Q 1616 4750 1894 4750 
Q 2613 4750 3031 4423 
Q 3450 4097 3450 3541 
Q 3450 3153 3228 2886 
Q 3006 2619 2597 2516 
z
" transform="scale(0.015625)"/>
     </defs>
     <use xlink:href="#DejaVuSans-43"/>
     <use xlink:href="#DejaVuSans-68" x="69.824219"/>
     <use xlink:href="#DejaVuSans-61" x="133.203125"/>
     <use xlink:href="#DejaVuSans-6e" x="194.482422"/>
     <use xlink:href="#DejaVuSans-6e" x="257.861328"/>
     <use xlink:href="#DejaVuSans-65" x="321.240234"/>
     <use xlink:href="#DejaVuSans-6c" x="382.763672"/>
     <use xlink:href="#DejaVuSans-3a" x="410.546875"/>
     <use xlink:href="#DejaVuSans-32" x="444.238281"/>
     <use xlink:href="#DejaVuSans-35" x="507.861328"/>
     <use xlink:href="#DejaVuSans-2c" x="571.484375"/>
     <use xlink:href="#DejaVuSans-20" x="603.271484"/>
     <use xlink:href="#DejaVuSans-54" x="635.058594"/>
     <use xlink:href="#DejaVuSans-69" x="693.017578"/>
     <use xlink:href="#DejaVuSans-6d" x="720.800781"/>
     <use xlink:href="#DejaVuSans-65" x="818.212891"/>
     <use xlink:href="#DejaVuSans-20" x="879.736328"/>
     <use xlink:href="#DejaVuSans-73" x="911.523438"/>
     <use xlink:href="#DejaVuSans-74" x="963.623047"/>
     <use xlink:href="#DejaVuSans-61" x="1002.832031"/>
     <use xlink:href="#DejaVuSans-6d" x="1064.111328"/>
     <use xlink:href="#DejaVuSans-70" x="1161.523438"/>
     <use xlink:href="#DejaVuSans-20" x="1225"/>
     <use xlink:href="#DejaVuSans-3a" x="1256.787109"/>
     <use xlink:href="#DejaVuSans-20" x="1290.478516"/>
     <use xlink:href="#DejaVuSans-31" x="1322.265625"/>
     <use xlink:href="#DejaVuSans-36" x="1385.888672"/>
     <use xlink:href="#DejaVuSans-35" x="1449.511719"/>
     <use xlink:href="#DejaVuSans-31" x="1513.134766"/>
     <use xlink:href="#DejaVuSans-35" x="1576.757812"/>
     <use xlink:href="#DejaVuSans-38" x="1640.380859"/>
     <use xlink:href="#DejaVuSans-33" x="1704.003906"/>
    </g>
   </g>
  </g>
 </g>
 <defs>
  <clipPath id="p9fbe1b6b60">
   <rect x="63.382812" y="36.718125" width="558" height="166.32"/>
  </clipPath>
 </defs>
</svg>
