<?xml version="1.0" encoding="utf-8" standalone="no"?>
<!DOCTYPE svg PUBLIC "-//W3C//DTD SVG 1.1//EN"
  "http://www.w3.org/Graphics/SVG/1.1/DTD/svg11.dtd">
<svg xmlns:xlink="http://www.w3.org/1999/xlink" width="642.982813pt" height="254.994375pt" viewBox="0 0 642.982813 254.994375" xmlns="http://www.w3.org/2000/svg" version="1.1">
 <metadata>
  <rdf:RDF xmlns:dc="http://purl.org/dc/elements/1.1/" xmlns:cc="http://creativecommons.org/ns#" xmlns:rdf="http://www.w3.org/1999/02/22-rdf-syntax-ns#">
   <cc:Work>
    <dc:type rdf:resource="http://purl.org/dc/dcmitype/StillImage"/>
    <dc:date>2024-02-26T10:41:44.538003</dc:date>
    <dc:format>image/svg+xml</dc:format>
    <dc:creator>
     <cc:Agent>
      <dc:title>Matplotlib v3.7.1, https://matplotlib.org/</dc:title>
     </cc:Agent>
    </dc:creator>
   </cc:Work>
  </rdf:RDF>
 </metadata>
 <defs>
  <style type="text/css">*{stroke-linejoin: round; stroke-linecap: butt}</style>
 </defs>
 <g id="figure_1">
  <g id="patch_1">
   <path d="M 0 254.994375 
L 642.982813 254.994375 
L 642.982813 -0 
L 0 -0 
z
" style="fill: #ffffff"/>
  </g>
  <g id="axes_1">
   <g id="patch_2">
    <path d="M 63.382812 203.038125 
L 621.382812 203.038125 
L 621.382812 36.718125 
L 63.382812 36.718125 
z
" style="fill: #ffffff"/>
   </g>
   <g id="matplotlib.axis_1">
    <g id="xtick_1">
     <g id="line2d_1">
      <defs>
       <path id="m60ead348da" d="M 0 0 
L 0 3.5 
" style="stroke: #000000; stroke-width: 0.8"/>
      </defs>
      <g>
       <use xlink:href="#m60ead348da" x="88.746449" y="203.038125" style="stroke: #000000; stroke-width: 0.8"/>
      </g>
     </g>
     <g id="text_1">
      <!-- −20 -->
      <g transform="translate(78.194105 217.636562) scale(0.1 -0.1)">
       <defs>
        <path id="DejaVuSans-2212" d="M 678 2272 
L 4684 2272 
L 4684 1741 
L 678 1741 
L 678 2272 
z
" transform="scale(0.015625)"/>
        <path id="DejaVuSans-32" d="M 1228 531 
L 3431 531 
L 3431 0 
L 469 0 
L 469 531 
Q 828 903 1448 1529 
Q 2069 2156 2228 2338 
Q 2531 2678 2651 2914 
Q 2772 3150 2772 3378 
Q 2772 3750 2511 3984 
Q 2250 4219 1831 4219 
Q 1534 4219 1204 4116 
Q 875 4013 500 3803 
L 500 4441 
Q 881 4594 1212 4672 
Q 1544 4750 1819 4750 
Q 2544 4750 2975 4387 
Q 3406 4025 3406 3419 
Q 3406 3131 3298 2873 
Q 3191 2616 2906 2266 
Q 2828 2175 2409 1742 
Q 1991 1309 1228 531 
z
" transform="scale(0.015625)"/>
        <path id="DejaVuSans-30" d="M 2034 4250 
Q 1547 4250 1301 3770 
Q 1056 3291 1056 2328 
Q 1056 1369 1301 889 
Q 1547 409 2034 409 
Q 2525 409 2770 889 
Q 3016 1369 3016 2328 
Q 3016 3291 2770 3770 
Q 2525 4250 2034 4250 
z
M 2034 4750 
Q 2819 4750 3233 4129 
Q 3647 3509 3647 2328 
Q 3647 1150 3233 529 
Q 2819 -91 2034 -91 
Q 1250 -91 836 529 
Q 422 1150 422 2328 
Q 422 3509 836 4129 
Q 1250 4750 2034 4750 
z
" transform="scale(0.015625)"/>
       </defs>
       <use xlink:href="#DejaVuSans-2212"/>
       <use xlink:href="#DejaVuSans-32" x="83.789062"/>
       <use xlink:href="#DejaVuSans-30" x="147.412109"/>
      </g>
     </g>
    </g>
    <g id="xtick_2">
     <g id="line2d_2">
      <g>
       <use xlink:href="#m60ead348da" x="152.15554" y="203.038125" style="stroke: #000000; stroke-width: 0.8"/>
      </g>
     </g>
     <g id="text_2">
      <!-- −15 -->
      <g transform="translate(141.603196 217.636562) scale(0.1 -0.1)">
       <defs>
        <path id="DejaVuSans-31" d="M 794 531 
L 1825 531 
L 1825 4091 
L 703 3866 
L 703 4441 
L 1819 4666 
L 2450 4666 
L 2450 531 
L 3481 531 
L 3481 0 
L 794 0 
L 794 531 
z
" transform="scale(0.015625)"/>
        <path id="DejaVuSans-35" d="M 691 4666 
L 3169 4666 
L 3169 4134 
L 1269 4134 
L 1269 2991 
Q 1406 3038 1543 3061 
Q 1681 3084 1819 3084 
Q 2600 3084 3056 2656 
Q 3513 2228 3513 1497 
Q 3513 744 3044 326 
Q 2575 -91 1722 -91 
Q 1428 -91 1123 -41 
Q 819 9 494 109 
L 494 744 
Q 775 591 1075 516 
Q 1375 441 1709 441 
Q 2250 441 2565 725 
Q 2881 1009 2881 1497 
Q 2881 1984 2565 2268 
Q 2250 2553 1709 2553 
Q 1456 2553 1204 2497 
Q 953 2441 691 2322 
L 691 4666 
z
" transform="scale(0.015625)"/>
       </defs>
       <use xlink:href="#DejaVuSans-2212"/>
       <use xlink:href="#DejaVuSans-31" x="83.789062"/>
       <use xlink:href="#DejaVuSans-35" x="147.412109"/>
      </g>
     </g>
    </g>
    <g id="xtick_3">
     <g id="line2d_3">
      <g>
       <use xlink:href="#m60ead348da" x="215.564631" y="203.038125" style="stroke: #000000; stroke-width: 0.8"/>
      </g>
     </g>
     <g id="text_3">
      <!-- −10 -->
      <g transform="translate(205.012287 217.636562) scale(0.1 -0.1)">
       <use xlink:href="#DejaVuSans-2212"/>
       <use xlink:href="#DejaVuSans-31" x="83.789062"/>
       <use xlink:href="#DejaVuSans-30" x="147.412109"/>
      </g>
     </g>
    </g>
    <g id="xtick_4">
     <g id="line2d_4">
      <g>
       <use xlink:href="#m60ead348da" x="278.973722" y="203.038125" style="stroke: #000000; stroke-width: 0.8"/>
      </g>
     </g>
     <g id="text_4">
      <!-- −5 -->
      <g transform="translate(271.602628 217.636562) scale(0.1 -0.1)">
       <use xlink:href="#DejaVuSans-2212"/>
       <use xlink:href="#DejaVuSans-35" x="83.789062"/>
      </g>
     </g>
    </g>
    <g id="xtick_5">
     <g id="line2d_5">
      <g>
       <use xlink:href="#m60ead348da" x="342.382812" y="203.038125" style="stroke: #000000; stroke-width: 0.8"/>
      </g>
     </g>
     <g id="text_5">
      <!-- 0 -->
      <g transform="translate(339.201563 217.636562) scale(0.1 -0.1)">
       <use xlink:href="#DejaVuSans-30"/>
      </g>
     </g>
    </g>
    <g id="xtick_6">
     <g id="line2d_6">
      <g>
       <use xlink:href="#m60ead348da" x="405.791903" y="203.038125" style="stroke: #000000; stroke-width: 0.8"/>
      </g>
     </g>
     <g id="text_6">
      <!-- 5 -->
      <g transform="translate(402.610653 217.636562) scale(0.1 -0.1)">
       <use xlink:href="#DejaVuSans-35"/>
      </g>
     </g>
    </g>
    <g id="xtick_7">
     <g id="line2d_7">
      <g>
       <use xlink:href="#m60ead348da" x="469.200994" y="203.038125" style="stroke: #000000; stroke-width: 0.8"/>
      </g>
     </g>
     <g id="text_7">
      <!-- 10 -->
      <g transform="translate(462.838494 217.636562) scale(0.1 -0.1)">
       <use xlink:href="#DejaVuSans-31"/>
       <use xlink:href="#DejaVuSans-30" x="63.623047"/>
      </g>
     </g>
    </g>
    <g id="xtick_8">
     <g id="line2d_8">
      <g>
       <use xlink:href="#m60ead348da" x="532.610085" y="203.038125" style="stroke: #000000; stroke-width: 0.8"/>
      </g>
     </g>
     <g id="text_8">
      <!-- 15 -->
      <g transform="translate(526.247585 217.636562) scale(0.1 -0.1)">
       <use xlink:href="#DejaVuSans-31"/>
       <use xlink:href="#DejaVuSans-35" x="63.623047"/>
      </g>
     </g>
    </g>
    <g id="xtick_9">
     <g id="line2d_9">
      <g>
       <use xlink:href="#m60ead348da" x="596.019176" y="203.038125" style="stroke: #000000; stroke-width: 0.8"/>
      </g>
     </g>
     <g id="text_9">
      <!-- 20 -->
      <g transform="translate(589.656676 217.636562) scale(0.1 -0.1)">
       <use xlink:href="#DejaVuSans-32"/>
       <use xlink:href="#DejaVuSans-30" x="63.623047"/>
      </g>
     </g>
    </g>
    <g id="text_10">
     <!-- Time [ms] -->
     <g transform="translate(317.183594 231.314687) scale(0.1 -0.1)">
      <defs>
       <path id="DejaVuSans-54" d="M -19 4666 
L 3928 4666 
L 3928 4134 
L 2272 4134 
L 2272 0 
L 1638 0 
L 1638 4134 
L -19 4134 
L -19 4666 
z
" transform="scale(0.015625)"/>
       <path id="DejaVuSans-69" d="M 603 3500 
L 1178 3500 
L 1178 0 
L 603 0 
L 603 3500 
z
M 603 4863 
L 1178 4863 
L 1178 4134 
L 603 4134 
L 603 4863 
z
" transform="scale(0.015625)"/>
       <path id="DejaVuSans-6d" d="M 3328 2828 
Q 3544 3216 3844 3400 
Q 4144 3584 4550 3584 
Q 5097 3584 5394 3201 
Q 5691 2819 5691 2113 
L 5691 0 
L 5113 0 
L 5113 2094 
Q 5113 2597 4934 2840 
Q 4756 3084 4391 3084 
Q 3944 3084 3684 2787 
Q 3425 2491 3425 1978 
L 3425 0 
L 2847 0 
L 2847 2094 
Q 2847 2600 2669 2842 
Q 2491 3084 2119 3084 
Q 1678 3084 1418 2786 
Q 1159 2488 1159 1978 
L 1159 0 
L 581 0 
L 581 3500 
L 1159 3500 
L 1159 2956 
Q 1356 3278 1631 3431 
Q 1906 3584 2284 3584 
Q 2666 3584 2933 3390 
Q 3200 3197 3328 2828 
z
" transform="scale(0.015625)"/>
       <path id="DejaVuSans-65" d="M 3597 1894 
L 3597 1613 
L 953 1613 
Q 991 1019 1311 708 
Q 1631 397 2203 397 
Q 2534 397 2845 478 
Q 3156 559 3463 722 
L 3463 178 
Q 3153 47 2828 -22 
Q 2503 -91 2169 -91 
Q 1331 -91 842 396 
Q 353 884 353 1716 
Q 353 2575 817 3079 
Q 1281 3584 2069 3584 
Q 2775 3584 3186 3129 
Q 3597 2675 3597 1894 
z
M 3022 2063 
Q 3016 2534 2758 2815 
Q 2500 3097 2075 3097 
Q 1594 3097 1305 2825 
Q 1016 2553 972 2059 
L 3022 2063 
z
" transform="scale(0.015625)"/>
       <path id="DejaVuSans-20" transform="scale(0.015625)"/>
       <path id="DejaVuSans-5b" d="M 550 4863 
L 1875 4863 
L 1875 4416 
L 1125 4416 
L 1125 -397 
L 1875 -397 
L 1875 -844 
L 550 -844 
L 550 4863 
z
" transform="scale(0.015625)"/>
       <path id="DejaVuSans-73" d="M 2834 3397 
L 2834 2853 
Q 2591 2978 2328 3040 
Q 2066 3103 1784 3103 
Q 1356 3103 1142 2972 
Q 928 2841 928 2578 
Q 928 2378 1081 2264 
Q 1234 2150 1697 2047 
L 1894 2003 
Q 2506 1872 2764 1633 
Q 3022 1394 3022 966 
Q 3022 478 2636 193 
Q 2250 -91 1575 -91 
Q 1294 -91 989 -36 
Q 684 19 347 128 
L 347 722 
Q 666 556 975 473 
Q 1284 391 1588 391 
Q 1994 391 2212 530 
Q 2431 669 2431 922 
Q 2431 1156 2273 1281 
Q 2116 1406 1581 1522 
L 1381 1569 
Q 847 1681 609 1914 
Q 372 2147 372 2553 
Q 372 3047 722 3315 
Q 1072 3584 1716 3584 
Q 2034 3584 2315 3537 
Q 2597 3491 2834 3397 
z
" transform="scale(0.015625)"/>
       <path id="DejaVuSans-5d" d="M 1947 4863 
L 1947 -844 
L 622 -844 
L 622 -397 
L 1369 -397 
L 1369 4416 
L 622 4416 
L 622 4863 
L 1947 4863 
z
" transform="scale(0.015625)"/>
      </defs>
      <use xlink:href="#DejaVuSans-54"/>
      <use xlink:href="#DejaVuSans-69" x="57.958984"/>
      <use xlink:href="#DejaVuSans-6d" x="85.742188"/>
      <use xlink:href="#DejaVuSans-65" x="183.154297"/>
      <use xlink:href="#DejaVuSans-20" x="244.677734"/>
      <use xlink:href="#DejaVuSans-5b" x="276.464844"/>
      <use xlink:href="#DejaVuSans-6d" x="315.478516"/>
      <use xlink:href="#DejaVuSans-73" x="412.890625"/>
      <use xlink:href="#DejaVuSans-5d" x="464.990234"/>
     </g>
    </g>
   </g>
   <g id="matplotlib.axis_2">
    <g id="ytick_1">
     <g id="line2d_10">
      <defs>
       <path id="m213f6f8f79" d="M 0 0 
L -3.5 0 
" style="stroke: #000000; stroke-width: 0.8"/>
      </defs>
      <g>
       <use xlink:href="#m213f6f8f79" x="63.382812" y="190.528796" style="stroke: #000000; stroke-width: 0.8"/>
      </g>
     </g>
     <g id="text_11">
      <!-- −30 -->
      <g transform="translate(35.278125 194.328015) scale(0.1 -0.1)">
       <defs>
        <path id="DejaVuSans-33" d="M 2597 2516 
Q 3050 2419 3304 2112 
Q 3559 1806 3559 1356 
Q 3559 666 3084 287 
Q 2609 -91 1734 -91 
Q 1441 -91 1130 -33 
Q 819 25 488 141 
L 488 750 
Q 750 597 1062 519 
Q 1375 441 1716 441 
Q 2309 441 2620 675 
Q 2931 909 2931 1356 
Q 2931 1769 2642 2001 
Q 2353 2234 1838 2234 
L 1294 2234 
L 1294 2753 
L 1863 2753 
Q 2328 2753 2575 2939 
Q 2822 3125 2822 3475 
Q 2822 3834 2567 4026 
Q 2313 4219 1838 4219 
Q 1578 4219 1281 4162 
Q 984 4106 628 3988 
L 628 4550 
Q 988 4650 1302 4700 
Q 1616 4750 1894 4750 
Q 2613 4750 3031 4423 
Q 3450 4097 3450 3541 
Q 3450 3153 3228 2886 
Q 3006 2619 2597 2516 
z
" transform="scale(0.015625)"/>
       </defs>
       <use xlink:href="#DejaVuSans-2212"/>
       <use xlink:href="#DejaVuSans-33" x="83.789062"/>
       <use xlink:href="#DejaVuSans-30" x="147.412109"/>
      </g>
     </g>
    </g>
    <g id="ytick_2">
     <g id="line2d_11">
      <g>
       <use xlink:href="#m213f6f8f79" x="63.382812" y="158.990708" style="stroke: #000000; stroke-width: 0.8"/>
      </g>
     </g>
     <g id="text_12">
      <!-- −20 -->
      <g transform="translate(35.278125 162.789927) scale(0.1 -0.1)">
       <use xlink:href="#DejaVuSans-2212"/>
       <use xlink:href="#DejaVuSans-32" x="83.789062"/>
       <use xlink:href="#DejaVuSans-30" x="147.412109"/>
      </g>
     </g>
    </g>
    <g id="ytick_3">
     <g id="line2d_12">
      <g>
       <use xlink:href="#m213f6f8f79" x="63.382812" y="127.45262" style="stroke: #000000; stroke-width: 0.8"/>
      </g>
     </g>
     <g id="text_13">
      <!-- −10 -->
      <g transform="translate(35.278125 131.251838) scale(0.1 -0.1)">
       <use xlink:href="#DejaVuSans-2212"/>
       <use xlink:href="#DejaVuSans-31" x="83.789062"/>
       <use xlink:href="#DejaVuSans-30" x="147.412109"/>
      </g>
     </g>
    </g>
    <g id="ytick_4">
     <g id="line2d_13">
      <g>
       <use xlink:href="#m213f6f8f79" x="63.382812" y="95.914531" style="stroke: #000000; stroke-width: 0.8"/>
      </g>
     </g>
     <g id="text_14">
      <!-- 0 -->
      <g transform="translate(50.020313 99.71375) scale(0.1 -0.1)">
       <use xlink:href="#DejaVuSans-30"/>
      </g>
     </g>
    </g>
    <g id="ytick_5">
     <g id="line2d_14">
      <g>
       <use xlink:href="#m213f6f8f79" x="63.382812" y="64.376443" style="stroke: #000000; stroke-width: 0.8"/>
      </g>
     </g>
     <g id="text_15">
      <!-- 10 -->
      <g transform="translate(43.657812 68.175662) scale(0.1 -0.1)">
       <use xlink:href="#DejaVuSans-31"/>
       <use xlink:href="#DejaVuSans-30" x="63.623047"/>
      </g>
     </g>
    </g>
    <g id="text_16">
     <!-- Voltage [uV] -->
     <g transform="translate(29.198438 150.714063) rotate(-90) scale(0.1 -0.1)">
      <defs>
       <path id="DejaVuSans-56" d="M 1831 0 
L 50 4666 
L 709 4666 
L 2188 738 
L 3669 4666 
L 4325 4666 
L 2547 0 
L 1831 0 
z
" transform="scale(0.015625)"/>
       <path id="DejaVuSans-6f" d="M 1959 3097 
Q 1497 3097 1228 2736 
Q 959 2375 959 1747 
Q 959 1119 1226 758 
Q 1494 397 1959 397 
Q 2419 397 2687 759 
Q 2956 1122 2956 1747 
Q 2956 2369 2687 2733 
Q 2419 3097 1959 3097 
z
M 1959 3584 
Q 2709 3584 3137 3096 
Q 3566 2609 3566 1747 
Q 3566 888 3137 398 
Q 2709 -91 1959 -91 
Q 1206 -91 779 398 
Q 353 888 353 1747 
Q 353 2609 779 3096 
Q 1206 3584 1959 3584 
z
" transform="scale(0.015625)"/>
       <path id="DejaVuSans-6c" d="M 603 4863 
L 1178 4863 
L 1178 0 
L 603 0 
L 603 4863 
z
" transform="scale(0.015625)"/>
       <path id="DejaVuSans-74" d="M 1172 4494 
L 1172 3500 
L 2356 3500 
L 2356 3053 
L 1172 3053 
L 1172 1153 
Q 1172 725 1289 603 
Q 1406 481 1766 481 
L 2356 481 
L 2356 0 
L 1766 0 
Q 1100 0 847 248 
Q 594 497 594 1153 
L 594 3053 
L 172 3053 
L 172 3500 
L 594 3500 
L 594 4494 
L 1172 4494 
z
" transform="scale(0.015625)"/>
       <path id="DejaVuSans-61" d="M 2194 1759 
Q 1497 1759 1228 1600 
Q 959 1441 959 1056 
Q 959 750 1161 570 
Q 1363 391 1709 391 
Q 2188 391 2477 730 
Q 2766 1069 2766 1631 
L 2766 1759 
L 2194 1759 
z
M 3341 1997 
L 3341 0 
L 2766 0 
L 2766 531 
Q 2569 213 2275 61 
Q 1981 -91 1556 -91 
Q 1019 -91 701 211 
Q 384 513 384 1019 
Q 384 1609 779 1909 
Q 1175 2209 1959 2209 
L 2766 2209 
L 2766 2266 
Q 2766 2663 2505 2880 
Q 2244 3097 1772 3097 
Q 1472 3097 1187 3025 
Q 903 2953 641 2809 
L 641 3341 
Q 956 3463 1253 3523 
Q 1550 3584 1831 3584 
Q 2591 3584 2966 3190 
Q 3341 2797 3341 1997 
z
" transform="scale(0.015625)"/>
       <path id="DejaVuSans-67" d="M 2906 1791 
Q 2906 2416 2648 2759 
Q 2391 3103 1925 3103 
Q 1463 3103 1205 2759 
Q 947 2416 947 1791 
Q 947 1169 1205 825 
Q 1463 481 1925 481 
Q 2391 481 2648 825 
Q 2906 1169 2906 1791 
z
M 3481 434 
Q 3481 -459 3084 -895 
Q 2688 -1331 1869 -1331 
Q 1566 -1331 1297 -1286 
Q 1028 -1241 775 -1147 
L 775 -588 
Q 1028 -725 1275 -790 
Q 1522 -856 1778 -856 
Q 2344 -856 2625 -561 
Q 2906 -266 2906 331 
L 2906 616 
Q 2728 306 2450 153 
Q 2172 0 1784 0 
Q 1141 0 747 490 
Q 353 981 353 1791 
Q 353 2603 747 3093 
Q 1141 3584 1784 3584 
Q 2172 3584 2450 3431 
Q 2728 3278 2906 2969 
L 2906 3500 
L 3481 3500 
L 3481 434 
z
" transform="scale(0.015625)"/>
       <path id="DejaVuSans-75" d="M 544 1381 
L 544 3500 
L 1119 3500 
L 1119 1403 
Q 1119 906 1312 657 
Q 1506 409 1894 409 
Q 2359 409 2629 706 
Q 2900 1003 2900 1516 
L 2900 3500 
L 3475 3500 
L 3475 0 
L 2900 0 
L 2900 538 
Q 2691 219 2414 64 
Q 2138 -91 1772 -91 
Q 1169 -91 856 284 
Q 544 659 544 1381 
z
M 1991 3584 
L 1991 3584 
z
" transform="scale(0.015625)"/>
      </defs>
      <use xlink:href="#DejaVuSans-56"/>
      <use xlink:href="#DejaVuSans-6f" x="60.658203"/>
      <use xlink:href="#DejaVuSans-6c" x="121.839844"/>
      <use xlink:href="#DejaVuSans-74" x="149.623047"/>
      <use xlink:href="#DejaVuSans-61" x="188.832031"/>
      <use xlink:href="#DejaVuSans-67" x="250.111328"/>
      <use xlink:href="#DejaVuSans-65" x="313.587891"/>
      <use xlink:href="#DejaVuSans-20" x="375.111328"/>
      <use xlink:href="#DejaVuSans-5b" x="406.898438"/>
      <use xlink:href="#DejaVuSans-75" x="445.912109"/>
      <use xlink:href="#DejaVuSans-56" x="509.291016"/>
      <use xlink:href="#DejaVuSans-5d" x="577.699219"/>
     </g>
    </g>
   </g>
   <g id="line2d_15">
    <path d="M 88.746449 89.220226 
L 89.381333 86.419323 
L 90.651102 101.720922 
L 91.285987 63.228352 
L 91.920871 92.012692 
L 92.555756 91.704832 
L 93.19064 83.718638 
L 93.825525 101.55128 
L 94.460409 140.140153 
L 95.095294 146.333849 
L 95.730179 128.997465 
L 96.365063 96.35785 
L 96.999948 77.906503 
L 97.634832 104.205272 
L 98.269717 88.292226 
L 98.904601 117.648176 
L 99.539486 80.178046 
L 100.17437 85.047189 
L 100.809255 98.457791 
L 101.444139 81.423991 
L 102.079024 102.564882 
L 102.713908 99.370743 
L 103.348793 87.617319 
L 103.983677 105.638135 
L 104.618562 93.020096 
L 105.253446 97.721114 
L 105.888331 107.135472 
L 106.523215 85.415646 
L 107.1581 101.099959 
L 107.792984 94.517365 
L 108.427869 106.304749 
L 109.062753 105.329974 
L 109.697638 82.166761 
L 110.332522 84.648184 
L 110.967407 106.775163 
L 111.602291 49.102039 
L 112.237176 74.930881 
L 112.87206 114.354358 
L 113.506945 104.660914 
L 114.141829 118.103214 
L 114.776714 102.428503 
L 115.411598 102.224315 
L 116.046483 78.636474 
L 116.681368 103.662974 
L 117.316252 115.040489 
L 117.951137 115.069841 
L 118.586021 116.908708 
L 119.220906 87.261883 
L 119.85579 81.770822 
L 120.490675 82.974381 
L 121.125559 80.964829 
L 121.760444 97.900756 
L 123.030213 77.298347 
L 123.665097 71.068183 
L 124.299982 61.128369 
L 124.934866 98.908637 
L 125.569751 97.960087 
L 126.204635 76.269613 
L 126.83952 75.849702 
L 127.474404 104.64549 
L 128.109289 113.474189 
L 128.744173 73.361909 
L 129.379058 81.04824 
L 130.648827 127.984757 
L 131.283711 101.933178 
L 131.918596 109.106373 
L 132.55348 97.916074 
L 133.188365 91.403662 
L 133.823249 97.748957 
L 134.458134 89.597443 
L 135.093018 117.455921 
L 135.727903 113.505523 
L 136.362787 138.59693 
L 136.997672 91.17939 
L 138.902326 120.48156 
L 139.53721 90.655919 
L 140.172095 101.999256 
L 140.806979 119.983384 
L 141.441864 94.545151 
L 142.076748 135.929536 
L 142.711633 85.130052 
L 143.346517 83.812571 
L 143.981402 76.784021 
L 144.616286 100.178567 
L 145.251171 99.632796 
L 145.886055 100.756122 
L 146.52094 86.665042 
L 147.155824 65.206581 
L 147.790709 100.03895 
L 148.425593 76.496317 
L 149.060478 70.312842 
L 149.695362 76.756404 
L 150.330247 44.278125 
L 150.965131 58.552153 
L 151.600016 101.930769 
L 152.2349 65.501874 
L 152.869785 72.955899 
L 153.504669 104.336721 
L 154.774438 119.072239 
L 155.409323 120.521981 
L 156.044207 109.699522 
L 156.679092 96.839154 
L 157.313976 110.04258 
L 157.948861 98.502051 
L 158.583745 96.737802 
L 159.21863 121.812534 
L 159.853515 100.547848 
L 160.488399 116.325136 
L 161.123284 108.578885 
L 161.758168 85.70571 
L 162.393053 106.713143 
L 163.027937 83.430629 
L 163.662822 86.983141 
L 164.297706 103.938915 
L 164.932591 80.776858 
L 165.567475 80.174753 
L 166.20236 90.572888 
L 167.472129 120.074811 
L 168.107013 70.734082 
L 168.741898 87.49532 
L 169.376782 97.341834 
L 170.011667 90.003083 
L 170.646551 117.77452 
L 171.281436 90.696837 
L 171.91632 106.815462 
L 172.551205 81.585899 
L 173.186089 79.829307 
L 173.820974 110.652047 
L 174.455858 85.998814 
L 175.090743 78.281838 
L 175.725627 92.098213 
L 176.360512 92.110089 
L 176.995396 96.273179 
L 177.630281 123.233827 
L 178.265165 72.080437 
L 178.90005 89.23315 
L 179.534934 114.857713 
L 180.169819 109.393679 
L 180.804704 109.008841 
L 181.439588 93.898399 
L 182.074473 125.279593 
L 183.979126 72.708933 
L 185.248895 114.360502 
L 185.88378 111.286287 
L 186.518664 104.960855 
L 187.153549 105.321433 
L 187.788433 105.407292 
L 188.423318 82.067989 
L 189.058202 109.557466 
L 189.693087 87.023498 
L 190.327971 86.658556 
L 190.962856 96.818068 
L 191.59774 94.505679 
L 192.232625 93.625945 
L 192.867509 74.654797 
L 193.502394 112.513293 
L 194.137278 114.416754 
L 194.772163 112.899028 
L 195.407047 95.085286 
L 196.041932 61.578012 
L 196.676816 85.530837 
L 197.311701 92.622937 
L 197.946585 78.979457 
L 198.58147 81.813381 
L 199.216354 101.86405 
L 199.851239 109.726649 
L 200.486123 88.365771 
L 201.121008 72.447209 
L 201.755892 90.741909 
L 202.390777 71.471871 
L 203.025662 82.528681 
L 203.660546 84.072532 
L 204.295431 78.4674 
L 204.930315 96.129932 
L 205.5652 88.386641 
L 206.200084 93.515506 
L 206.834969 87.691022 
L 207.469853 124.197659 
L 208.104738 93.626265 
L 208.739622 94.06031 
L 209.374507 98.86038 
L 210.009391 94.081788 
L 210.644276 111.45136 
L 211.27916 90.388002 
L 211.914045 102.561088 
L 212.548929 95.846935 
L 213.183814 102.998637 
L 213.818698 107.347207 
L 214.453583 85.751248 
L 215.088467 94.115879 
L 215.723352 105.586338 
L 216.993121 120.702483 
L 217.628005 83.838928 
L 218.26289 86.205762 
L 218.897774 78.212259 
L 219.532659 83.871869 
L 220.167543 94.037625 
L 221.437312 80.322021 
L 222.072197 55.008115 
L 222.707081 86.320074 
L 223.341966 129.863282 
L 223.976851 127.459587 
L 224.611735 113.101278 
L 225.24662 104.774325 
L 225.881504 119.686225 
L 226.516389 117.318035 
L 227.151273 110.225529 
L 227.786158 130.679752 
L 228.421042 103.761523 
L 229.055927 100.592748 
L 229.690811 88.601534 
L 230.325696 103.925497 
L 230.96058 107.802143 
L 231.595465 89.612239 
L 232.230349 88.811303 
L 232.865234 80.992678 
L 233.500118 130.66227 
L 234.135003 113.705509 
L 234.769887 91.307551 
L 235.404772 79.484057 
L 236.039656 58.088175 
L 236.674541 87.769471 
L 237.309425 84.521929 
L 237.94431 88.714825 
L 238.579194 108.514185 
L 239.214079 122.254626 
L 239.848963 94.421833 
L 240.483848 84.409283 
L 241.118732 91.474658 
L 241.753617 96.285123 
L 242.388501 109.541684 
L 243.023386 101.260367 
L 243.65827 73.000299 
L 244.293155 63.01947 
L 244.928039 125.151623 
L 246.197809 73.492971 
L 246.832693 73.330282 
L 247.467578 72.360509 
L 248.102462 113.298508 
L 248.737347 105.111892 
L 249.372231 104.557184 
L 250.642 92.647858 
L 251.276885 99.902999 
L 251.911769 83.140419 
L 252.546654 87.070966 
L 253.181538 79.764364 
L 253.816423 90.112626 
L 254.451307 104.088352 
L 255.086192 92.373708 
L 255.721076 93.427997 
L 256.355961 104.26238 
L 256.990845 85.953806 
L 257.62573 72.235001 
L 258.260614 95.228097 
L 258.895499 122.952584 
L 259.530383 100.360391 
L 260.165268 92.816272 
L 260.800152 139.480806 
L 261.435037 96.841327 
L 262.069921 109.861552 
L 262.704806 105.546841 
L 263.33969 100.010768 
L 263.974575 112.232046 
L 264.609459 98.172029 
L 265.879228 78.435092 
L 266.514113 104.490349 
L 267.148998 88.691313 
L 267.783882 83.460053 
L 268.418767 107.348324 
L 269.053651 89.006752 
L 269.688536 79.003817 
L 270.32342 81.207363 
L 270.958305 73.731948 
L 271.593189 100.069236 
L 272.228074 97.670472 
L 272.862958 106.857041 
L 273.497843 93.639954 
L 274.132727 117.543801 
L 274.767612 91.201887 
L 275.402496 79.200365 
L 276.037381 108.253693 
L 276.672265 99.396892 
L 277.30715 122.727397 
L 277.942034 85.829944 
L 278.576919 75.037343 
L 279.211803 78.428549 
L 279.846688 67.331232 
L 280.481572 74.08434 
L 281.116457 65.218358 
L 282.386226 92.723507 
L 283.02111 65.877845 
L 283.655995 78.537753 
L 284.290879 78.607964 
L 284.925764 94.018827 
L 285.560648 88.222077 
L 286.195533 86.900666 
L 286.830417 103.964133 
L 287.465302 73.177002 
L 288.100186 74.193069 
L 288.735071 66.999619 
L 290.00484 168.62651 
L 290.639725 195.478125 
L 291.274609 157.295124 
L 291.909494 126.358835 
L 292.544378 136.343499 
L 293.179263 115.654366 
L 293.814147 137.146373 
L 294.449032 114.780047 
L 295.083916 109.268106 
L 295.718801 114.523285 
L 296.353685 81.589253 
L 296.98857 72.473233 
L 297.623454 98.351074 
L 298.258339 83.369658 
L 298.893223 80.172007 
L 299.528108 101.737148 
L 300.162992 77.429722 
L 300.797877 62.418694 
L 301.432761 94.994365 
L 302.067646 88.437685 
L 302.70253 63.329651 
L 303.337415 101.702542 
L 303.972299 106.635202 
L 304.607184 114.508123 
L 305.242068 104.361619 
L 305.876953 129.903995 
L 306.511837 89.111399 
L 307.146722 84.502977 
L 307.781606 118.714394 
L 308.416491 75.423292 
L 309.051375 121.852318 
L 309.68626 117.380467 
L 310.321145 83.158961 
L 310.956029 60.288031 
L 312.225798 104.006899 
L 312.860683 81.949728 
L 313.495567 83.103823 
L 314.130452 102.163777 
L 314.765336 108.283154 
L 315.400221 115.512252 
L 316.035105 108.827995 
L 316.66999 88.142661 
L 317.304874 102.578345 
L 317.939759 78.45802 
L 318.574643 75.389055 
L 319.209528 96.28641 
L 319.844412 70.917889 
L 320.479297 71.515886 
L 321.114181 84.233727 
L 321.749066 85.945112 
L 322.38395 80.882269 
L 323.018835 79.317547 
L 323.653719 107.583014 
L 324.288604 79.33102 
L 324.923488 86.819821 
L 325.558373 89.094588 
L 326.193257 84.979269 
L 326.828142 106.803911 
L 327.463026 86.655121 
L 328.097911 92.522887 
L 328.732795 83.831064 
L 329.36768 86.254276 
L 330.002564 95.565933 
L 330.637449 107.692581 
L 331.272333 84.97028 
L 331.907218 84.270732 
L 332.542103 113.566804 
L 333.176987 122.990375 
L 333.811872 120.50297 
L 334.446756 108.836846 
L 335.081641 104.582999 
L 335.716525 85.46476 
L 336.35141 106.428333 
L 336.986294 106.373149 
L 337.621179 87.936747 
L 338.256063 94.07259 
L 338.890948 105.711271 
L 339.525832 100.224679 
L 340.160717 82.285923 
L 340.795601 99.616244 
L 341.430486 97.635014 
L 342.06537 102.085903 
L 342.700255 98.282582 
L 343.335139 90.410141 
L 343.970024 91.023109 
L 344.604908 70.736021 
L 345.874677 97.185098 
L 346.509562 92.856919 
L 347.144446 82.437912 
L 347.779331 76.767457 
L 348.414215 77.555418 
L 349.0491 92.194085 
L 349.683984 78.869849 
L 350.318869 62.877253 
L 350.953753 87.021755 
L 351.588638 72.452212 
L 352.223522 73.132344 
L 352.858407 103.694124 
L 353.493292 79.660597 
L 354.128176 106.166969 
L 354.763061 179.198783 
L 355.397945 170.881027 
L 356.03283 141.759792 
L 356.667714 120.709474 
L 357.302599 109.421547 
L 357.937483 130.917036 
L 358.572368 132.622182 
L 359.207252 111.091449 
L 359.842137 95.746566 
L 360.477021 101.198665 
L 361.111906 102.111202 
L 361.74679 95.696363 
L 362.381675 101.277179 
L 363.016559 97.040456 
L 363.651444 80.311239 
L 364.286328 81.862681 
L 364.921213 113.59884 
L 365.556097 90.761221 
L 366.190982 101.471749 
L 366.825866 85.007534 
L 367.460751 91.851605 
L 368.095635 128.579831 
L 368.73052 76.080327 
L 369.365404 76.352081 
L 370.000289 81.795105 
L 370.635173 93.138644 
L 371.270058 97.291253 
L 371.904942 103.273014 
L 372.539827 107.191884 
L 373.174711 79.657163 
L 373.809596 69.689761 
L 374.44448 108.340069 
L 375.079365 69.061772 
L 375.71425 79.79568 
L 376.349134 118.25146 
L 376.984019 71.455606 
L 377.618903 93.670452 
L 378.253788 96.188582 
L 378.888672 88.193153 
L 379.523557 92.469834 
L 380.158441 115.954723 
L 380.793326 75.671406 
L 381.42821 93.287349 
L 382.063095 115.919087 
L 382.697979 98.868147 
L 383.332864 114.841536 
L 383.967748 63.773841 
L 384.602633 71.235191 
L 385.237517 94.978181 
L 385.872402 91.510715 
L 386.507286 94.676349 
L 387.777055 105.910005 
L 388.41194 112.16522 
L 389.046824 81.943143 
L 389.681709 60.871802 
L 390.316593 65.223261 
L 390.951478 90.042935 
L 391.586362 88.364411 
L 392.221247 87.118771 
L 392.856131 104.647891 
L 393.491016 88.372522 
L 394.1259 104.864325 
L 394.760785 93.188845 
L 395.395669 95.16845 
L 396.030554 100.966637 
L 396.665439 93.388057 
L 397.300323 77.90769 
L 397.935208 93.357761 
L 398.570092 94.15496 
L 399.204977 85.219417 
L 399.839861 99.928318 
L 400.474746 83.104014 
L 401.10963 123.544142 
L 401.744515 105.459054 
L 402.379399 83.221632 
L 403.014284 106.786919 
L 403.649168 110.569371 
L 404.284053 121.549296 
L 404.918937 107.180744 
L 405.553822 75.973627 
L 406.823591 114.61065 
L 407.458475 126.227123 
L 408.09336 143.391775 
L 408.728244 114.201102 
L 409.363129 103.296139 
L 409.998013 88.624204 
L 410.632898 94.574973 
L 411.267782 79.024801 
L 411.902667 69.254801 
L 412.537551 78.655501 
L 413.172436 98.047962 
L 413.80732 89.997638 
L 414.442205 67.167515 
L 415.077089 111.224609 
L 415.711974 109.444335 
L 416.346858 89.455872 
L 416.981743 88.968517 
L 418.251512 113.994361 
L 418.886397 113.701216 
L 419.521281 87.379028 
L 420.156166 96.94416 
L 421.425935 74.012516 
L 422.060819 105.066789 
L 423.330588 87.327642 
L 423.965473 102.361539 
L 424.600357 111.557024 
L 425.235242 93.329848 
L 425.870126 79.982377 
L 426.505011 85.425629 
L 427.139895 105.142477 
L 427.77478 78.664539 
L 428.409664 110.755416 
L 429.044549 102.59939 
L 429.679433 79.562048 
L 430.314318 109.922287 
L 431.584087 82.849066 
L 432.853856 122.28382 
L 433.48874 115.82725 
L 434.123625 107.721707 
L 434.758509 86.405722 
L 435.393394 93.299894 
L 436.028278 85.809778 
L 436.663163 109.152311 
L 437.932932 77.771717 
L 438.567816 92.427988 
L 439.202701 81.537466 
L 439.837586 85.553443 
L 440.47247 61.992879 
L 441.107355 86.075891 
L 441.742239 120.583674 
L 443.012008 78.940595 
L 443.646893 98.334954 
L 444.281777 109.24672 
L 444.916662 113.177023 
L 445.551546 109.404602 
L 446.186431 85.663065 
L 446.821315 76.951244 
L 448.091084 110.287067 
L 448.725969 96.672948 
L 449.360853 99.949066 
L 449.995738 97.054849 
L 450.630622 95.762003 
L 451.265507 113.478803 
L 451.900391 83.598273 
L 452.535276 114.556897 
L 453.17016 91.773844 
L 453.805045 60.897162 
L 454.439929 85.881814 
L 455.074814 88.992603 
L 455.709698 104.081598 
L 456.344583 105.33672 
L 456.979467 124.249968 
L 457.614352 100.078668 
L 458.249236 97.799058 
L 458.884121 75.07301 
L 459.519005 92.968484 
L 460.15389 96.767253 
L 460.788774 82.042746 
L 461.423659 116.616135 
L 462.058544 90.189488 
L 462.693428 89.149201 
L 463.328313 101.375935 
L 463.963197 97.421114 
L 464.598082 97.118703 
L 465.232966 117.466838 
L 465.867851 113.678806 
L 466.502735 98.251 
L 467.13762 98.152503 
L 467.772504 84.052719 
L 468.407389 107.112435 
L 469.042273 118.528224 
L 469.677158 101.199386 
L 470.312042 119.251952 
L 470.946927 100.717203 
L 471.581811 94.191954 
L 472.216696 89.695607 
L 472.85158 81.440865 
L 473.486465 89.687274 
L 474.121349 71.116108 
L 474.756234 81.043822 
L 475.391118 122.213839 
L 476.026003 75.480673 
L 476.660887 60.036408 
L 477.295772 98.853696 
L 477.930656 77.660075 
L 478.565541 116.738925 
L 479.200425 84.664906 
L 479.83531 91.620779 
L 480.470194 117.337907 
L 481.105079 78.832716 
L 481.739963 98.20427 
L 482.374848 85.733802 
L 483.009733 99.848495 
L 483.644617 118.457225 
L 484.279502 97.066476 
L 484.914386 79.823721 
L 485.549271 80.639655 
L 486.184155 91.595788 
L 486.81904 96.081735 
L 487.453924 78.125749 
L 488.088809 68.982098 
L 488.723693 94.760613 
L 489.358578 111.273333 
L 489.993462 118.743199 
L 490.628347 122.717002 
L 491.263231 103.945598 
L 491.898116 119.310049 
L 492.533 110.632227 
L 493.167885 78.922414 
L 493.802769 117.885056 
L 494.437654 91.35824 
L 495.072538 78.334719 
L 495.707423 89.606116 
L 496.342307 80.519158 
L 496.977192 87.222636 
L 497.612076 90.592992 
L 498.246961 111.905717 
L 498.881845 99.933162 
L 499.51673 96.634768 
L 500.151614 99.313678 
L 500.786499 124.435288 
L 501.421383 121.340783 
L 502.691152 87.932018 
L 503.326037 73.663931 
L 503.960921 87.057796 
L 504.595806 93.457678 
L 505.230691 104.598892 
L 505.865575 83.698514 
L 506.50046 88.301706 
L 507.135344 99.115392 
L 507.770229 83.075832 
L 508.405113 96.66002 
L 509.039998 100.002471 
L 509.674882 86.79301 
L 510.309767 82.511498 
L 510.944651 81.823907 
L 511.579536 100.103868 
L 512.21442 102.676925 
L 513.484189 59.582434 
L 514.119074 53.593032 
L 514.753958 96.471781 
L 515.388843 103.879159 
L 516.023727 90.372521 
L 516.658612 103.151409 
L 517.293496 72.67995 
L 517.928381 77.846873 
L 518.563265 76.641223 
L 519.19815 101.75057 
L 519.833034 93.689422 
L 520.467919 71.526923 
L 521.102803 96.805858 
L 521.737688 75.724389 
L 522.372572 90.323562 
L 523.007457 71.913988 
L 523.642341 106.22877 
L 524.277226 122.235768 
L 524.91211 132.820765 
L 525.546995 154.162368 
L 526.18188 136.243672 
L 526.816764 138.836308 
L 527.451649 123.22662 
L 528.086533 119.348291 
L 528.721418 107.268397 
L 529.356302 137.545464 
L 529.991187 96.342384 
L 530.626071 74.130991 
L 531.260956 135.945437 
L 531.89584 111.757144 
L 532.530725 80.930052 
L 533.165609 84.984518 
L 533.800494 111.478226 
L 534.435378 132.177493 
L 535.070263 107.653652 
L 535.705147 98.345436 
L 536.340032 101.423345 
L 536.974916 94.170238 
L 537.609801 111.840265 
L 538.244685 106.716773 
L 538.87957 89.078706 
L 539.514454 105.827354 
L 540.149339 97.7031 
L 540.784223 82.250621 
L 541.419108 86.047366 
L 542.053992 79.006161 
L 542.688877 60.872951 
L 543.323761 66.542517 
L 543.958646 68.918158 
L 544.59353 82.342449 
L 545.228415 83.123103 
L 545.863299 80.867516 
L 546.498184 91.185558 
L 547.133069 84.235936 
L 547.767953 98.631115 
L 548.402838 81.983978 
L 549.037722 94.369429 
L 550.307491 83.28828 
L 550.942376 84.64409 
L 551.57726 89.947886 
L 552.212145 109.28407 
L 552.847029 84.174361 
L 553.481914 85.951144 
L 554.116798 101.605617 
L 554.751683 93.384768 
L 555.386567 91.792534 
L 556.021452 103.920814 
L 556.656336 79.329035 
L 557.291221 88.038585 
L 557.926105 86.979115 
L 558.56099 88.774481 
L 559.195874 92.625969 
L 559.830759 73.511765 
L 560.465643 102.451115 
L 561.100528 87.119224 
L 561.735412 95.579653 
L 562.370297 110.50607 
L 563.005181 92.343457 
L 563.640066 130.728831 
L 564.27495 92.170649 
L 564.909835 103.472393 
L 565.544719 127.706982 
L 566.179604 98.189444 
L 566.814488 91.997018 
L 567.449373 102.541877 
L 568.084257 101.933413 
L 568.719142 82.066534 
L 569.354027 121.870497 
L 569.988911 91.498174 
L 570.623796 93.38012 
L 571.25868 97.041515 
L 571.893565 63.783433 
L 572.528449 72.307954 
L 573.163334 101.902065 
L 574.433103 118.487593 
L 575.067987 106.983713 
L 575.702872 106.690178 
L 576.337756 94.62144 
L 576.972641 102.09163 
L 577.607525 118.750661 
L 578.24241 94.156862 
L 578.877294 96.423332 
L 579.512179 81.595215 
L 580.147063 100.258192 
L 580.781948 101.275083 
L 581.416832 104.441206 
L 582.051717 90.470437 
L 582.686601 98.497137 
L 583.321486 91.038112 
L 583.95637 86.677139 
L 584.591255 89.515295 
L 585.226139 103.954813 
L 585.861024 84.146093 
L 586.495908 81.966828 
L 587.130793 113.776058 
L 587.765677 90.716363 
L 588.400562 85.642208 
L 589.035446 102.428067 
L 589.670331 110.532711 
L 590.305216 92.416769 
L 590.9401 109.798361 
L 591.574985 96.903417 
L 592.209869 101.31907 
L 592.844754 123.844682 
L 593.479638 139.848056 
L 594.114523 84.668254 
L 594.749407 67.327508 
L 595.384292 122.059592 
L 596.019176 96.522908 
L 596.019176 96.522908 
" clip-path="url(#pebbd1a0efd)" style="fill: none; stroke: #1f77b4; stroke-width: 1.5; stroke-linecap: square"/>
   </g>
   <g id="line2d_16">
    <path d="M 342.700255 98.282582 
L 343.335139 90.410141 
L 343.970024 91.023109 
L 344.604908 70.736021 
L 345.239793 84.492997 
L 345.874677 97.185098 
L 346.509562 92.856919 
L 347.144446 82.437912 
L 347.779331 76.767457 
L 348.414215 77.555418 
L 349.0491 92.194085 
L 349.683984 78.869849 
L 350.318869 62.877253 
L 350.953753 87.021755 
L 351.588638 72.452212 
L 352.223522 73.132344 
L 352.858407 103.694124 
L 353.493292 79.660597 
L 354.128176 106.166969 
L 354.763061 179.198783 
L 355.397945 170.881027 
L 356.03283 141.759792 
L 356.667714 120.709474 
L 357.302599 109.421547 
L 357.937483 130.917036 
L 358.572368 132.622182 
L 359.207252 111.091449 
L 359.842137 95.746566 
L 360.477021 101.198665 
L 361.111906 102.111202 
L 361.74679 95.696363 
L 362.381675 101.277179 
L 363.016559 97.040456 
L 363.651444 80.311239 
L 364.286328 81.862681 
L 364.921213 113.59884 
L 365.556097 90.761221 
L 366.190982 101.471749 
L 366.825866 85.007534 
L 367.460751 91.851605 
" clip-path="url(#pebbd1a0efd)" style="fill: none; stroke: #ff0000; stroke-width: 1.5; stroke-linecap: square"/>
   </g>
   <g id="patch_3">
    <path d="M 63.382812 203.038125 
L 63.382812 36.718125 
" style="fill: none; stroke: #000000; stroke-width: 0.8; stroke-linejoin: miter; stroke-linecap: square"/>
   </g>
   <g id="patch_4">
    <path d="M 621.382812 203.038125 
L 621.382812 36.718125 
" style="fill: none; stroke: #000000; stroke-width: 0.8; stroke-linejoin: miter; stroke-linecap: square"/>
   </g>
   <g id="patch_5">
    <path d="M 63.382812 203.038125 
L 621.382812 203.038125 
" style="fill: none; stroke: #000000; stroke-width: 0.8; stroke-linejoin: miter; stroke-linecap: square"/>
   </g>
   <g id="patch_6">
    <path d="M 63.382812 36.718125 
L 621.382812 36.718125 
" style="fill: none; stroke: #000000; stroke-width: 0.8; stroke-linejoin: miter; stroke-linecap: square"/>
   </g>
   <g id="text_17">
    <!-- Channel:13, Time stamp : 485016 -->
    <g transform="translate(240.144688 30.718125) scale(0.12 -0.12)">
     <defs>
      <path id="DejaVuSans-43" d="M 4122 4306 
L 4122 3641 
Q 3803 3938 3442 4084 
Q 3081 4231 2675 4231 
Q 1875 4231 1450 3742 
Q 1025 3253 1025 2328 
Q 1025 1406 1450 917 
Q 1875 428 2675 428 
Q 3081 428 3442 575 
Q 3803 722 4122 1019 
L 4122 359 
Q 3791 134 3420 21 
Q 3050 -91 2638 -91 
Q 1578 -91 968 557 
Q 359 1206 359 2328 
Q 359 3453 968 4101 
Q 1578 4750 2638 4750 
Q 3056 4750 3426 4639 
Q 3797 4528 4122 4306 
z
" transform="scale(0.015625)"/>
      <path id="DejaVuSans-68" d="M 3513 2113 
L 3513 0 
L 2938 0 
L 2938 2094 
Q 2938 2591 2744 2837 
Q 2550 3084 2163 3084 
Q 1697 3084 1428 2787 
Q 1159 2491 1159 1978 
L 1159 0 
L 581 0 
L 581 4863 
L 1159 4863 
L 1159 2956 
Q 1366 3272 1645 3428 
Q 1925 3584 2291 3584 
Q 2894 3584 3203 3211 
Q 3513 2838 3513 2113 
z
" transform="scale(0.015625)"/>
      <path id="DejaVuSans-6e" d="M 3513 2113 
L 3513 0 
L 2938 0 
L 2938 2094 
Q 2938 2591 2744 2837 
Q 2550 3084 2163 3084 
Q 1697 3084 1428 2787 
Q 1159 2491 1159 1978 
L 1159 0 
L 581 0 
L 581 3500 
L 1159 3500 
L 1159 2956 
Q 1366 3272 1645 3428 
Q 1925 3584 2291 3584 
Q 2894 3584 3203 3211 
Q 3513 2838 3513 2113 
z
" transform="scale(0.015625)"/>
      <path id="DejaVuSans-3a" d="M 750 794 
L 1409 794 
L 1409 0 
L 750 0 
L 750 794 
z
M 750 3309 
L 1409 3309 
L 1409 2516 
L 750 2516 
L 750 3309 
z
" transform="scale(0.015625)"/>
      <path id="DejaVuSans-2c" d="M 750 794 
L 1409 794 
L 1409 256 
L 897 -744 
L 494 -744 
L 750 256 
L 750 794 
z
" transform="scale(0.015625)"/>
      <path id="DejaVuSans-70" d="M 1159 525 
L 1159 -1331 
L 581 -1331 
L 581 3500 
L 1159 3500 
L 1159 2969 
Q 1341 3281 1617 3432 
Q 1894 3584 2278 3584 
Q 2916 3584 3314 3078 
Q 3713 2572 3713 1747 
Q 3713 922 3314 415 
Q 2916 -91 2278 -91 
Q 1894 -91 1617 61 
Q 1341 213 1159 525 
z
M 3116 1747 
Q 3116 2381 2855 2742 
Q 2594 3103 2138 3103 
Q 1681 3103 1420 2742 
Q 1159 2381 1159 1747 
Q 1159 1113 1420 752 
Q 1681 391 2138 391 
Q 2594 391 2855 752 
Q 3116 1113 3116 1747 
z
" transform="scale(0.015625)"/>
      <path id="DejaVuSans-34" d="M 2419 4116 
L 825 1625 
L 2419 1625 
L 2419 4116 
z
M 2253 4666 
L 3047 4666 
L 3047 1625 
L 3713 1625 
L 3713 1100 
L 3047 1100 
L 3047 0 
L 2419 0 
L 2419 1100 
L 313 1100 
L 313 1709 
L 2253 4666 
z
" transform="scale(0.015625)"/>
      <path id="DejaVuSans-38" d="M 2034 2216 
Q 1584 2216 1326 1975 
Q 1069 1734 1069 1313 
Q 1069 891 1326 650 
Q 1584 409 2034 409 
Q 2484 409 2743 651 
Q 3003 894 3003 1313 
Q 3003 1734 2745 1975 
Q 2488 2216 2034 2216 
z
M 1403 2484 
Q 997 2584 770 2862 
Q 544 3141 544 3541 
Q 544 4100 942 4425 
Q 1341 4750 2034 4750 
Q 2731 4750 3128 4425 
Q 3525 4100 3525 3541 
Q 3525 3141 3298 2862 
Q 3072 2584 2669 2484 
Q 3125 2378 3379 2068 
Q 3634 1759 3634 1313 
Q 3634 634 3220 271 
Q 2806 -91 2034 -91 
Q 1263 -91 848 271 
Q 434 634 434 1313 
Q 434 1759 690 2068 
Q 947 2378 1403 2484 
z
M 1172 3481 
Q 1172 3119 1398 2916 
Q 1625 2713 2034 2713 
Q 2441 2713 2670 2916 
Q 2900 3119 2900 3481 
Q 2900 3844 2670 4047 
Q 2441 4250 2034 4250 
Q 1625 4250 1398 4047 
Q 1172 3844 1172 3481 
z
" transform="scale(0.015625)"/>
      <path id="DejaVuSans-36" d="M 2113 2584 
Q 1688 2584 1439 2293 
Q 1191 2003 1191 1497 
Q 1191 994 1439 701 
Q 1688 409 2113 409 
Q 2538 409 2786 701 
Q 3034 994 3034 1497 
Q 3034 2003 2786 2293 
Q 2538 2584 2113 2584 
z
M 3366 4563 
L 3366 3988 
Q 3128 4100 2886 4159 
Q 2644 4219 2406 4219 
Q 1781 4219 1451 3797 
Q 1122 3375 1075 2522 
Q 1259 2794 1537 2939 
Q 1816 3084 2150 3084 
Q 2853 3084 3261 2657 
Q 3669 2231 3669 1497 
Q 3669 778 3244 343 
Q 2819 -91 2113 -91 
Q 1303 -91 875 529 
Q 447 1150 447 2328 
Q 447 3434 972 4092 
Q 1497 4750 2381 4750 
Q 2619 4750 2861 4703 
Q 3103 4656 3366 4563 
z
" transform="scale(0.015625)"/>
     </defs>
     <use xlink:href="#DejaVuSans-43"/>
     <use xlink:href="#DejaVuSans-68" x="69.824219"/>
     <use xlink:href="#DejaVuSans-61" x="133.203125"/>
     <use xlink:href="#DejaVuSans-6e" x="194.482422"/>
     <use xlink:href="#DejaVuSans-6e" x="257.861328"/>
     <use xlink:href="#DejaVuSans-65" x="321.240234"/>
     <use xlink:href="#DejaVuSans-6c" x="382.763672"/>
     <use xlink:href="#DejaVuSans-3a" x="410.546875"/>
     <use xlink:href="#DejaVuSans-31" x="444.238281"/>
     <use xlink:href="#DejaVuSans-33" x="507.861328"/>
     <use xlink:href="#DejaVuSans-2c" x="571.484375"/>
     <use xlink:href="#DejaVuSans-20" x="603.271484"/>
     <use xlink:href="#DejaVuSans-54" x="635.058594"/>
     <use xlink:href="#DejaVuSans-69" x="693.017578"/>
     <use xlink:href="#DejaVuSans-6d" x="720.800781"/>
     <use xlink:href="#DejaVuSans-65" x="818.212891"/>
     <use xlink:href="#DejaVuSans-20" x="879.736328"/>
     <use xlink:href="#DejaVuSans-73" x="911.523438"/>
     <use xlink:href="#DejaVuSans-74" x="963.623047"/>
     <use xlink:href="#DejaVuSans-61" x="1002.832031"/>
     <use xlink:href="#DejaVuSans-6d" x="1064.111328"/>
     <use xlink:href="#DejaVuSans-70" x="1161.523438"/>
     <use xlink:href="#DejaVuSans-20" x="1225"/>
     <use xlink:href="#DejaVuSans-3a" x="1256.787109"/>
     <use xlink:href="#DejaVuSans-20" x="1290.478516"/>
     <use xlink:href="#DejaVuSans-34" x="1322.265625"/>
     <use xlink:href="#DejaVuSans-38" x="1385.888672"/>
     <use xlink:href="#DejaVuSans-35" x="1449.511719"/>
     <use xlink:href="#DejaVuSans-30" x="1513.134766"/>
     <use xlink:href="#DejaVuSans-31" x="1576.757812"/>
     <use xlink:href="#DejaVuSans-36" x="1640.380859"/>
    </g>
   </g>
  </g>
 </g>
 <defs>
  <clipPath id="pebbd1a0efd">
   <rect x="63.382812" y="36.718125" width="558" height="166.32"/>
  </clipPath>
 </defs>
</svg>
