<?xml version="1.0" encoding="utf-8" standalone="no"?>
<!DOCTYPE svg PUBLIC "-//W3C//DTD SVG 1.1//EN"
  "http://www.w3.org/Graphics/SVG/1.1/DTD/svg11.dtd">
<svg xmlns:xlink="http://www.w3.org/1999/xlink" width="642.982813pt" height="254.994375pt" viewBox="0 0 642.982813 254.994375" xmlns="http://www.w3.org/2000/svg" version="1.1">
 <metadata>
  <rdf:RDF xmlns:dc="http://purl.org/dc/elements/1.1/" xmlns:cc="http://creativecommons.org/ns#" xmlns:rdf="http://www.w3.org/1999/02/22-rdf-syntax-ns#">
   <cc:Work>
    <dc:type rdf:resource="http://purl.org/dc/dcmitype/StillImage"/>
    <dc:date>2024-02-26T10:41:44.662324</dc:date>
    <dc:format>image/svg+xml</dc:format>
    <dc:creator>
     <cc:Agent>
      <dc:title>Matplotlib v3.7.1, https://matplotlib.org/</dc:title>
     </cc:Agent>
    </dc:creator>
   </cc:Work>
  </rdf:RDF>
 </metadata>
 <defs>
  <style type="text/css">*{stroke-linejoin: round; stroke-linecap: butt}</style>
 </defs>
 <g id="figure_1">
  <g id="patch_1">
   <path d="M 0 254.994375 
L 642.982813 254.994375 
L 642.982813 -0 
L 0 -0 
z
" style="fill: #ffffff"/>
  </g>
  <g id="axes_1">
   <g id="patch_2">
    <path d="M 63.382812 203.038125 
L 621.382812 203.038125 
L 621.382812 36.718125 
L 63.382812 36.718125 
z
" style="fill: #ffffff"/>
   </g>
   <g id="matplotlib.axis_1">
    <g id="xtick_1">
     <g id="line2d_1">
      <defs>
       <path id="mcf62361061" d="M 0 0 
L 0 3.5 
" style="stroke: #000000; stroke-width: 0.8"/>
      </defs>
      <g>
       <use xlink:href="#mcf62361061" x="88.746449" y="203.038125" style="stroke: #000000; stroke-width: 0.8"/>
      </g>
     </g>
     <g id="text_1">
      <!-- −20 -->
      <g transform="translate(78.194105 217.636562) scale(0.1 -0.1)">
       <defs>
        <path id="DejaVuSans-2212" d="M 678 2272 
L 4684 2272 
L 4684 1741 
L 678 1741 
L 678 2272 
z
" transform="scale(0.015625)"/>
        <path id="DejaVuSans-32" d="M 1228 531 
L 3431 531 
L 3431 0 
L 469 0 
L 469 531 
Q 828 903 1448 1529 
Q 2069 2156 2228 2338 
Q 2531 2678 2651 2914 
Q 2772 3150 2772 3378 
Q 2772 3750 2511 3984 
Q 2250 4219 1831 4219 
Q 1534 4219 1204 4116 
Q 875 4013 500 3803 
L 500 4441 
Q 881 4594 1212 4672 
Q 1544 4750 1819 4750 
Q 2544 4750 2975 4387 
Q 3406 4025 3406 3419 
Q 3406 3131 3298 2873 
Q 3191 2616 2906 2266 
Q 2828 2175 2409 1742 
Q 1991 1309 1228 531 
z
" transform="scale(0.015625)"/>
        <path id="DejaVuSans-30" d="M 2034 4250 
Q 1547 4250 1301 3770 
Q 1056 3291 1056 2328 
Q 1056 1369 1301 889 
Q 1547 409 2034 409 
Q 2525 409 2770 889 
Q 3016 1369 3016 2328 
Q 3016 3291 2770 3770 
Q 2525 4250 2034 4250 
z
M 2034 4750 
Q 2819 4750 3233 4129 
Q 3647 3509 3647 2328 
Q 3647 1150 3233 529 
Q 2819 -91 2034 -91 
Q 1250 -91 836 529 
Q 422 1150 422 2328 
Q 422 3509 836 4129 
Q 1250 4750 2034 4750 
z
" transform="scale(0.015625)"/>
       </defs>
       <use xlink:href="#DejaVuSans-2212"/>
       <use xlink:href="#DejaVuSans-32" x="83.789062"/>
       <use xlink:href="#DejaVuSans-30" x="147.412109"/>
      </g>
     </g>
    </g>
    <g id="xtick_2">
     <g id="line2d_2">
      <g>
       <use xlink:href="#mcf62361061" x="152.15554" y="203.038125" style="stroke: #000000; stroke-width: 0.8"/>
      </g>
     </g>
     <g id="text_2">
      <!-- −15 -->
      <g transform="translate(141.603196 217.636562) scale(0.1 -0.1)">
       <defs>
        <path id="DejaVuSans-31" d="M 794 531 
L 1825 531 
L 1825 4091 
L 703 3866 
L 703 4441 
L 1819 4666 
L 2450 4666 
L 2450 531 
L 3481 531 
L 3481 0 
L 794 0 
L 794 531 
z
" transform="scale(0.015625)"/>
        <path id="DejaVuSans-35" d="M 691 4666 
L 3169 4666 
L 3169 4134 
L 1269 4134 
L 1269 2991 
Q 1406 3038 1543 3061 
Q 1681 3084 1819 3084 
Q 2600 3084 3056 2656 
Q 3513 2228 3513 1497 
Q 3513 744 3044 326 
Q 2575 -91 1722 -91 
Q 1428 -91 1123 -41 
Q 819 9 494 109 
L 494 744 
Q 775 591 1075 516 
Q 1375 441 1709 441 
Q 2250 441 2565 725 
Q 2881 1009 2881 1497 
Q 2881 1984 2565 2268 
Q 2250 2553 1709 2553 
Q 1456 2553 1204 2497 
Q 953 2441 691 2322 
L 691 4666 
z
" transform="scale(0.015625)"/>
       </defs>
       <use xlink:href="#DejaVuSans-2212"/>
       <use xlink:href="#DejaVuSans-31" x="83.789062"/>
       <use xlink:href="#DejaVuSans-35" x="147.412109"/>
      </g>
     </g>
    </g>
    <g id="xtick_3">
     <g id="line2d_3">
      <g>
       <use xlink:href="#mcf62361061" x="215.564631" y="203.038125" style="stroke: #000000; stroke-width: 0.8"/>
      </g>
     </g>
     <g id="text_3">
      <!-- −10 -->
      <g transform="translate(205.012287 217.636562) scale(0.1 -0.1)">
       <use xlink:href="#DejaVuSans-2212"/>
       <use xlink:href="#DejaVuSans-31" x="83.789062"/>
       <use xlink:href="#DejaVuSans-30" x="147.412109"/>
      </g>
     </g>
    </g>
    <g id="xtick_4">
     <g id="line2d_4">
      <g>
       <use xlink:href="#mcf62361061" x="278.973722" y="203.038125" style="stroke: #000000; stroke-width: 0.8"/>
      </g>
     </g>
     <g id="text_4">
      <!-- −5 -->
      <g transform="translate(271.602628 217.636562) scale(0.1 -0.1)">
       <use xlink:href="#DejaVuSans-2212"/>
       <use xlink:href="#DejaVuSans-35" x="83.789062"/>
      </g>
     </g>
    </g>
    <g id="xtick_5">
     <g id="line2d_5">
      <g>
       <use xlink:href="#mcf62361061" x="342.382812" y="203.038125" style="stroke: #000000; stroke-width: 0.8"/>
      </g>
     </g>
     <g id="text_5">
      <!-- 0 -->
      <g transform="translate(339.201563 217.636562) scale(0.1 -0.1)">
       <use xlink:href="#DejaVuSans-30"/>
      </g>
     </g>
    </g>
    <g id="xtick_6">
     <g id="line2d_6">
      <g>
       <use xlink:href="#mcf62361061" x="405.791903" y="203.038125" style="stroke: #000000; stroke-width: 0.8"/>
      </g>
     </g>
     <g id="text_6">
      <!-- 5 -->
      <g transform="translate(402.610653 217.636562) scale(0.1 -0.1)">
       <use xlink:href="#DejaVuSans-35"/>
      </g>
     </g>
    </g>
    <g id="xtick_7">
     <g id="line2d_7">
      <g>
       <use xlink:href="#mcf62361061" x="469.200994" y="203.038125" style="stroke: #000000; stroke-width: 0.8"/>
      </g>
     </g>
     <g id="text_7">
      <!-- 10 -->
      <g transform="translate(462.838494 217.636562) scale(0.1 -0.1)">
       <use xlink:href="#DejaVuSans-31"/>
       <use xlink:href="#DejaVuSans-30" x="63.623047"/>
      </g>
     </g>
    </g>
    <g id="xtick_8">
     <g id="line2d_8">
      <g>
       <use xlink:href="#mcf62361061" x="532.610085" y="203.038125" style="stroke: #000000; stroke-width: 0.8"/>
      </g>
     </g>
     <g id="text_8">
      <!-- 15 -->
      <g transform="translate(526.247585 217.636562) scale(0.1 -0.1)">
       <use xlink:href="#DejaVuSans-31"/>
       <use xlink:href="#DejaVuSans-35" x="63.623047"/>
      </g>
     </g>
    </g>
    <g id="xtick_9">
     <g id="line2d_9">
      <g>
       <use xlink:href="#mcf62361061" x="596.019176" y="203.038125" style="stroke: #000000; stroke-width: 0.8"/>
      </g>
     </g>
     <g id="text_9">
      <!-- 20 -->
      <g transform="translate(589.656676 217.636562) scale(0.1 -0.1)">
       <use xlink:href="#DejaVuSans-32"/>
       <use xlink:href="#DejaVuSans-30" x="63.623047"/>
      </g>
     </g>
    </g>
    <g id="text_10">
     <!-- Time [ms] -->
     <g transform="translate(317.183594 231.314687) scale(0.1 -0.1)">
      <defs>
       <path id="DejaVuSans-54" d="M -19 4666 
L 3928 4666 
L 3928 4134 
L 2272 4134 
L 2272 0 
L 1638 0 
L 1638 4134 
L -19 4134 
L -19 4666 
z
" transform="scale(0.015625)"/>
       <path id="DejaVuSans-69" d="M 603 3500 
L 1178 3500 
L 1178 0 
L 603 0 
L 603 3500 
z
M 603 4863 
L 1178 4863 
L 1178 4134 
L 603 4134 
L 603 4863 
z
" transform="scale(0.015625)"/>
       <path id="DejaVuSans-6d" d="M 3328 2828 
Q 3544 3216 3844 3400 
Q 4144 3584 4550 3584 
Q 5097 3584 5394 3201 
Q 5691 2819 5691 2113 
L 5691 0 
L 5113 0 
L 5113 2094 
Q 5113 2597 4934 2840 
Q 4756 3084 4391 3084 
Q 3944 3084 3684 2787 
Q 3425 2491 3425 1978 
L 3425 0 
L 2847 0 
L 2847 2094 
Q 2847 2600 2669 2842 
Q 2491 3084 2119 3084 
Q 1678 3084 1418 2786 
Q 1159 2488 1159 1978 
L 1159 0 
L 581 0 
L 581 3500 
L 1159 3500 
L 1159 2956 
Q 1356 3278 1631 3431 
Q 1906 3584 2284 3584 
Q 2666 3584 2933 3390 
Q 3200 3197 3328 2828 
z
" transform="scale(0.015625)"/>
       <path id="DejaVuSans-65" d="M 3597 1894 
L 3597 1613 
L 953 1613 
Q 991 1019 1311 708 
Q 1631 397 2203 397 
Q 2534 397 2845 478 
Q 3156 559 3463 722 
L 3463 178 
Q 3153 47 2828 -22 
Q 2503 -91 2169 -91 
Q 1331 -91 842 396 
Q 353 884 353 1716 
Q 353 2575 817 3079 
Q 1281 3584 2069 3584 
Q 2775 3584 3186 3129 
Q 3597 2675 3597 1894 
z
M 3022 2063 
Q 3016 2534 2758 2815 
Q 2500 3097 2075 3097 
Q 1594 3097 1305 2825 
Q 1016 2553 972 2059 
L 3022 2063 
z
" transform="scale(0.015625)"/>
       <path id="DejaVuSans-20" transform="scale(0.015625)"/>
       <path id="DejaVuSans-5b" d="M 550 4863 
L 1875 4863 
L 1875 4416 
L 1125 4416 
L 1125 -397 
L 1875 -397 
L 1875 -844 
L 550 -844 
L 550 4863 
z
" transform="scale(0.015625)"/>
       <path id="DejaVuSans-73" d="M 2834 3397 
L 2834 2853 
Q 2591 2978 2328 3040 
Q 2066 3103 1784 3103 
Q 1356 3103 1142 2972 
Q 928 2841 928 2578 
Q 928 2378 1081 2264 
Q 1234 2150 1697 2047 
L 1894 2003 
Q 2506 1872 2764 1633 
Q 3022 1394 3022 966 
Q 3022 478 2636 193 
Q 2250 -91 1575 -91 
Q 1294 -91 989 -36 
Q 684 19 347 128 
L 347 722 
Q 666 556 975 473 
Q 1284 391 1588 391 
Q 1994 391 2212 530 
Q 2431 669 2431 922 
Q 2431 1156 2273 1281 
Q 2116 1406 1581 1522 
L 1381 1569 
Q 847 1681 609 1914 
Q 372 2147 372 2553 
Q 372 3047 722 3315 
Q 1072 3584 1716 3584 
Q 2034 3584 2315 3537 
Q 2597 3491 2834 3397 
z
" transform="scale(0.015625)"/>
       <path id="DejaVuSans-5d" d="M 1947 4863 
L 1947 -844 
L 622 -844 
L 622 -397 
L 1369 -397 
L 1369 4416 
L 622 4416 
L 622 4863 
L 1947 4863 
z
" transform="scale(0.015625)"/>
      </defs>
      <use xlink:href="#DejaVuSans-54"/>
      <use xlink:href="#DejaVuSans-69" x="57.958984"/>
      <use xlink:href="#DejaVuSans-6d" x="85.742188"/>
      <use xlink:href="#DejaVuSans-65" x="183.154297"/>
      <use xlink:href="#DejaVuSans-20" x="244.677734"/>
      <use xlink:href="#DejaVuSans-5b" x="276.464844"/>
      <use xlink:href="#DejaVuSans-6d" x="315.478516"/>
      <use xlink:href="#DejaVuSans-73" x="412.890625"/>
      <use xlink:href="#DejaVuSans-5d" x="464.990234"/>
     </g>
    </g>
   </g>
   <g id="matplotlib.axis_2">
    <g id="ytick_1">
     <g id="line2d_10">
      <defs>
       <path id="mef0e1e2c5a" d="M 0 0 
L -3.5 0 
" style="stroke: #000000; stroke-width: 0.8"/>
      </defs>
      <g>
       <use xlink:href="#mef0e1e2c5a" x="63.382812" y="197.736005" style="stroke: #000000; stroke-width: 0.8"/>
      </g>
     </g>
     <g id="text_11">
      <!-- −30 -->
      <g transform="translate(35.278125 201.535224) scale(0.1 -0.1)">
       <defs>
        <path id="DejaVuSans-33" d="M 2597 2516 
Q 3050 2419 3304 2112 
Q 3559 1806 3559 1356 
Q 3559 666 3084 287 
Q 2609 -91 1734 -91 
Q 1441 -91 1130 -33 
Q 819 25 488 141 
L 488 750 
Q 750 597 1062 519 
Q 1375 441 1716 441 
Q 2309 441 2620 675 
Q 2931 909 2931 1356 
Q 2931 1769 2642 2001 
Q 2353 2234 1838 2234 
L 1294 2234 
L 1294 2753 
L 1863 2753 
Q 2328 2753 2575 2939 
Q 2822 3125 2822 3475 
Q 2822 3834 2567 4026 
Q 2313 4219 1838 4219 
Q 1578 4219 1281 4162 
Q 984 4106 628 3988 
L 628 4550 
Q 988 4650 1302 4700 
Q 1616 4750 1894 4750 
Q 2613 4750 3031 4423 
Q 3450 4097 3450 3541 
Q 3450 3153 3228 2886 
Q 3006 2619 2597 2516 
z
" transform="scale(0.015625)"/>
       </defs>
       <use xlink:href="#DejaVuSans-2212"/>
       <use xlink:href="#DejaVuSans-33" x="83.789062"/>
       <use xlink:href="#DejaVuSans-30" x="147.412109"/>
      </g>
     </g>
    </g>
    <g id="ytick_2">
     <g id="line2d_11">
      <g>
       <use xlink:href="#mef0e1e2c5a" x="63.382812" y="164.367547" style="stroke: #000000; stroke-width: 0.8"/>
      </g>
     </g>
     <g id="text_12">
      <!-- −20 -->
      <g transform="translate(35.278125 168.166765) scale(0.1 -0.1)">
       <use xlink:href="#DejaVuSans-2212"/>
       <use xlink:href="#DejaVuSans-32" x="83.789062"/>
       <use xlink:href="#DejaVuSans-30" x="147.412109"/>
      </g>
     </g>
    </g>
    <g id="ytick_3">
     <g id="line2d_12">
      <g>
       <use xlink:href="#mef0e1e2c5a" x="63.382812" y="130.999088" style="stroke: #000000; stroke-width: 0.8"/>
      </g>
     </g>
     <g id="text_13">
      <!-- −10 -->
      <g transform="translate(35.278125 134.798306) scale(0.1 -0.1)">
       <use xlink:href="#DejaVuSans-2212"/>
       <use xlink:href="#DejaVuSans-31" x="83.789062"/>
       <use xlink:href="#DejaVuSans-30" x="147.412109"/>
      </g>
     </g>
    </g>
    <g id="ytick_4">
     <g id="line2d_13">
      <g>
       <use xlink:href="#mef0e1e2c5a" x="63.382812" y="97.630629" style="stroke: #000000; stroke-width: 0.8"/>
      </g>
     </g>
     <g id="text_14">
      <!-- 0 -->
      <g transform="translate(50.020313 101.429848) scale(0.1 -0.1)">
       <use xlink:href="#DejaVuSans-30"/>
      </g>
     </g>
    </g>
    <g id="ytick_5">
     <g id="line2d_14">
      <g>
       <use xlink:href="#mef0e1e2c5a" x="63.382812" y="64.26217" style="stroke: #000000; stroke-width: 0.8"/>
      </g>
     </g>
     <g id="text_15">
      <!-- 10 -->
      <g transform="translate(43.657812 68.061389) scale(0.1 -0.1)">
       <use xlink:href="#DejaVuSans-31"/>
       <use xlink:href="#DejaVuSans-30" x="63.623047"/>
      </g>
     </g>
    </g>
    <g id="text_16">
     <!-- Voltage [uV] -->
     <g transform="translate(29.198438 150.714063) rotate(-90) scale(0.1 -0.1)">
      <defs>
       <path id="DejaVuSans-56" d="M 1831 0 
L 50 4666 
L 709 4666 
L 2188 738 
L 3669 4666 
L 4325 4666 
L 2547 0 
L 1831 0 
z
" transform="scale(0.015625)"/>
       <path id="DejaVuSans-6f" d="M 1959 3097 
Q 1497 3097 1228 2736 
Q 959 2375 959 1747 
Q 959 1119 1226 758 
Q 1494 397 1959 397 
Q 2419 397 2687 759 
Q 2956 1122 2956 1747 
Q 2956 2369 2687 2733 
Q 2419 3097 1959 3097 
z
M 1959 3584 
Q 2709 3584 3137 3096 
Q 3566 2609 3566 1747 
Q 3566 888 3137 398 
Q 2709 -91 1959 -91 
Q 1206 -91 779 398 
Q 353 888 353 1747 
Q 353 2609 779 3096 
Q 1206 3584 1959 3584 
z
" transform="scale(0.015625)"/>
       <path id="DejaVuSans-6c" d="M 603 4863 
L 1178 4863 
L 1178 0 
L 603 0 
L 603 4863 
z
" transform="scale(0.015625)"/>
       <path id="DejaVuSans-74" d="M 1172 4494 
L 1172 3500 
L 2356 3500 
L 2356 3053 
L 1172 3053 
L 1172 1153 
Q 1172 725 1289 603 
Q 1406 481 1766 481 
L 2356 481 
L 2356 0 
L 1766 0 
Q 1100 0 847 248 
Q 594 497 594 1153 
L 594 3053 
L 172 3053 
L 172 3500 
L 594 3500 
L 594 4494 
L 1172 4494 
z
" transform="scale(0.015625)"/>
       <path id="DejaVuSans-61" d="M 2194 1759 
Q 1497 1759 1228 1600 
Q 959 1441 959 1056 
Q 959 750 1161 570 
Q 1363 391 1709 391 
Q 2188 391 2477 730 
Q 2766 1069 2766 1631 
L 2766 1759 
L 2194 1759 
z
M 3341 1997 
L 3341 0 
L 2766 0 
L 2766 531 
Q 2569 213 2275 61 
Q 1981 -91 1556 -91 
Q 1019 -91 701 211 
Q 384 513 384 1019 
Q 384 1609 779 1909 
Q 1175 2209 1959 2209 
L 2766 2209 
L 2766 2266 
Q 2766 2663 2505 2880 
Q 2244 3097 1772 3097 
Q 1472 3097 1187 3025 
Q 903 2953 641 2809 
L 641 3341 
Q 956 3463 1253 3523 
Q 1550 3584 1831 3584 
Q 2591 3584 2966 3190 
Q 3341 2797 3341 1997 
z
" transform="scale(0.015625)"/>
       <path id="DejaVuSans-67" d="M 2906 1791 
Q 2906 2416 2648 2759 
Q 2391 3103 1925 3103 
Q 1463 3103 1205 2759 
Q 947 2416 947 1791 
Q 947 1169 1205 825 
Q 1463 481 1925 481 
Q 2391 481 2648 825 
Q 2906 1169 2906 1791 
z
M 3481 434 
Q 3481 -459 3084 -895 
Q 2688 -1331 1869 -1331 
Q 1566 -1331 1297 -1286 
Q 1028 -1241 775 -1147 
L 775 -588 
Q 1028 -725 1275 -790 
Q 1522 -856 1778 -856 
Q 2344 -856 2625 -561 
Q 2906 -266 2906 331 
L 2906 616 
Q 2728 306 2450 153 
Q 2172 0 1784 0 
Q 1141 0 747 490 
Q 353 981 353 1791 
Q 353 2603 747 3093 
Q 1141 3584 1784 3584 
Q 2172 3584 2450 3431 
Q 2728 3278 2906 2969 
L 2906 3500 
L 3481 3500 
L 3481 434 
z
" transform="scale(0.015625)"/>
       <path id="DejaVuSans-75" d="M 544 1381 
L 544 3500 
L 1119 3500 
L 1119 1403 
Q 1119 906 1312 657 
Q 1506 409 1894 409 
Q 2359 409 2629 706 
Q 2900 1003 2900 1516 
L 2900 3500 
L 3475 3500 
L 3475 0 
L 2900 0 
L 2900 538 
Q 2691 219 2414 64 
Q 2138 -91 1772 -91 
Q 1169 -91 856 284 
Q 544 659 544 1381 
z
M 1991 3584 
L 1991 3584 
z
" transform="scale(0.015625)"/>
      </defs>
      <use xlink:href="#DejaVuSans-56"/>
      <use xlink:href="#DejaVuSans-6f" x="60.658203"/>
      <use xlink:href="#DejaVuSans-6c" x="121.839844"/>
      <use xlink:href="#DejaVuSans-74" x="149.623047"/>
      <use xlink:href="#DejaVuSans-61" x="188.832031"/>
      <use xlink:href="#DejaVuSans-67" x="250.111328"/>
      <use xlink:href="#DejaVuSans-65" x="313.587891"/>
      <use xlink:href="#DejaVuSans-20" x="375.111328"/>
      <use xlink:href="#DejaVuSans-5b" x="406.898438"/>
      <use xlink:href="#DejaVuSans-75" x="445.912109"/>
      <use xlink:href="#DejaVuSans-56" x="509.291016"/>
      <use xlink:href="#DejaVuSans-5d" x="577.699219"/>
     </g>
    </g>
   </g>
   <g id="line2d_15">
    <path d="M 88.746449 88.929376 
L 89.381333 86.853366 
L 90.016218 99.784945 
L 90.651102 105.292598 
L 91.285987 115.302813 
L 91.920871 111.80887 
L 92.555756 122.477106 
L 93.19064 80.372871 
L 93.825525 93.320451 
L 94.460409 101.44476 
L 95.095294 88.324911 
L 95.730179 101.524137 
L 96.365063 76.230022 
L 96.999948 80.640724 
L 97.634832 60.916088 
L 98.904601 89.868795 
L 99.539486 94.499448 
L 100.17437 103.870457 
L 100.809255 105.194069 
L 101.444139 95.111821 
L 102.079024 65.05821 
L 102.713908 68.796198 
L 103.348793 89.279807 
L 103.983677 114.059835 
L 104.618562 99.150597 
L 105.253446 104.004022 
L 105.888331 105.765083 
L 106.523215 99.771162 
L 107.1581 105.908155 
L 107.792984 91.575855 
L 108.427869 97.666397 
L 109.697638 131.176795 
L 110.967407 96.500967 
L 111.602291 112.629281 
L 112.237176 113.384863 
L 112.87206 92.306357 
L 113.506945 94.649225 
L 114.141829 92.684031 
L 114.776714 102.764847 
L 115.411598 104.656758 
L 116.046483 70.709633 
L 116.681368 113.917161 
L 117.316252 127.313053 
L 117.951137 101.60548 
L 118.586021 92.324046 
L 119.220906 85.305775 
L 119.85579 124.488085 
L 120.490675 98.880883 
L 121.125559 98.83617 
L 121.760444 100.729406 
L 122.395328 99.252998 
L 123.030213 101.967701 
L 123.665097 101.599629 
L 124.299982 120.873698 
L 124.934866 97.353149 
L 125.569751 95.03524 
L 126.204635 84.505546 
L 126.83952 85.658761 
L 127.474404 119.623065 
L 128.109289 88.868455 
L 128.744173 78.395418 
L 129.379058 106.630091 
L 130.013942 79.233933 
L 130.648827 89.48734 
L 131.283711 92.865213 
L 131.918596 100.530502 
L 132.55348 99.799193 
L 133.188365 111.082043 
L 133.823249 94.880891 
L 134.458134 91.798003 
L 135.093018 98.344914 
L 135.727903 75.1426 
L 136.362787 94.641223 
L 136.997672 86.426201 
L 137.632556 93.58951 
L 138.267441 91.759131 
L 138.902326 90.68133 
L 139.53721 84.596225 
L 140.172095 59.92156 
L 140.806979 64.263506 
L 142.076748 119.894769 
L 142.711633 125.086068 
L 143.346517 105.739052 
L 143.981402 112.351226 
L 144.616286 107.051118 
L 145.251171 97.802433 
L 145.886055 103.035845 
L 146.52094 88.572207 
L 147.155824 85.270415 
L 147.790709 96.340139 
L 148.425593 98.694939 
L 149.060478 120.41681 
L 149.695362 99.761661 
L 150.330247 74.868506 
L 150.965131 95.679108 
L 151.600016 94.342586 
L 152.2349 106.017042 
L 152.869785 105.92149 
L 153.504669 97.633818 
L 154.139554 101.762232 
L 154.774438 93.339671 
L 155.409323 118.274302 
L 156.044207 89.259917 
L 156.679092 67.592759 
L 157.313976 105.585994 
L 157.948861 90.253799 
L 158.583745 109.788487 
L 159.21863 109.48195 
L 159.853515 107.057086 
L 160.488399 121.397988 
L 161.123284 113.623065 
L 161.758168 95.460864 
L 162.393053 87.140643 
L 163.662822 101.726075 
L 164.297706 79.900389 
L 164.932591 94.845415 
L 165.567475 119.027396 
L 166.20236 89.203104 
L 166.837244 110.120631 
L 167.472129 116.617989 
L 168.107013 97.475558 
L 168.741898 98.301448 
L 169.376782 105.205414 
L 170.011667 131.159106 
L 170.646551 98.851411 
L 171.281436 93.475732 
L 171.91632 97.949994 
L 172.551205 63.30929 
L 173.186089 116.814982 
L 173.820974 104.42276 
L 174.455858 107.270838 
L 175.090743 104.918627 
L 175.725627 84.234961 
L 176.360512 83.707126 
L 176.995396 110.109938 
L 177.630281 129.981699 
L 178.265165 59.247884 
L 178.90005 94.131967 
L 179.534934 110.529588 
L 180.169819 87.462229 
L 180.804704 88.87543 
L 181.439588 98.938612 
L 182.074473 99.008712 
L 182.709357 68.72276 
L 183.344242 89.490294 
L 183.979126 100.30121 
L 184.614011 102.577246 
L 185.248895 76.584042 
L 185.88378 88.77729 
L 186.518664 87.403114 
L 187.153549 89.044877 
L 187.788433 114.574123 
L 188.423318 81.878702 
L 189.058202 100.208856 
L 189.693087 85.488939 
L 190.327971 91.159136 
L 190.962856 88.829674 
L 191.59774 91.960786 
L 192.232625 92.589281 
L 192.867509 84.360116 
L 193.502394 89.010778 
L 194.137278 82.631665 
L 194.772163 96.367939 
L 195.407047 86.087806 
L 196.041932 115.36047 
L 196.676816 103.811746 
L 197.311701 83.560898 
L 197.946585 96.748716 
L 198.58147 107.058481 
L 199.216354 109.792312 
L 199.851239 101.284647 
L 200.486123 109.759651 
L 201.121008 121.564393 
L 202.390777 95.686863 
L 203.025662 95.210542 
L 203.660546 83.530269 
L 204.295431 104.778183 
L 204.930315 83.159421 
L 205.5652 85.016713 
L 206.200084 118.017084 
L 206.834969 97.090911 
L 207.469853 110.686776 
L 208.104738 117.581152 
L 208.739622 112.579561 
L 209.374507 95.746842 
L 210.009391 100.268636 
L 210.644276 93.422307 
L 211.27916 73.095097 
L 211.914045 104.122024 
L 212.548929 114.987993 
L 213.183814 99.234153 
L 213.818698 93.201629 
L 214.453583 91.133615 
L 215.088467 74.756097 
L 215.723352 90.886258 
L 216.358236 88.937965 
L 217.628005 110.381495 
L 218.26289 111.979032 
L 219.532659 82.547778 
L 220.167543 124.342176 
L 220.802428 110.398647 
L 221.437312 114.25618 
L 222.072197 102.494612 
L 222.707081 93.853191 
L 223.341966 110.262556 
L 223.976851 98.887524 
L 224.611735 101.197143 
L 225.24662 95.485222 
L 226.516389 116.142155 
L 227.151273 130.932457 
L 227.786158 116.574941 
L 228.421042 83.241057 
L 229.055927 94.795323 
L 229.690811 81.282151 
L 230.325696 100.8688 
L 230.96058 104.906984 
L 231.595465 102.874684 
L 232.230349 105.984516 
L 232.865234 82.562939 
L 233.500118 81.921289 
L 234.135003 74.404204 
L 234.769887 97.776556 
L 235.404772 66.042383 
L 236.039656 95.606775 
L 236.674541 94.598387 
L 237.309425 70.80282 
L 237.94431 87.897755 
L 238.579194 68.845796 
L 239.214079 96.753575 
L 239.848963 90.319447 
L 240.483848 86.7363 
L 241.753617 111.251154 
L 243.023386 90.305729 
L 243.65827 117.144661 
L 244.293155 85.751825 
L 244.928039 95.845364 
L 245.562924 130.806488 
L 246.197809 89.953947 
L 247.467578 115.069783 
L 248.102462 88.727743 
L 248.737347 97.012798 
L 250.007116 88.501002 
L 250.642 75.363274 
L 251.276885 68.739735 
L 251.911769 117.378434 
L 252.546654 89.828669 
L 253.181538 107.423656 
L 253.816423 101.078378 
L 254.451307 111.149121 
L 255.086192 112.326513 
L 255.721076 95.944375 
L 256.355961 133.40983 
L 256.990845 84.516607 
L 257.62573 110.379699 
L 258.260614 95.6938 
L 258.895499 94.668524 
L 259.530383 105.389738 
L 260.165268 72.61005 
L 260.800152 89.544444 
L 261.435037 116.406135 
L 262.069921 98.293502 
L 262.704806 101.737595 
L 263.33969 118.666677 
L 263.974575 116.400458 
L 264.609459 107.766779 
L 265.244344 77.059193 
L 265.879228 92.968187 
L 266.514113 101.445284 
L 267.148998 84.719463 
L 267.783882 82.162792 
L 268.418767 90.20529 
L 269.053651 92.717158 
L 269.688536 113.996549 
L 270.32342 103.166411 
L 270.958305 108.598155 
L 271.593189 105.052129 
L 272.228074 87.019552 
L 272.862958 77.560226 
L 273.497843 87.643045 
L 274.132727 94.877529 
L 274.767612 66.217275 
L 275.402496 113.410586 
L 276.037381 87.815911 
L 276.672265 96.061586 
L 277.30715 98.449071 
L 277.942034 76.648562 
L 278.576919 120.912326 
L 279.211803 115.669738 
L 279.846688 135.047742 
L 281.116457 90.09719 
L 281.751341 86.63309 
L 282.386226 97.954016 
L 283.02111 113.631737 
L 283.655995 91.557341 
L 284.290879 77.492874 
L 284.925764 91.678042 
L 285.560648 71.975054 
L 286.830417 110.156629 
L 287.465302 98.877162 
L 288.100186 95.799189 
L 288.735071 90.878552 
L 289.369956 109.639957 
L 290.00484 87.890353 
L 290.639725 82.089139 
L 291.274609 87.945641 
L 291.909494 95.143206 
L 292.544378 94.307287 
L 293.179263 102.589673 
L 293.814147 83.58354 
L 294.449032 93.33076 
L 295.083916 122.197657 
L 295.718801 110.257178 
L 296.353685 79.430499 
L 296.98857 102.548694 
L 297.623454 113.475257 
L 298.258339 112.427907 
L 298.893223 96.223816 
L 299.528108 96.881648 
L 300.162992 116.2355 
L 300.797877 72.124916 
L 301.432761 120.197045 
L 302.067646 96.694886 
L 302.70253 68.426764 
L 303.337415 74.298767 
L 303.972299 100.148121 
L 304.607184 114.288624 
L 305.242068 93.635041 
L 305.876953 93.739821 
L 306.511837 101.531275 
L 307.146722 122.029122 
L 307.781606 112.058936 
L 308.416491 91.202535 
L 309.051375 113.443742 
L 309.68626 111.927708 
L 310.321145 101.078486 
L 310.956029 115.268529 
L 311.590914 76.22857 
L 312.225798 82.369378 
L 312.860683 83.779115 
L 313.495567 102.360249 
L 314.130452 104.224559 
L 314.765336 116.637559 
L 315.400221 97.261495 
L 316.035105 90.000208 
L 316.66999 120.855889 
L 317.304874 132.988492 
L 317.939759 121.060445 
L 318.574643 104.327885 
L 319.209528 105.084649 
L 319.844412 67.721819 
L 320.479297 95.73604 
L 321.114181 101.861454 
L 321.749066 99.52933 
L 322.38395 85.053909 
L 323.653719 112.96052 
L 324.288604 108.052587 
L 324.923488 78.248184 
L 325.558373 70.391125 
L 326.193257 112.395654 
L 326.828142 87.990377 
L 327.463026 84.65653 
L 328.097911 103.535392 
L 328.732795 97.223403 
L 329.36768 96.810588 
L 330.002564 87.005741 
L 330.637449 82.749905 
L 331.272333 92.408839 
L 332.542103 127.748139 
L 333.176987 84.62997 
L 333.811872 115.574087 
L 334.446756 103.203035 
L 335.081641 86.431895 
L 335.716525 97.582029 
L 336.35141 82.567018 
L 336.986294 95.152283 
L 337.621179 87.663621 
L 338.256063 87.509214 
L 338.890948 73.705332 
L 339.525832 70.791733 
L 340.160717 55.63976 
L 340.795601 106.191353 
L 341.430486 101.792014 
L 342.06537 66.18493 
L 342.700255 93.1087 
L 343.335139 86.76584 
L 343.970024 62.808198 
L 344.604908 66.424168 
L 345.239793 94.866603 
L 345.874677 79.987614 
L 346.509562 89.766911 
L 347.144446 81.911326 
L 347.779331 67.716863 
L 348.414215 81.961584 
L 349.0491 71.699115 
L 349.683984 87.300259 
L 350.318869 96.550456 
L 350.953753 99.877801 
L 352.223522 66.980292 
L 352.858407 61.353031 
L 353.493292 80.991765 
L 355.397945 195.478125 
L 356.03283 165.097598 
L 356.667714 186.814171 
L 357.937483 144.614723 
L 358.572368 150.417494 
L 359.207252 104.024944 
L 359.842137 118.392048 
L 360.477021 123.610631 
L 361.111906 142.342444 
L 361.74679 122.691492 
L 362.381675 99.270762 
L 363.016559 99.318253 
L 363.651444 101.724369 
L 364.286328 87.970757 
L 364.921213 44.278125 
L 365.556097 102.288907 
L 366.190982 101.317621 
L 366.825866 86.915764 
L 367.460751 85.468166 
L 368.73052 103.481635 
L 369.365404 109.941946 
L 370.000289 94.892012 
L 370.635173 92.202172 
L 371.270058 87.724143 
L 371.904942 65.25554 
L 372.539827 113.242433 
L 373.174711 86.297261 
L 373.809596 95.974194 
L 374.44448 88.921917 
L 375.079365 97.711765 
L 375.71425 86.788669 
L 376.349134 86.524253 
L 376.984019 119.606152 
L 377.618903 72.111975 
L 378.253788 61.818412 
L 378.888672 83.045718 
L 379.523557 67.662436 
L 380.158441 58.762219 
L 380.793326 85.100117 
L 381.42821 80.562717 
L 382.063095 106.978243 
L 382.697979 82.713034 
L 383.332864 83.833889 
L 383.967748 97.101754 
L 384.602633 75.506401 
L 385.237517 98.371747 
L 385.872402 100.836556 
L 386.507286 78.090025 
L 387.142171 76.509335 
L 387.777055 91.591169 
L 388.41194 94.249658 
L 389.046824 79.035558 
L 390.316593 120.474465 
L 390.951478 89.316035 
L 391.586362 126.770255 
L 392.221247 125.216122 
L 392.856131 94.010465 
L 393.491016 119.275337 
L 394.1259 119.775591 
L 394.760785 73.490142 
L 396.030554 113.496292 
L 396.665439 102.738439 
L 397.300323 117.022923 
L 397.935208 104.756059 
L 398.570092 88.680285 
L 399.204977 94.231505 
L 399.839861 93.583657 
L 400.474746 70.492419 
L 401.10963 97.931412 
L 401.744515 101.202677 
L 402.379399 91.981936 
L 403.014284 97.877154 
L 403.649168 84.848522 
L 404.918937 128.577356 
L 405.553822 101.132456 
L 406.188706 99.519004 
L 406.823591 81.759146 
L 407.458475 93.295162 
L 408.09336 122.842375 
L 408.728244 107.268431 
L 409.363129 112.513672 
L 409.998013 85.446683 
L 410.632898 96.364183 
L 411.267782 125.406291 
L 411.902667 99.804532 
L 412.537551 113.258584 
L 413.172436 94.229922 
L 413.80732 91.286215 
L 414.442205 112.19037 
L 415.077089 88.118074 
L 415.711974 140.021667 
L 416.346858 88.805012 
L 416.981743 89.860031 
L 417.616627 111.603182 
L 418.251512 73.583545 
L 418.886397 77.828441 
L 419.521281 67.722816 
L 420.156166 109.854816 
L 420.79105 115.838881 
L 422.060819 87.127626 
L 422.695704 87.711351 
L 423.330588 72.038143 
L 423.965473 89.499964 
L 424.600357 110.284543 
L 425.235242 95.928105 
L 425.870126 104.951122 
L 426.505011 96.547095 
L 427.139895 47.623846 
L 428.409664 111.433552 
L 429.044549 115.969175 
L 429.679433 108.378418 
L 430.314318 52.703224 
L 430.949202 99.005562 
L 431.584087 104.508796 
L 432.218971 111.30573 
L 432.853856 100.909696 
L 433.48874 62.629319 
L 434.123625 111.553158 
L 434.758509 111.712475 
L 435.393394 93.531886 
L 436.028278 140.086396 
L 436.663163 126.278228 
L 437.298047 118.413622 
L 437.932932 85.570751 
L 438.567816 104.537454 
L 439.202701 117.22824 
L 439.837586 88.627238 
L 440.47247 102.234892 
L 441.107355 85.589856 
L 441.742239 117.41026 
L 442.377124 87.583913 
L 443.012008 114.610279 
L 443.646893 112.828452 
L 444.281777 59.321033 
L 444.916662 81.970179 
L 445.551546 115.460191 
L 446.186431 120.643031 
L 446.821315 110.523507 
L 447.4562 74.699648 
L 448.725969 122.499537 
L 449.360853 97.325698 
L 449.995738 91.03101 
L 450.630622 67.424938 
L 451.265507 83.161459 
L 451.900391 105.620069 
L 452.535276 83.965154 
L 453.17016 73.923884 
L 453.805045 128.595745 
L 454.439929 101.155623 
L 455.074814 86.907203 
L 455.709698 105.339456 
L 456.344583 105.269976 
L 456.979467 99.522821 
L 457.614352 76.268832 
L 458.249236 83.104792 
L 458.884121 115.662375 
L 459.519005 92.58293 
L 460.15389 80.231367 
L 460.788774 123.465632 
L 461.423659 120.216155 
L 462.058544 80.163012 
L 462.693428 77.439887 
L 463.328313 100.021523 
L 463.963197 77.43777 
L 464.598082 102.394172 
L 465.232966 116.927171 
L 465.867851 90.555254 
L 466.502735 78.124131 
L 467.13762 104.851564 
L 467.772504 94.42616 
L 468.407389 76.301563 
L 469.042273 93.627381 
L 469.677158 77.113736 
L 470.946927 107.266937 
L 471.581811 89.644555 
L 472.216696 97.115485 
L 472.85158 80.019887 
L 473.486465 88.930312 
L 474.121349 95.719568 
L 474.756234 87.894243 
L 475.391118 127.667857 
L 476.660887 81.540194 
L 477.295772 102.011733 
L 477.930656 116.766289 
L 478.565541 95.697567 
L 479.200425 88.893244 
L 479.83531 75.720056 
L 480.470194 115.683194 
L 481.105079 114.334497 
L 481.739963 94.309296 
L 482.374848 127.633683 
L 483.009733 104.138412 
L 483.644617 129.955308 
L 484.279502 110.679393 
L 484.914386 87.469872 
L 485.549271 111.991334 
L 486.184155 106.879134 
L 486.81904 91.831111 
L 487.453924 88.605881 
L 488.088809 70.401813 
L 488.723693 75.565456 
L 489.358578 108.253215 
L 489.993462 100.258354 
L 490.628347 100.661691 
L 491.263231 113.198634 
L 491.898116 103.62014 
L 492.533 133.875301 
L 493.167885 117.808773 
L 493.802769 84.829744 
L 494.437654 99.653492 
L 495.072538 87.07189 
L 495.707423 100.565936 
L 496.342307 83.991395 
L 496.977192 90.602104 
L 497.612076 100.333906 
L 498.246961 73.633072 
L 498.881845 52.199125 
L 499.51673 105.568318 
L 500.151614 128.987692 
L 500.786499 101.10847 
L 501.421383 98.462737 
L 502.056268 107.041013 
L 502.691152 117.494539 
L 503.326037 77.112345 
L 503.960921 87.874081 
L 504.595806 101.726487 
L 505.230691 101.37681 
L 505.865575 115.789943 
L 506.50046 100.105037 
L 507.135344 71.141789 
L 507.770229 88.613409 
L 508.405113 116.140768 
L 509.039998 90.965351 
L 509.674882 86.828445 
L 510.309767 99.330042 
L 510.944651 71.72315 
L 511.579536 98.057832 
L 512.21442 75.416136 
L 512.849305 77.995755 
L 513.484189 94.048492 
L 514.119074 63.171273 
L 514.753958 117.254172 
L 515.388843 112.104549 
L 516.023727 123.594245 
L 516.658612 142.782453 
L 517.293496 92.264732 
L 517.928381 89.473687 
L 518.563265 127.38006 
L 519.19815 101.183841 
L 519.833034 104.654355 
L 520.467919 97.234938 
L 521.102803 87.191902 
L 521.737688 113.425586 
L 522.372572 99.705833 
L 523.007457 94.454536 
L 523.642341 82.327979 
L 524.277226 109.940719 
L 524.91211 72.155397 
L 525.546995 82.434451 
L 526.18188 108.900398 
L 526.816764 79.579348 
L 527.451649 113.855491 
L 528.086533 110.458077 
L 528.721418 95.499195 
L 529.356302 97.622165 
L 529.991187 92.880013 
L 530.626071 78.807854 
L 531.260956 96.882249 
L 531.89584 110.634863 
L 532.530725 120.50049 
L 533.165609 89.666943 
L 533.800494 75.862208 
L 534.435378 106.381157 
L 535.070263 96.972223 
L 535.705147 106.155354 
L 536.974916 97.482459 
L 537.609801 102.697344 
L 538.244685 81.695436 
L 538.87957 97.007219 
L 539.514454 118.03701 
L 540.784223 80.303436 
L 541.419108 77.481432 
L 542.053992 87.596175 
L 542.688877 113.697856 
L 543.323761 87.881898 
L 543.958646 76.866722 
L 544.59353 90.935488 
L 545.228415 70.439468 
L 545.863299 100.013441 
L 546.498184 70.347951 
L 547.133069 95.582137 
L 547.767953 146.890047 
L 548.402838 101.689005 
L 549.037722 117.909371 
L 549.672607 130.661549 
L 550.307491 104.472582 
L 550.942376 97.222365 
L 551.57726 112.476204 
L 552.212145 117.804279 
L 552.847029 65.182012 
L 553.481914 63.528519 
L 554.116798 96.025664 
L 554.751683 115.239989 
L 555.386567 124.367472 
L 556.021452 113.477306 
L 556.656336 96.240522 
L 557.291221 89.437516 
L 557.926105 109.927324 
L 558.56099 100.357967 
L 559.195874 82.154035 
L 559.830759 87.02009 
L 560.465643 111.820606 
L 561.100528 87.175997 
L 561.735412 80.479443 
L 562.370297 88.493568 
L 563.005181 107.81649 
L 563.640066 71.49852 
L 564.27495 82.512604 
L 564.909835 127.991773 
L 565.544719 85.19833 
L 566.179604 105.764153 
L 566.814488 99.561807 
L 567.449373 92.044367 
L 568.084257 65.712885 
L 568.719142 107.673299 
L 569.354027 126.141222 
L 569.988911 66.1157 
L 570.623796 110.36571 
L 571.25868 104.668641 
L 571.893565 102.321977 
L 572.528449 109.468837 
L 573.163334 88.989125 
L 573.798218 107.203908 
L 574.433103 93.133693 
L 575.067987 86.819187 
L 575.702872 111.499323 
L 576.337756 68.487324 
L 576.972641 69.260109 
L 577.607525 123.128056 
L 578.24241 92.659063 
L 578.877294 93.9121 
L 579.512179 122.505008 
L 580.147063 122.661895 
L 580.781948 92.461739 
L 581.416832 116.941379 
L 582.051717 109.935454 
L 582.686601 82.560664 
L 583.321486 102.095812 
L 583.95637 79.33735 
L 584.591255 68.332692 
L 585.226139 61.037093 
L 585.861024 93.262153 
L 586.495908 113.529779 
L 587.130793 124.189337 
L 587.765677 125.543297 
L 588.400562 100.596345 
L 589.035446 93.18108 
L 589.670331 91.440378 
L 590.305216 74.370414 
L 590.9401 112.314557 
L 591.574985 115.982635 
L 592.209869 90.314318 
L 592.844754 125.643678 
L 593.479638 85.926876 
L 594.114523 96.2138 
L 594.749407 121.906789 
L 595.384292 100.579143 
L 596.019176 99.987622 
L 596.019176 99.987622 
" clip-path="url(#p0f691bb3ab)" style="fill: none; stroke: #1f77b4; stroke-width: 1.5; stroke-linecap: square"/>
   </g>
   <g id="line2d_16">
    <path d="M 342.700255 93.1087 
L 343.335139 86.76584 
L 343.970024 62.808198 
L 344.604908 66.424168 
L 345.239793 94.866603 
L 345.874677 79.987614 
L 346.509562 89.766911 
L 347.144446 81.911326 
L 347.779331 67.716863 
L 348.414215 81.961584 
L 349.0491 71.699115 
L 349.683984 87.300259 
L 350.318869 96.550456 
L 350.953753 99.877801 
L 351.588638 83.107074 
L 352.223522 66.980292 
L 352.858407 61.353031 
L 353.493292 80.991765 
L 354.128176 121.134912 
L 354.763061 164.67171 
L 355.397945 195.478125 
L 356.03283 165.097598 
L 356.667714 186.814171 
L 357.302599 165.551724 
L 357.937483 144.614723 
L 358.572368 150.417494 
L 359.207252 104.024944 
L 359.842137 118.392048 
L 360.477021 123.610631 
L 361.111906 142.342444 
L 361.74679 122.691492 
L 362.381675 99.270762 
L 363.016559 99.318253 
L 363.651444 101.724369 
L 364.286328 87.970757 
L 364.921213 44.278125 
L 365.556097 102.288907 
L 366.190982 101.317621 
L 366.825866 86.915764 
L 367.460751 85.468166 
" clip-path="url(#p0f691bb3ab)" style="fill: none; stroke: #ff0000; stroke-width: 1.5; stroke-linecap: square"/>
   </g>
   <g id="patch_3">
    <path d="M 63.382812 203.038125 
L 63.382812 36.718125 
" style="fill: none; stroke: #000000; stroke-width: 0.8; stroke-linejoin: miter; stroke-linecap: square"/>
   </g>
   <g id="patch_4">
    <path d="M 621.382812 203.038125 
L 621.382812 36.718125 
" style="fill: none; stroke: #000000; stroke-width: 0.8; stroke-linejoin: miter; stroke-linecap: square"/>
   </g>
   <g id="patch_5">
    <path d="M 63.382812 203.038125 
L 621.382812 203.038125 
" style="fill: none; stroke: #000000; stroke-width: 0.8; stroke-linejoin: miter; stroke-linecap: square"/>
   </g>
   <g id="patch_6">
    <path d="M 63.382812 36.718125 
L 621.382812 36.718125 
" style="fill: none; stroke: #000000; stroke-width: 0.8; stroke-linejoin: miter; stroke-linecap: square"/>
   </g>
   <g id="text_17">
    <!-- Channel:13, Time stamp : 711498 -->
    <g transform="translate(240.144688 30.718125) scale(0.12 -0.12)">
     <defs>
      <path id="DejaVuSans-43" d="M 4122 4306 
L 4122 3641 
Q 3803 3938 3442 4084 
Q 3081 4231 2675 4231 
Q 1875 4231 1450 3742 
Q 1025 3253 1025 2328 
Q 1025 1406 1450 917 
Q 1875 428 2675 428 
Q 3081 428 3442 575 
Q 3803 722 4122 1019 
L 4122 359 
Q 3791 134 3420 21 
Q 3050 -91 2638 -91 
Q 1578 -91 968 557 
Q 359 1206 359 2328 
Q 359 3453 968 4101 
Q 1578 4750 2638 4750 
Q 3056 4750 3426 4639 
Q 3797 4528 4122 4306 
z
" transform="scale(0.015625)"/>
      <path id="DejaVuSans-68" d="M 3513 2113 
L 3513 0 
L 2938 0 
L 2938 2094 
Q 2938 2591 2744 2837 
Q 2550 3084 2163 3084 
Q 1697 3084 1428 2787 
Q 1159 2491 1159 1978 
L 1159 0 
L 581 0 
L 581 4863 
L 1159 4863 
L 1159 2956 
Q 1366 3272 1645 3428 
Q 1925 3584 2291 3584 
Q 2894 3584 3203 3211 
Q 3513 2838 3513 2113 
z
" transform="scale(0.015625)"/>
      <path id="DejaVuSans-6e" d="M 3513 2113 
L 3513 0 
L 2938 0 
L 2938 2094 
Q 2938 2591 2744 2837 
Q 2550 3084 2163 3084 
Q 1697 3084 1428 2787 
Q 1159 2491 1159 1978 
L 1159 0 
L 581 0 
L 581 3500 
L 1159 3500 
L 1159 2956 
Q 1366 3272 1645 3428 
Q 1925 3584 2291 3584 
Q 2894 3584 3203 3211 
Q 3513 2838 3513 2113 
z
" transform="scale(0.015625)"/>
      <path id="DejaVuSans-3a" d="M 750 794 
L 1409 794 
L 1409 0 
L 750 0 
L 750 794 
z
M 750 3309 
L 1409 3309 
L 1409 2516 
L 750 2516 
L 750 3309 
z
" transform="scale(0.015625)"/>
      <path id="DejaVuSans-2c" d="M 750 794 
L 1409 794 
L 1409 256 
L 897 -744 
L 494 -744 
L 750 256 
L 750 794 
z
" transform="scale(0.015625)"/>
      <path id="DejaVuSans-70" d="M 1159 525 
L 1159 -1331 
L 581 -1331 
L 581 3500 
L 1159 3500 
L 1159 2969 
Q 1341 3281 1617 3432 
Q 1894 3584 2278 3584 
Q 2916 3584 3314 3078 
Q 3713 2572 3713 1747 
Q 3713 922 3314 415 
Q 2916 -91 2278 -91 
Q 1894 -91 1617 61 
Q 1341 213 1159 525 
z
M 3116 1747 
Q 3116 2381 2855 2742 
Q 2594 3103 2138 3103 
Q 1681 3103 1420 2742 
Q 1159 2381 1159 1747 
Q 1159 1113 1420 752 
Q 1681 391 2138 391 
Q 2594 391 2855 752 
Q 3116 1113 3116 1747 
z
" transform="scale(0.015625)"/>
      <path id="DejaVuSans-37" d="M 525 4666 
L 3525 4666 
L 3525 4397 
L 1831 0 
L 1172 0 
L 2766 4134 
L 525 4134 
L 525 4666 
z
" transform="scale(0.015625)"/>
      <path id="DejaVuSans-34" d="M 2419 4116 
L 825 1625 
L 2419 1625 
L 2419 4116 
z
M 2253 4666 
L 3047 4666 
L 3047 1625 
L 3713 1625 
L 3713 1100 
L 3047 1100 
L 3047 0 
L 2419 0 
L 2419 1100 
L 313 1100 
L 313 1709 
L 2253 4666 
z
" transform="scale(0.015625)"/>
      <path id="DejaVuSans-39" d="M 703 97 
L 703 672 
Q 941 559 1184 500 
Q 1428 441 1663 441 
Q 2288 441 2617 861 
Q 2947 1281 2994 2138 
Q 2813 1869 2534 1725 
Q 2256 1581 1919 1581 
Q 1219 1581 811 2004 
Q 403 2428 403 3163 
Q 403 3881 828 4315 
Q 1253 4750 1959 4750 
Q 2769 4750 3195 4129 
Q 3622 3509 3622 2328 
Q 3622 1225 3098 567 
Q 2575 -91 1691 -91 
Q 1453 -91 1209 -44 
Q 966 3 703 97 
z
M 1959 2075 
Q 2384 2075 2632 2365 
Q 2881 2656 2881 3163 
Q 2881 3666 2632 3958 
Q 2384 4250 1959 4250 
Q 1534 4250 1286 3958 
Q 1038 3666 1038 3163 
Q 1038 2656 1286 2365 
Q 1534 2075 1959 2075 
z
" transform="scale(0.015625)"/>
      <path id="DejaVuSans-38" d="M 2034 2216 
Q 1584 2216 1326 1975 
Q 1069 1734 1069 1313 
Q 1069 891 1326 650 
Q 1584 409 2034 409 
Q 2484 409 2743 651 
Q 3003 894 3003 1313 
Q 3003 1734 2745 1975 
Q 2488 2216 2034 2216 
z
M 1403 2484 
Q 997 2584 770 2862 
Q 544 3141 544 3541 
Q 544 4100 942 4425 
Q 1341 4750 2034 4750 
Q 2731 4750 3128 4425 
Q 3525 4100 3525 3541 
Q 3525 3141 3298 2862 
Q 3072 2584 2669 2484 
Q 3125 2378 3379 2068 
Q 3634 1759 3634 1313 
Q 3634 634 3220 271 
Q 2806 -91 2034 -91 
Q 1263 -91 848 271 
Q 434 634 434 1313 
Q 434 1759 690 2068 
Q 947 2378 1403 2484 
z
M 1172 3481 
Q 1172 3119 1398 2916 
Q 1625 2713 2034 2713 
Q 2441 2713 2670 2916 
Q 2900 3119 2900 3481 
Q 2900 3844 2670 4047 
Q 2441 4250 2034 4250 
Q 1625 4250 1398 4047 
Q 1172 3844 1172 3481 
z
" transform="scale(0.015625)"/>
     </defs>
     <use xlink:href="#DejaVuSans-43"/>
     <use xlink:href="#DejaVuSans-68" x="69.824219"/>
     <use xlink:href="#DejaVuSans-61" x="133.203125"/>
     <use xlink:href="#DejaVuSans-6e" x="194.482422"/>
     <use xlink:href="#DejaVuSans-6e" x="257.861328"/>
     <use xlink:href="#DejaVuSans-65" x="321.240234"/>
     <use xlink:href="#DejaVuSans-6c" x="382.763672"/>
     <use xlink:href="#DejaVuSans-3a" x="410.546875"/>
     <use xlink:href="#DejaVuSans-31" x="444.238281"/>
     <use xlink:href="#DejaVuSans-33" x="507.861328"/>
     <use xlink:href="#DejaVuSans-2c" x="571.484375"/>
     <use xlink:href="#DejaVuSans-20" x="603.271484"/>
     <use xlink:href="#DejaVuSans-54" x="635.058594"/>
     <use xlink:href="#DejaVuSans-69" x="693.017578"/>
     <use xlink:href="#DejaVuSans-6d" x="720.800781"/>
     <use xlink:href="#DejaVuSans-65" x="818.212891"/>
     <use xlink:href="#DejaVuSans-20" x="879.736328"/>
     <use xlink:href="#DejaVuSans-73" x="911.523438"/>
     <use xlink:href="#DejaVuSans-74" x="963.623047"/>
     <use xlink:href="#DejaVuSans-61" x="1002.832031"/>
     <use xlink:href="#DejaVuSans-6d" x="1064.111328"/>
     <use xlink:href="#DejaVuSans-70" x="1161.523438"/>
     <use xlink:href="#DejaVuSans-20" x="1225"/>
     <use xlink:href="#DejaVuSans-3a" x="1256.787109"/>
     <use xlink:href="#DejaVuSans-20" x="1290.478516"/>
     <use xlink:href="#DejaVuSans-37" x="1322.265625"/>
     <use xlink:href="#DejaVuSans-31" x="1385.888672"/>
     <use xlink:href="#DejaVuSans-31" x="1449.511719"/>
     <use xlink:href="#DejaVuSans-34" x="1513.134766"/>
     <use xlink:href="#DejaVuSans-39" x="1576.757812"/>
     <use xlink:href="#DejaVuSans-38" x="1640.380859"/>
    </g>
   </g>
  </g>
 </g>
 <defs>
  <clipPath id="p0f691bb3ab">
   <rect x="63.382812" y="36.718125" width="558" height="166.32"/>
  </clipPath>
 </defs>
</svg>
