<?xml version="1.0" encoding="utf-8" standalone="no"?>
<!DOCTYPE svg PUBLIC "-//W3C//DTD SVG 1.1//EN"
  "http://www.w3.org/Graphics/SVG/1.1/DTD/svg11.dtd">
<svg xmlns:xlink="http://www.w3.org/1999/xlink" width="642.982813pt" height="254.994375pt" viewBox="0 0 642.982813 254.994375" xmlns="http://www.w3.org/2000/svg" version="1.1">
 <metadata>
  <rdf:RDF xmlns:dc="http://purl.org/dc/elements/1.1/" xmlns:cc="http://creativecommons.org/ns#" xmlns:rdf="http://www.w3.org/1999/02/22-rdf-syntax-ns#">
   <cc:Work>
    <dc:type rdf:resource="http://purl.org/dc/dcmitype/StillImage"/>
    <dc:date>2024-02-26T10:41:44.791319</dc:date>
    <dc:format>image/svg+xml</dc:format>
    <dc:creator>
     <cc:Agent>
      <dc:title>Matplotlib v3.7.1, https://matplotlib.org/</dc:title>
     </cc:Agent>
    </dc:creator>
   </cc:Work>
  </rdf:RDF>
 </metadata>
 <defs>
  <style type="text/css">*{stroke-linejoin: round; stroke-linecap: butt}</style>
 </defs>
 <g id="figure_1">
  <g id="patch_1">
   <path d="M 0 254.994375 
L 642.982813 254.994375 
L 642.982813 -0 
L 0 -0 
z
" style="fill: #ffffff"/>
  </g>
  <g id="axes_1">
   <g id="patch_2">
    <path d="M 63.382812 203.038125 
L 621.382812 203.038125 
L 621.382812 36.718125 
L 63.382812 36.718125 
z
" style="fill: #ffffff"/>
   </g>
   <g id="matplotlib.axis_1">
    <g id="xtick_1">
     <g id="line2d_1">
      <defs>
       <path id="m46b131db71" d="M 0 0 
L 0 3.5 
" style="stroke: #000000; stroke-width: 0.8"/>
      </defs>
      <g>
       <use xlink:href="#m46b131db71" x="88.746449" y="203.038125" style="stroke: #000000; stroke-width: 0.8"/>
      </g>
     </g>
     <g id="text_1">
      <!-- −20 -->
      <g transform="translate(78.194105 217.636562) scale(0.1 -0.1)">
       <defs>
        <path id="DejaVuSans-2212" d="M 678 2272 
L 4684 2272 
L 4684 1741 
L 678 1741 
L 678 2272 
z
" transform="scale(0.015625)"/>
        <path id="DejaVuSans-32" d="M 1228 531 
L 3431 531 
L 3431 0 
L 469 0 
L 469 531 
Q 828 903 1448 1529 
Q 2069 2156 2228 2338 
Q 2531 2678 2651 2914 
Q 2772 3150 2772 3378 
Q 2772 3750 2511 3984 
Q 2250 4219 1831 4219 
Q 1534 4219 1204 4116 
Q 875 4013 500 3803 
L 500 4441 
Q 881 4594 1212 4672 
Q 1544 4750 1819 4750 
Q 2544 4750 2975 4387 
Q 3406 4025 3406 3419 
Q 3406 3131 3298 2873 
Q 3191 2616 2906 2266 
Q 2828 2175 2409 1742 
Q 1991 1309 1228 531 
z
" transform="scale(0.015625)"/>
        <path id="DejaVuSans-30" d="M 2034 4250 
Q 1547 4250 1301 3770 
Q 1056 3291 1056 2328 
Q 1056 1369 1301 889 
Q 1547 409 2034 409 
Q 2525 409 2770 889 
Q 3016 1369 3016 2328 
Q 3016 3291 2770 3770 
Q 2525 4250 2034 4250 
z
M 2034 4750 
Q 2819 4750 3233 4129 
Q 3647 3509 3647 2328 
Q 3647 1150 3233 529 
Q 2819 -91 2034 -91 
Q 1250 -91 836 529 
Q 422 1150 422 2328 
Q 422 3509 836 4129 
Q 1250 4750 2034 4750 
z
" transform="scale(0.015625)"/>
       </defs>
       <use xlink:href="#DejaVuSans-2212"/>
       <use xlink:href="#DejaVuSans-32" x="83.789062"/>
       <use xlink:href="#DejaVuSans-30" x="147.412109"/>
      </g>
     </g>
    </g>
    <g id="xtick_2">
     <g id="line2d_2">
      <g>
       <use xlink:href="#m46b131db71" x="152.15554" y="203.038125" style="stroke: #000000; stroke-width: 0.8"/>
      </g>
     </g>
     <g id="text_2">
      <!-- −15 -->
      <g transform="translate(141.603196 217.636562) scale(0.1 -0.1)">
       <defs>
        <path id="DejaVuSans-31" d="M 794 531 
L 1825 531 
L 1825 4091 
L 703 3866 
L 703 4441 
L 1819 4666 
L 2450 4666 
L 2450 531 
L 3481 531 
L 3481 0 
L 794 0 
L 794 531 
z
" transform="scale(0.015625)"/>
        <path id="DejaVuSans-35" d="M 691 4666 
L 3169 4666 
L 3169 4134 
L 1269 4134 
L 1269 2991 
Q 1406 3038 1543 3061 
Q 1681 3084 1819 3084 
Q 2600 3084 3056 2656 
Q 3513 2228 3513 1497 
Q 3513 744 3044 326 
Q 2575 -91 1722 -91 
Q 1428 -91 1123 -41 
Q 819 9 494 109 
L 494 744 
Q 775 591 1075 516 
Q 1375 441 1709 441 
Q 2250 441 2565 725 
Q 2881 1009 2881 1497 
Q 2881 1984 2565 2268 
Q 2250 2553 1709 2553 
Q 1456 2553 1204 2497 
Q 953 2441 691 2322 
L 691 4666 
z
" transform="scale(0.015625)"/>
       </defs>
       <use xlink:href="#DejaVuSans-2212"/>
       <use xlink:href="#DejaVuSans-31" x="83.789062"/>
       <use xlink:href="#DejaVuSans-35" x="147.412109"/>
      </g>
     </g>
    </g>
    <g id="xtick_3">
     <g id="line2d_3">
      <g>
       <use xlink:href="#m46b131db71" x="215.564631" y="203.038125" style="stroke: #000000; stroke-width: 0.8"/>
      </g>
     </g>
     <g id="text_3">
      <!-- −10 -->
      <g transform="translate(205.012287 217.636562) scale(0.1 -0.1)">
       <use xlink:href="#DejaVuSans-2212"/>
       <use xlink:href="#DejaVuSans-31" x="83.789062"/>
       <use xlink:href="#DejaVuSans-30" x="147.412109"/>
      </g>
     </g>
    </g>
    <g id="xtick_4">
     <g id="line2d_4">
      <g>
       <use xlink:href="#m46b131db71" x="278.973722" y="203.038125" style="stroke: #000000; stroke-width: 0.8"/>
      </g>
     </g>
     <g id="text_4">
      <!-- −5 -->
      <g transform="translate(271.602628 217.636562) scale(0.1 -0.1)">
       <use xlink:href="#DejaVuSans-2212"/>
       <use xlink:href="#DejaVuSans-35" x="83.789062"/>
      </g>
     </g>
    </g>
    <g id="xtick_5">
     <g id="line2d_5">
      <g>
       <use xlink:href="#m46b131db71" x="342.382812" y="203.038125" style="stroke: #000000; stroke-width: 0.8"/>
      </g>
     </g>
     <g id="text_5">
      <!-- 0 -->
      <g transform="translate(339.201563 217.636562) scale(0.1 -0.1)">
       <use xlink:href="#DejaVuSans-30"/>
      </g>
     </g>
    </g>
    <g id="xtick_6">
     <g id="line2d_6">
      <g>
       <use xlink:href="#m46b131db71" x="405.791903" y="203.038125" style="stroke: #000000; stroke-width: 0.8"/>
      </g>
     </g>
     <g id="text_6">
      <!-- 5 -->
      <g transform="translate(402.610653 217.636562) scale(0.1 -0.1)">
       <use xlink:href="#DejaVuSans-35"/>
      </g>
     </g>
    </g>
    <g id="xtick_7">
     <g id="line2d_7">
      <g>
       <use xlink:href="#m46b131db71" x="469.200994" y="203.038125" style="stroke: #000000; stroke-width: 0.8"/>
      </g>
     </g>
     <g id="text_7">
      <!-- 10 -->
      <g transform="translate(462.838494 217.636562) scale(0.1 -0.1)">
       <use xlink:href="#DejaVuSans-31"/>
       <use xlink:href="#DejaVuSans-30" x="63.623047"/>
      </g>
     </g>
    </g>
    <g id="xtick_8">
     <g id="line2d_8">
      <g>
       <use xlink:href="#m46b131db71" x="532.610085" y="203.038125" style="stroke: #000000; stroke-width: 0.8"/>
      </g>
     </g>
     <g id="text_8">
      <!-- 15 -->
      <g transform="translate(526.247585 217.636562) scale(0.1 -0.1)">
       <use xlink:href="#DejaVuSans-31"/>
       <use xlink:href="#DejaVuSans-35" x="63.623047"/>
      </g>
     </g>
    </g>
    <g id="xtick_9">
     <g id="line2d_9">
      <g>
       <use xlink:href="#m46b131db71" x="596.019176" y="203.038125" style="stroke: #000000; stroke-width: 0.8"/>
      </g>
     </g>
     <g id="text_9">
      <!-- 20 -->
      <g transform="translate(589.656676 217.636562) scale(0.1 -0.1)">
       <use xlink:href="#DejaVuSans-32"/>
       <use xlink:href="#DejaVuSans-30" x="63.623047"/>
      </g>
     </g>
    </g>
    <g id="text_10">
     <!-- Time [ms] -->
     <g transform="translate(317.183594 231.314687) scale(0.1 -0.1)">
      <defs>
       <path id="DejaVuSans-54" d="M -19 4666 
L 3928 4666 
L 3928 4134 
L 2272 4134 
L 2272 0 
L 1638 0 
L 1638 4134 
L -19 4134 
L -19 4666 
z
" transform="scale(0.015625)"/>
       <path id="DejaVuSans-69" d="M 603 3500 
L 1178 3500 
L 1178 0 
L 603 0 
L 603 3500 
z
M 603 4863 
L 1178 4863 
L 1178 4134 
L 603 4134 
L 603 4863 
z
" transform="scale(0.015625)"/>
       <path id="DejaVuSans-6d" d="M 3328 2828 
Q 3544 3216 3844 3400 
Q 4144 3584 4550 3584 
Q 5097 3584 5394 3201 
Q 5691 2819 5691 2113 
L 5691 0 
L 5113 0 
L 5113 2094 
Q 5113 2597 4934 2840 
Q 4756 3084 4391 3084 
Q 3944 3084 3684 2787 
Q 3425 2491 3425 1978 
L 3425 0 
L 2847 0 
L 2847 2094 
Q 2847 2600 2669 2842 
Q 2491 3084 2119 3084 
Q 1678 3084 1418 2786 
Q 1159 2488 1159 1978 
L 1159 0 
L 581 0 
L 581 3500 
L 1159 3500 
L 1159 2956 
Q 1356 3278 1631 3431 
Q 1906 3584 2284 3584 
Q 2666 3584 2933 3390 
Q 3200 3197 3328 2828 
z
" transform="scale(0.015625)"/>
       <path id="DejaVuSans-65" d="M 3597 1894 
L 3597 1613 
L 953 1613 
Q 991 1019 1311 708 
Q 1631 397 2203 397 
Q 2534 397 2845 478 
Q 3156 559 3463 722 
L 3463 178 
Q 3153 47 2828 -22 
Q 2503 -91 2169 -91 
Q 1331 -91 842 396 
Q 353 884 353 1716 
Q 353 2575 817 3079 
Q 1281 3584 2069 3584 
Q 2775 3584 3186 3129 
Q 3597 2675 3597 1894 
z
M 3022 2063 
Q 3016 2534 2758 2815 
Q 2500 3097 2075 3097 
Q 1594 3097 1305 2825 
Q 1016 2553 972 2059 
L 3022 2063 
z
" transform="scale(0.015625)"/>
       <path id="DejaVuSans-20" transform="scale(0.015625)"/>
       <path id="DejaVuSans-5b" d="M 550 4863 
L 1875 4863 
L 1875 4416 
L 1125 4416 
L 1125 -397 
L 1875 -397 
L 1875 -844 
L 550 -844 
L 550 4863 
z
" transform="scale(0.015625)"/>
       <path id="DejaVuSans-73" d="M 2834 3397 
L 2834 2853 
Q 2591 2978 2328 3040 
Q 2066 3103 1784 3103 
Q 1356 3103 1142 2972 
Q 928 2841 928 2578 
Q 928 2378 1081 2264 
Q 1234 2150 1697 2047 
L 1894 2003 
Q 2506 1872 2764 1633 
Q 3022 1394 3022 966 
Q 3022 478 2636 193 
Q 2250 -91 1575 -91 
Q 1294 -91 989 -36 
Q 684 19 347 128 
L 347 722 
Q 666 556 975 473 
Q 1284 391 1588 391 
Q 1994 391 2212 530 
Q 2431 669 2431 922 
Q 2431 1156 2273 1281 
Q 2116 1406 1581 1522 
L 1381 1569 
Q 847 1681 609 1914 
Q 372 2147 372 2553 
Q 372 3047 722 3315 
Q 1072 3584 1716 3584 
Q 2034 3584 2315 3537 
Q 2597 3491 2834 3397 
z
" transform="scale(0.015625)"/>
       <path id="DejaVuSans-5d" d="M 1947 4863 
L 1947 -844 
L 622 -844 
L 622 -397 
L 1369 -397 
L 1369 4416 
L 622 4416 
L 622 4863 
L 1947 4863 
z
" transform="scale(0.015625)"/>
      </defs>
      <use xlink:href="#DejaVuSans-54"/>
      <use xlink:href="#DejaVuSans-69" x="57.958984"/>
      <use xlink:href="#DejaVuSans-6d" x="85.742188"/>
      <use xlink:href="#DejaVuSans-65" x="183.154297"/>
      <use xlink:href="#DejaVuSans-20" x="244.677734"/>
      <use xlink:href="#DejaVuSans-5b" x="276.464844"/>
      <use xlink:href="#DejaVuSans-6d" x="315.478516"/>
      <use xlink:href="#DejaVuSans-73" x="412.890625"/>
      <use xlink:href="#DejaVuSans-5d" x="464.990234"/>
     </g>
    </g>
   </g>
   <g id="matplotlib.axis_2">
    <g id="ytick_1">
     <g id="line2d_10">
      <defs>
       <path id="m3eb5bc8900" d="M 0 0 
L -3.5 0 
" style="stroke: #000000; stroke-width: 0.8"/>
      </defs>
      <g>
       <use xlink:href="#m3eb5bc8900" x="63.382812" y="177.280992" style="stroke: #000000; stroke-width: 0.8"/>
      </g>
     </g>
     <g id="text_11">
      <!-- −30 -->
      <g transform="translate(35.278125 181.080211) scale(0.1 -0.1)">
       <defs>
        <path id="DejaVuSans-33" d="M 2597 2516 
Q 3050 2419 3304 2112 
Q 3559 1806 3559 1356 
Q 3559 666 3084 287 
Q 2609 -91 1734 -91 
Q 1441 -91 1130 -33 
Q 819 25 488 141 
L 488 750 
Q 750 597 1062 519 
Q 1375 441 1716 441 
Q 2309 441 2620 675 
Q 2931 909 2931 1356 
Q 2931 1769 2642 2001 
Q 2353 2234 1838 2234 
L 1294 2234 
L 1294 2753 
L 1863 2753 
Q 2328 2753 2575 2939 
Q 2822 3125 2822 3475 
Q 2822 3834 2567 4026 
Q 2313 4219 1838 4219 
Q 1578 4219 1281 4162 
Q 984 4106 628 3988 
L 628 4550 
Q 988 4650 1302 4700 
Q 1616 4750 1894 4750 
Q 2613 4750 3031 4423 
Q 3450 4097 3450 3541 
Q 3450 3153 3228 2886 
Q 3006 2619 2597 2516 
z
" transform="scale(0.015625)"/>
       </defs>
       <use xlink:href="#DejaVuSans-2212"/>
       <use xlink:href="#DejaVuSans-33" x="83.789062"/>
       <use xlink:href="#DejaVuSans-30" x="147.412109"/>
      </g>
     </g>
    </g>
    <g id="ytick_2">
     <g id="line2d_11">
      <g>
       <use xlink:href="#m3eb5bc8900" x="63.382812" y="150.499929" style="stroke: #000000; stroke-width: 0.8"/>
      </g>
     </g>
     <g id="text_12">
      <!-- −20 -->
      <g transform="translate(35.278125 154.299147) scale(0.1 -0.1)">
       <use xlink:href="#DejaVuSans-2212"/>
       <use xlink:href="#DejaVuSans-32" x="83.789062"/>
       <use xlink:href="#DejaVuSans-30" x="147.412109"/>
      </g>
     </g>
    </g>
    <g id="ytick_3">
     <g id="line2d_12">
      <g>
       <use xlink:href="#m3eb5bc8900" x="63.382812" y="123.718865" style="stroke: #000000; stroke-width: 0.8"/>
      </g>
     </g>
     <g id="text_13">
      <!-- −10 -->
      <g transform="translate(35.278125 127.518084) scale(0.1 -0.1)">
       <use xlink:href="#DejaVuSans-2212"/>
       <use xlink:href="#DejaVuSans-31" x="83.789062"/>
       <use xlink:href="#DejaVuSans-30" x="147.412109"/>
      </g>
     </g>
    </g>
    <g id="ytick_4">
     <g id="line2d_13">
      <g>
       <use xlink:href="#m3eb5bc8900" x="63.382812" y="96.937802" style="stroke: #000000; stroke-width: 0.8"/>
      </g>
     </g>
     <g id="text_14">
      <!-- 0 -->
      <g transform="translate(50.020313 100.737021) scale(0.1 -0.1)">
       <use xlink:href="#DejaVuSans-30"/>
      </g>
     </g>
    </g>
    <g id="ytick_5">
     <g id="line2d_14">
      <g>
       <use xlink:href="#m3eb5bc8900" x="63.382812" y="70.156739" style="stroke: #000000; stroke-width: 0.8"/>
      </g>
     </g>
     <g id="text_15">
      <!-- 10 -->
      <g transform="translate(43.657812 73.955958) scale(0.1 -0.1)">
       <use xlink:href="#DejaVuSans-31"/>
       <use xlink:href="#DejaVuSans-30" x="63.623047"/>
      </g>
     </g>
    </g>
    <g id="ytick_6">
     <g id="line2d_15">
      <g>
       <use xlink:href="#m3eb5bc8900" x="63.382812" y="43.375676" style="stroke: #000000; stroke-width: 0.8"/>
      </g>
     </g>
     <g id="text_16">
      <!-- 20 -->
      <g transform="translate(43.657812 47.174894) scale(0.1 -0.1)">
       <use xlink:href="#DejaVuSans-32"/>
       <use xlink:href="#DejaVuSans-30" x="63.623047"/>
      </g>
     </g>
    </g>
    <g id="text_17">
     <!-- Voltage [uV] -->
     <g transform="translate(29.198438 150.714063) rotate(-90) scale(0.1 -0.1)">
      <defs>
       <path id="DejaVuSans-56" d="M 1831 0 
L 50 4666 
L 709 4666 
L 2188 738 
L 3669 4666 
L 4325 4666 
L 2547 0 
L 1831 0 
z
" transform="scale(0.015625)"/>
       <path id="DejaVuSans-6f" d="M 1959 3097 
Q 1497 3097 1228 2736 
Q 959 2375 959 1747 
Q 959 1119 1226 758 
Q 1494 397 1959 397 
Q 2419 397 2687 759 
Q 2956 1122 2956 1747 
Q 2956 2369 2687 2733 
Q 2419 3097 1959 3097 
z
M 1959 3584 
Q 2709 3584 3137 3096 
Q 3566 2609 3566 1747 
Q 3566 888 3137 398 
Q 2709 -91 1959 -91 
Q 1206 -91 779 398 
Q 353 888 353 1747 
Q 353 2609 779 3096 
Q 1206 3584 1959 3584 
z
" transform="scale(0.015625)"/>
       <path id="DejaVuSans-6c" d="M 603 4863 
L 1178 4863 
L 1178 0 
L 603 0 
L 603 4863 
z
" transform="scale(0.015625)"/>
       <path id="DejaVuSans-74" d="M 1172 4494 
L 1172 3500 
L 2356 3500 
L 2356 3053 
L 1172 3053 
L 1172 1153 
Q 1172 725 1289 603 
Q 1406 481 1766 481 
L 2356 481 
L 2356 0 
L 1766 0 
Q 1100 0 847 248 
Q 594 497 594 1153 
L 594 3053 
L 172 3053 
L 172 3500 
L 594 3500 
L 594 4494 
L 1172 4494 
z
" transform="scale(0.015625)"/>
       <path id="DejaVuSans-61" d="M 2194 1759 
Q 1497 1759 1228 1600 
Q 959 1441 959 1056 
Q 959 750 1161 570 
Q 1363 391 1709 391 
Q 2188 391 2477 730 
Q 2766 1069 2766 1631 
L 2766 1759 
L 2194 1759 
z
M 3341 1997 
L 3341 0 
L 2766 0 
L 2766 531 
Q 2569 213 2275 61 
Q 1981 -91 1556 -91 
Q 1019 -91 701 211 
Q 384 513 384 1019 
Q 384 1609 779 1909 
Q 1175 2209 1959 2209 
L 2766 2209 
L 2766 2266 
Q 2766 2663 2505 2880 
Q 2244 3097 1772 3097 
Q 1472 3097 1187 3025 
Q 903 2953 641 2809 
L 641 3341 
Q 956 3463 1253 3523 
Q 1550 3584 1831 3584 
Q 2591 3584 2966 3190 
Q 3341 2797 3341 1997 
z
" transform="scale(0.015625)"/>
       <path id="DejaVuSans-67" d="M 2906 1791 
Q 2906 2416 2648 2759 
Q 2391 3103 1925 3103 
Q 1463 3103 1205 2759 
Q 947 2416 947 1791 
Q 947 1169 1205 825 
Q 1463 481 1925 481 
Q 2391 481 2648 825 
Q 2906 1169 2906 1791 
z
M 3481 434 
Q 3481 -459 3084 -895 
Q 2688 -1331 1869 -1331 
Q 1566 -1331 1297 -1286 
Q 1028 -1241 775 -1147 
L 775 -588 
Q 1028 -725 1275 -790 
Q 1522 -856 1778 -856 
Q 2344 -856 2625 -561 
Q 2906 -266 2906 331 
L 2906 616 
Q 2728 306 2450 153 
Q 2172 0 1784 0 
Q 1141 0 747 490 
Q 353 981 353 1791 
Q 353 2603 747 3093 
Q 1141 3584 1784 3584 
Q 2172 3584 2450 3431 
Q 2728 3278 2906 2969 
L 2906 3500 
L 3481 3500 
L 3481 434 
z
" transform="scale(0.015625)"/>
       <path id="DejaVuSans-75" d="M 544 1381 
L 544 3500 
L 1119 3500 
L 1119 1403 
Q 1119 906 1312 657 
Q 1506 409 1894 409 
Q 2359 409 2629 706 
Q 2900 1003 2900 1516 
L 2900 3500 
L 3475 3500 
L 3475 0 
L 2900 0 
L 2900 538 
Q 2691 219 2414 64 
Q 2138 -91 1772 -91 
Q 1169 -91 856 284 
Q 544 659 544 1381 
z
M 1991 3584 
L 1991 3584 
z
" transform="scale(0.015625)"/>
      </defs>
      <use xlink:href="#DejaVuSans-56"/>
      <use xlink:href="#DejaVuSans-6f" x="60.658203"/>
      <use xlink:href="#DejaVuSans-6c" x="121.839844"/>
      <use xlink:href="#DejaVuSans-74" x="149.623047"/>
      <use xlink:href="#DejaVuSans-61" x="188.832031"/>
      <use xlink:href="#DejaVuSans-67" x="250.111328"/>
      <use xlink:href="#DejaVuSans-65" x="313.587891"/>
      <use xlink:href="#DejaVuSans-20" x="375.111328"/>
      <use xlink:href="#DejaVuSans-5b" x="406.898438"/>
      <use xlink:href="#DejaVuSans-75" x="445.912109"/>
      <use xlink:href="#DejaVuSans-56" x="509.291016"/>
      <use xlink:href="#DejaVuSans-5d" x="577.699219"/>
     </g>
    </g>
   </g>
   <g id="line2d_16">
    <path d="M 88.746449 96.332759 
L 89.381333 136.797066 
L 90.651102 61.071926 
L 91.285987 103.553851 
L 91.920871 99.250766 
L 92.555756 52.148971 
L 93.19064 61.28465 
L 93.825525 102.573758 
L 94.460409 152.966751 
L 95.095294 145.649262 
L 95.730179 153.935327 
L 96.365063 112.944988 
L 96.999948 100.22715 
L 97.634832 105.769167 
L 98.269717 94.18932 
L 98.904601 112.635297 
L 99.539486 83.584572 
L 100.17437 105.343287 
L 100.809255 90.859193 
L 101.444139 87.541296 
L 102.079024 97.21026 
L 102.713908 74.360693 
L 103.348793 75.481352 
L 103.983677 66.31194 
L 104.618562 67.445193 
L 105.253446 75.403268 
L 105.888331 98.674794 
L 106.523215 87.021638 
L 107.1581 102.81806 
L 107.792984 112.678526 
L 108.427869 107.513194 
L 109.062753 110.627779 
L 110.332522 76.205607 
L 111.602291 114.936786 
L 112.237176 108.259225 
L 112.87206 123.446436 
L 113.506945 103.753681 
L 114.141829 91.30492 
L 114.776714 90.21573 
L 115.411598 105.726023 
L 116.046483 91.141761 
L 116.681368 93.064585 
L 117.316252 106.015893 
L 117.951137 56.436447 
L 118.586021 92.026104 
L 119.220906 116.458408 
L 119.85579 91.483995 
L 120.490675 103.910394 
L 121.125559 97.090101 
L 121.760444 60.551838 
L 122.395328 69.171166 
L 123.030213 86.104834 
L 123.665097 52.662333 
L 124.934866 122.796877 
L 125.569751 138.576301 
L 126.204635 118.76767 
L 126.83952 116.321469 
L 127.474404 124.695496 
L 128.109289 92.321193 
L 128.744173 116.591082 
L 130.013942 88.203195 
L 130.648827 78.161181 
L 131.283711 90.181583 
L 131.918596 90.098075 
L 132.55348 101.087581 
L 133.188365 89.335652 
L 133.823249 94.245107 
L 134.458134 102.551994 
L 135.093018 83.705568 
L 135.727903 105.247924 
L 136.362787 109.113934 
L 136.997672 121.482446 
L 137.632556 100.982702 
L 138.267441 98.529923 
L 138.902326 84.889086 
L 139.53721 98.014257 
L 140.172095 95.306691 
L 140.806979 94.852868 
L 141.441864 104.054918 
L 142.076748 90.065606 
L 142.711633 100.714142 
L 143.346517 101.905967 
L 143.981402 111.417304 
L 144.616286 90.14541 
L 145.251171 83.430958 
L 145.886055 92.902014 
L 146.52094 110.75682 
L 147.155824 81.460865 
L 147.790709 76.927176 
L 148.425593 94.484756 
L 149.060478 98.905303 
L 149.695362 78.728056 
L 150.330247 65.440765 
L 150.965131 112.543292 
L 151.600016 93.507592 
L 152.2349 114.468448 
L 152.869785 92.770032 
L 153.504669 85.016557 
L 154.139554 97.198131 
L 154.774438 75.347043 
L 155.409323 107.867246 
L 156.044207 108.419866 
L 156.679092 102.869159 
L 157.313976 89.181274 
L 157.948861 98.928368 
L 158.583745 87.616606 
L 159.21863 82.988605 
L 159.853515 102.700879 
L 160.488399 109.87258 
L 161.123284 101.56205 
L 161.758168 101.749927 
L 162.393053 98.855054 
L 163.027937 112.390818 
L 163.662822 142.134215 
L 164.297706 100.000735 
L 164.932591 100.866729 
L 165.567475 82.849756 
L 166.20236 61.23624 
L 166.837244 102.194342 
L 167.472129 93.230581 
L 168.107013 78.137072 
L 168.741898 70.999374 
L 169.376782 81.182905 
L 170.011667 77.062122 
L 170.646551 102.980626 
L 171.281436 134.923285 
L 171.91632 99.672121 
L 172.551205 132.821318 
L 173.186089 108.877164 
L 173.820974 103.640383 
L 174.455858 138.459045 
L 175.090743 131.956369 
L 175.725627 109.072035 
L 176.360512 79.353382 
L 176.995396 107.432502 
L 177.630281 68.019634 
L 178.265165 61.483306 
L 178.90005 62.96832 
L 179.534934 69.919753 
L 180.169819 96.072715 
L 180.804704 102.43471 
L 181.439588 138.112001 
L 182.074473 132.373875 
L 182.709357 122.785967 
L 183.344242 102.274873 
L 183.979126 93.980159 
L 184.614011 87.327087 
L 185.248895 74.164399 
L 185.88378 99.010871 
L 186.518664 73.79596 
L 187.153549 70.472469 
L 187.788433 84.532241 
L 188.423318 72.728104 
L 189.058202 99.07294 
L 189.693087 96.375973 
L 190.327971 92.354941 
L 190.962856 95.467559 
L 191.59774 79.517778 
L 192.232625 66.886831 
L 192.867509 66.292834 
L 193.502394 83.248869 
L 194.137278 121.594978 
L 194.772163 126.306666 
L 195.407047 91.863394 
L 196.041932 74.938247 
L 196.676816 91.959916 
L 197.311701 91.595103 
L 197.946585 92.608795 
L 198.58147 124.613482 
L 199.216354 128.247087 
L 199.851239 139.559337 
L 200.486123 142.96914 
L 201.121008 96.247882 
L 201.755892 128.39645 
L 202.390777 121.07891 
L 203.025662 100.178678 
L 203.660546 131.549158 
L 204.295431 77.633306 
L 204.930315 91.092087 
L 205.5652 68.088008 
L 206.200084 63.383171 
L 206.834969 69.494356 
L 207.469853 66.118485 
L 208.104738 74.075635 
L 208.739622 78.859767 
L 209.374507 99.647494 
L 210.009391 85.348796 
L 210.644276 106.570297 
L 211.27916 103.808253 
L 211.914045 137.697455 
L 212.548929 138.380911 
L 213.183814 130.890925 
L 213.818698 135.262364 
L 214.453583 93.971304 
L 215.088467 109.598045 
L 215.723352 134.490833 
L 216.358236 102.655203 
L 216.993121 114.020405 
L 217.628005 107.142033 
L 218.26289 71.680473 
L 218.897774 91.750533 
L 219.532659 103.509797 
L 220.167543 87.320073 
L 220.802428 75.76619 
L 221.437312 72.987165 
L 222.072197 64.126164 
L 222.707081 61.306984 
L 223.976851 89.895948 
L 224.611735 86.39315 
L 225.24662 95.050078 
L 225.881504 95.703256 
L 226.516389 63.712444 
L 227.151273 68.793487 
L 227.786158 115.984184 
L 228.421042 97.060307 
L 229.055927 99.871842 
L 230.325696 95.239924 
L 230.96058 115.029615 
L 231.595465 113.010272 
L 232.230349 114.729759 
L 232.865234 81.068623 
L 233.500118 83.576107 
L 234.135003 103.818182 
L 234.769887 108.819358 
L 235.404772 146.231017 
L 236.039656 114.2493 
L 236.674541 88.681643 
L 237.309425 115.565228 
L 238.579194 92.947248 
L 239.214079 74.145398 
L 239.848963 63.118694 
L 240.483848 71.707679 
L 241.118732 72.554622 
L 241.753617 78.948349 
L 242.388501 106.613126 
L 243.023386 91.202832 
L 243.65827 90.579351 
L 244.293155 66.22403 
L 244.928039 84.980964 
L 245.562924 111.659754 
L 246.197809 108.557655 
L 246.832693 144.549801 
L 247.467578 121.559663 
L 248.102462 85.062879 
L 248.737347 73.280101 
L 249.372231 81.570457 
L 250.007116 97.374195 
L 250.642 100.17007 
L 251.276885 75.798614 
L 251.911769 88.663967 
L 252.546654 108.820395 
L 253.181538 107.637995 
L 253.816423 91.487726 
L 254.451307 94.936362 
L 255.086192 101.645302 
L 255.721076 90.745545 
L 256.355961 73.014558 
L 256.990845 97.117611 
L 257.62573 100.172213 
L 258.260614 91.030433 
L 258.895499 102.227953 
L 259.530383 74.005948 
L 260.165268 92.287967 
L 260.800152 87.78403 
L 261.435037 95.980851 
L 262.069921 162.10267 
L 262.704806 160.85666 
L 263.33969 112.593292 
L 263.974575 146.974146 
L 264.609459 158.055528 
L 265.244344 100.297004 
L 265.879228 109.431338 
L 266.514113 98.115695 
L 267.148998 74.814215 
L 267.783882 96.557806 
L 268.418767 96.499263 
L 269.053651 117.544918 
L 269.688536 107.118894 
L 270.32342 85.854895 
L 270.958305 98.846148 
L 271.593189 91.283982 
L 272.228074 99.369034 
L 272.862958 113.957672 
L 273.497843 94.597467 
L 274.132727 97.445644 
L 275.402496 75.143355 
L 276.037381 96.362482 
L 276.672265 75.751969 
L 277.30715 89.851288 
L 277.942034 95.082157 
L 278.576919 87.455917 
L 279.211803 90.832386 
L 279.846688 94.907712 
L 280.481572 92.253663 
L 281.116457 73.54785 
L 282.386226 101.701729 
L 283.02111 104.828293 
L 283.655995 81.710843 
L 284.290879 83.089454 
L 284.925764 90.872739 
L 285.560648 56.070242 
L 286.195533 61.834564 
L 286.830417 90.613828 
L 287.465302 66.685085 
L 288.100186 82.271175 
L 288.735071 82.994869 
L 289.369956 99.974038 
L 290.00484 126.982604 
L 290.639725 70.089864 
L 291.274609 78.560908 
L 291.909494 72.533704 
L 292.544378 71.436308 
L 293.179263 84.355736 
L 293.814147 84.202841 
L 294.449032 70.604966 
L 295.083916 77.172558 
L 295.718801 91.900576 
L 296.353685 84.818032 
L 296.98857 129.998069 
L 297.623454 143.711964 
L 298.258339 145.74913 
L 298.893223 129.073932 
L 299.528108 144.898862 
L 300.162992 86.909143 
L 300.797877 67.374729 
L 301.432761 72.633171 
L 302.067646 60.943912 
L 302.70253 110.325368 
L 303.337415 89.554588 
L 303.972299 127.956493 
L 304.607184 121.874713 
L 305.242068 137.025729 
L 305.876953 131.818672 
L 306.511837 136.470993 
L 307.146722 118.907514 
L 307.781606 70.378939 
L 308.416491 141.155269 
L 309.051375 132.460801 
L 309.68626 135.40672 
L 310.321145 122.15379 
L 310.956029 87.577475 
L 311.590914 90.100257 
L 312.225798 85.402203 
L 312.860683 69.715713 
L 313.495567 68.2929 
L 314.130452 81.882982 
L 314.765336 78.537497 
L 315.400221 92.124981 
L 316.035105 89.490132 
L 316.66999 85.80291 
L 317.304874 94.875076 
L 317.939759 132.871947 
L 318.574643 158.920894 
L 319.209528 135.122849 
L 319.844412 125.476242 
L 320.479297 106.622094 
L 321.114181 70.782299 
L 321.749066 89.111824 
L 322.38395 89.358095 
L 323.018835 91.953751 
L 323.653719 85.107702 
L 324.288604 88.476359 
L 324.923488 133.222082 
L 325.558373 84.393536 
L 326.193257 77.010796 
L 326.828142 111.021513 
L 327.463026 92.952817 
L 328.097911 84.799365 
L 328.732795 106.845233 
L 329.36768 101.82391 
L 330.002564 98.267792 
L 330.637449 69.151817 
L 331.272333 67.163869 
L 331.907218 93.335313 
L 332.542103 80.325035 
L 333.176987 74.119846 
L 333.811872 82.873893 
L 334.446756 108.643174 
L 335.081641 89.929812 
L 335.716525 110.201665 
L 336.35141 109.322606 
L 336.986294 92.3424 
L 337.621179 84.668622 
L 338.256063 104.632276 
L 338.890948 102.690857 
L 339.525832 93.752011 
L 340.160717 113.294921 
L 340.795601 99.864265 
L 341.430486 97.195591 
L 342.06537 89.509303 
L 342.700255 79.486529 
L 343.335139 49.613496 
L 343.970024 62.267548 
L 344.604908 68.960737 
L 345.239793 69.032648 
L 345.874677 62.976768 
L 346.509562 72.081746 
L 347.144446 90.719745 
L 347.779331 101.149188 
L 348.414215 92.714665 
L 349.0491 64.806589 
L 349.683984 60.149577 
L 350.318869 64.329269 
L 350.953753 63.069741 
L 351.588638 66.784661 
L 352.858407 97.73915 
L 353.493292 92.566921 
L 354.128176 124.281776 
L 354.763061 195.478125 
L 356.03283 177.893784 
L 356.667714 131.275322 
L 357.937483 123.287884 
L 358.572368 109.146575 
L 359.207252 111.548666 
L 359.842137 97.080242 
L 360.477021 116.485482 
L 361.111906 110.100141 
L 361.74679 120.916242 
L 362.381675 110.572363 
L 363.016559 113.387577 
L 363.651444 94.8209 
L 364.286328 66.762249 
L 364.921213 93.649212 
L 365.556097 88.624476 
L 366.190982 71.024517 
L 366.825866 97.500066 
L 367.460751 82.312189 
L 368.095635 99.117654 
L 368.73052 120.739355 
L 369.365404 103.376344 
L 370.000289 97.024084 
L 370.635173 78.395656 
L 371.270058 96.828388 
L 371.904942 90.480257 
L 372.539827 77.859395 
L 373.174711 92.097671 
L 373.809596 109.050186 
L 374.44448 103.614145 
L 375.079365 75.501279 
L 375.71425 64.457072 
L 376.349134 86.344908 
L 377.618903 61.662303 
L 378.253788 83.275776 
L 378.888672 109.536988 
L 379.523557 110.99206 
L 380.158441 95.740751 
L 380.793326 121.509489 
L 381.42821 108.523128 
L 382.063095 107.519435 
L 382.697979 108.196606 
L 383.332864 84.160965 
L 383.967748 101.559829 
L 384.602633 101.557677 
L 385.237517 102.726442 
L 385.872402 93.373838 
L 386.507286 53.222323 
L 387.142171 60.11711 
L 387.777055 72.657712 
L 388.41194 105.693203 
L 389.046824 99.955106 
L 389.681709 115.713114 
L 390.316593 148.716209 
L 390.951478 105.304845 
L 391.586362 105.110602 
L 392.221247 90.653076 
L 392.856131 112.229869 
L 394.1259 88.067172 
L 394.760785 90.462916 
L 395.395669 87.951394 
L 396.030554 104.985124 
L 396.665439 57.0198 
L 397.300323 77.243514 
L 397.935208 112.75353 
L 398.570092 111.703308 
L 399.204977 91.161872 
L 399.839861 94.527475 
L 400.474746 120.188763 
L 401.10963 88.387247 
L 401.744515 69.799294 
L 402.379399 93.8066 
L 403.014284 94.574331 
L 403.649168 82.586842 
L 404.284053 113.567613 
L 404.918937 99.642029 
L 405.553822 112.154887 
L 406.188706 139.229473 
L 406.823591 100.257633 
L 407.458475 103.167038 
L 408.09336 101.38158 
L 408.728244 118.344092 
L 409.363129 101.441648 
L 409.998013 98.569152 
L 410.632898 111.427281 
L 411.267782 76.191678 
L 411.902667 77.57162 
L 412.537551 57.452275 
L 413.80732 110.223003 
L 414.442205 117.049973 
L 415.077089 104.458103 
L 415.711974 75.50014 
L 416.346858 112.21747 
L 416.981743 103.978668 
L 417.616627 104.245272 
L 418.886397 49.19327 
L 419.521281 71.799561 
L 420.156166 98.496305 
L 420.79105 144.835411 
L 421.425935 114.806476 
L 422.060819 96.752252 
L 422.695704 91.872538 
L 423.330588 146.851344 
L 423.965473 147.228584 
L 424.600357 139.457518 
L 425.235242 146.703267 
L 425.870126 97.493889 
L 426.505011 73.102336 
L 427.139895 71.0489 
L 427.77478 102.440984 
L 428.409664 75.243289 
L 429.044549 106.248523 
L 429.679433 80.314857 
L 430.314318 69.872344 
L 430.949202 79.507807 
L 431.584087 60.627759 
L 432.218971 71.829724 
L 433.48874 135.672554 
L 434.123625 93.000776 
L 434.758509 103.450646 
L 436.028278 66.06758 
L 436.663163 74.514855 
L 437.298047 68.453861 
L 437.932932 56.078764 
L 438.567816 65.180359 
L 439.202701 72.433986 
L 439.837586 75.564785 
L 440.47247 87.048752 
L 441.107355 83.407258 
L 441.742239 84.809867 
L 442.377124 91.306156 
L 443.012008 132.075195 
L 443.646893 100.815869 
L 444.281777 84.222484 
L 444.916662 146.391098 
L 445.551546 124.07116 
L 446.186431 129.313192 
L 446.821315 127.897831 
L 447.4562 75.669442 
L 448.091084 92.620065 
L 448.725969 148.367658 
L 449.360853 130.568585 
L 449.995738 102.97709 
L 450.630622 127.420947 
L 451.265507 79.956974 
L 451.900391 58.668983 
L 452.535276 84.518403 
L 453.17016 122.785488 
L 453.805045 127.626498 
L 454.439929 80.082769 
L 455.074814 95.960766 
L 455.709698 118.576009 
L 456.344583 126.350626 
L 456.979467 118.162689 
L 457.614352 90.333373 
L 458.884121 59.986632 
L 459.519005 53.387235 
L 460.15389 56.215729 
L 460.788774 75.713046 
L 461.423659 63.377166 
L 462.058544 46.070238 
L 462.693428 53.822671 
L 463.328313 46.95418 
L 463.963197 58.397879 
L 465.232966 172.706471 
L 465.867851 156.409125 
L 466.502735 150.813152 
L 467.772504 83.099646 
L 468.407389 117.187691 
L 469.042273 90.763617 
L 469.677158 88.091104 
L 470.312042 84.55246 
L 470.946927 70.012899 
L 471.581811 83.845476 
L 472.216696 124.514104 
L 473.486465 149.172246 
L 474.121349 137.818145 
L 474.756234 136.093591 
L 475.391118 136.710001 
L 476.026003 87.32205 
L 476.660887 122.466997 
L 477.295772 125.041301 
L 477.930656 120.653963 
L 478.565541 80.0644 
L 479.200425 124.418306 
L 479.83531 98.664897 
L 480.470194 78.829673 
L 481.105079 132.346756 
L 481.739963 93.96627 
L 482.374848 100.239485 
L 483.009733 82.507588 
L 483.644617 77.60521 
L 484.279502 74.132792 
L 484.914386 89.02574 
L 485.549271 90.191537 
L 486.184155 85.422726 
L 486.81904 66.936446 
L 487.453924 70.439698 
L 488.088809 71.724112 
L 488.723693 91.568733 
L 489.358578 75.839649 
L 489.993462 74.610545 
L 490.628347 98.624064 
L 491.263231 58.166602 
L 491.898116 66.46058 
L 492.533 73.015761 
L 493.167885 82.235089 
L 493.802769 77.365962 
L 494.437654 104.681223 
L 495.072538 86.369512 
L 495.707423 82.071928 
L 496.342307 79.684844 
L 496.977192 71.293615 
L 497.612076 106.958658 
L 498.246961 107.820508 
L 498.881845 87.278046 
L 499.51673 108.590029 
L 500.151614 154.8773 
L 500.786499 118.503645 
L 501.421383 117.577168 
L 502.056268 108.329058 
L 502.691152 119.491398 
L 503.326037 119.881315 
L 503.960921 106.786487 
L 504.595806 108.826027 
L 505.230691 104.993587 
L 505.865575 92.98397 
L 506.50046 88.982269 
L 507.135344 96.443277 
L 507.770229 90.548832 
L 508.405113 100.983642 
L 509.039998 91.367008 
L 509.674882 108.214569 
L 510.309767 96.10647 
L 510.944651 94.659144 
L 511.579536 101.101411 
L 512.849305 87.559647 
L 513.484189 83.002224 
L 514.119074 79.526005 
L 515.388843 86.432582 
L 516.023727 94.605645 
L 516.658612 101.005535 
L 517.293496 109.055263 
L 517.928381 115.44941 
L 518.563265 94.240054 
L 519.19815 103.686043 
L 519.833034 106.538625 
L 520.467919 99.162626 
L 521.102803 80.138154 
L 521.737688 97.715159 
L 522.372572 120.528131 
L 523.007457 110.31504 
L 523.642341 85.146644 
L 524.277226 95.704662 
L 524.91211 110.307197 
L 525.546995 91.481863 
L 526.18188 115.596969 
L 526.816764 105.480828 
L 527.451649 71.776965 
L 528.086533 82.352411 
L 528.721418 83.815409 
L 529.356302 86.867204 
L 529.991187 105.228089 
L 531.260956 87.957908 
L 532.530725 60.186141 
L 533.165609 72.769698 
L 533.800494 82.987577 
L 534.435378 48.186017 
L 535.070263 76.428763 
L 535.705147 70.748542 
L 536.974916 141.029462 
L 537.609801 114.007129 
L 538.244685 138.953511 
L 538.87957 121.545948 
L 539.514454 149.132995 
L 540.149339 119.510591 
L 540.784223 133.42042 
L 541.419108 108.998086 
L 542.053992 106.902485 
L 542.688877 103.142227 
L 543.323761 73.156594 
L 543.958646 144.852167 
L 544.59353 96.33831 
L 545.228415 86.411752 
L 545.863299 99.616905 
L 546.498184 87.676474 
L 547.133069 87.651106 
L 547.767953 87.053957 
L 548.402838 96.45179 
L 549.037722 101.791399 
L 549.672607 101.465272 
L 550.307491 103.16605 
L 550.942376 95.383267 
L 551.57726 75.49959 
L 552.212145 73.518678 
L 552.847029 84.050153 
L 553.481914 100.127285 
L 554.116798 95.366608 
L 554.751683 80.191945 
L 555.386567 88.002189 
L 556.021452 92.083457 
L 556.656336 102.126492 
L 557.291221 87.27769 
L 557.926105 79.201579 
L 558.56099 84.623477 
L 559.195874 86.544264 
L 559.830759 100.359513 
L 560.465643 103.738509 
L 561.100528 100.58627 
L 561.735412 99.407995 
L 562.370297 108.318994 
L 563.005181 104.33189 
L 564.27495 100.212086 
L 564.909835 108.79062 
L 565.544719 88.086617 
L 566.179604 72.294616 
L 566.814488 79.973486 
L 567.449373 91.892792 
L 568.084257 97.823799 
L 568.719142 107.503881 
L 569.354027 144.273395 
L 569.988911 109.174112 
L 570.623796 85.660374 
L 571.25868 113.056011 
L 571.893565 102.710368 
L 572.528449 114.927909 
L 573.163334 86.318352 
L 573.798218 82.358194 
L 574.433103 97.634221 
L 575.067987 89.965647 
L 575.702872 93.364107 
L 576.337756 92.256467 
L 576.972641 92.876049 
L 577.607525 90.223934 
L 578.24241 96.202579 
L 578.877294 89.57619 
L 579.512179 111.713709 
L 580.147063 116.929701 
L 580.781948 148.280342 
L 581.416832 120.064725 
L 582.051717 85.761715 
L 582.686601 108.402254 
L 583.321486 108.984928 
L 583.95637 105.473469 
L 584.591255 103.010418 
L 585.226139 105.566611 
L 585.861024 99.646468 
L 586.495908 87.299522 
L 587.130793 102.506859 
L 587.765677 106.050597 
L 588.400562 77.092963 
L 589.035446 72.006542 
L 589.670331 44.278125 
L 590.9401 87.100668 
L 591.574985 88.330643 
L 592.209869 77.114764 
L 592.844754 74.403475 
L 593.479638 70.758982 
L 594.114523 103.658712 
L 594.749407 116.123983 
L 595.384292 102.936785 
L 596.019176 109.852248 
L 596.019176 109.852248 
" clip-path="url(#p1e36cf52ee)" style="fill: none; stroke: #1f77b4; stroke-width: 1.5; stroke-linecap: square"/>
   </g>
   <g id="line2d_17">
    <path d="M 342.700255 79.486529 
L 343.335139 49.613496 
L 343.970024 62.267548 
L 344.604908 68.960737 
L 345.239793 69.032648 
L 345.874677 62.976768 
L 346.509562 72.081746 
L 347.144446 90.719745 
L 347.779331 101.149188 
L 348.414215 92.714665 
L 349.0491 64.806589 
L 349.683984 60.149577 
L 350.318869 64.329269 
L 350.953753 63.069741 
L 351.588638 66.784661 
L 352.223522 82.213994 
L 352.858407 97.73915 
L 353.493292 92.566921 
L 354.128176 124.281776 
L 354.763061 195.478125 
L 355.397945 186.108115 
L 356.03283 177.893784 
L 356.667714 131.275322 
L 357.302599 127.540828 
L 357.937483 123.287884 
L 358.572368 109.146575 
L 359.207252 111.548666 
L 359.842137 97.080242 
L 360.477021 116.485482 
L 361.111906 110.100141 
L 361.74679 120.916242 
L 362.381675 110.572363 
L 363.016559 113.387577 
L 363.651444 94.8209 
L 364.286328 66.762249 
L 364.921213 93.649212 
L 365.556097 88.624476 
L 366.190982 71.024517 
L 366.825866 97.500066 
L 367.460751 82.312189 
" clip-path="url(#p1e36cf52ee)" style="fill: none; stroke: #ff0000; stroke-width: 1.5; stroke-linecap: square"/>
   </g>
   <g id="patch_3">
    <path d="M 63.382812 203.038125 
L 63.382812 36.718125 
" style="fill: none; stroke: #000000; stroke-width: 0.8; stroke-linejoin: miter; stroke-linecap: square"/>
   </g>
   <g id="patch_4">
    <path d="M 621.382812 203.038125 
L 621.382812 36.718125 
" style="fill: none; stroke: #000000; stroke-width: 0.8; stroke-linejoin: miter; stroke-linecap: square"/>
   </g>
   <g id="patch_5">
    <path d="M 63.382812 203.038125 
L 621.382812 203.038125 
" style="fill: none; stroke: #000000; stroke-width: 0.8; stroke-linejoin: miter; stroke-linecap: square"/>
   </g>
   <g id="patch_6">
    <path d="M 63.382812 36.718125 
L 621.382812 36.718125 
" style="fill: none; stroke: #000000; stroke-width: 0.8; stroke-linejoin: miter; stroke-linecap: square"/>
   </g>
   <g id="text_18">
    <!-- Channel:0, Time stamp : 1027266 -->
    <g transform="translate(240.144688 30.718125) scale(0.12 -0.12)">
     <defs>
      <path id="DejaVuSans-43" d="M 4122 4306 
L 4122 3641 
Q 3803 3938 3442 4084 
Q 3081 4231 2675 4231 
Q 1875 4231 1450 3742 
Q 1025 3253 1025 2328 
Q 1025 1406 1450 917 
Q 1875 428 2675 428 
Q 3081 428 3442 575 
Q 3803 722 4122 1019 
L 4122 359 
Q 3791 134 3420 21 
Q 3050 -91 2638 -91 
Q 1578 -91 968 557 
Q 359 1206 359 2328 
Q 359 3453 968 4101 
Q 1578 4750 2638 4750 
Q 3056 4750 3426 4639 
Q 3797 4528 4122 4306 
z
" transform="scale(0.015625)"/>
      <path id="DejaVuSans-68" d="M 3513 2113 
L 3513 0 
L 2938 0 
L 2938 2094 
Q 2938 2591 2744 2837 
Q 2550 3084 2163 3084 
Q 1697 3084 1428 2787 
Q 1159 2491 1159 1978 
L 1159 0 
L 581 0 
L 581 4863 
L 1159 4863 
L 1159 2956 
Q 1366 3272 1645 3428 
Q 1925 3584 2291 3584 
Q 2894 3584 3203 3211 
Q 3513 2838 3513 2113 
z
" transform="scale(0.015625)"/>
      <path id="DejaVuSans-6e" d="M 3513 2113 
L 3513 0 
L 2938 0 
L 2938 2094 
Q 2938 2591 2744 2837 
Q 2550 3084 2163 3084 
Q 1697 3084 1428 2787 
Q 1159 2491 1159 1978 
L 1159 0 
L 581 0 
L 581 3500 
L 1159 3500 
L 1159 2956 
Q 1366 3272 1645 3428 
Q 1925 3584 2291 3584 
Q 2894 3584 3203 3211 
Q 3513 2838 3513 2113 
z
" transform="scale(0.015625)"/>
      <path id="DejaVuSans-3a" d="M 750 794 
L 1409 794 
L 1409 0 
L 750 0 
L 750 794 
z
M 750 3309 
L 1409 3309 
L 1409 2516 
L 750 2516 
L 750 3309 
z
" transform="scale(0.015625)"/>
      <path id="DejaVuSans-2c" d="M 750 794 
L 1409 794 
L 1409 256 
L 897 -744 
L 494 -744 
L 750 256 
L 750 794 
z
" transform="scale(0.015625)"/>
      <path id="DejaVuSans-70" d="M 1159 525 
L 1159 -1331 
L 581 -1331 
L 581 3500 
L 1159 3500 
L 1159 2969 
Q 1341 3281 1617 3432 
Q 1894 3584 2278 3584 
Q 2916 3584 3314 3078 
Q 3713 2572 3713 1747 
Q 3713 922 3314 415 
Q 2916 -91 2278 -91 
Q 1894 -91 1617 61 
Q 1341 213 1159 525 
z
M 3116 1747 
Q 3116 2381 2855 2742 
Q 2594 3103 2138 3103 
Q 1681 3103 1420 2742 
Q 1159 2381 1159 1747 
Q 1159 1113 1420 752 
Q 1681 391 2138 391 
Q 2594 391 2855 752 
Q 3116 1113 3116 1747 
z
" transform="scale(0.015625)"/>
      <path id="DejaVuSans-37" d="M 525 4666 
L 3525 4666 
L 3525 4397 
L 1831 0 
L 1172 0 
L 2766 4134 
L 525 4134 
L 525 4666 
z
" transform="scale(0.015625)"/>
      <path id="DejaVuSans-36" d="M 2113 2584 
Q 1688 2584 1439 2293 
Q 1191 2003 1191 1497 
Q 1191 994 1439 701 
Q 1688 409 2113 409 
Q 2538 409 2786 701 
Q 3034 994 3034 1497 
Q 3034 2003 2786 2293 
Q 2538 2584 2113 2584 
z
M 3366 4563 
L 3366 3988 
Q 3128 4100 2886 4159 
Q 2644 4219 2406 4219 
Q 1781 4219 1451 3797 
Q 1122 3375 1075 2522 
Q 1259 2794 1537 2939 
Q 1816 3084 2150 3084 
Q 2853 3084 3261 2657 
Q 3669 2231 3669 1497 
Q 3669 778 3244 343 
Q 2819 -91 2113 -91 
Q 1303 -91 875 529 
Q 447 1150 447 2328 
Q 447 3434 972 4092 
Q 1497 4750 2381 4750 
Q 2619 4750 2861 4703 
Q 3103 4656 3366 4563 
z
" transform="scale(0.015625)"/>
     </defs>
     <use xlink:href="#DejaVuSans-43"/>
     <use xlink:href="#DejaVuSans-68" x="69.824219"/>
     <use xlink:href="#DejaVuSans-61" x="133.203125"/>
     <use xlink:href="#DejaVuSans-6e" x="194.482422"/>
     <use xlink:href="#DejaVuSans-6e" x="257.861328"/>
     <use xlink:href="#DejaVuSans-65" x="321.240234"/>
     <use xlink:href="#DejaVuSans-6c" x="382.763672"/>
     <use xlink:href="#DejaVuSans-3a" x="410.546875"/>
     <use xlink:href="#DejaVuSans-30" x="444.238281"/>
     <use xlink:href="#DejaVuSans-2c" x="507.861328"/>
     <use xlink:href="#DejaVuSans-20" x="539.648438"/>
     <use xlink:href="#DejaVuSans-54" x="571.435547"/>
     <use xlink:href="#DejaVuSans-69" x="629.394531"/>
     <use xlink:href="#DejaVuSans-6d" x="657.177734"/>
     <use xlink:href="#DejaVuSans-65" x="754.589844"/>
     <use xlink:href="#DejaVuSans-20" x="816.113281"/>
     <use xlink:href="#DejaVuSans-73" x="847.900391"/>
     <use xlink:href="#DejaVuSans-74" x="900"/>
     <use xlink:href="#DejaVuSans-61" x="939.208984"/>
     <use xlink:href="#DejaVuSans-6d" x="1000.488281"/>
     <use xlink:href="#DejaVuSans-70" x="1097.900391"/>
     <use xlink:href="#DejaVuSans-20" x="1161.376953"/>
     <use xlink:href="#DejaVuSans-3a" x="1193.164062"/>
     <use xlink:href="#DejaVuSans-20" x="1226.855469"/>
     <use xlink:href="#DejaVuSans-31" x="1258.642578"/>
     <use xlink:href="#DejaVuSans-30" x="1322.265625"/>
     <use xlink:href="#DejaVuSans-32" x="1385.888672"/>
     <use xlink:href="#DejaVuSans-37" x="1449.511719"/>
     <use xlink:href="#DejaVuSans-32" x="1513.134766"/>
     <use xlink:href="#DejaVuSans-36" x="1576.757812"/>
     <use xlink:href="#DejaVuSans-36" x="1640.380859"/>
    </g>
   </g>
  </g>
 </g>
 <defs>
  <clipPath id="p1e36cf52ee">
   <rect x="63.382812" y="36.718125" width="558" height="166.32"/>
  </clipPath>
 </defs>
</svg>
