<?xml version="1.0" encoding="utf-8" standalone="no"?>
<!DOCTYPE svg PUBLIC "-//W3C//DTD SVG 1.1//EN"
  "http://www.w3.org/Graphics/SVG/1.1/DTD/svg11.dtd">
<svg xmlns:xlink="http://www.w3.org/1999/xlink" width="642.982813pt" height="254.994375pt" viewBox="0 0 642.982813 254.994375" xmlns="http://www.w3.org/2000/svg" version="1.1">
 <metadata>
  <rdf:RDF xmlns:dc="http://purl.org/dc/elements/1.1/" xmlns:cc="http://creativecommons.org/ns#" xmlns:rdf="http://www.w3.org/1999/02/22-rdf-syntax-ns#">
   <cc:Work>
    <dc:type rdf:resource="http://purl.org/dc/dcmitype/StillImage"/>
    <dc:date>2024-02-26T10:41:44.917956</dc:date>
    <dc:format>image/svg+xml</dc:format>
    <dc:creator>
     <cc:Agent>
      <dc:title>Matplotlib v3.7.1, https://matplotlib.org/</dc:title>
     </cc:Agent>
    </dc:creator>
   </cc:Work>
  </rdf:RDF>
 </metadata>
 <defs>
  <style type="text/css">*{stroke-linejoin: round; stroke-linecap: butt}</style>
 </defs>
 <g id="figure_1">
  <g id="patch_1">
   <path d="M 0 254.994375 
L 642.982813 254.994375 
L 642.982813 -0 
L 0 -0 
z
" style="fill: #ffffff"/>
  </g>
  <g id="axes_1">
   <g id="patch_2">
    <path d="M 63.382812 203.038125 
L 621.382812 203.038125 
L 621.382812 36.718125 
L 63.382812 36.718125 
z
" style="fill: #ffffff"/>
   </g>
   <g id="matplotlib.axis_1">
    <g id="xtick_1">
     <g id="line2d_1">
      <defs>
       <path id="m4e830313e0" d="M 0 0 
L 0 3.5 
" style="stroke: #000000; stroke-width: 0.8"/>
      </defs>
      <g>
       <use xlink:href="#m4e830313e0" x="88.746449" y="203.038125" style="stroke: #000000; stroke-width: 0.8"/>
      </g>
     </g>
     <g id="text_1">
      <!-- −20 -->
      <g transform="translate(78.194105 217.636562) scale(0.1 -0.1)">
       <defs>
        <path id="DejaVuSans-2212" d="M 678 2272 
L 4684 2272 
L 4684 1741 
L 678 1741 
L 678 2272 
z
" transform="scale(0.015625)"/>
        <path id="DejaVuSans-32" d="M 1228 531 
L 3431 531 
L 3431 0 
L 469 0 
L 469 531 
Q 828 903 1448 1529 
Q 2069 2156 2228 2338 
Q 2531 2678 2651 2914 
Q 2772 3150 2772 3378 
Q 2772 3750 2511 3984 
Q 2250 4219 1831 4219 
Q 1534 4219 1204 4116 
Q 875 4013 500 3803 
L 500 4441 
Q 881 4594 1212 4672 
Q 1544 4750 1819 4750 
Q 2544 4750 2975 4387 
Q 3406 4025 3406 3419 
Q 3406 3131 3298 2873 
Q 3191 2616 2906 2266 
Q 2828 2175 2409 1742 
Q 1991 1309 1228 531 
z
" transform="scale(0.015625)"/>
        <path id="DejaVuSans-30" d="M 2034 4250 
Q 1547 4250 1301 3770 
Q 1056 3291 1056 2328 
Q 1056 1369 1301 889 
Q 1547 409 2034 409 
Q 2525 409 2770 889 
Q 3016 1369 3016 2328 
Q 3016 3291 2770 3770 
Q 2525 4250 2034 4250 
z
M 2034 4750 
Q 2819 4750 3233 4129 
Q 3647 3509 3647 2328 
Q 3647 1150 3233 529 
Q 2819 -91 2034 -91 
Q 1250 -91 836 529 
Q 422 1150 422 2328 
Q 422 3509 836 4129 
Q 1250 4750 2034 4750 
z
" transform="scale(0.015625)"/>
       </defs>
       <use xlink:href="#DejaVuSans-2212"/>
       <use xlink:href="#DejaVuSans-32" x="83.789062"/>
       <use xlink:href="#DejaVuSans-30" x="147.412109"/>
      </g>
     </g>
    </g>
    <g id="xtick_2">
     <g id="line2d_2">
      <g>
       <use xlink:href="#m4e830313e0" x="152.15554" y="203.038125" style="stroke: #000000; stroke-width: 0.8"/>
      </g>
     </g>
     <g id="text_2">
      <!-- −15 -->
      <g transform="translate(141.603196 217.636562) scale(0.1 -0.1)">
       <defs>
        <path id="DejaVuSans-31" d="M 794 531 
L 1825 531 
L 1825 4091 
L 703 3866 
L 703 4441 
L 1819 4666 
L 2450 4666 
L 2450 531 
L 3481 531 
L 3481 0 
L 794 0 
L 794 531 
z
" transform="scale(0.015625)"/>
        <path id="DejaVuSans-35" d="M 691 4666 
L 3169 4666 
L 3169 4134 
L 1269 4134 
L 1269 2991 
Q 1406 3038 1543 3061 
Q 1681 3084 1819 3084 
Q 2600 3084 3056 2656 
Q 3513 2228 3513 1497 
Q 3513 744 3044 326 
Q 2575 -91 1722 -91 
Q 1428 -91 1123 -41 
Q 819 9 494 109 
L 494 744 
Q 775 591 1075 516 
Q 1375 441 1709 441 
Q 2250 441 2565 725 
Q 2881 1009 2881 1497 
Q 2881 1984 2565 2268 
Q 2250 2553 1709 2553 
Q 1456 2553 1204 2497 
Q 953 2441 691 2322 
L 691 4666 
z
" transform="scale(0.015625)"/>
       </defs>
       <use xlink:href="#DejaVuSans-2212"/>
       <use xlink:href="#DejaVuSans-31" x="83.789062"/>
       <use xlink:href="#DejaVuSans-35" x="147.412109"/>
      </g>
     </g>
    </g>
    <g id="xtick_3">
     <g id="line2d_3">
      <g>
       <use xlink:href="#m4e830313e0" x="215.564631" y="203.038125" style="stroke: #000000; stroke-width: 0.8"/>
      </g>
     </g>
     <g id="text_3">
      <!-- −10 -->
      <g transform="translate(205.012287 217.636562) scale(0.1 -0.1)">
       <use xlink:href="#DejaVuSans-2212"/>
       <use xlink:href="#DejaVuSans-31" x="83.789062"/>
       <use xlink:href="#DejaVuSans-30" x="147.412109"/>
      </g>
     </g>
    </g>
    <g id="xtick_4">
     <g id="line2d_4">
      <g>
       <use xlink:href="#m4e830313e0" x="278.973722" y="203.038125" style="stroke: #000000; stroke-width: 0.8"/>
      </g>
     </g>
     <g id="text_4">
      <!-- −5 -->
      <g transform="translate(271.602628 217.636562) scale(0.1 -0.1)">
       <use xlink:href="#DejaVuSans-2212"/>
       <use xlink:href="#DejaVuSans-35" x="83.789062"/>
      </g>
     </g>
    </g>
    <g id="xtick_5">
     <g id="line2d_5">
      <g>
       <use xlink:href="#m4e830313e0" x="342.382812" y="203.038125" style="stroke: #000000; stroke-width: 0.8"/>
      </g>
     </g>
     <g id="text_5">
      <!-- 0 -->
      <g transform="translate(339.201563 217.636562) scale(0.1 -0.1)">
       <use xlink:href="#DejaVuSans-30"/>
      </g>
     </g>
    </g>
    <g id="xtick_6">
     <g id="line2d_6">
      <g>
       <use xlink:href="#m4e830313e0" x="405.791903" y="203.038125" style="stroke: #000000; stroke-width: 0.8"/>
      </g>
     </g>
     <g id="text_6">
      <!-- 5 -->
      <g transform="translate(402.610653 217.636562) scale(0.1 -0.1)">
       <use xlink:href="#DejaVuSans-35"/>
      </g>
     </g>
    </g>
    <g id="xtick_7">
     <g id="line2d_7">
      <g>
       <use xlink:href="#m4e830313e0" x="469.200994" y="203.038125" style="stroke: #000000; stroke-width: 0.8"/>
      </g>
     </g>
     <g id="text_7">
      <!-- 10 -->
      <g transform="translate(462.838494 217.636562) scale(0.1 -0.1)">
       <use xlink:href="#DejaVuSans-31"/>
       <use xlink:href="#DejaVuSans-30" x="63.623047"/>
      </g>
     </g>
    </g>
    <g id="xtick_8">
     <g id="line2d_8">
      <g>
       <use xlink:href="#m4e830313e0" x="532.610085" y="203.038125" style="stroke: #000000; stroke-width: 0.8"/>
      </g>
     </g>
     <g id="text_8">
      <!-- 15 -->
      <g transform="translate(526.247585 217.636562) scale(0.1 -0.1)">
       <use xlink:href="#DejaVuSans-31"/>
       <use xlink:href="#DejaVuSans-35" x="63.623047"/>
      </g>
     </g>
    </g>
    <g id="xtick_9">
     <g id="line2d_9">
      <g>
       <use xlink:href="#m4e830313e0" x="596.019176" y="203.038125" style="stroke: #000000; stroke-width: 0.8"/>
      </g>
     </g>
     <g id="text_9">
      <!-- 20 -->
      <g transform="translate(589.656676 217.636562) scale(0.1 -0.1)">
       <use xlink:href="#DejaVuSans-32"/>
       <use xlink:href="#DejaVuSans-30" x="63.623047"/>
      </g>
     </g>
    </g>
    <g id="text_10">
     <!-- Time [ms] -->
     <g transform="translate(317.183594 231.314687) scale(0.1 -0.1)">
      <defs>
       <path id="DejaVuSans-54" d="M -19 4666 
L 3928 4666 
L 3928 4134 
L 2272 4134 
L 2272 0 
L 1638 0 
L 1638 4134 
L -19 4134 
L -19 4666 
z
" transform="scale(0.015625)"/>
       <path id="DejaVuSans-69" d="M 603 3500 
L 1178 3500 
L 1178 0 
L 603 0 
L 603 3500 
z
M 603 4863 
L 1178 4863 
L 1178 4134 
L 603 4134 
L 603 4863 
z
" transform="scale(0.015625)"/>
       <path id="DejaVuSans-6d" d="M 3328 2828 
Q 3544 3216 3844 3400 
Q 4144 3584 4550 3584 
Q 5097 3584 5394 3201 
Q 5691 2819 5691 2113 
L 5691 0 
L 5113 0 
L 5113 2094 
Q 5113 2597 4934 2840 
Q 4756 3084 4391 3084 
Q 3944 3084 3684 2787 
Q 3425 2491 3425 1978 
L 3425 0 
L 2847 0 
L 2847 2094 
Q 2847 2600 2669 2842 
Q 2491 3084 2119 3084 
Q 1678 3084 1418 2786 
Q 1159 2488 1159 1978 
L 1159 0 
L 581 0 
L 581 3500 
L 1159 3500 
L 1159 2956 
Q 1356 3278 1631 3431 
Q 1906 3584 2284 3584 
Q 2666 3584 2933 3390 
Q 3200 3197 3328 2828 
z
" transform="scale(0.015625)"/>
       <path id="DejaVuSans-65" d="M 3597 1894 
L 3597 1613 
L 953 1613 
Q 991 1019 1311 708 
Q 1631 397 2203 397 
Q 2534 397 2845 478 
Q 3156 559 3463 722 
L 3463 178 
Q 3153 47 2828 -22 
Q 2503 -91 2169 -91 
Q 1331 -91 842 396 
Q 353 884 353 1716 
Q 353 2575 817 3079 
Q 1281 3584 2069 3584 
Q 2775 3584 3186 3129 
Q 3597 2675 3597 1894 
z
M 3022 2063 
Q 3016 2534 2758 2815 
Q 2500 3097 2075 3097 
Q 1594 3097 1305 2825 
Q 1016 2553 972 2059 
L 3022 2063 
z
" transform="scale(0.015625)"/>
       <path id="DejaVuSans-20" transform="scale(0.015625)"/>
       <path id="DejaVuSans-5b" d="M 550 4863 
L 1875 4863 
L 1875 4416 
L 1125 4416 
L 1125 -397 
L 1875 -397 
L 1875 -844 
L 550 -844 
L 550 4863 
z
" transform="scale(0.015625)"/>
       <path id="DejaVuSans-73" d="M 2834 3397 
L 2834 2853 
Q 2591 2978 2328 3040 
Q 2066 3103 1784 3103 
Q 1356 3103 1142 2972 
Q 928 2841 928 2578 
Q 928 2378 1081 2264 
Q 1234 2150 1697 2047 
L 1894 2003 
Q 2506 1872 2764 1633 
Q 3022 1394 3022 966 
Q 3022 478 2636 193 
Q 2250 -91 1575 -91 
Q 1294 -91 989 -36 
Q 684 19 347 128 
L 347 722 
Q 666 556 975 473 
Q 1284 391 1588 391 
Q 1994 391 2212 530 
Q 2431 669 2431 922 
Q 2431 1156 2273 1281 
Q 2116 1406 1581 1522 
L 1381 1569 
Q 847 1681 609 1914 
Q 372 2147 372 2553 
Q 372 3047 722 3315 
Q 1072 3584 1716 3584 
Q 2034 3584 2315 3537 
Q 2597 3491 2834 3397 
z
" transform="scale(0.015625)"/>
       <path id="DejaVuSans-5d" d="M 1947 4863 
L 1947 -844 
L 622 -844 
L 622 -397 
L 1369 -397 
L 1369 4416 
L 622 4416 
L 622 4863 
L 1947 4863 
z
" transform="scale(0.015625)"/>
      </defs>
      <use xlink:href="#DejaVuSans-54"/>
      <use xlink:href="#DejaVuSans-69" x="57.958984"/>
      <use xlink:href="#DejaVuSans-6d" x="85.742188"/>
      <use xlink:href="#DejaVuSans-65" x="183.154297"/>
      <use xlink:href="#DejaVuSans-20" x="244.677734"/>
      <use xlink:href="#DejaVuSans-5b" x="276.464844"/>
      <use xlink:href="#DejaVuSans-6d" x="315.478516"/>
      <use xlink:href="#DejaVuSans-73" x="412.890625"/>
      <use xlink:href="#DejaVuSans-5d" x="464.990234"/>
     </g>
    </g>
   </g>
   <g id="matplotlib.axis_2">
    <g id="ytick_1">
     <g id="line2d_10">
      <defs>
       <path id="mdfa29c584a" d="M 0 0 
L -3.5 0 
" style="stroke: #000000; stroke-width: 0.8"/>
      </defs>
      <g>
       <use xlink:href="#mdfa29c584a" x="63.382812" y="176.048515" style="stroke: #000000; stroke-width: 0.8"/>
      </g>
     </g>
     <g id="text_11">
      <!-- −30 -->
      <g transform="translate(35.278125 179.847734) scale(0.1 -0.1)">
       <defs>
        <path id="DejaVuSans-33" d="M 2597 2516 
Q 3050 2419 3304 2112 
Q 3559 1806 3559 1356 
Q 3559 666 3084 287 
Q 2609 -91 1734 -91 
Q 1441 -91 1130 -33 
Q 819 25 488 141 
L 488 750 
Q 750 597 1062 519 
Q 1375 441 1716 441 
Q 2309 441 2620 675 
Q 2931 909 2931 1356 
Q 2931 1769 2642 2001 
Q 2353 2234 1838 2234 
L 1294 2234 
L 1294 2753 
L 1863 2753 
Q 2328 2753 2575 2939 
Q 2822 3125 2822 3475 
Q 2822 3834 2567 4026 
Q 2313 4219 1838 4219 
Q 1578 4219 1281 4162 
Q 984 4106 628 3988 
L 628 4550 
Q 988 4650 1302 4700 
Q 1616 4750 1894 4750 
Q 2613 4750 3031 4423 
Q 3450 4097 3450 3541 
Q 3450 3153 3228 2886 
Q 3006 2619 2597 2516 
z
" transform="scale(0.015625)"/>
       </defs>
       <use xlink:href="#DejaVuSans-2212"/>
       <use xlink:href="#DejaVuSans-33" x="83.789062"/>
       <use xlink:href="#DejaVuSans-30" x="147.412109"/>
      </g>
     </g>
    </g>
    <g id="ytick_2">
     <g id="line2d_11">
      <g>
       <use xlink:href="#mdfa29c584a" x="63.382812" y="146.681073" style="stroke: #000000; stroke-width: 0.8"/>
      </g>
     </g>
     <g id="text_12">
      <!-- −20 -->
      <g transform="translate(35.278125 150.480291) scale(0.1 -0.1)">
       <use xlink:href="#DejaVuSans-2212"/>
       <use xlink:href="#DejaVuSans-32" x="83.789062"/>
       <use xlink:href="#DejaVuSans-30" x="147.412109"/>
      </g>
     </g>
    </g>
    <g id="ytick_3">
     <g id="line2d_12">
      <g>
       <use xlink:href="#mdfa29c584a" x="63.382812" y="117.313631" style="stroke: #000000; stroke-width: 0.8"/>
      </g>
     </g>
     <g id="text_13">
      <!-- −10 -->
      <g transform="translate(35.278125 121.112849) scale(0.1 -0.1)">
       <use xlink:href="#DejaVuSans-2212"/>
       <use xlink:href="#DejaVuSans-31" x="83.789062"/>
       <use xlink:href="#DejaVuSans-30" x="147.412109"/>
      </g>
     </g>
    </g>
    <g id="ytick_4">
     <g id="line2d_13">
      <g>
       <use xlink:href="#mdfa29c584a" x="63.382812" y="87.946188" style="stroke: #000000; stroke-width: 0.8"/>
      </g>
     </g>
     <g id="text_14">
      <!-- 0 -->
      <g transform="translate(50.020313 91.745407) scale(0.1 -0.1)">
       <use xlink:href="#DejaVuSans-30"/>
      </g>
     </g>
    </g>
    <g id="ytick_5">
     <g id="line2d_14">
      <g>
       <use xlink:href="#mdfa29c584a" x="63.382812" y="58.578746" style="stroke: #000000; stroke-width: 0.8"/>
      </g>
     </g>
     <g id="text_15">
      <!-- 10 -->
      <g transform="translate(43.657812 62.377965) scale(0.1 -0.1)">
       <use xlink:href="#DejaVuSans-31"/>
       <use xlink:href="#DejaVuSans-30" x="63.623047"/>
      </g>
     </g>
    </g>
    <g id="text_16">
     <!-- Voltage [uV] -->
     <g transform="translate(29.198438 150.714063) rotate(-90) scale(0.1 -0.1)">
      <defs>
       <path id="DejaVuSans-56" d="M 1831 0 
L 50 4666 
L 709 4666 
L 2188 738 
L 3669 4666 
L 4325 4666 
L 2547 0 
L 1831 0 
z
" transform="scale(0.015625)"/>
       <path id="DejaVuSans-6f" d="M 1959 3097 
Q 1497 3097 1228 2736 
Q 959 2375 959 1747 
Q 959 1119 1226 758 
Q 1494 397 1959 397 
Q 2419 397 2687 759 
Q 2956 1122 2956 1747 
Q 2956 2369 2687 2733 
Q 2419 3097 1959 3097 
z
M 1959 3584 
Q 2709 3584 3137 3096 
Q 3566 2609 3566 1747 
Q 3566 888 3137 398 
Q 2709 -91 1959 -91 
Q 1206 -91 779 398 
Q 353 888 353 1747 
Q 353 2609 779 3096 
Q 1206 3584 1959 3584 
z
" transform="scale(0.015625)"/>
       <path id="DejaVuSans-6c" d="M 603 4863 
L 1178 4863 
L 1178 0 
L 603 0 
L 603 4863 
z
" transform="scale(0.015625)"/>
       <path id="DejaVuSans-74" d="M 1172 4494 
L 1172 3500 
L 2356 3500 
L 2356 3053 
L 1172 3053 
L 1172 1153 
Q 1172 725 1289 603 
Q 1406 481 1766 481 
L 2356 481 
L 2356 0 
L 1766 0 
Q 1100 0 847 248 
Q 594 497 594 1153 
L 594 3053 
L 172 3053 
L 172 3500 
L 594 3500 
L 594 4494 
L 1172 4494 
z
" transform="scale(0.015625)"/>
       <path id="DejaVuSans-61" d="M 2194 1759 
Q 1497 1759 1228 1600 
Q 959 1441 959 1056 
Q 959 750 1161 570 
Q 1363 391 1709 391 
Q 2188 391 2477 730 
Q 2766 1069 2766 1631 
L 2766 1759 
L 2194 1759 
z
M 3341 1997 
L 3341 0 
L 2766 0 
L 2766 531 
Q 2569 213 2275 61 
Q 1981 -91 1556 -91 
Q 1019 -91 701 211 
Q 384 513 384 1019 
Q 384 1609 779 1909 
Q 1175 2209 1959 2209 
L 2766 2209 
L 2766 2266 
Q 2766 2663 2505 2880 
Q 2244 3097 1772 3097 
Q 1472 3097 1187 3025 
Q 903 2953 641 2809 
L 641 3341 
Q 956 3463 1253 3523 
Q 1550 3584 1831 3584 
Q 2591 3584 2966 3190 
Q 3341 2797 3341 1997 
z
" transform="scale(0.015625)"/>
       <path id="DejaVuSans-67" d="M 2906 1791 
Q 2906 2416 2648 2759 
Q 2391 3103 1925 3103 
Q 1463 3103 1205 2759 
Q 947 2416 947 1791 
Q 947 1169 1205 825 
Q 1463 481 1925 481 
Q 2391 481 2648 825 
Q 2906 1169 2906 1791 
z
M 3481 434 
Q 3481 -459 3084 -895 
Q 2688 -1331 1869 -1331 
Q 1566 -1331 1297 -1286 
Q 1028 -1241 775 -1147 
L 775 -588 
Q 1028 -725 1275 -790 
Q 1522 -856 1778 -856 
Q 2344 -856 2625 -561 
Q 2906 -266 2906 331 
L 2906 616 
Q 2728 306 2450 153 
Q 2172 0 1784 0 
Q 1141 0 747 490 
Q 353 981 353 1791 
Q 353 2603 747 3093 
Q 1141 3584 1784 3584 
Q 2172 3584 2450 3431 
Q 2728 3278 2906 2969 
L 2906 3500 
L 3481 3500 
L 3481 434 
z
" transform="scale(0.015625)"/>
       <path id="DejaVuSans-75" d="M 544 1381 
L 544 3500 
L 1119 3500 
L 1119 1403 
Q 1119 906 1312 657 
Q 1506 409 1894 409 
Q 2359 409 2629 706 
Q 2900 1003 2900 1516 
L 2900 3500 
L 3475 3500 
L 3475 0 
L 2900 0 
L 2900 538 
Q 2691 219 2414 64 
Q 2138 -91 1772 -91 
Q 1169 -91 856 284 
Q 544 659 544 1381 
z
M 1991 3584 
L 1991 3584 
z
" transform="scale(0.015625)"/>
      </defs>
      <use xlink:href="#DejaVuSans-56"/>
      <use xlink:href="#DejaVuSans-6f" x="60.658203"/>
      <use xlink:href="#DejaVuSans-6c" x="121.839844"/>
      <use xlink:href="#DejaVuSans-74" x="149.623047"/>
      <use xlink:href="#DejaVuSans-61" x="188.832031"/>
      <use xlink:href="#DejaVuSans-67" x="250.111328"/>
      <use xlink:href="#DejaVuSans-65" x="313.587891"/>
      <use xlink:href="#DejaVuSans-20" x="375.111328"/>
      <use xlink:href="#DejaVuSans-5b" x="406.898438"/>
      <use xlink:href="#DejaVuSans-75" x="445.912109"/>
      <use xlink:href="#DejaVuSans-56" x="509.291016"/>
      <use xlink:href="#DejaVuSans-5d" x="577.699219"/>
     </g>
    </g>
   </g>
   <g id="line2d_15">
    <path d="M 88.746449 79.312641 
L 89.381333 89.10177 
L 90.016218 61.051043 
L 90.651102 81.392724 
L 91.285987 81.07452 
L 91.920871 81.15634 
L 92.555756 88.366496 
L 93.19064 98.748841 
L 93.825525 78.317083 
L 94.460409 90.101002 
L 95.095294 81.274692 
L 95.730179 91.863501 
L 96.365063 85.810402 
L 96.999948 77.668458 
L 97.634832 76.510641 
L 98.269717 87.556884 
L 99.539486 96.273792 
L 100.17437 104.863421 
L 100.809255 94.596016 
L 101.444139 87.683179 
L 102.079024 78.461234 
L 102.713908 93.011803 
L 103.348793 81.045896 
L 103.983677 95.117467 
L 104.618562 105.196951 
L 105.253446 97.449428 
L 105.888331 79.911886 
L 106.523215 103.43105 
L 107.792984 91.837129 
L 108.427869 96.501789 
L 109.062753 86.664078 
L 109.697638 94.398048 
L 110.332522 90.135811 
L 110.967407 91.180309 
L 111.602291 97.600513 
L 112.237176 93.789538 
L 112.87206 115.861421 
L 113.506945 117.750649 
L 114.141829 91.59865 
L 114.776714 81.796725 
L 116.046483 89.61337 
L 116.681368 67.65611 
L 117.316252 92.53214 
L 117.951137 70.237386 
L 118.586021 69.915492 
L 119.85579 88.714374 
L 120.490675 86.31862 
L 121.125559 82.425619 
L 121.760444 81.049482 
L 122.395328 83.030478 
L 123.030213 90.112455 
L 123.665097 86.428213 
L 124.299982 76.939686 
L 124.934866 83.942522 
L 125.569751 88.56233 
L 126.204635 85.237809 
L 126.83952 102.126604 
L 127.474404 83.969099 
L 128.109289 91.313336 
L 128.744173 59.508852 
L 129.379058 90.469329 
L 130.013942 73.731767 
L 130.648827 104.698236 
L 131.283711 116.391337 
L 131.918596 89.826113 
L 132.55348 99.379498 
L 133.188365 85.849929 
L 133.823249 101.234874 
L 134.458134 54.3206 
L 135.093018 87.664054 
L 135.727903 91.961898 
L 136.362787 78.176835 
L 136.997672 87.076739 
L 137.632556 85.955831 
L 138.267441 79.750421 
L 138.902326 106.981233 
L 139.53721 91.762765 
L 140.172095 88.540982 
L 140.806979 109.973427 
L 141.441864 84.431623 
L 142.076748 83.448621 
L 142.711633 69.998238 
L 143.346517 91.241674 
L 143.981402 101.344065 
L 145.251171 79.396075 
L 145.886055 99.860407 
L 146.52094 84.913649 
L 147.155824 97.229178 
L 147.790709 92.152882 
L 148.425593 68.178329 
L 149.060478 85.683328 
L 149.695362 71.094695 
L 150.330247 70.113372 
L 150.965131 70.45843 
L 151.600016 81.535154 
L 152.869785 96.466579 
L 153.504669 75.163167 
L 154.139554 95.988698 
L 154.774438 89.155796 
L 155.409323 89.22679 
L 156.044207 99.142053 
L 156.679092 104.194009 
L 157.313976 86.857789 
L 157.948861 56.088886 
L 159.21863 96.632992 
L 159.853515 107.92415 
L 160.488399 59.168999 
L 161.123284 98.374175 
L 162.393053 82.674667 
L 163.027937 93.913849 
L 163.662822 70.518501 
L 164.297706 74.605601 
L 164.932591 82.467306 
L 165.567475 110.343145 
L 166.20236 89.26106 
L 166.837244 80.357423 
L 167.472129 112.042354 
L 168.107013 106.105352 
L 168.741898 88.356651 
L 169.376782 99.433798 
L 170.011667 84.613946 
L 170.646551 86.704634 
L 171.281436 81.342614 
L 171.91632 108.575644 
L 172.551205 98.604067 
L 173.186089 71.108671 
L 173.820974 80.310931 
L 174.455858 100.254854 
L 175.090743 102.670053 
L 175.725627 91.747743 
L 176.360512 86.123898 
L 176.995396 62.15484 
L 177.630281 106.300408 
L 178.265165 95.053538 
L 178.90005 92.213711 
L 179.534934 100.513998 
L 180.169819 78.810601 
L 180.804704 114.026023 
L 181.439588 85.572144 
L 182.074473 78.306864 
L 182.709357 79.868275 
L 183.344242 58.62152 
L 183.979126 85.18983 
L 184.614011 85.87718 
L 185.248895 84.935054 
L 185.88378 89.054138 
L 186.518664 100.861151 
L 187.153549 87.622835 
L 187.788433 68.243691 
L 188.423318 82.163101 
L 189.058202 86.133849 
L 189.693087 81.849169 
L 190.327971 114.994086 
L 190.962856 115.900386 
L 191.59774 78.634948 
L 192.232625 95.566315 
L 192.867509 98.438157 
L 193.502394 76.404138 
L 194.137278 79.322517 
L 194.772163 86.477452 
L 195.407047 86.558227 
L 196.041932 102.877067 
L 196.676816 86.349528 
L 197.311701 84.935792 
L 197.946585 91.863817 
L 198.58147 75.591783 
L 199.851239 104.611976 
L 200.486123 110.315973 
L 201.121008 91.242516 
L 201.755892 89.454309 
L 202.390777 83.011118 
L 203.025662 78.298082 
L 203.660546 84.498638 
L 204.295431 72.825938 
L 204.930315 81.960328 
L 205.5652 74.173502 
L 206.200084 82.26404 
L 206.834969 92.64413 
L 207.469853 77.384639 
L 208.104738 73.834133 
L 209.374507 95.627036 
L 210.009391 82.391482 
L 210.644276 88.158461 
L 211.27916 92.835849 
L 211.914045 85.78845 
L 212.548929 100.359258 
L 213.183814 96.535123 
L 213.818698 80.904967 
L 214.453583 76.306227 
L 215.088467 94.024321 
L 215.723352 97.835352 
L 216.358236 75.5727 
L 216.993121 84.964068 
L 217.628005 89.683585 
L 218.26289 73.203313 
L 218.897774 79.659919 
L 219.532659 83.174367 
L 220.167543 88.449711 
L 220.802428 85.103924 
L 221.437312 83.410769 
L 222.072197 85.295239 
L 222.707081 82.299058 
L 223.341966 96.919416 
L 223.976851 93.714375 
L 224.611735 115.388024 
L 225.881504 63.949356 
L 226.516389 101.519963 
L 227.151273 99.495116 
L 227.786158 88.798574 
L 228.421042 100.603496 
L 229.055927 109.311627 
L 229.690811 85.58862 
L 230.325696 56.559275 
L 230.96058 83.652769 
L 231.595465 100.630739 
L 232.230349 62.159795 
L 232.865234 101.220245 
L 233.500118 73.812466 
L 234.135003 78.928959 
L 234.769887 118.066472 
L 235.404772 70.385475 
L 236.039656 95.881209 
L 236.674541 101.341518 
L 237.309425 90.314857 
L 237.94431 64.129712 
L 239.214079 89.895836 
L 239.848963 82.679019 
L 240.483848 97.333052 
L 241.118732 85.186892 
L 241.753617 86.451634 
L 242.388501 80.267645 
L 243.023386 88.178669 
L 244.293155 83.610227 
L 244.928039 106.031548 
L 245.562924 100.22004 
L 246.197809 72.044694 
L 246.832693 88.738254 
L 247.467578 80.531345 
L 248.102462 94.952569 
L 248.737347 112.051649 
L 249.372231 97.075193 
L 250.007116 102.494234 
L 250.642 91.649918 
L 251.276885 102.841798 
L 252.546654 73.005899 
L 253.181538 76.471861 
L 253.816423 83.403553 
L 254.451307 86.800895 
L 255.086192 110.517229 
L 255.721076 85.648168 
L 256.355961 82.710986 
L 256.990845 85.666294 
L 257.62573 84.104888 
L 258.260614 111.537461 
L 259.530383 73.976899 
L 260.165268 86.641046 
L 260.800152 115.041074 
L 261.435037 87.127468 
L 262.069921 84.70602 
L 262.704806 62.829016 
L 263.33969 84.896809 
L 263.974575 96.222072 
L 264.609459 78.932768 
L 265.244344 96.855244 
L 265.879228 97.69511 
L 266.514113 76.219327 
L 267.148998 63.255647 
L 267.783882 87.608842 
L 268.418767 77.507621 
L 269.053651 98.411493 
L 269.688536 99.187506 
L 270.32342 78.295528 
L 270.958305 87.042293 
L 271.593189 85.110679 
L 272.228074 85.726688 
L 272.862958 98.245663 
L 274.132727 79.905225 
L 274.767612 79.479107 
L 275.402496 88.499223 
L 276.037381 100.884256 
L 276.672265 76.494249 
L 277.30715 81.563698 
L 277.942034 87.985518 
L 278.576919 77.634384 
L 279.211803 85.752265 
L 279.846688 99.971668 
L 280.481572 85.259388 
L 281.116457 88.441763 
L 281.751341 95.097658 
L 282.386226 87.140117 
L 283.02111 96.93698 
L 283.655995 72.595842 
L 284.290879 91.335432 
L 284.925764 83.197389 
L 285.560648 103.464339 
L 286.195533 111.530289 
L 286.830417 78.887624 
L 287.465302 83.75371 
L 288.100186 63.388339 
L 288.735071 86.365356 
L 289.369956 82.145971 
L 290.639725 88.200785 
L 291.274609 87.715709 
L 291.909494 99.891374 
L 292.544378 95.021007 
L 293.179263 100.060388 
L 293.814147 87.43655 
L 294.449032 87.017083 
L 295.083916 106.739498 
L 295.718801 76.825721 
L 296.353685 72.154864 
L 296.98857 86.124376 
L 297.623454 112.503345 
L 298.258339 116.086739 
L 298.893223 64.552068 
L 299.528108 79.114261 
L 300.162992 54.276854 
L 300.797877 66.837325 
L 301.432761 94.282353 
L 302.067646 84.971106 
L 302.70253 82.653236 
L 303.337415 79.091864 
L 303.972299 77.25286 
L 304.607184 78.38389 
L 305.242068 103.300325 
L 305.876953 89.130073 
L 306.511837 95.525904 
L 307.146722 96.433767 
L 307.781606 115.208709 
L 308.416491 96.860738 
L 309.051375 91.906849 
L 309.68626 111.605687 
L 310.321145 89.753523 
L 310.956029 97.720574 
L 311.590914 71.528131 
L 312.225798 90.127068 
L 312.860683 85.351548 
L 313.495567 87.080271 
L 314.130452 94.031583 
L 314.765336 72.506614 
L 315.400221 99.324709 
L 316.035105 109.356505 
L 316.66999 82.943366 
L 317.304874 71.03164 
L 317.939759 91.30487 
L 318.574643 81.768683 
L 319.209528 66.019491 
L 320.479297 111.323182 
L 321.114181 110.051314 
L 321.749066 96.073982 
L 322.38395 99.530334 
L 323.018835 112.454717 
L 323.653719 76.788584 
L 324.288604 89.421296 
L 324.923488 89.395998 
L 325.558373 83.61559 
L 326.193257 73.843453 
L 326.828142 89.24429 
L 328.097911 69.011204 
L 328.732795 106.283834 
L 329.36768 82.405574 
L 330.002564 79.963668 
L 330.637449 81.844576 
L 331.272333 96.740056 
L 331.907218 75.317018 
L 332.542103 67.871888 
L 333.176987 97.751095 
L 333.811872 94.149769 
L 334.446756 75.290111 
L 335.081641 99.966512 
L 335.716525 92.723659 
L 336.35141 70.976696 
L 336.986294 75.654788 
L 337.621179 70.135886 
L 338.256063 80.263132 
L 338.890948 85.950377 
L 339.525832 72.250462 
L 340.160717 69.705362 
L 340.795601 88.328203 
L 341.430486 86.651855 
L 342.06537 59.83343 
L 343.335139 89.895549 
L 343.970024 68.849708 
L 344.604908 68.601147 
L 345.239793 55.852874 
L 345.874677 71.563773 
L 346.509562 71.455792 
L 347.144446 65.570734 
L 347.779331 67.598958 
L 348.414215 106.725675 
L 349.0491 76.413752 
L 349.683984 66.14592 
L 350.318869 91.673827 
L 350.953753 60.042026 
L 351.588638 77.373747 
L 352.223522 85.514051 
L 352.858407 90.839759 
L 353.493292 106.46027 
L 354.128176 142.991947 
L 354.763061 160.096384 
L 355.397945 195.478125 
L 356.03283 190.30992 
L 356.667714 146.930136 
L 357.937483 125.599045 
L 358.572368 95.2399 
L 359.207252 90.785041 
L 359.842137 84.555529 
L 360.477021 76.797507 
L 361.111906 84.931786 
L 361.74679 69.837747 
L 362.381675 88.380619 
L 363.016559 70.998349 
L 363.651444 77.168866 
L 364.286328 96.839091 
L 364.921213 70.777053 
L 365.556097 96.348913 
L 366.190982 99.560704 
L 366.825866 87.237339 
L 367.460751 82.774924 
L 368.095635 64.308996 
L 368.73052 69.091498 
L 369.365404 85.940442 
L 370.000289 95.146792 
L 370.635173 87.395402 
L 371.270058 91.622203 
L 371.904942 81.259972 
L 372.539827 87.112005 
L 373.174711 85.287615 
L 373.809596 79.847296 
L 374.44448 86.892418 
L 375.079365 96.11116 
L 375.71425 80.941395 
L 376.349134 61.966459 
L 376.984019 74.331343 
L 377.618903 73.558923 
L 378.253788 105.45497 
L 378.888672 106.207719 
L 379.523557 75.834577 
L 380.158441 87.135523 
L 380.793326 58.788999 
L 381.42821 81.011193 
L 382.063095 96.138129 
L 382.697979 44.278125 
L 383.332864 67.631281 
L 383.967748 73.697294 
L 384.602633 87.797476 
L 385.237517 92.532127 
L 385.872402 88.470285 
L 386.507286 79.040876 
L 387.142171 71.336993 
L 387.777055 79.06953 
L 388.41194 81.602511 
L 389.046824 70.895949 
L 389.681709 79.146359 
L 390.316593 85.482788 
L 390.951478 63.370123 
L 391.586362 95.946254 
L 392.221247 88.093149 
L 392.856131 82.261196 
L 393.491016 90.329595 
L 394.1259 94.252296 
L 394.760785 79.266745 
L 395.395669 80.369982 
L 396.030554 96.17363 
L 396.665439 98.436268 
L 397.300323 82.109212 
L 397.935208 95.174642 
L 398.570092 129.315455 
L 399.204977 98.059498 
L 399.839861 94.088471 
L 400.474746 92.199396 
L 401.10963 94.418962 
L 401.744515 98.222679 
L 402.379399 97.672028 
L 403.014284 93.821333 
L 403.649168 98.115412 
L 404.284053 75.023116 
L 404.918937 62.519613 
L 405.553822 69.358854 
L 406.188706 79.628074 
L 406.823591 108.9416 
L 407.458475 87.001936 
L 408.09336 90.730202 
L 408.728244 98.373163 
L 409.363129 92.636908 
L 409.998013 90.830698 
L 410.632898 98.076104 
L 411.902667 79.003805 
L 412.537551 91.737549 
L 413.172436 69.795178 
L 413.80732 97.89834 
L 414.442205 86.501837 
L 415.077089 60.519564 
L 415.711974 87.337151 
L 416.346858 98.138046 
L 416.981743 95.793652 
L 417.616627 87.631547 
L 418.251512 111.301088 
L 418.886397 90.286375 
L 419.521281 99.487892 
L 420.156166 115.287717 
L 420.79105 68.919313 
L 421.425935 71.612519 
L 422.060819 110.043237 
L 422.695704 103.606278 
L 423.330588 94.545203 
L 423.965473 92.761227 
L 424.600357 89.387898 
L 425.235242 91.793769 
L 425.870126 88.234674 
L 426.505011 90.420552 
L 427.139895 99.071498 
L 427.77478 105.835784 
L 428.409664 76.636036 
L 429.044549 83.0647 
L 429.679433 86.774847 
L 430.314318 79.933476 
L 430.949202 93.984393 
L 431.584087 99.853038 
L 432.218971 97.702531 
L 432.853856 97.549287 
L 433.48874 90.500889 
L 434.123625 77.564476 
L 434.758509 88.433916 
L 435.393394 97.12286 
L 436.028278 80.069957 
L 437.298047 92.919095 
L 437.932932 87.477439 
L 438.567816 98.941569 
L 439.202701 73.653076 
L 439.837586 59.212968 
L 440.47247 83.177892 
L 441.742239 97.127562 
L 442.377124 88.216271 
L 443.012008 83.413644 
L 443.646893 88.235061 
L 444.281777 59.20606 
L 444.916662 70.001072 
L 445.551546 64.59322 
L 446.186431 62.13009 
L 446.821315 73.246313 
L 447.4562 73.759748 
L 448.091084 89.768348 
L 448.725969 93.982092 
L 449.360853 105.020751 
L 449.995738 76.959075 
L 450.630622 73.785719 
L 451.265507 91.96264 
L 451.900391 72.248848 
L 452.535276 87.435097 
L 453.17016 108.449175 
L 453.805045 100.009422 
L 454.439929 98.801138 
L 455.074814 88.436001 
L 455.709698 67.381254 
L 456.344583 82.476184 
L 456.979467 86.37024 
L 457.614352 100.438817 
L 458.249236 104.252397 
L 458.884121 87.334276 
L 459.519005 99.859051 
L 460.15389 88.968928 
L 460.788774 90.953713 
L 461.423659 84.158177 
L 462.058544 86.698193 
L 462.693428 102.123439 
L 463.328313 94.52557 
L 464.598082 99.527162 
L 465.232966 64.46526 
L 465.867851 80.489542 
L 466.502735 99.388047 
L 467.13762 87.207016 
L 467.772504 99.944474 
L 468.407389 80.140548 
L 469.042273 85.633714 
L 469.677158 99.932127 
L 470.312042 88.543632 
L 470.946927 85.871982 
L 471.581811 95.511248 
L 472.216696 85.493426 
L 473.486465 79.336476 
L 474.121349 97.554894 
L 474.756234 96.051937 
L 475.391118 61.682324 
L 476.026003 84.12089 
L 476.660887 89.954684 
L 477.295772 83.077542 
L 477.930656 101.038125 
L 478.565541 82.05947 
L 479.200425 93.773475 
L 479.83531 94.826953 
L 480.470194 70.439777 
L 481.105079 83.596066 
L 481.739963 93.452349 
L 482.374848 96.472947 
L 483.009733 80.354042 
L 483.644617 102.52172 
L 484.279502 80.988133 
L 484.914386 99.997116 
L 485.549271 109.133477 
L 486.184155 81.416005 
L 486.81904 97.829512 
L 487.453924 93.124201 
L 488.088809 94.071554 
L 488.723693 78.969497 
L 489.358578 91.583689 
L 489.993462 99.639072 
L 490.628347 72.619213 
L 491.263231 57.782494 
L 491.898116 109.32169 
L 492.533 92.577881 
L 493.167885 69.948939 
L 494.437654 76.43696 
L 495.072538 89.33744 
L 495.707423 72.046385 
L 496.342307 88.613923 
L 496.977192 93.960128 
L 497.612076 94.838348 
L 498.246961 91.181519 
L 498.881845 105.744377 
L 499.51673 106.643404 
L 500.151614 81.257903 
L 500.786499 70.474982 
L 501.421383 77.502452 
L 502.056268 80.032904 
L 502.691152 72.711113 
L 503.326037 67.180849 
L 503.960921 100.086668 
L 504.595806 108.099419 
L 505.230691 67.414339 
L 505.865575 95.146102 
L 506.50046 101.809356 
L 507.135344 78.160721 
L 507.770229 101.32175 
L 508.405113 96.674551 
L 509.039998 76.243214 
L 509.674882 77.405029 
L 510.309767 92.412089 
L 510.944651 89.09146 
L 511.579536 86.8165 
L 512.21442 104.264188 
L 512.849305 86.927446 
L 513.484189 88.577896 
L 514.119074 111.629703 
L 514.753958 103.890079 
L 515.388843 84.176862 
L 516.023727 76.332369 
L 516.658612 77.863545 
L 517.293496 87.79811 
L 517.928381 109.865259 
L 519.19815 79.963149 
L 519.833034 89.209831 
L 520.467919 86.65625 
L 521.102803 88.879131 
L 521.737688 74.402044 
L 523.007457 104.488363 
L 523.642341 92.368016 
L 524.277226 85.87943 
L 524.91211 105.302365 
L 525.546995 110.221729 
L 526.18188 93.019773 
L 526.816764 84.189306 
L 527.451649 79.549558 
L 528.086533 108.011566 
L 528.721418 81.483943 
L 529.356302 64.86966 
L 529.991187 72.474343 
L 530.626071 62.994785 
L 531.260956 72.56457 
L 531.89584 84.62882 
L 532.530725 90.919692 
L 533.165609 84.527254 
L 533.800494 100.052682 
L 535.070263 60.447724 
L 535.705147 90.704972 
L 536.340032 110.113426 
L 536.974916 84.96911 
L 537.609801 64.648537 
L 538.244685 80.421611 
L 538.87957 69.509414 
L 540.149339 78.312866 
L 540.784223 73.191699 
L 541.419108 96.217314 
L 542.053992 73.380268 
L 542.688877 86.002545 
L 543.958646 88.901419 
L 544.59353 110.604825 
L 545.228415 88.882855 
L 545.863299 104.70076 
L 546.498184 105.430616 
L 547.133069 112.029742 
L 547.767953 77.868907 
L 548.402838 87.325947 
L 549.037722 106.452403 
L 549.672607 84.385042 
L 550.307491 90.434352 
L 550.942376 88.282415 
L 551.57726 103.72499 
L 552.212145 89.25611 
L 552.847029 82.208826 
L 553.481914 87.866076 
L 554.116798 99.766142 
L 554.751683 88.123328 
L 555.386567 97.975439 
L 556.021452 91.188995 
L 556.656336 81.967784 
L 557.291221 114.268171 
L 557.926105 94.089534 
L 558.56099 89.81504 
L 559.195874 97.656849 
L 559.830759 70.543062 
L 560.465643 76.601571 
L 561.100528 76.522988 
L 561.735412 74.412579 
L 562.370297 78.574942 
L 563.005181 109.956349 
L 563.640066 104.780323 
L 564.27495 77.838732 
L 564.909835 92.154939 
L 565.544719 61.660472 
L 566.179604 92.227955 
L 566.814488 84.914969 
L 567.449373 80.912416 
L 568.084257 87.510211 
L 568.719142 95.375235 
L 569.354027 84.390294 
L 569.988911 89.735238 
L 570.623796 108.257486 
L 571.25868 91.985985 
L 571.893565 99.034784 
L 572.528449 52.252632 
L 573.163334 84.243309 
L 573.798218 77.021984 
L 574.433103 73.625503 
L 575.067987 104.44335 
L 575.702872 84.917822 
L 576.337756 87.574897 
L 576.972641 114.653381 
L 577.607525 116.925296 
L 578.24241 83.193692 
L 578.877294 72.267279 
L 579.512179 84.415505 
L 580.147063 84.774386 
L 580.781948 89.073879 
L 581.416832 102.364923 
L 582.051717 86.826341 
L 582.686601 91.849719 
L 583.321486 88.526515 
L 583.95637 91.042482 
L 584.591255 83.275406 
L 585.226139 87.355332 
L 585.861024 99.121943 
L 586.495908 59.034157 
L 587.130793 55.311322 
L 587.765677 88.55056 
L 588.400562 96.145418 
L 589.035446 83.143541 
L 589.670331 113.951885 
L 590.305216 104.674537 
L 590.9401 80.658263 
L 591.574985 92.455539 
L 592.209869 78.146558 
L 592.844754 85.438732 
L 593.479638 84.654043 
L 594.114523 83.627411 
L 594.749407 74.419599 
L 595.384292 79.571997 
L 596.019176 75.521708 
L 596.019176 75.521708 
" clip-path="url(#p11bc29c95a)" style="fill: none; stroke: #1f77b4; stroke-width: 1.5; stroke-linecap: square"/>
   </g>
   <g id="line2d_16">
    <path d="M 342.700255 76.062922 
L 343.335139 89.895549 
L 343.970024 68.849708 
L 344.604908 68.601147 
L 345.239793 55.852874 
L 345.874677 71.563773 
L 346.509562 71.455792 
L 347.144446 65.570734 
L 347.779331 67.598958 
L 348.414215 106.725675 
L 349.0491 76.413752 
L 349.683984 66.14592 
L 350.318869 91.673827 
L 350.953753 60.042026 
L 351.588638 77.373747 
L 352.223522 85.514051 
L 352.858407 90.839759 
L 353.493292 106.46027 
L 354.128176 142.991947 
L 354.763061 160.096384 
L 355.397945 195.478125 
L 356.03283 190.30992 
L 356.667714 146.930136 
L 357.302599 135.275293 
L 357.937483 125.599045 
L 358.572368 95.2399 
L 359.207252 90.785041 
L 359.842137 84.555529 
L 360.477021 76.797507 
L 361.111906 84.931786 
L 361.74679 69.837747 
L 362.381675 88.380619 
L 363.016559 70.998349 
L 363.651444 77.168866 
L 364.286328 96.839091 
L 364.921213 70.777053 
L 365.556097 96.348913 
L 366.190982 99.560704 
L 366.825866 87.237339 
L 367.460751 82.774924 
" clip-path="url(#p11bc29c95a)" style="fill: none; stroke: #ff0000; stroke-width: 1.5; stroke-linecap: square"/>
   </g>
   <g id="patch_3">
    <path d="M 63.382812 203.038125 
L 63.382812 36.718125 
" style="fill: none; stroke: #000000; stroke-width: 0.8; stroke-linejoin: miter; stroke-linecap: square"/>
   </g>
   <g id="patch_4">
    <path d="M 621.382812 203.038125 
L 621.382812 36.718125 
" style="fill: none; stroke: #000000; stroke-width: 0.8; stroke-linejoin: miter; stroke-linecap: square"/>
   </g>
   <g id="patch_5">
    <path d="M 63.382812 203.038125 
L 621.382812 203.038125 
" style="fill: none; stroke: #000000; stroke-width: 0.8; stroke-linejoin: miter; stroke-linecap: square"/>
   </g>
   <g id="patch_6">
    <path d="M 63.382812 36.718125 
L 621.382812 36.718125 
" style="fill: none; stroke: #000000; stroke-width: 0.8; stroke-linejoin: miter; stroke-linecap: square"/>
   </g>
   <g id="text_17">
    <!-- Channel:12, Time stamp : 1243010 -->
    <g transform="translate(236.327188 30.718125) scale(0.12 -0.12)">
     <defs>
      <path id="DejaVuSans-43" d="M 4122 4306 
L 4122 3641 
Q 3803 3938 3442 4084 
Q 3081 4231 2675 4231 
Q 1875 4231 1450 3742 
Q 1025 3253 1025 2328 
Q 1025 1406 1450 917 
Q 1875 428 2675 428 
Q 3081 428 3442 575 
Q 3803 722 4122 1019 
L 4122 359 
Q 3791 134 3420 21 
Q 3050 -91 2638 -91 
Q 1578 -91 968 557 
Q 359 1206 359 2328 
Q 359 3453 968 4101 
Q 1578 4750 2638 4750 
Q 3056 4750 3426 4639 
Q 3797 4528 4122 4306 
z
" transform="scale(0.015625)"/>
      <path id="DejaVuSans-68" d="M 3513 2113 
L 3513 0 
L 2938 0 
L 2938 2094 
Q 2938 2591 2744 2837 
Q 2550 3084 2163 3084 
Q 1697 3084 1428 2787 
Q 1159 2491 1159 1978 
L 1159 0 
L 581 0 
L 581 4863 
L 1159 4863 
L 1159 2956 
Q 1366 3272 1645 3428 
Q 1925 3584 2291 3584 
Q 2894 3584 3203 3211 
Q 3513 2838 3513 2113 
z
" transform="scale(0.015625)"/>
      <path id="DejaVuSans-6e" d="M 3513 2113 
L 3513 0 
L 2938 0 
L 2938 2094 
Q 2938 2591 2744 2837 
Q 2550 3084 2163 3084 
Q 1697 3084 1428 2787 
Q 1159 2491 1159 1978 
L 1159 0 
L 581 0 
L 581 3500 
L 1159 3500 
L 1159 2956 
Q 1366 3272 1645 3428 
Q 1925 3584 2291 3584 
Q 2894 3584 3203 3211 
Q 3513 2838 3513 2113 
z
" transform="scale(0.015625)"/>
      <path id="DejaVuSans-3a" d="M 750 794 
L 1409 794 
L 1409 0 
L 750 0 
L 750 794 
z
M 750 3309 
L 1409 3309 
L 1409 2516 
L 750 2516 
L 750 3309 
z
" transform="scale(0.015625)"/>
      <path id="DejaVuSans-2c" d="M 750 794 
L 1409 794 
L 1409 256 
L 897 -744 
L 494 -744 
L 750 256 
L 750 794 
z
" transform="scale(0.015625)"/>
      <path id="DejaVuSans-70" d="M 1159 525 
L 1159 -1331 
L 581 -1331 
L 581 3500 
L 1159 3500 
L 1159 2969 
Q 1341 3281 1617 3432 
Q 1894 3584 2278 3584 
Q 2916 3584 3314 3078 
Q 3713 2572 3713 1747 
Q 3713 922 3314 415 
Q 2916 -91 2278 -91 
Q 1894 -91 1617 61 
Q 1341 213 1159 525 
z
M 3116 1747 
Q 3116 2381 2855 2742 
Q 2594 3103 2138 3103 
Q 1681 3103 1420 2742 
Q 1159 2381 1159 1747 
Q 1159 1113 1420 752 
Q 1681 391 2138 391 
Q 2594 391 2855 752 
Q 3116 1113 3116 1747 
z
" transform="scale(0.015625)"/>
      <path id="DejaVuSans-34" d="M 2419 4116 
L 825 1625 
L 2419 1625 
L 2419 4116 
z
M 2253 4666 
L 3047 4666 
L 3047 1625 
L 3713 1625 
L 3713 1100 
L 3047 1100 
L 3047 0 
L 2419 0 
L 2419 1100 
L 313 1100 
L 313 1709 
L 2253 4666 
z
" transform="scale(0.015625)"/>
     </defs>
     <use xlink:href="#DejaVuSans-43"/>
     <use xlink:href="#DejaVuSans-68" x="69.824219"/>
     <use xlink:href="#DejaVuSans-61" x="133.203125"/>
     <use xlink:href="#DejaVuSans-6e" x="194.482422"/>
     <use xlink:href="#DejaVuSans-6e" x="257.861328"/>
     <use xlink:href="#DejaVuSans-65" x="321.240234"/>
     <use xlink:href="#DejaVuSans-6c" x="382.763672"/>
     <use xlink:href="#DejaVuSans-3a" x="410.546875"/>
     <use xlink:href="#DejaVuSans-31" x="444.238281"/>
     <use xlink:href="#DejaVuSans-32" x="507.861328"/>
     <use xlink:href="#DejaVuSans-2c" x="571.484375"/>
     <use xlink:href="#DejaVuSans-20" x="603.271484"/>
     <use xlink:href="#DejaVuSans-54" x="635.058594"/>
     <use xlink:href="#DejaVuSans-69" x="693.017578"/>
     <use xlink:href="#DejaVuSans-6d" x="720.800781"/>
     <use xlink:href="#DejaVuSans-65" x="818.212891"/>
     <use xlink:href="#DejaVuSans-20" x="879.736328"/>
     <use xlink:href="#DejaVuSans-73" x="911.523438"/>
     <use xlink:href="#DejaVuSans-74" x="963.623047"/>
     <use xlink:href="#DejaVuSans-61" x="1002.832031"/>
     <use xlink:href="#DejaVuSans-6d" x="1064.111328"/>
     <use xlink:href="#DejaVuSans-70" x="1161.523438"/>
     <use xlink:href="#DejaVuSans-20" x="1225"/>
     <use xlink:href="#DejaVuSans-3a" x="1256.787109"/>
     <use xlink:href="#DejaVuSans-20" x="1290.478516"/>
     <use xlink:href="#DejaVuSans-31" x="1322.265625"/>
     <use xlink:href="#DejaVuSans-32" x="1385.888672"/>
     <use xlink:href="#DejaVuSans-34" x="1449.511719"/>
     <use xlink:href="#DejaVuSans-33" x="1513.134766"/>
     <use xlink:href="#DejaVuSans-30" x="1576.757812"/>
     <use xlink:href="#DejaVuSans-31" x="1640.380859"/>
     <use xlink:href="#DejaVuSans-30" x="1704.003906"/>
    </g>
   </g>
  </g>
 </g>
 <defs>
  <clipPath id="p11bc29c95a">
   <rect x="63.382812" y="36.718125" width="558" height="166.32"/>
  </clipPath>
 </defs>
</svg>
