<?xml version="1.0" encoding="utf-8" standalone="no"?>
<!DOCTYPE svg PUBLIC "-//W3C//DTD SVG 1.1//EN"
  "http://www.w3.org/Graphics/SVG/1.1/DTD/svg11.dtd">
<svg xmlns:xlink="http://www.w3.org/1999/xlink" width="642.982813pt" height="254.994375pt" viewBox="0 0 642.982813 254.994375" xmlns="http://www.w3.org/2000/svg" version="1.1">
 <metadata>
  <rdf:RDF xmlns:dc="http://purl.org/dc/elements/1.1/" xmlns:cc="http://creativecommons.org/ns#" xmlns:rdf="http://www.w3.org/1999/02/22-rdf-syntax-ns#">
   <cc:Work>
    <dc:type rdf:resource="http://purl.org/dc/dcmitype/StillImage"/>
    <dc:date>2024-02-26T10:41:45.165449</dc:date>
    <dc:format>image/svg+xml</dc:format>
    <dc:creator>
     <cc:Agent>
      <dc:title>Matplotlib v3.7.1, https://matplotlib.org/</dc:title>
     </cc:Agent>
    </dc:creator>
   </cc:Work>
  </rdf:RDF>
 </metadata>
 <defs>
  <style type="text/css">*{stroke-linejoin: round; stroke-linecap: butt}</style>
 </defs>
 <g id="figure_1">
  <g id="patch_1">
   <path d="M 0 254.994375 
L 642.982813 254.994375 
L 642.982813 -0 
L 0 -0 
z
" style="fill: #ffffff"/>
  </g>
  <g id="axes_1">
   <g id="patch_2">
    <path d="M 63.382812 203.038125 
L 621.382812 203.038125 
L 621.382812 36.718125 
L 63.382812 36.718125 
z
" style="fill: #ffffff"/>
   </g>
   <g id="matplotlib.axis_1">
    <g id="xtick_1">
     <g id="line2d_1">
      <defs>
       <path id="m9555a0bd1e" d="M 0 0 
L 0 3.5 
" style="stroke: #000000; stroke-width: 0.8"/>
      </defs>
      <g>
       <use xlink:href="#m9555a0bd1e" x="88.746449" y="203.038125" style="stroke: #000000; stroke-width: 0.8"/>
      </g>
     </g>
     <g id="text_1">
      <!-- −20 -->
      <g transform="translate(78.194105 217.636562) scale(0.1 -0.1)">
       <defs>
        <path id="DejaVuSans-2212" d="M 678 2272 
L 4684 2272 
L 4684 1741 
L 678 1741 
L 678 2272 
z
" transform="scale(0.015625)"/>
        <path id="DejaVuSans-32" d="M 1228 531 
L 3431 531 
L 3431 0 
L 469 0 
L 469 531 
Q 828 903 1448 1529 
Q 2069 2156 2228 2338 
Q 2531 2678 2651 2914 
Q 2772 3150 2772 3378 
Q 2772 3750 2511 3984 
Q 2250 4219 1831 4219 
Q 1534 4219 1204 4116 
Q 875 4013 500 3803 
L 500 4441 
Q 881 4594 1212 4672 
Q 1544 4750 1819 4750 
Q 2544 4750 2975 4387 
Q 3406 4025 3406 3419 
Q 3406 3131 3298 2873 
Q 3191 2616 2906 2266 
Q 2828 2175 2409 1742 
Q 1991 1309 1228 531 
z
" transform="scale(0.015625)"/>
        <path id="DejaVuSans-30" d="M 2034 4250 
Q 1547 4250 1301 3770 
Q 1056 3291 1056 2328 
Q 1056 1369 1301 889 
Q 1547 409 2034 409 
Q 2525 409 2770 889 
Q 3016 1369 3016 2328 
Q 3016 3291 2770 3770 
Q 2525 4250 2034 4250 
z
M 2034 4750 
Q 2819 4750 3233 4129 
Q 3647 3509 3647 2328 
Q 3647 1150 3233 529 
Q 2819 -91 2034 -91 
Q 1250 -91 836 529 
Q 422 1150 422 2328 
Q 422 3509 836 4129 
Q 1250 4750 2034 4750 
z
" transform="scale(0.015625)"/>
       </defs>
       <use xlink:href="#DejaVuSans-2212"/>
       <use xlink:href="#DejaVuSans-32" x="83.789062"/>
       <use xlink:href="#DejaVuSans-30" x="147.412109"/>
      </g>
     </g>
    </g>
    <g id="xtick_2">
     <g id="line2d_2">
      <g>
       <use xlink:href="#m9555a0bd1e" x="152.15554" y="203.038125" style="stroke: #000000; stroke-width: 0.8"/>
      </g>
     </g>
     <g id="text_2">
      <!-- −15 -->
      <g transform="translate(141.603196 217.636562) scale(0.1 -0.1)">
       <defs>
        <path id="DejaVuSans-31" d="M 794 531 
L 1825 531 
L 1825 4091 
L 703 3866 
L 703 4441 
L 1819 4666 
L 2450 4666 
L 2450 531 
L 3481 531 
L 3481 0 
L 794 0 
L 794 531 
z
" transform="scale(0.015625)"/>
        <path id="DejaVuSans-35" d="M 691 4666 
L 3169 4666 
L 3169 4134 
L 1269 4134 
L 1269 2991 
Q 1406 3038 1543 3061 
Q 1681 3084 1819 3084 
Q 2600 3084 3056 2656 
Q 3513 2228 3513 1497 
Q 3513 744 3044 326 
Q 2575 -91 1722 -91 
Q 1428 -91 1123 -41 
Q 819 9 494 109 
L 494 744 
Q 775 591 1075 516 
Q 1375 441 1709 441 
Q 2250 441 2565 725 
Q 2881 1009 2881 1497 
Q 2881 1984 2565 2268 
Q 2250 2553 1709 2553 
Q 1456 2553 1204 2497 
Q 953 2441 691 2322 
L 691 4666 
z
" transform="scale(0.015625)"/>
       </defs>
       <use xlink:href="#DejaVuSans-2212"/>
       <use xlink:href="#DejaVuSans-31" x="83.789062"/>
       <use xlink:href="#DejaVuSans-35" x="147.412109"/>
      </g>
     </g>
    </g>
    <g id="xtick_3">
     <g id="line2d_3">
      <g>
       <use xlink:href="#m9555a0bd1e" x="215.564631" y="203.038125" style="stroke: #000000; stroke-width: 0.8"/>
      </g>
     </g>
     <g id="text_3">
      <!-- −10 -->
      <g transform="translate(205.012287 217.636562) scale(0.1 -0.1)">
       <use xlink:href="#DejaVuSans-2212"/>
       <use xlink:href="#DejaVuSans-31" x="83.789062"/>
       <use xlink:href="#DejaVuSans-30" x="147.412109"/>
      </g>
     </g>
    </g>
    <g id="xtick_4">
     <g id="line2d_4">
      <g>
       <use xlink:href="#m9555a0bd1e" x="278.973722" y="203.038125" style="stroke: #000000; stroke-width: 0.8"/>
      </g>
     </g>
     <g id="text_4">
      <!-- −5 -->
      <g transform="translate(271.602628 217.636562) scale(0.1 -0.1)">
       <use xlink:href="#DejaVuSans-2212"/>
       <use xlink:href="#DejaVuSans-35" x="83.789062"/>
      </g>
     </g>
    </g>
    <g id="xtick_5">
     <g id="line2d_5">
      <g>
       <use xlink:href="#m9555a0bd1e" x="342.382812" y="203.038125" style="stroke: #000000; stroke-width: 0.8"/>
      </g>
     </g>
     <g id="text_5">
      <!-- 0 -->
      <g transform="translate(339.201563 217.636562) scale(0.1 -0.1)">
       <use xlink:href="#DejaVuSans-30"/>
      </g>
     </g>
    </g>
    <g id="xtick_6">
     <g id="line2d_6">
      <g>
       <use xlink:href="#m9555a0bd1e" x="405.791903" y="203.038125" style="stroke: #000000; stroke-width: 0.8"/>
      </g>
     </g>
     <g id="text_6">
      <!-- 5 -->
      <g transform="translate(402.610653 217.636562) scale(0.1 -0.1)">
       <use xlink:href="#DejaVuSans-35"/>
      </g>
     </g>
    </g>
    <g id="xtick_7">
     <g id="line2d_7">
      <g>
       <use xlink:href="#m9555a0bd1e" x="469.200994" y="203.038125" style="stroke: #000000; stroke-width: 0.8"/>
      </g>
     </g>
     <g id="text_7">
      <!-- 10 -->
      <g transform="translate(462.838494 217.636562) scale(0.1 -0.1)">
       <use xlink:href="#DejaVuSans-31"/>
       <use xlink:href="#DejaVuSans-30" x="63.623047"/>
      </g>
     </g>
    </g>
    <g id="xtick_8">
     <g id="line2d_8">
      <g>
       <use xlink:href="#m9555a0bd1e" x="532.610085" y="203.038125" style="stroke: #000000; stroke-width: 0.8"/>
      </g>
     </g>
     <g id="text_8">
      <!-- 15 -->
      <g transform="translate(526.247585 217.636562) scale(0.1 -0.1)">
       <use xlink:href="#DejaVuSans-31"/>
       <use xlink:href="#DejaVuSans-35" x="63.623047"/>
      </g>
     </g>
    </g>
    <g id="xtick_9">
     <g id="line2d_9">
      <g>
       <use xlink:href="#m9555a0bd1e" x="596.019176" y="203.038125" style="stroke: #000000; stroke-width: 0.8"/>
      </g>
     </g>
     <g id="text_9">
      <!-- 20 -->
      <g transform="translate(589.656676 217.636562) scale(0.1 -0.1)">
       <use xlink:href="#DejaVuSans-32"/>
       <use xlink:href="#DejaVuSans-30" x="63.623047"/>
      </g>
     </g>
    </g>
    <g id="text_10">
     <!-- Time [ms] -->
     <g transform="translate(317.183594 231.314687) scale(0.1 -0.1)">
      <defs>
       <path id="DejaVuSans-54" d="M -19 4666 
L 3928 4666 
L 3928 4134 
L 2272 4134 
L 2272 0 
L 1638 0 
L 1638 4134 
L -19 4134 
L -19 4666 
z
" transform="scale(0.015625)"/>
       <path id="DejaVuSans-69" d="M 603 3500 
L 1178 3500 
L 1178 0 
L 603 0 
L 603 3500 
z
M 603 4863 
L 1178 4863 
L 1178 4134 
L 603 4134 
L 603 4863 
z
" transform="scale(0.015625)"/>
       <path id="DejaVuSans-6d" d="M 3328 2828 
Q 3544 3216 3844 3400 
Q 4144 3584 4550 3584 
Q 5097 3584 5394 3201 
Q 5691 2819 5691 2113 
L 5691 0 
L 5113 0 
L 5113 2094 
Q 5113 2597 4934 2840 
Q 4756 3084 4391 3084 
Q 3944 3084 3684 2787 
Q 3425 2491 3425 1978 
L 3425 0 
L 2847 0 
L 2847 2094 
Q 2847 2600 2669 2842 
Q 2491 3084 2119 3084 
Q 1678 3084 1418 2786 
Q 1159 2488 1159 1978 
L 1159 0 
L 581 0 
L 581 3500 
L 1159 3500 
L 1159 2956 
Q 1356 3278 1631 3431 
Q 1906 3584 2284 3584 
Q 2666 3584 2933 3390 
Q 3200 3197 3328 2828 
z
" transform="scale(0.015625)"/>
       <path id="DejaVuSans-65" d="M 3597 1894 
L 3597 1613 
L 953 1613 
Q 991 1019 1311 708 
Q 1631 397 2203 397 
Q 2534 397 2845 478 
Q 3156 559 3463 722 
L 3463 178 
Q 3153 47 2828 -22 
Q 2503 -91 2169 -91 
Q 1331 -91 842 396 
Q 353 884 353 1716 
Q 353 2575 817 3079 
Q 1281 3584 2069 3584 
Q 2775 3584 3186 3129 
Q 3597 2675 3597 1894 
z
M 3022 2063 
Q 3016 2534 2758 2815 
Q 2500 3097 2075 3097 
Q 1594 3097 1305 2825 
Q 1016 2553 972 2059 
L 3022 2063 
z
" transform="scale(0.015625)"/>
       <path id="DejaVuSans-20" transform="scale(0.015625)"/>
       <path id="DejaVuSans-5b" d="M 550 4863 
L 1875 4863 
L 1875 4416 
L 1125 4416 
L 1125 -397 
L 1875 -397 
L 1875 -844 
L 550 -844 
L 550 4863 
z
" transform="scale(0.015625)"/>
       <path id="DejaVuSans-73" d="M 2834 3397 
L 2834 2853 
Q 2591 2978 2328 3040 
Q 2066 3103 1784 3103 
Q 1356 3103 1142 2972 
Q 928 2841 928 2578 
Q 928 2378 1081 2264 
Q 1234 2150 1697 2047 
L 1894 2003 
Q 2506 1872 2764 1633 
Q 3022 1394 3022 966 
Q 3022 478 2636 193 
Q 2250 -91 1575 -91 
Q 1294 -91 989 -36 
Q 684 19 347 128 
L 347 722 
Q 666 556 975 473 
Q 1284 391 1588 391 
Q 1994 391 2212 530 
Q 2431 669 2431 922 
Q 2431 1156 2273 1281 
Q 2116 1406 1581 1522 
L 1381 1569 
Q 847 1681 609 1914 
Q 372 2147 372 2553 
Q 372 3047 722 3315 
Q 1072 3584 1716 3584 
Q 2034 3584 2315 3537 
Q 2597 3491 2834 3397 
z
" transform="scale(0.015625)"/>
       <path id="DejaVuSans-5d" d="M 1947 4863 
L 1947 -844 
L 622 -844 
L 622 -397 
L 1369 -397 
L 1369 4416 
L 622 4416 
L 622 4863 
L 1947 4863 
z
" transform="scale(0.015625)"/>
      </defs>
      <use xlink:href="#DejaVuSans-54"/>
      <use xlink:href="#DejaVuSans-69" x="57.958984"/>
      <use xlink:href="#DejaVuSans-6d" x="85.742188"/>
      <use xlink:href="#DejaVuSans-65" x="183.154297"/>
      <use xlink:href="#DejaVuSans-20" x="244.677734"/>
      <use xlink:href="#DejaVuSans-5b" x="276.464844"/>
      <use xlink:href="#DejaVuSans-6d" x="315.478516"/>
      <use xlink:href="#DejaVuSans-73" x="412.890625"/>
      <use xlink:href="#DejaVuSans-5d" x="464.990234"/>
     </g>
    </g>
   </g>
   <g id="matplotlib.axis_2">
    <g id="ytick_1">
     <g id="line2d_10">
      <defs>
       <path id="m1d814ed914" d="M 0 0 
L -3.5 0 
" style="stroke: #000000; stroke-width: 0.8"/>
      </defs>
      <g>
       <use xlink:href="#m1d814ed914" x="63.382812" y="201.414841" style="stroke: #000000; stroke-width: 0.8"/>
      </g>
     </g>
     <g id="text_11">
      <!-- −30 -->
      <g transform="translate(35.278125 205.21406) scale(0.1 -0.1)">
       <defs>
        <path id="DejaVuSans-33" d="M 2597 2516 
Q 3050 2419 3304 2112 
Q 3559 1806 3559 1356 
Q 3559 666 3084 287 
Q 2609 -91 1734 -91 
Q 1441 -91 1130 -33 
Q 819 25 488 141 
L 488 750 
Q 750 597 1062 519 
Q 1375 441 1716 441 
Q 2309 441 2620 675 
Q 2931 909 2931 1356 
Q 2931 1769 2642 2001 
Q 2353 2234 1838 2234 
L 1294 2234 
L 1294 2753 
L 1863 2753 
Q 2328 2753 2575 2939 
Q 2822 3125 2822 3475 
Q 2822 3834 2567 4026 
Q 2313 4219 1838 4219 
Q 1578 4219 1281 4162 
Q 984 4106 628 3988 
L 628 4550 
Q 988 4650 1302 4700 
Q 1616 4750 1894 4750 
Q 2613 4750 3031 4423 
Q 3450 4097 3450 3541 
Q 3450 3153 3228 2886 
Q 3006 2619 2597 2516 
z
" transform="scale(0.015625)"/>
       </defs>
       <use xlink:href="#DejaVuSans-2212"/>
       <use xlink:href="#DejaVuSans-33" x="83.789062"/>
       <use xlink:href="#DejaVuSans-30" x="147.412109"/>
      </g>
     </g>
    </g>
    <g id="ytick_2">
     <g id="line2d_11">
      <g>
       <use xlink:href="#m1d814ed914" x="63.382812" y="166.181365" style="stroke: #000000; stroke-width: 0.8"/>
      </g>
     </g>
     <g id="text_12">
      <!-- −20 -->
      <g transform="translate(35.278125 169.980584) scale(0.1 -0.1)">
       <use xlink:href="#DejaVuSans-2212"/>
       <use xlink:href="#DejaVuSans-32" x="83.789062"/>
       <use xlink:href="#DejaVuSans-30" x="147.412109"/>
      </g>
     </g>
    </g>
    <g id="ytick_3">
     <g id="line2d_12">
      <g>
       <use xlink:href="#m1d814ed914" x="63.382812" y="130.94789" style="stroke: #000000; stroke-width: 0.8"/>
      </g>
     </g>
     <g id="text_13">
      <!-- −10 -->
      <g transform="translate(35.278125 134.747108) scale(0.1 -0.1)">
       <use xlink:href="#DejaVuSans-2212"/>
       <use xlink:href="#DejaVuSans-31" x="83.789062"/>
       <use xlink:href="#DejaVuSans-30" x="147.412109"/>
      </g>
     </g>
    </g>
    <g id="ytick_4">
     <g id="line2d_13">
      <g>
       <use xlink:href="#m1d814ed914" x="63.382812" y="95.714414" style="stroke: #000000; stroke-width: 0.8"/>
      </g>
     </g>
     <g id="text_14">
      <!-- 0 -->
      <g transform="translate(50.020313 99.513633) scale(0.1 -0.1)">
       <use xlink:href="#DejaVuSans-30"/>
      </g>
     </g>
    </g>
    <g id="ytick_5">
     <g id="line2d_14">
      <g>
       <use xlink:href="#m1d814ed914" x="63.382812" y="60.480938" style="stroke: #000000; stroke-width: 0.8"/>
      </g>
     </g>
     <g id="text_15">
      <!-- 10 -->
      <g transform="translate(43.657812 64.280157) scale(0.1 -0.1)">
       <use xlink:href="#DejaVuSans-31"/>
       <use xlink:href="#DejaVuSans-30" x="63.623047"/>
      </g>
     </g>
    </g>
    <g id="text_16">
     <!-- Voltage [uV] -->
     <g transform="translate(29.198438 150.714063) rotate(-90) scale(0.1 -0.1)">
      <defs>
       <path id="DejaVuSans-56" d="M 1831 0 
L 50 4666 
L 709 4666 
L 2188 738 
L 3669 4666 
L 4325 4666 
L 2547 0 
L 1831 0 
z
" transform="scale(0.015625)"/>
       <path id="DejaVuSans-6f" d="M 1959 3097 
Q 1497 3097 1228 2736 
Q 959 2375 959 1747 
Q 959 1119 1226 758 
Q 1494 397 1959 397 
Q 2419 397 2687 759 
Q 2956 1122 2956 1747 
Q 2956 2369 2687 2733 
Q 2419 3097 1959 3097 
z
M 1959 3584 
Q 2709 3584 3137 3096 
Q 3566 2609 3566 1747 
Q 3566 888 3137 398 
Q 2709 -91 1959 -91 
Q 1206 -91 779 398 
Q 353 888 353 1747 
Q 353 2609 779 3096 
Q 1206 3584 1959 3584 
z
" transform="scale(0.015625)"/>
       <path id="DejaVuSans-6c" d="M 603 4863 
L 1178 4863 
L 1178 0 
L 603 0 
L 603 4863 
z
" transform="scale(0.015625)"/>
       <path id="DejaVuSans-74" d="M 1172 4494 
L 1172 3500 
L 2356 3500 
L 2356 3053 
L 1172 3053 
L 1172 1153 
Q 1172 725 1289 603 
Q 1406 481 1766 481 
L 2356 481 
L 2356 0 
L 1766 0 
Q 1100 0 847 248 
Q 594 497 594 1153 
L 594 3053 
L 172 3053 
L 172 3500 
L 594 3500 
L 594 4494 
L 1172 4494 
z
" transform="scale(0.015625)"/>
       <path id="DejaVuSans-61" d="M 2194 1759 
Q 1497 1759 1228 1600 
Q 959 1441 959 1056 
Q 959 750 1161 570 
Q 1363 391 1709 391 
Q 2188 391 2477 730 
Q 2766 1069 2766 1631 
L 2766 1759 
L 2194 1759 
z
M 3341 1997 
L 3341 0 
L 2766 0 
L 2766 531 
Q 2569 213 2275 61 
Q 1981 -91 1556 -91 
Q 1019 -91 701 211 
Q 384 513 384 1019 
Q 384 1609 779 1909 
Q 1175 2209 1959 2209 
L 2766 2209 
L 2766 2266 
Q 2766 2663 2505 2880 
Q 2244 3097 1772 3097 
Q 1472 3097 1187 3025 
Q 903 2953 641 2809 
L 641 3341 
Q 956 3463 1253 3523 
Q 1550 3584 1831 3584 
Q 2591 3584 2966 3190 
Q 3341 2797 3341 1997 
z
" transform="scale(0.015625)"/>
       <path id="DejaVuSans-67" d="M 2906 1791 
Q 2906 2416 2648 2759 
Q 2391 3103 1925 3103 
Q 1463 3103 1205 2759 
Q 947 2416 947 1791 
Q 947 1169 1205 825 
Q 1463 481 1925 481 
Q 2391 481 2648 825 
Q 2906 1169 2906 1791 
z
M 3481 434 
Q 3481 -459 3084 -895 
Q 2688 -1331 1869 -1331 
Q 1566 -1331 1297 -1286 
Q 1028 -1241 775 -1147 
L 775 -588 
Q 1028 -725 1275 -790 
Q 1522 -856 1778 -856 
Q 2344 -856 2625 -561 
Q 2906 -266 2906 331 
L 2906 616 
Q 2728 306 2450 153 
Q 2172 0 1784 0 
Q 1141 0 747 490 
Q 353 981 353 1791 
Q 353 2603 747 3093 
Q 1141 3584 1784 3584 
Q 2172 3584 2450 3431 
Q 2728 3278 2906 2969 
L 2906 3500 
L 3481 3500 
L 3481 434 
z
" transform="scale(0.015625)"/>
       <path id="DejaVuSans-75" d="M 544 1381 
L 544 3500 
L 1119 3500 
L 1119 1403 
Q 1119 906 1312 657 
Q 1506 409 1894 409 
Q 2359 409 2629 706 
Q 2900 1003 2900 1516 
L 2900 3500 
L 3475 3500 
L 3475 0 
L 2900 0 
L 2900 538 
Q 2691 219 2414 64 
Q 2138 -91 1772 -91 
Q 1169 -91 856 284 
Q 544 659 544 1381 
z
M 1991 3584 
L 1991 3584 
z
" transform="scale(0.015625)"/>
      </defs>
      <use xlink:href="#DejaVuSans-56"/>
      <use xlink:href="#DejaVuSans-6f" x="60.658203"/>
      <use xlink:href="#DejaVuSans-6c" x="121.839844"/>
      <use xlink:href="#DejaVuSans-74" x="149.623047"/>
      <use xlink:href="#DejaVuSans-61" x="188.832031"/>
      <use xlink:href="#DejaVuSans-67" x="250.111328"/>
      <use xlink:href="#DejaVuSans-65" x="313.587891"/>
      <use xlink:href="#DejaVuSans-20" x="375.111328"/>
      <use xlink:href="#DejaVuSans-5b" x="406.898438"/>
      <use xlink:href="#DejaVuSans-75" x="445.912109"/>
      <use xlink:href="#DejaVuSans-56" x="509.291016"/>
      <use xlink:href="#DejaVuSans-5d" x="577.699219"/>
     </g>
    </g>
   </g>
   <g id="line2d_15">
    <path d="M 88.746449 130.007371 
L 89.381333 117.561133 
L 90.016218 113.388706 
L 90.651102 96.288948 
L 91.285987 93.526554 
L 91.920871 112.664963 
L 92.555756 108.909084 
L 93.19064 97.278923 
L 93.825525 105.26188 
L 94.460409 83.78954 
L 95.095294 94.94107 
L 95.730179 83.883901 
L 96.365063 77.233627 
L 96.999948 89.338654 
L 97.634832 104.316964 
L 98.269717 115.300115 
L 98.904601 92.32532 
L 99.539486 104.777844 
L 100.17437 109.917983 
L 100.809255 95.593754 
L 101.444139 119.263992 
L 102.079024 113.199974 
L 102.713908 77.040402 
L 103.348793 71.054939 
L 103.983677 71.845272 
L 104.618562 74.297891 
L 105.253446 48.005979 
L 105.888331 92.709147 
L 106.523215 94.830045 
L 107.1581 61.020629 
L 107.792984 82.46393 
L 108.427869 55.494419 
L 109.062753 71.368797 
L 109.697638 81.631091 
L 110.332522 81.464849 
L 110.967407 98.219065 
L 111.602291 100.376314 
L 112.237176 107.335302 
L 112.87206 132.903009 
L 113.506945 126.17169 
L 114.141829 106.210519 
L 114.776714 105.958884 
L 115.411598 84.194103 
L 116.046483 96.167635 
L 116.681368 117.01775 
L 117.316252 116.026552 
L 117.951137 98.208879 
L 118.586021 110.550081 
L 119.220906 106.122676 
L 119.85579 81.080133 
L 120.490675 83.085768 
L 121.760444 130.137773 
L 122.395328 119.69969 
L 123.030213 84.48962 
L 123.665097 86.020095 
L 124.299982 92.521801 
L 124.934866 59.788731 
L 125.569751 86.93303 
L 126.204635 102.124559 
L 126.83952 97.971414 
L 127.474404 103.08175 
L 128.109289 81.670853 
L 128.744173 102.502102 
L 129.379058 136.961681 
L 130.013942 105.883344 
L 130.648827 89.317203 
L 131.283711 87.814749 
L 131.918596 82.992812 
L 132.55348 110.149857 
L 133.188365 131.694993 
L 133.823249 87.719269 
L 134.458134 84.231324 
L 135.093018 100.937003 
L 135.727903 101.328561 
L 136.362787 127.845478 
L 136.997672 108.7446 
L 137.632556 102.508654 
L 138.267441 100.95194 
L 138.902326 108.069734 
L 139.53721 86.17571 
L 140.172095 73.07433 
L 140.806979 84.330487 
L 141.441864 87.518822 
L 142.076748 99.533539 
L 142.711633 105.362222 
L 143.346517 119.41261 
L 144.616286 78.688533 
L 145.251171 86.652796 
L 145.886055 107.200233 
L 146.52094 94.084354 
L 147.155824 83.321492 
L 148.425593 55.126985 
L 149.060478 75.954122 
L 149.695362 83.748496 
L 150.330247 77.911604 
L 150.965131 88.792508 
L 151.600016 103.26761 
L 152.2349 84.689583 
L 153.504669 116.113498 
L 154.139554 89.525075 
L 154.774438 82.096018 
L 155.409323 97.13032 
L 156.044207 74.055409 
L 156.679092 66.269876 
L 157.313976 72.117279 
L 157.948861 74.556849 
L 158.583745 90.079645 
L 159.21863 65.627787 
L 159.853515 79.221127 
L 160.488399 108.852101 
L 161.123284 82.885097 
L 161.758168 102.525774 
L 162.393053 97.007763 
L 163.027937 92.663515 
L 163.662822 101.72047 
L 164.297706 92.9947 
L 164.932591 105.313946 
L 165.567475 61.611308 
L 166.20236 63.157316 
L 166.837244 81.669196 
L 167.472129 105.794744 
L 168.107013 114.736984 
L 168.741898 148.013563 
L 169.376782 130.644216 
L 170.011667 123.822292 
L 170.646551 151.44369 
L 171.281436 84.709225 
L 172.551205 123.391021 
L 173.186089 101.459123 
L 173.820974 66.018829 
L 174.455858 75.410134 
L 175.090743 106.325539 
L 175.725627 81.89164 
L 176.360512 121.314994 
L 176.995396 191.681232 
L 177.630281 195.478125 
L 178.90005 126.11317 
L 179.534934 76.759976 
L 180.169819 108.317075 
L 180.804704 95.963412 
L 181.439588 65.110297 
L 182.074473 120.932445 
L 182.709357 102.95852 
L 183.344242 77.455122 
L 184.614011 119.406115 
L 185.248895 85.791962 
L 185.88378 66.051279 
L 187.153549 82.233243 
L 187.788433 94.603592 
L 188.423318 101.251557 
L 189.058202 100.029586 
L 189.693087 71.519358 
L 190.327971 62.879375 
L 190.962856 74.053019 
L 191.59774 71.117146 
L 192.232625 63.45528 
L 192.867509 53.310209 
L 193.502394 47.924201 
L 194.137278 59.633003 
L 194.772163 92.689839 
L 195.407047 73.61322 
L 196.041932 65.119829 
L 196.676816 89.078839 
L 197.311701 77.872363 
L 197.946585 90.22831 
L 198.58147 67.738349 
L 199.216354 76.359006 
L 199.851239 71.839691 
L 200.486123 77.668434 
L 201.121008 97.773406 
L 202.390777 149.024411 
L 203.025662 138.006318 
L 203.660546 144.570175 
L 204.295431 126.17594 
L 204.930315 127.736111 
L 205.5652 134.850783 
L 206.200084 124.658029 
L 206.834969 116.605005 
L 207.469853 116.799159 
L 208.104738 100.975545 
L 208.739622 94.540894 
L 209.374507 85.219932 
L 210.009391 84.666212 
L 210.644276 78.28599 
L 211.27916 99.52067 
L 211.914045 102.182382 
L 212.548929 88.923882 
L 213.183814 86.166478 
L 213.818698 74.152439 
L 214.453583 119.571763 
L 215.088467 78.555959 
L 215.723352 61.55508 
L 216.358236 76.032638 
L 216.993121 85.241849 
L 217.628005 105.763987 
L 218.26289 80.683669 
L 218.897774 83.26729 
L 219.532659 79.465007 
L 220.167543 79.332423 
L 220.802428 98.746624 
L 222.072197 74.621987 
L 222.707081 91.496965 
L 223.341966 92.279857 
L 223.976851 104.188996 
L 224.611735 131.795273 
L 225.24662 123.130395 
L 225.881504 117.59708 
L 226.516389 89.236598 
L 227.151273 88.169828 
L 227.786158 116.554174 
L 228.421042 128.725234 
L 229.055927 130.179608 
L 229.690811 77.835878 
L 230.325696 90.920171 
L 230.96058 88.761638 
L 231.595465 105.22021 
L 232.230349 100.418199 
L 232.865234 72.70764 
L 233.500118 94.326988 
L 234.135003 91.565588 
L 234.769887 80.862614 
L 235.404772 94.405858 
L 236.039656 86.18879 
L 236.674541 70.195858 
L 237.309425 119.271932 
L 237.94431 94.496416 
L 238.579194 97.67262 
L 239.214079 103.426755 
L 240.483848 131.383555 
L 241.118732 100.54573 
L 241.753617 81.55783 
L 242.388501 89.177049 
L 243.023386 101.744022 
L 243.65827 108.795828 
L 244.293155 77.287817 
L 244.928039 59.01698 
L 245.562924 85.221131 
L 246.197809 77.868885 
L 246.832693 76.835844 
L 247.467578 67.73492 
L 248.102462 81.731486 
L 248.737347 68.428511 
L 249.372231 72.462455 
L 250.642 114.316349 
L 251.276885 113.935402 
L 251.911769 98.054455 
L 252.546654 91.434549 
L 253.181538 71.076515 
L 253.816423 116.884943 
L 255.086192 89.313689 
L 255.721076 122.33014 
L 256.355961 91.196104 
L 256.990845 109.139846 
L 257.62573 77.913638 
L 258.260614 85.135447 
L 258.895499 132.651762 
L 259.530383 121.028532 
L 260.165268 115.996031 
L 260.800152 106.145278 
L 261.435037 104.261605 
L 262.069921 85.778169 
L 262.704806 122.909668 
L 263.33969 118.283636 
L 263.974575 96.390229 
L 264.609459 114.311462 
L 265.244344 83.803881 
L 265.879228 97.88051 
L 266.514113 105.082233 
L 267.148998 100.569287 
L 267.783882 110.758563 
L 268.418767 92.812758 
L 269.053651 108.381652 
L 269.688536 107.57677 
L 270.32342 91.74546 
L 270.958305 91.270255 
L 271.593189 102.036493 
L 272.228074 102.302689 
L 272.862958 104.166549 
L 273.497843 100.156668 
L 274.132727 98.765351 
L 274.767612 95.849685 
L 275.402496 100.198662 
L 276.037381 110.020192 
L 276.672265 101.533387 
L 277.30715 104.904976 
L 277.942034 95.154199 
L 278.576919 97.011917 
L 279.211803 94.753012 
L 279.846688 97.344526 
L 280.481572 102.351834 
L 281.116457 94.226218 
L 281.751341 91.812872 
L 282.386226 83.532543 
L 283.02111 93.344981 
L 283.655995 72.127862 
L 284.290879 61.589861 
L 284.925764 79.238697 
L 285.560648 61.129199 
L 286.195533 78.738023 
L 286.830417 77.549396 
L 287.465302 77.466399 
L 288.100186 72.407347 
L 288.735071 78.819375 
L 289.369956 58.115807 
L 290.00484 44.278125 
L 290.639725 101.371502 
L 291.274609 107.090969 
L 291.909494 105.350803 
L 292.544378 105.084994 
L 293.179263 102.388081 
L 293.814147 71.225036 
L 294.449032 51.293576 
L 295.083916 81.087148 
L 295.718801 97.747674 
L 296.353685 100.330442 
L 296.98857 97.487918 
L 297.623454 104.24244 
L 298.258339 112.361288 
L 298.893223 69.494209 
L 299.528108 89.469597 
L 300.162992 102.618833 
L 300.797877 87.897807 
L 301.432761 104.725687 
L 302.067646 102.146821 
L 302.70253 115.705966 
L 303.337415 95.119308 
L 303.972299 112.919157 
L 304.607184 99.120382 
L 305.242068 88.828121 
L 305.876953 97.682375 
L 306.511837 72.989088 
L 307.146722 105.255549 
L 307.781606 113.508889 
L 308.416491 123.228866 
L 309.051375 143.761867 
L 309.68626 135.804525 
L 310.321145 121.174508 
L 310.956029 136.794215 
L 311.590914 119.97507 
L 312.225798 111.07116 
L 312.860683 130.571024 
L 313.495567 92.286345 
L 314.130452 88.400751 
L 314.765336 106.535014 
L 315.400221 109.589022 
L 316.035105 114.646522 
L 316.66999 102.762265 
L 317.939759 70.666467 
L 318.574643 72.590634 
L 319.209528 84.059798 
L 319.844412 69.828263 
L 320.479297 90.711533 
L 321.114181 117.952657 
L 321.749066 108.464109 
L 322.38395 94.677809 
L 323.018835 95.382258 
L 323.653719 105.821024 
L 324.288604 89.914584 
L 324.923488 62.763491 
L 325.558373 80.355546 
L 326.193257 84.374962 
L 326.828142 101.721654 
L 327.463026 111.575207 
L 328.097911 81.168198 
L 328.732795 102.452441 
L 329.36768 86.021103 
L 330.002564 83.787135 
L 330.637449 78.502921 
L 331.272333 81.658867 
L 331.907218 88.868102 
L 332.542103 71.296502 
L 333.176987 65.618743 
L 333.811872 80.830964 
L 334.446756 79.551414 
L 335.081641 65.572121 
L 335.716525 97.709556 
L 336.35141 88.710369 
L 336.986294 118.726591 
L 337.621179 124.824149 
L 338.256063 124.042531 
L 338.890948 145.760745 
L 339.525832 145.23866 
L 340.160717 123.378209 
L 340.795601 117.015571 
L 341.430486 117.480221 
L 342.06537 82.629568 
L 342.700255 107.481 
L 343.970024 78.281852 
L 344.604908 90.800442 
L 345.239793 63.555473 
L 345.874677 59.147478 
L 346.509562 74.983469 
L 347.144446 59.784735 
L 347.779331 48.669387 
L 349.0491 60.874781 
L 349.683984 65.221513 
L 350.318869 62.818677 
L 350.953753 59.74105 
L 351.588638 68.245007 
L 352.223522 105.148137 
L 352.858407 99.146779 
L 353.493292 82.589536 
L 354.128176 99.197354 
L 354.763061 154.212734 
L 355.397945 172.842409 
L 356.03283 161.997136 
L 356.667714 173.750797 
L 357.302599 139.612541 
L 357.937483 125.28548 
L 358.572368 125.544843 
L 359.207252 121.564611 
L 359.842137 97.827066 
L 360.477021 122.03355 
L 361.111906 111.447389 
L 361.74679 62.084788 
L 362.381675 77.112522 
L 363.016559 86.663536 
L 363.651444 86.215854 
L 364.286328 77.583675 
L 364.921213 86.542275 
L 365.556097 55.458779 
L 366.190982 63.647576 
L 366.825866 64.278441 
L 367.460751 80.709019 
L 368.095635 73.156128 
L 368.73052 57.301049 
L 369.365404 101.363725 
L 370.000289 84.076476 
L 370.635173 79.535222 
L 371.270058 81.998941 
L 371.904942 128.601557 
L 372.539827 130.072172 
L 373.174711 107.020858 
L 373.809596 96.390964 
L 374.44448 108.208617 
L 375.079365 139.683261 
L 375.71425 134.882038 
L 376.349134 112.253089 
L 376.984019 118.305323 
L 377.618903 117.859948 
L 378.253788 73.570494 
L 378.888672 115.282899 
L 379.523557 90.671711 
L 380.158441 95.575923 
L 380.793326 131.82641 
L 381.42821 80.009451 
L 382.063095 71.318125 
L 382.697979 89.162353 
L 383.332864 103.596627 
L 383.967748 107.203356 
L 385.237517 86.703916 
L 385.872402 92.70812 
L 386.507286 62.003598 
L 387.777055 114.857971 
L 388.41194 79.215297 
L 389.046824 105.798164 
L 389.681709 104.782218 
L 390.316593 84.296789 
L 390.951478 76.068763 
L 391.586362 52.42081 
L 392.221247 59.02011 
L 392.856131 58.960578 
L 393.491016 92.784715 
L 394.1259 112.862791 
L 394.760785 66.732171 
L 395.395669 65.742387 
L 396.030554 74.97555 
L 396.665439 63.272858 
L 397.300323 69.411808 
L 398.570092 90.570814 
L 399.204977 89.984085 
L 399.839861 99.286522 
L 401.10963 129.91031 
L 401.744515 123.043229 
L 402.379399 105.495679 
L 403.014284 135.880422 
L 403.649168 113.308988 
L 404.284053 104.801083 
L 404.918937 129.322273 
L 405.553822 107.428042 
L 406.188706 103.404877 
L 406.823591 120.381492 
L 407.458475 108.409577 
L 408.09336 92.796886 
L 409.363129 121.525028 
L 409.998013 106.158182 
L 410.632898 96.614492 
L 411.267782 100.313108 
L 411.902667 81.253809 
L 412.537551 86.985444 
L 413.172436 108.405898 
L 413.80732 92.284904 
L 414.442205 85.308896 
L 415.077089 109.334414 
L 415.711974 119.826848 
L 416.346858 98.269558 
L 416.981743 84.859619 
L 417.616627 102.349208 
L 418.251512 88.975808 
L 418.886397 103.673323 
L 419.521281 80.67121 
L 420.156166 113.187882 
L 420.79105 122.499946 
L 421.425935 73.817038 
L 422.060819 111.434508 
L 422.695704 96.821815 
L 423.330588 106.577161 
L 423.965473 75.68817 
L 424.600357 73.568875 
L 425.235242 76.375997 
L 425.870126 74.218483 
L 426.505011 78.293883 
L 427.139895 54.900336 
L 427.77478 78.03296 
L 428.409664 68.484118 
L 429.044549 75.615415 
L 429.679433 90.900284 
L 430.314318 89.603944 
L 430.949202 91.909507 
L 431.584087 109.00705 
L 432.218971 98.99812 
L 432.853856 103.585677 
L 433.48874 85.386864 
L 434.123625 78.132475 
L 434.758509 106.750603 
L 435.393394 108.890477 
L 436.028278 103.340598 
L 436.663163 92.098412 
L 437.298047 126.705248 
L 437.932932 108.13379 
L 438.567816 93.721498 
L 439.202701 113.027312 
L 439.837586 88.211995 
L 440.47247 97.855823 
L 441.107355 112.923123 
L 441.742239 107.288785 
L 442.377124 91.58849 
L 443.012008 66.450413 
L 443.646893 99.090668 
L 444.281777 114.828654 
L 444.916662 92.135695 
L 445.551546 82.05342 
L 446.186431 87.88878 
L 446.821315 112.424386 
L 447.4562 109.700755 
L 448.091084 105.646658 
L 448.725969 106.038403 
L 449.360853 108.449373 
L 449.995738 90.643626 
L 450.630622 99.538819 
L 451.265507 79.323008 
L 451.900391 87.162782 
L 452.535276 119.486803 
L 453.17016 86.444047 
L 453.805045 120.439234 
L 454.439929 80.22668 
L 455.074814 71.167491 
L 455.709698 96.029447 
L 456.344583 90.498003 
L 456.979467 101.607725 
L 457.614352 87.702163 
L 458.249236 100.442639 
L 458.884121 86.109046 
L 459.519005 90.509058 
L 460.15389 100.816341 
L 460.788774 73.203724 
L 461.423659 63.115878 
L 462.058544 89.072151 
L 462.693428 83.63408 
L 463.328313 65.970649 
L 463.963197 79.948681 
L 464.598082 85.64339 
L 465.232966 82.326125 
L 465.867851 91.725855 
L 466.502735 77.759454 
L 467.13762 86.242353 
L 467.772504 108.902843 
L 468.407389 121.362451 
L 469.042273 91.999808 
L 469.677158 86.417933 
L 470.312042 102.004845 
L 470.946927 134.568265 
L 471.581811 144.474243 
L 472.216696 91.94334 
L 472.85158 135.631918 
L 473.486465 136.460585 
L 474.121349 123.592386 
L 474.756234 143.068334 
L 475.391118 119.344552 
L 476.026003 90.478697 
L 476.660887 100.191422 
L 477.295772 113.378722 
L 477.930656 122.431333 
L 478.565541 101.187981 
L 479.200425 100.13099 
L 479.83531 97.232139 
L 480.470194 73.768989 
L 481.105079 88.498435 
L 482.374848 97.693282 
L 483.009733 95.904569 
L 483.644617 95.980939 
L 484.279502 63.941271 
L 484.914386 62.754451 
L 485.549271 73.804439 
L 486.184155 82.510238 
L 486.81904 82.899398 
L 487.453924 94.763916 
L 488.088809 82.309349 
L 488.723693 84.369214 
L 489.358578 106.408271 
L 489.993462 60.226441 
L 490.628347 62.464365 
L 491.263231 51.167629 
L 491.898116 62.480661 
L 492.533 101.837435 
L 493.167885 104.402488 
L 493.802769 94.743489 
L 494.437654 105.100553 
L 495.072538 110.953614 
L 495.707423 107.178751 
L 496.342307 131.222909 
L 496.977192 110.650408 
L 497.612076 97.824308 
L 498.246961 91.491554 
L 498.881845 115.166312 
L 499.51673 101.94991 
L 500.151614 109.017558 
L 500.786499 119.387971 
L 501.421383 84.159012 
L 502.056268 89.55791 
L 502.691152 91.416008 
L 503.326037 101.789383 
L 503.960921 45.598731 
L 504.595806 86.679234 
L 505.230691 102.698015 
L 505.865575 79.232954 
L 506.50046 101.306716 
L 507.135344 93.14295 
L 507.770229 103.318278 
L 508.405113 120.114403 
L 509.039998 116.345244 
L 509.674882 79.7205 
L 510.309767 104.704003 
L 510.944651 90.794343 
L 511.579536 108.270666 
L 512.21442 86.681094 
L 512.849305 81.025186 
L 513.484189 131.2768 
L 514.119074 77.938788 
L 514.753958 100.911539 
L 515.388843 98.33742 
L 516.023727 75.273509 
L 516.658612 82.470915 
L 517.293496 107.934146 
L 517.928381 98.386226 
L 518.563265 77.265611 
L 519.19815 109.694295 
L 519.833034 84.941004 
L 520.467919 82.741054 
L 521.102803 70.505614 
L 521.737688 68.361064 
L 522.372572 84.826388 
L 523.007457 112.561166 
L 523.642341 104.584366 
L 524.277226 108.809046 
L 524.91211 122.272108 
L 525.546995 92.099047 
L 526.18188 116.642071 
L 526.816764 91.931109 
L 527.451649 95.296285 
L 528.086533 122.009973 
L 528.721418 96.058542 
L 529.356302 114.286532 
L 529.991187 101.096364 
L 530.626071 92.778283 
L 531.260956 96.009771 
L 531.89584 79.443571 
L 532.530725 93.874959 
L 533.165609 85.254882 
L 533.800494 85.084148 
L 534.435378 112.951574 
L 535.070263 112.231417 
L 535.705147 91.084303 
L 536.340032 102.471328 
L 536.974916 94.559218 
L 537.609801 102.490916 
L 538.87957 125.298375 
L 539.514454 84.22777 
L 540.149339 82.209709 
L 540.784223 120.660407 
L 541.419108 70.73246 
L 542.053992 102.889097 
L 542.688877 83.952432 
L 543.323761 76.969742 
L 543.958646 110.160563 
L 544.59353 95.128696 
L 545.228415 117.732345 
L 545.863299 108.590954 
L 546.498184 108.709591 
L 547.133069 67.209441 
L 547.767953 68.642568 
L 548.402838 107.717044 
L 549.037722 78.583769 
L 549.672607 98.204182 
L 550.307491 88.368309 
L 550.942376 81.948138 
L 551.57726 102.122756 
L 552.212145 99.465319 
L 552.847029 103.374649 
L 553.481914 93.014654 
L 554.116798 86.652994 
L 554.751683 118.21323 
L 555.386567 107.640885 
L 556.021452 69.903942 
L 556.656336 85.989769 
L 557.291221 78.587178 
L 557.926105 83.573342 
L 558.56099 90.633767 
L 559.195874 74.324099 
L 559.830759 89.515038 
L 560.465643 58.97352 
L 561.100528 101.296612 
L 561.735412 99.40589 
L 562.370297 62.72586 
L 563.005181 82.993502 
L 563.640066 85.75654 
L 564.27495 85.348055 
L 564.909835 52.887766 
L 565.544719 129.152491 
L 566.814488 87.967293 
L 567.449373 108.108062 
L 568.084257 105.336712 
L 568.719142 110.43096 
L 569.354027 130.353872 
L 569.988911 135.384243 
L 570.623796 100.431448 
L 571.25868 132.879582 
L 571.893565 107.581143 
L 572.528449 107.086241 
L 573.163334 105.050508 
L 573.798218 112.303832 
L 574.433103 127.867558 
L 575.067987 134.105224 
L 575.702872 106.643715 
L 576.337756 89.344211 
L 576.972641 97.041084 
L 577.607525 89.993082 
L 578.24241 97.007154 
L 578.877294 68.021665 
L 579.512179 95.546834 
L 580.147063 86.640069 
L 580.781948 94.703389 
L 581.416832 94.335886 
L 582.051717 65.589274 
L 582.686601 90.448848 
L 583.321486 76.873018 
L 583.95637 47.525509 
L 584.591255 81.800966 
L 585.226139 88.572682 
L 585.861024 81.720922 
L 586.495908 92.684694 
L 587.130793 86.238387 
L 587.765677 110.016846 
L 588.400562 98.108503 
L 589.035446 91.766845 
L 589.670331 76.140391 
L 590.305216 80.485295 
L 590.9401 82.226853 
L 591.574985 121.447599 
L 592.209869 114.386365 
L 592.844754 123.188287 
L 593.479638 123.930703 
L 594.114523 90.422922 
L 594.749407 105.455027 
L 595.384292 98.642596 
L 596.019176 121.555577 
L 596.019176 121.555577 
" clip-path="url(#p04e0202164)" style="fill: none; stroke: #1f77b4; stroke-width: 1.5; stroke-linecap: square"/>
   </g>
   <g id="line2d_16">
    <path d="M 342.700255 107.481 
L 343.335139 92.902558 
L 343.970024 78.281852 
L 344.604908 90.800442 
L 345.239793 63.555473 
L 345.874677 59.147478 
L 346.509562 74.983469 
L 347.144446 59.784735 
L 347.779331 48.669387 
L 348.414215 54.934613 
L 349.0491 60.874781 
L 349.683984 65.221513 
L 350.318869 62.818677 
L 350.953753 59.74105 
L 351.588638 68.245007 
L 352.223522 105.148137 
L 352.858407 99.146779 
L 353.493292 82.589536 
L 354.128176 99.197354 
L 354.763061 154.212734 
L 355.397945 172.842409 
L 356.03283 161.997136 
L 356.667714 173.750797 
L 357.302599 139.612541 
L 357.937483 125.28548 
L 358.572368 125.544843 
L 359.207252 121.564611 
L 359.842137 97.827066 
L 360.477021 122.03355 
L 361.111906 111.447389 
L 361.74679 62.084788 
L 362.381675 77.112522 
L 363.016559 86.663536 
L 363.651444 86.215854 
L 364.286328 77.583675 
L 364.921213 86.542275 
L 365.556097 55.458779 
L 366.190982 63.647576 
L 366.825866 64.278441 
L 367.460751 80.709019 
" clip-path="url(#p04e0202164)" style="fill: none; stroke: #ff0000; stroke-width: 1.5; stroke-linecap: square"/>
   </g>
   <g id="patch_3">
    <path d="M 63.382812 203.038125 
L 63.382812 36.718125 
" style="fill: none; stroke: #000000; stroke-width: 0.8; stroke-linejoin: miter; stroke-linecap: square"/>
   </g>
   <g id="patch_4">
    <path d="M 621.382812 203.038125 
L 621.382812 36.718125 
" style="fill: none; stroke: #000000; stroke-width: 0.8; stroke-linejoin: miter; stroke-linecap: square"/>
   </g>
   <g id="patch_5">
    <path d="M 63.382812 203.038125 
L 621.382812 203.038125 
" style="fill: none; stroke: #000000; stroke-width: 0.8; stroke-linejoin: miter; stroke-linecap: square"/>
   </g>
   <g id="patch_6">
    <path d="M 63.382812 36.718125 
L 621.382812 36.718125 
" style="fill: none; stroke: #000000; stroke-width: 0.8; stroke-linejoin: miter; stroke-linecap: square"/>
   </g>
   <g id="text_17">
    <!-- Channel:2, Time stamp : 1027735 -->
    <g transform="translate(240.144688 30.718125) scale(0.12 -0.12)">
     <defs>
      <path id="DejaVuSans-43" d="M 4122 4306 
L 4122 3641 
Q 3803 3938 3442 4084 
Q 3081 4231 2675 4231 
Q 1875 4231 1450 3742 
Q 1025 3253 1025 2328 
Q 1025 1406 1450 917 
Q 1875 428 2675 428 
Q 3081 428 3442 575 
Q 3803 722 4122 1019 
L 4122 359 
Q 3791 134 3420 21 
Q 3050 -91 2638 -91 
Q 1578 -91 968 557 
Q 359 1206 359 2328 
Q 359 3453 968 4101 
Q 1578 4750 2638 4750 
Q 3056 4750 3426 4639 
Q 3797 4528 4122 4306 
z
" transform="scale(0.015625)"/>
      <path id="DejaVuSans-68" d="M 3513 2113 
L 3513 0 
L 2938 0 
L 2938 2094 
Q 2938 2591 2744 2837 
Q 2550 3084 2163 3084 
Q 1697 3084 1428 2787 
Q 1159 2491 1159 1978 
L 1159 0 
L 581 0 
L 581 4863 
L 1159 4863 
L 1159 2956 
Q 1366 3272 1645 3428 
Q 1925 3584 2291 3584 
Q 2894 3584 3203 3211 
Q 3513 2838 3513 2113 
z
" transform="scale(0.015625)"/>
      <path id="DejaVuSans-6e" d="M 3513 2113 
L 3513 0 
L 2938 0 
L 2938 2094 
Q 2938 2591 2744 2837 
Q 2550 3084 2163 3084 
Q 1697 3084 1428 2787 
Q 1159 2491 1159 1978 
L 1159 0 
L 581 0 
L 581 3500 
L 1159 3500 
L 1159 2956 
Q 1366 3272 1645 3428 
Q 1925 3584 2291 3584 
Q 2894 3584 3203 3211 
Q 3513 2838 3513 2113 
z
" transform="scale(0.015625)"/>
      <path id="DejaVuSans-3a" d="M 750 794 
L 1409 794 
L 1409 0 
L 750 0 
L 750 794 
z
M 750 3309 
L 1409 3309 
L 1409 2516 
L 750 2516 
L 750 3309 
z
" transform="scale(0.015625)"/>
      <path id="DejaVuSans-2c" d="M 750 794 
L 1409 794 
L 1409 256 
L 897 -744 
L 494 -744 
L 750 256 
L 750 794 
z
" transform="scale(0.015625)"/>
      <path id="DejaVuSans-70" d="M 1159 525 
L 1159 -1331 
L 581 -1331 
L 581 3500 
L 1159 3500 
L 1159 2969 
Q 1341 3281 1617 3432 
Q 1894 3584 2278 3584 
Q 2916 3584 3314 3078 
Q 3713 2572 3713 1747 
Q 3713 922 3314 415 
Q 2916 -91 2278 -91 
Q 1894 -91 1617 61 
Q 1341 213 1159 525 
z
M 3116 1747 
Q 3116 2381 2855 2742 
Q 2594 3103 2138 3103 
Q 1681 3103 1420 2742 
Q 1159 2381 1159 1747 
Q 1159 1113 1420 752 
Q 1681 391 2138 391 
Q 2594 391 2855 752 
Q 3116 1113 3116 1747 
z
" transform="scale(0.015625)"/>
      <path id="DejaVuSans-37" d="M 525 4666 
L 3525 4666 
L 3525 4397 
L 1831 0 
L 1172 0 
L 2766 4134 
L 525 4134 
L 525 4666 
z
" transform="scale(0.015625)"/>
     </defs>
     <use xlink:href="#DejaVuSans-43"/>
     <use xlink:href="#DejaVuSans-68" x="69.824219"/>
     <use xlink:href="#DejaVuSans-61" x="133.203125"/>
     <use xlink:href="#DejaVuSans-6e" x="194.482422"/>
     <use xlink:href="#DejaVuSans-6e" x="257.861328"/>
     <use xlink:href="#DejaVuSans-65" x="321.240234"/>
     <use xlink:href="#DejaVuSans-6c" x="382.763672"/>
     <use xlink:href="#DejaVuSans-3a" x="410.546875"/>
     <use xlink:href="#DejaVuSans-32" x="444.238281"/>
     <use xlink:href="#DejaVuSans-2c" x="507.861328"/>
     <use xlink:href="#DejaVuSans-20" x="539.648438"/>
     <use xlink:href="#DejaVuSans-54" x="571.435547"/>
     <use xlink:href="#DejaVuSans-69" x="629.394531"/>
     <use xlink:href="#DejaVuSans-6d" x="657.177734"/>
     <use xlink:href="#DejaVuSans-65" x="754.589844"/>
     <use xlink:href="#DejaVuSans-20" x="816.113281"/>
     <use xlink:href="#DejaVuSans-73" x="847.900391"/>
     <use xlink:href="#DejaVuSans-74" x="900"/>
     <use xlink:href="#DejaVuSans-61" x="939.208984"/>
     <use xlink:href="#DejaVuSans-6d" x="1000.488281"/>
     <use xlink:href="#DejaVuSans-70" x="1097.900391"/>
     <use xlink:href="#DejaVuSans-20" x="1161.376953"/>
     <use xlink:href="#DejaVuSans-3a" x="1193.164062"/>
     <use xlink:href="#DejaVuSans-20" x="1226.855469"/>
     <use xlink:href="#DejaVuSans-31" x="1258.642578"/>
     <use xlink:href="#DejaVuSans-30" x="1322.265625"/>
     <use xlink:href="#DejaVuSans-32" x="1385.888672"/>
     <use xlink:href="#DejaVuSans-37" x="1449.511719"/>
     <use xlink:href="#DejaVuSans-37" x="1513.134766"/>
     <use xlink:href="#DejaVuSans-33" x="1576.757812"/>
     <use xlink:href="#DejaVuSans-35" x="1640.380859"/>
    </g>
   </g>
  </g>
 </g>
 <defs>
  <clipPath id="p04e0202164">
   <rect x="63.382812" y="36.718125" width="558" height="166.32"/>
  </clipPath>
 </defs>
</svg>
