<?xml version="1.0" encoding="utf-8" standalone="no"?>
<!DOCTYPE svg PUBLIC "-//W3C//DTD SVG 1.1//EN"
  "http://www.w3.org/Graphics/SVG/1.1/DTD/svg11.dtd">
<svg xmlns:xlink="http://www.w3.org/1999/xlink" width="649.345313pt" height="254.994375pt" viewBox="0 0 649.345313 254.994375" xmlns="http://www.w3.org/2000/svg" version="1.1">
 <metadata>
  <rdf:RDF xmlns:dc="http://purl.org/dc/elements/1.1/" xmlns:cc="http://creativecommons.org/ns#" xmlns:rdf="http://www.w3.org/1999/02/22-rdf-syntax-ns#">
   <cc:Work>
    <dc:type rdf:resource="http://purl.org/dc/dcmitype/StillImage"/>
    <dc:date>2024-02-26T10:41:43.121728</dc:date>
    <dc:format>image/svg+xml</dc:format>
    <dc:creator>
     <cc:Agent>
      <dc:title>Matplotlib v3.7.1, https://matplotlib.org/</dc:title>
     </cc:Agent>
    </dc:creator>
   </cc:Work>
  </rdf:RDF>
 </metadata>
 <defs>
  <style type="text/css">*{stroke-linejoin: round; stroke-linecap: butt}</style>
 </defs>
 <g id="figure_1">
  <g id="patch_1">
   <path d="M 0 254.994375 
L 649.345313 254.994375 
L 649.345313 -0 
L 0 -0 
z
" style="fill: #ffffff"/>
  </g>
  <g id="axes_1">
   <g id="patch_2">
    <path d="M 69.745313 203.038125 
L 627.745312 203.038125 
L 627.745312 36.718125 
L 69.745313 36.718125 
z
" style="fill: #ffffff"/>
   </g>
   <g id="matplotlib.axis_1">
    <g id="xtick_1">
     <g id="line2d_1">
      <defs>
       <path id="m5a7bfe8217" d="M 0 0 
L 0 3.5 
" style="stroke: #000000; stroke-width: 0.8"/>
      </defs>
      <g>
       <use xlink:href="#m5a7bfe8217" x="95.108949" y="203.038125" style="stroke: #000000; stroke-width: 0.8"/>
      </g>
     </g>
     <g id="text_1">
      <!-- −20 -->
      <g transform="translate(84.556605 217.636562) scale(0.1 -0.1)">
       <defs>
        <path id="DejaVuSans-2212" d="M 678 2272 
L 4684 2272 
L 4684 1741 
L 678 1741 
L 678 2272 
z
" transform="scale(0.015625)"/>
        <path id="DejaVuSans-32" d="M 1228 531 
L 3431 531 
L 3431 0 
L 469 0 
L 469 531 
Q 828 903 1448 1529 
Q 2069 2156 2228 2338 
Q 2531 2678 2651 2914 
Q 2772 3150 2772 3378 
Q 2772 3750 2511 3984 
Q 2250 4219 1831 4219 
Q 1534 4219 1204 4116 
Q 875 4013 500 3803 
L 500 4441 
Q 881 4594 1212 4672 
Q 1544 4750 1819 4750 
Q 2544 4750 2975 4387 
Q 3406 4025 3406 3419 
Q 3406 3131 3298 2873 
Q 3191 2616 2906 2266 
Q 2828 2175 2409 1742 
Q 1991 1309 1228 531 
z
" transform="scale(0.015625)"/>
        <path id="DejaVuSans-30" d="M 2034 4250 
Q 1547 4250 1301 3770 
Q 1056 3291 1056 2328 
Q 1056 1369 1301 889 
Q 1547 409 2034 409 
Q 2525 409 2770 889 
Q 3016 1369 3016 2328 
Q 3016 3291 2770 3770 
Q 2525 4250 2034 4250 
z
M 2034 4750 
Q 2819 4750 3233 4129 
Q 3647 3509 3647 2328 
Q 3647 1150 3233 529 
Q 2819 -91 2034 -91 
Q 1250 -91 836 529 
Q 422 1150 422 2328 
Q 422 3509 836 4129 
Q 1250 4750 2034 4750 
z
" transform="scale(0.015625)"/>
       </defs>
       <use xlink:href="#DejaVuSans-2212"/>
       <use xlink:href="#DejaVuSans-32" x="83.789062"/>
       <use xlink:href="#DejaVuSans-30" x="147.412109"/>
      </g>
     </g>
    </g>
    <g id="xtick_2">
     <g id="line2d_2">
      <g>
       <use xlink:href="#m5a7bfe8217" x="158.51804" y="203.038125" style="stroke: #000000; stroke-width: 0.8"/>
      </g>
     </g>
     <g id="text_2">
      <!-- −15 -->
      <g transform="translate(147.965696 217.636562) scale(0.1 -0.1)">
       <defs>
        <path id="DejaVuSans-31" d="M 794 531 
L 1825 531 
L 1825 4091 
L 703 3866 
L 703 4441 
L 1819 4666 
L 2450 4666 
L 2450 531 
L 3481 531 
L 3481 0 
L 794 0 
L 794 531 
z
" transform="scale(0.015625)"/>
        <path id="DejaVuSans-35" d="M 691 4666 
L 3169 4666 
L 3169 4134 
L 1269 4134 
L 1269 2991 
Q 1406 3038 1543 3061 
Q 1681 3084 1819 3084 
Q 2600 3084 3056 2656 
Q 3513 2228 3513 1497 
Q 3513 744 3044 326 
Q 2575 -91 1722 -91 
Q 1428 -91 1123 -41 
Q 819 9 494 109 
L 494 744 
Q 775 591 1075 516 
Q 1375 441 1709 441 
Q 2250 441 2565 725 
Q 2881 1009 2881 1497 
Q 2881 1984 2565 2268 
Q 2250 2553 1709 2553 
Q 1456 2553 1204 2497 
Q 953 2441 691 2322 
L 691 4666 
z
" transform="scale(0.015625)"/>
       </defs>
       <use xlink:href="#DejaVuSans-2212"/>
       <use xlink:href="#DejaVuSans-31" x="83.789062"/>
       <use xlink:href="#DejaVuSans-35" x="147.412109"/>
      </g>
     </g>
    </g>
    <g id="xtick_3">
     <g id="line2d_3">
      <g>
       <use xlink:href="#m5a7bfe8217" x="221.927131" y="203.038125" style="stroke: #000000; stroke-width: 0.8"/>
      </g>
     </g>
     <g id="text_3">
      <!-- −10 -->
      <g transform="translate(211.374787 217.636562) scale(0.1 -0.1)">
       <use xlink:href="#DejaVuSans-2212"/>
       <use xlink:href="#DejaVuSans-31" x="83.789062"/>
       <use xlink:href="#DejaVuSans-30" x="147.412109"/>
      </g>
     </g>
    </g>
    <g id="xtick_4">
     <g id="line2d_4">
      <g>
       <use xlink:href="#m5a7bfe8217" x="285.336222" y="203.038125" style="stroke: #000000; stroke-width: 0.8"/>
      </g>
     </g>
     <g id="text_4">
      <!-- −5 -->
      <g transform="translate(277.965128 217.636562) scale(0.1 -0.1)">
       <use xlink:href="#DejaVuSans-2212"/>
       <use xlink:href="#DejaVuSans-35" x="83.789062"/>
      </g>
     </g>
    </g>
    <g id="xtick_5">
     <g id="line2d_5">
      <g>
       <use xlink:href="#m5a7bfe8217" x="348.745313" y="203.038125" style="stroke: #000000; stroke-width: 0.8"/>
      </g>
     </g>
     <g id="text_5">
      <!-- 0 -->
      <g transform="translate(345.564063 217.636562) scale(0.1 -0.1)">
       <use xlink:href="#DejaVuSans-30"/>
      </g>
     </g>
    </g>
    <g id="xtick_6">
     <g id="line2d_6">
      <g>
       <use xlink:href="#m5a7bfe8217" x="412.154403" y="203.038125" style="stroke: #000000; stroke-width: 0.8"/>
      </g>
     </g>
     <g id="text_6">
      <!-- 5 -->
      <g transform="translate(408.973153 217.636562) scale(0.1 -0.1)">
       <use xlink:href="#DejaVuSans-35"/>
      </g>
     </g>
    </g>
    <g id="xtick_7">
     <g id="line2d_7">
      <g>
       <use xlink:href="#m5a7bfe8217" x="475.563494" y="203.038125" style="stroke: #000000; stroke-width: 0.8"/>
      </g>
     </g>
     <g id="text_7">
      <!-- 10 -->
      <g transform="translate(469.200994 217.636562) scale(0.1 -0.1)">
       <use xlink:href="#DejaVuSans-31"/>
       <use xlink:href="#DejaVuSans-30" x="63.623047"/>
      </g>
     </g>
    </g>
    <g id="xtick_8">
     <g id="line2d_8">
      <g>
       <use xlink:href="#m5a7bfe8217" x="538.972585" y="203.038125" style="stroke: #000000; stroke-width: 0.8"/>
      </g>
     </g>
     <g id="text_8">
      <!-- 15 -->
      <g transform="translate(532.610085 217.636562) scale(0.1 -0.1)">
       <use xlink:href="#DejaVuSans-31"/>
       <use xlink:href="#DejaVuSans-35" x="63.623047"/>
      </g>
     </g>
    </g>
    <g id="xtick_9">
     <g id="line2d_9">
      <g>
       <use xlink:href="#m5a7bfe8217" x="602.381676" y="203.038125" style="stroke: #000000; stroke-width: 0.8"/>
      </g>
     </g>
     <g id="text_9">
      <!-- 20 -->
      <g transform="translate(596.019176 217.636562) scale(0.1 -0.1)">
       <use xlink:href="#DejaVuSans-32"/>
       <use xlink:href="#DejaVuSans-30" x="63.623047"/>
      </g>
     </g>
    </g>
    <g id="text_10">
     <!-- Time [ms] -->
     <g transform="translate(323.546094 231.314687) scale(0.1 -0.1)">
      <defs>
       <path id="DejaVuSans-54" d="M -19 4666 
L 3928 4666 
L 3928 4134 
L 2272 4134 
L 2272 0 
L 1638 0 
L 1638 4134 
L -19 4134 
L -19 4666 
z
" transform="scale(0.015625)"/>
       <path id="DejaVuSans-69" d="M 603 3500 
L 1178 3500 
L 1178 0 
L 603 0 
L 603 3500 
z
M 603 4863 
L 1178 4863 
L 1178 4134 
L 603 4134 
L 603 4863 
z
" transform="scale(0.015625)"/>
       <path id="DejaVuSans-6d" d="M 3328 2828 
Q 3544 3216 3844 3400 
Q 4144 3584 4550 3584 
Q 5097 3584 5394 3201 
Q 5691 2819 5691 2113 
L 5691 0 
L 5113 0 
L 5113 2094 
Q 5113 2597 4934 2840 
Q 4756 3084 4391 3084 
Q 3944 3084 3684 2787 
Q 3425 2491 3425 1978 
L 3425 0 
L 2847 0 
L 2847 2094 
Q 2847 2600 2669 2842 
Q 2491 3084 2119 3084 
Q 1678 3084 1418 2786 
Q 1159 2488 1159 1978 
L 1159 0 
L 581 0 
L 581 3500 
L 1159 3500 
L 1159 2956 
Q 1356 3278 1631 3431 
Q 1906 3584 2284 3584 
Q 2666 3584 2933 3390 
Q 3200 3197 3328 2828 
z
" transform="scale(0.015625)"/>
       <path id="DejaVuSans-65" d="M 3597 1894 
L 3597 1613 
L 953 1613 
Q 991 1019 1311 708 
Q 1631 397 2203 397 
Q 2534 397 2845 478 
Q 3156 559 3463 722 
L 3463 178 
Q 3153 47 2828 -22 
Q 2503 -91 2169 -91 
Q 1331 -91 842 396 
Q 353 884 353 1716 
Q 353 2575 817 3079 
Q 1281 3584 2069 3584 
Q 2775 3584 3186 3129 
Q 3597 2675 3597 1894 
z
M 3022 2063 
Q 3016 2534 2758 2815 
Q 2500 3097 2075 3097 
Q 1594 3097 1305 2825 
Q 1016 2553 972 2059 
L 3022 2063 
z
" transform="scale(0.015625)"/>
       <path id="DejaVuSans-20" transform="scale(0.015625)"/>
       <path id="DejaVuSans-5b" d="M 550 4863 
L 1875 4863 
L 1875 4416 
L 1125 4416 
L 1125 -397 
L 1875 -397 
L 1875 -844 
L 550 -844 
L 550 4863 
z
" transform="scale(0.015625)"/>
       <path id="DejaVuSans-73" d="M 2834 3397 
L 2834 2853 
Q 2591 2978 2328 3040 
Q 2066 3103 1784 3103 
Q 1356 3103 1142 2972 
Q 928 2841 928 2578 
Q 928 2378 1081 2264 
Q 1234 2150 1697 2047 
L 1894 2003 
Q 2506 1872 2764 1633 
Q 3022 1394 3022 966 
Q 3022 478 2636 193 
Q 2250 -91 1575 -91 
Q 1294 -91 989 -36 
Q 684 19 347 128 
L 347 722 
Q 666 556 975 473 
Q 1284 391 1588 391 
Q 1994 391 2212 530 
Q 2431 669 2431 922 
Q 2431 1156 2273 1281 
Q 2116 1406 1581 1522 
L 1381 1569 
Q 847 1681 609 1914 
Q 372 2147 372 2553 
Q 372 3047 722 3315 
Q 1072 3584 1716 3584 
Q 2034 3584 2315 3537 
Q 2597 3491 2834 3397 
z
" transform="scale(0.015625)"/>
       <path id="DejaVuSans-5d" d="M 1947 4863 
L 1947 -844 
L 622 -844 
L 622 -397 
L 1369 -397 
L 1369 4416 
L 622 4416 
L 622 4863 
L 1947 4863 
z
" transform="scale(0.015625)"/>
      </defs>
      <use xlink:href="#DejaVuSans-54"/>
      <use xlink:href="#DejaVuSans-69" x="57.958984"/>
      <use xlink:href="#DejaVuSans-6d" x="85.742188"/>
      <use xlink:href="#DejaVuSans-65" x="183.154297"/>
      <use xlink:href="#DejaVuSans-20" x="244.677734"/>
      <use xlink:href="#DejaVuSans-5b" x="276.464844"/>
      <use xlink:href="#DejaVuSans-6d" x="315.478516"/>
      <use xlink:href="#DejaVuSans-73" x="412.890625"/>
      <use xlink:href="#DejaVuSans-5d" x="464.990234"/>
     </g>
    </g>
   </g>
   <g id="matplotlib.axis_2">
    <g id="ytick_1">
     <g id="line2d_10">
      <defs>
       <path id="mbeda9928eb" d="M 0 0 
L -3.5 0 
" style="stroke: #000000; stroke-width: 0.8"/>
      </defs>
      <g>
       <use xlink:href="#mbeda9928eb" x="69.745313" y="191.474986" style="stroke: #000000; stroke-width: 0.8"/>
      </g>
     </g>
     <g id="text_11">
      <!-- −250 -->
      <g transform="translate(35.278125 195.274205) scale(0.1 -0.1)">
       <use xlink:href="#DejaVuSans-2212"/>
       <use xlink:href="#DejaVuSans-32" x="83.789062"/>
       <use xlink:href="#DejaVuSans-35" x="147.412109"/>
       <use xlink:href="#DejaVuSans-30" x="211.035156"/>
      </g>
     </g>
    </g>
    <g id="ytick_2">
     <g id="line2d_11">
      <g>
       <use xlink:href="#mbeda9928eb" x="69.745313" y="166.745785" style="stroke: #000000; stroke-width: 0.8"/>
      </g>
     </g>
     <g id="text_12">
      <!-- −200 -->
      <g transform="translate(35.278125 170.545004) scale(0.1 -0.1)">
       <use xlink:href="#DejaVuSans-2212"/>
       <use xlink:href="#DejaVuSans-32" x="83.789062"/>
       <use xlink:href="#DejaVuSans-30" x="147.412109"/>
       <use xlink:href="#DejaVuSans-30" x="211.035156"/>
      </g>
     </g>
    </g>
    <g id="ytick_3">
     <g id="line2d_12">
      <g>
       <use xlink:href="#mbeda9928eb" x="69.745313" y="142.016585" style="stroke: #000000; stroke-width: 0.8"/>
      </g>
     </g>
     <g id="text_13">
      <!-- −150 -->
      <g transform="translate(35.278125 145.815804) scale(0.1 -0.1)">
       <use xlink:href="#DejaVuSans-2212"/>
       <use xlink:href="#DejaVuSans-31" x="83.789062"/>
       <use xlink:href="#DejaVuSans-35" x="147.412109"/>
       <use xlink:href="#DejaVuSans-30" x="211.035156"/>
      </g>
     </g>
    </g>
    <g id="ytick_4">
     <g id="line2d_13">
      <g>
       <use xlink:href="#mbeda9928eb" x="69.745313" y="117.287384" style="stroke: #000000; stroke-width: 0.8"/>
      </g>
     </g>
     <g id="text_14">
      <!-- −100 -->
      <g transform="translate(35.278125 121.086603) scale(0.1 -0.1)">
       <use xlink:href="#DejaVuSans-2212"/>
       <use xlink:href="#DejaVuSans-31" x="83.789062"/>
       <use xlink:href="#DejaVuSans-30" x="147.412109"/>
       <use xlink:href="#DejaVuSans-30" x="211.035156"/>
      </g>
     </g>
    </g>
    <g id="ytick_5">
     <g id="line2d_14">
      <g>
       <use xlink:href="#mbeda9928eb" x="69.745313" y="92.558184" style="stroke: #000000; stroke-width: 0.8"/>
      </g>
     </g>
     <g id="text_15">
      <!-- −50 -->
      <g transform="translate(41.640625 96.357402) scale(0.1 -0.1)">
       <use xlink:href="#DejaVuSans-2212"/>
       <use xlink:href="#DejaVuSans-35" x="83.789062"/>
       <use xlink:href="#DejaVuSans-30" x="147.412109"/>
      </g>
     </g>
    </g>
    <g id="ytick_6">
     <g id="line2d_15">
      <g>
       <use xlink:href="#mbeda9928eb" x="69.745313" y="67.828983" style="stroke: #000000; stroke-width: 0.8"/>
      </g>
     </g>
     <g id="text_16">
      <!-- 0 -->
      <g transform="translate(56.382813 71.628202) scale(0.1 -0.1)">
       <use xlink:href="#DejaVuSans-30"/>
      </g>
     </g>
    </g>
    <g id="ytick_7">
     <g id="line2d_16">
      <g>
       <use xlink:href="#mbeda9928eb" x="69.745313" y="43.099783" style="stroke: #000000; stroke-width: 0.8"/>
      </g>
     </g>
     <g id="text_17">
      <!-- 50 -->
      <g transform="translate(50.020313 46.899001) scale(0.1 -0.1)">
       <use xlink:href="#DejaVuSans-35"/>
       <use xlink:href="#DejaVuSans-30" x="63.623047"/>
      </g>
     </g>
    </g>
    <g id="text_18">
     <!-- Voltage [uV] -->
     <g transform="translate(29.198438 150.714063) rotate(-90) scale(0.1 -0.1)">
      <defs>
       <path id="DejaVuSans-56" d="M 1831 0 
L 50 4666 
L 709 4666 
L 2188 738 
L 3669 4666 
L 4325 4666 
L 2547 0 
L 1831 0 
z
" transform="scale(0.015625)"/>
       <path id="DejaVuSans-6f" d="M 1959 3097 
Q 1497 3097 1228 2736 
Q 959 2375 959 1747 
Q 959 1119 1226 758 
Q 1494 397 1959 397 
Q 2419 397 2687 759 
Q 2956 1122 2956 1747 
Q 2956 2369 2687 2733 
Q 2419 3097 1959 3097 
z
M 1959 3584 
Q 2709 3584 3137 3096 
Q 3566 2609 3566 1747 
Q 3566 888 3137 398 
Q 2709 -91 1959 -91 
Q 1206 -91 779 398 
Q 353 888 353 1747 
Q 353 2609 779 3096 
Q 1206 3584 1959 3584 
z
" transform="scale(0.015625)"/>
       <path id="DejaVuSans-6c" d="M 603 4863 
L 1178 4863 
L 1178 0 
L 603 0 
L 603 4863 
z
" transform="scale(0.015625)"/>
       <path id="DejaVuSans-74" d="M 1172 4494 
L 1172 3500 
L 2356 3500 
L 2356 3053 
L 1172 3053 
L 1172 1153 
Q 1172 725 1289 603 
Q 1406 481 1766 481 
L 2356 481 
L 2356 0 
L 1766 0 
Q 1100 0 847 248 
Q 594 497 594 1153 
L 594 3053 
L 172 3053 
L 172 3500 
L 594 3500 
L 594 4494 
L 1172 4494 
z
" transform="scale(0.015625)"/>
       <path id="DejaVuSans-61" d="M 2194 1759 
Q 1497 1759 1228 1600 
Q 959 1441 959 1056 
Q 959 750 1161 570 
Q 1363 391 1709 391 
Q 2188 391 2477 730 
Q 2766 1069 2766 1631 
L 2766 1759 
L 2194 1759 
z
M 3341 1997 
L 3341 0 
L 2766 0 
L 2766 531 
Q 2569 213 2275 61 
Q 1981 -91 1556 -91 
Q 1019 -91 701 211 
Q 384 513 384 1019 
Q 384 1609 779 1909 
Q 1175 2209 1959 2209 
L 2766 2209 
L 2766 2266 
Q 2766 2663 2505 2880 
Q 2244 3097 1772 3097 
Q 1472 3097 1187 3025 
Q 903 2953 641 2809 
L 641 3341 
Q 956 3463 1253 3523 
Q 1550 3584 1831 3584 
Q 2591 3584 2966 3190 
Q 3341 2797 3341 1997 
z
" transform="scale(0.015625)"/>
       <path id="DejaVuSans-67" d="M 2906 1791 
Q 2906 2416 2648 2759 
Q 2391 3103 1925 3103 
Q 1463 3103 1205 2759 
Q 947 2416 947 1791 
Q 947 1169 1205 825 
Q 1463 481 1925 481 
Q 2391 481 2648 825 
Q 2906 1169 2906 1791 
z
M 3481 434 
Q 3481 -459 3084 -895 
Q 2688 -1331 1869 -1331 
Q 1566 -1331 1297 -1286 
Q 1028 -1241 775 -1147 
L 775 -588 
Q 1028 -725 1275 -790 
Q 1522 -856 1778 -856 
Q 2344 -856 2625 -561 
Q 2906 -266 2906 331 
L 2906 616 
Q 2728 306 2450 153 
Q 2172 0 1784 0 
Q 1141 0 747 490 
Q 353 981 353 1791 
Q 353 2603 747 3093 
Q 1141 3584 1784 3584 
Q 2172 3584 2450 3431 
Q 2728 3278 2906 2969 
L 2906 3500 
L 3481 3500 
L 3481 434 
z
" transform="scale(0.015625)"/>
       <path id="DejaVuSans-75" d="M 544 1381 
L 544 3500 
L 1119 3500 
L 1119 1403 
Q 1119 906 1312 657 
Q 1506 409 1894 409 
Q 2359 409 2629 706 
Q 2900 1003 2900 1516 
L 2900 3500 
L 3475 3500 
L 3475 0 
L 2900 0 
L 2900 538 
Q 2691 219 2414 64 
Q 2138 -91 1772 -91 
Q 1169 -91 856 284 
Q 544 659 544 1381 
z
M 1991 3584 
L 1991 3584 
z
" transform="scale(0.015625)"/>
      </defs>
      <use xlink:href="#DejaVuSans-56"/>
      <use xlink:href="#DejaVuSans-6f" x="60.658203"/>
      <use xlink:href="#DejaVuSans-6c" x="121.839844"/>
      <use xlink:href="#DejaVuSans-74" x="149.623047"/>
      <use xlink:href="#DejaVuSans-61" x="188.832031"/>
      <use xlink:href="#DejaVuSans-67" x="250.111328"/>
      <use xlink:href="#DejaVuSans-65" x="313.587891"/>
      <use xlink:href="#DejaVuSans-20" x="375.111328"/>
      <use xlink:href="#DejaVuSans-5b" x="406.898438"/>
      <use xlink:href="#DejaVuSans-75" x="445.912109"/>
      <use xlink:href="#DejaVuSans-56" x="509.291016"/>
      <use xlink:href="#DejaVuSans-5d" x="577.699219"/>
     </g>
    </g>
   </g>
   <g id="line2d_17">
    <path d="M 95.108949 67.798045 
L 95.743833 68.670096 
L 96.378718 66.216957 
L 97.013602 68.726086 
L 97.648487 67.534971 
L 98.283371 67.038765 
L 98.918256 69.625565 
L 99.55314 65.541654 
L 100.188025 67.179245 
L 100.822909 68.001083 
L 101.457794 64.33794 
L 102.727563 67.17314 
L 103.362448 71.49889 
L 103.997332 70.570421 
L 104.632217 68.685506 
L 105.267101 67.777837 
L 105.901986 69.453998 
L 106.53687 69.308783 
L 107.171755 65.315957 
L 107.806639 66.967951 
L 108.441524 65.334727 
L 109.076408 64.809327 
L 109.711293 67.867687 
L 110.981062 66.642095 
L 111.615946 68.000371 
L 112.250831 72.647585 
L 112.885715 67.960848 
L 113.5206 65.624896 
L 114.155484 66.969447 
L 114.790369 65.627751 
L 115.425253 67.734148 
L 116.060138 70.335346 
L 117.329907 68.07335 
L 117.964791 65.972635 
L 118.599676 65.204886 
L 119.23456 74.83303 
L 119.869445 68.192866 
L 120.504329 64.339049 
L 121.139214 67.59079 
L 121.774098 67.082914 
L 122.408983 68.229119 
L 123.043868 67.528608 
L 123.678752 68.189276 
L 124.313637 72.03133 
L 124.948521 67.386108 
L 125.583406 67.078174 
L 126.21829 68.04921 
L 126.853175 61.820931 
L 127.488059 66.909672 
L 128.122944 70.621195 
L 128.757828 67.543436 
L 129.392713 66.083443 
L 130.027597 71.593964 
L 130.662482 68.748434 
L 131.297366 69.513288 
L 131.932251 67.623527 
L 132.567135 62.840734 
L 133.20202 65.124955 
L 133.836904 68.640265 
L 135.106673 71.472675 
L 135.741558 71.756426 
L 137.011327 70.6789 
L 137.646211 67.816302 
L 138.281096 69.02809 
L 138.91598 67.678292 
L 139.550865 69.122564 
L 140.185749 63.774384 
L 140.820634 67.105711 
L 141.455518 67.965641 
L 142.090403 64.037191 
L 142.725287 69.643355 
L 143.360172 68.305347 
L 143.995056 70.158021 
L 144.629941 70.553256 
L 145.264826 68.833892 
L 145.89971 68.272552 
L 146.534595 68.466141 
L 147.169479 68.0215 
L 147.804364 69.052362 
L 148.439248 68.643377 
L 149.074133 66.539265 
L 149.709017 67.342007 
L 150.343902 65.071567 
L 150.978786 64.407048 
L 151.613671 67.73385 
L 152.248555 67.457233 
L 152.88344 69.799718 
L 153.518324 67.522155 
L 154.153209 59.792936 
L 154.788093 64.503081 
L 155.422978 64.237951 
L 156.057862 68.619087 
L 156.692747 68.769095 
L 157.327631 67.616309 
L 157.962516 69.63088 
L 158.5974 64.768119 
L 159.232285 68.854125 
L 159.867169 66.049833 
L 160.502054 65.863785 
L 161.136938 68.75942 
L 161.771823 68.955229 
L 162.406707 66.532523 
L 163.041592 65.78285 
L 163.676476 68.919848 
L 164.311361 66.085476 
L 164.946245 66.087913 
L 165.58113 70.632068 
L 166.216015 70.771624 
L 166.850899 66.303363 
L 167.485784 66.097953 
L 168.120668 71.131201 
L 168.755553 68.563721 
L 169.390437 67.752302 
L 170.025322 71.615738 
L 170.660206 71.208598 
L 171.295091 68.7004 
L 171.929975 65.680628 
L 172.56486 66.282949 
L 173.199744 69.298416 
L 173.834629 69.476842 
L 175.104398 69.023505 
L 175.739282 63.853212 
L 176.374167 69.164284 
L 177.009051 70.806275 
L 178.27882 65.796683 
L 178.913705 66.000506 
L 179.548589 71.592454 
L 180.183474 68.759008 
L 180.818358 65.246933 
L 181.453243 66.205155 
L 182.088127 68.369292 
L 182.723012 66.242803 
L 183.357896 68.136479 
L 183.992781 67.808312 
L 184.627665 68.118992 
L 185.26255 68.875361 
L 185.897434 67.352814 
L 186.532319 68.769117 
L 187.167204 67.959104 
L 187.802088 68.744264 
L 188.436973 67.332797 
L 189.071857 66.583777 
L 189.706742 67.112027 
L 190.341626 68.268715 
L 190.976511 69.802332 
L 191.611395 67.532504 
L 192.881164 68.525647 
L 193.516049 70.014896 
L 194.150933 66.334202 
L 194.785818 64.441096 
L 195.420702 67.329153 
L 196.055587 69.185424 
L 196.690471 68.333867 
L 197.96024 69.160949 
L 198.595125 64.276087 
L 199.230009 65.763875 
L 199.864894 62.811469 
L 200.499778 65.185143 
L 201.134663 70.009243 
L 201.769547 71.571924 
L 202.404432 70.535212 
L 203.039316 65.248489 
L 203.674201 67.862481 
L 204.309085 65.309241 
L 204.94397 65.464108 
L 205.578854 68.473749 
L 206.213739 69.127675 
L 206.848623 70.882728 
L 207.483508 64.870238 
L 208.118392 65.686215 
L 208.753277 71.115053 
L 209.388162 71.108395 
L 210.023046 69.059092 
L 211.292815 66.422016 
L 211.9277 69.521628 
L 212.562584 71.020099 
L 213.197469 69.928173 
L 213.832353 70.801803 
L 214.467238 69.263416 
L 215.737007 68.198817 
L 216.371891 69.042308 
L 217.006776 69.336435 
L 217.64166 72.13089 
L 218.276545 65.539371 
L 218.911429 66.546086 
L 219.546314 69.250424 
L 220.181198 65.979166 
L 220.816083 69.187732 
L 221.450967 64.25426 
L 222.085852 65.352405 
L 222.720736 65.516698 
L 223.355621 66.90586 
L 223.990505 67.837946 
L 224.62539 65.455095 
L 225.260274 65.818977 
L 225.895159 67.940985 
L 226.530043 66.116751 
L 227.164928 65.584368 
L 227.799812 67.865149 
L 228.434697 64.749065 
L 229.704466 65.62874 
L 230.339351 67.901331 
L 230.974235 66.105288 
L 231.60912 68.59386 
L 232.244004 65.413723 
L 232.878889 69.470463 
L 233.513773 69.445846 
L 234.148658 66.858223 
L 234.783542 71.941956 
L 235.418427 64.70422 
L 236.053311 69.340788 
L 236.688196 68.887625 
L 237.32308 70.807808 
L 237.957965 70.825306 
L 238.592849 68.530241 
L 239.227734 69.171125 
L 239.862618 68.676689 
L 240.497503 69.042893 
L 241.132387 65.455286 
L 241.767272 69.386729 
L 242.402156 69.083704 
L 243.037041 64.229838 
L 243.671925 64.126034 
L 244.30681 61.583202 
L 244.941694 68.323652 
L 245.576579 72.061114 
L 246.211463 66.145651 
L 246.846348 71.363912 
L 248.116117 69.620184 
L 248.751001 70.241255 
L 249.385886 68.372474 
L 250.02077 63.884352 
L 250.655655 67.521838 
L 251.290539 68.710817 
L 251.925424 64.94313 
L 252.560309 69.872702 
L 253.195193 66.227201 
L 253.830078 66.601584 
L 254.464962 66.550676 
L 255.099847 66.903318 
L 255.734731 66.203704 
L 256.369616 68.076601 
L 257.0045 69.528415 
L 257.639385 67.515632 
L 258.274269 73.248068 
L 258.909154 69.462337 
L 259.544038 70.227289 
L 260.178923 69.190345 
L 260.813807 66.831654 
L 261.448692 68.821517 
L 262.083576 64.797012 
L 262.718461 68.162683 
L 263.353345 66.824386 
L 263.98823 68.948242 
L 264.623114 69.1543 
L 265.257999 69.150033 
L 265.892883 67.159926 
L 266.527768 67.414852 
L 267.162652 72.126874 
L 267.797537 66.827462 
L 268.432421 70.262779 
L 269.067306 68.161202 
L 269.70219 70.339267 
L 270.337075 67.467689 
L 270.971959 67.814749 
L 271.606844 68.324584 
L 272.241728 66.439189 
L 272.876613 68.331626 
L 273.511498 68.03328 
L 274.146382 66.24515 
L 274.781267 63.32866 
L 275.416151 70.46295 
L 276.051036 65.146639 
L 276.68592 66.424596 
L 277.320805 67.121464 
L 277.955689 66.279443 
L 278.590574 64.821467 
L 279.860343 65.777964 
L 280.495227 67.029218 
L 281.130112 69.133816 
L 281.764996 66.553495 
L 282.399881 67.763281 
L 283.034765 66.365421 
L 283.66965 67.076825 
L 284.304534 66.361296 
L 284.939419 69.203087 
L 285.574303 67.019408 
L 286.209188 67.587468 
L 286.844072 66.892662 
L 287.478957 68.11348 
L 288.113841 66.948008 
L 288.748726 65.089071 
L 289.38361 67.961256 
L 290.018495 68.927379 
L 290.653379 71.287097 
L 291.923148 67.959552 
L 292.558033 67.190652 
L 293.192917 73.217936 
L 293.827802 65.474413 
L 294.462686 64.203742 
L 295.097571 66.765766 
L 295.732456 67.821565 
L 296.36734 71.55184 
L 297.002225 64.875495 
L 297.637109 66.816737 
L 298.271994 69.540742 
L 298.906878 69.921904 
L 299.541763 64.747292 
L 300.176647 68.906815 
L 300.811532 69.594192 
L 301.446416 62.995789 
L 302.081301 64.218938 
L 303.35107 70.423238 
L 303.985954 67.421425 
L 304.620839 67.379899 
L 305.255723 71.188556 
L 305.890608 69.558872 
L 306.525492 65.601803 
L 307.160377 69.439327 
L 307.795261 69.464235 
L 308.430146 69.625336 
L 309.06503 68.499653 
L 309.699915 66.739924 
L 310.334799 71.578891 
L 310.969684 70.135838 
L 311.604568 70.212607 
L 312.239453 71.034151 
L 312.874337 68.448479 
L 313.509222 70.107304 
L 314.144106 73.516282 
L 314.778991 70.149122 
L 315.413875 68.052334 
L 316.04876 68.551962 
L 316.683645 68.06255 
L 317.318529 69.45834 
L 317.953414 69.20365 
L 318.588298 72.765917 
L 319.223183 66.940359 
L 319.858067 63.325641 
L 320.492952 68.504387 
L 321.127836 69.194366 
L 321.762721 72.351185 
L 322.397605 71.075002 
L 323.03249 69.220052 
L 323.667374 68.381235 
L 324.302259 68.848898 
L 324.937143 67.664279 
L 325.572028 69.112574 
L 326.206912 73.643205 
L 326.841797 68.946996 
L 327.476681 71.36233 
L 328.111566 69.217737 
L 328.74645 68.337035 
L 329.381335 73.491514 
L 330.016219 69.479103 
L 330.651104 68.264291 
L 331.285988 66.585636 
L 331.920873 68.481845 
L 332.555757 67.176653 
L 333.190642 66.134989 
L 333.825526 67.297951 
L 334.460411 66.812379 
L 335.095295 67.916043 
L 335.73018 66.265565 
L 336.365064 66.719793 
L 336.999949 67.480359 
L 338.269718 60.80986 
L 338.904603 62.761424 
L 339.539487 63.130892 
L 340.174372 61.554706 
L 340.809256 63.449765 
L 341.444141 61.644669 
L 342.71391 60.82239 
L 343.348794 60.311834 
L 343.983679 62.956056 
L 344.618563 62.36384 
L 345.253448 61.980745 
L 345.888332 58.194182 
L 346.523217 58.29346 
L 347.158101 58.135271 
L 347.792986 52.098477 
L 348.42787 53.90858 
L 349.062755 58.259997 
L 349.697639 54.887008 
L 350.332524 54.126174 
L 351.602293 53.212177 
L 352.872062 51.866873 
L 353.506946 52.606642 
L 354.141831 51.455292 
L 354.776715 51.271115 
L 355.4116 44.278125 
L 356.046484 48.683941 
L 356.681369 52.052679 
L 357.316253 45.054352 
L 357.951138 52.80743 
L 359.220907 89.379836 
L 359.855792 97.313646 
L 360.490676 112.404406 
L 361.760445 195.478125 
L 362.39533 186.045236 
L 363.030214 154.399122 
L 363.665099 113.033601 
L 364.299983 80.982776 
L 366.204637 61.320928 
L 366.839521 61.927278 
L 367.474406 55.895822 
L 368.10929 55.506852 
L 368.744175 54.952195 
L 369.379059 57.984042 
L 370.013944 55.588846 
L 370.648828 56.221805 
L 371.283713 57.411685 
L 371.918597 59.26317 
L 372.553482 57.517863 
L 373.188366 55.030115 
L 373.823251 60.042292 
L 374.458135 59.126705 
L 375.09302 64.87206 
L 375.727904 55.046215 
L 376.362789 56.554249 
L 376.997673 59.175506 
L 377.632558 60.137289 
L 378.267442 59.070298 
L 378.902327 55.82021 
L 379.537211 56.274056 
L 380.172096 57.364571 
L 380.80698 62.553946 
L 381.441865 56.160057 
L 382.07675 59.584797 
L 383.346519 64.143503 
L 383.981403 64.618318 
L 384.616288 61.465848 
L 385.251172 59.792179 
L 385.886057 67.453227 
L 386.520941 64.806052 
L 387.155826 62.705788 
L 387.79071 67.415064 
L 388.425595 63.31349 
L 389.060479 68.108437 
L 389.695364 69.356722 
L 390.330248 63.133726 
L 390.965133 66.932756 
L 391.600017 69.860693 
L 392.234902 67.023049 
L 392.869786 67.564202 
L 393.504671 68.459304 
L 394.139555 64.548294 
L 394.77444 65.639747 
L 395.409324 67.090257 
L 396.044209 67.915179 
L 396.679093 71.145314 
L 397.313978 66.316897 
L 397.948862 69.096325 
L 398.583747 66.15582 
L 399.218631 70.584638 
L 399.853516 68.119794 
L 400.4884 71.069518 
L 401.123285 72.80534 
L 401.758169 66.489282 
L 402.393054 67.791641 
L 403.027939 68.309313 
L 403.662823 70.362046 
L 404.297708 65.526013 
L 404.932592 70.117264 
L 405.567477 72.794339 
L 406.202361 72.276974 
L 406.837246 66.582946 
L 407.47213 69.228271 
L 408.107015 70.526997 
L 408.741899 69.941355 
L 409.376784 69.688707 
L 410.646553 66.011118 
L 411.281437 70.003135 
L 411.916322 71.951079 
L 412.551206 67.699586 
L 413.186091 70.163891 
L 413.820975 66.821225 
L 414.45586 70.210545 
L 415.090744 70.257651 
L 415.725629 69.207511 
L 416.360513 69.61735 
L 416.995398 69.09015 
L 417.630282 68.373813 
L 418.265167 67.258302 
L 418.900051 71.255962 
L 419.534936 71.718684 
L 420.16982 66.694753 
L 421.439589 68.004379 
L 422.074474 65.568323 
L 422.709358 64.774243 
L 423.344243 65.853454 
L 423.979127 70.704597 
L 424.614012 67.797978 
L 425.248897 68.729486 
L 425.883781 68.796441 
L 426.518666 67.243529 
L 427.15355 68.172121 
L 427.788435 62.875256 
L 428.423319 68.719284 
L 429.058204 67.395786 
L 429.693088 63.586267 
L 430.327973 67.116037 
L 430.962857 69.934877 
L 431.597742 68.985965 
L 432.232626 66.831748 
L 432.867511 69.152553 
L 433.502395 67.775379 
L 434.13728 73.115484 
L 434.772164 69.292424 
L 435.407049 69.879626 
L 436.041933 68.779915 
L 436.676818 65.132183 
L 437.311702 69.905079 
L 437.946587 66.6812 
L 438.581471 70.837452 
L 439.216356 67.483117 
L 439.85124 67.623178 
L 440.486125 71.779693 
L 441.121009 68.169489 
L 441.755894 68.768166 
L 442.390778 68.42413 
L 443.025663 67.898633 
L 443.660547 67.132244 
L 444.930316 68.344292 
L 445.565201 66.11329 
L 446.200086 64.538401 
L 446.83497 72.423005 
L 447.469855 68.253858 
L 448.104739 60.60637 
L 448.739624 67.533608 
L 449.374508 64.992546 
L 450.009393 67.297769 
L 450.644277 70.146707 
L 451.279162 67.161006 
L 451.914046 69.700885 
L 452.548931 69.534281 
L 453.8187 64.098108 
L 454.453584 63.766473 
L 455.088469 66.091075 
L 455.723353 70.039343 
L 456.358238 67.894997 
L 456.993122 68.195349 
L 457.628007 66.617665 
L 458.262891 63.633316 
L 458.897776 67.853564 
L 459.53266 65.996772 
L 460.167545 69.094663 
L 460.802429 66.221061 
L 461.437314 63.973497 
L 462.072198 66.720246 
L 462.707083 67.531977 
L 463.341967 70.873771 
L 463.976852 70.315259 
L 464.611736 71.451999 
L 465.246621 68.945455 
L 465.881505 62.285136 
L 466.51639 65.543435 
L 467.151274 67.292548 
L 467.786159 65.993047 
L 468.421044 71.139259 
L 469.055928 65.667899 
L 469.690813 68.325271 
L 470.325697 67.659728 
L 470.960582 68.296962 
L 471.595466 71.108165 
L 472.230351 65.743497 
L 472.865235 68.884405 
L 473.50012 68.181657 
L 474.135004 67.071013 
L 474.769889 70.110356 
L 475.404773 69.336944 
L 476.039658 63.716543 
L 476.674542 65.942534 
L 477.309427 69.930378 
L 477.944311 71.738177 
L 478.579196 68.310601 
L 479.21408 67.719393 
L 479.848965 67.834044 
L 481.118734 68.703151 
L 481.753618 69.555407 
L 482.388503 68.228031 
L 483.023387 68.736223 
L 483.658272 72.109187 
L 484.293156 67.710665 
L 484.928041 68.68571 
L 485.562925 68.014337 
L 486.19781 68.572699 
L 486.832694 68.484973 
L 487.467579 66.179859 
L 488.102463 68.445048 
L 488.737348 68.837846 
L 489.372233 66.447659 
L 490.007117 67.383225 
L 490.642002 65.773627 
L 491.276886 65.47756 
L 491.911771 68.162515 
L 492.546655 69.577517 
L 493.18154 66.386073 
L 493.816424 66.463962 
L 495.086193 67.221095 
L 495.721078 69.842535 
L 496.355962 67.213193 
L 496.990847 68.238847 
L 497.625731 66.917494 
L 498.260616 67.408454 
L 498.8955 66.427465 
L 499.530385 68.509784 
L 500.165269 67.767351 
L 500.800154 64.98412 
L 501.435038 67.56175 
L 502.069923 69.560785 
L 502.704807 69.186531 
L 503.339692 66.421977 
L 503.974576 69.362203 
L 504.609461 69.937867 
L 505.244345 72.427021 
L 505.87923 71.429935 
L 506.514114 68.926359 
L 507.148999 69.357699 
L 507.783883 70.429429 
L 508.418768 70.861163 
L 509.688537 64.562904 
L 510.323421 65.187564 
L 510.958306 65.606742 
L 511.593191 64.512596 
L 512.228075 68.110347 
L 512.86296 67.38397 
L 513.497844 64.260588 
L 514.132729 62.712466 
L 514.767613 67.170448 
L 515.402498 63.522311 
L 516.037382 64.103883 
L 516.672267 69.241221 
L 517.307151 67.688235 
L 517.942036 67.338928 
L 518.57692 65.764639 
L 519.211805 69.395887 
L 519.846689 70.961306 
L 520.481574 68.570623 
L 521.116458 67.167718 
L 521.751343 66.217903 
L 522.386227 69.619284 
L 523.021112 69.381073 
L 523.655996 67.224049 
L 524.290881 70.056285 
L 524.925765 68.95265 
L 525.56065 67.566877 
L 526.195534 66.804418 
L 526.830419 70.588245 
L 527.465303 66.862513 
L 528.100188 70.336474 
L 528.735072 71.644319 
L 529.369957 69.598706 
L 530.004841 71.323819 
L 530.639726 67.303752 
L 531.27461 68.226441 
L 531.909495 67.107566 
L 532.54438 63.518018 
L 533.179264 65.339236 
L 533.814149 68.487607 
L 534.449033 65.275572 
L 535.083918 70.212731 
L 535.718802 67.015174 
L 536.353687 68.014683 
L 536.988571 66.899916 
L 537.623456 65.357631 
L 538.25834 68.894343 
L 538.893225 66.667487 
L 539.528109 68.574146 
L 540.162994 69.039653 
L 540.797878 65.276306 
L 541.432763 65.326722 
L 542.067647 67.016526 
L 542.702532 66.418017 
L 543.337416 67.148849 
L 543.972301 66.906532 
L 544.607185 68.282742 
L 545.24207 66.018189 
L 545.876954 69.648097 
L 546.511839 66.358668 
L 547.146723 68.54155 
L 547.781608 71.984438 
L 548.416492 68.33183 
L 549.051377 69.209409 
L 549.686261 72.095778 
L 550.321146 70.581841 
L 551.590915 70.325894 
L 552.225799 65.559538 
L 552.860684 65.943795 
L 553.495569 66.909869 
L 554.130453 68.244766 
L 554.765338 65.73614 
L 555.400222 69.228329 
L 556.035107 66.568061 
L 556.669991 67.930997 
L 557.304876 72.009559 
L 557.93976 66.086799 
L 558.574645 65.860243 
L 559.209529 69.382149 
L 559.844414 67.026447 
L 560.479298 65.178248 
L 561.114183 68.375102 
L 561.749067 67.165172 
L 562.383952 66.92018 
L 563.018836 68.490602 
L 563.653721 71.152074 
L 564.288605 68.282112 
L 564.92349 66.800007 
L 565.558374 71.068324 
L 566.193259 68.912071 
L 566.828143 69.418598 
L 567.463028 66.786186 
L 568.097912 63.231566 
L 568.732797 66.791161 
L 569.367681 68.318987 
L 570.002566 68.93031 
L 570.63745 67.605734 
L 571.272335 67.805423 
L 571.907219 68.899982 
L 572.542104 67.372601 
L 573.176988 71.041362 
L 573.811873 68.983333 
L 575.081642 66.947899 
L 575.716527 63.776654 
L 576.351411 68.112704 
L 576.986296 61.893243 
L 577.62118 67.266072 
L 578.256065 68.188598 
L 578.890949 66.42683 
L 579.525834 67.817027 
L 580.160718 64.622508 
L 580.795603 69.658725 
L 581.430487 65.510477 
L 582.065372 66.968677 
L 582.700256 70.146232 
L 583.335141 69.009248 
L 583.970025 66.760694 
L 584.60491 68.259406 
L 585.239794 72.519898 
L 585.874679 68.962741 
L 586.509563 67.846053 
L 587.144448 68.032121 
L 587.779332 68.846492 
L 588.414217 70.191532 
L 589.049101 62.599906 
L 590.31887 73.799211 
L 590.953755 70.266134 
L 591.588639 70.043145 
L 592.223524 65.666309 
L 592.858408 65.801582 
L 593.493293 65.397479 
L 594.128177 67.923808 
L 594.763062 65.986924 
L 595.397946 66.283344 
L 596.032831 68.882085 
L 596.667716 64.929941 
L 597.3026 66.754684 
L 597.937485 65.695084 
L 598.572369 65.778386 
L 599.207254 69.928611 
L 599.842138 70.293931 
L 600.477023 68.854309 
L 601.111907 69.114285 
L 601.746792 65.751754 
L 602.381676 66.001127 
L 602.381676 66.001127 
" clip-path="url(#p57797919be)" style="fill: none; stroke: #1f77b4; stroke-width: 1.5; stroke-linecap: square"/>
   </g>
   <g id="line2d_18">
    <path d="M 349.062755 58.259997 
L 349.697639 54.887008 
L 350.332524 54.126174 
L 350.967408 53.664039 
L 351.602293 53.212177 
L 352.237177 52.575309 
L 352.872062 51.866873 
L 353.506946 52.606642 
L 354.141831 51.455292 
L 354.776715 51.271115 
L 355.4116 44.278125 
L 356.046484 48.683941 
L 356.681369 52.052679 
L 357.316253 45.054352 
L 357.951138 52.80743 
L 358.586022 72.22281 
L 359.220907 89.379836 
L 359.855792 97.313646 
L 360.490676 112.404406 
L 361.125561 157.756079 
L 361.760445 195.478125 
L 362.39533 186.045236 
L 363.030214 154.399122 
L 363.665099 113.033601 
L 364.299983 80.982776 
L 364.934868 74.031748 
L 365.569752 65.978523 
L 366.204637 61.320928 
L 366.839521 61.927278 
L 367.474406 55.895822 
L 368.10929 55.506852 
L 368.744175 54.952195 
L 369.379059 57.984042 
L 370.013944 55.588846 
L 370.648828 56.221805 
L 371.283713 57.411685 
L 371.918597 59.26317 
L 372.553482 57.517863 
L 373.188366 55.030115 
L 373.823251 60.042292 
" clip-path="url(#p57797919be)" style="fill: none; stroke: #ff0000; stroke-width: 1.5; stroke-linecap: square"/>
   </g>
   <g id="patch_3">
    <path d="M 69.745313 203.038125 
L 69.745313 36.718125 
" style="fill: none; stroke: #000000; stroke-width: 0.8; stroke-linejoin: miter; stroke-linecap: square"/>
   </g>
   <g id="patch_4">
    <path d="M 627.745312 203.038125 
L 627.745312 36.718125 
" style="fill: none; stroke: #000000; stroke-width: 0.8; stroke-linejoin: miter; stroke-linecap: square"/>
   </g>
   <g id="patch_5">
    <path d="M 69.745313 203.038125 
L 627.745312 203.038125 
" style="fill: none; stroke: #000000; stroke-width: 0.8; stroke-linejoin: miter; stroke-linecap: square"/>
   </g>
   <g id="patch_6">
    <path d="M 69.745313 36.718125 
L 627.745312 36.718125 
" style="fill: none; stroke: #000000; stroke-width: 0.8; stroke-linejoin: miter; stroke-linecap: square"/>
   </g>
   <g id="text_19">
    <!-- Channel:12, Time stamp : 1781877 -->
    <g transform="translate(242.689688 30.718125) scale(0.12 -0.12)">
     <defs>
      <path id="DejaVuSans-43" d="M 4122 4306 
L 4122 3641 
Q 3803 3938 3442 4084 
Q 3081 4231 2675 4231 
Q 1875 4231 1450 3742 
Q 1025 3253 1025 2328 
Q 1025 1406 1450 917 
Q 1875 428 2675 428 
Q 3081 428 3442 575 
Q 3803 722 4122 1019 
L 4122 359 
Q 3791 134 3420 21 
Q 3050 -91 2638 -91 
Q 1578 -91 968 557 
Q 359 1206 359 2328 
Q 359 3453 968 4101 
Q 1578 4750 2638 4750 
Q 3056 4750 3426 4639 
Q 3797 4528 4122 4306 
z
" transform="scale(0.015625)"/>
      <path id="DejaVuSans-68" d="M 3513 2113 
L 3513 0 
L 2938 0 
L 2938 2094 
Q 2938 2591 2744 2837 
Q 2550 3084 2163 3084 
Q 1697 3084 1428 2787 
Q 1159 2491 1159 1978 
L 1159 0 
L 581 0 
L 581 4863 
L 1159 4863 
L 1159 2956 
Q 1366 3272 1645 3428 
Q 1925 3584 2291 3584 
Q 2894 3584 3203 3211 
Q 3513 2838 3513 2113 
z
" transform="scale(0.015625)"/>
      <path id="DejaVuSans-6e" d="M 3513 2113 
L 3513 0 
L 2938 0 
L 2938 2094 
Q 2938 2591 2744 2837 
Q 2550 3084 2163 3084 
Q 1697 3084 1428 2787 
Q 1159 2491 1159 1978 
L 1159 0 
L 581 0 
L 581 3500 
L 1159 3500 
L 1159 2956 
Q 1366 3272 1645 3428 
Q 1925 3584 2291 3584 
Q 2894 3584 3203 3211 
Q 3513 2838 3513 2113 
z
" transform="scale(0.015625)"/>
      <path id="DejaVuSans-3a" d="M 750 794 
L 1409 794 
L 1409 0 
L 750 0 
L 750 794 
z
M 750 3309 
L 1409 3309 
L 1409 2516 
L 750 2516 
L 750 3309 
z
" transform="scale(0.015625)"/>
      <path id="DejaVuSans-2c" d="M 750 794 
L 1409 794 
L 1409 256 
L 897 -744 
L 494 -744 
L 750 256 
L 750 794 
z
" transform="scale(0.015625)"/>
      <path id="DejaVuSans-70" d="M 1159 525 
L 1159 -1331 
L 581 -1331 
L 581 3500 
L 1159 3500 
L 1159 2969 
Q 1341 3281 1617 3432 
Q 1894 3584 2278 3584 
Q 2916 3584 3314 3078 
Q 3713 2572 3713 1747 
Q 3713 922 3314 415 
Q 2916 -91 2278 -91 
Q 1894 -91 1617 61 
Q 1341 213 1159 525 
z
M 3116 1747 
Q 3116 2381 2855 2742 
Q 2594 3103 2138 3103 
Q 1681 3103 1420 2742 
Q 1159 2381 1159 1747 
Q 1159 1113 1420 752 
Q 1681 391 2138 391 
Q 2594 391 2855 752 
Q 3116 1113 3116 1747 
z
" transform="scale(0.015625)"/>
      <path id="DejaVuSans-37" d="M 525 4666 
L 3525 4666 
L 3525 4397 
L 1831 0 
L 1172 0 
L 2766 4134 
L 525 4134 
L 525 4666 
z
" transform="scale(0.015625)"/>
      <path id="DejaVuSans-38" d="M 2034 2216 
Q 1584 2216 1326 1975 
Q 1069 1734 1069 1313 
Q 1069 891 1326 650 
Q 1584 409 2034 409 
Q 2484 409 2743 651 
Q 3003 894 3003 1313 
Q 3003 1734 2745 1975 
Q 2488 2216 2034 2216 
z
M 1403 2484 
Q 997 2584 770 2862 
Q 544 3141 544 3541 
Q 544 4100 942 4425 
Q 1341 4750 2034 4750 
Q 2731 4750 3128 4425 
Q 3525 4100 3525 3541 
Q 3525 3141 3298 2862 
Q 3072 2584 2669 2484 
Q 3125 2378 3379 2068 
Q 3634 1759 3634 1313 
Q 3634 634 3220 271 
Q 2806 -91 2034 -91 
Q 1263 -91 848 271 
Q 434 634 434 1313 
Q 434 1759 690 2068 
Q 947 2378 1403 2484 
z
M 1172 3481 
Q 1172 3119 1398 2916 
Q 1625 2713 2034 2713 
Q 2441 2713 2670 2916 
Q 2900 3119 2900 3481 
Q 2900 3844 2670 4047 
Q 2441 4250 2034 4250 
Q 1625 4250 1398 4047 
Q 1172 3844 1172 3481 
z
" transform="scale(0.015625)"/>
     </defs>
     <use xlink:href="#DejaVuSans-43"/>
     <use xlink:href="#DejaVuSans-68" x="69.824219"/>
     <use xlink:href="#DejaVuSans-61" x="133.203125"/>
     <use xlink:href="#DejaVuSans-6e" x="194.482422"/>
     <use xlink:href="#DejaVuSans-6e" x="257.861328"/>
     <use xlink:href="#DejaVuSans-65" x="321.240234"/>
     <use xlink:href="#DejaVuSans-6c" x="382.763672"/>
     <use xlink:href="#DejaVuSans-3a" x="410.546875"/>
     <use xlink:href="#DejaVuSans-31" x="444.238281"/>
     <use xlink:href="#DejaVuSans-32" x="507.861328"/>
     <use xlink:href="#DejaVuSans-2c" x="571.484375"/>
     <use xlink:href="#DejaVuSans-20" x="603.271484"/>
     <use xlink:href="#DejaVuSans-54" x="635.058594"/>
     <use xlink:href="#DejaVuSans-69" x="693.017578"/>
     <use xlink:href="#DejaVuSans-6d" x="720.800781"/>
     <use xlink:href="#DejaVuSans-65" x="818.212891"/>
     <use xlink:href="#DejaVuSans-20" x="879.736328"/>
     <use xlink:href="#DejaVuSans-73" x="911.523438"/>
     <use xlink:href="#DejaVuSans-74" x="963.623047"/>
     <use xlink:href="#DejaVuSans-61" x="1002.832031"/>
     <use xlink:href="#DejaVuSans-6d" x="1064.111328"/>
     <use xlink:href="#DejaVuSans-70" x="1161.523438"/>
     <use xlink:href="#DejaVuSans-20" x="1225"/>
     <use xlink:href="#DejaVuSans-3a" x="1256.787109"/>
     <use xlink:href="#DejaVuSans-20" x="1290.478516"/>
     <use xlink:href="#DejaVuSans-31" x="1322.265625"/>
     <use xlink:href="#DejaVuSans-37" x="1385.888672"/>
     <use xlink:href="#DejaVuSans-38" x="1449.511719"/>
     <use xlink:href="#DejaVuSans-31" x="1513.134766"/>
     <use xlink:href="#DejaVuSans-38" x="1576.757812"/>
     <use xlink:href="#DejaVuSans-37" x="1640.380859"/>
     <use xlink:href="#DejaVuSans-37" x="1704.003906"/>
    </g>
   </g>
  </g>
 </g>
 <defs>
  <clipPath id="p57797919be">
   <rect x="69.745313" y="36.718125" width="558" height="166.32"/>
  </clipPath>
 </defs>
</svg>
