<?xml version="1.0" encoding="utf-8" standalone="no"?>
<!DOCTYPE svg PUBLIC "-//W3C//DTD SVG 1.1//EN"
  "http://www.w3.org/Graphics/SVG/1.1/DTD/svg11.dtd">
<svg xmlns:xlink="http://www.w3.org/1999/xlink" width="642.982813pt" height="254.994375pt" viewBox="0 0 642.982813 254.994375" xmlns="http://www.w3.org/2000/svg" version="1.1">
 <metadata>
  <rdf:RDF xmlns:dc="http://purl.org/dc/elements/1.1/" xmlns:cc="http://creativecommons.org/ns#" xmlns:rdf="http://www.w3.org/1999/02/22-rdf-syntax-ns#">
   <cc:Work>
    <dc:type rdf:resource="http://purl.org/dc/dcmitype/StillImage"/>
    <dc:date>2024-02-26T10:41:43.254635</dc:date>
    <dc:format>image/svg+xml</dc:format>
    <dc:creator>
     <cc:Agent>
      <dc:title>Matplotlib v3.7.1, https://matplotlib.org/</dc:title>
     </cc:Agent>
    </dc:creator>
   </cc:Work>
  </rdf:RDF>
 </metadata>
 <defs>
  <style type="text/css">*{stroke-linejoin: round; stroke-linecap: butt}</style>
 </defs>
 <g id="figure_1">
  <g id="patch_1">
   <path d="M 0 254.994375 
L 642.982813 254.994375 
L 642.982813 -0 
L 0 -0 
z
" style="fill: #ffffff"/>
  </g>
  <g id="axes_1">
   <g id="patch_2">
    <path d="M 63.382812 203.038125 
L 621.382812 203.038125 
L 621.382812 36.718125 
L 63.382812 36.718125 
z
" style="fill: #ffffff"/>
   </g>
   <g id="matplotlib.axis_1">
    <g id="xtick_1">
     <g id="line2d_1">
      <defs>
       <path id="m9ba1d12fa5" d="M 0 0 
L 0 3.5 
" style="stroke: #000000; stroke-width: 0.8"/>
      </defs>
      <g>
       <use xlink:href="#m9ba1d12fa5" x="88.746449" y="203.038125" style="stroke: #000000; stroke-width: 0.8"/>
      </g>
     </g>
     <g id="text_1">
      <!-- −20 -->
      <g transform="translate(78.194105 217.636562) scale(0.1 -0.1)">
       <defs>
        <path id="DejaVuSans-2212" d="M 678 2272 
L 4684 2272 
L 4684 1741 
L 678 1741 
L 678 2272 
z
" transform="scale(0.015625)"/>
        <path id="DejaVuSans-32" d="M 1228 531 
L 3431 531 
L 3431 0 
L 469 0 
L 469 531 
Q 828 903 1448 1529 
Q 2069 2156 2228 2338 
Q 2531 2678 2651 2914 
Q 2772 3150 2772 3378 
Q 2772 3750 2511 3984 
Q 2250 4219 1831 4219 
Q 1534 4219 1204 4116 
Q 875 4013 500 3803 
L 500 4441 
Q 881 4594 1212 4672 
Q 1544 4750 1819 4750 
Q 2544 4750 2975 4387 
Q 3406 4025 3406 3419 
Q 3406 3131 3298 2873 
Q 3191 2616 2906 2266 
Q 2828 2175 2409 1742 
Q 1991 1309 1228 531 
z
" transform="scale(0.015625)"/>
        <path id="DejaVuSans-30" d="M 2034 4250 
Q 1547 4250 1301 3770 
Q 1056 3291 1056 2328 
Q 1056 1369 1301 889 
Q 1547 409 2034 409 
Q 2525 409 2770 889 
Q 3016 1369 3016 2328 
Q 3016 3291 2770 3770 
Q 2525 4250 2034 4250 
z
M 2034 4750 
Q 2819 4750 3233 4129 
Q 3647 3509 3647 2328 
Q 3647 1150 3233 529 
Q 2819 -91 2034 -91 
Q 1250 -91 836 529 
Q 422 1150 422 2328 
Q 422 3509 836 4129 
Q 1250 4750 2034 4750 
z
" transform="scale(0.015625)"/>
       </defs>
       <use xlink:href="#DejaVuSans-2212"/>
       <use xlink:href="#DejaVuSans-32" x="83.789062"/>
       <use xlink:href="#DejaVuSans-30" x="147.412109"/>
      </g>
     </g>
    </g>
    <g id="xtick_2">
     <g id="line2d_2">
      <g>
       <use xlink:href="#m9ba1d12fa5" x="152.15554" y="203.038125" style="stroke: #000000; stroke-width: 0.8"/>
      </g>
     </g>
     <g id="text_2">
      <!-- −15 -->
      <g transform="translate(141.603196 217.636562) scale(0.1 -0.1)">
       <defs>
        <path id="DejaVuSans-31" d="M 794 531 
L 1825 531 
L 1825 4091 
L 703 3866 
L 703 4441 
L 1819 4666 
L 2450 4666 
L 2450 531 
L 3481 531 
L 3481 0 
L 794 0 
L 794 531 
z
" transform="scale(0.015625)"/>
        <path id="DejaVuSans-35" d="M 691 4666 
L 3169 4666 
L 3169 4134 
L 1269 4134 
L 1269 2991 
Q 1406 3038 1543 3061 
Q 1681 3084 1819 3084 
Q 2600 3084 3056 2656 
Q 3513 2228 3513 1497 
Q 3513 744 3044 326 
Q 2575 -91 1722 -91 
Q 1428 -91 1123 -41 
Q 819 9 494 109 
L 494 744 
Q 775 591 1075 516 
Q 1375 441 1709 441 
Q 2250 441 2565 725 
Q 2881 1009 2881 1497 
Q 2881 1984 2565 2268 
Q 2250 2553 1709 2553 
Q 1456 2553 1204 2497 
Q 953 2441 691 2322 
L 691 4666 
z
" transform="scale(0.015625)"/>
       </defs>
       <use xlink:href="#DejaVuSans-2212"/>
       <use xlink:href="#DejaVuSans-31" x="83.789062"/>
       <use xlink:href="#DejaVuSans-35" x="147.412109"/>
      </g>
     </g>
    </g>
    <g id="xtick_3">
     <g id="line2d_3">
      <g>
       <use xlink:href="#m9ba1d12fa5" x="215.564631" y="203.038125" style="stroke: #000000; stroke-width: 0.8"/>
      </g>
     </g>
     <g id="text_3">
      <!-- −10 -->
      <g transform="translate(205.012287 217.636562) scale(0.1 -0.1)">
       <use xlink:href="#DejaVuSans-2212"/>
       <use xlink:href="#DejaVuSans-31" x="83.789062"/>
       <use xlink:href="#DejaVuSans-30" x="147.412109"/>
      </g>
     </g>
    </g>
    <g id="xtick_4">
     <g id="line2d_4">
      <g>
       <use xlink:href="#m9ba1d12fa5" x="278.973722" y="203.038125" style="stroke: #000000; stroke-width: 0.8"/>
      </g>
     </g>
     <g id="text_4">
      <!-- −5 -->
      <g transform="translate(271.602628 217.636562) scale(0.1 -0.1)">
       <use xlink:href="#DejaVuSans-2212"/>
       <use xlink:href="#DejaVuSans-35" x="83.789062"/>
      </g>
     </g>
    </g>
    <g id="xtick_5">
     <g id="line2d_5">
      <g>
       <use xlink:href="#m9ba1d12fa5" x="342.382812" y="203.038125" style="stroke: #000000; stroke-width: 0.8"/>
      </g>
     </g>
     <g id="text_5">
      <!-- 0 -->
      <g transform="translate(339.201563 217.636562) scale(0.1 -0.1)">
       <use xlink:href="#DejaVuSans-30"/>
      </g>
     </g>
    </g>
    <g id="xtick_6">
     <g id="line2d_6">
      <g>
       <use xlink:href="#m9ba1d12fa5" x="405.791903" y="203.038125" style="stroke: #000000; stroke-width: 0.8"/>
      </g>
     </g>
     <g id="text_6">
      <!-- 5 -->
      <g transform="translate(402.610653 217.636562) scale(0.1 -0.1)">
       <use xlink:href="#DejaVuSans-35"/>
      </g>
     </g>
    </g>
    <g id="xtick_7">
     <g id="line2d_7">
      <g>
       <use xlink:href="#m9ba1d12fa5" x="469.200994" y="203.038125" style="stroke: #000000; stroke-width: 0.8"/>
      </g>
     </g>
     <g id="text_7">
      <!-- 10 -->
      <g transform="translate(462.838494 217.636562) scale(0.1 -0.1)">
       <use xlink:href="#DejaVuSans-31"/>
       <use xlink:href="#DejaVuSans-30" x="63.623047"/>
      </g>
     </g>
    </g>
    <g id="xtick_8">
     <g id="line2d_8">
      <g>
       <use xlink:href="#m9ba1d12fa5" x="532.610085" y="203.038125" style="stroke: #000000; stroke-width: 0.8"/>
      </g>
     </g>
     <g id="text_8">
      <!-- 15 -->
      <g transform="translate(526.247585 217.636562) scale(0.1 -0.1)">
       <use xlink:href="#DejaVuSans-31"/>
       <use xlink:href="#DejaVuSans-35" x="63.623047"/>
      </g>
     </g>
    </g>
    <g id="xtick_9">
     <g id="line2d_9">
      <g>
       <use xlink:href="#m9ba1d12fa5" x="596.019176" y="203.038125" style="stroke: #000000; stroke-width: 0.8"/>
      </g>
     </g>
     <g id="text_9">
      <!-- 20 -->
      <g transform="translate(589.656676 217.636562) scale(0.1 -0.1)">
       <use xlink:href="#DejaVuSans-32"/>
       <use xlink:href="#DejaVuSans-30" x="63.623047"/>
      </g>
     </g>
    </g>
    <g id="text_10">
     <!-- Time [ms] -->
     <g transform="translate(317.183594 231.314687) scale(0.1 -0.1)">
      <defs>
       <path id="DejaVuSans-54" d="M -19 4666 
L 3928 4666 
L 3928 4134 
L 2272 4134 
L 2272 0 
L 1638 0 
L 1638 4134 
L -19 4134 
L -19 4666 
z
" transform="scale(0.015625)"/>
       <path id="DejaVuSans-69" d="M 603 3500 
L 1178 3500 
L 1178 0 
L 603 0 
L 603 3500 
z
M 603 4863 
L 1178 4863 
L 1178 4134 
L 603 4134 
L 603 4863 
z
" transform="scale(0.015625)"/>
       <path id="DejaVuSans-6d" d="M 3328 2828 
Q 3544 3216 3844 3400 
Q 4144 3584 4550 3584 
Q 5097 3584 5394 3201 
Q 5691 2819 5691 2113 
L 5691 0 
L 5113 0 
L 5113 2094 
Q 5113 2597 4934 2840 
Q 4756 3084 4391 3084 
Q 3944 3084 3684 2787 
Q 3425 2491 3425 1978 
L 3425 0 
L 2847 0 
L 2847 2094 
Q 2847 2600 2669 2842 
Q 2491 3084 2119 3084 
Q 1678 3084 1418 2786 
Q 1159 2488 1159 1978 
L 1159 0 
L 581 0 
L 581 3500 
L 1159 3500 
L 1159 2956 
Q 1356 3278 1631 3431 
Q 1906 3584 2284 3584 
Q 2666 3584 2933 3390 
Q 3200 3197 3328 2828 
z
" transform="scale(0.015625)"/>
       <path id="DejaVuSans-65" d="M 3597 1894 
L 3597 1613 
L 953 1613 
Q 991 1019 1311 708 
Q 1631 397 2203 397 
Q 2534 397 2845 478 
Q 3156 559 3463 722 
L 3463 178 
Q 3153 47 2828 -22 
Q 2503 -91 2169 -91 
Q 1331 -91 842 396 
Q 353 884 353 1716 
Q 353 2575 817 3079 
Q 1281 3584 2069 3584 
Q 2775 3584 3186 3129 
Q 3597 2675 3597 1894 
z
M 3022 2063 
Q 3016 2534 2758 2815 
Q 2500 3097 2075 3097 
Q 1594 3097 1305 2825 
Q 1016 2553 972 2059 
L 3022 2063 
z
" transform="scale(0.015625)"/>
       <path id="DejaVuSans-20" transform="scale(0.015625)"/>
       <path id="DejaVuSans-5b" d="M 550 4863 
L 1875 4863 
L 1875 4416 
L 1125 4416 
L 1125 -397 
L 1875 -397 
L 1875 -844 
L 550 -844 
L 550 4863 
z
" transform="scale(0.015625)"/>
       <path id="DejaVuSans-73" d="M 2834 3397 
L 2834 2853 
Q 2591 2978 2328 3040 
Q 2066 3103 1784 3103 
Q 1356 3103 1142 2972 
Q 928 2841 928 2578 
Q 928 2378 1081 2264 
Q 1234 2150 1697 2047 
L 1894 2003 
Q 2506 1872 2764 1633 
Q 3022 1394 3022 966 
Q 3022 478 2636 193 
Q 2250 -91 1575 -91 
Q 1294 -91 989 -36 
Q 684 19 347 128 
L 347 722 
Q 666 556 975 473 
Q 1284 391 1588 391 
Q 1994 391 2212 530 
Q 2431 669 2431 922 
Q 2431 1156 2273 1281 
Q 2116 1406 1581 1522 
L 1381 1569 
Q 847 1681 609 1914 
Q 372 2147 372 2553 
Q 372 3047 722 3315 
Q 1072 3584 1716 3584 
Q 2034 3584 2315 3537 
Q 2597 3491 2834 3397 
z
" transform="scale(0.015625)"/>
       <path id="DejaVuSans-5d" d="M 1947 4863 
L 1947 -844 
L 622 -844 
L 622 -397 
L 1369 -397 
L 1369 4416 
L 622 4416 
L 622 4863 
L 1947 4863 
z
" transform="scale(0.015625)"/>
      </defs>
      <use xlink:href="#DejaVuSans-54"/>
      <use xlink:href="#DejaVuSans-69" x="57.958984"/>
      <use xlink:href="#DejaVuSans-6d" x="85.742188"/>
      <use xlink:href="#DejaVuSans-65" x="183.154297"/>
      <use xlink:href="#DejaVuSans-20" x="244.677734"/>
      <use xlink:href="#DejaVuSans-5b" x="276.464844"/>
      <use xlink:href="#DejaVuSans-6d" x="315.478516"/>
      <use xlink:href="#DejaVuSans-73" x="412.890625"/>
      <use xlink:href="#DejaVuSans-5d" x="464.990234"/>
     </g>
    </g>
   </g>
   <g id="matplotlib.axis_2">
    <g id="ytick_1">
     <g id="line2d_10">
      <defs>
       <path id="m660d3dc33a" d="M 0 0 
L -3.5 0 
" style="stroke: #000000; stroke-width: 0.8"/>
      </defs>
      <g>
       <use xlink:href="#m660d3dc33a" x="63.382812" y="186.15822" style="stroke: #000000; stroke-width: 0.8"/>
      </g>
     </g>
     <g id="text_11">
      <!-- −40 -->
      <g transform="translate(35.278125 189.957438) scale(0.1 -0.1)">
       <defs>
        <path id="DejaVuSans-34" d="M 2419 4116 
L 825 1625 
L 2419 1625 
L 2419 4116 
z
M 2253 4666 
L 3047 4666 
L 3047 1625 
L 3713 1625 
L 3713 1100 
L 3047 1100 
L 3047 0 
L 2419 0 
L 2419 1100 
L 313 1100 
L 313 1709 
L 2253 4666 
z
" transform="scale(0.015625)"/>
       </defs>
       <use xlink:href="#DejaVuSans-2212"/>
       <use xlink:href="#DejaVuSans-34" x="83.789062"/>
       <use xlink:href="#DejaVuSans-30" x="147.412109"/>
      </g>
     </g>
    </g>
    <g id="ytick_2">
     <g id="line2d_11">
      <g>
       <use xlink:href="#m660d3dc33a" x="63.382812" y="159.99506" style="stroke: #000000; stroke-width: 0.8"/>
      </g>
     </g>
     <g id="text_12">
      <!-- −30 -->
      <g transform="translate(35.278125 163.794278) scale(0.1 -0.1)">
       <defs>
        <path id="DejaVuSans-33" d="M 2597 2516 
Q 3050 2419 3304 2112 
Q 3559 1806 3559 1356 
Q 3559 666 3084 287 
Q 2609 -91 1734 -91 
Q 1441 -91 1130 -33 
Q 819 25 488 141 
L 488 750 
Q 750 597 1062 519 
Q 1375 441 1716 441 
Q 2309 441 2620 675 
Q 2931 909 2931 1356 
Q 2931 1769 2642 2001 
Q 2353 2234 1838 2234 
L 1294 2234 
L 1294 2753 
L 1863 2753 
Q 2328 2753 2575 2939 
Q 2822 3125 2822 3475 
Q 2822 3834 2567 4026 
Q 2313 4219 1838 4219 
Q 1578 4219 1281 4162 
Q 984 4106 628 3988 
L 628 4550 
Q 988 4650 1302 4700 
Q 1616 4750 1894 4750 
Q 2613 4750 3031 4423 
Q 3450 4097 3450 3541 
Q 3450 3153 3228 2886 
Q 3006 2619 2597 2516 
z
" transform="scale(0.015625)"/>
       </defs>
       <use xlink:href="#DejaVuSans-2212"/>
       <use xlink:href="#DejaVuSans-33" x="83.789062"/>
       <use xlink:href="#DejaVuSans-30" x="147.412109"/>
      </g>
     </g>
    </g>
    <g id="ytick_3">
     <g id="line2d_12">
      <g>
       <use xlink:href="#m660d3dc33a" x="63.382812" y="133.831899" style="stroke: #000000; stroke-width: 0.8"/>
      </g>
     </g>
     <g id="text_13">
      <!-- −20 -->
      <g transform="translate(35.278125 137.631118) scale(0.1 -0.1)">
       <use xlink:href="#DejaVuSans-2212"/>
       <use xlink:href="#DejaVuSans-32" x="83.789062"/>
       <use xlink:href="#DejaVuSans-30" x="147.412109"/>
      </g>
     </g>
    </g>
    <g id="ytick_4">
     <g id="line2d_13">
      <g>
       <use xlink:href="#m660d3dc33a" x="63.382812" y="107.668739" style="stroke: #000000; stroke-width: 0.8"/>
      </g>
     </g>
     <g id="text_14">
      <!-- −10 -->
      <g transform="translate(35.278125 111.467958) scale(0.1 -0.1)">
       <use xlink:href="#DejaVuSans-2212"/>
       <use xlink:href="#DejaVuSans-31" x="83.789062"/>
       <use xlink:href="#DejaVuSans-30" x="147.412109"/>
      </g>
     </g>
    </g>
    <g id="ytick_5">
     <g id="line2d_14">
      <g>
       <use xlink:href="#m660d3dc33a" x="63.382812" y="81.505579" style="stroke: #000000; stroke-width: 0.8"/>
      </g>
     </g>
     <g id="text_15">
      <!-- 0 -->
      <g transform="translate(50.020313 85.304798) scale(0.1 -0.1)">
       <use xlink:href="#DejaVuSans-30"/>
      </g>
     </g>
    </g>
    <g id="ytick_6">
     <g id="line2d_15">
      <g>
       <use xlink:href="#m660d3dc33a" x="63.382812" y="55.342419" style="stroke: #000000; stroke-width: 0.8"/>
      </g>
     </g>
     <g id="text_16">
      <!-- 10 -->
      <g transform="translate(43.657812 59.141638) scale(0.1 -0.1)">
       <use xlink:href="#DejaVuSans-31"/>
       <use xlink:href="#DejaVuSans-30" x="63.623047"/>
      </g>
     </g>
    </g>
    <g id="text_17">
     <!-- Voltage [uV] -->
     <g transform="translate(29.198438 150.714063) rotate(-90) scale(0.1 -0.1)">
      <defs>
       <path id="DejaVuSans-56" d="M 1831 0 
L 50 4666 
L 709 4666 
L 2188 738 
L 3669 4666 
L 4325 4666 
L 2547 0 
L 1831 0 
z
" transform="scale(0.015625)"/>
       <path id="DejaVuSans-6f" d="M 1959 3097 
Q 1497 3097 1228 2736 
Q 959 2375 959 1747 
Q 959 1119 1226 758 
Q 1494 397 1959 397 
Q 2419 397 2687 759 
Q 2956 1122 2956 1747 
Q 2956 2369 2687 2733 
Q 2419 3097 1959 3097 
z
M 1959 3584 
Q 2709 3584 3137 3096 
Q 3566 2609 3566 1747 
Q 3566 888 3137 398 
Q 2709 -91 1959 -91 
Q 1206 -91 779 398 
Q 353 888 353 1747 
Q 353 2609 779 3096 
Q 1206 3584 1959 3584 
z
" transform="scale(0.015625)"/>
       <path id="DejaVuSans-6c" d="M 603 4863 
L 1178 4863 
L 1178 0 
L 603 0 
L 603 4863 
z
" transform="scale(0.015625)"/>
       <path id="DejaVuSans-74" d="M 1172 4494 
L 1172 3500 
L 2356 3500 
L 2356 3053 
L 1172 3053 
L 1172 1153 
Q 1172 725 1289 603 
Q 1406 481 1766 481 
L 2356 481 
L 2356 0 
L 1766 0 
Q 1100 0 847 248 
Q 594 497 594 1153 
L 594 3053 
L 172 3053 
L 172 3500 
L 594 3500 
L 594 4494 
L 1172 4494 
z
" transform="scale(0.015625)"/>
       <path id="DejaVuSans-61" d="M 2194 1759 
Q 1497 1759 1228 1600 
Q 959 1441 959 1056 
Q 959 750 1161 570 
Q 1363 391 1709 391 
Q 2188 391 2477 730 
Q 2766 1069 2766 1631 
L 2766 1759 
L 2194 1759 
z
M 3341 1997 
L 3341 0 
L 2766 0 
L 2766 531 
Q 2569 213 2275 61 
Q 1981 -91 1556 -91 
Q 1019 -91 701 211 
Q 384 513 384 1019 
Q 384 1609 779 1909 
Q 1175 2209 1959 2209 
L 2766 2209 
L 2766 2266 
Q 2766 2663 2505 2880 
Q 2244 3097 1772 3097 
Q 1472 3097 1187 3025 
Q 903 2953 641 2809 
L 641 3341 
Q 956 3463 1253 3523 
Q 1550 3584 1831 3584 
Q 2591 3584 2966 3190 
Q 3341 2797 3341 1997 
z
" transform="scale(0.015625)"/>
       <path id="DejaVuSans-67" d="M 2906 1791 
Q 2906 2416 2648 2759 
Q 2391 3103 1925 3103 
Q 1463 3103 1205 2759 
Q 947 2416 947 1791 
Q 947 1169 1205 825 
Q 1463 481 1925 481 
Q 2391 481 2648 825 
Q 2906 1169 2906 1791 
z
M 3481 434 
Q 3481 -459 3084 -895 
Q 2688 -1331 1869 -1331 
Q 1566 -1331 1297 -1286 
Q 1028 -1241 775 -1147 
L 775 -588 
Q 1028 -725 1275 -790 
Q 1522 -856 1778 -856 
Q 2344 -856 2625 -561 
Q 2906 -266 2906 331 
L 2906 616 
Q 2728 306 2450 153 
Q 2172 0 1784 0 
Q 1141 0 747 490 
Q 353 981 353 1791 
Q 353 2603 747 3093 
Q 1141 3584 1784 3584 
Q 2172 3584 2450 3431 
Q 2728 3278 2906 2969 
L 2906 3500 
L 3481 3500 
L 3481 434 
z
" transform="scale(0.015625)"/>
       <path id="DejaVuSans-75" d="M 544 1381 
L 544 3500 
L 1119 3500 
L 1119 1403 
Q 1119 906 1312 657 
Q 1506 409 1894 409 
Q 2359 409 2629 706 
Q 2900 1003 2900 1516 
L 2900 3500 
L 3475 3500 
L 3475 0 
L 2900 0 
L 2900 538 
Q 2691 219 2414 64 
Q 2138 -91 1772 -91 
Q 1169 -91 856 284 
Q 544 659 544 1381 
z
M 1991 3584 
L 1991 3584 
z
" transform="scale(0.015625)"/>
      </defs>
      <use xlink:href="#DejaVuSans-56"/>
      <use xlink:href="#DejaVuSans-6f" x="60.658203"/>
      <use xlink:href="#DejaVuSans-6c" x="121.839844"/>
      <use xlink:href="#DejaVuSans-74" x="149.623047"/>
      <use xlink:href="#DejaVuSans-61" x="188.832031"/>
      <use xlink:href="#DejaVuSans-67" x="250.111328"/>
      <use xlink:href="#DejaVuSans-65" x="313.587891"/>
      <use xlink:href="#DejaVuSans-20" x="375.111328"/>
      <use xlink:href="#DejaVuSans-5b" x="406.898438"/>
      <use xlink:href="#DejaVuSans-75" x="445.912109"/>
      <use xlink:href="#DejaVuSans-56" x="509.291016"/>
      <use xlink:href="#DejaVuSans-5d" x="577.699219"/>
     </g>
    </g>
   </g>
   <g id="line2d_16">
    <path d="M 88.746449 92.888488 
L 89.381333 92.158579 
L 90.016218 78.109263 
L 90.651102 91.344662 
L 91.285987 71.986457 
L 91.920871 71.643285 
L 92.555756 73.005116 
L 93.19064 75.886261 
L 93.825525 77.613581 
L 94.460409 76.498377 
L 95.095294 80.729919 
L 95.730179 76.518083 
L 96.365063 89.511946 
L 96.999948 90.725555 
L 97.634832 79.987612 
L 98.269717 76.261466 
L 98.904601 98.578591 
L 100.17437 67.209963 
L 100.809255 72.075845 
L 101.444139 88.39997 
L 102.079024 70.673881 
L 102.713908 74.871832 
L 103.348793 101.412314 
L 103.983677 73.014819 
L 104.618562 85.249929 
L 105.253446 76.674772 
L 105.888331 62.521243 
L 106.523215 78.176132 
L 107.1581 68.45079 
L 107.792984 73.933283 
L 108.427869 67.851402 
L 109.062753 77.203945 
L 109.697638 91.342341 
L 110.332522 67.073002 
L 110.967407 97.596683 
L 111.602291 95.084408 
L 112.237176 83.537082 
L 112.87206 75.557889 
L 113.506945 79.235005 
L 114.141829 71.796836 
L 114.776714 69.348721 
L 115.411598 87.926507 
L 116.046483 71.189395 
L 116.681368 89.802668 
L 117.316252 79.119394 
L 117.951137 87.143796 
L 118.586021 103.840842 
L 119.220906 89.143128 
L 119.85579 86.174285 
L 120.490675 105.491215 
L 121.125559 85.822595 
L 121.760444 87.708343 
L 122.395328 89.028843 
L 123.030213 91.896705 
L 123.665097 102.444107 
L 124.299982 64.471223 
L 124.934866 86.285558 
L 125.569751 80.422505 
L 126.204635 86.466914 
L 126.83952 85.679164 
L 127.474404 76.951878 
L 128.109289 83.831541 
L 128.744173 77.101527 
L 129.379058 78.984453 
L 130.013942 76.174957 
L 130.648827 96.667848 
L 131.283711 92.006163 
L 131.918596 84.857188 
L 132.55348 70.501349 
L 133.188365 76.720164 
L 133.823249 92.262389 
L 134.458134 64.60358 
L 135.093018 70.046727 
L 135.727903 86.256944 
L 136.362787 67.118631 
L 136.997672 63.616309 
L 137.632556 85.013752 
L 138.267441 70.138851 
L 138.902326 61.499367 
L 139.53721 96.628665 
L 140.172095 86.892475 
L 140.806979 66.541002 
L 142.076748 81.379173 
L 142.711633 71.746956 
L 143.346517 66.119852 
L 143.981402 70.550705 
L 144.616286 94.711268 
L 145.251171 96.946266 
L 145.886055 82.946731 
L 146.52094 96.884039 
L 147.155824 89.985911 
L 147.790709 74.468258 
L 148.425593 63.267925 
L 149.060478 85.321357 
L 149.695362 79.829185 
L 150.330247 85.05926 
L 151.600016 66.532628 
L 152.2349 74.98274 
L 152.869785 70.546523 
L 153.504669 100.030772 
L 154.139554 84.341548 
L 154.774438 88.814202 
L 155.409323 72.209481 
L 156.044207 75.510873 
L 156.679092 107.119172 
L 157.313976 105.51594 
L 157.948861 106.946556 
L 158.583745 95.659143 
L 159.21863 88.53792 
L 159.853515 75.526826 
L 160.488399 84.545527 
L 161.123284 82.367788 
L 161.758168 84.754898 
L 162.393053 79.974998 
L 163.027937 68.227047 
L 163.662822 65.311747 
L 164.297706 56.870441 
L 164.932591 65.957507 
L 165.567475 72.58914 
L 166.20236 67.149087 
L 166.837244 85.756775 
L 167.472129 88.816292 
L 168.107013 99.39815 
L 168.741898 96.297977 
L 169.376782 77.766904 
L 170.011667 90.129558 
L 170.646551 92.773006 
L 171.281436 109.098197 
L 171.91632 87.263887 
L 172.551205 98.611752 
L 173.186089 84.711303 
L 173.820974 67.324846 
L 174.455858 85.641518 
L 175.090743 85.613941 
L 175.725627 99.259325 
L 176.360512 72.329556 
L 176.995396 73.035728 
L 177.630281 98.870351 
L 178.90005 68.280423 
L 179.534934 80.701733 
L 180.804704 48.282687 
L 181.439588 66.250101 
L 182.074473 70.436654 
L 182.709357 68.262283 
L 183.344242 75.736236 
L 183.979126 73.818506 
L 184.614011 81.522612 
L 185.248895 76.798349 
L 185.88378 80.135051 
L 186.518664 95.063511 
L 187.153549 87.379583 
L 187.788433 92.397728 
L 188.423318 86.921614 
L 189.058202 76.459366 
L 189.693087 87.427602 
L 190.327971 87.046682 
L 190.962856 81.750268 
L 191.59774 80.797085 
L 192.232625 89.78376 
L 192.867509 88.832676 
L 193.502394 81.427381 
L 194.137278 87.17243 
L 194.772163 66.889685 
L 195.407047 66.62511 
L 196.676816 91.969652 
L 197.311701 85.645456 
L 197.946585 72.37511 
L 198.58147 76.631898 
L 199.216354 82.30812 
L 199.851239 91.607748 
L 200.486123 96.75196 
L 201.755892 61.614303 
L 202.390777 76.249858 
L 203.025662 72.293062 
L 203.660546 86.746432 
L 204.295431 61.956859 
L 204.930315 66.162044 
L 205.5652 115.815163 
L 206.200084 86.424228 
L 206.834969 71.640427 
L 207.469853 90.386558 
L 208.104738 97.288232 
L 208.739622 80.089225 
L 209.374507 92.762731 
L 210.009391 86.148124 
L 210.644276 91.220535 
L 211.27916 100.918754 
L 211.914045 78.370038 
L 212.548929 85.123618 
L 213.183814 78.697988 
L 213.818698 85.69845 
L 214.453583 74.355375 
L 215.088467 75.082211 
L 215.723352 88.828061 
L 216.358236 75.192533 
L 216.993121 86.428441 
L 217.628005 92.125888 
L 218.26289 70.757484 
L 218.897774 91.161114 
L 219.532659 80.621873 
L 220.167543 75.328847 
L 220.802428 84.934496 
L 222.072197 71.480369 
L 222.707081 50.487406 
L 223.341966 84.152315 
L 223.976851 68.497766 
L 224.611735 67.340192 
L 225.24662 68.549541 
L 225.881504 60.820378 
L 226.516389 77.207023 
L 227.151273 74.76695 
L 227.786158 58.801817 
L 228.421042 65.780466 
L 229.055927 65.929301 
L 229.690811 76.173867 
L 230.325696 97.611611 
L 230.96058 67.659692 
L 231.595465 87.55621 
L 232.230349 81.553621 
L 232.865234 70.979473 
L 233.500118 91.84507 
L 234.135003 99.405606 
L 234.769887 92.946155 
L 235.404772 111.593813 
L 236.039656 104.279059 
L 236.674541 88.12714 
L 237.309425 95.784889 
L 238.579194 68.016379 
L 239.848963 117.945499 
L 240.483848 117.708215 
L 241.118732 105.299761 
L 241.753617 80.863753 
L 242.388501 111.72104 
L 243.023386 102.609361 
L 243.65827 83.635332 
L 244.293155 78.363166 
L 244.928039 74.590059 
L 245.562924 73.956151 
L 246.197809 85.062023 
L 246.832693 79.209008 
L 247.467578 65.524887 
L 248.102462 72.719173 
L 248.737347 63.388291 
L 249.372231 84.096688 
L 250.007116 67.398904 
L 250.642 72.536199 
L 251.276885 88.25248 
L 251.911769 94.666237 
L 252.546654 84.105742 
L 253.181538 70.890132 
L 253.816423 87.0963 
L 254.451307 87.419679 
L 255.086192 65.077581 
L 255.721076 49.867588 
L 256.355961 65.995405 
L 256.990845 49.562284 
L 257.62573 72.482906 
L 258.260614 65.094068 
L 258.895499 77.366912 
L 259.530383 93.940089 
L 260.165268 65.816409 
L 260.800152 89.70452 
L 261.435037 90.348232 
L 262.069921 93.736244 
L 262.704806 81.557159 
L 263.33969 89.722 
L 263.974575 102.188327 
L 265.244344 66.534807 
L 265.879228 76.43013 
L 266.514113 90.928298 
L 267.148998 63.054664 
L 267.783882 75.896708 
L 268.418767 94.6662 
L 269.053651 94.4104 
L 269.688536 93.705877 
L 270.32342 74.039978 
L 270.958305 78.016347 
L 271.593189 77.048342 
L 272.228074 67.986836 
L 272.862958 72.340254 
L 273.497843 72.778568 
L 274.132727 74.230512 
L 274.767612 86.24478 
L 275.402496 90.403943 
L 276.037381 86.421673 
L 276.672265 85.181219 
L 277.30715 81.955903 
L 277.942034 64.207745 
L 278.576919 63.128388 
L 279.211803 85.676049 
L 279.846688 89.096975 
L 280.481572 87.882417 
L 281.116457 99.131038 
L 281.751341 82.583852 
L 282.386226 70.769254 
L 283.02111 85.10152 
L 283.655995 93.287542 
L 284.290879 84.72767 
L 284.925764 62.103074 
L 285.560648 84.516758 
L 286.195533 88.452591 
L 286.830417 88.018985 
L 287.465302 104.00192 
L 288.100186 92.649036 
L 288.735071 87.364137 
L 289.369956 109.586235 
L 290.00484 97.768415 
L 290.639725 96.943582 
L 291.274609 81.18824 
L 291.909494 75.582545 
L 292.544378 84.10271 
L 293.179263 66.367397 
L 293.814147 65.231682 
L 294.449032 59.052945 
L 295.083916 78.682714 
L 295.718801 64.330541 
L 296.353685 65.281268 
L 296.98857 73.017256 
L 297.623454 65.825329 
L 298.258339 68.809828 
L 298.893223 85.379326 
L 299.528108 71.646982 
L 300.162992 106.032256 
L 301.432761 68.53652 
L 302.067646 100.728854 
L 302.70253 94.247206 
L 303.337415 100.055482 
L 303.972299 60.664818 
L 304.607184 83.175157 
L 305.242068 74.89477 
L 306.511837 103.768797 
L 307.146722 75.303661 
L 307.781606 71.284668 
L 308.416491 98.553399 
L 309.051375 101.443811 
L 309.68626 92.769872 
L 310.321145 92.240959 
L 310.956029 66.586083 
L 311.590914 85.537435 
L 312.225798 76.600062 
L 312.860683 91.551629 
L 313.495567 82.998727 
L 314.130452 79.673434 
L 314.765336 89.857255 
L 315.400221 68.770069 
L 316.66999 81.78667 
L 317.304874 76.898139 
L 317.939759 70.755121 
L 318.574643 83.100043 
L 319.209528 90.768781 
L 319.844412 89.246749 
L 320.479297 89.788843 
L 321.114181 91.755812 
L 321.749066 75.474115 
L 322.38395 77.856513 
L 323.018835 88.141136 
L 323.653719 76.608967 
L 324.288604 69.646287 
L 324.923488 88.501033 
L 325.558373 64.905492 
L 326.193257 66.064025 
L 326.828142 84.652424 
L 327.463026 67.441663 
L 328.097911 92.168395 
L 328.732795 65.588659 
L 329.36768 68.579509 
L 330.002564 83.473356 
L 330.637449 63.363146 
L 331.272333 61.93906 
L 331.907218 85.683499 
L 332.542103 90.810716 
L 333.176987 76.337413 
L 333.811872 91.556369 
L 334.446756 92.445155 
L 335.081641 96.862049 
L 335.716525 75.321541 
L 336.35141 79.71822 
L 336.986294 90.772435 
L 337.621179 59.538282 
L 338.256063 72.471014 
L 338.890948 76.142407 
L 339.525832 68.372513 
L 340.160717 69.356311 
L 340.795601 87.149639 
L 341.430486 76.959677 
L 342.06537 59.422061 
L 342.700255 81.117023 
L 343.335139 62.751298 
L 343.970024 71.635068 
L 344.604908 68.594753 
L 345.239793 57.694002 
L 345.874677 72.402243 
L 346.509562 75.501799 
L 347.144446 69.633634 
L 347.779331 69.936018 
L 348.414215 72.080131 
L 349.0491 69.029185 
L 349.683984 48.679569 
L 350.318869 79.894423 
L 350.953753 89.790873 
L 351.588638 64.750841 
L 352.223522 83.222387 
L 352.858407 71.026411 
L 353.493292 107.063337 
L 354.128176 135.960579 
L 354.763061 149.588342 
L 355.397945 176.406791 
L 356.03283 195.478125 
L 356.667714 172.494744 
L 357.937483 99.261473 
L 358.572368 87.521116 
L 359.207252 92.965903 
L 359.842137 102.439981 
L 361.111906 59.81445 
L 361.74679 66.045113 
L 362.381675 44.278125 
L 363.016559 66.904007 
L 363.651444 61.396596 
L 364.286328 61.848206 
L 364.921213 78.994887 
L 365.556097 72.808607 
L 366.190982 77.152819 
L 366.825866 62.526041 
L 367.460751 57.383991 
L 368.095635 69.753969 
L 368.73052 78.856254 
L 369.365404 75.592884 
L 370.000289 62.48167 
L 370.635173 66.753394 
L 371.270058 63.353556 
L 371.904942 62.086486 
L 372.539827 90.651553 
L 373.174711 86.055844 
L 373.809596 83.661468 
L 374.44448 74.355844 
L 375.079365 69.421072 
L 375.71425 78.493504 
L 376.349134 61.70662 
L 376.984019 78.038406 
L 377.618903 82.463941 
L 378.253788 80.105529 
L 378.888672 76.09908 
L 379.523557 58.64427 
L 380.158441 58.449175 
L 380.793326 69.232337 
L 381.42821 77.495113 
L 382.063095 65.413294 
L 383.332864 99.199476 
L 383.967748 70.672488 
L 384.602633 81.796628 
L 385.237517 99.947473 
L 385.872402 88.691853 
L 386.507286 87.438069 
L 387.142171 99.462076 
L 387.777055 83.668787 
L 388.41194 76.854585 
L 389.046824 89.159743 
L 389.681709 75.968688 
L 390.316593 92.686916 
L 390.951478 97.326553 
L 391.586362 85.054193 
L 392.221247 82.793252 
L 392.856131 84.602226 
L 393.491016 72.201338 
L 394.1259 80.580108 
L 394.760785 86.516879 
L 395.395669 100.492038 
L 396.030554 92.63351 
L 396.665439 91.229395 
L 397.300323 82.444905 
L 397.935208 75.703521 
L 398.570092 96.815047 
L 399.204977 65.103748 
L 399.839861 98.533585 
L 400.474746 86.966016 
L 401.10963 63.632102 
L 401.744515 65.283139 
L 402.379399 69.136503 
L 403.014284 74.570754 
L 403.649168 72.165354 
L 404.284053 58.749361 
L 404.918937 59.42117 
L 405.553822 95.410662 
L 406.188706 79.849448 
L 406.823591 68.273974 
L 407.458475 70.162577 
L 408.09336 96.754397 
L 408.728244 83.914086 
L 409.363129 67.105018 
L 409.998013 97.628349 
L 410.632898 82.909794 
L 411.267782 76.610405 
L 411.902667 95.205027 
L 412.537551 85.142796 
L 413.172436 81.553727 
L 413.80732 84.453948 
L 414.442205 81.247166 
L 415.077089 89.344256 
L 415.711974 81.024289 
L 416.346858 64.618489 
L 416.981743 76.804119 
L 417.616627 83.241803 
L 418.251512 79.297551 
L 418.886397 99.819094 
L 419.521281 106.864864 
L 420.79105 93.173006 
L 421.425935 69.746709 
L 422.060819 81.06382 
L 422.695704 83.839077 
L 423.330588 75.621352 
L 423.965473 83.191846 
L 424.600357 86.008691 
L 425.235242 105.575284 
L 425.870126 97.921453 
L 426.505011 71.413833 
L 427.77478 93.465434 
L 428.409664 92.078793 
L 429.044549 95.205474 
L 429.679433 81.443894 
L 430.314318 70.508269 
L 430.949202 92.18965 
L 431.584087 81.605348 
L 432.218971 68.199388 
L 432.853856 102.458609 
L 434.123625 62.123716 
L 434.758509 66.063355 
L 435.393394 87.085871 
L 436.028278 60.933728 
L 436.663163 63.527513 
L 437.298047 93.619241 
L 437.932932 69.459362 
L 438.567816 63.648056 
L 439.202701 63.518962 
L 439.837586 92.464888 
L 440.47247 85.479758 
L 441.107355 84.669368 
L 441.742239 89.934995 
L 442.377124 82.591598 
L 443.012008 83.025141 
L 443.646893 83.649808 
L 444.281777 68.355267 
L 444.916662 88.311049 
L 445.551546 68.418969 
L 446.186431 60.811448 
L 446.821315 99.594061 
L 447.4562 77.626174 
L 448.091084 60.914406 
L 448.725969 68.306272 
L 449.360853 93.229363 
L 449.995738 69.555762 
L 450.630622 61.875003 
L 451.265507 82.383249 
L 451.900391 96.955654 
L 452.535276 82.304588 
L 453.17016 73.981083 
L 453.805045 79.03086 
L 454.439929 79.665985 
L 455.074814 95.036429 
L 455.709698 94.601255 
L 456.344583 100.251325 
L 456.979467 107.028059 
L 458.249236 69.984465 
L 458.884121 66.193347 
L 459.519005 66.095225 
L 460.15389 66.777433 
L 460.788774 70.338971 
L 461.423659 82.71232 
L 462.058544 86.268619 
L 462.693428 77.286864 
L 463.328313 82.750469 
L 463.963197 103.064778 
L 464.598082 82.737122 
L 465.232966 75.362658 
L 465.867851 93.883554 
L 466.502735 91.623395 
L 467.13762 76.915098 
L 468.407389 83.374632 
L 469.677158 106.137378 
L 470.312042 97.448416 
L 470.946927 85.53049 
L 471.581811 85.865285 
L 472.216696 92.995436 
L 472.85158 68.682791 
L 473.486465 59.158713 
L 474.121349 79.562205 
L 474.756234 92.183879 
L 475.391118 79.724506 
L 476.026003 81.870654 
L 476.660887 59.98637 
L 477.295772 64.435856 
L 477.930656 105.551519 
L 478.565541 83.746959 
L 479.200425 76.123092 
L 479.83531 92.861193 
L 480.470194 81.899781 
L 481.105079 68.308258 
L 481.739963 84.103108 
L 482.374848 78.964568 
L 483.009733 66.909357 
L 484.279502 92.550426 
L 484.914386 82.972278 
L 485.549271 82.447979 
L 486.184155 91.641067 
L 486.81904 82.510168 
L 487.453924 84.520427 
L 488.088809 82.019424 
L 488.723693 68.750592 
L 489.358578 77.916893 
L 489.993462 91.26013 
L 490.628347 62.558683 
L 491.263231 74.487137 
L 491.898116 80.346146 
L 492.533 80.654067 
L 493.167885 81.811814 
L 493.802769 80.149275 
L 494.437654 102.687494 
L 495.072538 63.773644 
L 495.707423 75.64066 
L 496.342307 84.580769 
L 496.977192 76.179085 
L 497.612076 93.088149 
L 498.246961 67.563065 
L 498.881845 87.265634 
L 499.51673 93.149036 
L 500.151614 66.105131 
L 500.786499 90.174645 
L 501.421383 79.619296 
L 502.056268 75.972881 
L 502.691152 81.400814 
L 503.326037 75.526167 
L 504.595806 85.75762 
L 505.230691 100.866945 
L 505.865575 76.046197 
L 506.50046 62.461708 
L 507.135344 56.594083 
L 507.770229 71.559226 
L 508.405113 75.875637 
L 509.039998 90.912024 
L 509.674882 92.068211 
L 510.309767 72.046306 
L 510.944651 105.693374 
L 511.579536 71.589759 
L 512.21442 69.818741 
L 512.849305 77.814079 
L 513.484189 89.027276 
L 514.119074 102.465305 
L 514.753958 75.050241 
L 515.388843 88.923061 
L 516.023727 91.148453 
L 516.658612 100.959585 
L 517.293496 90.905469 
L 517.928381 89.072679 
L 518.563265 77.915676 
L 519.19815 89.457514 
L 519.833034 85.884205 
L 520.467919 70.95689 
L 521.102803 84.237105 
L 521.737688 83.531599 
L 522.372572 89.332822 
L 523.007457 78.174493 
L 523.642341 82.315729 
L 524.277226 87.52081 
L 524.91211 90.230673 
L 525.546995 67.694861 
L 526.18188 80.924115 
L 527.451649 66.612321 
L 528.086533 79.885726 
L 528.721418 80.927971 
L 529.356302 90.543254 
L 529.991187 92.196369 
L 530.626071 79.804842 
L 531.260956 62.623017 
L 531.89584 90.049436 
L 532.530725 101.352886 
L 533.165609 90.181234 
L 533.800494 66.021352 
L 534.435378 71.03224 
L 535.705147 84.647438 
L 536.340032 75.154341 
L 536.974916 47.358085 
L 537.609801 93.591688 
L 538.244685 81.097655 
L 538.87957 71.616084 
L 539.514454 84.340809 
L 540.149339 60.75544 
L 540.784223 70.859823 
L 541.419108 62.547386 
L 542.053992 81.966788 
L 542.688877 81.603278 
L 543.323761 80.393012 
L 543.958646 98.058176 
L 545.228415 79.810687 
L 545.863299 82.420416 
L 546.498184 96.798485 
L 547.133069 74.204189 
L 547.767953 58.761555 
L 548.402838 84.268026 
L 549.672607 96.756245 
L 550.307491 90.718874 
L 550.942376 101.937282 
L 551.57726 92.419811 
L 552.212145 89.574743 
L 552.847029 123.920986 
L 553.481914 88.21778 
L 554.116798 82.172605 
L 554.751683 84.088835 
L 555.386567 76.338837 
L 556.021452 74.144922 
L 556.656336 76.793273 
L 557.291221 83.421599 
L 557.926105 94.706392 
L 558.56099 76.257774 
L 559.830759 82.816683 
L 560.465643 86.717481 
L 561.100528 81.738044 
L 561.735412 67.295911 
L 562.370297 89.921456 
L 563.005181 74.739895 
L 563.640066 64.562522 
L 564.27495 72.265927 
L 564.909835 90.383118 
L 565.544719 80.252721 
L 566.179604 83.723297 
L 566.814488 68.08421 
L 567.449373 72.120922 
L 568.084257 74.551023 
L 568.719142 60.137129 
L 569.354027 92.544741 
L 569.988911 90.58407 
L 570.623796 67.011134 
L 571.25868 85.353565 
L 571.893565 73.509777 
L 572.528449 70.920273 
L 573.163334 64.140865 
L 573.798218 81.921079 
L 574.433103 92.019488 
L 575.067987 64.73845 
L 575.702872 88.826926 
L 576.337756 66.277869 
L 576.972641 84.178774 
L 577.607525 87.043465 
L 578.24241 100.522552 
L 578.877294 87.261029 
L 579.512179 82.735617 
L 580.147063 81.254862 
L 580.781948 62.413009 
L 581.416832 84.887535 
L 582.051717 81.352566 
L 582.686601 96.160496 
L 583.321486 75.754821 
L 583.95637 90.103152 
L 584.591255 80.811884 
L 585.226139 84.583373 
L 585.861024 91.427256 
L 586.495908 84.191144 
L 587.130793 104.044371 
L 587.765677 77.695582 
L 588.400562 78.884694 
L 589.035446 81.417913 
L 589.670331 80.242023 
L 590.305216 63.727716 
L 590.9401 75.980514 
L 591.574985 76.158021 
L 592.209869 61.512155 
L 592.844754 92.693358 
L 593.479638 87.352274 
L 594.114523 80.168797 
L 594.749407 80.561306 
L 595.384292 94.18019 
L 596.019176 72.287613 
L 596.019176 72.287613 
" clip-path="url(#p3b9bccfcc6)" style="fill: none; stroke: #1f77b4; stroke-width: 1.5; stroke-linecap: square"/>
   </g>
   <g id="line2d_17">
    <path d="M 342.700255 81.117023 
L 343.335139 62.751298 
L 343.970024 71.635068 
L 344.604908 68.594753 
L 345.239793 57.694002 
L 345.874677 72.402243 
L 346.509562 75.501799 
L 347.144446 69.633634 
L 347.779331 69.936018 
L 348.414215 72.080131 
L 349.0491 69.029185 
L 349.683984 48.679569 
L 350.318869 79.894423 
L 350.953753 89.790873 
L 351.588638 64.750841 
L 352.223522 83.222387 
L 352.858407 71.026411 
L 353.493292 107.063337 
L 354.128176 135.960579 
L 354.763061 149.588342 
L 355.397945 176.406791 
L 356.03283 195.478125 
L 356.667714 172.494744 
L 357.302599 132.45982 
L 357.937483 99.261473 
L 358.572368 87.521116 
L 359.207252 92.965903 
L 359.842137 102.439981 
L 360.477021 82.732738 
L 361.111906 59.81445 
L 361.74679 66.045113 
L 362.381675 44.278125 
L 363.016559 66.904007 
L 363.651444 61.396596 
L 364.286328 61.848206 
L 364.921213 78.994887 
L 365.556097 72.808607 
L 366.190982 77.152819 
L 366.825866 62.526041 
L 367.460751 57.383991 
" clip-path="url(#p3b9bccfcc6)" style="fill: none; stroke: #ff0000; stroke-width: 1.5; stroke-linecap: square"/>
   </g>
   <g id="patch_3">
    <path d="M 63.382812 203.038125 
L 63.382812 36.718125 
" style="fill: none; stroke: #000000; stroke-width: 0.8; stroke-linejoin: miter; stroke-linecap: square"/>
   </g>
   <g id="patch_4">
    <path d="M 621.382812 203.038125 
L 621.382812 36.718125 
" style="fill: none; stroke: #000000; stroke-width: 0.8; stroke-linejoin: miter; stroke-linecap: square"/>
   </g>
   <g id="patch_5">
    <path d="M 63.382812 203.038125 
L 621.382812 203.038125 
" style="fill: none; stroke: #000000; stroke-width: 0.8; stroke-linejoin: miter; stroke-linecap: square"/>
   </g>
   <g id="patch_6">
    <path d="M 63.382812 36.718125 
L 621.382812 36.718125 
" style="fill: none; stroke: #000000; stroke-width: 0.8; stroke-linejoin: miter; stroke-linecap: square"/>
   </g>
   <g id="text_18">
    <!-- Channel:12, Time stamp : 941299 -->
    <g transform="translate(240.144688 30.718125) scale(0.12 -0.12)">
     <defs>
      <path id="DejaVuSans-43" d="M 4122 4306 
L 4122 3641 
Q 3803 3938 3442 4084 
Q 3081 4231 2675 4231 
Q 1875 4231 1450 3742 
Q 1025 3253 1025 2328 
Q 1025 1406 1450 917 
Q 1875 428 2675 428 
Q 3081 428 3442 575 
Q 3803 722 4122 1019 
L 4122 359 
Q 3791 134 3420 21 
Q 3050 -91 2638 -91 
Q 1578 -91 968 557 
Q 359 1206 359 2328 
Q 359 3453 968 4101 
Q 1578 4750 2638 4750 
Q 3056 4750 3426 4639 
Q 3797 4528 4122 4306 
z
" transform="scale(0.015625)"/>
      <path id="DejaVuSans-68" d="M 3513 2113 
L 3513 0 
L 2938 0 
L 2938 2094 
Q 2938 2591 2744 2837 
Q 2550 3084 2163 3084 
Q 1697 3084 1428 2787 
Q 1159 2491 1159 1978 
L 1159 0 
L 581 0 
L 581 4863 
L 1159 4863 
L 1159 2956 
Q 1366 3272 1645 3428 
Q 1925 3584 2291 3584 
Q 2894 3584 3203 3211 
Q 3513 2838 3513 2113 
z
" transform="scale(0.015625)"/>
      <path id="DejaVuSans-6e" d="M 3513 2113 
L 3513 0 
L 2938 0 
L 2938 2094 
Q 2938 2591 2744 2837 
Q 2550 3084 2163 3084 
Q 1697 3084 1428 2787 
Q 1159 2491 1159 1978 
L 1159 0 
L 581 0 
L 581 3500 
L 1159 3500 
L 1159 2956 
Q 1366 3272 1645 3428 
Q 1925 3584 2291 3584 
Q 2894 3584 3203 3211 
Q 3513 2838 3513 2113 
z
" transform="scale(0.015625)"/>
      <path id="DejaVuSans-3a" d="M 750 794 
L 1409 794 
L 1409 0 
L 750 0 
L 750 794 
z
M 750 3309 
L 1409 3309 
L 1409 2516 
L 750 2516 
L 750 3309 
z
" transform="scale(0.015625)"/>
      <path id="DejaVuSans-2c" d="M 750 794 
L 1409 794 
L 1409 256 
L 897 -744 
L 494 -744 
L 750 256 
L 750 794 
z
" transform="scale(0.015625)"/>
      <path id="DejaVuSans-70" d="M 1159 525 
L 1159 -1331 
L 581 -1331 
L 581 3500 
L 1159 3500 
L 1159 2969 
Q 1341 3281 1617 3432 
Q 1894 3584 2278 3584 
Q 2916 3584 3314 3078 
Q 3713 2572 3713 1747 
Q 3713 922 3314 415 
Q 2916 -91 2278 -91 
Q 1894 -91 1617 61 
Q 1341 213 1159 525 
z
M 3116 1747 
Q 3116 2381 2855 2742 
Q 2594 3103 2138 3103 
Q 1681 3103 1420 2742 
Q 1159 2381 1159 1747 
Q 1159 1113 1420 752 
Q 1681 391 2138 391 
Q 2594 391 2855 752 
Q 3116 1113 3116 1747 
z
" transform="scale(0.015625)"/>
      <path id="DejaVuSans-39" d="M 703 97 
L 703 672 
Q 941 559 1184 500 
Q 1428 441 1663 441 
Q 2288 441 2617 861 
Q 2947 1281 2994 2138 
Q 2813 1869 2534 1725 
Q 2256 1581 1919 1581 
Q 1219 1581 811 2004 
Q 403 2428 403 3163 
Q 403 3881 828 4315 
Q 1253 4750 1959 4750 
Q 2769 4750 3195 4129 
Q 3622 3509 3622 2328 
Q 3622 1225 3098 567 
Q 2575 -91 1691 -91 
Q 1453 -91 1209 -44 
Q 966 3 703 97 
z
M 1959 2075 
Q 2384 2075 2632 2365 
Q 2881 2656 2881 3163 
Q 2881 3666 2632 3958 
Q 2384 4250 1959 4250 
Q 1534 4250 1286 3958 
Q 1038 3666 1038 3163 
Q 1038 2656 1286 2365 
Q 1534 2075 1959 2075 
z
" transform="scale(0.015625)"/>
     </defs>
     <use xlink:href="#DejaVuSans-43"/>
     <use xlink:href="#DejaVuSans-68" x="69.824219"/>
     <use xlink:href="#DejaVuSans-61" x="133.203125"/>
     <use xlink:href="#DejaVuSans-6e" x="194.482422"/>
     <use xlink:href="#DejaVuSans-6e" x="257.861328"/>
     <use xlink:href="#DejaVuSans-65" x="321.240234"/>
     <use xlink:href="#DejaVuSans-6c" x="382.763672"/>
     <use xlink:href="#DejaVuSans-3a" x="410.546875"/>
     <use xlink:href="#DejaVuSans-31" x="444.238281"/>
     <use xlink:href="#DejaVuSans-32" x="507.861328"/>
     <use xlink:href="#DejaVuSans-2c" x="571.484375"/>
     <use xlink:href="#DejaVuSans-20" x="603.271484"/>
     <use xlink:href="#DejaVuSans-54" x="635.058594"/>
     <use xlink:href="#DejaVuSans-69" x="693.017578"/>
     <use xlink:href="#DejaVuSans-6d" x="720.800781"/>
     <use xlink:href="#DejaVuSans-65" x="818.212891"/>
     <use xlink:href="#DejaVuSans-20" x="879.736328"/>
     <use xlink:href="#DejaVuSans-73" x="911.523438"/>
     <use xlink:href="#DejaVuSans-74" x="963.623047"/>
     <use xlink:href="#DejaVuSans-61" x="1002.832031"/>
     <use xlink:href="#DejaVuSans-6d" x="1064.111328"/>
     <use xlink:href="#DejaVuSans-70" x="1161.523438"/>
     <use xlink:href="#DejaVuSans-20" x="1225"/>
     <use xlink:href="#DejaVuSans-3a" x="1256.787109"/>
     <use xlink:href="#DejaVuSans-20" x="1290.478516"/>
     <use xlink:href="#DejaVuSans-39" x="1322.265625"/>
     <use xlink:href="#DejaVuSans-34" x="1385.888672"/>
     <use xlink:href="#DejaVuSans-31" x="1449.511719"/>
     <use xlink:href="#DejaVuSans-32" x="1513.134766"/>
     <use xlink:href="#DejaVuSans-39" x="1576.757812"/>
     <use xlink:href="#DejaVuSans-39" x="1640.380859"/>
    </g>
   </g>
  </g>
 </g>
 <defs>
  <clipPath id="p3b9bccfcc6">
   <rect x="63.382812" y="36.718125" width="558" height="166.32"/>
  </clipPath>
 </defs>
</svg>
