<?xml version="1.0" encoding="utf-8" standalone="no"?>
<!DOCTYPE svg PUBLIC "-//W3C//DTD SVG 1.1//EN"
  "http://www.w3.org/Graphics/SVG/1.1/DTD/svg11.dtd">
<svg xmlns:xlink="http://www.w3.org/1999/xlink" width="642.982813pt" height="254.994375pt" viewBox="0 0 642.982813 254.994375" xmlns="http://www.w3.org/2000/svg" version="1.1">
 <metadata>
  <rdf:RDF xmlns:dc="http://purl.org/dc/elements/1.1/" xmlns:cc="http://creativecommons.org/ns#" xmlns:rdf="http://www.w3.org/1999/02/22-rdf-syntax-ns#">
   <cc:Work>
    <dc:type rdf:resource="http://purl.org/dc/dcmitype/StillImage"/>
    <dc:date>2024-02-26T10:41:43.385316</dc:date>
    <dc:format>image/svg+xml</dc:format>
    <dc:creator>
     <cc:Agent>
      <dc:title>Matplotlib v3.7.1, https://matplotlib.org/</dc:title>
     </cc:Agent>
    </dc:creator>
   </cc:Work>
  </rdf:RDF>
 </metadata>
 <defs>
  <style type="text/css">*{stroke-linejoin: round; stroke-linecap: butt}</style>
 </defs>
 <g id="figure_1">
  <g id="patch_1">
   <path d="M 0 254.994375 
L 642.982813 254.994375 
L 642.982813 -0 
L 0 -0 
z
" style="fill: #ffffff"/>
  </g>
  <g id="axes_1">
   <g id="patch_2">
    <path d="M 63.382812 203.038125 
L 621.382812 203.038125 
L 621.382812 36.718125 
L 63.382812 36.718125 
z
" style="fill: #ffffff"/>
   </g>
   <g id="matplotlib.axis_1">
    <g id="xtick_1">
     <g id="line2d_1">
      <defs>
       <path id="mc6fb7f72dd" d="M 0 0 
L 0 3.5 
" style="stroke: #000000; stroke-width: 0.8"/>
      </defs>
      <g>
       <use xlink:href="#mc6fb7f72dd" x="88.746449" y="203.038125" style="stroke: #000000; stroke-width: 0.8"/>
      </g>
     </g>
     <g id="text_1">
      <!-- −20 -->
      <g transform="translate(78.194105 217.636562) scale(0.1 -0.1)">
       <defs>
        <path id="DejaVuSans-2212" d="M 678 2272 
L 4684 2272 
L 4684 1741 
L 678 1741 
L 678 2272 
z
" transform="scale(0.015625)"/>
        <path id="DejaVuSans-32" d="M 1228 531 
L 3431 531 
L 3431 0 
L 469 0 
L 469 531 
Q 828 903 1448 1529 
Q 2069 2156 2228 2338 
Q 2531 2678 2651 2914 
Q 2772 3150 2772 3378 
Q 2772 3750 2511 3984 
Q 2250 4219 1831 4219 
Q 1534 4219 1204 4116 
Q 875 4013 500 3803 
L 500 4441 
Q 881 4594 1212 4672 
Q 1544 4750 1819 4750 
Q 2544 4750 2975 4387 
Q 3406 4025 3406 3419 
Q 3406 3131 3298 2873 
Q 3191 2616 2906 2266 
Q 2828 2175 2409 1742 
Q 1991 1309 1228 531 
z
" transform="scale(0.015625)"/>
        <path id="DejaVuSans-30" d="M 2034 4250 
Q 1547 4250 1301 3770 
Q 1056 3291 1056 2328 
Q 1056 1369 1301 889 
Q 1547 409 2034 409 
Q 2525 409 2770 889 
Q 3016 1369 3016 2328 
Q 3016 3291 2770 3770 
Q 2525 4250 2034 4250 
z
M 2034 4750 
Q 2819 4750 3233 4129 
Q 3647 3509 3647 2328 
Q 3647 1150 3233 529 
Q 2819 -91 2034 -91 
Q 1250 -91 836 529 
Q 422 1150 422 2328 
Q 422 3509 836 4129 
Q 1250 4750 2034 4750 
z
" transform="scale(0.015625)"/>
       </defs>
       <use xlink:href="#DejaVuSans-2212"/>
       <use xlink:href="#DejaVuSans-32" x="83.789062"/>
       <use xlink:href="#DejaVuSans-30" x="147.412109"/>
      </g>
     </g>
    </g>
    <g id="xtick_2">
     <g id="line2d_2">
      <g>
       <use xlink:href="#mc6fb7f72dd" x="152.15554" y="203.038125" style="stroke: #000000; stroke-width: 0.8"/>
      </g>
     </g>
     <g id="text_2">
      <!-- −15 -->
      <g transform="translate(141.603196 217.636562) scale(0.1 -0.1)">
       <defs>
        <path id="DejaVuSans-31" d="M 794 531 
L 1825 531 
L 1825 4091 
L 703 3866 
L 703 4441 
L 1819 4666 
L 2450 4666 
L 2450 531 
L 3481 531 
L 3481 0 
L 794 0 
L 794 531 
z
" transform="scale(0.015625)"/>
        <path id="DejaVuSans-35" d="M 691 4666 
L 3169 4666 
L 3169 4134 
L 1269 4134 
L 1269 2991 
Q 1406 3038 1543 3061 
Q 1681 3084 1819 3084 
Q 2600 3084 3056 2656 
Q 3513 2228 3513 1497 
Q 3513 744 3044 326 
Q 2575 -91 1722 -91 
Q 1428 -91 1123 -41 
Q 819 9 494 109 
L 494 744 
Q 775 591 1075 516 
Q 1375 441 1709 441 
Q 2250 441 2565 725 
Q 2881 1009 2881 1497 
Q 2881 1984 2565 2268 
Q 2250 2553 1709 2553 
Q 1456 2553 1204 2497 
Q 953 2441 691 2322 
L 691 4666 
z
" transform="scale(0.015625)"/>
       </defs>
       <use xlink:href="#DejaVuSans-2212"/>
       <use xlink:href="#DejaVuSans-31" x="83.789062"/>
       <use xlink:href="#DejaVuSans-35" x="147.412109"/>
      </g>
     </g>
    </g>
    <g id="xtick_3">
     <g id="line2d_3">
      <g>
       <use xlink:href="#mc6fb7f72dd" x="215.564631" y="203.038125" style="stroke: #000000; stroke-width: 0.8"/>
      </g>
     </g>
     <g id="text_3">
      <!-- −10 -->
      <g transform="translate(205.012287 217.636562) scale(0.1 -0.1)">
       <use xlink:href="#DejaVuSans-2212"/>
       <use xlink:href="#DejaVuSans-31" x="83.789062"/>
       <use xlink:href="#DejaVuSans-30" x="147.412109"/>
      </g>
     </g>
    </g>
    <g id="xtick_4">
     <g id="line2d_4">
      <g>
       <use xlink:href="#mc6fb7f72dd" x="278.973722" y="203.038125" style="stroke: #000000; stroke-width: 0.8"/>
      </g>
     </g>
     <g id="text_4">
      <!-- −5 -->
      <g transform="translate(271.602628 217.636562) scale(0.1 -0.1)">
       <use xlink:href="#DejaVuSans-2212"/>
       <use xlink:href="#DejaVuSans-35" x="83.789062"/>
      </g>
     </g>
    </g>
    <g id="xtick_5">
     <g id="line2d_5">
      <g>
       <use xlink:href="#mc6fb7f72dd" x="342.382812" y="203.038125" style="stroke: #000000; stroke-width: 0.8"/>
      </g>
     </g>
     <g id="text_5">
      <!-- 0 -->
      <g transform="translate(339.201563 217.636562) scale(0.1 -0.1)">
       <use xlink:href="#DejaVuSans-30"/>
      </g>
     </g>
    </g>
    <g id="xtick_6">
     <g id="line2d_6">
      <g>
       <use xlink:href="#mc6fb7f72dd" x="405.791903" y="203.038125" style="stroke: #000000; stroke-width: 0.8"/>
      </g>
     </g>
     <g id="text_6">
      <!-- 5 -->
      <g transform="translate(402.610653 217.636562) scale(0.1 -0.1)">
       <use xlink:href="#DejaVuSans-35"/>
      </g>
     </g>
    </g>
    <g id="xtick_7">
     <g id="line2d_7">
      <g>
       <use xlink:href="#mc6fb7f72dd" x="469.200994" y="203.038125" style="stroke: #000000; stroke-width: 0.8"/>
      </g>
     </g>
     <g id="text_7">
      <!-- 10 -->
      <g transform="translate(462.838494 217.636562) scale(0.1 -0.1)">
       <use xlink:href="#DejaVuSans-31"/>
       <use xlink:href="#DejaVuSans-30" x="63.623047"/>
      </g>
     </g>
    </g>
    <g id="xtick_8">
     <g id="line2d_8">
      <g>
       <use xlink:href="#mc6fb7f72dd" x="532.610085" y="203.038125" style="stroke: #000000; stroke-width: 0.8"/>
      </g>
     </g>
     <g id="text_8">
      <!-- 15 -->
      <g transform="translate(526.247585 217.636562) scale(0.1 -0.1)">
       <use xlink:href="#DejaVuSans-31"/>
       <use xlink:href="#DejaVuSans-35" x="63.623047"/>
      </g>
     </g>
    </g>
    <g id="xtick_9">
     <g id="line2d_9">
      <g>
       <use xlink:href="#mc6fb7f72dd" x="596.019176" y="203.038125" style="stroke: #000000; stroke-width: 0.8"/>
      </g>
     </g>
     <g id="text_9">
      <!-- 20 -->
      <g transform="translate(589.656676 217.636562) scale(0.1 -0.1)">
       <use xlink:href="#DejaVuSans-32"/>
       <use xlink:href="#DejaVuSans-30" x="63.623047"/>
      </g>
     </g>
    </g>
    <g id="text_10">
     <!-- Time [ms] -->
     <g transform="translate(317.183594 231.314687) scale(0.1 -0.1)">
      <defs>
       <path id="DejaVuSans-54" d="M -19 4666 
L 3928 4666 
L 3928 4134 
L 2272 4134 
L 2272 0 
L 1638 0 
L 1638 4134 
L -19 4134 
L -19 4666 
z
" transform="scale(0.015625)"/>
       <path id="DejaVuSans-69" d="M 603 3500 
L 1178 3500 
L 1178 0 
L 603 0 
L 603 3500 
z
M 603 4863 
L 1178 4863 
L 1178 4134 
L 603 4134 
L 603 4863 
z
" transform="scale(0.015625)"/>
       <path id="DejaVuSans-6d" d="M 3328 2828 
Q 3544 3216 3844 3400 
Q 4144 3584 4550 3584 
Q 5097 3584 5394 3201 
Q 5691 2819 5691 2113 
L 5691 0 
L 5113 0 
L 5113 2094 
Q 5113 2597 4934 2840 
Q 4756 3084 4391 3084 
Q 3944 3084 3684 2787 
Q 3425 2491 3425 1978 
L 3425 0 
L 2847 0 
L 2847 2094 
Q 2847 2600 2669 2842 
Q 2491 3084 2119 3084 
Q 1678 3084 1418 2786 
Q 1159 2488 1159 1978 
L 1159 0 
L 581 0 
L 581 3500 
L 1159 3500 
L 1159 2956 
Q 1356 3278 1631 3431 
Q 1906 3584 2284 3584 
Q 2666 3584 2933 3390 
Q 3200 3197 3328 2828 
z
" transform="scale(0.015625)"/>
       <path id="DejaVuSans-65" d="M 3597 1894 
L 3597 1613 
L 953 1613 
Q 991 1019 1311 708 
Q 1631 397 2203 397 
Q 2534 397 2845 478 
Q 3156 559 3463 722 
L 3463 178 
Q 3153 47 2828 -22 
Q 2503 -91 2169 -91 
Q 1331 -91 842 396 
Q 353 884 353 1716 
Q 353 2575 817 3079 
Q 1281 3584 2069 3584 
Q 2775 3584 3186 3129 
Q 3597 2675 3597 1894 
z
M 3022 2063 
Q 3016 2534 2758 2815 
Q 2500 3097 2075 3097 
Q 1594 3097 1305 2825 
Q 1016 2553 972 2059 
L 3022 2063 
z
" transform="scale(0.015625)"/>
       <path id="DejaVuSans-20" transform="scale(0.015625)"/>
       <path id="DejaVuSans-5b" d="M 550 4863 
L 1875 4863 
L 1875 4416 
L 1125 4416 
L 1125 -397 
L 1875 -397 
L 1875 -844 
L 550 -844 
L 550 4863 
z
" transform="scale(0.015625)"/>
       <path id="DejaVuSans-73" d="M 2834 3397 
L 2834 2853 
Q 2591 2978 2328 3040 
Q 2066 3103 1784 3103 
Q 1356 3103 1142 2972 
Q 928 2841 928 2578 
Q 928 2378 1081 2264 
Q 1234 2150 1697 2047 
L 1894 2003 
Q 2506 1872 2764 1633 
Q 3022 1394 3022 966 
Q 3022 478 2636 193 
Q 2250 -91 1575 -91 
Q 1294 -91 989 -36 
Q 684 19 347 128 
L 347 722 
Q 666 556 975 473 
Q 1284 391 1588 391 
Q 1994 391 2212 530 
Q 2431 669 2431 922 
Q 2431 1156 2273 1281 
Q 2116 1406 1581 1522 
L 1381 1569 
Q 847 1681 609 1914 
Q 372 2147 372 2553 
Q 372 3047 722 3315 
Q 1072 3584 1716 3584 
Q 2034 3584 2315 3537 
Q 2597 3491 2834 3397 
z
" transform="scale(0.015625)"/>
       <path id="DejaVuSans-5d" d="M 1947 4863 
L 1947 -844 
L 622 -844 
L 622 -397 
L 1369 -397 
L 1369 4416 
L 622 4416 
L 622 4863 
L 1947 4863 
z
" transform="scale(0.015625)"/>
      </defs>
      <use xlink:href="#DejaVuSans-54"/>
      <use xlink:href="#DejaVuSans-69" x="57.958984"/>
      <use xlink:href="#DejaVuSans-6d" x="85.742188"/>
      <use xlink:href="#DejaVuSans-65" x="183.154297"/>
      <use xlink:href="#DejaVuSans-20" x="244.677734"/>
      <use xlink:href="#DejaVuSans-5b" x="276.464844"/>
      <use xlink:href="#DejaVuSans-6d" x="315.478516"/>
      <use xlink:href="#DejaVuSans-73" x="412.890625"/>
      <use xlink:href="#DejaVuSans-5d" x="464.990234"/>
     </g>
    </g>
   </g>
   <g id="matplotlib.axis_2">
    <g id="ytick_1">
     <g id="line2d_10">
      <defs>
       <path id="mce158d09b8" d="M 0 0 
L -3.5 0 
" style="stroke: #000000; stroke-width: 0.8"/>
      </defs>
      <g>
       <use xlink:href="#mce158d09b8" x="63.382812" y="185.632272" style="stroke: #000000; stroke-width: 0.8"/>
      </g>
     </g>
     <g id="text_11">
      <!-- −20 -->
      <g transform="translate(35.278125 189.431491) scale(0.1 -0.1)">
       <use xlink:href="#DejaVuSans-2212"/>
       <use xlink:href="#DejaVuSans-32" x="83.789062"/>
       <use xlink:href="#DejaVuSans-30" x="147.412109"/>
      </g>
     </g>
    </g>
    <g id="ytick_2">
     <g id="line2d_11">
      <g>
       <use xlink:href="#mce158d09b8" x="63.382812" y="156.150902" style="stroke: #000000; stroke-width: 0.8"/>
      </g>
     </g>
     <g id="text_12">
      <!-- −10 -->
      <g transform="translate(35.278125 159.95012) scale(0.1 -0.1)">
       <use xlink:href="#DejaVuSans-2212"/>
       <use xlink:href="#DejaVuSans-31" x="83.789062"/>
       <use xlink:href="#DejaVuSans-30" x="147.412109"/>
      </g>
     </g>
    </g>
    <g id="ytick_3">
     <g id="line2d_12">
      <g>
       <use xlink:href="#mce158d09b8" x="63.382812" y="126.669531" style="stroke: #000000; stroke-width: 0.8"/>
      </g>
     </g>
     <g id="text_13">
      <!-- 0 -->
      <g transform="translate(50.020313 130.46875) scale(0.1 -0.1)">
       <use xlink:href="#DejaVuSans-30"/>
      </g>
     </g>
    </g>
    <g id="ytick_4">
     <g id="line2d_13">
      <g>
       <use xlink:href="#mce158d09b8" x="63.382812" y="97.188161" style="stroke: #000000; stroke-width: 0.8"/>
      </g>
     </g>
     <g id="text_14">
      <!-- 10 -->
      <g transform="translate(43.657812 100.987379) scale(0.1 -0.1)">
       <use xlink:href="#DejaVuSans-31"/>
       <use xlink:href="#DejaVuSans-30" x="63.623047"/>
      </g>
     </g>
    </g>
    <g id="ytick_5">
     <g id="line2d_14">
      <g>
       <use xlink:href="#mce158d09b8" x="63.382812" y="67.70679" style="stroke: #000000; stroke-width: 0.8"/>
      </g>
     </g>
     <g id="text_15">
      <!-- 20 -->
      <g transform="translate(43.657812 71.506009) scale(0.1 -0.1)">
       <use xlink:href="#DejaVuSans-32"/>
       <use xlink:href="#DejaVuSans-30" x="63.623047"/>
      </g>
     </g>
    </g>
    <g id="ytick_6">
     <g id="line2d_15">
      <g>
       <use xlink:href="#mce158d09b8" x="63.382812" y="38.22542" style="stroke: #000000; stroke-width: 0.8"/>
      </g>
     </g>
     <g id="text_16">
      <!-- 30 -->
      <g transform="translate(43.657812 42.024638) scale(0.1 -0.1)">
       <defs>
        <path id="DejaVuSans-33" d="M 2597 2516 
Q 3050 2419 3304 2112 
Q 3559 1806 3559 1356 
Q 3559 666 3084 287 
Q 2609 -91 1734 -91 
Q 1441 -91 1130 -33 
Q 819 25 488 141 
L 488 750 
Q 750 597 1062 519 
Q 1375 441 1716 441 
Q 2309 441 2620 675 
Q 2931 909 2931 1356 
Q 2931 1769 2642 2001 
Q 2353 2234 1838 2234 
L 1294 2234 
L 1294 2753 
L 1863 2753 
Q 2328 2753 2575 2939 
Q 2822 3125 2822 3475 
Q 2822 3834 2567 4026 
Q 2313 4219 1838 4219 
Q 1578 4219 1281 4162 
Q 984 4106 628 3988 
L 628 4550 
Q 988 4650 1302 4700 
Q 1616 4750 1894 4750 
Q 2613 4750 3031 4423 
Q 3450 4097 3450 3541 
Q 3450 3153 3228 2886 
Q 3006 2619 2597 2516 
z
" transform="scale(0.015625)"/>
       </defs>
       <use xlink:href="#DejaVuSans-33"/>
       <use xlink:href="#DejaVuSans-30" x="63.623047"/>
      </g>
     </g>
    </g>
    <g id="text_17">
     <!-- Voltage [uV] -->
     <g transform="translate(29.198438 150.714063) rotate(-90) scale(0.1 -0.1)">
      <defs>
       <path id="DejaVuSans-56" d="M 1831 0 
L 50 4666 
L 709 4666 
L 2188 738 
L 3669 4666 
L 4325 4666 
L 2547 0 
L 1831 0 
z
" transform="scale(0.015625)"/>
       <path id="DejaVuSans-6f" d="M 1959 3097 
Q 1497 3097 1228 2736 
Q 959 2375 959 1747 
Q 959 1119 1226 758 
Q 1494 397 1959 397 
Q 2419 397 2687 759 
Q 2956 1122 2956 1747 
Q 2956 2369 2687 2733 
Q 2419 3097 1959 3097 
z
M 1959 3584 
Q 2709 3584 3137 3096 
Q 3566 2609 3566 1747 
Q 3566 888 3137 398 
Q 2709 -91 1959 -91 
Q 1206 -91 779 398 
Q 353 888 353 1747 
Q 353 2609 779 3096 
Q 1206 3584 1959 3584 
z
" transform="scale(0.015625)"/>
       <path id="DejaVuSans-6c" d="M 603 4863 
L 1178 4863 
L 1178 0 
L 603 0 
L 603 4863 
z
" transform="scale(0.015625)"/>
       <path id="DejaVuSans-74" d="M 1172 4494 
L 1172 3500 
L 2356 3500 
L 2356 3053 
L 1172 3053 
L 1172 1153 
Q 1172 725 1289 603 
Q 1406 481 1766 481 
L 2356 481 
L 2356 0 
L 1766 0 
Q 1100 0 847 248 
Q 594 497 594 1153 
L 594 3053 
L 172 3053 
L 172 3500 
L 594 3500 
L 594 4494 
L 1172 4494 
z
" transform="scale(0.015625)"/>
       <path id="DejaVuSans-61" d="M 2194 1759 
Q 1497 1759 1228 1600 
Q 959 1441 959 1056 
Q 959 750 1161 570 
Q 1363 391 1709 391 
Q 2188 391 2477 730 
Q 2766 1069 2766 1631 
L 2766 1759 
L 2194 1759 
z
M 3341 1997 
L 3341 0 
L 2766 0 
L 2766 531 
Q 2569 213 2275 61 
Q 1981 -91 1556 -91 
Q 1019 -91 701 211 
Q 384 513 384 1019 
Q 384 1609 779 1909 
Q 1175 2209 1959 2209 
L 2766 2209 
L 2766 2266 
Q 2766 2663 2505 2880 
Q 2244 3097 1772 3097 
Q 1472 3097 1187 3025 
Q 903 2953 641 2809 
L 641 3341 
Q 956 3463 1253 3523 
Q 1550 3584 1831 3584 
Q 2591 3584 2966 3190 
Q 3341 2797 3341 1997 
z
" transform="scale(0.015625)"/>
       <path id="DejaVuSans-67" d="M 2906 1791 
Q 2906 2416 2648 2759 
Q 2391 3103 1925 3103 
Q 1463 3103 1205 2759 
Q 947 2416 947 1791 
Q 947 1169 1205 825 
Q 1463 481 1925 481 
Q 2391 481 2648 825 
Q 2906 1169 2906 1791 
z
M 3481 434 
Q 3481 -459 3084 -895 
Q 2688 -1331 1869 -1331 
Q 1566 -1331 1297 -1286 
Q 1028 -1241 775 -1147 
L 775 -588 
Q 1028 -725 1275 -790 
Q 1522 -856 1778 -856 
Q 2344 -856 2625 -561 
Q 2906 -266 2906 331 
L 2906 616 
Q 2728 306 2450 153 
Q 2172 0 1784 0 
Q 1141 0 747 490 
Q 353 981 353 1791 
Q 353 2603 747 3093 
Q 1141 3584 1784 3584 
Q 2172 3584 2450 3431 
Q 2728 3278 2906 2969 
L 2906 3500 
L 3481 3500 
L 3481 434 
z
" transform="scale(0.015625)"/>
       <path id="DejaVuSans-75" d="M 544 1381 
L 544 3500 
L 1119 3500 
L 1119 1403 
Q 1119 906 1312 657 
Q 1506 409 1894 409 
Q 2359 409 2629 706 
Q 2900 1003 2900 1516 
L 2900 3500 
L 3475 3500 
L 3475 0 
L 2900 0 
L 2900 538 
Q 2691 219 2414 64 
Q 2138 -91 1772 -91 
Q 1169 -91 856 284 
Q 544 659 544 1381 
z
M 1991 3584 
L 1991 3584 
z
" transform="scale(0.015625)"/>
      </defs>
      <use xlink:href="#DejaVuSans-56"/>
      <use xlink:href="#DejaVuSans-6f" x="60.658203"/>
      <use xlink:href="#DejaVuSans-6c" x="121.839844"/>
      <use xlink:href="#DejaVuSans-74" x="149.623047"/>
      <use xlink:href="#DejaVuSans-61" x="188.832031"/>
      <use xlink:href="#DejaVuSans-67" x="250.111328"/>
      <use xlink:href="#DejaVuSans-65" x="313.587891"/>
      <use xlink:href="#DejaVuSans-20" x="375.111328"/>
      <use xlink:href="#DejaVuSans-5b" x="406.898438"/>
      <use xlink:href="#DejaVuSans-75" x="445.912109"/>
      <use xlink:href="#DejaVuSans-56" x="509.291016"/>
      <use xlink:href="#DejaVuSans-5d" x="577.699219"/>
     </g>
    </g>
   </g>
   <g id="line2d_16">
    <path d="M 88.746449 131.276911 
L 89.381333 116.760821 
L 90.016218 93.142241 
L 90.651102 92.217118 
L 91.285987 107.809913 
L 91.920871 101.985405 
L 92.555756 94.209789 
L 93.19064 112.171348 
L 93.825525 112.12142 
L 94.460409 116.475619 
L 95.095294 102.905424 
L 95.730179 126.991109 
L 96.365063 115.43706 
L 96.999948 98.89128 
L 97.634832 118.692064 
L 98.269717 113.821866 
L 98.904601 141.43914 
L 99.539486 163.748428 
L 100.17437 127.363469 
L 100.809255 123.939741 
L 101.444139 143.748035 
L 102.079024 130.094881 
L 102.713908 145.192719 
L 103.348793 124.759924 
L 103.983677 115.033531 
L 104.618562 120.052309 
L 105.253446 113.058479 
L 105.888331 122.347657 
L 106.523215 100.746033 
L 107.1581 99.50611 
L 107.792984 134.431046 
L 108.427869 111.368203 
L 109.062753 101.43339 
L 109.697638 125.789125 
L 110.332522 116.731566 
L 110.967407 112.9164 
L 111.602291 128.594217 
L 112.237176 136.01695 
L 112.87206 117.4945 
L 113.506945 118.069244 
L 114.141829 123.131718 
L 114.776714 149.900155 
L 115.411598 158.773675 
L 116.046483 154.450514 
L 116.681368 171.587755 
L 117.316252 170.770847 
L 117.951137 145.542228 
L 118.586021 173.509598 
L 119.220906 186.486007 
L 119.85579 174.671083 
L 120.490675 160.540575 
L 121.125559 151.185011 
L 122.395328 99.52867 
L 123.030213 100.233709 
L 123.665097 102.997784 
L 124.299982 161.952094 
L 124.934866 170.746991 
L 125.569751 157.488014 
L 126.204635 158.461179 
L 126.83952 171.886155 
L 127.474404 155.830122 
L 128.109289 155.636476 
L 128.744173 141.614175 
L 129.379058 144.86047 
L 130.013942 147.482216 
L 130.648827 128.520065 
L 131.283711 103.934204 
L 131.918596 96.718806 
L 132.55348 93.816467 
L 133.188365 65.433848 
L 133.823249 108.55969 
L 135.093018 94.161664 
L 135.727903 112.670075 
L 136.362787 121.925777 
L 136.997672 120.339278 
L 137.632556 96.995864 
L 138.267441 105.821157 
L 138.902326 109.61531 
L 139.53721 109.914935 
L 140.172095 107.442608 
L 140.806979 86.632695 
L 141.441864 118.03097 
L 142.076748 109.58613 
L 142.711633 113.728525 
L 143.346517 111.562805 
L 143.981402 108.836969 
L 144.616286 124.823243 
L 145.251171 126.851045 
L 145.886055 112.074438 
L 146.52094 105.61254 
L 147.790709 77.259945 
L 148.425593 130.123887 
L 149.060478 111.899258 
L 149.695362 122.498779 
L 150.330247 117.550316 
L 151.600016 126.439924 
L 152.2349 119.409982 
L 152.869785 108.155656 
L 153.504669 124.475823 
L 154.139554 132.901989 
L 154.774438 119.724828 
L 155.409323 159.928971 
L 156.044207 132.152258 
L 156.679092 120.878143 
L 157.313976 122.659825 
L 157.948861 143.980221 
L 158.583745 132.655244 
L 159.21863 125.188321 
L 159.853515 144.351996 
L 161.123284 194.590633 
L 161.758168 176.868447 
L 162.393053 145.451663 
L 163.027937 140.92778 
L 163.662822 138.984453 
L 164.297706 149.795434 
L 164.932591 153.96369 
L 165.567475 147.101649 
L 166.20236 146.154983 
L 166.837244 150.648535 
L 167.472129 195.478125 
L 168.107013 156.986765 
L 168.741898 155.319678 
L 169.376782 141.420624 
L 170.011667 123.938848 
L 170.646551 113.770248 
L 171.281436 115.63888 
L 171.91632 120.662512 
L 172.551205 88.373457 
L 173.186089 93.174614 
L 173.820974 107.601941 
L 174.455858 111.271615 
L 175.090743 101.972682 
L 175.725627 107.15743 
L 176.360512 97.883917 
L 176.995396 125.693572 
L 177.630281 113.709237 
L 178.265165 96.741621 
L 178.90005 106.909091 
L 179.534934 115.134709 
L 180.169819 101.652448 
L 180.804704 105.523495 
L 181.439588 127.873319 
L 182.074473 93.153723 
L 182.709357 98.239196 
L 183.344242 138.909259 
L 183.979126 126.059084 
L 184.614011 123.732277 
L 185.248895 120.56129 
L 185.88378 115.977311 
L 186.518664 119.175184 
L 187.153549 128.812764 
L 187.788433 151.277483 
L 188.423318 148.396097 
L 189.058202 159.426404 
L 190.327971 118.358535 
L 190.962856 124.339284 
L 191.59774 118.920799 
L 192.232625 124.952366 
L 192.867509 151.913733 
L 193.502394 110.440001 
L 194.137278 102.91839 
L 194.772163 122.224177 
L 195.407047 133.448904 
L 196.041932 142.522016 
L 196.676816 107.222215 
L 197.311701 116.183259 
L 197.946585 120.21148 
L 198.58147 147.869528 
L 199.216354 160.892288 
L 199.851239 142.173303 
L 200.486123 144.734934 
L 201.121008 143.378453 
L 201.755892 138.981456 
L 202.390777 129.654145 
L 203.025662 115.441505 
L 203.660546 120.560502 
L 204.295431 131.580381 
L 204.930315 133.35825 
L 205.5652 146.554178 
L 206.200084 129.545558 
L 206.834969 137.91071 
L 207.469853 142.483456 
L 208.104738 112.513175 
L 208.739622 122.174331 
L 209.374507 138.162386 
L 210.009391 134.743987 
L 210.644276 160.786337 
L 211.27916 167.552587 
L 211.914045 138.966018 
L 212.548929 133.79174 
L 213.183814 104.876382 
L 213.818698 103.586236 
L 214.453583 117.723351 
L 215.088467 128.652719 
L 215.723352 136.693637 
L 216.358236 129.049525 
L 216.993121 127.880801 
L 217.628005 115.086889 
L 218.26289 144.19162 
L 218.897774 152.261573 
L 219.532659 99.989746 
L 220.167543 123.828738 
L 220.802428 116.029231 
L 221.437312 97.004257 
L 222.072197 98.062081 
L 222.707081 86.115256 
L 223.341966 93.261998 
L 223.976851 72.729538 
L 224.611735 107.977079 
L 225.24662 104.543453 
L 225.881504 92.778014 
L 226.516389 117.168824 
L 227.151273 125.273304 
L 227.786158 116.368062 
L 228.421042 118.646797 
L 229.055927 150.453689 
L 229.690811 145.898748 
L 230.325696 155.639051 
L 230.96058 154.704989 
L 231.595465 126.202487 
L 232.230349 140.457935 
L 232.865234 151.855508 
L 233.500118 141.665797 
L 234.135003 138.348699 
L 234.769887 144.521004 
L 235.404772 137.455772 
L 236.039656 101.872708 
L 236.674541 115.292657 
L 237.309425 139.612171 
L 237.94431 112.135602 
L 238.579194 130.106327 
L 239.214079 117.671713 
L 239.848963 88.294092 
L 240.483848 98.592704 
L 241.118732 103.277656 
L 241.753617 124.490315 
L 242.388501 119.870958 
L 243.023386 112.026479 
L 243.65827 135.789461 
L 244.293155 134.794804 
L 244.928039 105.070062 
L 245.562924 129.552558 
L 246.197809 115.136425 
L 246.832693 111.802707 
L 247.467578 130.97311 
L 248.102462 126.931084 
L 248.737347 129.068734 
L 249.372231 116.264149 
L 250.007116 119.82884 
L 250.642 134.957501 
L 251.276885 140.096277 
L 251.911769 147.91515 
L 252.546654 154.266711 
L 253.181538 113.725683 
L 254.451307 172.652027 
L 255.086192 185.667726 
L 255.721076 186.145385 
L 256.355961 149.438726 
L 256.990845 167.42873 
L 257.62573 157.149164 
L 258.260614 150.99029 
L 258.895499 139.231481 
L 259.530383 138.541609 
L 260.165268 133.04854 
L 260.800152 131.214138 
L 261.435037 140.892561 
L 262.069921 113.468473 
L 262.704806 112.73294 
L 263.33969 127.836043 
L 263.974575 131.325314 
L 264.609459 108.206252 
L 265.244344 117.292981 
L 265.879228 115.531532 
L 266.514113 122.320042 
L 267.148998 125.118102 
L 267.783882 130.244415 
L 268.418767 137.574758 
L 269.053651 119.727248 
L 270.32342 103.353088 
L 270.958305 82.124634 
L 271.593189 44.278125 
L 272.228074 86.701222 
L 272.862958 105.160794 
L 273.497843 98.834772 
L 274.132727 125.015817 
L 274.767612 124.267879 
L 275.402496 121.66206 
L 276.037381 112.396613 
L 276.672265 107.755263 
L 277.30715 129.313522 
L 277.942034 131.60392 
L 278.576919 138.200844 
L 279.211803 129.422996 
L 279.846688 125.806249 
L 280.481572 126.54194 
L 281.116457 116.818131 
L 281.751341 114.374152 
L 282.386226 117.531642 
L 283.02111 148.142055 
L 283.655995 151.496507 
L 284.290879 129.565216 
L 284.925764 115.223673 
L 285.560648 122.47042 
L 286.195533 104.147316 
L 286.830417 115.362527 
L 287.465302 132.654536 
L 288.100186 144.451265 
L 288.735071 145.005265 
L 289.369956 125.213258 
L 290.00484 126.279895 
L 290.639725 119.144964 
L 291.274609 132.267531 
L 291.909494 164.175663 
L 292.544378 149.18963 
L 293.179263 118.300835 
L 293.814147 138.538705 
L 294.449032 136.740107 
L 295.083916 131.932331 
L 295.718801 117.748025 
L 296.353685 131.082149 
L 296.98857 154.473869 
L 297.623454 131.366948 
L 298.258339 117.014811 
L 298.893223 120.112744 
L 299.528108 131.29193 
L 300.162992 140.409075 
L 300.797877 139.833815 
L 301.432761 155.437972 
L 302.067646 157.599312 
L 302.70253 132.984398 
L 303.337415 138.601471 
L 303.972299 147.194116 
L 304.607184 140.322462 
L 305.242068 137.698818 
L 305.876953 150.09624 
L 306.511837 120.600887 
L 307.146722 131.67434 
L 307.781606 151.105593 
L 308.416491 140.205453 
L 309.051375 136.104929 
L 309.68626 110.682691 
L 310.321145 108.393036 
L 310.956029 121.248146 
L 311.590914 117.433238 
L 312.225798 104.60399 
L 312.860683 102.306002 
L 313.495567 106.713926 
L 314.130452 96.942288 
L 314.765336 113.764497 
L 315.400221 116.294313 
L 316.035105 95.284622 
L 316.66999 121.839222 
L 317.304874 99.006288 
L 317.939759 123.905079 
L 318.574643 103.696463 
L 319.209528 98.312505 
L 319.844412 123.207627 
L 320.479297 86.988136 
L 321.114181 96.662715 
L 321.749066 102.546724 
L 322.38395 121.271109 
L 323.018835 114.504537 
L 323.653719 121.185885 
L 324.288604 101.598293 
L 324.923488 99.302238 
L 325.558373 112.72186 
L 326.193257 115.41442 
L 326.828142 122.049449 
L 327.463026 118.929268 
L 328.097911 120.435404 
L 329.36768 136.678356 
L 330.002564 134.708854 
L 330.637449 153.007342 
L 331.272333 167.665049 
L 331.907218 170.039436 
L 332.542103 138.006197 
L 333.176987 137.215387 
L 333.811872 150.378645 
L 334.446756 147.685488 
L 335.081641 141.569003 
L 335.716525 154.317291 
L 336.35141 150.697534 
L 336.986294 157.686892 
L 337.621179 161.694787 
L 338.256063 139.971645 
L 338.890948 169.982743 
L 339.525832 143.140704 
L 340.160717 138.203135 
L 340.795601 130.985888 
L 341.430486 138.788885 
L 342.06537 143.188597 
L 342.700255 119.416881 
L 343.335139 130.318798 
L 343.970024 101.354367 
L 344.604908 123.991839 
L 345.239793 93.809664 
L 345.874677 97.165826 
L 346.509562 130.726885 
L 347.144446 95.79377 
L 347.779331 91.990008 
L 348.414215 92.811404 
L 349.0491 102.385481 
L 349.683984 130.142034 
L 350.318869 109.055103 
L 350.953753 108.291875 
L 351.588638 110.297759 
L 352.223522 90.469002 
L 352.858407 124.520139 
L 353.493292 116.901387 
L 354.128176 143.089045 
L 355.397945 187.816902 
L 356.03283 188.750957 
L 356.667714 167.818453 
L 357.302599 161.799432 
L 357.937483 139.942306 
L 358.572368 143.579018 
L 359.207252 118.491762 
L 359.842137 113.436754 
L 360.477021 136.168388 
L 361.111906 123.150004 
L 361.74679 121.623058 
L 362.381675 114.686952 
L 363.016559 116.764262 
L 363.651444 116.241488 
L 364.286328 105.445464 
L 364.921213 118.628201 
L 365.556097 121.549672 
L 366.190982 116.668714 
L 366.825866 83.427655 
L 367.460751 96.539977 
L 368.095635 87.093357 
L 368.73052 113.957845 
L 369.365404 148.098653 
L 370.000289 152.758886 
L 370.635173 158.985167 
L 371.270058 141.005867 
L 371.904942 129.577103 
L 372.539827 140.710135 
L 373.174711 143.855606 
L 373.809596 124.783725 
L 374.44448 154.716791 
L 375.079365 141.463753 
L 375.71425 120.214128 
L 376.349134 124.604254 
L 376.984019 155.326349 
L 377.618903 121.906428 
L 378.253788 108.843111 
L 378.888672 133.371626 
L 379.523557 116.412147 
L 380.158441 110.144249 
L 380.793326 106.14553 
L 381.42821 113.172058 
L 382.063095 102.74265 
L 382.697979 132.111008 
L 383.332864 119.990718 
L 383.967748 114.642541 
L 384.602633 140.068788 
L 385.237517 119.970981 
L 385.872402 121.591741 
L 386.507286 136.015111 
L 387.142171 127.229942 
L 388.41194 81.104449 
L 389.046824 124.355037 
L 389.681709 135.56327 
L 390.316593 84.590356 
L 390.951478 105.489457 
L 391.586362 87.190704 
L 392.221247 91.473831 
L 392.856131 123.570373 
L 393.491016 129.133734 
L 394.1259 131.115979 
L 394.760785 136.803613 
L 395.395669 132.301768 
L 396.030554 121.925998 
L 397.300323 150.013355 
L 397.935208 137.634461 
L 398.570092 141.718123 
L 399.204977 176.343912 
L 399.839861 132.111205 
L 400.474746 149.608332 
L 401.10963 132.13728 
L 401.744515 122.951861 
L 402.379399 168.8539 
L 403.014284 167.058512 
L 404.284053 111.732612 
L 404.918937 122.571524 
L 405.553822 99.5255 
L 406.188706 124.714279 
L 406.823591 111.460664 
L 407.458475 120.535295 
L 408.09336 125.703202 
L 408.728244 120.94336 
L 409.363129 156.070729 
L 409.998013 131.666231 
L 410.632898 136.470811 
L 411.267782 147.511595 
L 411.902667 137.050622 
L 412.537551 130.526414 
L 413.172436 141.138576 
L 413.80732 142.796362 
L 414.442205 136.65183 
L 415.077089 134.312001 
L 415.711974 150.590588 
L 416.346858 148.202347 
L 416.981743 136.93703 
L 417.616627 136.769227 
L 418.251512 130.727992 
L 418.886397 129.351328 
L 419.521281 122.733462 
L 420.156166 110.445286 
L 420.79105 112.92439 
L 421.425935 97.888166 
L 422.060819 93.803817 
L 422.695704 131.93234 
L 423.965473 115.998787 
L 424.600357 127.614201 
L 425.235242 105.268361 
L 425.870126 99.496989 
L 426.505011 134.215978 
L 427.139895 86.236437 
L 427.77478 102.208696 
L 428.409664 106.268164 
L 429.044549 79.923642 
L 429.679433 110.197627 
L 430.314318 89.17641 
L 430.949202 108.412692 
L 431.584087 113.281117 
L 432.218971 115.309426 
L 432.853856 114.878109 
L 433.48874 131.46762 
L 434.123625 117.566985 
L 434.758509 119.508072 
L 435.393394 129.441457 
L 436.028278 124.824641 
L 436.663163 122.960032 
L 437.298047 109.450379 
L 437.932932 132.09184 
L 438.567816 125.682009 
L 439.202701 129.282073 
L 439.837586 162.016326 
L 440.47247 170.893034 
L 441.107355 150.051285 
L 441.742239 190.242612 
L 443.012008 164.895937 
L 443.646893 164.724659 
L 444.281777 125.867458 
L 444.916662 142.005292 
L 445.551546 139.807841 
L 446.186431 135.523119 
L 446.821315 157.816032 
L 447.4562 130.365635 
L 448.091084 128.120284 
L 448.725969 130.007231 
L 449.360853 90.937702 
L 449.995738 120.662041 
L 450.630622 131.91443 
L 451.265507 129.916886 
L 451.900391 122.856489 
L 452.535276 126.699286 
L 453.17016 104.60399 
L 453.805045 105.789038 
L 454.439929 129.507784 
L 455.074814 134.965262 
L 456.344583 112.987446 
L 456.979467 123.262233 
L 457.614352 113.961384 
L 458.249236 133.574121 
L 458.884121 130.947246 
L 459.519005 143.475808 
L 460.15389 134.027558 
L 460.788774 109.846 
L 461.423659 114.573437 
L 462.058544 109.698845 
L 462.693428 122.0343 
L 463.328313 127.479319 
L 463.963197 103.541947 
L 464.598082 147.046866 
L 465.232966 133.864329 
L 465.867851 114.309362 
L 466.502735 134.857617 
L 467.13762 116.593837 
L 467.772504 127.832979 
L 468.407389 144.07856 
L 469.042273 126.042956 
L 469.677158 88.076929 
L 470.312042 132.950229 
L 470.946927 123.342 
L 471.581811 126.127924 
L 472.216696 136.054739 
L 472.85158 120.499811 
L 473.486465 148.659415 
L 474.121349 120.633201 
L 474.756234 105.996402 
L 475.391118 112.123999 
L 476.026003 106.975588 
L 476.660887 130.586309 
L 477.295772 113.682603 
L 477.930656 91.486213 
L 478.565541 119.819768 
L 479.200425 128.752091 
L 479.83531 126.557429 
L 480.470194 130.844742 
L 481.105079 151.728575 
L 482.374848 121.74881 
L 483.009733 130.701886 
L 483.644617 131.466141 
L 484.279502 124.473201 
L 484.914386 132.575061 
L 485.549271 135.442354 
L 486.184155 141.728747 
L 486.81904 133.742198 
L 487.453924 102.570025 
L 488.088809 110.773617 
L 488.723693 109.366892 
L 489.358578 121.742587 
L 489.993462 121.872094 
L 490.628347 120.665643 
L 491.263231 144.112892 
L 491.898116 137.436295 
L 492.533 128.957373 
L 493.167885 150.777374 
L 493.802769 154.602563 
L 494.437654 162.402598 
L 495.072538 149.202521 
L 495.707423 118.833331 
L 496.342307 127.144352 
L 496.977192 114.336865 
L 497.612076 116.033957 
L 498.246961 117.283494 
L 498.881845 126.800223 
L 499.51673 162.733631 
L 500.151614 138.174766 
L 500.786499 136.278128 
L 501.421383 163.380975 
L 502.056268 151.16336 
L 502.691152 124.807829 
L 503.326037 105.056253 
L 503.960921 112.131061 
L 504.595806 112.362296 
L 505.230691 100.616696 
L 505.865575 104.105945 
L 506.50046 119.562508 
L 507.135344 95.253301 
L 507.770229 83.281776 
L 508.405113 100.203223 
L 509.039998 105.567752 
L 509.674882 100.01676 
L 510.309767 121.420982 
L 510.944651 148.767923 
L 511.579536 136.553413 
L 512.21442 144.160339 
L 512.849305 158.979917 
L 513.484189 133.938868 
L 514.119074 140.956713 
L 514.753958 127.899668 
L 515.388843 120.980224 
L 516.023727 132.95492 
L 516.658612 132.959827 
L 517.293496 164.04882 
L 517.928381 138.388851 
L 518.563265 137.221139 
L 519.19815 121.206727 
L 519.833034 135.776577 
L 520.467919 117.692929 
L 521.737688 154.371794 
L 522.372572 127.657215 
L 523.007457 127.27262 
L 523.642341 101.836234 
L 524.277226 122.700123 
L 524.91211 100.505306 
L 525.546995 124.604025 
L 526.18188 139.724415 
L 527.451649 121.182169 
L 528.086533 130.054301 
L 528.721418 119.634867 
L 529.356302 124.354276 
L 529.991187 131.673994 
L 530.626071 123.323836 
L 531.260956 140.104703 
L 531.89584 123.459128 
L 532.530725 103.013326 
L 533.165609 122.985417 
L 533.800494 127.95017 
L 534.435378 85.646148 
L 535.070263 79.275783 
L 535.705147 69.483358 
L 536.340032 115.09993 
L 536.974916 127.961093 
L 537.609801 153.784839 
L 538.244685 144.971513 
L 538.87957 128.624569 
L 539.514454 156.188238 
L 540.149339 124.67866 
L 540.784223 136.920555 
L 541.419108 137.331606 
L 542.053992 143.525063 
L 542.688877 131.513054 
L 543.323761 142.085824 
L 543.958646 145.752129 
L 544.59353 133.16746 
L 545.228415 149.600556 
L 545.863299 139.748654 
L 546.498184 128.134298 
L 547.133069 120.420559 
L 548.402838 113.68725 
L 549.037722 115.686811 
L 549.672607 137.937259 
L 550.307491 139.675336 
L 550.942376 113.835325 
L 551.57726 132.642952 
L 552.847029 107.802389 
L 553.481914 116.652595 
L 554.116798 128.948293 
L 554.751683 135.563554 
L 555.386567 135.696321 
L 556.021452 131.489469 
L 556.656336 114.805067 
L 557.291221 117.671826 
L 557.926105 102.480824 
L 558.56099 129.1885 
L 559.195874 133.791028 
L 559.830759 128.670544 
L 560.465643 137.45966 
L 561.100528 121.282024 
L 561.735412 121.551453 
L 562.370297 144.951947 
L 563.005181 138.398821 
L 563.640066 126.656993 
L 564.27495 146.625118 
L 564.909835 124.452552 
L 565.544719 128.992826 
L 566.179604 123.391037 
L 566.814488 121.146215 
L 567.449373 121.754562 
L 568.084257 118.482525 
L 568.719142 120.702228 
L 569.354027 93.979651 
L 569.988911 120.239432 
L 570.623796 111.454873 
L 571.25868 105.416095 
L 571.893565 119.182718 
L 572.528449 117.038248 
L 573.163334 118.333624 
L 573.798218 117.724126 
L 574.433103 128.475172 
L 575.067987 135.055995 
L 575.702872 147.325405 
L 576.337756 143.156821 
L 576.972641 166.271997 
L 577.607525 181.693209 
L 578.24241 173.821006 
L 578.877294 163.862262 
L 579.512179 140.076866 
L 580.147063 133.363186 
L 580.781948 120.22497 
L 581.416832 111.475094 
L 582.051717 119.435037 
L 582.686601 121.776783 
L 583.321486 119.880868 
L 583.95637 114.262597 
L 584.591255 105.460151 
L 585.226139 105.615491 
L 585.861024 90.538883 
L 586.495908 64.230111 
L 587.130793 81.433839 
L 587.765677 90.15295 
L 588.400562 81.011395 
L 589.035446 86.246978 
L 589.670331 81.789761 
L 590.305216 108.29585 
L 590.9401 153.898131 
L 591.574985 158.04305 
L 592.209869 153.034304 
L 592.844754 175.717991 
L 593.479638 190.14635 
L 594.114523 187.206622 
L 594.749407 177.271678 
L 595.384292 131.584917 
L 596.019176 118.429369 
L 596.019176 118.429369 
" clip-path="url(#p2fa94188e2)" style="fill: none; stroke: #1f77b4; stroke-width: 1.5; stroke-linecap: square"/>
   </g>
   <g id="line2d_17">
    <path d="M 342.700255 119.416881 
L 343.335139 130.318798 
L 343.970024 101.354367 
L 344.604908 123.991839 
L 345.239793 93.809664 
L 345.874677 97.165826 
L 346.509562 130.726885 
L 347.144446 95.79377 
L 347.779331 91.990008 
L 348.414215 92.811404 
L 349.0491 102.385481 
L 349.683984 130.142034 
L 350.318869 109.055103 
L 350.953753 108.291875 
L 351.588638 110.297759 
L 352.223522 90.469002 
L 352.858407 124.520139 
L 353.493292 116.901387 
L 354.128176 143.089045 
L 354.763061 164.600189 
L 355.397945 187.816902 
L 356.03283 188.750957 
L 356.667714 167.818453 
L 357.302599 161.799432 
L 357.937483 139.942306 
L 358.572368 143.579018 
L 359.207252 118.491762 
L 359.842137 113.436754 
L 360.477021 136.168388 
L 361.111906 123.150004 
L 361.74679 121.623058 
L 362.381675 114.686952 
L 363.016559 116.764262 
L 363.651444 116.241488 
L 364.286328 105.445464 
L 364.921213 118.628201 
L 365.556097 121.549672 
L 366.190982 116.668714 
L 366.825866 83.427655 
L 367.460751 96.539977 
" clip-path="url(#p2fa94188e2)" style="fill: none; stroke: #ff0000; stroke-width: 1.5; stroke-linecap: square"/>
   </g>
   <g id="patch_3">
    <path d="M 63.382812 203.038125 
L 63.382812 36.718125 
" style="fill: none; stroke: #000000; stroke-width: 0.8; stroke-linejoin: miter; stroke-linecap: square"/>
   </g>
   <g id="patch_4">
    <path d="M 621.382812 203.038125 
L 621.382812 36.718125 
" style="fill: none; stroke: #000000; stroke-width: 0.8; stroke-linejoin: miter; stroke-linecap: square"/>
   </g>
   <g id="patch_5">
    <path d="M 63.382812 203.038125 
L 621.382812 203.038125 
" style="fill: none; stroke: #000000; stroke-width: 0.8; stroke-linejoin: miter; stroke-linecap: square"/>
   </g>
   <g id="patch_6">
    <path d="M 63.382812 36.718125 
L 621.382812 36.718125 
" style="fill: none; stroke: #000000; stroke-width: 0.8; stroke-linejoin: miter; stroke-linecap: square"/>
   </g>
   <g id="text_18">
    <!-- Channel:24, Time stamp : 1017083 -->
    <g transform="translate(236.327188 30.718125) scale(0.12 -0.12)">
     <defs>
      <path id="DejaVuSans-43" d="M 4122 4306 
L 4122 3641 
Q 3803 3938 3442 4084 
Q 3081 4231 2675 4231 
Q 1875 4231 1450 3742 
Q 1025 3253 1025 2328 
Q 1025 1406 1450 917 
Q 1875 428 2675 428 
Q 3081 428 3442 575 
Q 3803 722 4122 1019 
L 4122 359 
Q 3791 134 3420 21 
Q 3050 -91 2638 -91 
Q 1578 -91 968 557 
Q 359 1206 359 2328 
Q 359 3453 968 4101 
Q 1578 4750 2638 4750 
Q 3056 4750 3426 4639 
Q 3797 4528 4122 4306 
z
" transform="scale(0.015625)"/>
      <path id="DejaVuSans-68" d="M 3513 2113 
L 3513 0 
L 2938 0 
L 2938 2094 
Q 2938 2591 2744 2837 
Q 2550 3084 2163 3084 
Q 1697 3084 1428 2787 
Q 1159 2491 1159 1978 
L 1159 0 
L 581 0 
L 581 4863 
L 1159 4863 
L 1159 2956 
Q 1366 3272 1645 3428 
Q 1925 3584 2291 3584 
Q 2894 3584 3203 3211 
Q 3513 2838 3513 2113 
z
" transform="scale(0.015625)"/>
      <path id="DejaVuSans-6e" d="M 3513 2113 
L 3513 0 
L 2938 0 
L 2938 2094 
Q 2938 2591 2744 2837 
Q 2550 3084 2163 3084 
Q 1697 3084 1428 2787 
Q 1159 2491 1159 1978 
L 1159 0 
L 581 0 
L 581 3500 
L 1159 3500 
L 1159 2956 
Q 1366 3272 1645 3428 
Q 1925 3584 2291 3584 
Q 2894 3584 3203 3211 
Q 3513 2838 3513 2113 
z
" transform="scale(0.015625)"/>
      <path id="DejaVuSans-3a" d="M 750 794 
L 1409 794 
L 1409 0 
L 750 0 
L 750 794 
z
M 750 3309 
L 1409 3309 
L 1409 2516 
L 750 2516 
L 750 3309 
z
" transform="scale(0.015625)"/>
      <path id="DejaVuSans-34" d="M 2419 4116 
L 825 1625 
L 2419 1625 
L 2419 4116 
z
M 2253 4666 
L 3047 4666 
L 3047 1625 
L 3713 1625 
L 3713 1100 
L 3047 1100 
L 3047 0 
L 2419 0 
L 2419 1100 
L 313 1100 
L 313 1709 
L 2253 4666 
z
" transform="scale(0.015625)"/>
      <path id="DejaVuSans-2c" d="M 750 794 
L 1409 794 
L 1409 256 
L 897 -744 
L 494 -744 
L 750 256 
L 750 794 
z
" transform="scale(0.015625)"/>
      <path id="DejaVuSans-70" d="M 1159 525 
L 1159 -1331 
L 581 -1331 
L 581 3500 
L 1159 3500 
L 1159 2969 
Q 1341 3281 1617 3432 
Q 1894 3584 2278 3584 
Q 2916 3584 3314 3078 
Q 3713 2572 3713 1747 
Q 3713 922 3314 415 
Q 2916 -91 2278 -91 
Q 1894 -91 1617 61 
Q 1341 213 1159 525 
z
M 3116 1747 
Q 3116 2381 2855 2742 
Q 2594 3103 2138 3103 
Q 1681 3103 1420 2742 
Q 1159 2381 1159 1747 
Q 1159 1113 1420 752 
Q 1681 391 2138 391 
Q 2594 391 2855 752 
Q 3116 1113 3116 1747 
z
" transform="scale(0.015625)"/>
      <path id="DejaVuSans-37" d="M 525 4666 
L 3525 4666 
L 3525 4397 
L 1831 0 
L 1172 0 
L 2766 4134 
L 525 4134 
L 525 4666 
z
" transform="scale(0.015625)"/>
      <path id="DejaVuSans-38" d="M 2034 2216 
Q 1584 2216 1326 1975 
Q 1069 1734 1069 1313 
Q 1069 891 1326 650 
Q 1584 409 2034 409 
Q 2484 409 2743 651 
Q 3003 894 3003 1313 
Q 3003 1734 2745 1975 
Q 2488 2216 2034 2216 
z
M 1403 2484 
Q 997 2584 770 2862 
Q 544 3141 544 3541 
Q 544 4100 942 4425 
Q 1341 4750 2034 4750 
Q 2731 4750 3128 4425 
Q 3525 4100 3525 3541 
Q 3525 3141 3298 2862 
Q 3072 2584 2669 2484 
Q 3125 2378 3379 2068 
Q 3634 1759 3634 1313 
Q 3634 634 3220 271 
Q 2806 -91 2034 -91 
Q 1263 -91 848 271 
Q 434 634 434 1313 
Q 434 1759 690 2068 
Q 947 2378 1403 2484 
z
M 1172 3481 
Q 1172 3119 1398 2916 
Q 1625 2713 2034 2713 
Q 2441 2713 2670 2916 
Q 2900 3119 2900 3481 
Q 2900 3844 2670 4047 
Q 2441 4250 2034 4250 
Q 1625 4250 1398 4047 
Q 1172 3844 1172 3481 
z
" transform="scale(0.015625)"/>
     </defs>
     <use xlink:href="#DejaVuSans-43"/>
     <use xlink:href="#DejaVuSans-68" x="69.824219"/>
     <use xlink:href="#DejaVuSans-61" x="133.203125"/>
     <use xlink:href="#DejaVuSans-6e" x="194.482422"/>
     <use xlink:href="#DejaVuSans-6e" x="257.861328"/>
     <use xlink:href="#DejaVuSans-65" x="321.240234"/>
     <use xlink:href="#DejaVuSans-6c" x="382.763672"/>
     <use xlink:href="#DejaVuSans-3a" x="410.546875"/>
     <use xlink:href="#DejaVuSans-32" x="444.238281"/>
     <use xlink:href="#DejaVuSans-34" x="507.861328"/>
     <use xlink:href="#DejaVuSans-2c" x="571.484375"/>
     <use xlink:href="#DejaVuSans-20" x="603.271484"/>
     <use xlink:href="#DejaVuSans-54" x="635.058594"/>
     <use xlink:href="#DejaVuSans-69" x="693.017578"/>
     <use xlink:href="#DejaVuSans-6d" x="720.800781"/>
     <use xlink:href="#DejaVuSans-65" x="818.212891"/>
     <use xlink:href="#DejaVuSans-20" x="879.736328"/>
     <use xlink:href="#DejaVuSans-73" x="911.523438"/>
     <use xlink:href="#DejaVuSans-74" x="963.623047"/>
     <use xlink:href="#DejaVuSans-61" x="1002.832031"/>
     <use xlink:href="#DejaVuSans-6d" x="1064.111328"/>
     <use xlink:href="#DejaVuSans-70" x="1161.523438"/>
     <use xlink:href="#DejaVuSans-20" x="1225"/>
     <use xlink:href="#DejaVuSans-3a" x="1256.787109"/>
     <use xlink:href="#DejaVuSans-20" x="1290.478516"/>
     <use xlink:href="#DejaVuSans-31" x="1322.265625"/>
     <use xlink:href="#DejaVuSans-30" x="1385.888672"/>
     <use xlink:href="#DejaVuSans-31" x="1449.511719"/>
     <use xlink:href="#DejaVuSans-37" x="1513.134766"/>
     <use xlink:href="#DejaVuSans-30" x="1576.757812"/>
     <use xlink:href="#DejaVuSans-38" x="1640.380859"/>
     <use xlink:href="#DejaVuSans-33" x="1704.003906"/>
    </g>
   </g>
  </g>
 </g>
 <defs>
  <clipPath id="p2fa94188e2">
   <rect x="63.382812" y="36.718125" width="558" height="166.32"/>
  </clipPath>
 </defs>
</svg>
