<?xml version="1.0" encoding="utf-8" standalone="no"?>
<!DOCTYPE svg PUBLIC "-//W3C//DTD SVG 1.1//EN"
  "http://www.w3.org/Graphics/SVG/1.1/DTD/svg11.dtd">
<svg xmlns:xlink="http://www.w3.org/1999/xlink" width="642.982813pt" height="254.994375pt" viewBox="0 0 642.982813 254.994375" xmlns="http://www.w3.org/2000/svg" version="1.1">
 <metadata>
  <rdf:RDF xmlns:dc="http://purl.org/dc/elements/1.1/" xmlns:cc="http://creativecommons.org/ns#" xmlns:rdf="http://www.w3.org/1999/02/22-rdf-syntax-ns#">
   <cc:Work>
    <dc:type rdf:resource="http://purl.org/dc/dcmitype/StillImage"/>
    <dc:date>2024-02-26T10:41:43.516207</dc:date>
    <dc:format>image/svg+xml</dc:format>
    <dc:creator>
     <cc:Agent>
      <dc:title>Matplotlib v3.7.1, https://matplotlib.org/</dc:title>
     </cc:Agent>
    </dc:creator>
   </cc:Work>
  </rdf:RDF>
 </metadata>
 <defs>
  <style type="text/css">*{stroke-linejoin: round; stroke-linecap: butt}</style>
 </defs>
 <g id="figure_1">
  <g id="patch_1">
   <path d="M 0 254.994375 
L 642.982813 254.994375 
L 642.982813 -0 
L 0 -0 
z
" style="fill: #ffffff"/>
  </g>
  <g id="axes_1">
   <g id="patch_2">
    <path d="M 63.382812 203.038125 
L 621.382812 203.038125 
L 621.382812 36.718125 
L 63.382812 36.718125 
z
" style="fill: #ffffff"/>
   </g>
   <g id="matplotlib.axis_1">
    <g id="xtick_1">
     <g id="line2d_1">
      <defs>
       <path id="m880082117f" d="M 0 0 
L 0 3.5 
" style="stroke: #000000; stroke-width: 0.8"/>
      </defs>
      <g>
       <use xlink:href="#m880082117f" x="88.746449" y="203.038125" style="stroke: #000000; stroke-width: 0.8"/>
      </g>
     </g>
     <g id="text_1">
      <!-- −20 -->
      <g transform="translate(78.194105 217.636562) scale(0.1 -0.1)">
       <defs>
        <path id="DejaVuSans-2212" d="M 678 2272 
L 4684 2272 
L 4684 1741 
L 678 1741 
L 678 2272 
z
" transform="scale(0.015625)"/>
        <path id="DejaVuSans-32" d="M 1228 531 
L 3431 531 
L 3431 0 
L 469 0 
L 469 531 
Q 828 903 1448 1529 
Q 2069 2156 2228 2338 
Q 2531 2678 2651 2914 
Q 2772 3150 2772 3378 
Q 2772 3750 2511 3984 
Q 2250 4219 1831 4219 
Q 1534 4219 1204 4116 
Q 875 4013 500 3803 
L 500 4441 
Q 881 4594 1212 4672 
Q 1544 4750 1819 4750 
Q 2544 4750 2975 4387 
Q 3406 4025 3406 3419 
Q 3406 3131 3298 2873 
Q 3191 2616 2906 2266 
Q 2828 2175 2409 1742 
Q 1991 1309 1228 531 
z
" transform="scale(0.015625)"/>
        <path id="DejaVuSans-30" d="M 2034 4250 
Q 1547 4250 1301 3770 
Q 1056 3291 1056 2328 
Q 1056 1369 1301 889 
Q 1547 409 2034 409 
Q 2525 409 2770 889 
Q 3016 1369 3016 2328 
Q 3016 3291 2770 3770 
Q 2525 4250 2034 4250 
z
M 2034 4750 
Q 2819 4750 3233 4129 
Q 3647 3509 3647 2328 
Q 3647 1150 3233 529 
Q 2819 -91 2034 -91 
Q 1250 -91 836 529 
Q 422 1150 422 2328 
Q 422 3509 836 4129 
Q 1250 4750 2034 4750 
z
" transform="scale(0.015625)"/>
       </defs>
       <use xlink:href="#DejaVuSans-2212"/>
       <use xlink:href="#DejaVuSans-32" x="83.789062"/>
       <use xlink:href="#DejaVuSans-30" x="147.412109"/>
      </g>
     </g>
    </g>
    <g id="xtick_2">
     <g id="line2d_2">
      <g>
       <use xlink:href="#m880082117f" x="152.15554" y="203.038125" style="stroke: #000000; stroke-width: 0.8"/>
      </g>
     </g>
     <g id="text_2">
      <!-- −15 -->
      <g transform="translate(141.603196 217.636562) scale(0.1 -0.1)">
       <defs>
        <path id="DejaVuSans-31" d="M 794 531 
L 1825 531 
L 1825 4091 
L 703 3866 
L 703 4441 
L 1819 4666 
L 2450 4666 
L 2450 531 
L 3481 531 
L 3481 0 
L 794 0 
L 794 531 
z
" transform="scale(0.015625)"/>
        <path id="DejaVuSans-35" d="M 691 4666 
L 3169 4666 
L 3169 4134 
L 1269 4134 
L 1269 2991 
Q 1406 3038 1543 3061 
Q 1681 3084 1819 3084 
Q 2600 3084 3056 2656 
Q 3513 2228 3513 1497 
Q 3513 744 3044 326 
Q 2575 -91 1722 -91 
Q 1428 -91 1123 -41 
Q 819 9 494 109 
L 494 744 
Q 775 591 1075 516 
Q 1375 441 1709 441 
Q 2250 441 2565 725 
Q 2881 1009 2881 1497 
Q 2881 1984 2565 2268 
Q 2250 2553 1709 2553 
Q 1456 2553 1204 2497 
Q 953 2441 691 2322 
L 691 4666 
z
" transform="scale(0.015625)"/>
       </defs>
       <use xlink:href="#DejaVuSans-2212"/>
       <use xlink:href="#DejaVuSans-31" x="83.789062"/>
       <use xlink:href="#DejaVuSans-35" x="147.412109"/>
      </g>
     </g>
    </g>
    <g id="xtick_3">
     <g id="line2d_3">
      <g>
       <use xlink:href="#m880082117f" x="215.564631" y="203.038125" style="stroke: #000000; stroke-width: 0.8"/>
      </g>
     </g>
     <g id="text_3">
      <!-- −10 -->
      <g transform="translate(205.012287 217.636562) scale(0.1 -0.1)">
       <use xlink:href="#DejaVuSans-2212"/>
       <use xlink:href="#DejaVuSans-31" x="83.789062"/>
       <use xlink:href="#DejaVuSans-30" x="147.412109"/>
      </g>
     </g>
    </g>
    <g id="xtick_4">
     <g id="line2d_4">
      <g>
       <use xlink:href="#m880082117f" x="278.973722" y="203.038125" style="stroke: #000000; stroke-width: 0.8"/>
      </g>
     </g>
     <g id="text_4">
      <!-- −5 -->
      <g transform="translate(271.602628 217.636562) scale(0.1 -0.1)">
       <use xlink:href="#DejaVuSans-2212"/>
       <use xlink:href="#DejaVuSans-35" x="83.789062"/>
      </g>
     </g>
    </g>
    <g id="xtick_5">
     <g id="line2d_5">
      <g>
       <use xlink:href="#m880082117f" x="342.382812" y="203.038125" style="stroke: #000000; stroke-width: 0.8"/>
      </g>
     </g>
     <g id="text_5">
      <!-- 0 -->
      <g transform="translate(339.201563 217.636562) scale(0.1 -0.1)">
       <use xlink:href="#DejaVuSans-30"/>
      </g>
     </g>
    </g>
    <g id="xtick_6">
     <g id="line2d_6">
      <g>
       <use xlink:href="#m880082117f" x="405.791903" y="203.038125" style="stroke: #000000; stroke-width: 0.8"/>
      </g>
     </g>
     <g id="text_6">
      <!-- 5 -->
      <g transform="translate(402.610653 217.636562) scale(0.1 -0.1)">
       <use xlink:href="#DejaVuSans-35"/>
      </g>
     </g>
    </g>
    <g id="xtick_7">
     <g id="line2d_7">
      <g>
       <use xlink:href="#m880082117f" x="469.200994" y="203.038125" style="stroke: #000000; stroke-width: 0.8"/>
      </g>
     </g>
     <g id="text_7">
      <!-- 10 -->
      <g transform="translate(462.838494 217.636562) scale(0.1 -0.1)">
       <use xlink:href="#DejaVuSans-31"/>
       <use xlink:href="#DejaVuSans-30" x="63.623047"/>
      </g>
     </g>
    </g>
    <g id="xtick_8">
     <g id="line2d_8">
      <g>
       <use xlink:href="#m880082117f" x="532.610085" y="203.038125" style="stroke: #000000; stroke-width: 0.8"/>
      </g>
     </g>
     <g id="text_8">
      <!-- 15 -->
      <g transform="translate(526.247585 217.636562) scale(0.1 -0.1)">
       <use xlink:href="#DejaVuSans-31"/>
       <use xlink:href="#DejaVuSans-35" x="63.623047"/>
      </g>
     </g>
    </g>
    <g id="xtick_9">
     <g id="line2d_9">
      <g>
       <use xlink:href="#m880082117f" x="596.019176" y="203.038125" style="stroke: #000000; stroke-width: 0.8"/>
      </g>
     </g>
     <g id="text_9">
      <!-- 20 -->
      <g transform="translate(589.656676 217.636562) scale(0.1 -0.1)">
       <use xlink:href="#DejaVuSans-32"/>
       <use xlink:href="#DejaVuSans-30" x="63.623047"/>
      </g>
     </g>
    </g>
    <g id="text_10">
     <!-- Time [ms] -->
     <g transform="translate(317.183594 231.314687) scale(0.1 -0.1)">
      <defs>
       <path id="DejaVuSans-54" d="M -19 4666 
L 3928 4666 
L 3928 4134 
L 2272 4134 
L 2272 0 
L 1638 0 
L 1638 4134 
L -19 4134 
L -19 4666 
z
" transform="scale(0.015625)"/>
       <path id="DejaVuSans-69" d="M 603 3500 
L 1178 3500 
L 1178 0 
L 603 0 
L 603 3500 
z
M 603 4863 
L 1178 4863 
L 1178 4134 
L 603 4134 
L 603 4863 
z
" transform="scale(0.015625)"/>
       <path id="DejaVuSans-6d" d="M 3328 2828 
Q 3544 3216 3844 3400 
Q 4144 3584 4550 3584 
Q 5097 3584 5394 3201 
Q 5691 2819 5691 2113 
L 5691 0 
L 5113 0 
L 5113 2094 
Q 5113 2597 4934 2840 
Q 4756 3084 4391 3084 
Q 3944 3084 3684 2787 
Q 3425 2491 3425 1978 
L 3425 0 
L 2847 0 
L 2847 2094 
Q 2847 2600 2669 2842 
Q 2491 3084 2119 3084 
Q 1678 3084 1418 2786 
Q 1159 2488 1159 1978 
L 1159 0 
L 581 0 
L 581 3500 
L 1159 3500 
L 1159 2956 
Q 1356 3278 1631 3431 
Q 1906 3584 2284 3584 
Q 2666 3584 2933 3390 
Q 3200 3197 3328 2828 
z
" transform="scale(0.015625)"/>
       <path id="DejaVuSans-65" d="M 3597 1894 
L 3597 1613 
L 953 1613 
Q 991 1019 1311 708 
Q 1631 397 2203 397 
Q 2534 397 2845 478 
Q 3156 559 3463 722 
L 3463 178 
Q 3153 47 2828 -22 
Q 2503 -91 2169 -91 
Q 1331 -91 842 396 
Q 353 884 353 1716 
Q 353 2575 817 3079 
Q 1281 3584 2069 3584 
Q 2775 3584 3186 3129 
Q 3597 2675 3597 1894 
z
M 3022 2063 
Q 3016 2534 2758 2815 
Q 2500 3097 2075 3097 
Q 1594 3097 1305 2825 
Q 1016 2553 972 2059 
L 3022 2063 
z
" transform="scale(0.015625)"/>
       <path id="DejaVuSans-20" transform="scale(0.015625)"/>
       <path id="DejaVuSans-5b" d="M 550 4863 
L 1875 4863 
L 1875 4416 
L 1125 4416 
L 1125 -397 
L 1875 -397 
L 1875 -844 
L 550 -844 
L 550 4863 
z
" transform="scale(0.015625)"/>
       <path id="DejaVuSans-73" d="M 2834 3397 
L 2834 2853 
Q 2591 2978 2328 3040 
Q 2066 3103 1784 3103 
Q 1356 3103 1142 2972 
Q 928 2841 928 2578 
Q 928 2378 1081 2264 
Q 1234 2150 1697 2047 
L 1894 2003 
Q 2506 1872 2764 1633 
Q 3022 1394 3022 966 
Q 3022 478 2636 193 
Q 2250 -91 1575 -91 
Q 1294 -91 989 -36 
Q 684 19 347 128 
L 347 722 
Q 666 556 975 473 
Q 1284 391 1588 391 
Q 1994 391 2212 530 
Q 2431 669 2431 922 
Q 2431 1156 2273 1281 
Q 2116 1406 1581 1522 
L 1381 1569 
Q 847 1681 609 1914 
Q 372 2147 372 2553 
Q 372 3047 722 3315 
Q 1072 3584 1716 3584 
Q 2034 3584 2315 3537 
Q 2597 3491 2834 3397 
z
" transform="scale(0.015625)"/>
       <path id="DejaVuSans-5d" d="M 1947 4863 
L 1947 -844 
L 622 -844 
L 622 -397 
L 1369 -397 
L 1369 4416 
L 622 4416 
L 622 4863 
L 1947 4863 
z
" transform="scale(0.015625)"/>
      </defs>
      <use xlink:href="#DejaVuSans-54"/>
      <use xlink:href="#DejaVuSans-69" x="57.958984"/>
      <use xlink:href="#DejaVuSans-6d" x="85.742188"/>
      <use xlink:href="#DejaVuSans-65" x="183.154297"/>
      <use xlink:href="#DejaVuSans-20" x="244.677734"/>
      <use xlink:href="#DejaVuSans-5b" x="276.464844"/>
      <use xlink:href="#DejaVuSans-6d" x="315.478516"/>
      <use xlink:href="#DejaVuSans-73" x="412.890625"/>
      <use xlink:href="#DejaVuSans-5d" x="464.990234"/>
     </g>
    </g>
   </g>
   <g id="matplotlib.axis_2">
    <g id="ytick_1">
     <g id="line2d_10">
      <defs>
       <path id="m1fd265704b" d="M 0 0 
L -3.5 0 
" style="stroke: #000000; stroke-width: 0.8"/>
      </defs>
      <g>
       <use xlink:href="#m1fd265704b" x="63.382812" y="201.453968" style="stroke: #000000; stroke-width: 0.8"/>
      </g>
     </g>
     <g id="text_11">
      <!-- −30 -->
      <g transform="translate(35.278125 205.253187) scale(0.1 -0.1)">
       <defs>
        <path id="DejaVuSans-33" d="M 2597 2516 
Q 3050 2419 3304 2112 
Q 3559 1806 3559 1356 
Q 3559 666 3084 287 
Q 2609 -91 1734 -91 
Q 1441 -91 1130 -33 
Q 819 25 488 141 
L 488 750 
Q 750 597 1062 519 
Q 1375 441 1716 441 
Q 2309 441 2620 675 
Q 2931 909 2931 1356 
Q 2931 1769 2642 2001 
Q 2353 2234 1838 2234 
L 1294 2234 
L 1294 2753 
L 1863 2753 
Q 2328 2753 2575 2939 
Q 2822 3125 2822 3475 
Q 2822 3834 2567 4026 
Q 2313 4219 1838 4219 
Q 1578 4219 1281 4162 
Q 984 4106 628 3988 
L 628 4550 
Q 988 4650 1302 4700 
Q 1616 4750 1894 4750 
Q 2613 4750 3031 4423 
Q 3450 4097 3450 3541 
Q 3450 3153 3228 2886 
Q 3006 2619 2597 2516 
z
" transform="scale(0.015625)"/>
       </defs>
       <use xlink:href="#DejaVuSans-2212"/>
       <use xlink:href="#DejaVuSans-33" x="83.789062"/>
       <use xlink:href="#DejaVuSans-30" x="147.412109"/>
      </g>
     </g>
    </g>
    <g id="ytick_2">
     <g id="line2d_11">
      <g>
       <use xlink:href="#m1fd265704b" x="63.382812" y="168.698907" style="stroke: #000000; stroke-width: 0.8"/>
      </g>
     </g>
     <g id="text_12">
      <!-- −20 -->
      <g transform="translate(35.278125 172.498126) scale(0.1 -0.1)">
       <use xlink:href="#DejaVuSans-2212"/>
       <use xlink:href="#DejaVuSans-32" x="83.789062"/>
       <use xlink:href="#DejaVuSans-30" x="147.412109"/>
      </g>
     </g>
    </g>
    <g id="ytick_3">
     <g id="line2d_12">
      <g>
       <use xlink:href="#m1fd265704b" x="63.382812" y="135.943846" style="stroke: #000000; stroke-width: 0.8"/>
      </g>
     </g>
     <g id="text_13">
      <!-- −10 -->
      <g transform="translate(35.278125 139.743065) scale(0.1 -0.1)">
       <use xlink:href="#DejaVuSans-2212"/>
       <use xlink:href="#DejaVuSans-31" x="83.789062"/>
       <use xlink:href="#DejaVuSans-30" x="147.412109"/>
      </g>
     </g>
    </g>
    <g id="ytick_4">
     <g id="line2d_13">
      <g>
       <use xlink:href="#m1fd265704b" x="63.382812" y="103.188785" style="stroke: #000000; stroke-width: 0.8"/>
      </g>
     </g>
     <g id="text_14">
      <!-- 0 -->
      <g transform="translate(50.020313 106.988004) scale(0.1 -0.1)">
       <use xlink:href="#DejaVuSans-30"/>
      </g>
     </g>
    </g>
    <g id="ytick_5">
     <g id="line2d_14">
      <g>
       <use xlink:href="#m1fd265704b" x="63.382812" y="70.433724" style="stroke: #000000; stroke-width: 0.8"/>
      </g>
     </g>
     <g id="text_15">
      <!-- 10 -->
      <g transform="translate(43.657812 74.232942) scale(0.1 -0.1)">
       <use xlink:href="#DejaVuSans-31"/>
       <use xlink:href="#DejaVuSans-30" x="63.623047"/>
      </g>
     </g>
    </g>
    <g id="ytick_6">
     <g id="line2d_15">
      <g>
       <use xlink:href="#m1fd265704b" x="63.382812" y="37.678662" style="stroke: #000000; stroke-width: 0.8"/>
      </g>
     </g>
     <g id="text_16">
      <!-- 20 -->
      <g transform="translate(43.657812 41.477881) scale(0.1 -0.1)">
       <use xlink:href="#DejaVuSans-32"/>
       <use xlink:href="#DejaVuSans-30" x="63.623047"/>
      </g>
     </g>
    </g>
    <g id="text_17">
     <!-- Voltage [uV] -->
     <g transform="translate(29.198438 150.714063) rotate(-90) scale(0.1 -0.1)">
      <defs>
       <path id="DejaVuSans-56" d="M 1831 0 
L 50 4666 
L 709 4666 
L 2188 738 
L 3669 4666 
L 4325 4666 
L 2547 0 
L 1831 0 
z
" transform="scale(0.015625)"/>
       <path id="DejaVuSans-6f" d="M 1959 3097 
Q 1497 3097 1228 2736 
Q 959 2375 959 1747 
Q 959 1119 1226 758 
Q 1494 397 1959 397 
Q 2419 397 2687 759 
Q 2956 1122 2956 1747 
Q 2956 2369 2687 2733 
Q 2419 3097 1959 3097 
z
M 1959 3584 
Q 2709 3584 3137 3096 
Q 3566 2609 3566 1747 
Q 3566 888 3137 398 
Q 2709 -91 1959 -91 
Q 1206 -91 779 398 
Q 353 888 353 1747 
Q 353 2609 779 3096 
Q 1206 3584 1959 3584 
z
" transform="scale(0.015625)"/>
       <path id="DejaVuSans-6c" d="M 603 4863 
L 1178 4863 
L 1178 0 
L 603 0 
L 603 4863 
z
" transform="scale(0.015625)"/>
       <path id="DejaVuSans-74" d="M 1172 4494 
L 1172 3500 
L 2356 3500 
L 2356 3053 
L 1172 3053 
L 1172 1153 
Q 1172 725 1289 603 
Q 1406 481 1766 481 
L 2356 481 
L 2356 0 
L 1766 0 
Q 1100 0 847 248 
Q 594 497 594 1153 
L 594 3053 
L 172 3053 
L 172 3500 
L 594 3500 
L 594 4494 
L 1172 4494 
z
" transform="scale(0.015625)"/>
       <path id="DejaVuSans-61" d="M 2194 1759 
Q 1497 1759 1228 1600 
Q 959 1441 959 1056 
Q 959 750 1161 570 
Q 1363 391 1709 391 
Q 2188 391 2477 730 
Q 2766 1069 2766 1631 
L 2766 1759 
L 2194 1759 
z
M 3341 1997 
L 3341 0 
L 2766 0 
L 2766 531 
Q 2569 213 2275 61 
Q 1981 -91 1556 -91 
Q 1019 -91 701 211 
Q 384 513 384 1019 
Q 384 1609 779 1909 
Q 1175 2209 1959 2209 
L 2766 2209 
L 2766 2266 
Q 2766 2663 2505 2880 
Q 2244 3097 1772 3097 
Q 1472 3097 1187 3025 
Q 903 2953 641 2809 
L 641 3341 
Q 956 3463 1253 3523 
Q 1550 3584 1831 3584 
Q 2591 3584 2966 3190 
Q 3341 2797 3341 1997 
z
" transform="scale(0.015625)"/>
       <path id="DejaVuSans-67" d="M 2906 1791 
Q 2906 2416 2648 2759 
Q 2391 3103 1925 3103 
Q 1463 3103 1205 2759 
Q 947 2416 947 1791 
Q 947 1169 1205 825 
Q 1463 481 1925 481 
Q 2391 481 2648 825 
Q 2906 1169 2906 1791 
z
M 3481 434 
Q 3481 -459 3084 -895 
Q 2688 -1331 1869 -1331 
Q 1566 -1331 1297 -1286 
Q 1028 -1241 775 -1147 
L 775 -588 
Q 1028 -725 1275 -790 
Q 1522 -856 1778 -856 
Q 2344 -856 2625 -561 
Q 2906 -266 2906 331 
L 2906 616 
Q 2728 306 2450 153 
Q 2172 0 1784 0 
Q 1141 0 747 490 
Q 353 981 353 1791 
Q 353 2603 747 3093 
Q 1141 3584 1784 3584 
Q 2172 3584 2450 3431 
Q 2728 3278 2906 2969 
L 2906 3500 
L 3481 3500 
L 3481 434 
z
" transform="scale(0.015625)"/>
       <path id="DejaVuSans-75" d="M 544 1381 
L 544 3500 
L 1119 3500 
L 1119 1403 
Q 1119 906 1312 657 
Q 1506 409 1894 409 
Q 2359 409 2629 706 
Q 2900 1003 2900 1516 
L 2900 3500 
L 3475 3500 
L 3475 0 
L 2900 0 
L 2900 538 
Q 2691 219 2414 64 
Q 2138 -91 1772 -91 
Q 1169 -91 856 284 
Q 544 659 544 1381 
z
M 1991 3584 
L 1991 3584 
z
" transform="scale(0.015625)"/>
      </defs>
      <use xlink:href="#DejaVuSans-56"/>
      <use xlink:href="#DejaVuSans-6f" x="60.658203"/>
      <use xlink:href="#DejaVuSans-6c" x="121.839844"/>
      <use xlink:href="#DejaVuSans-74" x="149.623047"/>
      <use xlink:href="#DejaVuSans-61" x="188.832031"/>
      <use xlink:href="#DejaVuSans-67" x="250.111328"/>
      <use xlink:href="#DejaVuSans-65" x="313.587891"/>
      <use xlink:href="#DejaVuSans-20" x="375.111328"/>
      <use xlink:href="#DejaVuSans-5b" x="406.898438"/>
      <use xlink:href="#DejaVuSans-75" x="445.912109"/>
      <use xlink:href="#DejaVuSans-56" x="509.291016"/>
      <use xlink:href="#DejaVuSans-5d" x="577.699219"/>
     </g>
    </g>
   </g>
   <g id="line2d_16">
    <path d="M 88.746449 103.92328 
L 89.381333 80.441522 
L 90.016218 86.124236 
L 90.651102 110.744206 
L 91.285987 100.170574 
L 91.920871 79.718615 
L 92.555756 101.379136 
L 93.19064 92.742359 
L 93.825525 91.061613 
L 94.460409 99.34124 
L 95.095294 59.03817 
L 95.730179 95.664218 
L 96.365063 113.937407 
L 96.999948 104.68291 
L 97.634832 137.005309 
L 98.269717 127.653389 
L 98.904601 96.349647 
L 100.17437 136.992062 
L 100.809255 82.55959 
L 101.444139 118.425951 
L 102.079024 114.799317 
L 102.713908 99.404008 
L 103.348793 113.779159 
L 103.983677 98.419562 
L 104.618562 111.490913 
L 105.253446 112.237871 
L 105.888331 95.859023 
L 107.1581 126.34357 
L 107.792984 123.42335 
L 108.427869 112.298813 
L 109.062753 110.485919 
L 109.697638 130.413716 
L 110.332522 112.829759 
L 110.967407 107.260863 
L 111.602291 113.833092 
L 112.237176 117.57679 
L 112.87206 116.053251 
L 113.506945 112.164723 
L 114.141829 80.548194 
L 114.776714 110.151159 
L 115.411598 114.660079 
L 116.046483 66.772917 
L 116.681368 86.221972 
L 117.316252 110.349956 
L 117.951137 115.368303 
L 118.586021 109.876321 
L 119.220906 87.183542 
L 119.85579 112.549948 
L 120.490675 112.857838 
L 121.125559 93.396502 
L 121.760444 88.324531 
L 122.395328 90.04657 
L 123.030213 78.125345 
L 123.665097 63.503051 
L 124.299982 131.448684 
L 124.934866 117.871328 
L 125.569751 96.891985 
L 126.204635 99.246491 
L 126.83952 113.637903 
L 127.474404 90.723039 
L 128.109289 88.344119 
L 128.744173 79.612865 
L 129.379058 84.13502 
L 130.013942 117.754263 
L 130.648827 99.615442 
L 131.283711 75.590057 
L 131.918596 94.433049 
L 132.55348 121.836087 
L 133.188365 121.506018 
L 133.823249 134.566796 
L 134.458134 93.899152 
L 135.093018 102.96275 
L 135.727903 105.47119 
L 136.997672 120.457668 
L 137.632556 114.942019 
L 138.267441 94.82504 
L 138.902326 118.820679 
L 139.53721 102.09269 
L 140.172095 108.828721 
L 140.806979 148.73252 
L 141.441864 126.378329 
L 142.076748 115.393229 
L 142.711633 92.80322 
L 143.346517 119.042841 
L 144.616286 99.066691 
L 145.251171 73.778057 
L 145.886055 93.193819 
L 146.52094 116.312701 
L 147.155824 92.51061 
L 147.790709 112.587999 
L 148.425593 95.121101 
L 149.060478 100.898442 
L 149.695362 100.404407 
L 150.330247 78.025689 
L 150.965131 88.575769 
L 151.600016 94.411154 
L 152.2349 46.870424 
L 152.869785 61.266075 
L 153.504669 118.361824 
L 154.139554 80.79658 
L 154.774438 113.332769 
L 155.409323 80.220182 
L 156.044207 69.432601 
L 156.679092 113.881673 
L 157.313976 98.388719 
L 157.948861 103.921119 
L 158.583745 96.038651 
L 159.21863 117.466581 
L 159.853515 101.303752 
L 160.488399 130.298035 
L 161.123284 116.073207 
L 161.758168 75.389537 
L 162.393053 100.729604 
L 163.027937 100.320775 
L 163.662822 141.486261 
L 164.932591 88.224634 
L 165.567475 124.783733 
L 166.20236 115.933598 
L 166.837244 90.545577 
L 167.472129 93.656477 
L 168.741898 127.411431 
L 169.376782 104.946944 
L 170.011667 92.010942 
L 170.646551 128.707022 
L 171.281436 90.947878 
L 171.91632 121.978425 
L 172.551205 123.624807 
L 173.186089 107.718284 
L 173.820974 102.597455 
L 174.455858 78.846941 
L 175.090743 91.169775 
L 175.725627 107.481915 
L 176.360512 106.015711 
L 176.995396 90.098934 
L 177.630281 119.723659 
L 178.90005 94.641275 
L 179.534934 90.256097 
L 180.169819 112.532652 
L 180.804704 119.291209 
L 181.439588 105.037673 
L 182.074473 99.109473 
L 182.709357 113.636312 
L 183.344242 98.102205 
L 183.979126 102.507773 
L 184.614011 105.469404 
L 185.248895 112.46981 
L 185.88378 111.69067 
L 186.518664 114.720865 
L 187.153549 115.539918 
L 187.788433 84.305722 
L 188.423318 120.878868 
L 189.058202 80.607434 
L 189.693087 90.019094 
L 190.327971 92.784467 
L 190.962856 91.26344 
L 191.59774 80.6478 
L 192.232625 78.552556 
L 192.867509 123.47365 
L 193.502394 123.333811 
L 194.137278 88.492904 
L 194.772163 120.76099 
L 195.407047 112.476899 
L 196.041932 77.131368 
L 196.676816 107.991984 
L 197.311701 107.982669 
L 197.946585 134.483687 
L 198.58147 109.803158 
L 199.216354 137.026437 
L 199.851239 122.835495 
L 200.486123 127.078069 
L 201.121008 99.85816 
L 201.755892 100.728851 
L 202.390777 122.063929 
L 203.025662 105.143122 
L 203.660546 118.643146 
L 204.295431 103.168882 
L 204.930315 124.170801 
L 205.5652 97.906438 
L 206.200084 104.220824 
L 206.834969 77.789213 
L 207.469853 68.413893 
L 208.104738 89.400956 
L 208.739622 81.91622 
L 209.374507 84.177973 
L 210.009391 100.016454 
L 210.644276 92.774466 
L 211.27916 94.599271 
L 211.914045 92.841335 
L 212.548929 64.370516 
L 213.183814 99.719382 
L 213.818698 114.703529 
L 214.453583 119.168503 
L 215.088467 87.183156 
L 215.723352 91.797365 
L 216.358236 113.377657 
L 216.993121 88.516966 
L 217.628005 110.879372 
L 218.26289 117.653318 
L 218.897774 114.79515 
L 219.532659 82.158415 
L 220.167543 81.654925 
L 220.802428 75.978353 
L 221.437312 65.70147 
L 222.072197 113.868788 
L 222.707081 144.804141 
L 223.976851 114.516499 
L 224.611735 98.584897 
L 225.24662 113.391523 
L 225.881504 72.367393 
L 226.516389 71.768293 
L 227.151273 128.79259 
L 227.786158 96.292682 
L 228.421042 130.55914 
L 229.055927 94.997822 
L 229.690811 107.038384 
L 230.325696 108.80671 
L 230.96058 90.761818 
L 231.595465 133.959744 
L 232.865234 91.97986 
L 233.500118 81.590872 
L 234.135003 87.065316 
L 234.769887 98.775235 
L 235.404772 96.301759 
L 236.039656 112.716854 
L 236.674541 106.983746 
L 237.309425 79.932226 
L 237.94431 115.971296 
L 238.579194 99.389519 
L 239.848963 146.802849 
L 240.483848 124.50302 
L 241.118732 127.643682 
L 241.753617 117.667012 
L 242.388501 127.513667 
L 243.65827 80.00346 
L 244.293155 115.574026 
L 244.928039 92.441352 
L 245.562924 82.581217 
L 246.197809 102.260369 
L 246.832693 93.182026 
L 247.467578 98.63225 
L 248.102462 117.957859 
L 248.737347 141.623594 
L 250.007116 109.895904 
L 250.642 105.157855 
L 251.276885 112.042124 
L 251.911769 114.164147 
L 252.546654 112.29526 
L 253.181538 106.596842 
L 253.816423 99.153619 
L 254.451307 100.332825 
L 255.086192 105.18405 
L 256.990845 61.034937 
L 257.62573 72.534277 
L 258.260614 98.885073 
L 258.895499 54.288999 
L 259.530383 95.208426 
L 260.165268 107.590073 
L 260.800152 65.310136 
L 261.435037 114.293454 
L 262.069921 132.436867 
L 262.704806 114.020628 
L 263.33969 104.948959 
L 263.974575 93.374152 
L 264.609459 101.634041 
L 265.244344 130.926259 
L 265.879228 123.124245 
L 266.514113 92.546557 
L 267.148998 108.105001 
L 267.783882 116.191991 
L 268.418767 76.390345 
L 269.053651 95.816637 
L 269.688536 100.82056 
L 270.32342 126.561046 
L 270.958305 106.702414 
L 271.593189 90.862396 
L 272.228074 115.156509 
L 272.862958 90.241126 
L 273.497843 107.057564 
L 274.132727 82.517942 
L 274.767612 106.057709 
L 276.037381 77.025847 
L 276.672265 99.427398 
L 277.30715 87.64995 
L 277.942034 99.195068 
L 278.576919 115.551953 
L 279.211803 112.372805 
L 279.846688 95.561034 
L 280.481572 119.186155 
L 281.116457 102.393025 
L 281.751341 131.150489 
L 282.386226 139.23411 
L 283.02111 106.121614 
L 283.655995 103.245728 
L 284.290879 90.737615 
L 284.925764 110.027904 
L 285.560648 90.76625 
L 286.195533 130.817177 
L 286.830417 88.993458 
L 287.465302 90.849582 
L 288.100186 125.059621 
L 288.735071 82.703679 
L 289.369956 126.183897 
L 290.00484 100.608205 
L 290.639725 85.990239 
L 291.274609 81.97276 
L 291.909494 127.093752 
L 292.544378 130.944043 
L 293.814147 77.680334 
L 294.449032 105.512222 
L 295.083916 124.728492 
L 295.718801 75.897617 
L 296.353685 88.844747 
L 296.98857 96.662753 
L 297.623454 112.519075 
L 298.258339 87.281596 
L 298.893223 95.502108 
L 299.528108 121.82487 
L 300.162992 106.140705 
L 300.797877 96.184904 
L 301.432761 135.471046 
L 302.067646 127.275328 
L 303.337415 91.869042 
L 303.972299 93.526693 
L 304.607184 79.446941 
L 305.242068 71.940495 
L 305.876953 100.291109 
L 306.511837 93.073423 
L 307.146722 113.576619 
L 307.781606 100.663491 
L 308.416491 105.924157 
L 309.051375 114.478846 
L 309.68626 102.891791 
L 310.321145 101.297989 
L 310.956029 121.708943 
L 311.590914 99.460006 
L 312.225798 106.128002 
L 312.860683 109.001824 
L 313.495567 119.960959 
L 314.130452 101.872505 
L 314.765336 119.062585 
L 315.400221 140.725828 
L 316.035105 98.887906 
L 316.66999 138.746205 
L 317.304874 100.255421 
L 317.939759 90.214518 
L 318.574643 97.580909 
L 319.844412 128.53869 
L 320.479297 115.998538 
L 321.749066 99.563082 
L 322.38395 120.850281 
L 323.653719 82.239747 
L 324.288604 109.41124 
L 324.923488 120.117954 
L 325.558373 87.080017 
L 326.193257 79.931883 
L 326.828142 97.846929 
L 327.463026 88.804534 
L 328.097911 73.342031 
L 328.732795 68.188786 
L 329.36768 103.603838 
L 330.002564 124.765864 
L 330.637449 96.002533 
L 331.272333 103.336674 
L 331.907218 113.766495 
L 333.176987 90.474904 
L 333.811872 85.792695 
L 334.446756 65.746729 
L 335.081641 71.78287 
L 336.35141 118.350886 
L 336.986294 123.879736 
L 337.621179 111.789767 
L 338.256063 80.351837 
L 338.890948 88.495108 
L 339.525832 94.298272 
L 340.160717 82.953835 
L 340.795601 120.405265 
L 341.430486 76.01416 
L 342.700255 87.505364 
L 343.335139 59.07767 
L 343.970024 94.478899 
L 344.604908 99.39447 
L 345.239793 78.466208 
L 345.874677 68.224529 
L 346.509562 80.402866 
L 347.144446 97.141431 
L 347.779331 105.456312 
L 348.414215 95.443887 
L 349.0491 82.785098 
L 349.683984 101.453503 
L 350.318869 101.865641 
L 350.953753 96.645966 
L 351.588638 89.296261 
L 352.223522 89.324984 
L 352.858407 107.077421 
L 353.493292 118.457617 
L 354.128176 137.356709 
L 354.763061 159.785443 
L 355.397945 195.478125 
L 356.03283 170.537777 
L 356.667714 165.827059 
L 357.302599 153.304265 
L 357.937483 150.574023 
L 358.572368 170.72162 
L 359.207252 111.356115 
L 359.842137 119.358121 
L 360.477021 140.741633 
L 361.111906 115.497534 
L 361.74679 120.515547 
L 362.381675 103.602242 
L 363.016559 115.770348 
L 363.651444 131.605598 
L 364.286328 112.390818 
L 364.921213 88.39523 
L 365.556097 100.731268 
L 366.190982 97.901218 
L 366.825866 87.118948 
L 367.460751 98.810452 
L 368.095635 90.029119 
L 368.73052 110.908053 
L 369.365404 98.57572 
L 370.000289 96.469037 
L 370.635173 53.993149 
L 371.270058 98.860671 
L 371.904942 113.427844 
L 372.539827 60.512627 
L 373.174711 103.820448 
L 373.809596 98.858987 
L 374.44448 70.555841 
L 375.079365 79.045852 
L 375.71425 75.616267 
L 376.349134 80.846402 
L 376.984019 107.516148 
L 377.618903 69.723295 
L 378.253788 111.956363 
L 378.888672 99.308487 
L 379.523557 99.766652 
L 380.158441 101.261585 
L 380.793326 74.097811 
L 381.42821 110.089386 
L 382.063095 98.77977 
L 382.697979 105.365522 
L 383.332864 95.860656 
L 383.967748 115.830929 
L 384.602633 88.968157 
L 385.237517 105.697444 
L 385.872402 104.30694 
L 386.507286 61.518362 
L 387.142171 56.958115 
L 387.777055 63.097173 
L 388.41194 105.358672 
L 389.046824 89.966349 
L 389.681709 105.820439 
L 390.316593 100.597189 
L 390.951478 115.200312 
L 391.586362 124.377138 
L 392.221247 79.204925 
L 393.491016 127.487227 
L 394.760785 114.408824 
L 395.395669 122.805847 
L 396.030554 119.161132 
L 396.665439 101.686205 
L 397.300323 107.240434 
L 397.935208 121.311439 
L 398.570092 129.089546 
L 399.204977 99.96158 
L 399.839861 117.62193 
L 400.474746 108.574988 
L 401.10963 116.886914 
L 401.744515 120.36414 
L 402.379399 72.57533 
L 403.014284 116.195553 
L 403.649168 106.681468 
L 404.284053 136.95497 
L 405.553822 77.875839 
L 406.823591 101.163639 
L 407.458475 118.366046 
L 408.09336 80.321984 
L 408.728244 120.297261 
L 409.363129 108.591797 
L 409.998013 101.810316 
L 410.632898 106.14456 
L 411.267782 99.943565 
L 411.902667 63.435454 
L 412.537551 90.39709 
L 413.172436 105.069155 
L 413.80732 83.988622 
L 414.442205 107.832679 
L 415.711974 92.858787 
L 416.981743 120.225266 
L 417.616627 61.539621 
L 418.251512 74.975073 
L 418.886397 96.82497 
L 419.521281 96.335474 
L 420.156166 80.949766 
L 420.79105 121.672008 
L 421.425935 128.953031 
L 422.060819 104.301288 
L 422.695704 114.446755 
L 423.330588 89.51094 
L 423.965473 87.966532 
L 424.600357 124.512475 
L 425.235242 120.47182 
L 425.870126 82.163991 
L 426.505011 132.158396 
L 427.139895 123.414293 
L 427.77478 130.694848 
L 428.409664 106.4884 
L 429.044549 105.831336 
L 429.679433 123.412587 
L 430.314318 125.853904 
L 431.584087 105.102103 
L 432.218971 129.424166 
L 432.853856 95.241373 
L 433.48874 96.926701 
L 434.123625 123.039375 
L 434.758509 109.377886 
L 435.393394 92.648728 
L 436.028278 106.114918 
L 436.663163 77.507846 
L 437.298047 104.371297 
L 437.932932 105.093713 
L 438.567816 92.6093 
L 439.202701 93.04799 
L 439.837586 107.810525 
L 440.47247 103.381633 
L 441.107355 103.908596 
L 441.742239 129.130477 
L 442.377124 94.2362 
L 443.012008 93.705069 
L 443.646893 108.741718 
L 444.281777 93.596297 
L 444.916662 96.910882 
L 445.551546 120.525118 
L 446.186431 97.033096 
L 446.821315 108.065677 
L 447.4562 97.602011 
L 448.091084 103.459646 
L 448.725969 107.575845 
L 449.360853 90.053191 
L 449.995738 79.087379 
L 450.630622 78.641146 
L 451.265507 74.14331 
L 451.900391 94.061937 
L 452.535276 98.548061 
L 453.17016 101.752777 
L 453.805045 132.553569 
L 454.439929 85.68366 
L 455.074814 111.687574 
L 455.709698 103.935292 
L 456.344583 99.202537 
L 456.979467 102.832767 
L 457.614352 74.660344 
L 458.249236 120.691932 
L 458.884121 116.615965 
L 460.15389 121.585693 
L 460.788774 106.622926 
L 461.423659 131.073286 
L 462.058544 104.081881 
L 462.693428 102.902722 
L 463.328313 115.4108 
L 463.963197 95.169354 
L 464.598082 120.192134 
L 465.232966 129.556291 
L 465.867851 103.760541 
L 466.502735 112.774701 
L 467.13762 117.241133 
L 467.772504 94.609273 
L 468.407389 96.151444 
L 469.042273 85.88319 
L 469.677158 64.791876 
L 470.312042 89.118319 
L 470.946927 77.482504 
L 471.581811 78.735611 
L 472.216696 94.010871 
L 472.85158 90.479262 
L 473.486465 127.811445 
L 474.121349 122.420469 
L 474.756234 113.105071 
L 475.391118 99.832523 
L 476.026003 92.042229 
L 476.660887 80.221397 
L 477.295772 91.431199 
L 477.930656 95.557394 
L 478.565541 109.968376 
L 479.200425 138.217243 
L 479.83531 107.386796 
L 480.470194 104.130167 
L 481.105079 109.852835 
L 481.739963 107.66231 
L 482.374848 88.613164 
L 483.009733 95.186406 
L 483.644617 85.823845 
L 484.279502 121.011446 
L 484.914386 123.848862 
L 485.549271 58.045367 
L 486.184155 99.22543 
L 486.81904 100.478428 
L 487.453924 105.211765 
L 488.088809 112.929142 
L 488.723693 90.068165 
L 489.358578 97.987504 
L 489.993462 97.22257 
L 490.628347 98.483305 
L 491.263231 92.182804 
L 491.898116 94.646391 
L 492.533 125.414472 
L 493.167885 101.19026 
L 493.802769 44.278125 
L 494.437654 81.721057 
L 495.072538 97.90262 
L 495.707423 110.971016 
L 496.342307 121.535786 
L 496.977192 111.006368 
L 497.612076 95.423748 
L 498.246961 85.644401 
L 498.881845 92.428267 
L 499.51673 96.827659 
L 500.151614 117.699683 
L 500.786499 92.813393 
L 501.421383 85.676897 
L 502.056268 75.523043 
L 502.691152 107.510269 
L 503.326037 123.535914 
L 503.960921 118.687807 
L 504.595806 141.065381 
L 505.230691 107.065964 
L 506.50046 123.096041 
L 507.135344 139.034959 
L 507.770229 173.15945 
L 508.405113 117.573134 
L 509.039998 111.620778 
L 509.674882 146.138167 
L 510.309767 140.308394 
L 510.944651 121.886071 
L 511.579536 123.167657 
L 512.21442 136.771526 
L 512.849305 101.078068 
L 513.484189 137.74199 
L 514.119074 121.956921 
L 514.753958 94.720785 
L 515.388843 112.374827 
L 516.023727 122.608914 
L 516.658612 120.901646 
L 517.293496 86.564801 
L 517.928381 78.574804 
L 518.563265 100.219659 
L 519.19815 92.065132 
L 519.833034 49.198057 
L 520.467919 103.230967 
L 521.102803 92.522577 
L 521.737688 74.982942 
L 522.372572 90.319856 
L 523.007457 101.146594 
L 523.642341 79.664991 
L 524.277226 69.224942 
L 524.91211 108.503791 
L 525.546995 84.522041 
L 526.18188 95.762259 
L 526.816764 94.582878 
L 527.451649 77.248521 
L 528.086533 111.473481 
L 529.356302 71.261438 
L 530.626071 104.836006 
L 531.260956 112.577933 
L 531.89584 88.890534 
L 532.530725 98.713854 
L 533.165609 113.473981 
L 533.800494 143.667484 
L 534.435378 110.256888 
L 535.070263 83.892711 
L 535.705147 72.25122 
L 536.340032 99.459773 
L 536.974916 106.818262 
L 537.609801 95.140445 
L 538.244685 109.908884 
L 538.87957 82.376785 
L 539.514454 110.322841 
L 540.149339 106.478621 
L 540.784223 94.049506 
L 541.419108 96.530494 
L 542.053992 101.988715 
L 542.688877 87.029352 
L 543.323761 108.594573 
L 543.958646 103.549928 
L 544.59353 87.66792 
L 545.228415 102.699073 
L 545.863299 100.506928 
L 546.498184 101.129579 
L 547.133069 104.937161 
L 547.767953 116.769036 
L 548.402838 104.141322 
L 549.037722 100.469972 
L 549.672607 88.54015 
L 550.307491 98.88033 
L 550.942376 84.976373 
L 551.57726 83.903019 
L 552.212145 95.396196 
L 552.847029 80.442859 
L 554.116798 140.861991 
L 554.751683 142.381181 
L 555.386567 132.926682 
L 556.021452 118.99695 
L 556.656336 138.371416 
L 557.291221 119.994175 
L 557.926105 113.098414 
L 558.56099 107.735757 
L 559.195874 82.630718 
L 559.830759 81.624191 
L 560.465643 98.686123 
L 561.100528 138.772289 
L 561.735412 103.136801 
L 562.370297 108.646509 
L 563.005181 131.766963 
L 563.640066 94.702399 
L 564.27495 71.557412 
L 564.909835 117.340779 
L 565.544719 110.981729 
L 566.179604 110.718883 
L 566.814488 101.915938 
L 567.449373 97.767557 
L 568.084257 122.983847 
L 568.719142 95.671484 
L 569.354027 106.529826 
L 569.988911 98.636365 
L 570.623796 128.588423 
L 571.25868 118.775486 
L 571.893565 113.150942 
L 572.528449 119.04444 
L 573.163334 118.316832 
L 573.798218 98.824305 
L 574.433103 93.586958 
L 575.067987 99.022252 
L 575.702872 58.716568 
L 576.337756 92.839726 
L 576.972641 109.473849 
L 577.607525 112.870393 
L 578.24241 109.142423 
L 578.877294 91.416709 
L 579.512179 78.78154 
L 580.147063 79.574564 
L 580.781948 106.524256 
L 581.416832 95.859223 
L 582.051717 91.446555 
L 582.686601 107.684289 
L 583.321486 108.278033 
L 583.95637 100.982043 
L 584.591255 88.041607 
L 585.226139 121.718693 
L 585.861024 105.480575 
L 586.495908 84.277074 
L 587.130793 108.87693 
L 587.765677 117.648496 
L 588.400562 108.46944 
L 589.035446 101.087107 
L 589.670331 136.207462 
L 590.305216 111.222373 
L 590.9401 108.420853 
L 591.574985 144.855721 
L 592.209869 95.999635 
L 592.844754 74.887317 
L 593.479638 104.036752 
L 594.114523 72.510639 
L 594.749407 97.377823 
L 595.384292 112.840772 
L 596.019176 95.152592 
L 596.019176 95.152592 
" clip-path="url(#p3134a249cf)" style="fill: none; stroke: #1f77b4; stroke-width: 1.5; stroke-linecap: square"/>
   </g>
   <g id="line2d_17">
    <path d="M 342.700255 87.505364 
L 343.335139 59.07767 
L 343.970024 94.478899 
L 344.604908 99.39447 
L 345.239793 78.466208 
L 345.874677 68.224529 
L 346.509562 80.402866 
L 347.144446 97.141431 
L 347.779331 105.456312 
L 348.414215 95.443887 
L 349.0491 82.785098 
L 349.683984 101.453503 
L 350.318869 101.865641 
L 350.953753 96.645966 
L 351.588638 89.296261 
L 352.223522 89.324984 
L 352.858407 107.077421 
L 353.493292 118.457617 
L 354.128176 137.356709 
L 354.763061 159.785443 
L 355.397945 195.478125 
L 356.03283 170.537777 
L 356.667714 165.827059 
L 357.302599 153.304265 
L 357.937483 150.574023 
L 358.572368 170.72162 
L 359.207252 111.356115 
L 359.842137 119.358121 
L 360.477021 140.741633 
L 361.111906 115.497534 
L 361.74679 120.515547 
L 362.381675 103.602242 
L 363.016559 115.770348 
L 363.651444 131.605598 
L 364.286328 112.390818 
L 364.921213 88.39523 
L 365.556097 100.731268 
L 366.190982 97.901218 
L 366.825866 87.118948 
L 367.460751 98.810452 
" clip-path="url(#p3134a249cf)" style="fill: none; stroke: #ff0000; stroke-width: 1.5; stroke-linecap: square"/>
   </g>
   <g id="patch_3">
    <path d="M 63.382812 203.038125 
L 63.382812 36.718125 
" style="fill: none; stroke: #000000; stroke-width: 0.8; stroke-linejoin: miter; stroke-linecap: square"/>
   </g>
   <g id="patch_4">
    <path d="M 621.382812 203.038125 
L 621.382812 36.718125 
" style="fill: none; stroke: #000000; stroke-width: 0.8; stroke-linejoin: miter; stroke-linecap: square"/>
   </g>
   <g id="patch_5">
    <path d="M 63.382812 203.038125 
L 621.382812 203.038125 
" style="fill: none; stroke: #000000; stroke-width: 0.8; stroke-linejoin: miter; stroke-linecap: square"/>
   </g>
   <g id="patch_6">
    <path d="M 63.382812 36.718125 
L 621.382812 36.718125 
" style="fill: none; stroke: #000000; stroke-width: 0.8; stroke-linejoin: miter; stroke-linecap: square"/>
   </g>
   <g id="text_18">
    <!-- Channel:13, Time stamp : 2057993 -->
    <g transform="translate(236.327188 30.718125) scale(0.12 -0.12)">
     <defs>
      <path id="DejaVuSans-43" d="M 4122 4306 
L 4122 3641 
Q 3803 3938 3442 4084 
Q 3081 4231 2675 4231 
Q 1875 4231 1450 3742 
Q 1025 3253 1025 2328 
Q 1025 1406 1450 917 
Q 1875 428 2675 428 
Q 3081 428 3442 575 
Q 3803 722 4122 1019 
L 4122 359 
Q 3791 134 3420 21 
Q 3050 -91 2638 -91 
Q 1578 -91 968 557 
Q 359 1206 359 2328 
Q 359 3453 968 4101 
Q 1578 4750 2638 4750 
Q 3056 4750 3426 4639 
Q 3797 4528 4122 4306 
z
" transform="scale(0.015625)"/>
      <path id="DejaVuSans-68" d="M 3513 2113 
L 3513 0 
L 2938 0 
L 2938 2094 
Q 2938 2591 2744 2837 
Q 2550 3084 2163 3084 
Q 1697 3084 1428 2787 
Q 1159 2491 1159 1978 
L 1159 0 
L 581 0 
L 581 4863 
L 1159 4863 
L 1159 2956 
Q 1366 3272 1645 3428 
Q 1925 3584 2291 3584 
Q 2894 3584 3203 3211 
Q 3513 2838 3513 2113 
z
" transform="scale(0.015625)"/>
      <path id="DejaVuSans-6e" d="M 3513 2113 
L 3513 0 
L 2938 0 
L 2938 2094 
Q 2938 2591 2744 2837 
Q 2550 3084 2163 3084 
Q 1697 3084 1428 2787 
Q 1159 2491 1159 1978 
L 1159 0 
L 581 0 
L 581 3500 
L 1159 3500 
L 1159 2956 
Q 1366 3272 1645 3428 
Q 1925 3584 2291 3584 
Q 2894 3584 3203 3211 
Q 3513 2838 3513 2113 
z
" transform="scale(0.015625)"/>
      <path id="DejaVuSans-3a" d="M 750 794 
L 1409 794 
L 1409 0 
L 750 0 
L 750 794 
z
M 750 3309 
L 1409 3309 
L 1409 2516 
L 750 2516 
L 750 3309 
z
" transform="scale(0.015625)"/>
      <path id="DejaVuSans-2c" d="M 750 794 
L 1409 794 
L 1409 256 
L 897 -744 
L 494 -744 
L 750 256 
L 750 794 
z
" transform="scale(0.015625)"/>
      <path id="DejaVuSans-70" d="M 1159 525 
L 1159 -1331 
L 581 -1331 
L 581 3500 
L 1159 3500 
L 1159 2969 
Q 1341 3281 1617 3432 
Q 1894 3584 2278 3584 
Q 2916 3584 3314 3078 
Q 3713 2572 3713 1747 
Q 3713 922 3314 415 
Q 2916 -91 2278 -91 
Q 1894 -91 1617 61 
Q 1341 213 1159 525 
z
M 3116 1747 
Q 3116 2381 2855 2742 
Q 2594 3103 2138 3103 
Q 1681 3103 1420 2742 
Q 1159 2381 1159 1747 
Q 1159 1113 1420 752 
Q 1681 391 2138 391 
Q 2594 391 2855 752 
Q 3116 1113 3116 1747 
z
" transform="scale(0.015625)"/>
      <path id="DejaVuSans-37" d="M 525 4666 
L 3525 4666 
L 3525 4397 
L 1831 0 
L 1172 0 
L 2766 4134 
L 525 4134 
L 525 4666 
z
" transform="scale(0.015625)"/>
      <path id="DejaVuSans-39" d="M 703 97 
L 703 672 
Q 941 559 1184 500 
Q 1428 441 1663 441 
Q 2288 441 2617 861 
Q 2947 1281 2994 2138 
Q 2813 1869 2534 1725 
Q 2256 1581 1919 1581 
Q 1219 1581 811 2004 
Q 403 2428 403 3163 
Q 403 3881 828 4315 
Q 1253 4750 1959 4750 
Q 2769 4750 3195 4129 
Q 3622 3509 3622 2328 
Q 3622 1225 3098 567 
Q 2575 -91 1691 -91 
Q 1453 -91 1209 -44 
Q 966 3 703 97 
z
M 1959 2075 
Q 2384 2075 2632 2365 
Q 2881 2656 2881 3163 
Q 2881 3666 2632 3958 
Q 2384 4250 1959 4250 
Q 1534 4250 1286 3958 
Q 1038 3666 1038 3163 
Q 1038 2656 1286 2365 
Q 1534 2075 1959 2075 
z
" transform="scale(0.015625)"/>
     </defs>
     <use xlink:href="#DejaVuSans-43"/>
     <use xlink:href="#DejaVuSans-68" x="69.824219"/>
     <use xlink:href="#DejaVuSans-61" x="133.203125"/>
     <use xlink:href="#DejaVuSans-6e" x="194.482422"/>
     <use xlink:href="#DejaVuSans-6e" x="257.861328"/>
     <use xlink:href="#DejaVuSans-65" x="321.240234"/>
     <use xlink:href="#DejaVuSans-6c" x="382.763672"/>
     <use xlink:href="#DejaVuSans-3a" x="410.546875"/>
     <use xlink:href="#DejaVuSans-31" x="444.238281"/>
     <use xlink:href="#DejaVuSans-33" x="507.861328"/>
     <use xlink:href="#DejaVuSans-2c" x="571.484375"/>
     <use xlink:href="#DejaVuSans-20" x="603.271484"/>
     <use xlink:href="#DejaVuSans-54" x="635.058594"/>
     <use xlink:href="#DejaVuSans-69" x="693.017578"/>
     <use xlink:href="#DejaVuSans-6d" x="720.800781"/>
     <use xlink:href="#DejaVuSans-65" x="818.212891"/>
     <use xlink:href="#DejaVuSans-20" x="879.736328"/>
     <use xlink:href="#DejaVuSans-73" x="911.523438"/>
     <use xlink:href="#DejaVuSans-74" x="963.623047"/>
     <use xlink:href="#DejaVuSans-61" x="1002.832031"/>
     <use xlink:href="#DejaVuSans-6d" x="1064.111328"/>
     <use xlink:href="#DejaVuSans-70" x="1161.523438"/>
     <use xlink:href="#DejaVuSans-20" x="1225"/>
     <use xlink:href="#DejaVuSans-3a" x="1256.787109"/>
     <use xlink:href="#DejaVuSans-20" x="1290.478516"/>
     <use xlink:href="#DejaVuSans-32" x="1322.265625"/>
     <use xlink:href="#DejaVuSans-30" x="1385.888672"/>
     <use xlink:href="#DejaVuSans-35" x="1449.511719"/>
     <use xlink:href="#DejaVuSans-37" x="1513.134766"/>
     <use xlink:href="#DejaVuSans-39" x="1576.757812"/>
     <use xlink:href="#DejaVuSans-39" x="1640.380859"/>
     <use xlink:href="#DejaVuSans-33" x="1704.003906"/>
    </g>
   </g>
  </g>
 </g>
 <defs>
  <clipPath id="p3134a249cf">
   <rect x="63.382812" y="36.718125" width="558" height="166.32"/>
  </clipPath>
 </defs>
</svg>
