<?xml version="1.0" encoding="utf-8" standalone="no"?>
<!DOCTYPE svg PUBLIC "-//W3C//DTD SVG 1.1//EN"
  "http://www.w3.org/Graphics/SVG/1.1/DTD/svg11.dtd">
<svg xmlns:xlink="http://www.w3.org/1999/xlink" width="642.982813pt" height="254.994375pt" viewBox="0 0 642.982813 254.994375" xmlns="http://www.w3.org/2000/svg" version="1.1">
 <metadata>
  <rdf:RDF xmlns:dc="http://purl.org/dc/elements/1.1/" xmlns:cc="http://creativecommons.org/ns#" xmlns:rdf="http://www.w3.org/1999/02/22-rdf-syntax-ns#">
   <cc:Work>
    <dc:type rdf:resource="http://purl.org/dc/dcmitype/StillImage"/>
    <dc:date>2024-02-26T10:41:43.643077</dc:date>
    <dc:format>image/svg+xml</dc:format>
    <dc:creator>
     <cc:Agent>
      <dc:title>Matplotlib v3.7.1, https://matplotlib.org/</dc:title>
     </cc:Agent>
    </dc:creator>
   </cc:Work>
  </rdf:RDF>
 </metadata>
 <defs>
  <style type="text/css">*{stroke-linejoin: round; stroke-linecap: butt}</style>
 </defs>
 <g id="figure_1">
  <g id="patch_1">
   <path d="M 0 254.994375 
L 642.982813 254.994375 
L 642.982813 -0 
L 0 -0 
z
" style="fill: #ffffff"/>
  </g>
  <g id="axes_1">
   <g id="patch_2">
    <path d="M 63.382812 203.038125 
L 621.382812 203.038125 
L 621.382812 36.718125 
L 63.382812 36.718125 
z
" style="fill: #ffffff"/>
   </g>
   <g id="matplotlib.axis_1">
    <g id="xtick_1">
     <g id="line2d_1">
      <defs>
       <path id="m7ba5fc0570" d="M 0 0 
L 0 3.5 
" style="stroke: #000000; stroke-width: 0.8"/>
      </defs>
      <g>
       <use xlink:href="#m7ba5fc0570" x="88.746449" y="203.038125" style="stroke: #000000; stroke-width: 0.8"/>
      </g>
     </g>
     <g id="text_1">
      <!-- −20 -->
      <g transform="translate(78.194105 217.636562) scale(0.1 -0.1)">
       <defs>
        <path id="DejaVuSans-2212" d="M 678 2272 
L 4684 2272 
L 4684 1741 
L 678 1741 
L 678 2272 
z
" transform="scale(0.015625)"/>
        <path id="DejaVuSans-32" d="M 1228 531 
L 3431 531 
L 3431 0 
L 469 0 
L 469 531 
Q 828 903 1448 1529 
Q 2069 2156 2228 2338 
Q 2531 2678 2651 2914 
Q 2772 3150 2772 3378 
Q 2772 3750 2511 3984 
Q 2250 4219 1831 4219 
Q 1534 4219 1204 4116 
Q 875 4013 500 3803 
L 500 4441 
Q 881 4594 1212 4672 
Q 1544 4750 1819 4750 
Q 2544 4750 2975 4387 
Q 3406 4025 3406 3419 
Q 3406 3131 3298 2873 
Q 3191 2616 2906 2266 
Q 2828 2175 2409 1742 
Q 1991 1309 1228 531 
z
" transform="scale(0.015625)"/>
        <path id="DejaVuSans-30" d="M 2034 4250 
Q 1547 4250 1301 3770 
Q 1056 3291 1056 2328 
Q 1056 1369 1301 889 
Q 1547 409 2034 409 
Q 2525 409 2770 889 
Q 3016 1369 3016 2328 
Q 3016 3291 2770 3770 
Q 2525 4250 2034 4250 
z
M 2034 4750 
Q 2819 4750 3233 4129 
Q 3647 3509 3647 2328 
Q 3647 1150 3233 529 
Q 2819 -91 2034 -91 
Q 1250 -91 836 529 
Q 422 1150 422 2328 
Q 422 3509 836 4129 
Q 1250 4750 2034 4750 
z
" transform="scale(0.015625)"/>
       </defs>
       <use xlink:href="#DejaVuSans-2212"/>
       <use xlink:href="#DejaVuSans-32" x="83.789062"/>
       <use xlink:href="#DejaVuSans-30" x="147.412109"/>
      </g>
     </g>
    </g>
    <g id="xtick_2">
     <g id="line2d_2">
      <g>
       <use xlink:href="#m7ba5fc0570" x="152.15554" y="203.038125" style="stroke: #000000; stroke-width: 0.8"/>
      </g>
     </g>
     <g id="text_2">
      <!-- −15 -->
      <g transform="translate(141.603196 217.636562) scale(0.1 -0.1)">
       <defs>
        <path id="DejaVuSans-31" d="M 794 531 
L 1825 531 
L 1825 4091 
L 703 3866 
L 703 4441 
L 1819 4666 
L 2450 4666 
L 2450 531 
L 3481 531 
L 3481 0 
L 794 0 
L 794 531 
z
" transform="scale(0.015625)"/>
        <path id="DejaVuSans-35" d="M 691 4666 
L 3169 4666 
L 3169 4134 
L 1269 4134 
L 1269 2991 
Q 1406 3038 1543 3061 
Q 1681 3084 1819 3084 
Q 2600 3084 3056 2656 
Q 3513 2228 3513 1497 
Q 3513 744 3044 326 
Q 2575 -91 1722 -91 
Q 1428 -91 1123 -41 
Q 819 9 494 109 
L 494 744 
Q 775 591 1075 516 
Q 1375 441 1709 441 
Q 2250 441 2565 725 
Q 2881 1009 2881 1497 
Q 2881 1984 2565 2268 
Q 2250 2553 1709 2553 
Q 1456 2553 1204 2497 
Q 953 2441 691 2322 
L 691 4666 
z
" transform="scale(0.015625)"/>
       </defs>
       <use xlink:href="#DejaVuSans-2212"/>
       <use xlink:href="#DejaVuSans-31" x="83.789062"/>
       <use xlink:href="#DejaVuSans-35" x="147.412109"/>
      </g>
     </g>
    </g>
    <g id="xtick_3">
     <g id="line2d_3">
      <g>
       <use xlink:href="#m7ba5fc0570" x="215.564631" y="203.038125" style="stroke: #000000; stroke-width: 0.8"/>
      </g>
     </g>
     <g id="text_3">
      <!-- −10 -->
      <g transform="translate(205.012287 217.636562) scale(0.1 -0.1)">
       <use xlink:href="#DejaVuSans-2212"/>
       <use xlink:href="#DejaVuSans-31" x="83.789062"/>
       <use xlink:href="#DejaVuSans-30" x="147.412109"/>
      </g>
     </g>
    </g>
    <g id="xtick_4">
     <g id="line2d_4">
      <g>
       <use xlink:href="#m7ba5fc0570" x="278.973722" y="203.038125" style="stroke: #000000; stroke-width: 0.8"/>
      </g>
     </g>
     <g id="text_4">
      <!-- −5 -->
      <g transform="translate(271.602628 217.636562) scale(0.1 -0.1)">
       <use xlink:href="#DejaVuSans-2212"/>
       <use xlink:href="#DejaVuSans-35" x="83.789062"/>
      </g>
     </g>
    </g>
    <g id="xtick_5">
     <g id="line2d_5">
      <g>
       <use xlink:href="#m7ba5fc0570" x="342.382812" y="203.038125" style="stroke: #000000; stroke-width: 0.8"/>
      </g>
     </g>
     <g id="text_5">
      <!-- 0 -->
      <g transform="translate(339.201563 217.636562) scale(0.1 -0.1)">
       <use xlink:href="#DejaVuSans-30"/>
      </g>
     </g>
    </g>
    <g id="xtick_6">
     <g id="line2d_6">
      <g>
       <use xlink:href="#m7ba5fc0570" x="405.791903" y="203.038125" style="stroke: #000000; stroke-width: 0.8"/>
      </g>
     </g>
     <g id="text_6">
      <!-- 5 -->
      <g transform="translate(402.610653 217.636562) scale(0.1 -0.1)">
       <use xlink:href="#DejaVuSans-35"/>
      </g>
     </g>
    </g>
    <g id="xtick_7">
     <g id="line2d_7">
      <g>
       <use xlink:href="#m7ba5fc0570" x="469.200994" y="203.038125" style="stroke: #000000; stroke-width: 0.8"/>
      </g>
     </g>
     <g id="text_7">
      <!-- 10 -->
      <g transform="translate(462.838494 217.636562) scale(0.1 -0.1)">
       <use xlink:href="#DejaVuSans-31"/>
       <use xlink:href="#DejaVuSans-30" x="63.623047"/>
      </g>
     </g>
    </g>
    <g id="xtick_8">
     <g id="line2d_8">
      <g>
       <use xlink:href="#m7ba5fc0570" x="532.610085" y="203.038125" style="stroke: #000000; stroke-width: 0.8"/>
      </g>
     </g>
     <g id="text_8">
      <!-- 15 -->
      <g transform="translate(526.247585 217.636562) scale(0.1 -0.1)">
       <use xlink:href="#DejaVuSans-31"/>
       <use xlink:href="#DejaVuSans-35" x="63.623047"/>
      </g>
     </g>
    </g>
    <g id="xtick_9">
     <g id="line2d_9">
      <g>
       <use xlink:href="#m7ba5fc0570" x="596.019176" y="203.038125" style="stroke: #000000; stroke-width: 0.8"/>
      </g>
     </g>
     <g id="text_9">
      <!-- 20 -->
      <g transform="translate(589.656676 217.636562) scale(0.1 -0.1)">
       <use xlink:href="#DejaVuSans-32"/>
       <use xlink:href="#DejaVuSans-30" x="63.623047"/>
      </g>
     </g>
    </g>
    <g id="text_10">
     <!-- Time [ms] -->
     <g transform="translate(317.183594 231.314687) scale(0.1 -0.1)">
      <defs>
       <path id="DejaVuSans-54" d="M -19 4666 
L 3928 4666 
L 3928 4134 
L 2272 4134 
L 2272 0 
L 1638 0 
L 1638 4134 
L -19 4134 
L -19 4666 
z
" transform="scale(0.015625)"/>
       <path id="DejaVuSans-69" d="M 603 3500 
L 1178 3500 
L 1178 0 
L 603 0 
L 603 3500 
z
M 603 4863 
L 1178 4863 
L 1178 4134 
L 603 4134 
L 603 4863 
z
" transform="scale(0.015625)"/>
       <path id="DejaVuSans-6d" d="M 3328 2828 
Q 3544 3216 3844 3400 
Q 4144 3584 4550 3584 
Q 5097 3584 5394 3201 
Q 5691 2819 5691 2113 
L 5691 0 
L 5113 0 
L 5113 2094 
Q 5113 2597 4934 2840 
Q 4756 3084 4391 3084 
Q 3944 3084 3684 2787 
Q 3425 2491 3425 1978 
L 3425 0 
L 2847 0 
L 2847 2094 
Q 2847 2600 2669 2842 
Q 2491 3084 2119 3084 
Q 1678 3084 1418 2786 
Q 1159 2488 1159 1978 
L 1159 0 
L 581 0 
L 581 3500 
L 1159 3500 
L 1159 2956 
Q 1356 3278 1631 3431 
Q 1906 3584 2284 3584 
Q 2666 3584 2933 3390 
Q 3200 3197 3328 2828 
z
" transform="scale(0.015625)"/>
       <path id="DejaVuSans-65" d="M 3597 1894 
L 3597 1613 
L 953 1613 
Q 991 1019 1311 708 
Q 1631 397 2203 397 
Q 2534 397 2845 478 
Q 3156 559 3463 722 
L 3463 178 
Q 3153 47 2828 -22 
Q 2503 -91 2169 -91 
Q 1331 -91 842 396 
Q 353 884 353 1716 
Q 353 2575 817 3079 
Q 1281 3584 2069 3584 
Q 2775 3584 3186 3129 
Q 3597 2675 3597 1894 
z
M 3022 2063 
Q 3016 2534 2758 2815 
Q 2500 3097 2075 3097 
Q 1594 3097 1305 2825 
Q 1016 2553 972 2059 
L 3022 2063 
z
" transform="scale(0.015625)"/>
       <path id="DejaVuSans-20" transform="scale(0.015625)"/>
       <path id="DejaVuSans-5b" d="M 550 4863 
L 1875 4863 
L 1875 4416 
L 1125 4416 
L 1125 -397 
L 1875 -397 
L 1875 -844 
L 550 -844 
L 550 4863 
z
" transform="scale(0.015625)"/>
       <path id="DejaVuSans-73" d="M 2834 3397 
L 2834 2853 
Q 2591 2978 2328 3040 
Q 2066 3103 1784 3103 
Q 1356 3103 1142 2972 
Q 928 2841 928 2578 
Q 928 2378 1081 2264 
Q 1234 2150 1697 2047 
L 1894 2003 
Q 2506 1872 2764 1633 
Q 3022 1394 3022 966 
Q 3022 478 2636 193 
Q 2250 -91 1575 -91 
Q 1294 -91 989 -36 
Q 684 19 347 128 
L 347 722 
Q 666 556 975 473 
Q 1284 391 1588 391 
Q 1994 391 2212 530 
Q 2431 669 2431 922 
Q 2431 1156 2273 1281 
Q 2116 1406 1581 1522 
L 1381 1569 
Q 847 1681 609 1914 
Q 372 2147 372 2553 
Q 372 3047 722 3315 
Q 1072 3584 1716 3584 
Q 2034 3584 2315 3537 
Q 2597 3491 2834 3397 
z
" transform="scale(0.015625)"/>
       <path id="DejaVuSans-5d" d="M 1947 4863 
L 1947 -844 
L 622 -844 
L 622 -397 
L 1369 -397 
L 1369 4416 
L 622 4416 
L 622 4863 
L 1947 4863 
z
" transform="scale(0.015625)"/>
      </defs>
      <use xlink:href="#DejaVuSans-54"/>
      <use xlink:href="#DejaVuSans-69" x="57.958984"/>
      <use xlink:href="#DejaVuSans-6d" x="85.742188"/>
      <use xlink:href="#DejaVuSans-65" x="183.154297"/>
      <use xlink:href="#DejaVuSans-20" x="244.677734"/>
      <use xlink:href="#DejaVuSans-5b" x="276.464844"/>
      <use xlink:href="#DejaVuSans-6d" x="315.478516"/>
      <use xlink:href="#DejaVuSans-73" x="412.890625"/>
      <use xlink:href="#DejaVuSans-5d" x="464.990234"/>
     </g>
    </g>
   </g>
   <g id="matplotlib.axis_2">
    <g id="ytick_1">
     <g id="line2d_10">
      <defs>
       <path id="m7efa351c7a" d="M 0 0 
L -3.5 0 
" style="stroke: #000000; stroke-width: 0.8"/>
      </defs>
      <g>
       <use xlink:href="#m7efa351c7a" x="63.382812" y="180.804199" style="stroke: #000000; stroke-width: 0.8"/>
      </g>
     </g>
     <g id="text_11">
      <!-- −20 -->
      <g transform="translate(35.278125 184.603418) scale(0.1 -0.1)">
       <use xlink:href="#DejaVuSans-2212"/>
       <use xlink:href="#DejaVuSans-32" x="83.789062"/>
       <use xlink:href="#DejaVuSans-30" x="147.412109"/>
      </g>
     </g>
    </g>
    <g id="ytick_2">
     <g id="line2d_11">
      <g>
       <use xlink:href="#m7efa351c7a" x="63.382812" y="148.1626" style="stroke: #000000; stroke-width: 0.8"/>
      </g>
     </g>
     <g id="text_12">
      <!-- −10 -->
      <g transform="translate(35.278125 151.961819) scale(0.1 -0.1)">
       <use xlink:href="#DejaVuSans-2212"/>
       <use xlink:href="#DejaVuSans-31" x="83.789062"/>
       <use xlink:href="#DejaVuSans-30" x="147.412109"/>
      </g>
     </g>
    </g>
    <g id="ytick_3">
     <g id="line2d_12">
      <g>
       <use xlink:href="#m7efa351c7a" x="63.382812" y="115.521001" style="stroke: #000000; stroke-width: 0.8"/>
      </g>
     </g>
     <g id="text_13">
      <!-- 0 -->
      <g transform="translate(50.020313 119.32022) scale(0.1 -0.1)">
       <use xlink:href="#DejaVuSans-30"/>
      </g>
     </g>
    </g>
    <g id="ytick_4">
     <g id="line2d_13">
      <g>
       <use xlink:href="#m7efa351c7a" x="63.382812" y="82.879401" style="stroke: #000000; stroke-width: 0.8"/>
      </g>
     </g>
     <g id="text_14">
      <!-- 10 -->
      <g transform="translate(43.657812 86.67862) scale(0.1 -0.1)">
       <use xlink:href="#DejaVuSans-31"/>
       <use xlink:href="#DejaVuSans-30" x="63.623047"/>
      </g>
     </g>
    </g>
    <g id="ytick_5">
     <g id="line2d_14">
      <g>
       <use xlink:href="#m7efa351c7a" x="63.382812" y="50.237802" style="stroke: #000000; stroke-width: 0.8"/>
      </g>
     </g>
     <g id="text_15">
      <!-- 20 -->
      <g transform="translate(43.657812 54.037021) scale(0.1 -0.1)">
       <use xlink:href="#DejaVuSans-32"/>
       <use xlink:href="#DejaVuSans-30" x="63.623047"/>
      </g>
     </g>
    </g>
    <g id="text_16">
     <!-- Voltage [uV] -->
     <g transform="translate(29.198438 150.714063) rotate(-90) scale(0.1 -0.1)">
      <defs>
       <path id="DejaVuSans-56" d="M 1831 0 
L 50 4666 
L 709 4666 
L 2188 738 
L 3669 4666 
L 4325 4666 
L 2547 0 
L 1831 0 
z
" transform="scale(0.015625)"/>
       <path id="DejaVuSans-6f" d="M 1959 3097 
Q 1497 3097 1228 2736 
Q 959 2375 959 1747 
Q 959 1119 1226 758 
Q 1494 397 1959 397 
Q 2419 397 2687 759 
Q 2956 1122 2956 1747 
Q 2956 2369 2687 2733 
Q 2419 3097 1959 3097 
z
M 1959 3584 
Q 2709 3584 3137 3096 
Q 3566 2609 3566 1747 
Q 3566 888 3137 398 
Q 2709 -91 1959 -91 
Q 1206 -91 779 398 
Q 353 888 353 1747 
Q 353 2609 779 3096 
Q 1206 3584 1959 3584 
z
" transform="scale(0.015625)"/>
       <path id="DejaVuSans-6c" d="M 603 4863 
L 1178 4863 
L 1178 0 
L 603 0 
L 603 4863 
z
" transform="scale(0.015625)"/>
       <path id="DejaVuSans-74" d="M 1172 4494 
L 1172 3500 
L 2356 3500 
L 2356 3053 
L 1172 3053 
L 1172 1153 
Q 1172 725 1289 603 
Q 1406 481 1766 481 
L 2356 481 
L 2356 0 
L 1766 0 
Q 1100 0 847 248 
Q 594 497 594 1153 
L 594 3053 
L 172 3053 
L 172 3500 
L 594 3500 
L 594 4494 
L 1172 4494 
z
" transform="scale(0.015625)"/>
       <path id="DejaVuSans-61" d="M 2194 1759 
Q 1497 1759 1228 1600 
Q 959 1441 959 1056 
Q 959 750 1161 570 
Q 1363 391 1709 391 
Q 2188 391 2477 730 
Q 2766 1069 2766 1631 
L 2766 1759 
L 2194 1759 
z
M 3341 1997 
L 3341 0 
L 2766 0 
L 2766 531 
Q 2569 213 2275 61 
Q 1981 -91 1556 -91 
Q 1019 -91 701 211 
Q 384 513 384 1019 
Q 384 1609 779 1909 
Q 1175 2209 1959 2209 
L 2766 2209 
L 2766 2266 
Q 2766 2663 2505 2880 
Q 2244 3097 1772 3097 
Q 1472 3097 1187 3025 
Q 903 2953 641 2809 
L 641 3341 
Q 956 3463 1253 3523 
Q 1550 3584 1831 3584 
Q 2591 3584 2966 3190 
Q 3341 2797 3341 1997 
z
" transform="scale(0.015625)"/>
       <path id="DejaVuSans-67" d="M 2906 1791 
Q 2906 2416 2648 2759 
Q 2391 3103 1925 3103 
Q 1463 3103 1205 2759 
Q 947 2416 947 1791 
Q 947 1169 1205 825 
Q 1463 481 1925 481 
Q 2391 481 2648 825 
Q 2906 1169 2906 1791 
z
M 3481 434 
Q 3481 -459 3084 -895 
Q 2688 -1331 1869 -1331 
Q 1566 -1331 1297 -1286 
Q 1028 -1241 775 -1147 
L 775 -588 
Q 1028 -725 1275 -790 
Q 1522 -856 1778 -856 
Q 2344 -856 2625 -561 
Q 2906 -266 2906 331 
L 2906 616 
Q 2728 306 2450 153 
Q 2172 0 1784 0 
Q 1141 0 747 490 
Q 353 981 353 1791 
Q 353 2603 747 3093 
Q 1141 3584 1784 3584 
Q 2172 3584 2450 3431 
Q 2728 3278 2906 2969 
L 2906 3500 
L 3481 3500 
L 3481 434 
z
" transform="scale(0.015625)"/>
       <path id="DejaVuSans-75" d="M 544 1381 
L 544 3500 
L 1119 3500 
L 1119 1403 
Q 1119 906 1312 657 
Q 1506 409 1894 409 
Q 2359 409 2629 706 
Q 2900 1003 2900 1516 
L 2900 3500 
L 3475 3500 
L 3475 0 
L 2900 0 
L 2900 538 
Q 2691 219 2414 64 
Q 2138 -91 1772 -91 
Q 1169 -91 856 284 
Q 544 659 544 1381 
z
M 1991 3584 
L 1991 3584 
z
" transform="scale(0.015625)"/>
      </defs>
      <use xlink:href="#DejaVuSans-56"/>
      <use xlink:href="#DejaVuSans-6f" x="60.658203"/>
      <use xlink:href="#DejaVuSans-6c" x="121.839844"/>
      <use xlink:href="#DejaVuSans-74" x="149.623047"/>
      <use xlink:href="#DejaVuSans-61" x="188.832031"/>
      <use xlink:href="#DejaVuSans-67" x="250.111328"/>
      <use xlink:href="#DejaVuSans-65" x="313.587891"/>
      <use xlink:href="#DejaVuSans-20" x="375.111328"/>
      <use xlink:href="#DejaVuSans-5b" x="406.898438"/>
      <use xlink:href="#DejaVuSans-75" x="445.912109"/>
      <use xlink:href="#DejaVuSans-56" x="509.291016"/>
      <use xlink:href="#DejaVuSans-5d" x="577.699219"/>
     </g>
    </g>
   </g>
   <g id="line2d_15">
    <path d="M 88.746449 152.532994 
L 89.381333 152.67928 
L 90.016218 160.48051 
L 90.651102 133.683967 
L 91.285987 132.206312 
L 91.920871 115.232788 
L 92.555756 107.792349 
L 93.19064 129.760208 
L 94.460409 118.689895 
L 95.095294 124.515 
L 95.730179 101.746564 
L 96.999948 74.478538 
L 97.634832 77.250637 
L 98.269717 55.35937 
L 98.904601 64.480629 
L 99.539486 81.965396 
L 100.17437 53.350224 
L 100.809255 84.939694 
L 101.444139 127.82484 
L 102.079024 123.493578 
L 102.713908 112.190221 
L 103.348793 143.527279 
L 103.983677 112.090885 
L 104.618562 104.293188 
L 105.253446 112.256308 
L 105.888331 98.697201 
L 106.523215 88.523831 
L 107.1581 101.245589 
L 107.792984 100.762438 
L 108.427869 89.626157 
L 109.062753 121.643407 
L 109.697638 96.273258 
L 110.332522 86.917344 
L 110.967407 89.982544 
L 111.602291 116.915986 
L 112.87206 92.000682 
L 113.506945 142.976226 
L 114.141829 114.038737 
L 114.776714 109.981416 
L 115.411598 114.954684 
L 116.046483 104.803859 
L 116.681368 138.704996 
L 117.316252 128.720945 
L 117.951137 122.950575 
L 118.586021 127.635556 
L 119.220906 109.103143 
L 119.85579 111.102964 
L 120.490675 114.387935 
L 121.125559 138.324735 
L 121.760444 107.021248 
L 122.395328 99.188057 
L 123.030213 127.145579 
L 123.665097 106.360113 
L 124.299982 131.514752 
L 124.934866 145.213284 
L 125.569751 116.333943 
L 126.204635 127.932941 
L 126.83952 170.087095 
L 128.109289 127.910629 
L 128.744173 113.537842 
L 129.379058 114.537774 
L 130.013942 108.257406 
L 130.648827 107.01852 
L 131.283711 110.705833 
L 131.918596 95.762897 
L 132.55348 133.041762 
L 133.188365 129.103365 
L 133.823249 105.94381 
L 134.458134 115.98048 
L 135.093018 108.389032 
L 136.362787 116.868113 
L 136.997672 135.437117 
L 137.632556 135.232755 
L 138.267441 114.495843 
L 138.902326 143.134482 
L 140.172095 117.661488 
L 140.806979 130.241441 
L 141.441864 116.719891 
L 142.076748 89.292131 
L 142.711633 129.455242 
L 143.346517 121.489844 
L 143.981402 97.897113 
L 144.616286 121.847355 
L 145.251171 99.00739 
L 145.886055 115.226833 
L 146.52094 114.271221 
L 147.155824 106.116789 
L 147.790709 123.904871 
L 148.425593 131.461577 
L 149.060478 131.67858 
L 149.695362 121.268049 
L 150.330247 127.996535 
L 150.965131 119.477001 
L 151.600016 124.90429 
L 152.2349 107.012947 
L 152.869785 79.70928 
L 153.504669 113.807268 
L 154.774438 144.322008 
L 156.044207 130.445768 
L 156.679092 127.17094 
L 157.313976 89.986872 
L 157.948861 93.402939 
L 158.583745 118.402533 
L 159.21863 111.634625 
L 159.853515 113.828441 
L 160.488399 99.120592 
L 161.123284 67.965481 
L 162.393053 114.456597 
L 163.662822 79.511946 
L 164.297706 117.766922 
L 164.932591 107.599668 
L 165.567475 89.274641 
L 166.20236 133.775936 
L 166.837244 96.282488 
L 167.472129 102.003779 
L 168.107013 132.451813 
L 168.741898 99.454807 
L 169.376782 97.248931 
L 170.011667 110.182913 
L 170.646551 96.373266 
L 171.281436 139.248464 
L 171.91632 152.77718 
L 172.551205 129.97522 
L 173.186089 151.921383 
L 173.820974 114.809125 
L 174.455858 122.469355 
L 175.090743 110.936542 
L 175.725627 119.801784 
L 176.360512 123.466812 
L 176.995396 85.351499 
L 177.630281 120.600749 
L 178.265165 109.491973 
L 178.90005 101.727848 
L 179.534934 117.744814 
L 180.804704 119.020285 
L 181.439588 122.976099 
L 182.074473 124.777966 
L 182.709357 127.485946 
L 183.344242 119.108486 
L 183.979126 101.42003 
L 184.614011 71.461842 
L 185.248895 64.528977 
L 185.88378 96.409187 
L 186.518664 83.033746 
L 187.153549 122.654127 
L 187.788433 146.144288 
L 188.423318 118.993654 
L 189.058202 103.679096 
L 189.693087 98.141526 
L 190.327971 119.254467 
L 190.962856 116.734871 
L 191.59774 118.422568 
L 192.232625 104.117366 
L 192.867509 109.469306 
L 193.502394 123.946575 
L 194.137278 129.310538 
L 194.772163 143.775029 
L 195.407047 146.744488 
L 196.041932 143.253826 
L 196.676816 147.110238 
L 197.311701 149.137997 
L 198.58147 142.353955 
L 199.216354 151.896931 
L 199.851239 182.753898 
L 200.486123 189.346904 
L 201.121008 179.333699 
L 201.755892 161.854579 
L 202.390777 113.647839 
L 203.025662 108.844267 
L 203.660546 100.914642 
L 204.295431 84.380643 
L 204.930315 76.851121 
L 205.5652 104.343106 
L 206.200084 147.112812 
L 206.834969 94.239308 
L 207.469853 115.632993 
L 208.104738 121.538315 
L 208.739622 103.30898 
L 209.374507 94.601281 
L 210.009391 75.079385 
L 210.644276 65.017211 
L 211.27916 52.529223 
L 211.914045 44.278125 
L 212.548929 50.885586 
L 213.183814 81.424933 
L 213.818698 77.116619 
L 214.453583 117.915784 
L 215.088467 96.839285 
L 215.723352 86.281039 
L 216.358236 96.698851 
L 216.993121 90.894241 
L 217.628005 100.9126 
L 218.26289 89.72393 
L 219.532659 140.034813 
L 220.167543 116.193063 
L 220.802428 129.784759 
L 221.437312 156.615615 
L 222.072197 130.255211 
L 222.707081 142.976493 
L 223.341966 113.444401 
L 223.976851 95.659204 
L 224.611735 123.291146 
L 225.24662 126.054421 
L 225.881504 122.273022 
L 226.516389 127.855381 
L 227.151273 115.521484 
L 227.786158 122.050343 
L 228.421042 113.263948 
L 229.055927 102.253541 
L 229.690811 119.361936 
L 230.325696 114.910619 
L 230.96058 151.673013 
L 231.595465 162.554625 
L 232.230349 151.66102 
L 232.865234 155.433884 
L 233.500118 165.164223 
L 234.135003 148.292963 
L 234.769887 140.623419 
L 235.404772 141.778206 
L 236.039656 141.043644 
L 236.674541 141.629475 
L 237.309425 110.399228 
L 237.94431 114.119997 
L 238.579194 110.42063 
L 239.214079 107.627169 
L 240.483848 83.321357 
L 241.118732 77.04029 
L 241.753617 86.391471 
L 242.388501 117.46088 
L 243.023386 86.286157 
L 243.65827 89.853469 
L 244.293155 97.655349 
L 244.928039 111.313313 
L 245.562924 108.424622 
L 246.197809 84.425708 
L 246.832693 107.160275 
L 247.467578 107.18562 
L 248.102462 85.608885 
L 248.737347 93.006245 
L 249.372231 122.712298 
L 250.007116 113.801581 
L 250.642 114.724617 
L 251.276885 126.287888 
L 251.911769 147.570423 
L 252.546654 163.573022 
L 253.181538 132.761601 
L 253.816423 121.922827 
L 254.451307 148.569577 
L 255.086192 140.756187 
L 255.721076 140.866395 
L 256.355961 118.895365 
L 256.990845 117.262325 
L 257.62573 126.385792 
L 258.260614 102.555091 
L 258.895499 106.602425 
L 259.530383 84.634169 
L 260.165268 76.743557 
L 260.800152 85.776477 
L 261.435037 104.912326 
L 262.069921 58.897358 
L 263.33969 113.509869 
L 263.974575 89.550643 
L 264.609459 120.443527 
L 265.244344 119.157314 
L 265.879228 107.105945 
L 266.514113 116.30499 
L 267.148998 143.537675 
L 267.783882 109.632791 
L 268.418767 119.628204 
L 269.053651 103.611918 
L 269.688536 104.107463 
L 270.32342 111.005034 
L 270.958305 101.403913 
L 271.593189 123.577685 
L 272.862958 142.638785 
L 273.497843 127.332997 
L 274.132727 116.015664 
L 274.767612 88.465956 
L 275.402496 116.90685 
L 276.037381 96.104583 
L 276.672265 110.279858 
L 277.30715 128.003483 
L 277.942034 127.278988 
L 278.576919 139.650752 
L 279.211803 115.018959 
L 279.846688 120.26842 
L 280.481572 137.098126 
L 281.116457 161.544053 
L 281.751341 159.103467 
L 282.386226 159.09942 
L 283.02111 140.273561 
L 283.655995 141.562842 
L 284.290879 144.253819 
L 284.925764 154.723456 
L 285.560648 128.410603 
L 286.195533 111.953693 
L 286.830417 128.415783 
L 287.465302 155.753454 
L 288.100186 146.214426 
L 288.735071 130.090666 
L 289.369956 154.472302 
L 290.00484 122.718517 
L 290.639725 108.661237 
L 291.274609 124.01441 
L 291.909494 112.54611 
L 292.544378 82.998496 
L 293.179263 103.10968 
L 293.814147 106.5643 
L 294.449032 102.610927 
L 295.718801 51.821232 
L 296.353685 80.676923 
L 296.98857 76.090953 
L 298.258339 91.990149 
L 298.893223 87.746553 
L 299.528108 96.921984 
L 300.162992 67.581687 
L 300.797877 104.196499 
L 301.432761 129.91452 
L 302.067646 125.84465 
L 302.70253 116.318055 
L 303.337415 119.15652 
L 303.972299 105.789851 
L 304.607184 96.170392 
L 305.242068 116.854534 
L 305.876953 65.760783 
L 306.511837 60.451286 
L 307.781606 74.730992 
L 308.416491 52.686251 
L 309.051375 68.03957 
L 309.68626 77.738133 
L 310.956029 124.157475 
L 311.590914 120.237798 
L 312.225798 162.117887 
L 312.860683 156.788201 
L 313.495567 157.973863 
L 314.130452 155.714657 
L 314.765336 149.997603 
L 315.400221 150.100648 
L 316.035105 135.077366 
L 316.66999 125.937347 
L 317.304874 140.006465 
L 317.939759 130.965996 
L 318.574643 131.098444 
L 319.209528 139.73669 
L 319.844412 112.210327 
L 320.479297 128.714831 
L 321.114181 117.74248 
L 321.749066 103.013251 
L 322.38395 127.345413 
L 323.653719 143.569532 
L 324.288604 107.625884 
L 324.923488 111.659728 
L 325.558373 103.663394 
L 326.193257 126.42054 
L 326.828142 107.490058 
L 327.463026 114.602382 
L 328.097911 133.18205 
L 328.732795 94.610171 
L 329.36768 134.336745 
L 330.002564 106.503085 
L 330.637449 109.718328 
L 331.272333 104.436434 
L 331.907218 123.618577 
L 332.542103 131.067859 
L 333.176987 153.733669 
L 333.811872 162.241476 
L 334.446756 120.453906 
L 335.081641 134.982241 
L 335.716525 120.476434 
L 336.986294 105.378048 
L 337.621179 101.338765 
L 338.890948 142.723385 
L 339.525832 137.245348 
L 340.160717 144.828402 
L 340.795601 126.245965 
L 341.430486 121.633875 
L 342.06537 107.042934 
L 342.700255 104.929062 
L 343.335139 110.194457 
L 343.970024 101.67209 
L 344.604908 109.611508 
L 345.239793 85.086936 
L 345.874677 93.203348 
L 346.509562 89.510756 
L 347.144446 90.879408 
L 347.779331 103.46315 
L 348.414215 96.25823 
L 349.0491 103.380208 
L 349.683984 98.495568 
L 350.318869 98.168142 
L 350.953753 93.743296 
L 351.588638 65.551785 
L 352.223522 102.97118 
L 352.858407 98.47307 
L 353.493292 109.588489 
L 354.128176 134.571898 
L 354.763061 141.558362 
L 355.397945 194.233576 
L 356.03283 177.203599 
L 356.667714 177.53144 
L 357.302599 142.032598 
L 357.937483 125.19074 
L 358.572368 122.608667 
L 359.207252 105.292133 
L 359.842137 120.214506 
L 361.111906 109.402936 
L 361.74679 95.22259 
L 362.381675 99.095828 
L 363.016559 96.085627 
L 363.651444 99.482943 
L 364.286328 103.827283 
L 364.921213 92.106118 
L 365.556097 117.803351 
L 366.190982 122.154822 
L 366.825866 97.276645 
L 367.460751 110.059086 
L 368.095635 102.087113 
L 368.73052 123.278357 
L 369.365404 98.517096 
L 370.000289 53.590961 
L 370.635173 64.949222 
L 371.270058 78.570183 
L 371.904942 112.159777 
L 372.539827 132.014545 
L 373.174711 131.957416 
L 373.809596 121.639963 
L 374.44448 146.623656 
L 375.079365 129.58297 
L 375.71425 116.685078 
L 376.349134 108.147707 
L 376.984019 86.039754 
L 377.618903 74.573964 
L 378.253788 75.028715 
L 378.888672 90.661994 
L 379.523557 126.907686 
L 380.158441 140.555454 
L 380.793326 115.626715 
L 381.42821 112.275827 
L 382.063095 94.644238 
L 383.332864 110.43408 
L 383.967748 145.925774 
L 384.602633 156.021533 
L 385.237517 148.027202 
L 385.872402 127.697929 
L 386.507286 134.981136 
L 387.142171 154.090914 
L 387.777055 156.400414 
L 388.41194 141.050705 
L 389.046824 129.501668 
L 389.681709 152.911018 
L 390.316593 122.361731 
L 390.951478 152.783869 
L 391.586362 131.782296 
L 392.221247 119.673252 
L 392.856131 143.759297 
L 393.491016 131.225288 
L 394.1259 151.934802 
L 395.395669 108.576692 
L 396.030554 113.214087 
L 396.665439 119.982971 
L 397.300323 83.623767 
L 397.935208 76.032158 
L 398.570092 88.460561 
L 399.204977 69.00993 
L 400.474746 106.54633 
L 401.10963 89.358187 
L 401.744515 96.342367 
L 402.379399 112.131221 
L 403.014284 96.320076 
L 403.649168 109.454808 
L 404.284053 100.119433 
L 404.918937 109.315109 
L 405.553822 120.481132 
L 406.188706 117.417888 
L 406.823591 133.866047 
L 407.458475 129.28777 
L 408.09336 151.10161 
L 408.728244 125.818484 
L 409.363129 116.808547 
L 409.998013 147.746842 
L 410.632898 134.089595 
L 411.267782 107.243014 
L 411.902667 100.448809 
L 412.537551 97.887733 
L 413.172436 96.703234 
L 413.80732 113.968486 
L 414.442205 99.918416 
L 415.077089 102.67204 
L 415.711974 130.443539 
L 416.346858 118.120185 
L 416.981743 116.970263 
L 418.251512 99.578809 
L 418.886397 93.759536 
L 419.521281 96.708708 
L 420.156166 84.549663 
L 420.79105 68.881723 
L 421.425935 118.082083 
L 422.060819 110.933084 
L 422.695704 112.254589 
L 423.330588 108.298191 
L 423.965473 89.34222 
L 424.600357 127.827809 
L 425.235242 132.718983 
L 425.870126 153.629825 
L 426.505011 148.170903 
L 427.139895 105.524736 
L 427.77478 127.41168 
L 428.409664 144.572538 
L 429.044549 118.163557 
L 429.679433 100.2149 
L 430.314318 133.77116 
L 430.949202 127.791028 
L 431.584087 119.467432 
L 432.218971 149.041927 
L 432.853856 107.049093 
L 433.48874 127.079071 
L 434.123625 165.23257 
L 434.758509 110.301396 
L 435.393394 143.13988 
L 436.028278 141.376198 
L 436.663163 75.117917 
L 437.298047 125.481276 
L 437.932932 133.003329 
L 438.567816 133.279614 
L 439.202701 132.194212 
L 439.837586 110.669344 
L 440.47247 135.696842 
L 441.107355 105.387672 
L 441.742239 106.5842 
L 442.377124 107.252467 
L 443.012008 130.772431 
L 443.646893 124.543177 
L 444.281777 104.498659 
L 444.916662 109.521808 
L 445.551546 79.320313 
L 446.186431 118.823052 
L 446.821315 94.087342 
L 447.4562 109.12567 
L 448.091084 92.837862 
L 448.725969 79.730902 
L 449.360853 90.922894 
L 449.995738 84.02975 
L 450.630622 83.971898 
L 451.265507 54.478058 
L 451.900391 97.524886 
L 452.535276 76.310868 
L 453.17016 59.081547 
L 453.805045 66.749069 
L 454.439929 52.701015 
L 455.074814 66.521789 
L 457.614352 190.894806 
L 458.249236 195.478125 
L 458.884121 164.088867 
L 459.519005 180.498371 
L 460.15389 180.517961 
L 460.788774 179.02543 
L 462.058544 130.515245 
L 462.693428 124.462506 
L 463.328313 146.27291 
L 463.963197 132.360681 
L 464.598082 126.283821 
L 465.232966 136.735152 
L 465.867851 99.124009 
L 466.502735 123.633559 
L 467.13762 99.764598 
L 467.772504 117.254811 
L 468.407389 90.654913 
L 469.042273 100.37989 
L 469.677158 118.941701 
L 470.312042 106.671037 
L 470.946927 108.321326 
L 471.581811 100.38368 
L 472.216696 84.351392 
L 472.85158 87.133638 
L 473.486465 91.05472 
L 474.121349 103.725952 
L 474.756234 125.346462 
L 475.391118 101.686112 
L 476.026003 125.564368 
L 476.660887 126.132108 
L 477.295772 90.485432 
L 477.930656 75.818773 
L 478.565541 127.057611 
L 479.200425 85.685461 
L 479.83531 109.227435 
L 480.470194 139.220587 
L 481.105079 119.682219 
L 481.739963 134.014584 
L 482.374848 129.69629 
L 483.009733 133.804448 
L 483.644617 107.988396 
L 484.279502 96.670742 
L 484.914386 118.118096 
L 485.549271 111.811778 
L 486.184155 110.352769 
L 486.81904 106.106397 
L 487.453924 87.166165 
L 488.088809 108.259592 
L 488.723693 99.426457 
L 489.358578 114.491321 
L 489.993462 118.463622 
L 490.628347 127.995776 
L 491.263231 102.904704 
L 491.898116 111.203875 
L 492.533 136.156443 
L 493.167885 130.277052 
L 493.802769 157.152983 
L 494.437654 152.06907 
L 495.072538 137.296656 
L 495.707423 133.245613 
L 496.342307 137.737503 
L 496.977192 125.9496 
L 497.612076 128.601164 
L 498.246961 141.589722 
L 498.881845 126.47427 
L 499.51673 98.010778 
L 500.151614 93.835668 
L 500.786499 119.92729 
L 501.421383 119.825675 
L 502.056268 111.188778 
L 502.691152 99.443766 
L 503.326037 99.134276 
L 503.960921 105.905424 
L 504.595806 95.200001 
L 505.230691 88.295642 
L 505.865575 59.915627 
L 506.50046 80.977452 
L 507.135344 88.132102 
L 507.770229 104.294959 
L 508.405113 106.041529 
L 509.674882 137.869454 
L 510.309767 126.841002 
L 510.944651 144.191224 
L 511.579536 110.716765 
L 512.21442 133.311148 
L 512.849305 108.544392 
L 513.484189 120.520158 
L 514.119074 149.597104 
L 514.753958 91.817752 
L 515.388843 79.204143 
L 516.023727 89.850458 
L 517.293496 133.083059 
L 517.928381 166.745992 
L 518.563265 144.512501 
L 519.19815 146.430522 
L 519.833034 140.074555 
L 520.467919 118.367443 
L 521.102803 119.79569 
L 521.737688 130.905913 
L 522.372572 133.345503 
L 523.007457 134.38107 
L 523.642341 155.271658 
L 524.277226 114.153671 
L 524.91211 111.72566 
L 525.546995 70.248568 
L 526.18188 93.053603 
L 526.816764 100.73879 
L 527.451649 94.739939 
L 528.086533 121.036295 
L 528.721418 98.256783 
L 529.356302 79.654842 
L 529.991187 77.44474 
L 530.626071 90.589743 
L 531.260956 65.996251 
L 531.89584 121.416513 
L 532.530725 119.273603 
L 533.800494 104.262578 
L 534.435378 100.814538 
L 535.070263 121.573427 
L 535.705147 79.88574 
L 536.340032 84.696335 
L 536.974916 137.321134 
L 537.609801 142.635936 
L 538.244685 150.865059 
L 538.87957 171.333648 
L 539.514454 151.662981 
L 540.149339 118.651794 
L 540.784223 107.852646 
L 541.419108 120.212759 
L 542.053992 89.425688 
L 542.688877 64.656826 
L 543.323761 74.73201 
L 543.958646 102.848047 
L 544.59353 116.610872 
L 545.228415 124.024518 
L 545.863299 117.065806 
L 546.498184 137.068864 
L 547.133069 142.972749 
L 547.767953 146.390355 
L 548.402838 153.649742 
L 549.037722 178.026185 
L 549.672607 166.343687 
L 550.307491 135.160422 
L 550.942376 125.100671 
L 551.57726 96.656908 
L 552.212145 112.714497 
L 552.847029 107.020197 
L 553.481914 93.567859 
L 554.116798 90.473308 
L 554.751683 115.402326 
L 555.386567 125.296404 
L 556.021452 110.09013 
L 556.656336 112.203953 
L 557.291221 139.329185 
L 557.926105 119.968555 
L 558.56099 88.48366 
L 559.195874 98.988403 
L 559.830759 136.332688 
L 560.465643 98.333696 
L 561.100528 85.465734 
L 561.735412 112.341416 
L 562.370297 120.375269 
L 563.005181 160.806458 
L 563.640066 136.584747 
L 564.27495 139.390901 
L 564.909835 153.753732 
L 565.544719 139.782807 
L 566.179604 149.551981 
L 566.814488 142.260754 
L 567.449373 99.122904 
L 568.084257 108.625399 
L 568.719142 123.390897 
L 569.354027 101.863927 
L 569.988911 110.973853 
L 570.623796 131.479387 
L 571.25868 110.272968 
L 571.893565 115.93875 
L 572.528449 107.329294 
L 573.163334 64.080919 
L 573.798218 51.918615 
L 574.433103 71.301861 
L 575.067987 66.959453 
L 575.702872 96.144646 
L 576.337756 104.792018 
L 576.972641 68.512535 
L 577.607525 76.383155 
L 578.24241 114.365697 
L 578.877294 115.469545 
L 579.512179 66.253012 
L 580.147063 108.803929 
L 580.781948 120.198599 
L 581.416832 92.059252 
L 582.051717 92.896108 
L 582.686601 138.438381 
L 583.321486 119.958794 
L 583.95637 117.440391 
L 584.591255 135.246563 
L 585.226139 108.600386 
L 585.861024 111.456874 
L 586.495908 87.699998 
L 587.765677 133.0061 
L 588.400562 140.400592 
L 589.035446 114.656637 
L 589.670331 120.676539 
L 590.305216 105.844643 
L 590.9401 109.824969 
L 591.574985 174.036203 
L 592.209869 140.985379 
L 592.844754 161.365125 
L 593.479638 158.829924 
L 594.114523 161.374342 
L 594.749407 172.963055 
L 595.384292 142.841611 
L 596.019176 144.614263 
L 596.019176 144.614263 
" clip-path="url(#p466dff0038)" style="fill: none; stroke: #1f77b4; stroke-width: 1.5; stroke-linecap: square"/>
   </g>
   <g id="line2d_16">
    <path d="M 342.700255 104.929062 
L 343.335139 110.194457 
L 343.970024 101.67209 
L 344.604908 109.611508 
L 345.239793 85.086936 
L 345.874677 93.203348 
L 346.509562 89.510756 
L 347.144446 90.879408 
L 347.779331 103.46315 
L 348.414215 96.25823 
L 349.0491 103.380208 
L 349.683984 98.495568 
L 350.318869 98.168142 
L 350.953753 93.743296 
L 351.588638 65.551785 
L 352.223522 102.97118 
L 352.858407 98.47307 
L 353.493292 109.588489 
L 354.128176 134.571898 
L 354.763061 141.558362 
L 355.397945 194.233576 
L 356.03283 177.203599 
L 356.667714 177.53144 
L 357.302599 142.032598 
L 357.937483 125.19074 
L 358.572368 122.608667 
L 359.207252 105.292133 
L 359.842137 120.214506 
L 360.477021 114.620525 
L 361.111906 109.402936 
L 361.74679 95.22259 
L 362.381675 99.095828 
L 363.016559 96.085627 
L 363.651444 99.482943 
L 364.286328 103.827283 
L 364.921213 92.106118 
L 365.556097 117.803351 
L 366.190982 122.154822 
L 366.825866 97.276645 
L 367.460751 110.059086 
" clip-path="url(#p466dff0038)" style="fill: none; stroke: #ff0000; stroke-width: 1.5; stroke-linecap: square"/>
   </g>
   <g id="patch_3">
    <path d="M 63.382812 203.038125 
L 63.382812 36.718125 
" style="fill: none; stroke: #000000; stroke-width: 0.8; stroke-linejoin: miter; stroke-linecap: square"/>
   </g>
   <g id="patch_4">
    <path d="M 621.382812 203.038125 
L 621.382812 36.718125 
" style="fill: none; stroke: #000000; stroke-width: 0.8; stroke-linejoin: miter; stroke-linecap: square"/>
   </g>
   <g id="patch_5">
    <path d="M 63.382812 203.038125 
L 621.382812 203.038125 
" style="fill: none; stroke: #000000; stroke-width: 0.8; stroke-linejoin: miter; stroke-linecap: square"/>
   </g>
   <g id="patch_6">
    <path d="M 63.382812 36.718125 
L 621.382812 36.718125 
" style="fill: none; stroke: #000000; stroke-width: 0.8; stroke-linejoin: miter; stroke-linecap: square"/>
   </g>
   <g id="text_17">
    <!-- Channel:6, Time stamp : 1637827 -->
    <g transform="translate(240.144688 30.718125) scale(0.12 -0.12)">
     <defs>
      <path id="DejaVuSans-43" d="M 4122 4306 
L 4122 3641 
Q 3803 3938 3442 4084 
Q 3081 4231 2675 4231 
Q 1875 4231 1450 3742 
Q 1025 3253 1025 2328 
Q 1025 1406 1450 917 
Q 1875 428 2675 428 
Q 3081 428 3442 575 
Q 3803 722 4122 1019 
L 4122 359 
Q 3791 134 3420 21 
Q 3050 -91 2638 -91 
Q 1578 -91 968 557 
Q 359 1206 359 2328 
Q 359 3453 968 4101 
Q 1578 4750 2638 4750 
Q 3056 4750 3426 4639 
Q 3797 4528 4122 4306 
z
" transform="scale(0.015625)"/>
      <path id="DejaVuSans-68" d="M 3513 2113 
L 3513 0 
L 2938 0 
L 2938 2094 
Q 2938 2591 2744 2837 
Q 2550 3084 2163 3084 
Q 1697 3084 1428 2787 
Q 1159 2491 1159 1978 
L 1159 0 
L 581 0 
L 581 4863 
L 1159 4863 
L 1159 2956 
Q 1366 3272 1645 3428 
Q 1925 3584 2291 3584 
Q 2894 3584 3203 3211 
Q 3513 2838 3513 2113 
z
" transform="scale(0.015625)"/>
      <path id="DejaVuSans-6e" d="M 3513 2113 
L 3513 0 
L 2938 0 
L 2938 2094 
Q 2938 2591 2744 2837 
Q 2550 3084 2163 3084 
Q 1697 3084 1428 2787 
Q 1159 2491 1159 1978 
L 1159 0 
L 581 0 
L 581 3500 
L 1159 3500 
L 1159 2956 
Q 1366 3272 1645 3428 
Q 1925 3584 2291 3584 
Q 2894 3584 3203 3211 
Q 3513 2838 3513 2113 
z
" transform="scale(0.015625)"/>
      <path id="DejaVuSans-3a" d="M 750 794 
L 1409 794 
L 1409 0 
L 750 0 
L 750 794 
z
M 750 3309 
L 1409 3309 
L 1409 2516 
L 750 2516 
L 750 3309 
z
" transform="scale(0.015625)"/>
      <path id="DejaVuSans-36" d="M 2113 2584 
Q 1688 2584 1439 2293 
Q 1191 2003 1191 1497 
Q 1191 994 1439 701 
Q 1688 409 2113 409 
Q 2538 409 2786 701 
Q 3034 994 3034 1497 
Q 3034 2003 2786 2293 
Q 2538 2584 2113 2584 
z
M 3366 4563 
L 3366 3988 
Q 3128 4100 2886 4159 
Q 2644 4219 2406 4219 
Q 1781 4219 1451 3797 
Q 1122 3375 1075 2522 
Q 1259 2794 1537 2939 
Q 1816 3084 2150 3084 
Q 2853 3084 3261 2657 
Q 3669 2231 3669 1497 
Q 3669 778 3244 343 
Q 2819 -91 2113 -91 
Q 1303 -91 875 529 
Q 447 1150 447 2328 
Q 447 3434 972 4092 
Q 1497 4750 2381 4750 
Q 2619 4750 2861 4703 
Q 3103 4656 3366 4563 
z
" transform="scale(0.015625)"/>
      <path id="DejaVuSans-2c" d="M 750 794 
L 1409 794 
L 1409 256 
L 897 -744 
L 494 -744 
L 750 256 
L 750 794 
z
" transform="scale(0.015625)"/>
      <path id="DejaVuSans-70" d="M 1159 525 
L 1159 -1331 
L 581 -1331 
L 581 3500 
L 1159 3500 
L 1159 2969 
Q 1341 3281 1617 3432 
Q 1894 3584 2278 3584 
Q 2916 3584 3314 3078 
Q 3713 2572 3713 1747 
Q 3713 922 3314 415 
Q 2916 -91 2278 -91 
Q 1894 -91 1617 61 
Q 1341 213 1159 525 
z
M 3116 1747 
Q 3116 2381 2855 2742 
Q 2594 3103 2138 3103 
Q 1681 3103 1420 2742 
Q 1159 2381 1159 1747 
Q 1159 1113 1420 752 
Q 1681 391 2138 391 
Q 2594 391 2855 752 
Q 3116 1113 3116 1747 
z
" transform="scale(0.015625)"/>
      <path id="DejaVuSans-33" d="M 2597 2516 
Q 3050 2419 3304 2112 
Q 3559 1806 3559 1356 
Q 3559 666 3084 287 
Q 2609 -91 1734 -91 
Q 1441 -91 1130 -33 
Q 819 25 488 141 
L 488 750 
Q 750 597 1062 519 
Q 1375 441 1716 441 
Q 2309 441 2620 675 
Q 2931 909 2931 1356 
Q 2931 1769 2642 2001 
Q 2353 2234 1838 2234 
L 1294 2234 
L 1294 2753 
L 1863 2753 
Q 2328 2753 2575 2939 
Q 2822 3125 2822 3475 
Q 2822 3834 2567 4026 
Q 2313 4219 1838 4219 
Q 1578 4219 1281 4162 
Q 984 4106 628 3988 
L 628 4550 
Q 988 4650 1302 4700 
Q 1616 4750 1894 4750 
Q 2613 4750 3031 4423 
Q 3450 4097 3450 3541 
Q 3450 3153 3228 2886 
Q 3006 2619 2597 2516 
z
" transform="scale(0.015625)"/>
      <path id="DejaVuSans-37" d="M 525 4666 
L 3525 4666 
L 3525 4397 
L 1831 0 
L 1172 0 
L 2766 4134 
L 525 4134 
L 525 4666 
z
" transform="scale(0.015625)"/>
      <path id="DejaVuSans-38" d="M 2034 2216 
Q 1584 2216 1326 1975 
Q 1069 1734 1069 1313 
Q 1069 891 1326 650 
Q 1584 409 2034 409 
Q 2484 409 2743 651 
Q 3003 894 3003 1313 
Q 3003 1734 2745 1975 
Q 2488 2216 2034 2216 
z
M 1403 2484 
Q 997 2584 770 2862 
Q 544 3141 544 3541 
Q 544 4100 942 4425 
Q 1341 4750 2034 4750 
Q 2731 4750 3128 4425 
Q 3525 4100 3525 3541 
Q 3525 3141 3298 2862 
Q 3072 2584 2669 2484 
Q 3125 2378 3379 2068 
Q 3634 1759 3634 1313 
Q 3634 634 3220 271 
Q 2806 -91 2034 -91 
Q 1263 -91 848 271 
Q 434 634 434 1313 
Q 434 1759 690 2068 
Q 947 2378 1403 2484 
z
M 1172 3481 
Q 1172 3119 1398 2916 
Q 1625 2713 2034 2713 
Q 2441 2713 2670 2916 
Q 2900 3119 2900 3481 
Q 2900 3844 2670 4047 
Q 2441 4250 2034 4250 
Q 1625 4250 1398 4047 
Q 1172 3844 1172 3481 
z
" transform="scale(0.015625)"/>
     </defs>
     <use xlink:href="#DejaVuSans-43"/>
     <use xlink:href="#DejaVuSans-68" x="69.824219"/>
     <use xlink:href="#DejaVuSans-61" x="133.203125"/>
     <use xlink:href="#DejaVuSans-6e" x="194.482422"/>
     <use xlink:href="#DejaVuSans-6e" x="257.861328"/>
     <use xlink:href="#DejaVuSans-65" x="321.240234"/>
     <use xlink:href="#DejaVuSans-6c" x="382.763672"/>
     <use xlink:href="#DejaVuSans-3a" x="410.546875"/>
     <use xlink:href="#DejaVuSans-36" x="444.238281"/>
     <use xlink:href="#DejaVuSans-2c" x="507.861328"/>
     <use xlink:href="#DejaVuSans-20" x="539.648438"/>
     <use xlink:href="#DejaVuSans-54" x="571.435547"/>
     <use xlink:href="#DejaVuSans-69" x="629.394531"/>
     <use xlink:href="#DejaVuSans-6d" x="657.177734"/>
     <use xlink:href="#DejaVuSans-65" x="754.589844"/>
     <use xlink:href="#DejaVuSans-20" x="816.113281"/>
     <use xlink:href="#DejaVuSans-73" x="847.900391"/>
     <use xlink:href="#DejaVuSans-74" x="900"/>
     <use xlink:href="#DejaVuSans-61" x="939.208984"/>
     <use xlink:href="#DejaVuSans-6d" x="1000.488281"/>
     <use xlink:href="#DejaVuSans-70" x="1097.900391"/>
     <use xlink:href="#DejaVuSans-20" x="1161.376953"/>
     <use xlink:href="#DejaVuSans-3a" x="1193.164062"/>
     <use xlink:href="#DejaVuSans-20" x="1226.855469"/>
     <use xlink:href="#DejaVuSans-31" x="1258.642578"/>
     <use xlink:href="#DejaVuSans-36" x="1322.265625"/>
     <use xlink:href="#DejaVuSans-33" x="1385.888672"/>
     <use xlink:href="#DejaVuSans-37" x="1449.511719"/>
     <use xlink:href="#DejaVuSans-38" x="1513.134766"/>
     <use xlink:href="#DejaVuSans-32" x="1576.757812"/>
     <use xlink:href="#DejaVuSans-37" x="1640.380859"/>
    </g>
   </g>
  </g>
 </g>
 <defs>
  <clipPath id="p466dff0038">
   <rect x="63.382812" y="36.718125" width="558" height="166.32"/>
  </clipPath>
 </defs>
</svg>
