<?xml version="1.0" encoding="utf-8" standalone="no"?>
<!DOCTYPE svg PUBLIC "-//W3C//DTD SVG 1.1//EN"
  "http://www.w3.org/Graphics/SVG/1.1/DTD/svg11.dtd">
<svg xmlns:xlink="http://www.w3.org/1999/xlink" width="642.982813pt" height="254.994375pt" viewBox="0 0 642.982813 254.994375" xmlns="http://www.w3.org/2000/svg" version="1.1">
 <metadata>
  <rdf:RDF xmlns:dc="http://purl.org/dc/elements/1.1/" xmlns:cc="http://creativecommons.org/ns#" xmlns:rdf="http://www.w3.org/1999/02/22-rdf-syntax-ns#">
   <cc:Work>
    <dc:type rdf:resource="http://purl.org/dc/dcmitype/StillImage"/>
    <dc:date>2024-02-26T10:41:43.766330</dc:date>
    <dc:format>image/svg+xml</dc:format>
    <dc:creator>
     <cc:Agent>
      <dc:title>Matplotlib v3.7.1, https://matplotlib.org/</dc:title>
     </cc:Agent>
    </dc:creator>
   </cc:Work>
  </rdf:RDF>
 </metadata>
 <defs>
  <style type="text/css">*{stroke-linejoin: round; stroke-linecap: butt}</style>
 </defs>
 <g id="figure_1">
  <g id="patch_1">
   <path d="M 0 254.994375 
L 642.982813 254.994375 
L 642.982813 -0 
L 0 -0 
z
" style="fill: #ffffff"/>
  </g>
  <g id="axes_1">
   <g id="patch_2">
    <path d="M 63.382812 203.038125 
L 621.382812 203.038125 
L 621.382812 36.718125 
L 63.382812 36.718125 
z
" style="fill: #ffffff"/>
   </g>
   <g id="matplotlib.axis_1">
    <g id="xtick_1">
     <g id="line2d_1">
      <defs>
       <path id="m96b02a3a45" d="M 0 0 
L 0 3.5 
" style="stroke: #000000; stroke-width: 0.8"/>
      </defs>
      <g>
       <use xlink:href="#m96b02a3a45" x="88.746449" y="203.038125" style="stroke: #000000; stroke-width: 0.8"/>
      </g>
     </g>
     <g id="text_1">
      <!-- −20 -->
      <g transform="translate(78.194105 217.636562) scale(0.1 -0.1)">
       <defs>
        <path id="DejaVuSans-2212" d="M 678 2272 
L 4684 2272 
L 4684 1741 
L 678 1741 
L 678 2272 
z
" transform="scale(0.015625)"/>
        <path id="DejaVuSans-32" d="M 1228 531 
L 3431 531 
L 3431 0 
L 469 0 
L 469 531 
Q 828 903 1448 1529 
Q 2069 2156 2228 2338 
Q 2531 2678 2651 2914 
Q 2772 3150 2772 3378 
Q 2772 3750 2511 3984 
Q 2250 4219 1831 4219 
Q 1534 4219 1204 4116 
Q 875 4013 500 3803 
L 500 4441 
Q 881 4594 1212 4672 
Q 1544 4750 1819 4750 
Q 2544 4750 2975 4387 
Q 3406 4025 3406 3419 
Q 3406 3131 3298 2873 
Q 3191 2616 2906 2266 
Q 2828 2175 2409 1742 
Q 1991 1309 1228 531 
z
" transform="scale(0.015625)"/>
        <path id="DejaVuSans-30" d="M 2034 4250 
Q 1547 4250 1301 3770 
Q 1056 3291 1056 2328 
Q 1056 1369 1301 889 
Q 1547 409 2034 409 
Q 2525 409 2770 889 
Q 3016 1369 3016 2328 
Q 3016 3291 2770 3770 
Q 2525 4250 2034 4250 
z
M 2034 4750 
Q 2819 4750 3233 4129 
Q 3647 3509 3647 2328 
Q 3647 1150 3233 529 
Q 2819 -91 2034 -91 
Q 1250 -91 836 529 
Q 422 1150 422 2328 
Q 422 3509 836 4129 
Q 1250 4750 2034 4750 
z
" transform="scale(0.015625)"/>
       </defs>
       <use xlink:href="#DejaVuSans-2212"/>
       <use xlink:href="#DejaVuSans-32" x="83.789062"/>
       <use xlink:href="#DejaVuSans-30" x="147.412109"/>
      </g>
     </g>
    </g>
    <g id="xtick_2">
     <g id="line2d_2">
      <g>
       <use xlink:href="#m96b02a3a45" x="152.15554" y="203.038125" style="stroke: #000000; stroke-width: 0.8"/>
      </g>
     </g>
     <g id="text_2">
      <!-- −15 -->
      <g transform="translate(141.603196 217.636562) scale(0.1 -0.1)">
       <defs>
        <path id="DejaVuSans-31" d="M 794 531 
L 1825 531 
L 1825 4091 
L 703 3866 
L 703 4441 
L 1819 4666 
L 2450 4666 
L 2450 531 
L 3481 531 
L 3481 0 
L 794 0 
L 794 531 
z
" transform="scale(0.015625)"/>
        <path id="DejaVuSans-35" d="M 691 4666 
L 3169 4666 
L 3169 4134 
L 1269 4134 
L 1269 2991 
Q 1406 3038 1543 3061 
Q 1681 3084 1819 3084 
Q 2600 3084 3056 2656 
Q 3513 2228 3513 1497 
Q 3513 744 3044 326 
Q 2575 -91 1722 -91 
Q 1428 -91 1123 -41 
Q 819 9 494 109 
L 494 744 
Q 775 591 1075 516 
Q 1375 441 1709 441 
Q 2250 441 2565 725 
Q 2881 1009 2881 1497 
Q 2881 1984 2565 2268 
Q 2250 2553 1709 2553 
Q 1456 2553 1204 2497 
Q 953 2441 691 2322 
L 691 4666 
z
" transform="scale(0.015625)"/>
       </defs>
       <use xlink:href="#DejaVuSans-2212"/>
       <use xlink:href="#DejaVuSans-31" x="83.789062"/>
       <use xlink:href="#DejaVuSans-35" x="147.412109"/>
      </g>
     </g>
    </g>
    <g id="xtick_3">
     <g id="line2d_3">
      <g>
       <use xlink:href="#m96b02a3a45" x="215.564631" y="203.038125" style="stroke: #000000; stroke-width: 0.8"/>
      </g>
     </g>
     <g id="text_3">
      <!-- −10 -->
      <g transform="translate(205.012287 217.636562) scale(0.1 -0.1)">
       <use xlink:href="#DejaVuSans-2212"/>
       <use xlink:href="#DejaVuSans-31" x="83.789062"/>
       <use xlink:href="#DejaVuSans-30" x="147.412109"/>
      </g>
     </g>
    </g>
    <g id="xtick_4">
     <g id="line2d_4">
      <g>
       <use xlink:href="#m96b02a3a45" x="278.973722" y="203.038125" style="stroke: #000000; stroke-width: 0.8"/>
      </g>
     </g>
     <g id="text_4">
      <!-- −5 -->
      <g transform="translate(271.602628 217.636562) scale(0.1 -0.1)">
       <use xlink:href="#DejaVuSans-2212"/>
       <use xlink:href="#DejaVuSans-35" x="83.789062"/>
      </g>
     </g>
    </g>
    <g id="xtick_5">
     <g id="line2d_5">
      <g>
       <use xlink:href="#m96b02a3a45" x="342.382812" y="203.038125" style="stroke: #000000; stroke-width: 0.8"/>
      </g>
     </g>
     <g id="text_5">
      <!-- 0 -->
      <g transform="translate(339.201563 217.636562) scale(0.1 -0.1)">
       <use xlink:href="#DejaVuSans-30"/>
      </g>
     </g>
    </g>
    <g id="xtick_6">
     <g id="line2d_6">
      <g>
       <use xlink:href="#m96b02a3a45" x="405.791903" y="203.038125" style="stroke: #000000; stroke-width: 0.8"/>
      </g>
     </g>
     <g id="text_6">
      <!-- 5 -->
      <g transform="translate(402.610653 217.636562) scale(0.1 -0.1)">
       <use xlink:href="#DejaVuSans-35"/>
      </g>
     </g>
    </g>
    <g id="xtick_7">
     <g id="line2d_7">
      <g>
       <use xlink:href="#m96b02a3a45" x="469.200994" y="203.038125" style="stroke: #000000; stroke-width: 0.8"/>
      </g>
     </g>
     <g id="text_7">
      <!-- 10 -->
      <g transform="translate(462.838494 217.636562) scale(0.1 -0.1)">
       <use xlink:href="#DejaVuSans-31"/>
       <use xlink:href="#DejaVuSans-30" x="63.623047"/>
      </g>
     </g>
    </g>
    <g id="xtick_8">
     <g id="line2d_8">
      <g>
       <use xlink:href="#m96b02a3a45" x="532.610085" y="203.038125" style="stroke: #000000; stroke-width: 0.8"/>
      </g>
     </g>
     <g id="text_8">
      <!-- 15 -->
      <g transform="translate(526.247585 217.636562) scale(0.1 -0.1)">
       <use xlink:href="#DejaVuSans-31"/>
       <use xlink:href="#DejaVuSans-35" x="63.623047"/>
      </g>
     </g>
    </g>
    <g id="xtick_9">
     <g id="line2d_9">
      <g>
       <use xlink:href="#m96b02a3a45" x="596.019176" y="203.038125" style="stroke: #000000; stroke-width: 0.8"/>
      </g>
     </g>
     <g id="text_9">
      <!-- 20 -->
      <g transform="translate(589.656676 217.636562) scale(0.1 -0.1)">
       <use xlink:href="#DejaVuSans-32"/>
       <use xlink:href="#DejaVuSans-30" x="63.623047"/>
      </g>
     </g>
    </g>
    <g id="text_10">
     <!-- Time [ms] -->
     <g transform="translate(317.183594 231.314687) scale(0.1 -0.1)">
      <defs>
       <path id="DejaVuSans-54" d="M -19 4666 
L 3928 4666 
L 3928 4134 
L 2272 4134 
L 2272 0 
L 1638 0 
L 1638 4134 
L -19 4134 
L -19 4666 
z
" transform="scale(0.015625)"/>
       <path id="DejaVuSans-69" d="M 603 3500 
L 1178 3500 
L 1178 0 
L 603 0 
L 603 3500 
z
M 603 4863 
L 1178 4863 
L 1178 4134 
L 603 4134 
L 603 4863 
z
" transform="scale(0.015625)"/>
       <path id="DejaVuSans-6d" d="M 3328 2828 
Q 3544 3216 3844 3400 
Q 4144 3584 4550 3584 
Q 5097 3584 5394 3201 
Q 5691 2819 5691 2113 
L 5691 0 
L 5113 0 
L 5113 2094 
Q 5113 2597 4934 2840 
Q 4756 3084 4391 3084 
Q 3944 3084 3684 2787 
Q 3425 2491 3425 1978 
L 3425 0 
L 2847 0 
L 2847 2094 
Q 2847 2600 2669 2842 
Q 2491 3084 2119 3084 
Q 1678 3084 1418 2786 
Q 1159 2488 1159 1978 
L 1159 0 
L 581 0 
L 581 3500 
L 1159 3500 
L 1159 2956 
Q 1356 3278 1631 3431 
Q 1906 3584 2284 3584 
Q 2666 3584 2933 3390 
Q 3200 3197 3328 2828 
z
" transform="scale(0.015625)"/>
       <path id="DejaVuSans-65" d="M 3597 1894 
L 3597 1613 
L 953 1613 
Q 991 1019 1311 708 
Q 1631 397 2203 397 
Q 2534 397 2845 478 
Q 3156 559 3463 722 
L 3463 178 
Q 3153 47 2828 -22 
Q 2503 -91 2169 -91 
Q 1331 -91 842 396 
Q 353 884 353 1716 
Q 353 2575 817 3079 
Q 1281 3584 2069 3584 
Q 2775 3584 3186 3129 
Q 3597 2675 3597 1894 
z
M 3022 2063 
Q 3016 2534 2758 2815 
Q 2500 3097 2075 3097 
Q 1594 3097 1305 2825 
Q 1016 2553 972 2059 
L 3022 2063 
z
" transform="scale(0.015625)"/>
       <path id="DejaVuSans-20" transform="scale(0.015625)"/>
       <path id="DejaVuSans-5b" d="M 550 4863 
L 1875 4863 
L 1875 4416 
L 1125 4416 
L 1125 -397 
L 1875 -397 
L 1875 -844 
L 550 -844 
L 550 4863 
z
" transform="scale(0.015625)"/>
       <path id="DejaVuSans-73" d="M 2834 3397 
L 2834 2853 
Q 2591 2978 2328 3040 
Q 2066 3103 1784 3103 
Q 1356 3103 1142 2972 
Q 928 2841 928 2578 
Q 928 2378 1081 2264 
Q 1234 2150 1697 2047 
L 1894 2003 
Q 2506 1872 2764 1633 
Q 3022 1394 3022 966 
Q 3022 478 2636 193 
Q 2250 -91 1575 -91 
Q 1294 -91 989 -36 
Q 684 19 347 128 
L 347 722 
Q 666 556 975 473 
Q 1284 391 1588 391 
Q 1994 391 2212 530 
Q 2431 669 2431 922 
Q 2431 1156 2273 1281 
Q 2116 1406 1581 1522 
L 1381 1569 
Q 847 1681 609 1914 
Q 372 2147 372 2553 
Q 372 3047 722 3315 
Q 1072 3584 1716 3584 
Q 2034 3584 2315 3537 
Q 2597 3491 2834 3397 
z
" transform="scale(0.015625)"/>
       <path id="DejaVuSans-5d" d="M 1947 4863 
L 1947 -844 
L 622 -844 
L 622 -397 
L 1369 -397 
L 1369 4416 
L 622 4416 
L 622 4863 
L 1947 4863 
z
" transform="scale(0.015625)"/>
      </defs>
      <use xlink:href="#DejaVuSans-54"/>
      <use xlink:href="#DejaVuSans-69" x="57.958984"/>
      <use xlink:href="#DejaVuSans-6d" x="85.742188"/>
      <use xlink:href="#DejaVuSans-65" x="183.154297"/>
      <use xlink:href="#DejaVuSans-20" x="244.677734"/>
      <use xlink:href="#DejaVuSans-5b" x="276.464844"/>
      <use xlink:href="#DejaVuSans-6d" x="315.478516"/>
      <use xlink:href="#DejaVuSans-73" x="412.890625"/>
      <use xlink:href="#DejaVuSans-5d" x="464.990234"/>
     </g>
    </g>
   </g>
   <g id="matplotlib.axis_2">
    <g id="ytick_1">
     <g id="line2d_10">
      <defs>
       <path id="m0f2a4db294" d="M 0 0 
L -3.5 0 
" style="stroke: #000000; stroke-width: 0.8"/>
      </defs>
      <g>
       <use xlink:href="#m0f2a4db294" x="63.382812" y="182.298102" style="stroke: #000000; stroke-width: 0.8"/>
      </g>
     </g>
     <g id="text_11">
      <!-- −20 -->
      <g transform="translate(35.278125 186.097321) scale(0.1 -0.1)">
       <use xlink:href="#DejaVuSans-2212"/>
       <use xlink:href="#DejaVuSans-32" x="83.789062"/>
       <use xlink:href="#DejaVuSans-30" x="147.412109"/>
      </g>
     </g>
    </g>
    <g id="ytick_2">
     <g id="line2d_11">
      <g>
       <use xlink:href="#m0f2a4db294" x="63.382812" y="145.86411" style="stroke: #000000; stroke-width: 0.8"/>
      </g>
     </g>
     <g id="text_12">
      <!-- −10 -->
      <g transform="translate(35.278125 149.663329) scale(0.1 -0.1)">
       <use xlink:href="#DejaVuSans-2212"/>
       <use xlink:href="#DejaVuSans-31" x="83.789062"/>
       <use xlink:href="#DejaVuSans-30" x="147.412109"/>
      </g>
     </g>
    </g>
    <g id="ytick_3">
     <g id="line2d_12">
      <g>
       <use xlink:href="#m0f2a4db294" x="63.382812" y="109.430119" style="stroke: #000000; stroke-width: 0.8"/>
      </g>
     </g>
     <g id="text_13">
      <!-- 0 -->
      <g transform="translate(50.020313 113.229337) scale(0.1 -0.1)">
       <use xlink:href="#DejaVuSans-30"/>
      </g>
     </g>
    </g>
    <g id="ytick_4">
     <g id="line2d_13">
      <g>
       <use xlink:href="#m0f2a4db294" x="63.382812" y="72.996127" style="stroke: #000000; stroke-width: 0.8"/>
      </g>
     </g>
     <g id="text_14">
      <!-- 10 -->
      <g transform="translate(43.657812 76.795346) scale(0.1 -0.1)">
       <use xlink:href="#DejaVuSans-31"/>
       <use xlink:href="#DejaVuSans-30" x="63.623047"/>
      </g>
     </g>
    </g>
    <g id="text_15">
     <!-- Voltage [uV] -->
     <g transform="translate(29.198438 150.714063) rotate(-90) scale(0.1 -0.1)">
      <defs>
       <path id="DejaVuSans-56" d="M 1831 0 
L 50 4666 
L 709 4666 
L 2188 738 
L 3669 4666 
L 4325 4666 
L 2547 0 
L 1831 0 
z
" transform="scale(0.015625)"/>
       <path id="DejaVuSans-6f" d="M 1959 3097 
Q 1497 3097 1228 2736 
Q 959 2375 959 1747 
Q 959 1119 1226 758 
Q 1494 397 1959 397 
Q 2419 397 2687 759 
Q 2956 1122 2956 1747 
Q 2956 2369 2687 2733 
Q 2419 3097 1959 3097 
z
M 1959 3584 
Q 2709 3584 3137 3096 
Q 3566 2609 3566 1747 
Q 3566 888 3137 398 
Q 2709 -91 1959 -91 
Q 1206 -91 779 398 
Q 353 888 353 1747 
Q 353 2609 779 3096 
Q 1206 3584 1959 3584 
z
" transform="scale(0.015625)"/>
       <path id="DejaVuSans-6c" d="M 603 4863 
L 1178 4863 
L 1178 0 
L 603 0 
L 603 4863 
z
" transform="scale(0.015625)"/>
       <path id="DejaVuSans-74" d="M 1172 4494 
L 1172 3500 
L 2356 3500 
L 2356 3053 
L 1172 3053 
L 1172 1153 
Q 1172 725 1289 603 
Q 1406 481 1766 481 
L 2356 481 
L 2356 0 
L 1766 0 
Q 1100 0 847 248 
Q 594 497 594 1153 
L 594 3053 
L 172 3053 
L 172 3500 
L 594 3500 
L 594 4494 
L 1172 4494 
z
" transform="scale(0.015625)"/>
       <path id="DejaVuSans-61" d="M 2194 1759 
Q 1497 1759 1228 1600 
Q 959 1441 959 1056 
Q 959 750 1161 570 
Q 1363 391 1709 391 
Q 2188 391 2477 730 
Q 2766 1069 2766 1631 
L 2766 1759 
L 2194 1759 
z
M 3341 1997 
L 3341 0 
L 2766 0 
L 2766 531 
Q 2569 213 2275 61 
Q 1981 -91 1556 -91 
Q 1019 -91 701 211 
Q 384 513 384 1019 
Q 384 1609 779 1909 
Q 1175 2209 1959 2209 
L 2766 2209 
L 2766 2266 
Q 2766 2663 2505 2880 
Q 2244 3097 1772 3097 
Q 1472 3097 1187 3025 
Q 903 2953 641 2809 
L 641 3341 
Q 956 3463 1253 3523 
Q 1550 3584 1831 3584 
Q 2591 3584 2966 3190 
Q 3341 2797 3341 1997 
z
" transform="scale(0.015625)"/>
       <path id="DejaVuSans-67" d="M 2906 1791 
Q 2906 2416 2648 2759 
Q 2391 3103 1925 3103 
Q 1463 3103 1205 2759 
Q 947 2416 947 1791 
Q 947 1169 1205 825 
Q 1463 481 1925 481 
Q 2391 481 2648 825 
Q 2906 1169 2906 1791 
z
M 3481 434 
Q 3481 -459 3084 -895 
Q 2688 -1331 1869 -1331 
Q 1566 -1331 1297 -1286 
Q 1028 -1241 775 -1147 
L 775 -588 
Q 1028 -725 1275 -790 
Q 1522 -856 1778 -856 
Q 2344 -856 2625 -561 
Q 2906 -266 2906 331 
L 2906 616 
Q 2728 306 2450 153 
Q 2172 0 1784 0 
Q 1141 0 747 490 
Q 353 981 353 1791 
Q 353 2603 747 3093 
Q 1141 3584 1784 3584 
Q 2172 3584 2450 3431 
Q 2728 3278 2906 2969 
L 2906 3500 
L 3481 3500 
L 3481 434 
z
" transform="scale(0.015625)"/>
       <path id="DejaVuSans-75" d="M 544 1381 
L 544 3500 
L 1119 3500 
L 1119 1403 
Q 1119 906 1312 657 
Q 1506 409 1894 409 
Q 2359 409 2629 706 
Q 2900 1003 2900 1516 
L 2900 3500 
L 3475 3500 
L 3475 0 
L 2900 0 
L 2900 538 
Q 2691 219 2414 64 
Q 2138 -91 1772 -91 
Q 1169 -91 856 284 
Q 544 659 544 1381 
z
M 1991 3584 
L 1991 3584 
z
" transform="scale(0.015625)"/>
      </defs>
      <use xlink:href="#DejaVuSans-56"/>
      <use xlink:href="#DejaVuSans-6f" x="60.658203"/>
      <use xlink:href="#DejaVuSans-6c" x="121.839844"/>
      <use xlink:href="#DejaVuSans-74" x="149.623047"/>
      <use xlink:href="#DejaVuSans-61" x="188.832031"/>
      <use xlink:href="#DejaVuSans-67" x="250.111328"/>
      <use xlink:href="#DejaVuSans-65" x="313.587891"/>
      <use xlink:href="#DejaVuSans-20" x="375.111328"/>
      <use xlink:href="#DejaVuSans-5b" x="406.898438"/>
      <use xlink:href="#DejaVuSans-75" x="445.912109"/>
      <use xlink:href="#DejaVuSans-56" x="509.291016"/>
      <use xlink:href="#DejaVuSans-5d" x="577.699219"/>
     </g>
    </g>
   </g>
   <g id="line2d_14">
    <path d="M 88.746449 138.394823 
L 89.381333 118.895033 
L 90.016218 106.761816 
L 90.651102 118.970955 
L 91.285987 124.135811 
L 91.920871 79.196377 
L 92.555756 117.331283 
L 93.19064 96.216539 
L 93.825525 96.98162 
L 94.460409 118.913466 
L 95.095294 93.602352 
L 95.730179 107.540634 
L 96.365063 110.712505 
L 96.999948 132.464468 
L 97.634832 116.320742 
L 98.269717 114.836137 
L 98.904601 116.109241 
L 99.539486 134.218704 
L 100.17437 118.621534 
L 100.809255 96.80279 
L 101.444139 115.365818 
L 102.079024 107.69441 
L 102.713908 78.67745 
L 103.348793 119.952794 
L 103.983677 129.382001 
L 104.618562 100.845085 
L 105.253446 119.036212 
L 105.888331 111.426434 
L 106.523215 126.532493 
L 107.1581 127.512513 
L 107.792984 122.042471 
L 108.427869 107.178925 
L 109.062753 126.15804 
L 109.697638 113.671933 
L 110.332522 118.953787 
L 110.967407 83.083858 
L 111.602291 89.725401 
L 112.237176 116.344946 
L 112.87206 70.393268 
L 113.506945 130.372235 
L 114.141829 89.337757 
L 114.776714 76.168128 
L 115.411598 100.362749 
L 116.046483 83.040908 
L 116.681368 82.868377 
L 117.316252 123.984326 
L 117.951137 148.410472 
L 118.586021 98.101901 
L 119.220906 110.150159 
L 119.85579 111.24846 
L 120.490675 110.185521 
L 121.760444 95.228318 
L 122.395328 83.44502 
L 123.030213 85.162437 
L 123.665097 99.37066 
L 124.299982 110.529011 
L 124.934866 152.25954 
L 125.569751 128.698083 
L 127.474404 91.886274 
L 128.109289 95.887193 
L 128.744173 61.746449 
L 129.379058 98.234854 
L 130.013942 124.699827 
L 130.648827 92.042247 
L 131.283711 109.515488 
L 131.918596 109.310506 
L 132.55348 122.748544 
L 133.188365 92.527759 
L 133.823249 86.228864 
L 134.458134 133.380991 
L 135.093018 121.427542 
L 135.727903 96.201922 
L 136.362787 89.086017 
L 136.997672 127.3597 
L 137.632556 115.67604 
L 138.902326 150.073384 
L 139.53721 175.808702 
L 140.172095 138.328781 
L 140.806979 133.34339 
L 141.441864 169.303911 
L 142.076748 136.341673 
L 142.711633 128.662352 
L 143.346517 114.424171 
L 143.981402 128.685691 
L 144.616286 86.751175 
L 145.251171 94.065192 
L 145.886055 104.480517 
L 146.52094 119.263893 
L 147.155824 110.093571 
L 147.790709 90.557096 
L 148.425593 100.792985 
L 149.060478 98.112352 
L 149.695362 99.362096 
L 150.330247 92.848307 
L 150.965131 107.263562 
L 151.600016 80.401363 
L 152.2349 87.580279 
L 152.869785 74.241761 
L 153.504669 79.396235 
L 154.139554 87.85984 
L 154.774438 86.255836 
L 155.409323 108.474585 
L 156.044207 86.116734 
L 156.679092 100.579017 
L 157.313976 106.665107 
L 157.948861 74.850509 
L 158.583745 123.721564 
L 159.21863 159.196513 
L 159.853515 124.47185 
L 160.488399 118.481083 
L 161.123284 129.492721 
L 161.758168 124.663523 
L 162.393053 106.078334 
L 163.027937 95.354867 
L 163.662822 96.835403 
L 164.297706 113.700425 
L 164.932591 114.535048 
L 165.567475 102.277052 
L 166.20236 135.007987 
L 167.472129 112.774734 
L 168.107013 155.000521 
L 168.741898 104.668593 
L 169.376782 104.061555 
L 170.011667 134.140509 
L 170.646551 98.676233 
L 171.281436 123.05302 
L 171.91632 125.331087 
L 172.551205 78.527094 
L 173.186089 90.939388 
L 173.820974 97.913717 
L 174.455858 95.659204 
L 175.090743 120.842497 
L 175.725627 140.894321 
L 176.360512 123.175744 
L 176.995396 97.326917 
L 177.630281 115.583936 
L 178.265165 97.807157 
L 178.90005 95.941867 
L 179.534934 85.500806 
L 180.169819 69.221513 
L 180.804704 102.335395 
L 181.439588 109.306045 
L 182.074473 119.195025 
L 182.709357 108.200842 
L 183.344242 72.861424 
L 184.614011 86.968197 
L 185.248895 105.32227 
L 185.88378 96.877039 
L 187.153549 138.123092 
L 187.788433 106.049869 
L 188.423318 138.243193 
L 189.058202 98.639154 
L 189.693087 111.436738 
L 190.327971 116.156683 
L 190.962856 96.046255 
L 191.59774 136.614952 
L 192.232625 111.940343 
L 192.867509 117.416644 
L 193.502394 96.584784 
L 194.137278 96.940246 
L 194.772163 94.031737 
L 196.041932 154.031621 
L 196.676816 115.348743 
L 197.311701 120.307577 
L 197.946585 123.63959 
L 198.58147 95.900776 
L 199.851239 136.24597 
L 200.486123 111.277332 
L 201.121008 108.496678 
L 201.755892 104.088154 
L 202.390777 133.429025 
L 203.025662 140.267974 
L 203.660546 142.821131 
L 204.295431 140.963602 
L 205.5652 104.770161 
L 206.200084 94.961553 
L 206.834969 103.463191 
L 207.469853 107.966013 
L 208.104738 106.509309 
L 208.739622 108.123764 
L 209.374507 99.709141 
L 210.009391 86.87877 
L 210.644276 97.271153 
L 211.27916 82.577841 
L 211.914045 124.756772 
L 212.548929 143.530074 
L 213.183814 126.008428 
L 213.818698 104.210597 
L 214.453583 109.508379 
L 215.088467 129.469932 
L 215.723352 112.862697 
L 216.358236 107.081013 
L 216.993121 102.633709 
L 217.628005 107.402177 
L 218.26289 83.046748 
L 218.897774 82.847445 
L 219.532659 93.151249 
L 220.167543 100.20715 
L 220.802428 102.382423 
L 221.437312 96.961325 
L 222.072197 85.157178 
L 222.707081 83.765239 
L 223.341966 71.313389 
L 223.976851 44.278125 
L 224.611735 64.402585 
L 225.24662 70.865712 
L 225.881504 123.389279 
L 226.516389 154.305682 
L 227.151273 134.591518 
L 227.786158 109.897412 
L 228.421042 103.684926 
L 229.055927 125.933115 
L 229.690811 115.922911 
L 230.325696 110.065297 
L 230.96058 115.898341 
L 231.595465 137.604103 
L 232.230349 132.052453 
L 232.865234 115.466443 
L 233.500118 137.424329 
L 234.135003 135.986602 
L 234.769887 88.014931 
L 235.404772 103.213316 
L 236.039656 108.217164 
L 236.674541 117.270953 
L 237.309425 106.453236 
L 237.94431 104.21258 
L 238.579194 119.74226 
L 239.214079 113.712912 
L 239.848963 123.285564 
L 240.483848 113.045236 
L 241.118732 98.660229 
L 241.753617 101.475748 
L 242.388501 133.985817 
L 243.023386 101.745111 
L 243.65827 123.392883 
L 244.293155 104.656222 
L 244.928039 123.674166 
L 245.562924 115.962168 
L 246.197809 85.736849 
L 246.832693 83.176717 
L 247.467578 76.99324 
L 248.102462 110.115822 
L 248.737347 61.846805 
L 249.372231 108.752841 
L 250.007116 123.37167 
L 250.642 126.020688 
L 251.276885 137.215238 
L 251.911769 107.938541 
L 252.546654 108.352343 
L 253.181538 108.495557 
L 253.816423 124.186226 
L 254.451307 119.857322 
L 255.086192 96.645154 
L 255.721076 139.863024 
L 256.355961 121.674418 
L 256.990845 108.085841 
L 257.62573 124.001344 
L 258.260614 108.320835 
L 258.895499 146.995431 
L 259.530383 114.249634 
L 260.165268 111.100919 
L 260.800152 99.569983 
L 261.435037 81.677549 
L 262.704806 111.992976 
L 263.33969 124.200999 
L 263.974575 111.795533 
L 264.609459 123.033712 
L 265.244344 113.034482 
L 265.879228 118.3326 
L 266.514113 113.562075 
L 267.148998 101.570263 
L 267.783882 113.367154 
L 268.418767 101.8692 
L 269.053651 102.494841 
L 269.688536 128.457089 
L 270.32342 115.039914 
L 271.593189 135.364964 
L 272.228074 111.268537 
L 272.862958 119.411889 
L 273.497843 83.822646 
L 274.132727 85.637567 
L 274.767612 103.96618 
L 275.402496 93.699899 
L 276.037381 89.296755 
L 276.672265 88.160943 
L 277.30715 109.451122 
L 277.942034 102.396021 
L 278.576919 84.863793 
L 279.211803 85.245014 
L 279.846688 84.448252 
L 280.481572 87.155502 
L 281.116457 112.45686 
L 281.751341 83.988972 
L 282.386226 104.92777 
L 283.02111 107.03518 
L 283.655995 105.171241 
L 284.290879 137.148095 
L 284.925764 79.056865 
L 285.560648 100.473202 
L 286.195533 111.11066 
L 286.830417 95.788061 
L 287.465302 109.675939 
L 288.100186 113.159871 
L 288.735071 135.142281 
L 289.369956 146.914869 
L 290.00484 170.459811 
L 291.274609 104.795795 
L 291.909494 119.392702 
L 292.544378 127.132663 
L 293.179263 126.338816 
L 293.814147 103.907018 
L 294.449032 112.042959 
L 295.083916 89.125825 
L 295.718801 103.492703 
L 296.353685 125.437288 
L 296.98857 112.037339 
L 297.623454 116.243365 
L 298.258339 115.632521 
L 298.893223 126.218709 
L 299.528108 97.922496 
L 300.162992 107.777235 
L 300.797877 80.924903 
L 301.432761 80.108026 
L 302.067646 109.39863 
L 302.70253 85.131896 
L 303.337415 103.770398 
L 303.972299 60.337591 
L 304.607184 67.581614 
L 305.242068 120.130808 
L 305.876953 126.561912 
L 306.511837 116.055505 
L 307.146722 122.249412 
L 307.781606 118.480884 
L 308.416491 111.4529 
L 309.051375 126.01514 
L 309.68626 109.070607 
L 310.321145 103.863939 
L 310.956029 97.331913 
L 311.590914 107.445887 
L 312.225798 125.975877 
L 312.860683 138.166589 
L 313.495567 115.453321 
L 314.130452 144.129734 
L 314.765336 146.793695 
L 315.400221 130.972557 
L 316.035105 146.154327 
L 316.66999 138.427867 
L 317.304874 122.816593 
L 317.939759 103.214487 
L 318.574643 125.838614 
L 319.209528 104.865653 
L 319.844412 91.299761 
L 320.479297 96.468116 
L 321.114181 71.77851 
L 321.749066 73.752678 
L 322.38395 69.395259 
L 323.018835 62.304794 
L 323.653719 111.122275 
L 324.288604 92.699108 
L 324.923488 135.819468 
L 325.558373 119.506435 
L 326.193257 82.335358 
L 326.828142 127.855322 
L 327.463026 118.999062 
L 328.097911 136.258199 
L 328.732795 102.264053 
L 329.36768 104.236648 
L 330.002564 98.198473 
L 330.637449 87.19649 
L 331.272333 84.091885 
L 331.907218 119.204073 
L 332.542103 99.778311 
L 333.176987 100.740813 
L 333.811872 116.901339 
L 334.446756 92.136111 
L 335.081641 118.471968 
L 335.716525 101.864609 
L 336.35141 116.614853 
L 336.986294 94.374497 
L 337.621179 111.351383 
L 338.256063 118.686773 
L 338.890948 137.488984 
L 339.525832 138.591314 
L 340.160717 133.902656 
L 340.795601 162.651732 
L 341.430486 133.240137 
L 342.06537 121.993272 
L 342.700255 101.3692 
L 343.335139 113.271054 
L 343.970024 105.764826 
L 344.604908 83.220415 
L 345.239793 68.980121 
L 345.874677 95.081748 
L 346.509562 100.429729 
L 347.144446 84.205811 
L 347.779331 92.841644 
L 348.414215 81.855995 
L 349.0491 93.11209 
L 349.683984 94.436294 
L 350.318869 87.029672 
L 350.953753 66.551178 
L 352.858407 102.63816 
L 353.493292 106.921657 
L 354.128176 102.254902 
L 354.763061 136.896391 
L 355.397945 189.918653 
L 356.03283 195.478125 
L 356.667714 147.490959 
L 357.302599 142.029584 
L 357.937483 145.463661 
L 358.572368 128.612975 
L 359.207252 95.019275 
L 359.842137 94.849283 
L 360.477021 105.569321 
L 361.111906 79.812251 
L 361.74679 88.314687 
L 362.381675 118.30265 
L 363.016559 96.555979 
L 363.651444 95.914929 
L 364.286328 105.449635 
L 364.921213 97.875317 
L 365.556097 122.83861 
L 366.190982 101.414036 
L 366.825866 117.492828 
L 367.460751 127.806256 
L 368.095635 81.630171 
L 368.73052 129.405718 
L 369.365404 122.570757 
L 370.000289 142.389759 
L 370.635173 136.636627 
L 371.270058 103.462111 
L 371.904942 133.11574 
L 372.539827 76.501808 
L 373.174711 82.92041 
L 373.809596 105.509745 
L 374.44448 91.220885 
L 375.079365 92.413774 
L 375.71425 99.050705 
L 376.349134 110.38057 
L 376.984019 138.366378 
L 377.618903 133.836571 
L 378.253788 110.385873 
L 378.888672 141.482522 
L 379.523557 126.613572 
L 380.158441 95.687575 
L 380.793326 142.95381 
L 381.42821 131.471952 
L 382.063095 106.066087 
L 382.697979 114.59932 
L 383.332864 108.247665 
L 384.602633 44.996096 
L 385.237517 86.475821 
L 385.872402 80.368337 
L 386.507286 80.286545 
L 387.142171 126.214035 
L 387.777055 94.080268 
L 388.41194 135.594796 
L 389.046824 145.654742 
L 389.681709 122.676408 
L 390.316593 106.447979 
L 390.951478 64.692073 
L 391.586362 108.622857 
L 392.221247 98.752771 
L 392.856131 111.673464 
L 393.491016 90.60463 
L 394.1259 89.983399 
L 394.760785 82.219333 
L 395.395669 68.354804 
L 396.030554 104.932433 
L 396.665439 95.733576 
L 397.300323 109.093893 
L 397.935208 161.387531 
L 398.570092 153.750119 
L 399.204977 116.764601 
L 399.839861 132.397132 
L 400.474746 120.960152 
L 401.744515 124.217065 
L 402.379399 129.114352 
L 403.014284 118.012091 
L 403.649168 130.856521 
L 404.284053 105.215898 
L 404.918937 106.401421 
L 405.553822 93.694796 
L 406.188706 98.326512 
L 406.823591 116.905197 
L 407.458475 83.840167 
L 408.09336 75.446894 
L 408.728244 57.920403 
L 409.363129 95.122461 
L 409.998013 75.244324 
L 410.632898 92.835327 
L 411.267782 120.889228 
L 411.902667 111.216376 
L 412.537551 120.276396 
L 413.80732 146.618966 
L 414.442205 133.176699 
L 415.077089 107.601126 
L 415.711974 116.799656 
L 416.346858 99.894134 
L 416.981743 92.555222 
L 417.616627 139.175127 
L 418.251512 108.010177 
L 418.886397 89.784531 
L 419.521281 107.723793 
L 420.156166 115.154753 
L 420.79105 110.155341 
L 421.425935 101.624609 
L 422.695704 137.292733 
L 423.330588 135.961261 
L 423.965473 147.550652 
L 425.235242 89.039291 
L 425.870126 99.555492 
L 426.505011 106.663071 
L 427.139895 110.040556 
L 427.77478 125.787754 
L 428.409664 107.723211 
L 429.044549 125.772181 
L 429.679433 123.185024 
L 430.314318 87.398912 
L 430.949202 140.109606 
L 431.584087 97.320071 
L 432.218971 84.618198 
L 432.853856 107.216218 
L 433.48874 110.163803 
L 434.123625 98.620819 
L 434.758509 77.47979 
L 435.393394 95.698979 
L 436.028278 95.96327 
L 436.663163 111.242445 
L 437.298047 91.011823 
L 437.932932 123.217965 
L 438.567816 137.234516 
L 439.202701 113.13137 
L 439.837586 110.32303 
L 440.47247 109.37058 
L 441.107355 90.58799 
L 441.742239 100.536481 
L 442.377124 101.501203 
L 443.012008 73.104888 
L 443.646893 101.872881 
L 444.281777 106.636479 
L 444.916662 146.408566 
L 445.551546 147.145387 
L 446.186431 115.018972 
L 446.821315 106.564499 
L 447.4562 122.049034 
L 448.091084 102.166539 
L 448.725969 115.583163 
L 449.360853 124.060094 
L 449.995738 100.539014 
L 450.630622 105.515669 
L 451.265507 77.57879 
L 451.900391 109.095396 
L 452.535276 113.455902 
L 453.17016 108.532425 
L 453.805045 114.382711 
L 455.074814 135.791314 
L 455.709698 102.052183 
L 456.344583 84.645935 
L 456.979467 111.7032 
L 457.614352 98.116945 
L 458.249236 102.883968 
L 458.884121 98.118859 
L 459.519005 108.920806 
L 460.15389 99.646688 
L 460.788774 102.035382 
L 461.423659 121.958813 
L 462.058544 107.740488 
L 462.693428 131.727341 
L 463.328313 96.862582 
L 463.963197 124.018892 
L 465.232966 96.001893 
L 465.867851 109.158298 
L 466.502735 94.551472 
L 467.13762 120.302993 
L 467.772504 103.29544 
L 468.407389 107.840721 
L 469.042273 118.641409 
L 469.677158 98.824151 
L 470.312042 105.729834 
L 470.946927 95.447561 
L 471.581811 104.291701 
L 472.85158 101.476545 
L 473.486465 100.931534 
L 474.121349 91.536134 
L 474.756234 105.681377 
L 475.391118 95.72437 
L 476.026003 107.125642 
L 476.660887 89.125579 
L 477.295772 106.739307 
L 477.930656 152.695652 
L 478.565541 111.667778 
L 479.200425 121.580797 
L 479.83531 115.546604 
L 480.470194 108.016638 
L 481.105079 128.339195 
L 481.739963 100.631794 
L 482.374848 113.808271 
L 483.009733 100.865208 
L 483.644617 140.836531 
L 484.914386 112.028666 
L 485.549271 132.204441 
L 486.184155 126.055036 
L 486.81904 124.382891 
L 487.453924 126.696219 
L 488.088809 155.000606 
L 488.723693 149.386765 
L 489.358578 151.655094 
L 489.993462 117.322422 
L 490.628347 125.04688 
L 491.263231 119.256787 
L 491.898116 95.089022 
L 492.533 115.369904 
L 493.167885 115.065822 
L 493.802769 88.593338 
L 494.437654 83.364914 
L 495.072538 70.894114 
L 495.707423 67.451801 
L 496.342307 90.698285 
L 496.977192 77.946036 
L 497.612076 69.160473 
L 498.246961 81.413216 
L 498.881845 56.035015 
L 499.51673 86.33331 
L 500.151614 122.394311 
L 500.786499 122.499962 
L 501.421383 140.381069 
L 502.056268 119.537299 
L 502.691152 125.644317 
L 503.326037 97.310423 
L 503.960921 103.767509 
L 504.595806 121.878447 
L 505.230691 90.376763 
L 505.865575 97.324559 
L 507.135344 138.031969 
L 507.770229 118.146931 
L 508.405113 122.50933 
L 509.039998 145.083837 
L 509.674882 111.142904 
L 510.309767 99.484704 
L 510.944651 111.035449 
L 511.579536 106.384236 
L 512.21442 112.951168 
L 512.849305 101.122603 
L 513.484189 98.419658 
L 514.119074 124.18805 
L 515.388843 100.261933 
L 516.023727 123.759388 
L 516.658612 135.901811 
L 517.293496 119.598562 
L 517.928381 117.419995 
L 519.19815 78.904363 
L 519.833034 74.12596 
L 520.467919 89.967525 
L 521.102803 118.096755 
L 521.737688 103.001344 
L 522.372572 103.769916 
L 523.007457 88.168832 
L 523.642341 95.79603 
L 524.91211 118.321631 
L 525.546995 124.872901 
L 526.18188 97.446261 
L 526.816764 112.511626 
L 527.451649 117.705105 
L 528.086533 126.356216 
L 528.721418 110.178817 
L 529.356302 76.19394 
L 529.991187 109.679907 
L 530.626071 114.78872 
L 531.260956 86.370149 
L 531.89584 107.877775 
L 532.530725 111.297597 
L 533.165609 90.998713 
L 533.800494 114.839731 
L 534.435378 119.581558 
L 535.070263 114.050996 
L 535.705147 133.250569 
L 536.340032 128.117867 
L 536.974916 129.175818 
L 537.609801 119.391823 
L 538.244685 93.867529 
L 538.87957 88.591281 
L 539.514454 106.194176 
L 540.149339 133.768079 
L 541.419108 103.599878 
L 542.053992 117.479911 
L 542.688877 118.869736 
L 543.323761 134.927475 
L 543.958646 131.980191 
L 544.59353 111.23352 
L 545.228415 111.673591 
L 545.863299 89.03416 
L 546.498184 82.106031 
L 547.133069 94.626895 
L 547.767953 112.90036 
L 548.402838 97.47364 
L 549.037722 98.194307 
L 549.672607 121.029794 
L 550.307491 111.87618 
L 550.942376 127.644294 
L 551.57726 110.616672 
L 552.212145 113.756999 
L 552.847029 105.803933 
L 553.481914 94.267822 
L 554.116798 108.836027 
L 554.751683 92.59437 
L 556.021452 109.417158 
L 556.656336 93.105505 
L 557.291221 102.079327 
L 557.926105 104.960763 
L 558.56099 91.867484 
L 559.195874 100.638126 
L 559.830759 122.095935 
L 561.100528 101.096874 
L 561.735412 125.962141 
L 562.370297 133.298861 
L 563.005181 144.972251 
L 563.640066 159.735453 
L 564.27495 135.761564 
L 564.909835 95.876681 
L 565.544719 100.436162 
L 566.179604 107.999857 
L 566.814488 131.31496 
L 567.449373 101.656368 
L 568.084257 100.458763 
L 568.719142 115.975558 
L 569.354027 93.058182 
L 569.988911 77.83698 
L 570.623796 86.31407 
L 571.25868 123.699926 
L 571.893565 104.328594 
L 572.528449 102.980978 
L 573.163334 93.071264 
L 573.798218 99.52851 
L 574.433103 101.549796 
L 575.067987 114.756059 
L 575.702872 118.401461 
L 576.337756 115.247488 
L 576.972641 131.566294 
L 577.607525 121.571365 
L 578.24241 138.226653 
L 578.877294 128.005115 
L 579.512179 103.59509 
L 580.147063 106.801297 
L 580.781948 121.477417 
L 581.416832 118.309444 
L 582.051717 98.117706 
L 582.686601 96.415256 
L 583.95637 109.279864 
L 584.591255 80.530874 
L 585.226139 105.705076 
L 585.861024 141.778458 
L 586.495908 120.459955 
L 587.130793 133.477466 
L 587.765677 129.351829 
L 588.400562 122.429561 
L 589.035446 98.963144 
L 589.670331 91.591263 
L 590.305216 110.982553 
L 590.9401 94.95709 
L 591.574985 92.936508 
L 592.209869 98.419507 
L 592.844754 96.688108 
L 593.479638 93.444835 
L 594.114523 105.901463 
L 594.749407 86.415798 
L 595.384292 81.512928 
L 596.019176 107.865372 
L 596.019176 107.865372 
" clip-path="url(#p0dac5bcc61)" style="fill: none; stroke: #1f77b4; stroke-width: 1.5; stroke-linecap: square"/>
   </g>
   <g id="line2d_15">
    <path d="M 342.700255 101.3692 
L 343.335139 113.271054 
L 343.970024 105.764826 
L 344.604908 83.220415 
L 345.239793 68.980121 
L 345.874677 95.081748 
L 346.509562 100.429729 
L 347.144446 84.205811 
L 347.779331 92.841644 
L 348.414215 81.855995 
L 349.0491 93.11209 
L 349.683984 94.436294 
L 350.318869 87.029672 
L 350.953753 66.551178 
L 351.588638 78.844876 
L 352.223522 90.592507 
L 352.858407 102.63816 
L 353.493292 106.921657 
L 354.128176 102.254902 
L 354.763061 136.896391 
L 355.397945 189.918653 
L 356.03283 195.478125 
L 356.667714 147.490959 
L 357.302599 142.029584 
L 357.937483 145.463661 
L 358.572368 128.612975 
L 359.207252 95.019275 
L 359.842137 94.849283 
L 360.477021 105.569321 
L 361.111906 79.812251 
L 361.74679 88.314687 
L 362.381675 118.30265 
L 363.016559 96.555979 
L 363.651444 95.914929 
L 364.286328 105.449635 
L 364.921213 97.875317 
L 365.556097 122.83861 
L 366.190982 101.414036 
L 366.825866 117.492828 
L 367.460751 127.806256 
" clip-path="url(#p0dac5bcc61)" style="fill: none; stroke: #ff0000; stroke-width: 1.5; stroke-linecap: square"/>
   </g>
   <g id="patch_3">
    <path d="M 63.382812 203.038125 
L 63.382812 36.718125 
" style="fill: none; stroke: #000000; stroke-width: 0.8; stroke-linejoin: miter; stroke-linecap: square"/>
   </g>
   <g id="patch_4">
    <path d="M 621.382812 203.038125 
L 621.382812 36.718125 
" style="fill: none; stroke: #000000; stroke-width: 0.8; stroke-linejoin: miter; stroke-linecap: square"/>
   </g>
   <g id="patch_5">
    <path d="M 63.382812 203.038125 
L 621.382812 203.038125 
" style="fill: none; stroke: #000000; stroke-width: 0.8; stroke-linejoin: miter; stroke-linecap: square"/>
   </g>
   <g id="patch_6">
    <path d="M 63.382812 36.718125 
L 621.382812 36.718125 
" style="fill: none; stroke: #000000; stroke-width: 0.8; stroke-linejoin: miter; stroke-linecap: square"/>
   </g>
   <g id="text_16">
    <!-- Channel:25, Time stamp : 1022593 -->
    <g transform="translate(236.327188 30.718125) scale(0.12 -0.12)">
     <defs>
      <path id="DejaVuSans-43" d="M 4122 4306 
L 4122 3641 
Q 3803 3938 3442 4084 
Q 3081 4231 2675 4231 
Q 1875 4231 1450 3742 
Q 1025 3253 1025 2328 
Q 1025 1406 1450 917 
Q 1875 428 2675 428 
Q 3081 428 3442 575 
Q 3803 722 4122 1019 
L 4122 359 
Q 3791 134 3420 21 
Q 3050 -91 2638 -91 
Q 1578 -91 968 557 
Q 359 1206 359 2328 
Q 359 3453 968 4101 
Q 1578 4750 2638 4750 
Q 3056 4750 3426 4639 
Q 3797 4528 4122 4306 
z
" transform="scale(0.015625)"/>
      <path id="DejaVuSans-68" d="M 3513 2113 
L 3513 0 
L 2938 0 
L 2938 2094 
Q 2938 2591 2744 2837 
Q 2550 3084 2163 3084 
Q 1697 3084 1428 2787 
Q 1159 2491 1159 1978 
L 1159 0 
L 581 0 
L 581 4863 
L 1159 4863 
L 1159 2956 
Q 1366 3272 1645 3428 
Q 1925 3584 2291 3584 
Q 2894 3584 3203 3211 
Q 3513 2838 3513 2113 
z
" transform="scale(0.015625)"/>
      <path id="DejaVuSans-6e" d="M 3513 2113 
L 3513 0 
L 2938 0 
L 2938 2094 
Q 2938 2591 2744 2837 
Q 2550 3084 2163 3084 
Q 1697 3084 1428 2787 
Q 1159 2491 1159 1978 
L 1159 0 
L 581 0 
L 581 3500 
L 1159 3500 
L 1159 2956 
Q 1366 3272 1645 3428 
Q 1925 3584 2291 3584 
Q 2894 3584 3203 3211 
Q 3513 2838 3513 2113 
z
" transform="scale(0.015625)"/>
      <path id="DejaVuSans-3a" d="M 750 794 
L 1409 794 
L 1409 0 
L 750 0 
L 750 794 
z
M 750 3309 
L 1409 3309 
L 1409 2516 
L 750 2516 
L 750 3309 
z
" transform="scale(0.015625)"/>
      <path id="DejaVuSans-2c" d="M 750 794 
L 1409 794 
L 1409 256 
L 897 -744 
L 494 -744 
L 750 256 
L 750 794 
z
" transform="scale(0.015625)"/>
      <path id="DejaVuSans-70" d="M 1159 525 
L 1159 -1331 
L 581 -1331 
L 581 3500 
L 1159 3500 
L 1159 2969 
Q 1341 3281 1617 3432 
Q 1894 3584 2278 3584 
Q 2916 3584 3314 3078 
Q 3713 2572 3713 1747 
Q 3713 922 3314 415 
Q 2916 -91 2278 -91 
Q 1894 -91 1617 61 
Q 1341 213 1159 525 
z
M 3116 1747 
Q 3116 2381 2855 2742 
Q 2594 3103 2138 3103 
Q 1681 3103 1420 2742 
Q 1159 2381 1159 1747 
Q 1159 1113 1420 752 
Q 1681 391 2138 391 
Q 2594 391 2855 752 
Q 3116 1113 3116 1747 
z
" transform="scale(0.015625)"/>
      <path id="DejaVuSans-39" d="M 703 97 
L 703 672 
Q 941 559 1184 500 
Q 1428 441 1663 441 
Q 2288 441 2617 861 
Q 2947 1281 2994 2138 
Q 2813 1869 2534 1725 
Q 2256 1581 1919 1581 
Q 1219 1581 811 2004 
Q 403 2428 403 3163 
Q 403 3881 828 4315 
Q 1253 4750 1959 4750 
Q 2769 4750 3195 4129 
Q 3622 3509 3622 2328 
Q 3622 1225 3098 567 
Q 2575 -91 1691 -91 
Q 1453 -91 1209 -44 
Q 966 3 703 97 
z
M 1959 2075 
Q 2384 2075 2632 2365 
Q 2881 2656 2881 3163 
Q 2881 3666 2632 3958 
Q 2384 4250 1959 4250 
Q 1534 4250 1286 3958 
Q 1038 3666 1038 3163 
Q 1038 2656 1286 2365 
Q 1534 2075 1959 2075 
z
" transform="scale(0.015625)"/>
      <path id="DejaVuSans-33" d="M 2597 2516 
Q 3050 2419 3304 2112 
Q 3559 1806 3559 1356 
Q 3559 666 3084 287 
Q 2609 -91 1734 -91 
Q 1441 -91 1130 -33 
Q 819 25 488 141 
L 488 750 
Q 750 597 1062 519 
Q 1375 441 1716 441 
Q 2309 441 2620 675 
Q 2931 909 2931 1356 
Q 2931 1769 2642 2001 
Q 2353 2234 1838 2234 
L 1294 2234 
L 1294 2753 
L 1863 2753 
Q 2328 2753 2575 2939 
Q 2822 3125 2822 3475 
Q 2822 3834 2567 4026 
Q 2313 4219 1838 4219 
Q 1578 4219 1281 4162 
Q 984 4106 628 3988 
L 628 4550 
Q 988 4650 1302 4700 
Q 1616 4750 1894 4750 
Q 2613 4750 3031 4423 
Q 3450 4097 3450 3541 
Q 3450 3153 3228 2886 
Q 3006 2619 2597 2516 
z
" transform="scale(0.015625)"/>
     </defs>
     <use xlink:href="#DejaVuSans-43"/>
     <use xlink:href="#DejaVuSans-68" x="69.824219"/>
     <use xlink:href="#DejaVuSans-61" x="133.203125"/>
     <use xlink:href="#DejaVuSans-6e" x="194.482422"/>
     <use xlink:href="#DejaVuSans-6e" x="257.861328"/>
     <use xlink:href="#DejaVuSans-65" x="321.240234"/>
     <use xlink:href="#DejaVuSans-6c" x="382.763672"/>
     <use xlink:href="#DejaVuSans-3a" x="410.546875"/>
     <use xlink:href="#DejaVuSans-32" x="444.238281"/>
     <use xlink:href="#DejaVuSans-35" x="507.861328"/>
     <use xlink:href="#DejaVuSans-2c" x="571.484375"/>
     <use xlink:href="#DejaVuSans-20" x="603.271484"/>
     <use xlink:href="#DejaVuSans-54" x="635.058594"/>
     <use xlink:href="#DejaVuSans-69" x="693.017578"/>
     <use xlink:href="#DejaVuSans-6d" x="720.800781"/>
     <use xlink:href="#DejaVuSans-65" x="818.212891"/>
     <use xlink:href="#DejaVuSans-20" x="879.736328"/>
     <use xlink:href="#DejaVuSans-73" x="911.523438"/>
     <use xlink:href="#DejaVuSans-74" x="963.623047"/>
     <use xlink:href="#DejaVuSans-61" x="1002.832031"/>
     <use xlink:href="#DejaVuSans-6d" x="1064.111328"/>
     <use xlink:href="#DejaVuSans-70" x="1161.523438"/>
     <use xlink:href="#DejaVuSans-20" x="1225"/>
     <use xlink:href="#DejaVuSans-3a" x="1256.787109"/>
     <use xlink:href="#DejaVuSans-20" x="1290.478516"/>
     <use xlink:href="#DejaVuSans-31" x="1322.265625"/>
     <use xlink:href="#DejaVuSans-30" x="1385.888672"/>
     <use xlink:href="#DejaVuSans-32" x="1449.511719"/>
     <use xlink:href="#DejaVuSans-32" x="1513.134766"/>
     <use xlink:href="#DejaVuSans-35" x="1576.757812"/>
     <use xlink:href="#DejaVuSans-39" x="1640.380859"/>
     <use xlink:href="#DejaVuSans-33" x="1704.003906"/>
    </g>
   </g>
  </g>
 </g>
 <defs>
  <clipPath id="p0dac5bcc61">
   <rect x="63.382812" y="36.718125" width="558" height="166.32"/>
  </clipPath>
 </defs>
</svg>
