<?xml version="1.0" encoding="utf-8" standalone="no"?>
<!DOCTYPE svg PUBLIC "-//W3C//DTD SVG 1.1//EN"
  "http://www.w3.org/Graphics/SVG/1.1/DTD/svg11.dtd">
<svg xmlns:xlink="http://www.w3.org/1999/xlink" width="642.982813pt" height="254.994375pt" viewBox="0 0 642.982813 254.994375" xmlns="http://www.w3.org/2000/svg" version="1.1">
 <metadata>
  <rdf:RDF xmlns:dc="http://purl.org/dc/elements/1.1/" xmlns:cc="http://creativecommons.org/ns#" xmlns:rdf="http://www.w3.org/1999/02/22-rdf-syntax-ns#">
   <cc:Work>
    <dc:type rdf:resource="http://purl.org/dc/dcmitype/StillImage"/>
    <dc:date>2024-02-26T10:41:43.886632</dc:date>
    <dc:format>image/svg+xml</dc:format>
    <dc:creator>
     <cc:Agent>
      <dc:title>Matplotlib v3.7.1, https://matplotlib.org/</dc:title>
     </cc:Agent>
    </dc:creator>
   </cc:Work>
  </rdf:RDF>
 </metadata>
 <defs>
  <style type="text/css">*{stroke-linejoin: round; stroke-linecap: butt}</style>
 </defs>
 <g id="figure_1">
  <g id="patch_1">
   <path d="M 0 254.994375 
L 642.982813 254.994375 
L 642.982813 -0 
L 0 -0 
z
" style="fill: #ffffff"/>
  </g>
  <g id="axes_1">
   <g id="patch_2">
    <path d="M 63.382812 203.038125 
L 621.382812 203.038125 
L 621.382812 36.718125 
L 63.382812 36.718125 
z
" style="fill: #ffffff"/>
   </g>
   <g id="matplotlib.axis_1">
    <g id="xtick_1">
     <g id="line2d_1">
      <defs>
       <path id="m47a851d8db" d="M 0 0 
L 0 3.5 
" style="stroke: #000000; stroke-width: 0.8"/>
      </defs>
      <g>
       <use xlink:href="#m47a851d8db" x="88.746449" y="203.038125" style="stroke: #000000; stroke-width: 0.8"/>
      </g>
     </g>
     <g id="text_1">
      <!-- −20 -->
      <g transform="translate(78.194105 217.636562) scale(0.1 -0.1)">
       <defs>
        <path id="DejaVuSans-2212" d="M 678 2272 
L 4684 2272 
L 4684 1741 
L 678 1741 
L 678 2272 
z
" transform="scale(0.015625)"/>
        <path id="DejaVuSans-32" d="M 1228 531 
L 3431 531 
L 3431 0 
L 469 0 
L 469 531 
Q 828 903 1448 1529 
Q 2069 2156 2228 2338 
Q 2531 2678 2651 2914 
Q 2772 3150 2772 3378 
Q 2772 3750 2511 3984 
Q 2250 4219 1831 4219 
Q 1534 4219 1204 4116 
Q 875 4013 500 3803 
L 500 4441 
Q 881 4594 1212 4672 
Q 1544 4750 1819 4750 
Q 2544 4750 2975 4387 
Q 3406 4025 3406 3419 
Q 3406 3131 3298 2873 
Q 3191 2616 2906 2266 
Q 2828 2175 2409 1742 
Q 1991 1309 1228 531 
z
" transform="scale(0.015625)"/>
        <path id="DejaVuSans-30" d="M 2034 4250 
Q 1547 4250 1301 3770 
Q 1056 3291 1056 2328 
Q 1056 1369 1301 889 
Q 1547 409 2034 409 
Q 2525 409 2770 889 
Q 3016 1369 3016 2328 
Q 3016 3291 2770 3770 
Q 2525 4250 2034 4250 
z
M 2034 4750 
Q 2819 4750 3233 4129 
Q 3647 3509 3647 2328 
Q 3647 1150 3233 529 
Q 2819 -91 2034 -91 
Q 1250 -91 836 529 
Q 422 1150 422 2328 
Q 422 3509 836 4129 
Q 1250 4750 2034 4750 
z
" transform="scale(0.015625)"/>
       </defs>
       <use xlink:href="#DejaVuSans-2212"/>
       <use xlink:href="#DejaVuSans-32" x="83.789062"/>
       <use xlink:href="#DejaVuSans-30" x="147.412109"/>
      </g>
     </g>
    </g>
    <g id="xtick_2">
     <g id="line2d_2">
      <g>
       <use xlink:href="#m47a851d8db" x="152.15554" y="203.038125" style="stroke: #000000; stroke-width: 0.8"/>
      </g>
     </g>
     <g id="text_2">
      <!-- −15 -->
      <g transform="translate(141.603196 217.636562) scale(0.1 -0.1)">
       <defs>
        <path id="DejaVuSans-31" d="M 794 531 
L 1825 531 
L 1825 4091 
L 703 3866 
L 703 4441 
L 1819 4666 
L 2450 4666 
L 2450 531 
L 3481 531 
L 3481 0 
L 794 0 
L 794 531 
z
" transform="scale(0.015625)"/>
        <path id="DejaVuSans-35" d="M 691 4666 
L 3169 4666 
L 3169 4134 
L 1269 4134 
L 1269 2991 
Q 1406 3038 1543 3061 
Q 1681 3084 1819 3084 
Q 2600 3084 3056 2656 
Q 3513 2228 3513 1497 
Q 3513 744 3044 326 
Q 2575 -91 1722 -91 
Q 1428 -91 1123 -41 
Q 819 9 494 109 
L 494 744 
Q 775 591 1075 516 
Q 1375 441 1709 441 
Q 2250 441 2565 725 
Q 2881 1009 2881 1497 
Q 2881 1984 2565 2268 
Q 2250 2553 1709 2553 
Q 1456 2553 1204 2497 
Q 953 2441 691 2322 
L 691 4666 
z
" transform="scale(0.015625)"/>
       </defs>
       <use xlink:href="#DejaVuSans-2212"/>
       <use xlink:href="#DejaVuSans-31" x="83.789062"/>
       <use xlink:href="#DejaVuSans-35" x="147.412109"/>
      </g>
     </g>
    </g>
    <g id="xtick_3">
     <g id="line2d_3">
      <g>
       <use xlink:href="#m47a851d8db" x="215.564631" y="203.038125" style="stroke: #000000; stroke-width: 0.8"/>
      </g>
     </g>
     <g id="text_3">
      <!-- −10 -->
      <g transform="translate(205.012287 217.636562) scale(0.1 -0.1)">
       <use xlink:href="#DejaVuSans-2212"/>
       <use xlink:href="#DejaVuSans-31" x="83.789062"/>
       <use xlink:href="#DejaVuSans-30" x="147.412109"/>
      </g>
     </g>
    </g>
    <g id="xtick_4">
     <g id="line2d_4">
      <g>
       <use xlink:href="#m47a851d8db" x="278.973722" y="203.038125" style="stroke: #000000; stroke-width: 0.8"/>
      </g>
     </g>
     <g id="text_4">
      <!-- −5 -->
      <g transform="translate(271.602628 217.636562) scale(0.1 -0.1)">
       <use xlink:href="#DejaVuSans-2212"/>
       <use xlink:href="#DejaVuSans-35" x="83.789062"/>
      </g>
     </g>
    </g>
    <g id="xtick_5">
     <g id="line2d_5">
      <g>
       <use xlink:href="#m47a851d8db" x="342.382812" y="203.038125" style="stroke: #000000; stroke-width: 0.8"/>
      </g>
     </g>
     <g id="text_5">
      <!-- 0 -->
      <g transform="translate(339.201563 217.636562) scale(0.1 -0.1)">
       <use xlink:href="#DejaVuSans-30"/>
      </g>
     </g>
    </g>
    <g id="xtick_6">
     <g id="line2d_6">
      <g>
       <use xlink:href="#m47a851d8db" x="405.791903" y="203.038125" style="stroke: #000000; stroke-width: 0.8"/>
      </g>
     </g>
     <g id="text_6">
      <!-- 5 -->
      <g transform="translate(402.610653 217.636562) scale(0.1 -0.1)">
       <use xlink:href="#DejaVuSans-35"/>
      </g>
     </g>
    </g>
    <g id="xtick_7">
     <g id="line2d_7">
      <g>
       <use xlink:href="#m47a851d8db" x="469.200994" y="203.038125" style="stroke: #000000; stroke-width: 0.8"/>
      </g>
     </g>
     <g id="text_7">
      <!-- 10 -->
      <g transform="translate(462.838494 217.636562) scale(0.1 -0.1)">
       <use xlink:href="#DejaVuSans-31"/>
       <use xlink:href="#DejaVuSans-30" x="63.623047"/>
      </g>
     </g>
    </g>
    <g id="xtick_8">
     <g id="line2d_8">
      <g>
       <use xlink:href="#m47a851d8db" x="532.610085" y="203.038125" style="stroke: #000000; stroke-width: 0.8"/>
      </g>
     </g>
     <g id="text_8">
      <!-- 15 -->
      <g transform="translate(526.247585 217.636562) scale(0.1 -0.1)">
       <use xlink:href="#DejaVuSans-31"/>
       <use xlink:href="#DejaVuSans-35" x="63.623047"/>
      </g>
     </g>
    </g>
    <g id="xtick_9">
     <g id="line2d_9">
      <g>
       <use xlink:href="#m47a851d8db" x="596.019176" y="203.038125" style="stroke: #000000; stroke-width: 0.8"/>
      </g>
     </g>
     <g id="text_9">
      <!-- 20 -->
      <g transform="translate(589.656676 217.636562) scale(0.1 -0.1)">
       <use xlink:href="#DejaVuSans-32"/>
       <use xlink:href="#DejaVuSans-30" x="63.623047"/>
      </g>
     </g>
    </g>
    <g id="text_10">
     <!-- Time [ms] -->
     <g transform="translate(317.183594 231.314687) scale(0.1 -0.1)">
      <defs>
       <path id="DejaVuSans-54" d="M -19 4666 
L 3928 4666 
L 3928 4134 
L 2272 4134 
L 2272 0 
L 1638 0 
L 1638 4134 
L -19 4134 
L -19 4666 
z
" transform="scale(0.015625)"/>
       <path id="DejaVuSans-69" d="M 603 3500 
L 1178 3500 
L 1178 0 
L 603 0 
L 603 3500 
z
M 603 4863 
L 1178 4863 
L 1178 4134 
L 603 4134 
L 603 4863 
z
" transform="scale(0.015625)"/>
       <path id="DejaVuSans-6d" d="M 3328 2828 
Q 3544 3216 3844 3400 
Q 4144 3584 4550 3584 
Q 5097 3584 5394 3201 
Q 5691 2819 5691 2113 
L 5691 0 
L 5113 0 
L 5113 2094 
Q 5113 2597 4934 2840 
Q 4756 3084 4391 3084 
Q 3944 3084 3684 2787 
Q 3425 2491 3425 1978 
L 3425 0 
L 2847 0 
L 2847 2094 
Q 2847 2600 2669 2842 
Q 2491 3084 2119 3084 
Q 1678 3084 1418 2786 
Q 1159 2488 1159 1978 
L 1159 0 
L 581 0 
L 581 3500 
L 1159 3500 
L 1159 2956 
Q 1356 3278 1631 3431 
Q 1906 3584 2284 3584 
Q 2666 3584 2933 3390 
Q 3200 3197 3328 2828 
z
" transform="scale(0.015625)"/>
       <path id="DejaVuSans-65" d="M 3597 1894 
L 3597 1613 
L 953 1613 
Q 991 1019 1311 708 
Q 1631 397 2203 397 
Q 2534 397 2845 478 
Q 3156 559 3463 722 
L 3463 178 
Q 3153 47 2828 -22 
Q 2503 -91 2169 -91 
Q 1331 -91 842 396 
Q 353 884 353 1716 
Q 353 2575 817 3079 
Q 1281 3584 2069 3584 
Q 2775 3584 3186 3129 
Q 3597 2675 3597 1894 
z
M 3022 2063 
Q 3016 2534 2758 2815 
Q 2500 3097 2075 3097 
Q 1594 3097 1305 2825 
Q 1016 2553 972 2059 
L 3022 2063 
z
" transform="scale(0.015625)"/>
       <path id="DejaVuSans-20" transform="scale(0.015625)"/>
       <path id="DejaVuSans-5b" d="M 550 4863 
L 1875 4863 
L 1875 4416 
L 1125 4416 
L 1125 -397 
L 1875 -397 
L 1875 -844 
L 550 -844 
L 550 4863 
z
" transform="scale(0.015625)"/>
       <path id="DejaVuSans-73" d="M 2834 3397 
L 2834 2853 
Q 2591 2978 2328 3040 
Q 2066 3103 1784 3103 
Q 1356 3103 1142 2972 
Q 928 2841 928 2578 
Q 928 2378 1081 2264 
Q 1234 2150 1697 2047 
L 1894 2003 
Q 2506 1872 2764 1633 
Q 3022 1394 3022 966 
Q 3022 478 2636 193 
Q 2250 -91 1575 -91 
Q 1294 -91 989 -36 
Q 684 19 347 128 
L 347 722 
Q 666 556 975 473 
Q 1284 391 1588 391 
Q 1994 391 2212 530 
Q 2431 669 2431 922 
Q 2431 1156 2273 1281 
Q 2116 1406 1581 1522 
L 1381 1569 
Q 847 1681 609 1914 
Q 372 2147 372 2553 
Q 372 3047 722 3315 
Q 1072 3584 1716 3584 
Q 2034 3584 2315 3537 
Q 2597 3491 2834 3397 
z
" transform="scale(0.015625)"/>
       <path id="DejaVuSans-5d" d="M 1947 4863 
L 1947 -844 
L 622 -844 
L 622 -397 
L 1369 -397 
L 1369 4416 
L 622 4416 
L 622 4863 
L 1947 4863 
z
" transform="scale(0.015625)"/>
      </defs>
      <use xlink:href="#DejaVuSans-54"/>
      <use xlink:href="#DejaVuSans-69" x="57.958984"/>
      <use xlink:href="#DejaVuSans-6d" x="85.742188"/>
      <use xlink:href="#DejaVuSans-65" x="183.154297"/>
      <use xlink:href="#DejaVuSans-20" x="244.677734"/>
      <use xlink:href="#DejaVuSans-5b" x="276.464844"/>
      <use xlink:href="#DejaVuSans-6d" x="315.478516"/>
      <use xlink:href="#DejaVuSans-73" x="412.890625"/>
      <use xlink:href="#DejaVuSans-5d" x="464.990234"/>
     </g>
    </g>
   </g>
   <g id="matplotlib.axis_2">
    <g id="ytick_1">
     <g id="line2d_10">
      <defs>
       <path id="mff595da731" d="M 0 0 
L -3.5 0 
" style="stroke: #000000; stroke-width: 0.8"/>
      </defs>
      <g>
       <use xlink:href="#mff595da731" x="63.382812" y="189.195593" style="stroke: #000000; stroke-width: 0.8"/>
      </g>
     </g>
     <g id="text_11">
      <!-- −20 -->
      <g transform="translate(35.278125 192.994811) scale(0.1 -0.1)">
       <use xlink:href="#DejaVuSans-2212"/>
       <use xlink:href="#DejaVuSans-32" x="83.789062"/>
       <use xlink:href="#DejaVuSans-30" x="147.412109"/>
      </g>
     </g>
    </g>
    <g id="ytick_2">
     <g id="line2d_11">
      <g>
       <use xlink:href="#mff595da731" x="63.382812" y="149.293494" style="stroke: #000000; stroke-width: 0.8"/>
      </g>
     </g>
     <g id="text_12">
      <!-- −10 -->
      <g transform="translate(35.278125 153.092713) scale(0.1 -0.1)">
       <use xlink:href="#DejaVuSans-2212"/>
       <use xlink:href="#DejaVuSans-31" x="83.789062"/>
       <use xlink:href="#DejaVuSans-30" x="147.412109"/>
      </g>
     </g>
    </g>
    <g id="ytick_3">
     <g id="line2d_12">
      <g>
       <use xlink:href="#mff595da731" x="63.382812" y="109.391395" style="stroke: #000000; stroke-width: 0.8"/>
      </g>
     </g>
     <g id="text_13">
      <!-- 0 -->
      <g transform="translate(50.020313 113.190614) scale(0.1 -0.1)">
       <use xlink:href="#DejaVuSans-30"/>
      </g>
     </g>
    </g>
    <g id="ytick_4">
     <g id="line2d_13">
      <g>
       <use xlink:href="#mff595da731" x="63.382812" y="69.489297" style="stroke: #000000; stroke-width: 0.8"/>
      </g>
     </g>
     <g id="text_14">
      <!-- 10 -->
      <g transform="translate(43.657812 73.288516) scale(0.1 -0.1)">
       <use xlink:href="#DejaVuSans-31"/>
       <use xlink:href="#DejaVuSans-30" x="63.623047"/>
      </g>
     </g>
    </g>
    <g id="text_15">
     <!-- Voltage [uV] -->
     <g transform="translate(29.198438 150.714063) rotate(-90) scale(0.1 -0.1)">
      <defs>
       <path id="DejaVuSans-56" d="M 1831 0 
L 50 4666 
L 709 4666 
L 2188 738 
L 3669 4666 
L 4325 4666 
L 2547 0 
L 1831 0 
z
" transform="scale(0.015625)"/>
       <path id="DejaVuSans-6f" d="M 1959 3097 
Q 1497 3097 1228 2736 
Q 959 2375 959 1747 
Q 959 1119 1226 758 
Q 1494 397 1959 397 
Q 2419 397 2687 759 
Q 2956 1122 2956 1747 
Q 2956 2369 2687 2733 
Q 2419 3097 1959 3097 
z
M 1959 3584 
Q 2709 3584 3137 3096 
Q 3566 2609 3566 1747 
Q 3566 888 3137 398 
Q 2709 -91 1959 -91 
Q 1206 -91 779 398 
Q 353 888 353 1747 
Q 353 2609 779 3096 
Q 1206 3584 1959 3584 
z
" transform="scale(0.015625)"/>
       <path id="DejaVuSans-6c" d="M 603 4863 
L 1178 4863 
L 1178 0 
L 603 0 
L 603 4863 
z
" transform="scale(0.015625)"/>
       <path id="DejaVuSans-74" d="M 1172 4494 
L 1172 3500 
L 2356 3500 
L 2356 3053 
L 1172 3053 
L 1172 1153 
Q 1172 725 1289 603 
Q 1406 481 1766 481 
L 2356 481 
L 2356 0 
L 1766 0 
Q 1100 0 847 248 
Q 594 497 594 1153 
L 594 3053 
L 172 3053 
L 172 3500 
L 594 3500 
L 594 4494 
L 1172 4494 
z
" transform="scale(0.015625)"/>
       <path id="DejaVuSans-61" d="M 2194 1759 
Q 1497 1759 1228 1600 
Q 959 1441 959 1056 
Q 959 750 1161 570 
Q 1363 391 1709 391 
Q 2188 391 2477 730 
Q 2766 1069 2766 1631 
L 2766 1759 
L 2194 1759 
z
M 3341 1997 
L 3341 0 
L 2766 0 
L 2766 531 
Q 2569 213 2275 61 
Q 1981 -91 1556 -91 
Q 1019 -91 701 211 
Q 384 513 384 1019 
Q 384 1609 779 1909 
Q 1175 2209 1959 2209 
L 2766 2209 
L 2766 2266 
Q 2766 2663 2505 2880 
Q 2244 3097 1772 3097 
Q 1472 3097 1187 3025 
Q 903 2953 641 2809 
L 641 3341 
Q 956 3463 1253 3523 
Q 1550 3584 1831 3584 
Q 2591 3584 2966 3190 
Q 3341 2797 3341 1997 
z
" transform="scale(0.015625)"/>
       <path id="DejaVuSans-67" d="M 2906 1791 
Q 2906 2416 2648 2759 
Q 2391 3103 1925 3103 
Q 1463 3103 1205 2759 
Q 947 2416 947 1791 
Q 947 1169 1205 825 
Q 1463 481 1925 481 
Q 2391 481 2648 825 
Q 2906 1169 2906 1791 
z
M 3481 434 
Q 3481 -459 3084 -895 
Q 2688 -1331 1869 -1331 
Q 1566 -1331 1297 -1286 
Q 1028 -1241 775 -1147 
L 775 -588 
Q 1028 -725 1275 -790 
Q 1522 -856 1778 -856 
Q 2344 -856 2625 -561 
Q 2906 -266 2906 331 
L 2906 616 
Q 2728 306 2450 153 
Q 2172 0 1784 0 
Q 1141 0 747 490 
Q 353 981 353 1791 
Q 353 2603 747 3093 
Q 1141 3584 1784 3584 
Q 2172 3584 2450 3431 
Q 2728 3278 2906 2969 
L 2906 3500 
L 3481 3500 
L 3481 434 
z
" transform="scale(0.015625)"/>
       <path id="DejaVuSans-75" d="M 544 1381 
L 544 3500 
L 1119 3500 
L 1119 1403 
Q 1119 906 1312 657 
Q 1506 409 1894 409 
Q 2359 409 2629 706 
Q 2900 1003 2900 1516 
L 2900 3500 
L 3475 3500 
L 3475 0 
L 2900 0 
L 2900 538 
Q 2691 219 2414 64 
Q 2138 -91 1772 -91 
Q 1169 -91 856 284 
Q 544 659 544 1381 
z
M 1991 3584 
L 1991 3584 
z
" transform="scale(0.015625)"/>
      </defs>
      <use xlink:href="#DejaVuSans-56"/>
      <use xlink:href="#DejaVuSans-6f" x="60.658203"/>
      <use xlink:href="#DejaVuSans-6c" x="121.839844"/>
      <use xlink:href="#DejaVuSans-74" x="149.623047"/>
      <use xlink:href="#DejaVuSans-61" x="188.832031"/>
      <use xlink:href="#DejaVuSans-67" x="250.111328"/>
      <use xlink:href="#DejaVuSans-65" x="313.587891"/>
      <use xlink:href="#DejaVuSans-20" x="375.111328"/>
      <use xlink:href="#DejaVuSans-5b" x="406.898438"/>
      <use xlink:href="#DejaVuSans-75" x="445.912109"/>
      <use xlink:href="#DejaVuSans-56" x="509.291016"/>
      <use xlink:href="#DejaVuSans-5d" x="577.699219"/>
     </g>
    </g>
   </g>
   <g id="line2d_14">
    <path d="M 88.746449 93.644308 
L 89.381333 101.322427 
L 90.016218 172.302444 
L 90.651102 125.427687 
L 91.285987 129.609794 
L 91.920871 115.197668 
L 92.555756 97.091319 
L 93.19064 96.293188 
L 93.825525 122.994481 
L 94.460409 102.178887 
L 95.095294 76.582419 
L 96.365063 131.330324 
L 96.999948 98.197667 
L 97.634832 109.776733 
L 98.269717 108.671964 
L 98.904601 127.010629 
L 99.539486 106.018729 
L 100.17437 105.153535 
L 100.809255 158.770798 
L 101.444139 128.185925 
L 102.079024 166.588445 
L 102.713908 115.945643 
L 103.348793 134.131531 
L 103.983677 115.92273 
L 104.618562 101.805829 
L 105.253446 111.845195 
L 105.888331 113.094389 
L 106.523215 112.365292 
L 107.1581 101.754177 
L 107.792984 110.57816 
L 108.427869 82.469521 
L 109.062753 96.451685 
L 109.697638 72.283501 
L 110.332522 118.280099 
L 110.967407 103.060247 
L 111.602291 95.156043 
L 112.237176 95.437701 
L 112.87206 92.416896 
L 113.506945 87.579902 
L 114.141829 78.890673 
L 114.776714 112.226473 
L 115.411598 104.313754 
L 116.046483 111.868281 
L 116.681368 111.043877 
L 117.316252 104.471901 
L 117.951137 114.583577 
L 118.586021 106.444328 
L 119.220906 94.650054 
L 119.85579 106.175637 
L 120.490675 114.22521 
L 121.125559 97.494097 
L 121.760444 75.237896 
L 122.395328 82.775359 
L 123.030213 121.617712 
L 123.665097 98.616407 
L 124.299982 68.179116 
L 124.934866 124.016899 
L 125.569751 113.356803 
L 126.204635 132.506324 
L 126.83952 137.370985 
L 127.474404 110.038651 
L 128.109289 118.503206 
L 128.744173 134.363204 
L 129.379058 92.626935 
L 130.013942 110.482881 
L 130.648827 175.762011 
L 131.283711 128.586116 
L 131.918596 127.554399 
L 132.55348 116.251044 
L 133.188365 98.233788 
L 133.823249 112.339888 
L 134.458134 108.067914 
L 135.093018 116.827067 
L 135.727903 114.280173 
L 136.362787 114.14028 
L 136.997672 137.100854 
L 137.632556 118.290748 
L 138.267441 125.15571 
L 138.902326 102.068679 
L 139.53721 101.746796 
L 140.172095 113.75515 
L 140.806979 110.390861 
L 141.441864 133.946374 
L 142.076748 111.342372 
L 142.711633 114.449018 
L 143.346517 128.661469 
L 143.981402 97.321646 
L 144.616286 82.929193 
L 145.251171 87.265198 
L 145.886055 65.137862 
L 146.52094 96.750275 
L 147.155824 111.825448 
L 147.790709 90.770853 
L 148.425593 117.152302 
L 149.060478 120.676737 
L 149.695362 92.003886 
L 150.330247 114.090731 
L 150.965131 129.753923 
L 151.600016 114.560871 
L 152.2349 88.025072 
L 152.869785 104.156655 
L 153.504669 117.010517 
L 154.139554 117.851856 
L 154.774438 130.367617 
L 155.409323 100.361267 
L 156.044207 118.004582 
L 156.679092 123.233634 
L 157.313976 114.9528 
L 157.948861 110.187446 
L 158.583745 87.766307 
L 159.21863 110.218241 
L 159.853515 111.930233 
L 160.488399 116.300266 
L 161.123284 117.426992 
L 161.758168 109.737994 
L 162.393053 109.711928 
L 163.027937 92.849907 
L 163.662822 117.57675 
L 164.297706 116.984303 
L 164.932591 109.890564 
L 165.567475 122.234344 
L 166.20236 96.752062 
L 166.837244 89.942237 
L 167.472129 98.368403 
L 168.107013 80.045711 
L 168.741898 110.042264 
L 169.376782 126.813672 
L 170.011667 118.512183 
L 170.646551 106.569397 
L 171.281436 84.05959 
L 171.91632 112.72586 
L 172.551205 111.694016 
L 173.186089 108.752536 
L 173.820974 108.796259 
L 174.455858 86.90487 
L 175.090743 120.47468 
L 175.725627 120.358407 
L 176.360512 115.588271 
L 176.995396 114.220148 
L 177.630281 69.226051 
L 178.265165 71.631658 
L 178.90005 113.661902 
L 179.534934 92.207459 
L 180.169819 94.847407 
L 180.804704 180.62045 
L 181.439588 117.07933 
L 182.074473 77.752318 
L 182.709357 69.922648 
L 183.344242 64.461882 
L 183.979126 84.944728 
L 184.614011 115.809575 
L 185.248895 134.985538 
L 185.88378 101.040749 
L 186.518664 101.837103 
L 187.153549 71.492225 
L 188.423318 123.656976 
L 189.058202 174.365266 
L 189.693087 94.173901 
L 190.327971 108.853587 
L 190.962856 120.04491 
L 191.59774 69.084699 
L 192.232625 160.088584 
L 192.867509 97.055366 
L 193.502394 165.31543 
L 194.137278 157.765036 
L 194.772163 113.148403 
L 195.407047 115.099076 
L 196.041932 96.909772 
L 196.676816 113.856008 
L 197.311701 97.082115 
L 197.946585 99.644444 
L 198.58147 94.150481 
L 199.216354 112.207186 
L 199.851239 118.412944 
L 200.486123 115.787464 
L 201.121008 109.931556 
L 201.755892 153.185419 
L 203.025662 166.016831 
L 203.660546 109.926494 
L 204.295431 103.648018 
L 204.930315 112.255178 
L 205.5652 167.525358 
L 206.200084 194.021554 
L 206.834969 72.005434 
L 207.469853 113.287732 
L 208.104738 84.682152 
L 208.739622 122.955935 
L 209.374507 176.722311 
L 210.009391 94.636594 
L 210.644276 113.118496 
L 211.27916 103.006985 
L 211.914045 80.596007 
L 213.183814 65.135442 
L 213.818698 96.666772 
L 214.453583 62.060841 
L 215.088467 85.787401 
L 215.723352 116.503513 
L 216.358236 88.912092 
L 217.628005 115.340798 
L 218.26289 96.850857 
L 218.897774 53.778617 
L 219.532659 46.104068 
L 220.167543 50.492727 
L 220.802428 115.124379 
L 221.437312 127.271143 
L 222.072197 116.370335 
L 222.707081 91.93921 
L 223.341966 115.953731 
L 223.976851 170.160503 
L 224.611735 124.748487 
L 225.24662 127.737375 
L 225.881504 101.515387 
L 226.516389 122.609596 
L 227.151273 106.970915 
L 228.421042 88.252798 
L 229.055927 86.361462 
L 229.690811 117.782034 
L 230.325696 94.822417 
L 230.96058 129.474579 
L 231.595465 119.396495 
L 232.230349 104.692349 
L 232.865234 94.709967 
L 233.500118 125.926352 
L 234.135003 126.592908 
L 234.769887 101.354698 
L 235.404772 125.593319 
L 236.039656 93.203381 
L 236.674541 98.754017 
L 237.309425 127.898169 
L 238.579194 71.57131 
L 239.214079 75.908284 
L 239.848963 120.256698 
L 240.483848 118.926913 
L 241.118732 119.059481 
L 241.753617 120.785563 
L 242.388501 134.833503 
L 243.023386 99.457775 
L 243.65827 103.712626 
L 244.293155 105.591532 
L 244.928039 94.116513 
L 245.562924 161.026251 
L 246.197809 119.24596 
L 246.832693 157.6251 
L 247.467578 108.306917 
L 248.102462 96.14024 
L 248.737347 117.374371 
L 249.372231 108.006036 
L 250.007116 116.181374 
L 250.642 108.32967 
L 251.276885 164.724143 
L 251.911769 123.488767 
L 252.546654 113.678217 
L 253.181538 109.073142 
L 253.816423 121.041024 
L 254.451307 96.948726 
L 255.086192 123.808797 
L 256.355961 64.410094 
L 256.990845 124.639776 
L 257.62573 75.907399 
L 258.260614 158.197186 
L 258.895499 104.63997 
L 259.530383 117.696942 
L 260.165268 157.660991 
L 260.800152 85.554673 
L 261.435037 107.421011 
L 262.069921 59.380304 
L 262.704806 115.803016 
L 263.33969 98.281115 
L 263.974575 59.876547 
L 264.609459 90.997286 
L 265.244344 68.004184 
L 265.879228 93.585994 
L 266.514113 95.792096 
L 267.148998 67.195526 
L 267.783882 111.282085 
L 268.418767 113.04544 
L 269.053651 109.736449 
L 269.688536 114.503191 
L 270.32342 91.854382 
L 270.958305 87.219164 
L 271.593189 109.686582 
L 272.228074 147.994351 
L 272.862958 170.159838 
L 273.497843 150.625984 
L 274.132727 103.58617 
L 275.402496 195.478125 
L 276.037381 93.733924 
L 276.672265 83.21984 
L 277.30715 147.870831 
L 277.942034 84.273401 
L 278.576919 154.086856 
L 279.211803 99.857107 
L 280.481572 91.915976 
L 281.116457 80.872793 
L 281.751341 171.028195 
L 282.386226 76.749437 
L 283.02111 92.17323 
L 283.655995 85.891989 
L 284.290879 107.498216 
L 284.925764 86.488974 
L 285.560648 44.278125 
L 286.195533 73.877225 
L 286.830417 88.466082 
L 287.465302 99.430621 
L 288.100186 117.10781 
L 288.735071 149.940533 
L 289.369956 104.518478 
L 290.00484 150.716778 
L 290.639725 151.080527 
L 291.274609 101.748121 
L 291.909494 89.530437 
L 292.544378 115.832169 
L 293.179263 101.977212 
L 293.814147 93.34329 
L 294.449032 151.106427 
L 295.083916 87.16906 
L 295.718801 83.654724 
L 296.353685 98.860199 
L 296.98857 167.286233 
L 297.623454 155.662551 
L 298.258339 80.635433 
L 298.893223 106.646811 
L 299.528108 82.792132 
L 300.162992 98.106075 
L 300.797877 102.171921 
L 301.432761 116.804854 
L 302.067646 102.225795 
L 302.70253 92.685001 
L 303.337415 100.112266 
L 303.972299 124.517093 
L 304.607184 115.33616 
L 305.242068 110.315826 
L 305.876953 90.373339 
L 306.511837 99.048247 
L 307.146722 153.652656 
L 307.781606 85.231638 
L 309.051375 117.101396 
L 309.68626 117.026177 
L 310.321145 110.652387 
L 310.956029 116.646499 
L 311.590914 160.092245 
L 312.225798 156.914283 
L 312.860683 110.660442 
L 313.495567 110.901695 
L 314.130452 92.390495 
L 314.765336 98.324714 
L 315.400221 109.269618 
L 316.035105 88.726754 
L 316.66999 109.255206 
L 317.304874 104.573763 
L 317.939759 110.312139 
L 318.574643 119.336943 
L 319.209528 118.702834 
L 319.844412 108.077027 
L 320.479297 163.217083 
L 321.114181 120.589507 
L 321.749066 112.318178 
L 322.38395 123.452158 
L 323.018835 104.431357 
L 323.653719 101.168718 
L 324.288604 116.115676 
L 324.923488 120.736187 
L 325.558373 100.579797 
L 326.193257 88.087478 
L 326.828142 81.845908 
L 327.463026 125.45178 
L 328.097911 82.400755 
L 328.732795 92.817199 
L 329.36768 85.856663 
L 330.002564 106.134237 
L 330.637449 130.323194 
L 331.272333 125.710306 
L 331.907218 132.550086 
L 332.542103 95.499645 
L 333.176987 124.454516 
L 333.811872 131.413231 
L 334.446756 98.271602 
L 335.081641 107.381088 
L 336.35141 86.416506 
L 336.986294 107.628154 
L 337.621179 76.297628 
L 338.256063 107.387497 
L 338.890948 96.48623 
L 339.525832 69.627669 
L 340.160717 106.541566 
L 340.795601 73.706999 
L 341.430486 81.587458 
L 342.06537 129.739761 
L 342.700255 97.117538 
L 343.335139 79.004476 
L 343.970024 104.124877 
L 344.604908 122.26882 
L 345.239793 110.394777 
L 345.874677 54.151405 
L 346.509562 98.022515 
L 347.144446 97.238873 
L 347.779331 73.986768 
L 348.414215 97.538569 
L 349.0491 85.715439 
L 350.318869 122.27635 
L 350.953753 99.250552 
L 351.588638 94.152935 
L 352.223522 114.041238 
L 352.858407 125.031453 
L 353.493292 119.793952 
L 354.128176 132.413342 
L 354.763061 171.800894 
L 355.397945 192.544066 
L 356.03283 192.280051 
L 356.667714 174.714659 
L 357.302599 163.336737 
L 357.937483 115.527041 
L 358.572368 110.620281 
L 359.207252 96.735478 
L 359.842137 104.101922 
L 360.477021 118.415666 
L 361.111906 117.24517 
L 361.74679 109.073068 
L 362.381675 104.045859 
L 363.016559 115.487588 
L 363.651444 121.202819 
L 364.286328 91.063116 
L 364.921213 102.481706 
L 365.556097 116.795654 
L 366.190982 71.922813 
L 366.825866 91.58201 
L 367.460751 97.945938 
L 368.095635 101.801771 
L 368.73052 90.278638 
L 369.365404 169.209233 
L 370.000289 129.870265 
L 370.635173 109.321887 
L 371.270058 107.07429 
L 371.904942 76.873389 
L 372.539827 127.017401 
L 373.174711 125.434876 
L 373.809596 139.984325 
L 374.44448 104.728193 
L 375.079365 115.692984 
L 375.71425 99.482029 
L 376.349134 91.529018 
L 376.984019 114.307894 
L 377.618903 105.631866 
L 378.253788 103.263313 
L 378.888672 84.077921 
L 379.523557 84.225436 
L 380.158441 107.770928 
L 380.793326 97.649135 
L 381.42821 99.651677 
L 382.063095 116.307294 
L 382.697979 122.708588 
L 383.332864 116.873003 
L 383.967748 87.418879 
L 385.237517 112.786426 
L 385.872402 95.720349 
L 386.507286 109.286687 
L 387.142171 99.733203 
L 387.777055 110.333611 
L 388.41194 111.438022 
L 389.046824 83.205755 
L 389.681709 116.858924 
L 390.316593 95.563135 
L 390.951478 95.010337 
L 391.586362 107.700837 
L 392.221247 96.483098 
L 392.856131 87.704205 
L 393.491016 89.387367 
L 394.1259 122.70917 
L 394.760785 99.415763 
L 395.395669 121.6653 
L 396.030554 125.813736 
L 396.665439 125.014032 
L 397.300323 119.591428 
L 397.935208 100.833394 
L 398.570092 119.681897 
L 399.204977 116.805144 
L 399.839861 120.655893 
L 400.474746 120.801806 
L 401.10963 124.068496 
L 401.744515 87.173007 
L 402.379399 89.435869 
L 403.014284 92.999855 
L 403.649168 70.401471 
L 404.918937 126.037426 
L 405.553822 103.495766 
L 406.188706 146.55666 
L 406.823591 136.363127 
L 407.458475 124.093452 
L 408.09336 125.792682 
L 408.728244 88.909914 
L 409.363129 108.449988 
L 409.998013 122.638674 
L 410.632898 168.439895 
L 411.267782 99.970273 
L 411.902667 74.705842 
L 412.537551 107.271973 
L 413.172436 80.128109 
L 413.80732 101.002658 
L 414.442205 104.534358 
L 415.077089 67.992975 
L 415.711974 120.637986 
L 416.346858 130.484293 
L 416.981743 120.582431 
L 417.616627 118.953635 
L 418.251512 104.275226 
L 418.886397 101.207025 
L 419.521281 129.974456 
L 420.156166 132.600411 
L 420.79105 97.991513 
L 421.425935 113.63683 
L 422.060819 89.172584 
L 422.695704 79.404705 
L 423.965473 134.210108 
L 424.600357 102.743813 
L 425.235242 117.772186 
L 425.870126 114.247631 
L 426.505011 117.985078 
L 427.139895 102.243173 
L 427.77478 105.99826 
L 428.409664 118.940902 
L 429.044549 105.850913 
L 429.679433 104.518235 
L 430.314318 111.229804 
L 430.949202 122.089012 
L 431.584087 101.044603 
L 432.218971 127.375906 
L 432.853856 119.582552 
L 433.48874 114.203836 
L 434.123625 97.554757 
L 434.758509 105.158446 
L 435.393394 110.423856 
L 436.028278 108.014198 
L 436.663163 99.844131 
L 437.298047 114.183169 
L 437.932932 117.975916 
L 438.567816 119.730634 
L 439.202701 128.286356 
L 439.837586 106.709688 
L 440.47247 105.913805 
L 441.107355 120.201767 
L 441.742239 166.043937 
L 442.377124 114.262425 
L 443.012008 119.614192 
L 443.646893 120.77012 
L 444.281777 71.666566 
L 444.916662 96.915806 
L 445.551546 72.771237 
L 446.186431 112.713366 
L 446.821315 110.47631 
L 447.4562 76.328792 
L 448.091084 167.664927 
L 448.725969 162.812704 
L 449.360853 94.942097 
L 449.995738 103.709379 
L 450.630622 118.725064 
L 451.265507 121.544241 
L 451.900391 111.396046 
L 452.535276 97.26482 
L 453.17016 125.073881 
L 453.805045 114.904648 
L 454.439929 72.596816 
L 455.074814 86.543341 
L 455.709698 85.445968 
L 456.344583 65.097439 
L 456.979467 90.465977 
L 457.614352 83.254678 
L 458.249236 93.090784 
L 458.884121 114.568843 
L 459.519005 92.533786 
L 460.15389 111.582591 
L 461.423659 85.966035 
L 462.693428 94.510129 
L 463.328313 106.84936 
L 463.963197 92.070477 
L 464.598082 72.671009 
L 465.867851 163.792481 
L 466.502735 185.669726 
L 467.13762 121.13958 
L 467.772504 103.499278 
L 468.407389 163.376298 
L 469.042273 103.678044 
L 469.677158 156.669497 
L 470.312042 90.534105 
L 470.946927 90.872124 
L 471.581811 150.497859 
L 472.216696 102.095072 
L 472.85158 107.796433 
L 473.486465 76.6803 
L 474.121349 101.774355 
L 474.756234 91.62075 
L 475.391118 99.015336 
L 476.026003 100.999027 
L 476.660887 78.524316 
L 477.295772 83.823912 
L 477.930656 90.866058 
L 478.565541 65.811714 
L 479.200425 93.993362 
L 479.83531 106.931177 
L 480.470194 101.868102 
L 481.105079 106.095382 
L 481.739963 143.230931 
L 482.374848 161.406849 
L 483.009733 148.011878 
L 483.644617 170.205226 
L 484.279502 107.630413 
L 484.914386 106.054211 
L 485.549271 78.118848 
L 486.184155 145.562473 
L 486.81904 170.787627 
L 487.453924 149.400613 
L 488.088809 163.94794 
L 488.723693 111.275005 
L 489.358578 103.579342 
L 489.993462 112.040064 
L 490.628347 133.68832 
L 491.898116 87.799939 
L 492.533 79.11624 
L 493.167885 97.420483 
L 493.802769 82.752499 
L 494.437654 97.949372 
L 495.072538 97.224043 
L 495.707423 86.230824 
L 496.342307 82.121523 
L 496.977192 79.322897 
L 497.612076 96.644209 
L 498.246961 94.277553 
L 498.881845 81.724301 
L 499.51673 92.906215 
L 500.151614 85.664111 
L 500.786499 68.934632 
L 501.421383 101.506386 
L 502.056268 84.581754 
L 502.691152 95.036805 
L 503.326037 96.274684 
L 503.960921 96.592923 
L 504.595806 98.59775 
L 505.230691 161.381596 
L 505.865575 107.170713 
L 506.50046 107.268124 
L 507.135344 148.523394 
L 507.770229 101.470302 
L 508.405113 115.351868 
L 509.039998 160.267183 
L 509.674882 188.2206 
L 510.309767 109.337402 
L 510.944651 174.944662 
L 511.579536 111.318502 
L 512.21442 113.601614 
L 512.849305 157.714465 
L 513.484189 114.586729 
L 514.119074 105.44947 
L 514.753958 110.090979 
L 515.388843 123.465786 
L 516.023727 109.341382 
L 516.658612 123.915331 
L 517.293496 99.805122 
L 517.928381 127.844067 
L 518.563265 94.669164 
L 519.19815 94.778032 
L 519.833034 95.500456 
L 520.467919 94.678209 
L 521.102803 82.908092 
L 521.737688 136.765981 
L 522.372572 106.793662 
L 523.007457 123.627666 
L 523.642341 117.490717 
L 524.277226 90.108122 
L 524.91211 161.041665 
L 525.546995 87.403695 
L 526.18188 100.611543 
L 526.816764 81.938837 
L 528.086533 133.564 
L 528.721418 89.721265 
L 529.356302 69.53475 
L 529.991187 125.219573 
L 530.626071 96.861272 
L 531.260956 73.798655 
L 531.89584 97.348119 
L 532.530725 116.64596 
L 533.165609 118.555808 
L 533.800494 105.805766 
L 534.435378 97.561288 
L 535.070263 96.411135 
L 535.705147 139.497232 
L 536.340032 107.826637 
L 536.974916 120.710341 
L 537.609801 77.754257 
L 538.244685 86.356 
L 538.87957 86.328781 
L 539.514454 85.443241 
L 540.149339 96.229755 
L 540.784223 117.934864 
L 541.419108 129.294313 
L 542.053992 95.858606 
L 542.688877 129.55647 
L 543.958646 98.619987 
L 544.59353 108.827221 
L 545.228415 125.21678 
L 545.863299 100.271418 
L 546.498184 98.866647 
L 547.133069 117.241732 
L 547.767953 102.035795 
L 548.402838 95.198597 
L 549.037722 139.363795 
L 550.307491 87.86921 
L 550.942376 101.613921 
L 551.57726 99.228253 
L 552.212145 88.98519 
L 553.481914 79.64564 
L 554.116798 63.657499 
L 554.751683 124.232194 
L 555.386567 120.147851 
L 556.021452 127.080876 
L 556.656336 127.325683 
L 557.291221 99.105768 
L 557.926105 138.891851 
L 558.56099 118.122243 
L 559.195874 130.747098 
L 559.830759 137.442069 
L 560.465643 130.930239 
L 561.100528 129.818469 
L 561.735412 129.36458 
L 562.370297 183.921289 
L 563.005181 136.223448 
L 563.640066 116.061355 
L 564.27495 87.008786 
L 564.909835 115.226025 
L 565.544719 135.11037 
L 566.179604 90.269096 
L 566.814488 96.236704 
L 567.449373 108.769412 
L 568.084257 116.001229 
L 568.719142 105.262248 
L 569.354027 115.908438 
L 570.623796 81.238547 
L 571.25868 90.276917 
L 571.893565 113.952011 
L 572.528449 88.83883 
L 573.163334 114.447176 
L 573.798218 111.157382 
L 574.433103 103.689834 
L 575.067987 92.70048 
L 575.702872 98.72401 
L 576.337756 113.686821 
L 576.972641 94.008362 
L 577.607525 113.514683 
L 578.24241 128.344226 
L 578.877294 100.05683 
L 579.512179 89.585151 
L 580.147063 139.536359 
L 580.781948 130.923403 
L 581.416832 97.415393 
L 582.051717 101.333541 
L 582.686601 111.469404 
L 583.321486 101.911086 
L 583.95637 143.604326 
L 584.591255 134.177171 
L 585.226139 116.799803 
L 585.861024 128.867262 
L 586.495908 118.193805 
L 587.130793 120.996828 
L 587.765677 114.307709 
L 588.400562 105.130239 
L 589.035446 85.661642 
L 589.670331 92.955723 
L 590.305216 116.257678 
L 590.9401 89.941556 
L 591.574985 82.344275 
L 592.209869 79.773984 
L 592.844754 84.25805 
L 593.479638 121.616391 
L 594.749407 96.447209 
L 595.384292 109.842388 
L 596.019176 110.885802 
L 596.019176 110.885802 
" clip-path="url(#pb04c06137e)" style="fill: none; stroke: #1f77b4; stroke-width: 1.5; stroke-linecap: square"/>
   </g>
   <g id="line2d_15">
    <path d="M 342.700255 97.117538 
L 343.335139 79.004476 
L 343.970024 104.124877 
L 344.604908 122.26882 
L 345.239793 110.394777 
L 345.874677 54.151405 
L 346.509562 98.022515 
L 347.144446 97.238873 
L 347.779331 73.986768 
L 348.414215 97.538569 
L 349.0491 85.715439 
L 349.683984 103.37034 
L 350.318869 122.27635 
L 350.953753 99.250552 
L 351.588638 94.152935 
L 352.223522 114.041238 
L 352.858407 125.031453 
L 353.493292 119.793952 
L 354.128176 132.413342 
L 354.763061 171.800894 
L 355.397945 192.544066 
L 356.03283 192.280051 
L 356.667714 174.714659 
L 357.302599 163.336737 
L 357.937483 115.527041 
L 358.572368 110.620281 
L 359.207252 96.735478 
L 359.842137 104.101922 
L 360.477021 118.415666 
L 361.111906 117.24517 
L 361.74679 109.073068 
L 362.381675 104.045859 
L 363.016559 115.487588 
L 363.651444 121.202819 
L 364.286328 91.063116 
L 364.921213 102.481706 
L 365.556097 116.795654 
L 366.190982 71.922813 
L 366.825866 91.58201 
L 367.460751 97.945938 
" clip-path="url(#pb04c06137e)" style="fill: none; stroke: #ff0000; stroke-width: 1.5; stroke-linecap: square"/>
   </g>
   <g id="patch_3">
    <path d="M 63.382812 203.038125 
L 63.382812 36.718125 
" style="fill: none; stroke: #000000; stroke-width: 0.8; stroke-linejoin: miter; stroke-linecap: square"/>
   </g>
   <g id="patch_4">
    <path d="M 621.382812 203.038125 
L 621.382812 36.718125 
" style="fill: none; stroke: #000000; stroke-width: 0.8; stroke-linejoin: miter; stroke-linecap: square"/>
   </g>
   <g id="patch_5">
    <path d="M 63.382812 203.038125 
L 621.382812 203.038125 
" style="fill: none; stroke: #000000; stroke-width: 0.8; stroke-linejoin: miter; stroke-linecap: square"/>
   </g>
   <g id="patch_6">
    <path d="M 63.382812 36.718125 
L 621.382812 36.718125 
" style="fill: none; stroke: #000000; stroke-width: 0.8; stroke-linejoin: miter; stroke-linecap: square"/>
   </g>
   <g id="text_16">
    <!-- Channel:6, Time stamp : 1038865 -->
    <g transform="translate(240.144688 30.718125) scale(0.12 -0.12)">
     <defs>
      <path id="DejaVuSans-43" d="M 4122 4306 
L 4122 3641 
Q 3803 3938 3442 4084 
Q 3081 4231 2675 4231 
Q 1875 4231 1450 3742 
Q 1025 3253 1025 2328 
Q 1025 1406 1450 917 
Q 1875 428 2675 428 
Q 3081 428 3442 575 
Q 3803 722 4122 1019 
L 4122 359 
Q 3791 134 3420 21 
Q 3050 -91 2638 -91 
Q 1578 -91 968 557 
Q 359 1206 359 2328 
Q 359 3453 968 4101 
Q 1578 4750 2638 4750 
Q 3056 4750 3426 4639 
Q 3797 4528 4122 4306 
z
" transform="scale(0.015625)"/>
      <path id="DejaVuSans-68" d="M 3513 2113 
L 3513 0 
L 2938 0 
L 2938 2094 
Q 2938 2591 2744 2837 
Q 2550 3084 2163 3084 
Q 1697 3084 1428 2787 
Q 1159 2491 1159 1978 
L 1159 0 
L 581 0 
L 581 4863 
L 1159 4863 
L 1159 2956 
Q 1366 3272 1645 3428 
Q 1925 3584 2291 3584 
Q 2894 3584 3203 3211 
Q 3513 2838 3513 2113 
z
" transform="scale(0.015625)"/>
      <path id="DejaVuSans-6e" d="M 3513 2113 
L 3513 0 
L 2938 0 
L 2938 2094 
Q 2938 2591 2744 2837 
Q 2550 3084 2163 3084 
Q 1697 3084 1428 2787 
Q 1159 2491 1159 1978 
L 1159 0 
L 581 0 
L 581 3500 
L 1159 3500 
L 1159 2956 
Q 1366 3272 1645 3428 
Q 1925 3584 2291 3584 
Q 2894 3584 3203 3211 
Q 3513 2838 3513 2113 
z
" transform="scale(0.015625)"/>
      <path id="DejaVuSans-3a" d="M 750 794 
L 1409 794 
L 1409 0 
L 750 0 
L 750 794 
z
M 750 3309 
L 1409 3309 
L 1409 2516 
L 750 2516 
L 750 3309 
z
" transform="scale(0.015625)"/>
      <path id="DejaVuSans-36" d="M 2113 2584 
Q 1688 2584 1439 2293 
Q 1191 2003 1191 1497 
Q 1191 994 1439 701 
Q 1688 409 2113 409 
Q 2538 409 2786 701 
Q 3034 994 3034 1497 
Q 3034 2003 2786 2293 
Q 2538 2584 2113 2584 
z
M 3366 4563 
L 3366 3988 
Q 3128 4100 2886 4159 
Q 2644 4219 2406 4219 
Q 1781 4219 1451 3797 
Q 1122 3375 1075 2522 
Q 1259 2794 1537 2939 
Q 1816 3084 2150 3084 
Q 2853 3084 3261 2657 
Q 3669 2231 3669 1497 
Q 3669 778 3244 343 
Q 2819 -91 2113 -91 
Q 1303 -91 875 529 
Q 447 1150 447 2328 
Q 447 3434 972 4092 
Q 1497 4750 2381 4750 
Q 2619 4750 2861 4703 
Q 3103 4656 3366 4563 
z
" transform="scale(0.015625)"/>
      <path id="DejaVuSans-2c" d="M 750 794 
L 1409 794 
L 1409 256 
L 897 -744 
L 494 -744 
L 750 256 
L 750 794 
z
" transform="scale(0.015625)"/>
      <path id="DejaVuSans-70" d="M 1159 525 
L 1159 -1331 
L 581 -1331 
L 581 3500 
L 1159 3500 
L 1159 2969 
Q 1341 3281 1617 3432 
Q 1894 3584 2278 3584 
Q 2916 3584 3314 3078 
Q 3713 2572 3713 1747 
Q 3713 922 3314 415 
Q 2916 -91 2278 -91 
Q 1894 -91 1617 61 
Q 1341 213 1159 525 
z
M 3116 1747 
Q 3116 2381 2855 2742 
Q 2594 3103 2138 3103 
Q 1681 3103 1420 2742 
Q 1159 2381 1159 1747 
Q 1159 1113 1420 752 
Q 1681 391 2138 391 
Q 2594 391 2855 752 
Q 3116 1113 3116 1747 
z
" transform="scale(0.015625)"/>
      <path id="DejaVuSans-33" d="M 2597 2516 
Q 3050 2419 3304 2112 
Q 3559 1806 3559 1356 
Q 3559 666 3084 287 
Q 2609 -91 1734 -91 
Q 1441 -91 1130 -33 
Q 819 25 488 141 
L 488 750 
Q 750 597 1062 519 
Q 1375 441 1716 441 
Q 2309 441 2620 675 
Q 2931 909 2931 1356 
Q 2931 1769 2642 2001 
Q 2353 2234 1838 2234 
L 1294 2234 
L 1294 2753 
L 1863 2753 
Q 2328 2753 2575 2939 
Q 2822 3125 2822 3475 
Q 2822 3834 2567 4026 
Q 2313 4219 1838 4219 
Q 1578 4219 1281 4162 
Q 984 4106 628 3988 
L 628 4550 
Q 988 4650 1302 4700 
Q 1616 4750 1894 4750 
Q 2613 4750 3031 4423 
Q 3450 4097 3450 3541 
Q 3450 3153 3228 2886 
Q 3006 2619 2597 2516 
z
" transform="scale(0.015625)"/>
      <path id="DejaVuSans-38" d="M 2034 2216 
Q 1584 2216 1326 1975 
Q 1069 1734 1069 1313 
Q 1069 891 1326 650 
Q 1584 409 2034 409 
Q 2484 409 2743 651 
Q 3003 894 3003 1313 
Q 3003 1734 2745 1975 
Q 2488 2216 2034 2216 
z
M 1403 2484 
Q 997 2584 770 2862 
Q 544 3141 544 3541 
Q 544 4100 942 4425 
Q 1341 4750 2034 4750 
Q 2731 4750 3128 4425 
Q 3525 4100 3525 3541 
Q 3525 3141 3298 2862 
Q 3072 2584 2669 2484 
Q 3125 2378 3379 2068 
Q 3634 1759 3634 1313 
Q 3634 634 3220 271 
Q 2806 -91 2034 -91 
Q 1263 -91 848 271 
Q 434 634 434 1313 
Q 434 1759 690 2068 
Q 947 2378 1403 2484 
z
M 1172 3481 
Q 1172 3119 1398 2916 
Q 1625 2713 2034 2713 
Q 2441 2713 2670 2916 
Q 2900 3119 2900 3481 
Q 2900 3844 2670 4047 
Q 2441 4250 2034 4250 
Q 1625 4250 1398 4047 
Q 1172 3844 1172 3481 
z
" transform="scale(0.015625)"/>
     </defs>
     <use xlink:href="#DejaVuSans-43"/>
     <use xlink:href="#DejaVuSans-68" x="69.824219"/>
     <use xlink:href="#DejaVuSans-61" x="133.203125"/>
     <use xlink:href="#DejaVuSans-6e" x="194.482422"/>
     <use xlink:href="#DejaVuSans-6e" x="257.861328"/>
     <use xlink:href="#DejaVuSans-65" x="321.240234"/>
     <use xlink:href="#DejaVuSans-6c" x="382.763672"/>
     <use xlink:href="#DejaVuSans-3a" x="410.546875"/>
     <use xlink:href="#DejaVuSans-36" x="444.238281"/>
     <use xlink:href="#DejaVuSans-2c" x="507.861328"/>
     <use xlink:href="#DejaVuSans-20" x="539.648438"/>
     <use xlink:href="#DejaVuSans-54" x="571.435547"/>
     <use xlink:href="#DejaVuSans-69" x="629.394531"/>
     <use xlink:href="#DejaVuSans-6d" x="657.177734"/>
     <use xlink:href="#DejaVuSans-65" x="754.589844"/>
     <use xlink:href="#DejaVuSans-20" x="816.113281"/>
     <use xlink:href="#DejaVuSans-73" x="847.900391"/>
     <use xlink:href="#DejaVuSans-74" x="900"/>
     <use xlink:href="#DejaVuSans-61" x="939.208984"/>
     <use xlink:href="#DejaVuSans-6d" x="1000.488281"/>
     <use xlink:href="#DejaVuSans-70" x="1097.900391"/>
     <use xlink:href="#DejaVuSans-20" x="1161.376953"/>
     <use xlink:href="#DejaVuSans-3a" x="1193.164062"/>
     <use xlink:href="#DejaVuSans-20" x="1226.855469"/>
     <use xlink:href="#DejaVuSans-31" x="1258.642578"/>
     <use xlink:href="#DejaVuSans-30" x="1322.265625"/>
     <use xlink:href="#DejaVuSans-33" x="1385.888672"/>
     <use xlink:href="#DejaVuSans-38" x="1449.511719"/>
     <use xlink:href="#DejaVuSans-38" x="1513.134766"/>
     <use xlink:href="#DejaVuSans-36" x="1576.757812"/>
     <use xlink:href="#DejaVuSans-35" x="1640.380859"/>
    </g>
   </g>
  </g>
 </g>
 <defs>
  <clipPath id="pb04c06137e">
   <rect x="63.382812" y="36.718125" width="558" height="166.32"/>
  </clipPath>
 </defs>
</svg>
