<?xml version="1.0" encoding="utf-8" standalone="no"?>
<!DOCTYPE svg PUBLIC "-//W3C//DTD SVG 1.1//EN"
  "http://www.w3.org/Graphics/SVG/1.1/DTD/svg11.dtd">
<svg xmlns:xlink="http://www.w3.org/1999/xlink" width="543.982813pt" height="211.794375pt" viewBox="0 0 543.982813 211.794375" xmlns="http://www.w3.org/2000/svg" version="1.1">
 <metadata>
  <rdf:RDF xmlns:dc="http://purl.org/dc/elements/1.1/" xmlns:cc="http://creativecommons.org/ns#" xmlns:rdf="http://www.w3.org/1999/02/22-rdf-syntax-ns#">
   <cc:Work>
    <dc:type rdf:resource="http://purl.org/dc/dcmitype/StillImage"/>
    <dc:date>2024-02-26T10:41:34.858766</dc:date>
    <dc:format>image/svg+xml</dc:format>
    <dc:creator>
     <cc:Agent>
      <dc:title>Matplotlib v3.7.1, https://matplotlib.org/</dc:title>
     </cc:Agent>
    </dc:creator>
   </cc:Work>
  </rdf:RDF>
 </metadata>
 <defs>
  <style type="text/css">*{stroke-linejoin: round; stroke-linecap: butt}</style>
 </defs>
 <g id="figure_1">
  <g id="patch_1">
   <path d="M 0 211.794375 
L 543.982813 211.794375 
L 543.982813 0 
L 0 0 
z
" style="fill: #ffffff"/>
  </g>
  <g id="axes_1">
   <g id="patch_2">
    <path d="M 41.782812 181.438125 
L 189.488695 181.438125 
L 189.488695 15.118125 
L 41.782812 15.118125 
z
" style="fill: #ffffff"/>
   </g>
   <g id="PolyCollection_1">
    <defs>
     <path id="m191d79793f" d="M 48.496716 -78.70413 
L 48.496716 -51.824371 
L 50.772616 -50.634445 
L 53.048515 -50.553789 
L 55.324415 -49.969019 
L 57.600315 -48.399331 
L 59.876214 -49.56136 
L 62.152114 -51.48974 
L 64.428013 -49.496076 
L 66.703913 -49.507786 
L 68.979812 -48.874473 
L 71.255712 -48.636647 
L 73.531612 -49.042087 
L 75.807511 -48.658238 
L 78.083411 -49.936308 
L 80.35931 -48.548097 
L 82.63521 -49.513663 
L 84.911109 -48.472069 
L 87.187009 -50.598158 
L 89.462909 -48.138167 
L 91.738808 -49.997692 
L 94.014708 -45.876355 
L 96.290607 -50.05269 
L 98.566507 -45.464511 
L 100.842406 -50.453491 
L 103.118306 -44.431736 
L 105.394206 -50.127051 
L 107.670105 -44.718015 
L 109.946005 -48.288312 
L 112.221904 -37.91625 
L 114.497804 -45.873151 
L 116.773703 -129.509989 
L 119.049603 -62.898315 
L 121.325503 -49.261846 
L 123.601402 -56.355124 
L 125.877302 -49.148509 
L 128.153201 -56.273087 
L 130.429101 -50.622027 
L 132.705 -53.70144 
L 134.9809 -50.408309 
L 137.2568 -53.647041 
L 139.532699 -50.823631 
L 141.808599 -54.457652 
L 144.084498 -51.853819 
L 146.360398 -53.078094 
L 148.636297 -52.642312 
L 150.912197 -51.577057 
L 153.188097 -51.253059 
L 155.463996 -51.307052 
L 157.739896 -51.648329 
L 160.015795 -52.49572 
L 162.291695 -51.622689 
L 164.567595 -51.923323 
L 166.843494 -50.735622 
L 169.119394 -52.39605 
L 171.395293 -51.16416 
L 173.671193 -50.786094 
L 175.947092 -52.474839 
L 178.222992 -50.29299 
L 180.498892 -51.672327 
L 182.774791 -51.810777 
L 182.774791 -76.367992 
L 182.774791 -76.367992 
L 180.498892 -77.401585 
L 178.222992 -76.918278 
L 175.947092 -79.240551 
L 173.671193 -77.557683 
L 171.395293 -78.61516 
L 169.119394 -78.600977 
L 166.843494 -77.987999 
L 164.567595 -78.595049 
L 162.291695 -77.850389 
L 160.015795 -79.157025 
L 157.739896 -76.337771 
L 155.463996 -78.237354 
L 153.188097 -76.362378 
L 150.912197 -78.911917 
L 148.636297 -78.571398 
L 146.360398 -79.262401 
L 144.084498 -78.3587 
L 141.808599 -81.360576 
L 139.532699 -76.982355 
L 137.2568 -81.190513 
L 134.9809 -77.146225 
L 132.705 -81.5021 
L 130.429101 -77.186634 
L 128.153201 -86.058969 
L 125.877302 -80.02901 
L 123.601402 -91.175622 
L 121.325503 -85.04268 
L 119.049603 -116.263329 
L 116.773703 -189.11625 
L 114.497804 -101.291665 
L 112.221904 -72.885388 
L 109.946005 -79.116714 
L 107.670105 -73.385614 
L 105.394206 -77.053379 
L 103.118306 -71.327157 
L 100.842406 -76.290158 
L 98.566507 -73.016785 
L 96.290607 -77.867548 
L 94.014708 -71.348855 
L 91.738808 -74.659738 
L 89.462909 -73.480789 
L 87.187009 -75.746573 
L 84.911109 -74.08046 
L 82.63521 -76.651007 
L 80.35931 -74.099697 
L 78.083411 -76.221466 
L 75.807511 -75.921681 
L 73.531612 -75.856789 
L 71.255712 -75.205065 
L 68.979812 -76.713783 
L 66.703913 -75.671466 
L 64.428013 -74.602379 
L 62.152114 -76.411992 
L 59.876214 -76.169487 
L 57.600315 -76.464759 
L 55.324415 -75.926017 
L 53.048515 -77.642776 
L 50.772616 -76.835638 
L 48.496716 -78.70413 
z
" style="stroke: #0000ff; stroke-opacity: 0.3"/>
    </defs>
    <g clip-path="url(#pb9676e4068)">
     <use xlink:href="#m191d79793f" x="0" y="211.794375" style="fill: #0000ff; fill-opacity: 0.3; stroke: #0000ff; stroke-opacity: 0.3"/>
    </g>
   </g>
   <g id="matplotlib.axis_1">
    <g id="xtick_1">
     <g id="line2d_1">
      <defs>
       <path id="mf2517f4617" d="M 0 0 
L 0 3.5 
" style="stroke: #000000; stroke-width: 0.8"/>
      </defs>
      <g>
       <use xlink:href="#mf2517f4617" x="70.876395" y="181.438125" style="stroke: #000000; stroke-width: 0.8"/>
      </g>
     </g>
     <g id="text_1">
      <!-- −1 -->
      <g transform="translate(63.505302 196.036563) scale(0.1 -0.1)">
       <defs>
        <path id="DejaVuSans-2212" d="M 678 2272 
L 4684 2272 
L 4684 1741 
L 678 1741 
L 678 2272 
z
" transform="scale(0.015625)"/>
        <path id="DejaVuSans-31" d="M 794 531 
L 1825 531 
L 1825 4091 
L 703 3866 
L 703 4441 
L 1819 4666 
L 2450 4666 
L 2450 531 
L 3481 531 
L 3481 0 
L 794 0 
L 794 531 
z
" transform="scale(0.015625)"/>
       </defs>
       <use xlink:href="#DejaVuSans-2212"/>
       <use xlink:href="#DejaVuSans-31" x="83.789062"/>
      </g>
     </g>
    </g>
    <g id="xtick_2">
     <g id="line2d_2">
      <g>
       <use xlink:href="#mf2517f4617" x="115.635754" y="181.438125" style="stroke: #000000; stroke-width: 0.8"/>
      </g>
     </g>
     <g id="text_2">
      <!-- 0 -->
      <g transform="translate(112.454504 196.036563) scale(0.1 -0.1)">
       <defs>
        <path id="DejaVuSans-30" d="M 2034 4250 
Q 1547 4250 1301 3770 
Q 1056 3291 1056 2328 
Q 1056 1369 1301 889 
Q 1547 409 2034 409 
Q 2525 409 2770 889 
Q 3016 1369 3016 2328 
Q 3016 3291 2770 3770 
Q 2525 4250 2034 4250 
z
M 2034 4750 
Q 2819 4750 3233 4129 
Q 3647 3509 3647 2328 
Q 3647 1150 3233 529 
Q 2819 -91 2034 -91 
Q 1250 -91 836 529 
Q 422 1150 422 2328 
Q 422 3509 836 4129 
Q 1250 4750 2034 4750 
z
" transform="scale(0.015625)"/>
       </defs>
       <use xlink:href="#DejaVuSans-30"/>
      </g>
     </g>
    </g>
    <g id="xtick_3">
     <g id="line2d_3">
      <g>
       <use xlink:href="#mf2517f4617" x="160.395112" y="181.438125" style="stroke: #000000; stroke-width: 0.8"/>
      </g>
     </g>
     <g id="text_3">
      <!-- 1 -->
      <g transform="translate(157.213862 196.036563) scale(0.1 -0.1)">
       <use xlink:href="#DejaVuSans-31"/>
      </g>
     </g>
    </g>
    <g id="text_4">
     <!-- Time [ms] -->
     <g transform="translate(90.436535 209.714688) scale(0.1 -0.1)">
      <defs>
       <path id="DejaVuSans-54" d="M -19 4666 
L 3928 4666 
L 3928 4134 
L 2272 4134 
L 2272 0 
L 1638 0 
L 1638 4134 
L -19 4134 
L -19 4666 
z
" transform="scale(0.015625)"/>
       <path id="DejaVuSans-69" d="M 603 3500 
L 1178 3500 
L 1178 0 
L 603 0 
L 603 3500 
z
M 603 4863 
L 1178 4863 
L 1178 4134 
L 603 4134 
L 603 4863 
z
" transform="scale(0.015625)"/>
       <path id="DejaVuSans-6d" d="M 3328 2828 
Q 3544 3216 3844 3400 
Q 4144 3584 4550 3584 
Q 5097 3584 5394 3201 
Q 5691 2819 5691 2113 
L 5691 0 
L 5113 0 
L 5113 2094 
Q 5113 2597 4934 2840 
Q 4756 3084 4391 3084 
Q 3944 3084 3684 2787 
Q 3425 2491 3425 1978 
L 3425 0 
L 2847 0 
L 2847 2094 
Q 2847 2600 2669 2842 
Q 2491 3084 2119 3084 
Q 1678 3084 1418 2786 
Q 1159 2488 1159 1978 
L 1159 0 
L 581 0 
L 581 3500 
L 1159 3500 
L 1159 2956 
Q 1356 3278 1631 3431 
Q 1906 3584 2284 3584 
Q 2666 3584 2933 3390 
Q 3200 3197 3328 2828 
z
" transform="scale(0.015625)"/>
       <path id="DejaVuSans-65" d="M 3597 1894 
L 3597 1613 
L 953 1613 
Q 991 1019 1311 708 
Q 1631 397 2203 397 
Q 2534 397 2845 478 
Q 3156 559 3463 722 
L 3463 178 
Q 3153 47 2828 -22 
Q 2503 -91 2169 -91 
Q 1331 -91 842 396 
Q 353 884 353 1716 
Q 353 2575 817 3079 
Q 1281 3584 2069 3584 
Q 2775 3584 3186 3129 
Q 3597 2675 3597 1894 
z
M 3022 2063 
Q 3016 2534 2758 2815 
Q 2500 3097 2075 3097 
Q 1594 3097 1305 2825 
Q 1016 2553 972 2059 
L 3022 2063 
z
" transform="scale(0.015625)"/>
       <path id="DejaVuSans-20" transform="scale(0.015625)"/>
       <path id="DejaVuSans-5b" d="M 550 4863 
L 1875 4863 
L 1875 4416 
L 1125 4416 
L 1125 -397 
L 1875 -397 
L 1875 -844 
L 550 -844 
L 550 4863 
z
" transform="scale(0.015625)"/>
       <path id="DejaVuSans-73" d="M 2834 3397 
L 2834 2853 
Q 2591 2978 2328 3040 
Q 2066 3103 1784 3103 
Q 1356 3103 1142 2972 
Q 928 2841 928 2578 
Q 928 2378 1081 2264 
Q 1234 2150 1697 2047 
L 1894 2003 
Q 2506 1872 2764 1633 
Q 3022 1394 3022 966 
Q 3022 478 2636 193 
Q 2250 -91 1575 -91 
Q 1294 -91 989 -36 
Q 684 19 347 128 
L 347 722 
Q 666 556 975 473 
Q 1284 391 1588 391 
Q 1994 391 2212 530 
Q 2431 669 2431 922 
Q 2431 1156 2273 1281 
Q 2116 1406 1581 1522 
L 1381 1569 
Q 847 1681 609 1914 
Q 372 2147 372 2553 
Q 372 3047 722 3315 
Q 1072 3584 1716 3584 
Q 2034 3584 2315 3537 
Q 2597 3491 2834 3397 
z
" transform="scale(0.015625)"/>
       <path id="DejaVuSans-5d" d="M 1947 4863 
L 1947 -844 
L 622 -844 
L 622 -397 
L 1369 -397 
L 1369 4416 
L 622 4416 
L 622 4863 
L 1947 4863 
z
" transform="scale(0.015625)"/>
      </defs>
      <use xlink:href="#DejaVuSans-54"/>
      <use xlink:href="#DejaVuSans-69" x="57.958984"/>
      <use xlink:href="#DejaVuSans-6d" x="85.742188"/>
      <use xlink:href="#DejaVuSans-65" x="183.154297"/>
      <use xlink:href="#DejaVuSans-20" x="244.677734"/>
      <use xlink:href="#DejaVuSans-5b" x="276.464844"/>
      <use xlink:href="#DejaVuSans-6d" x="315.478516"/>
      <use xlink:href="#DejaVuSans-73" x="412.890625"/>
      <use xlink:href="#DejaVuSans-5d" x="464.990234"/>
     </g>
    </g>
   </g>
   <g id="matplotlib.axis_2">
    <g id="ytick_1">
     <g id="line2d_4">
      <defs>
       <path id="m0442995f8a" d="M 0 0 
L -3.5 0 
" style="stroke: #000000; stroke-width: 0.8"/>
      </defs>
      <g>
       <use xlink:href="#m0442995f8a" x="41.782812" y="173.043736" style="stroke: #000000; stroke-width: 0.8"/>
      </g>
     </g>
     <g id="text_5">
      <!-- −10 -->
      <g transform="translate(13.678125 176.842955) scale(0.1 -0.1)">
       <use xlink:href="#DejaVuSans-2212"/>
       <use xlink:href="#DejaVuSans-31" x="83.789062"/>
       <use xlink:href="#DejaVuSans-30" x="147.412109"/>
      </g>
     </g>
    </g>
    <g id="ytick_2">
     <g id="line2d_5">
      <g>
       <use xlink:href="#m0442995f8a" x="41.782812" y="145.460267" style="stroke: #000000; stroke-width: 0.8"/>
      </g>
     </g>
     <g id="text_6">
      <!-- 0 -->
      <g transform="translate(28.420312 149.259486) scale(0.1 -0.1)">
       <use xlink:href="#DejaVuSans-30"/>
      </g>
     </g>
    </g>
    <g id="ytick_3">
     <g id="line2d_6">
      <g>
       <use xlink:href="#m0442995f8a" x="41.782812" y="117.876798" style="stroke: #000000; stroke-width: 0.8"/>
      </g>
     </g>
     <g id="text_7">
      <!-- 10 -->
      <g transform="translate(22.057812 121.676017) scale(0.1 -0.1)">
       <use xlink:href="#DejaVuSans-31"/>
       <use xlink:href="#DejaVuSans-30" x="63.623047"/>
      </g>
     </g>
    </g>
    <g id="ytick_4">
     <g id="line2d_7">
      <g>
       <use xlink:href="#m0442995f8a" x="41.782812" y="90.293329" style="stroke: #000000; stroke-width: 0.8"/>
      </g>
     </g>
     <g id="text_8">
      <!-- 20 -->
      <g transform="translate(22.057812 94.092548) scale(0.1 -0.1)">
       <defs>
        <path id="DejaVuSans-32" d="M 1228 531 
L 3431 531 
L 3431 0 
L 469 0 
L 469 531 
Q 828 903 1448 1529 
Q 2069 2156 2228 2338 
Q 2531 2678 2651 2914 
Q 2772 3150 2772 3378 
Q 2772 3750 2511 3984 
Q 2250 4219 1831 4219 
Q 1534 4219 1204 4116 
Q 875 4013 500 3803 
L 500 4441 
Q 881 4594 1212 4672 
Q 1544 4750 1819 4750 
Q 2544 4750 2975 4387 
Q 3406 4025 3406 3419 
Q 3406 3131 3298 2873 
Q 3191 2616 2906 2266 
Q 2828 2175 2409 1742 
Q 1991 1309 1228 531 
z
" transform="scale(0.015625)"/>
       </defs>
       <use xlink:href="#DejaVuSans-32"/>
       <use xlink:href="#DejaVuSans-30" x="63.623047"/>
      </g>
     </g>
    </g>
    <g id="ytick_5">
     <g id="line2d_8">
      <g>
       <use xlink:href="#m0442995f8a" x="41.782812" y="62.70986" style="stroke: #000000; stroke-width: 0.8"/>
      </g>
     </g>
     <g id="text_9">
      <!-- 30 -->
      <g transform="translate(22.057812 66.509079) scale(0.1 -0.1)">
       <defs>
        <path id="DejaVuSans-33" d="M 2597 2516 
Q 3050 2419 3304 2112 
Q 3559 1806 3559 1356 
Q 3559 666 3084 287 
Q 2609 -91 1734 -91 
Q 1441 -91 1130 -33 
Q 819 25 488 141 
L 488 750 
Q 750 597 1062 519 
Q 1375 441 1716 441 
Q 2309 441 2620 675 
Q 2931 909 2931 1356 
Q 2931 1769 2642 2001 
Q 2353 2234 1838 2234 
L 1294 2234 
L 1294 2753 
L 1863 2753 
Q 2328 2753 2575 2939 
Q 2822 3125 2822 3475 
Q 2822 3834 2567 4026 
Q 2313 4219 1838 4219 
Q 1578 4219 1281 4162 
Q 984 4106 628 3988 
L 628 4550 
Q 988 4650 1302 4700 
Q 1616 4750 1894 4750 
Q 2613 4750 3031 4423 
Q 3450 4097 3450 3541 
Q 3450 3153 3228 2886 
Q 3006 2619 2597 2516 
z
" transform="scale(0.015625)"/>
       </defs>
       <use xlink:href="#DejaVuSans-33"/>
       <use xlink:href="#DejaVuSans-30" x="63.623047"/>
      </g>
     </g>
    </g>
    <g id="ytick_6">
     <g id="line2d_9">
      <g>
       <use xlink:href="#m0442995f8a" x="41.782812" y="35.126391" style="stroke: #000000; stroke-width: 0.8"/>
      </g>
     </g>
     <g id="text_10">
      <!-- 40 -->
      <g transform="translate(22.057812 38.92561) scale(0.1 -0.1)">
       <defs>
        <path id="DejaVuSans-34" d="M 2419 4116 
L 825 1625 
L 2419 1625 
L 2419 4116 
z
M 2253 4666 
L 3047 4666 
L 3047 1625 
L 3713 1625 
L 3713 1100 
L 3047 1100 
L 3047 0 
L 2419 0 
L 2419 1100 
L 313 1100 
L 313 1709 
L 2253 4666 
z
" transform="scale(0.015625)"/>
       </defs>
       <use xlink:href="#DejaVuSans-34"/>
       <use xlink:href="#DejaVuSans-30" x="63.623047"/>
      </g>
     </g>
    </g>
    <g id="text_11">
     <!-- Voltage [uV] -->
     <g transform="translate(7.598437 129.114063) rotate(-90) scale(0.1 -0.1)">
      <defs>
       <path id="DejaVuSans-56" d="M 1831 0 
L 50 4666 
L 709 4666 
L 2188 738 
L 3669 4666 
L 4325 4666 
L 2547 0 
L 1831 0 
z
" transform="scale(0.015625)"/>
       <path id="DejaVuSans-6f" d="M 1959 3097 
Q 1497 3097 1228 2736 
Q 959 2375 959 1747 
Q 959 1119 1226 758 
Q 1494 397 1959 397 
Q 2419 397 2687 759 
Q 2956 1122 2956 1747 
Q 2956 2369 2687 2733 
Q 2419 3097 1959 3097 
z
M 1959 3584 
Q 2709 3584 3137 3096 
Q 3566 2609 3566 1747 
Q 3566 888 3137 398 
Q 2709 -91 1959 -91 
Q 1206 -91 779 398 
Q 353 888 353 1747 
Q 353 2609 779 3096 
Q 1206 3584 1959 3584 
z
" transform="scale(0.015625)"/>
       <path id="DejaVuSans-6c" d="M 603 4863 
L 1178 4863 
L 1178 0 
L 603 0 
L 603 4863 
z
" transform="scale(0.015625)"/>
       <path id="DejaVuSans-74" d="M 1172 4494 
L 1172 3500 
L 2356 3500 
L 2356 3053 
L 1172 3053 
L 1172 1153 
Q 1172 725 1289 603 
Q 1406 481 1766 481 
L 2356 481 
L 2356 0 
L 1766 0 
Q 1100 0 847 248 
Q 594 497 594 1153 
L 594 3053 
L 172 3053 
L 172 3500 
L 594 3500 
L 594 4494 
L 1172 4494 
z
" transform="scale(0.015625)"/>
       <path id="DejaVuSans-61" d="M 2194 1759 
Q 1497 1759 1228 1600 
Q 959 1441 959 1056 
Q 959 750 1161 570 
Q 1363 391 1709 391 
Q 2188 391 2477 730 
Q 2766 1069 2766 1631 
L 2766 1759 
L 2194 1759 
z
M 3341 1997 
L 3341 0 
L 2766 0 
L 2766 531 
Q 2569 213 2275 61 
Q 1981 -91 1556 -91 
Q 1019 -91 701 211 
Q 384 513 384 1019 
Q 384 1609 779 1909 
Q 1175 2209 1959 2209 
L 2766 2209 
L 2766 2266 
Q 2766 2663 2505 2880 
Q 2244 3097 1772 3097 
Q 1472 3097 1187 3025 
Q 903 2953 641 2809 
L 641 3341 
Q 956 3463 1253 3523 
Q 1550 3584 1831 3584 
Q 2591 3584 2966 3190 
Q 3341 2797 3341 1997 
z
" transform="scale(0.015625)"/>
       <path id="DejaVuSans-67" d="M 2906 1791 
Q 2906 2416 2648 2759 
Q 2391 3103 1925 3103 
Q 1463 3103 1205 2759 
Q 947 2416 947 1791 
Q 947 1169 1205 825 
Q 1463 481 1925 481 
Q 2391 481 2648 825 
Q 2906 1169 2906 1791 
z
M 3481 434 
Q 3481 -459 3084 -895 
Q 2688 -1331 1869 -1331 
Q 1566 -1331 1297 -1286 
Q 1028 -1241 775 -1147 
L 775 -588 
Q 1028 -725 1275 -790 
Q 1522 -856 1778 -856 
Q 2344 -856 2625 -561 
Q 2906 -266 2906 331 
L 2906 616 
Q 2728 306 2450 153 
Q 2172 0 1784 0 
Q 1141 0 747 490 
Q 353 981 353 1791 
Q 353 2603 747 3093 
Q 1141 3584 1784 3584 
Q 2172 3584 2450 3431 
Q 2728 3278 2906 2969 
L 2906 3500 
L 3481 3500 
L 3481 434 
z
" transform="scale(0.015625)"/>
       <path id="DejaVuSans-75" d="M 544 1381 
L 544 3500 
L 1119 3500 
L 1119 1403 
Q 1119 906 1312 657 
Q 1506 409 1894 409 
Q 2359 409 2629 706 
Q 2900 1003 2900 1516 
L 2900 3500 
L 3475 3500 
L 3475 0 
L 2900 0 
L 2900 538 
Q 2691 219 2414 64 
Q 2138 -91 1772 -91 
Q 1169 -91 856 284 
Q 544 659 544 1381 
z
M 1991 3584 
L 1991 3584 
z
" transform="scale(0.015625)"/>
      </defs>
      <use xlink:href="#DejaVuSans-56"/>
      <use xlink:href="#DejaVuSans-6f" x="60.658203"/>
      <use xlink:href="#DejaVuSans-6c" x="121.839844"/>
      <use xlink:href="#DejaVuSans-74" x="149.623047"/>
      <use xlink:href="#DejaVuSans-61" x="188.832031"/>
      <use xlink:href="#DejaVuSans-67" x="250.111328"/>
      <use xlink:href="#DejaVuSans-65" x="313.587891"/>
      <use xlink:href="#DejaVuSans-20" x="375.111328"/>
      <use xlink:href="#DejaVuSans-5b" x="406.898438"/>
      <use xlink:href="#DejaVuSans-75" x="445.912109"/>
      <use xlink:href="#DejaVuSans-56" x="509.291016"/>
      <use xlink:href="#DejaVuSans-5d" x="577.699219"/>
     </g>
    </g>
   </g>
   <g id="line2d_10">
    <path d="M 48.496716 146.530124 
L 50.772616 148.059333 
L 53.048515 147.696092 
L 55.324415 148.846857 
L 57.600315 149.36233 
L 59.876214 148.928951 
L 62.152114 147.843509 
L 64.428013 149.745147 
L 66.703913 149.204749 
L 68.979812 149.000247 
L 71.255712 149.873519 
L 73.531612 149.344937 
L 75.807511 149.504415 
L 78.083411 148.715488 
L 80.35931 150.470478 
L 82.63521 148.71204 
L 84.911109 150.518111 
L 87.187009 148.62201 
L 89.462909 150.984897 
L 91.738808 149.46566 
L 94.014708 153.18177 
L 96.290607 147.834256 
L 98.566507 152.553727 
L 100.842406 148.422551 
L 103.118306 153.914928 
L 105.394206 148.20416 
L 107.670105 152.742561 
L 109.946005 148.091862 
L 112.221904 156.393556 
L 114.497804 138.211967 
L 116.773703 52.481255 
L 119.049603 122.213553 
L 121.325503 144.642112 
L 123.601402 138.029002 
L 125.877302 147.205616 
L 128.153201 140.628347 
L 130.429101 147.890045 
L 132.705 144.192605 
L 134.9809 148.017108 
L 137.2568 144.375598 
L 139.532699 147.891382 
L 141.808599 143.885261 
L 144.084498 146.688116 
L 146.360398 145.624128 
L 148.636297 146.18752 
L 150.912197 146.549888 
L 153.188097 147.986656 
L 155.463996 147.022172 
L 157.739896 147.801325 
L 160.015795 145.968003 
L 162.291695 147.057836 
L 164.567595 146.535189 
L 166.843494 147.432564 
L 169.119394 146.295861 
L 171.395293 146.904715 
L 173.671193 147.622486 
L 175.947092 145.93668 
L 178.222992 148.188741 
L 180.498892 147.257419 
L 182.774791 147.704991 
" clip-path="url(#pb9676e4068)" style="fill: none; stroke: #ff0000; stroke-width: 0.5; stroke-linecap: square"/>
   </g>
   <g id="patch_3">
    <path d="M 41.782812 181.438125 
L 41.782812 15.118125 
" style="fill: none; stroke: #000000; stroke-width: 0.8; stroke-linejoin: miter; stroke-linecap: square"/>
   </g>
   <g id="patch_4">
    <path d="M 189.488695 181.438125 
L 189.488695 15.118125 
" style="fill: none; stroke: #000000; stroke-width: 0.8; stroke-linejoin: miter; stroke-linecap: square"/>
   </g>
   <g id="patch_5">
    <path d="M 41.782813 181.438125 
L 189.488695 181.438125 
" style="fill: none; stroke: #000000; stroke-width: 0.8; stroke-linejoin: miter; stroke-linecap: square"/>
   </g>
   <g id="patch_6">
    <path d="M 41.782813 15.118125 
L 189.488695 15.118125 
" style="fill: none; stroke: #000000; stroke-width: 0.8; stroke-linejoin: miter; stroke-linecap: square"/>
   </g>
   <g id="text_12">
    <!-- Cluster 0, 52.4% -->
    <g transform="translate(65.742004 9.118125) scale(0.12 -0.12)">
     <defs>
      <path id="DejaVuSans-43" d="M 4122 4306 
L 4122 3641 
Q 3803 3938 3442 4084 
Q 3081 4231 2675 4231 
Q 1875 4231 1450 3742 
Q 1025 3253 1025 2328 
Q 1025 1406 1450 917 
Q 1875 428 2675 428 
Q 3081 428 3442 575 
Q 3803 722 4122 1019 
L 4122 359 
Q 3791 134 3420 21 
Q 3050 -91 2638 -91 
Q 1578 -91 968 557 
Q 359 1206 359 2328 
Q 359 3453 968 4101 
Q 1578 4750 2638 4750 
Q 3056 4750 3426 4639 
Q 3797 4528 4122 4306 
z
" transform="scale(0.015625)"/>
      <path id="DejaVuSans-72" d="M 2631 2963 
Q 2534 3019 2420 3045 
Q 2306 3072 2169 3072 
Q 1681 3072 1420 2755 
Q 1159 2438 1159 1844 
L 1159 0 
L 581 0 
L 581 3500 
L 1159 3500 
L 1159 2956 
Q 1341 3275 1631 3429 
Q 1922 3584 2338 3584 
Q 2397 3584 2469 3576 
Q 2541 3569 2628 3553 
L 2631 2963 
z
" transform="scale(0.015625)"/>
      <path id="DejaVuSans-2c" d="M 750 794 
L 1409 794 
L 1409 256 
L 897 -744 
L 494 -744 
L 750 256 
L 750 794 
z
" transform="scale(0.015625)"/>
      <path id="DejaVuSans-35" d="M 691 4666 
L 3169 4666 
L 3169 4134 
L 1269 4134 
L 1269 2991 
Q 1406 3038 1543 3061 
Q 1681 3084 1819 3084 
Q 2600 3084 3056 2656 
Q 3513 2228 3513 1497 
Q 3513 744 3044 326 
Q 2575 -91 1722 -91 
Q 1428 -91 1123 -41 
Q 819 9 494 109 
L 494 744 
Q 775 591 1075 516 
Q 1375 441 1709 441 
Q 2250 441 2565 725 
Q 2881 1009 2881 1497 
Q 2881 1984 2565 2268 
Q 2250 2553 1709 2553 
Q 1456 2553 1204 2497 
Q 953 2441 691 2322 
L 691 4666 
z
" transform="scale(0.015625)"/>
      <path id="DejaVuSans-2e" d="M 684 794 
L 1344 794 
L 1344 0 
L 684 0 
L 684 794 
z
" transform="scale(0.015625)"/>
      <path id="DejaVuSans-25" d="M 4653 2053 
Q 4381 2053 4226 1822 
Q 4072 1591 4072 1178 
Q 4072 772 4226 539 
Q 4381 306 4653 306 
Q 4919 306 5073 539 
Q 5228 772 5228 1178 
Q 5228 1588 5073 1820 
Q 4919 2053 4653 2053 
z
M 4653 2450 
Q 5147 2450 5437 2106 
Q 5728 1763 5728 1178 
Q 5728 594 5436 251 
Q 5144 -91 4653 -91 
Q 4153 -91 3862 251 
Q 3572 594 3572 1178 
Q 3572 1766 3864 2108 
Q 4156 2450 4653 2450 
z
M 1428 4353 
Q 1159 4353 1004 4120 
Q 850 3888 850 3481 
Q 850 3069 1003 2837 
Q 1156 2606 1428 2606 
Q 1700 2606 1854 2837 
Q 2009 3069 2009 3481 
Q 2009 3884 1853 4118 
Q 1697 4353 1428 4353 
z
M 4250 4750 
L 4750 4750 
L 1831 -91 
L 1331 -91 
L 4250 4750 
z
M 1428 4750 
Q 1922 4750 2215 4408 
Q 2509 4066 2509 3481 
Q 2509 2891 2217 2550 
Q 1925 2209 1428 2209 
Q 931 2209 642 2551 
Q 353 2894 353 3481 
Q 353 4063 643 4406 
Q 934 4750 1428 4750 
z
" transform="scale(0.015625)"/>
     </defs>
     <use xlink:href="#DejaVuSans-43"/>
     <use xlink:href="#DejaVuSans-6c" x="69.824219"/>
     <use xlink:href="#DejaVuSans-75" x="97.607422"/>
     <use xlink:href="#DejaVuSans-73" x="160.986328"/>
     <use xlink:href="#DejaVuSans-74" x="213.085938"/>
     <use xlink:href="#DejaVuSans-65" x="252.294922"/>
     <use xlink:href="#DejaVuSans-72" x="313.818359"/>
     <use xlink:href="#DejaVuSans-20" x="354.931641"/>
     <use xlink:href="#DejaVuSans-30" x="386.71875"/>
     <use xlink:href="#DejaVuSans-2c" x="450.341797"/>
     <use xlink:href="#DejaVuSans-20" x="482.128906"/>
     <use xlink:href="#DejaVuSans-35" x="513.916016"/>
     <use xlink:href="#DejaVuSans-32" x="577.539062"/>
     <use xlink:href="#DejaVuSans-2e" x="641.162109"/>
     <use xlink:href="#DejaVuSans-34" x="672.949219"/>
     <use xlink:href="#DejaVuSans-25" x="736.572266"/>
    </g>
   </g>
  </g>
  <g id="axes_2">
   <g id="patch_7">
    <path d="M 219.029871 181.438125 
L 366.735754 181.438125 
L 366.735754 15.118125 
L 219.029871 15.118125 
z
" style="fill: #ffffff"/>
   </g>
   <g id="PolyCollection_2">
    <defs>
     <path id="m00c9a29edc" d="M 225.743775 -70.280416 
L 225.743775 -59.343712 
L 228.019675 -58.304728 
L 230.295574 -59.277891 
L 232.571474 -57.918611 
L 234.847373 -58.980933 
L 237.123273 -58.579733 
L 239.399173 -57.317083 
L 241.675072 -59.756999 
L 243.950972 -57.675263 
L 246.226871 -57.563394 
L 248.502771 -56.865008 
L 250.77867 -58.062333 
L 253.05457 -56.454063 
L 255.33047 -56.745847 
L 257.606369 -56.111554 
L 259.882269 -57.773845 
L 262.158168 -55.561129 
L 264.434068 -56.267979 
L 266.709967 -55.729032 
L 268.985867 -56.402157 
L 271.261767 -53.164215 
L 273.537666 -55.766549 
L 275.813566 -50.555007 
L 278.089465 -55.745893 
L 280.365365 -51.542375 
L 282.641264 -56.533827 
L 284.917164 -49.945134 
L 287.193064 -56.334024 
L 289.468963 -48.547486 
L 291.744863 -37.91625 
L 294.020762 -153.858711 
L 296.296662 -79.569223 
L 298.572561 -64.192648 
L 300.848461 -69.679294 
L 303.124361 -59.559376 
L 305.40026 -66.74122 
L 307.67616 -62.661227 
L 309.952059 -65.513438 
L 312.227959 -60.492039 
L 314.503858 -64.841671 
L 316.779758 -59.644877 
L 319.055658 -63.352215 
L 321.331557 -61.170668 
L 323.607457 -62.736747 
L 325.883356 -59.64385 
L 328.159256 -60.422224 
L 330.435155 -60.502244 
L 332.711055 -60.519269 
L 334.986955 -60.918778 
L 337.262854 -60.581232 
L 339.538754 -61.897926 
L 341.814653 -60.662742 
L 344.090553 -59.735355 
L 346.366452 -57.684974 
L 348.642352 -57.474096 
L 350.918252 -59.631123 
L 353.194151 -61.449095 
L 355.470051 -60.396187 
L 357.74595 -60.332982 
L 360.02185 -57.758088 
L 360.02185 -69.585984 
L 360.02185 -69.585984 
L 357.74595 -71.072256 
L 355.470051 -69.341638 
L 353.194151 -72.32559 
L 350.918252 -69.890832 
L 348.642352 -68.828935 
L 346.366452 -67.09543 
L 344.090553 -70.302469 
L 341.814653 -71.833099 
L 339.538754 -70.5047 
L 337.262854 -69.82628 
L 334.986955 -70.577761 
L 332.711055 -71.126576 
L 330.435155 -70.415165 
L 328.159256 -71.353784 
L 325.883356 -70.204473 
L 323.607457 -73.523221 
L 321.331557 -70.379889 
L 319.055658 -73.764554 
L 316.779758 -70.195306 
L 314.503858 -73.690357 
L 312.227959 -71.296478 
L 309.952059 -74.073914 
L 307.67616 -72.164223 
L 305.40026 -78.648431 
L 303.124361 -70.719244 
L 300.848461 -80.894516 
L 298.572561 -74.908668 
L 296.296662 -122.842888 
L 294.020762 -189.11625 
L 291.744863 -94.585106 
L 289.468963 -58.379806 
L 287.193064 -67.576448 
L 284.917164 -60.288943 
L 282.641264 -67.286761 
L 280.365365 -61.484109 
L 278.089465 -67.062045 
L 275.813566 -61.327445 
L 273.537666 -66.684806 
L 271.261767 -64.085652 
L 268.985867 -66.837334 
L 266.709967 -65.507799 
L 264.434068 -66.682306 
L 262.158168 -64.648507 
L 259.882269 -67.08133 
L 257.606369 -67.234193 
L 255.33047 -66.406779 
L 253.05457 -67.013374 
L 250.77867 -67.507582 
L 248.502771 -68.123961 
L 246.226871 -68.481808 
L 243.950972 -66.895697 
L 241.675072 -69.42568 
L 239.399173 -68.454287 
L 237.123273 -69.494752 
L 234.847373 -68.87228 
L 232.571474 -67.756561 
L 230.295574 -68.235307 
L 228.019675 -68.375858 
L 225.743775 -70.280416 
z
" style="stroke: #0000ff; stroke-opacity: 0.3"/>
    </defs>
    <g clip-path="url(#p5f46e50c5d)">
     <use xlink:href="#m00c9a29edc" x="0" y="211.794375" style="fill: #0000ff; fill-opacity: 0.3; stroke: #0000ff; stroke-opacity: 0.3"/>
    </g>
   </g>
   <g id="matplotlib.axis_3">
    <g id="xtick_4">
     <g id="line2d_11">
      <g>
       <use xlink:href="#mf2517f4617" x="248.123454" y="181.438125" style="stroke: #000000; stroke-width: 0.8"/>
      </g>
     </g>
     <g id="text_13">
      <!-- −1 -->
      <g transform="translate(240.75236 196.036563) scale(0.1 -0.1)">
       <use xlink:href="#DejaVuSans-2212"/>
       <use xlink:href="#DejaVuSans-31" x="83.789062"/>
      </g>
     </g>
    </g>
    <g id="xtick_5">
     <g id="line2d_12">
      <g>
       <use xlink:href="#mf2517f4617" x="292.882812" y="181.438125" style="stroke: #000000; stroke-width: 0.8"/>
      </g>
     </g>
     <g id="text_14">
      <!-- 0 -->
      <g transform="translate(289.701563 196.036563) scale(0.1 -0.1)">
       <use xlink:href="#DejaVuSans-30"/>
      </g>
     </g>
    </g>
    <g id="xtick_6">
     <g id="line2d_13">
      <g>
       <use xlink:href="#mf2517f4617" x="337.642171" y="181.438125" style="stroke: #000000; stroke-width: 0.8"/>
      </g>
     </g>
     <g id="text_15">
      <!-- 1 -->
      <g transform="translate(334.460921 196.036563) scale(0.1 -0.1)">
       <use xlink:href="#DejaVuSans-31"/>
      </g>
     </g>
    </g>
   </g>
   <g id="matplotlib.axis_4">
    <g id="ytick_7">
     <g id="line2d_14">
      <g>
       <use xlink:href="#m0442995f8a" x="219.029871" y="167.233809" style="stroke: #000000; stroke-width: 0.8"/>
      </g>
     </g>
     <g id="text_16">
      <!-- −20 -->
      <g transform="translate(190.925184 171.033028) scale(0.1 -0.1)">
       <use xlink:href="#DejaVuSans-2212"/>
       <use xlink:href="#DejaVuSans-32" x="83.789062"/>
       <use xlink:href="#DejaVuSans-30" x="147.412109"/>
      </g>
     </g>
    </g>
    <g id="ytick_8">
     <g id="line2d_15">
      <g>
       <use xlink:href="#m0442995f8a" x="219.029871" y="145.474241" style="stroke: #000000; stroke-width: 0.8"/>
      </g>
     </g>
     <g id="text_17">
      <!-- 0 -->
      <g transform="translate(205.667371 149.27346) scale(0.1 -0.1)">
       <use xlink:href="#DejaVuSans-30"/>
      </g>
     </g>
    </g>
    <g id="ytick_9">
     <g id="line2d_16">
      <g>
       <use xlink:href="#m0442995f8a" x="219.029871" y="123.714673" style="stroke: #000000; stroke-width: 0.8"/>
      </g>
     </g>
     <g id="text_18">
      <!-- 20 -->
      <g transform="translate(199.304871 127.513892) scale(0.1 -0.1)">
       <use xlink:href="#DejaVuSans-32"/>
       <use xlink:href="#DejaVuSans-30" x="63.623047"/>
      </g>
     </g>
    </g>
    <g id="ytick_10">
     <g id="line2d_17">
      <g>
       <use xlink:href="#m0442995f8a" x="219.029871" y="101.955105" style="stroke: #000000; stroke-width: 0.8"/>
      </g>
     </g>
     <g id="text_19">
      <!-- 40 -->
      <g transform="translate(199.304871 105.754324) scale(0.1 -0.1)">
       <use xlink:href="#DejaVuSans-34"/>
       <use xlink:href="#DejaVuSans-30" x="63.623047"/>
      </g>
     </g>
    </g>
    <g id="ytick_11">
     <g id="line2d_18">
      <g>
       <use xlink:href="#m0442995f8a" x="219.029871" y="80.195537" style="stroke: #000000; stroke-width: 0.8"/>
      </g>
     </g>
     <g id="text_20">
      <!-- 60 -->
      <g transform="translate(199.304871 83.994756) scale(0.1 -0.1)">
       <defs>
        <path id="DejaVuSans-36" d="M 2113 2584 
Q 1688 2584 1439 2293 
Q 1191 2003 1191 1497 
Q 1191 994 1439 701 
Q 1688 409 2113 409 
Q 2538 409 2786 701 
Q 3034 994 3034 1497 
Q 3034 2003 2786 2293 
Q 2538 2584 2113 2584 
z
M 3366 4563 
L 3366 3988 
Q 3128 4100 2886 4159 
Q 2644 4219 2406 4219 
Q 1781 4219 1451 3797 
Q 1122 3375 1075 2522 
Q 1259 2794 1537 2939 
Q 1816 3084 2150 3084 
Q 2853 3084 3261 2657 
Q 3669 2231 3669 1497 
Q 3669 778 3244 343 
Q 2819 -91 2113 -91 
Q 1303 -91 875 529 
Q 447 1150 447 2328 
Q 447 3434 972 4092 
Q 1497 4750 2381 4750 
Q 2619 4750 2861 4703 
Q 3103 4656 3366 4563 
z
" transform="scale(0.015625)"/>
       </defs>
       <use xlink:href="#DejaVuSans-36"/>
       <use xlink:href="#DejaVuSans-30" x="63.623047"/>
      </g>
     </g>
    </g>
    <g id="ytick_12">
     <g id="line2d_19">
      <g>
       <use xlink:href="#m0442995f8a" x="219.029871" y="58.435969" style="stroke: #000000; stroke-width: 0.8"/>
      </g>
     </g>
     <g id="text_21">
      <!-- 80 -->
      <g transform="translate(199.304871 62.235188) scale(0.1 -0.1)">
       <defs>
        <path id="DejaVuSans-38" d="M 2034 2216 
Q 1584 2216 1326 1975 
Q 1069 1734 1069 1313 
Q 1069 891 1326 650 
Q 1584 409 2034 409 
Q 2484 409 2743 651 
Q 3003 894 3003 1313 
Q 3003 1734 2745 1975 
Q 2488 2216 2034 2216 
z
M 1403 2484 
Q 997 2584 770 2862 
Q 544 3141 544 3541 
Q 544 4100 942 4425 
Q 1341 4750 2034 4750 
Q 2731 4750 3128 4425 
Q 3525 4100 3525 3541 
Q 3525 3141 3298 2862 
Q 3072 2584 2669 2484 
Q 3125 2378 3379 2068 
Q 3634 1759 3634 1313 
Q 3634 634 3220 271 
Q 2806 -91 2034 -91 
Q 1263 -91 848 271 
Q 434 634 434 1313 
Q 434 1759 690 2068 
Q 947 2378 1403 2484 
z
M 1172 3481 
Q 1172 3119 1398 2916 
Q 1625 2713 2034 2713 
Q 2441 2713 2670 2916 
Q 2900 3119 2900 3481 
Q 2900 3844 2670 4047 
Q 2441 4250 2034 4250 
Q 1625 4250 1398 4047 
Q 1172 3844 1172 3481 
z
" transform="scale(0.015625)"/>
       </defs>
       <use xlink:href="#DejaVuSans-38"/>
       <use xlink:href="#DejaVuSans-30" x="63.623047"/>
      </g>
     </g>
    </g>
    <g id="ytick_13">
     <g id="line2d_20">
      <g>
       <use xlink:href="#m0442995f8a" x="219.029871" y="36.676401" style="stroke: #000000; stroke-width: 0.8"/>
      </g>
     </g>
     <g id="text_22">
      <!-- 100 -->
      <g transform="translate(192.942371 40.47562) scale(0.1 -0.1)">
       <use xlink:href="#DejaVuSans-31"/>
       <use xlink:href="#DejaVuSans-30" x="63.623047"/>
       <use xlink:href="#DejaVuSans-30" x="127.246094"/>
      </g>
     </g>
    </g>
   </g>
   <g id="line2d_21">
    <path d="M 225.743775 146.982311 
L 228.019675 148.454082 
L 230.295574 148.037776 
L 232.571474 148.956789 
L 234.847373 147.867769 
L 237.123273 147.757132 
L 239.399173 148.90869 
L 241.675072 147.203035 
L 243.950972 149.508895 
L 246.226871 148.771774 
L 248.502771 149.299891 
L 250.77867 149.009417 
L 253.05457 150.060657 
L 255.33047 150.218062 
L 257.606369 150.121501 
L 259.882269 149.366788 
L 262.158168 151.689557 
L 264.434068 150.319233 
L 266.709967 151.175959 
L 268.985867 150.17463 
L 271.261767 153.169441 
L 273.537666 150.568697 
L 275.813566 155.853149 
L 278.089465 150.390406 
L 280.365365 155.281133 
L 282.641264 149.884081 
L 284.917164 156.677337 
L 287.193064 149.839139 
L 289.468963 158.330729 
L 291.744863 145.543697 
L 294.020762 40.306895 
L 296.296662 110.58832 
L 298.572561 142.243717 
L 300.848461 136.50747 
L 303.124361 146.655065 
L 305.40026 139.09955 
L 307.67616 144.38165 
L 309.952059 142.000699 
L 312.227959 145.900117 
L 314.503858 142.528361 
L 316.779758 146.874283 
L 319.055658 143.23599 
L 321.331557 146.019097 
L 323.607457 143.664391 
L 325.883356 146.870214 
L 328.159256 145.906371 
L 330.435155 146.335671 
L 332.711055 145.971453 
L 334.986955 146.046105 
L 337.262854 146.590619 
L 339.538754 145.593062 
L 341.814653 145.546454 
L 344.090553 146.775463 
L 346.366452 149.404173 
L 348.642352 148.642859 
L 350.918252 147.033398 
L 353.194151 144.907033 
L 355.470051 146.925463 
L 357.74595 146.091756 
L 360.02185 148.122339 
" clip-path="url(#p5f46e50c5d)" style="fill: none; stroke: #ff0000; stroke-width: 0.5; stroke-linecap: square"/>
   </g>
   <g id="patch_8">
    <path d="M 219.029871 181.438125 
L 219.029871 15.118125 
" style="fill: none; stroke: #000000; stroke-width: 0.8; stroke-linejoin: miter; stroke-linecap: square"/>
   </g>
   <g id="patch_9">
    <path d="M 366.735754 181.438125 
L 366.735754 15.118125 
" style="fill: none; stroke: #000000; stroke-width: 0.8; stroke-linejoin: miter; stroke-linecap: square"/>
   </g>
   <g id="patch_10">
    <path d="M 219.029871 181.438125 
L 366.735754 181.438125 
" style="fill: none; stroke: #000000; stroke-width: 0.8; stroke-linejoin: miter; stroke-linecap: square"/>
   </g>
   <g id="patch_11">
    <path d="M 219.029871 15.118125 
L 366.735754 15.118125 
" style="fill: none; stroke: #000000; stroke-width: 0.8; stroke-linejoin: miter; stroke-linecap: square"/>
   </g>
   <g id="text_23">
    <!-- Cluster 1, 6.1% -->
    <g transform="translate(246.806562 9.118125) scale(0.12 -0.12)">
     <use xlink:href="#DejaVuSans-43"/>
     <use xlink:href="#DejaVuSans-6c" x="69.824219"/>
     <use xlink:href="#DejaVuSans-75" x="97.607422"/>
     <use xlink:href="#DejaVuSans-73" x="160.986328"/>
     <use xlink:href="#DejaVuSans-74" x="213.085938"/>
     <use xlink:href="#DejaVuSans-65" x="252.294922"/>
     <use xlink:href="#DejaVuSans-72" x="313.818359"/>
     <use xlink:href="#DejaVuSans-20" x="354.931641"/>
     <use xlink:href="#DejaVuSans-31" x="386.71875"/>
     <use xlink:href="#DejaVuSans-2c" x="450.341797"/>
     <use xlink:href="#DejaVuSans-20" x="482.128906"/>
     <use xlink:href="#DejaVuSans-36" x="513.916016"/>
     <use xlink:href="#DejaVuSans-2e" x="577.539062"/>
     <use xlink:href="#DejaVuSans-31" x="609.326172"/>
     <use xlink:href="#DejaVuSans-25" x="672.949219"/>
    </g>
   </g>
  </g>
  <g id="axes_3">
   <g id="patch_12">
    <path d="M 396.27693 181.438125 
L 543.982813 181.438125 
L 543.982813 15.118125 
L 396.27693 15.118125 
z
" style="fill: #ffffff"/>
   </g>
   <g id="PolyCollection_3">
    <defs>
     <path id="mdbff157cbc" d="M 402.990834 -171.51552 
L 402.990834 -139.142228 
L 405.266733 -138.442882 
L 407.542633 -142.156294 
L 409.818533 -139.659948 
L 412.094432 -138.310674 
L 414.370332 -140.416759 
L 416.646231 -140.475317 
L 418.922131 -140.413115 
L 421.19803 -140.746276 
L 423.47393 -141.59555 
L 425.74983 -140.675924 
L 428.025729 -140.370814 
L 430.301629 -142.612618 
L 432.577528 -140.947608 
L 434.853428 -142.226343 
L 437.129328 -142.477022 
L 439.405227 -142.946175 
L 441.681127 -141.205923 
L 443.957026 -142.841389 
L 446.232926 -139.891951 
L 448.508825 -141.800493 
L 450.784725 -137.62662 
L 453.060625 -139.02901 
L 455.336524 -135.606025 
L 457.612424 -138.703778 
L 459.888323 -134.491813 
L 462.164223 -131.319848 
L 464.440122 -119.863405 
L 466.716022 -110.874955 
L 468.991922 -77.929875 
L 471.267821 -37.91625 
L 473.543721 -63.447259 
L 475.81962 -90.54875 
L 478.09552 -106.214004 
L 480.371419 -119.476987 
L 482.647319 -122.112618 
L 484.923219 -130.482236 
L 487.199118 -133.385597 
L 489.475018 -136.094983 
L 491.750917 -133.712765 
L 494.026817 -137.770186 
L 496.302716 -138.395642 
L 498.578616 -140.193212 
L 500.854516 -139.539334 
L 503.130415 -140.896415 
L 505.406315 -142.014716 
L 507.682214 -140.812811 
L 509.958114 -139.255919 
L 512.234013 -141.771842 
L 514.509913 -140.813694 
L 516.785813 -141.282677 
L 519.061712 -142.341094 
L 521.337612 -140.028192 
L 523.613511 -141.334745 
L 525.889411 -141.092809 
L 528.16531 -141.018389 
L 530.44121 -140.362514 
L 532.71711 -139.756686 
L 534.993009 -141.446447 
L 537.268909 -139.656021 
L 537.268909 -170.660883 
L 537.268909 -170.660883 
L 534.993009 -172.064523 
L 532.71711 -170.294136 
L 530.44121 -172.786452 
L 528.16531 -172.019151 
L 525.889411 -172.06835 
L 523.613511 -172.545462 
L 521.337612 -171.728425 
L 519.061712 -173.194236 
L 516.785813 -172.737726 
L 514.509913 -170.490925 
L 512.234013 -172.823208 
L 509.958114 -171.96157 
L 507.682214 -172.516324 
L 505.406315 -173.166446 
L 503.130415 -172.487772 
L 500.854516 -170.785273 
L 498.578616 -170.740499 
L 496.302716 -168.907383 
L 494.026817 -169.222788 
L 491.750917 -167.411196 
L 489.475018 -166.982187 
L 487.199118 -164.327896 
L 484.923219 -166.534149 
L 482.647319 -158.234347 
L 480.371419 -160.149677 
L 478.09552 -159.635033 
L 475.81962 -167.843554 
L 473.543721 -158.119235 
L 471.267821 -121.638893 
L 468.991922 -157.634318 
L 466.716022 -189.11625 
L 464.440122 -188.362656 
L 462.164223 -185.315578 
L 459.888323 -178.193132 
L 457.612424 -177.213437 
L 455.336524 -176.32535 
L 453.060625 -177.441876 
L 450.784725 -174.431186 
L 448.508825 -177.234782 
L 446.232926 -176.96284 
L 443.957026 -176.274249 
L 441.681127 -176.191521 
L 439.405227 -176.407234 
L 437.129328 -175.861548 
L 434.853428 -173.699122 
L 432.577528 -174.906256 
L 430.301629 -174.758093 
L 428.025729 -173.276217 
L 425.74983 -173.270906 
L 423.47393 -175.027827 
L 421.19803 -173.886979 
L 418.922131 -173.15097 
L 416.646231 -173.02169 
L 414.370332 -172.774543 
L 412.094432 -169.798296 
L 409.818533 -171.009497 
L 407.542633 -171.932194 
L 405.266733 -170.294815 
L 402.990834 -171.51552 
z
" style="stroke: #0000ff; stroke-opacity: 0.3"/>
    </defs>
    <g clip-path="url(#p3fb6dfb60e)">
     <use xlink:href="#mdbff157cbc" x="0" y="211.794375" style="fill: #0000ff; fill-opacity: 0.3; stroke: #0000ff; stroke-opacity: 0.3"/>
    </g>
   </g>
   <g id="matplotlib.axis_5">
    <g id="xtick_7">
     <g id="line2d_22">
      <g>
       <use xlink:href="#mf2517f4617" x="425.370513" y="181.438125" style="stroke: #000000; stroke-width: 0.8"/>
      </g>
     </g>
     <g id="text_24">
      <!-- −1 -->
      <g transform="translate(417.999419 196.036563) scale(0.1 -0.1)">
       <use xlink:href="#DejaVuSans-2212"/>
       <use xlink:href="#DejaVuSans-31" x="83.789062"/>
      </g>
     </g>
    </g>
    <g id="xtick_8">
     <g id="line2d_23">
      <g>
       <use xlink:href="#mf2517f4617" x="470.129871" y="181.438125" style="stroke: #000000; stroke-width: 0.8"/>
      </g>
     </g>
     <g id="text_25">
      <!-- 0 -->
      <g transform="translate(466.948621 196.036563) scale(0.1 -0.1)">
       <use xlink:href="#DejaVuSans-30"/>
      </g>
     </g>
    </g>
    <g id="xtick_9">
     <g id="line2d_24">
      <g>
       <use xlink:href="#mf2517f4617" x="514.88923" y="181.438125" style="stroke: #000000; stroke-width: 0.8"/>
      </g>
     </g>
     <g id="text_26">
      <!-- 1 -->
      <g transform="translate(511.70798 196.036563) scale(0.1 -0.1)">
       <use xlink:href="#DejaVuSans-31"/>
      </g>
     </g>
    </g>
   </g>
   <g id="matplotlib.axis_6">
    <g id="ytick_14">
     <g id="line2d_25">
      <g>
       <use xlink:href="#m0442995f8a" x="396.27693" y="169.229812" style="stroke: #000000; stroke-width: 0.8"/>
      </g>
     </g>
     <g id="text_27">
      <!-- −40 -->
      <g transform="translate(368.172243 173.029031) scale(0.1 -0.1)">
       <use xlink:href="#DejaVuSans-2212"/>
       <use xlink:href="#DejaVuSans-34" x="83.789062"/>
       <use xlink:href="#DejaVuSans-30" x="147.412109"/>
      </g>
     </g>
    </g>
    <g id="ytick_15">
     <g id="line2d_26">
      <g>
       <use xlink:href="#m0442995f8a" x="396.27693" y="141.833406" style="stroke: #000000; stroke-width: 0.8"/>
      </g>
     </g>
     <g id="text_28">
      <!-- −30 -->
      <g transform="translate(368.172243 145.632625) scale(0.1 -0.1)">
       <use xlink:href="#DejaVuSans-2212"/>
       <use xlink:href="#DejaVuSans-33" x="83.789062"/>
       <use xlink:href="#DejaVuSans-30" x="147.412109"/>
      </g>
     </g>
    </g>
    <g id="ytick_16">
     <g id="line2d_27">
      <g>
       <use xlink:href="#m0442995f8a" x="396.27693" y="114.437" style="stroke: #000000; stroke-width: 0.8"/>
      </g>
     </g>
     <g id="text_29">
      <!-- −20 -->
      <g transform="translate(368.172243 118.236218) scale(0.1 -0.1)">
       <use xlink:href="#DejaVuSans-2212"/>
       <use xlink:href="#DejaVuSans-32" x="83.789062"/>
       <use xlink:href="#DejaVuSans-30" x="147.412109"/>
      </g>
     </g>
    </g>
    <g id="ytick_17">
     <g id="line2d_28">
      <g>
       <use xlink:href="#m0442995f8a" x="396.27693" y="87.040593" style="stroke: #000000; stroke-width: 0.8"/>
      </g>
     </g>
     <g id="text_30">
      <!-- −10 -->
      <g transform="translate(368.172243 90.839812) scale(0.1 -0.1)">
       <use xlink:href="#DejaVuSans-2212"/>
       <use xlink:href="#DejaVuSans-31" x="83.789062"/>
       <use xlink:href="#DejaVuSans-30" x="147.412109"/>
      </g>
     </g>
    </g>
    <g id="ytick_18">
     <g id="line2d_29">
      <g>
       <use xlink:href="#m0442995f8a" x="396.27693" y="59.644187" style="stroke: #000000; stroke-width: 0.8"/>
      </g>
     </g>
     <g id="text_31">
      <!-- 0 -->
      <g transform="translate(382.91443 63.443406) scale(0.1 -0.1)">
       <use xlink:href="#DejaVuSans-30"/>
      </g>
     </g>
    </g>
    <g id="ytick_19">
     <g id="line2d_30">
      <g>
       <use xlink:href="#m0442995f8a" x="396.27693" y="32.247781" style="stroke: #000000; stroke-width: 0.8"/>
      </g>
     </g>
     <g id="text_32">
      <!-- 10 -->
      <g transform="translate(376.55193 36.047) scale(0.1 -0.1)">
       <use xlink:href="#DejaVuSans-31"/>
       <use xlink:href="#DejaVuSans-30" x="63.623047"/>
      </g>
     </g>
    </g>
   </g>
   <g id="line2d_31">
    <path d="M 402.990834 56.465501 
L 405.266733 57.425526 
L 407.542633 54.750131 
L 409.818533 56.459652 
L 412.094432 57.73989 
L 414.370332 55.198724 
L 416.646231 55.045871 
L 418.922131 55.012332 
L 421.19803 54.477747 
L 423.47393 53.482687 
L 425.74983 54.82096 
L 428.025729 54.970859 
L 430.301629 53.109019 
L 432.577528 53.867443 
L 434.853428 53.831642 
L 437.129328 52.62509 
L 439.405227 52.11767 
L 441.681127 53.095653 
L 443.957026 52.236556 
L 446.232926 53.36698 
L 448.508825 52.276738 
L 450.784725 55.765472 
L 453.060625 53.558932 
L 455.336524 55.828687 
L 457.612424 53.835768 
L 459.888323 55.451902 
L 462.164223 53.476662 
L 464.440122 57.681345 
L 466.716022 61.798773 
L 468.991922 94.012278 
L 471.267821 132.016804 
L 473.543721 101.011128 
L 475.81962 82.598223 
L 478.09552 78.869857 
L 480.371419 71.981043 
L 482.647319 71.620893 
L 484.923219 63.286183 
L 487.199118 62.937628 
L 489.475018 60.25579 
L 491.750917 61.232395 
L 494.026817 58.297888 
L 496.302716 58.142863 
L 498.578616 56.327519 
L 500.854516 56.632072 
L 503.130415 55.102281 
L 505.406315 54.203794 
L 507.682214 55.129808 
L 509.958114 56.18563 
L 512.234013 54.49685 
L 514.509913 56.142065 
L 516.785813 54.784173 
L 519.061712 54.02671 
L 521.337612 55.916067 
L 523.613511 54.854271 
L 525.889411 55.213796 
L 528.16531 55.275605 
L 530.44121 55.219892 
L 532.71711 56.768964 
L 534.993009 55.03889 
L 537.268909 56.635923 
" clip-path="url(#p3fb6dfb60e)" style="fill: none; stroke: #ff0000; stroke-width: 0.5; stroke-linecap: square"/>
   </g>
   <g id="patch_13">
    <path d="M 396.27693 181.438125 
L 396.27693 15.118125 
" style="fill: none; stroke: #000000; stroke-width: 0.8; stroke-linejoin: miter; stroke-linecap: square"/>
   </g>
   <g id="patch_14">
    <path d="M 543.982813 181.438125 
L 543.982813 15.118125 
" style="fill: none; stroke: #000000; stroke-width: 0.8; stroke-linejoin: miter; stroke-linecap: square"/>
   </g>
   <g id="patch_15">
    <path d="M 396.27693 181.438125 
L 543.982813 181.438125 
" style="fill: none; stroke: #000000; stroke-width: 0.8; stroke-linejoin: miter; stroke-linecap: square"/>
   </g>
   <g id="patch_16">
    <path d="M 396.27693 15.118125 
L 543.982813 15.118125 
" style="fill: none; stroke: #000000; stroke-width: 0.8; stroke-linejoin: miter; stroke-linecap: square"/>
   </g>
   <g id="text_33">
    <!-- Cluster 2, 41.5% -->
    <g transform="translate(420.236121 9.118125) scale(0.12 -0.12)">
     <use xlink:href="#DejaVuSans-43"/>
     <use xlink:href="#DejaVuSans-6c" x="69.824219"/>
     <use xlink:href="#DejaVuSans-75" x="97.607422"/>
     <use xlink:href="#DejaVuSans-73" x="160.986328"/>
     <use xlink:href="#DejaVuSans-74" x="213.085938"/>
     <use xlink:href="#DejaVuSans-65" x="252.294922"/>
     <use xlink:href="#DejaVuSans-72" x="313.818359"/>
     <use xlink:href="#DejaVuSans-20" x="354.931641"/>
     <use xlink:href="#DejaVuSans-32" x="386.71875"/>
     <use xlink:href="#DejaVuSans-2c" x="450.341797"/>
     <use xlink:href="#DejaVuSans-20" x="482.128906"/>
     <use xlink:href="#DejaVuSans-34" x="513.916016"/>
     <use xlink:href="#DejaVuSans-31" x="577.539062"/>
     <use xlink:href="#DejaVuSans-2e" x="641.162109"/>
     <use xlink:href="#DejaVuSans-35" x="672.949219"/>
     <use xlink:href="#DejaVuSans-25" x="736.572266"/>
    </g>
   </g>
  </g>
 </g>
 <defs>
  <clipPath id="pb9676e4068">
   <rect x="41.782812" y="15.118125" width="147.705882" height="166.32"/>
  </clipPath>
  <clipPath id="p5f46e50c5d">
   <rect x="219.029871" y="15.118125" width="147.705882" height="166.32"/>
  </clipPath>
  <clipPath id="p3fb6dfb60e">
   <rect x="396.27693" y="15.118125" width="147.705882" height="166.32"/>
  </clipPath>
 </defs>
</svg>
